ISO-10303-21;
HEADER;
FILE_DESCRIPTION (( 'STEP AP214' ),
    '1' );
FILE_NAME ('µç»úÁ¦±Û2.STEP',
    '2025-12-16T08:34:09',
    ( '' ),
    ( '' ),
    'SwSTEP 2.0',
    'SolidWorks 2025',
    '' );
FILE_SCHEMA (( 'AUTOMOTIVE_DESIGN' ));
ENDSEC;

DATA;
#1 = VERTEX_POINT ( 'NONE', #764 ) ;
#2 = EDGE_CURVE ( 'NONE', #642, #29, #838, .T. ) ;
#3 = CYLINDRICAL_SURFACE ( 'NONE', #98, 1.900000000000000577 ) ;
#4 = AXIS2_PLACEMENT_3D ( 'NONE', #803, #641, #487 ) ;
#5 = AXIS2_PLACEMENT_3D ( 'NONE', #544, #632, #944 ) ;
#6 = FACE_OUTER_BOUND ( 'NONE', #699, .T. ) ;
#7 = ORIENTED_EDGE ( 'NONE', *, *, #186, .F. ) ;
#8 = CARTESIAN_POINT ( 'NONE',  ( 6.250000000000010658, 0.000000000000000000, -10.82531754730547746 ) ) ;
#9 = CARTESIAN_POINT ( 'NONE',  ( -6.250000000000094147, 8.000000000000000000, 10.82531754730543838 ) ) ;
#10 = FACE_BOUND ( 'NONE', #505, .T. ) ;
#11 = ORIENTED_EDGE ( 'NONE', *, *, #275, .F. ) ;
#12 = CARTESIAN_POINT ( 'NONE',  ( -6.250000000000094147, 0.000000000000000000, 10.82531754730543838 ) ) ;
#13 = CARTESIAN_POINT ( 'NONE',  ( 0.000000000000000000, 0.000000000000000000, -10.19999999999999929 ) ) ;
#14 = FILL_AREA_STYLE ('',( #634 ) ) ;
#15 = EDGE_CURVE ( 'NONE', #446, #943, #756, .T. ) ;
#16 = CLOSED_SHELL ( 'NONE', ( #121, #202, #534, #81, #924, #455, #652, #765, #22, #607, #230, #858, #210, #256, #497, #994, #565, #163, #761, #897, #990, #750, #380, #385, #630, #64, #958, #305, #528 ) ) ;
#17 = ORIENTED_EDGE ( 'NONE', *, *, #863, .T. ) ;
#18 = FACE_OUTER_BOUND ( 'NONE', #200, .T. ) ;
#19 = CYLINDRICAL_SURFACE ( 'NONE', #4, 16.50000000000000000 ) ;
#20 =( NAMED_UNIT ( * ) SI_UNIT ( $, .STERADIAN. ) SOLID_ANGLE_UNIT ( ) );
#21 = CIRCLE ( 'NONE', #721, 1.900000000000000577 ) ;
#22 = ADVANCED_FACE ( 'NONE', ( #381 ), #605, .F. ) ;
#23 = CIRCLE ( 'NONE', #608, 2.500000000000000444 ) ;
#24 = ORIENTED_EDGE ( 'NONE', *, *, #714, .T. ) ;
#25 = CARTESIAN_POINT ( 'NONE',  ( -8.833459118600627491, 0.000000000000000000, 5.100000000000373568 ) ) ;
#26 = VERTEX_POINT ( 'NONE', #689 ) ;
#27 = LINE ( 'NONE', #829, #362 ) ;
#28 = EDGE_CURVE ( 'NONE', #642, #529, #282, .T. ) ;
#29 = VERTEX_POINT ( 'NONE', #49 ) ;
#30 = EDGE_CURVE ( 'NONE', #880, #72, #454, .T. ) ;
#31 = CARTESIAN_POINT ( 'NONE',  ( 12.50000000000000355, 0.000000000000000000, -1.899999999999958611 ) ) ;
#32 = ORIENTED_EDGE ( 'NONE', *, *, #823, .T. ) ;
#33 = CARTESIAN_POINT ( 'NONE',  ( 6.249999999999939604, 0.000000000000000000, 12.72531754730552400 ) ) ;
#34 = ORIENTED_EDGE ( 'NONE', *, *, #300, .T. ) ;
#35 = DIRECTION ( 'NONE',  ( 0.000000000000000000, 0.000000000000000000, 1.000000000000000000 ) ) ;
#36 = PLANE ( 'NONE',  #616 ) ;
#37 = EDGE_LOOP ( 'NONE', ( #436, #244, #47, #783 ) ) ;
#38 = FACE_BOUND ( 'NONE', #495, .T. ) ;
#39 = FACE_OUTER_BOUND ( 'NONE', #808, .T. ) ;
#40 = ORIENTED_EDGE ( 'NONE', *, *, #228, .T. ) ;
#41 = VECTOR ( 'NONE', #845, 1000.000000000000000 ) ;
#42 = CARTESIAN_POINT ( 'NONE',  ( -12.50000000000000355, 0.000000000000000000, -1.275021754842953214E-13 ) ) ;
#43 = FACE_BOUND ( 'NONE', #760, .T. ) ;
#44 = LINE ( 'NONE', #727, #143 ) ;
#45 = CIRCLE ( 'NONE', #752, 1.900000000000000577 ) ;
#46 = EDGE_CURVE ( 'NONE', #156, #324, #684, .T. ) ;
#47 = ORIENTED_EDGE ( 'NONE', *, *, #618, .T. ) ;
#48 = DIRECTION ( 'NONE',  ( 0.000000000000000000, 0.000000000000000000, 1.000000000000000000 ) ) ;
#49 = CARTESIAN_POINT ( 'NONE',  ( -6.250000000000094147, 8.000000000000000000, 12.72531754730543874 ) ) ;
#50 = EDGE_LOOP ( 'NONE', ( #747, #190, #859, #162 ) ) ;
#51 = DIRECTION ( 'NONE',  ( 0.000000000000000000, 0.000000000000000000, 1.000000000000000000 ) ) ;
#52 = ORIENTED_EDGE ( 'NONE', *, *, #169, .T. ) ;
#53 = DIRECTION ( 'NONE',  ( 0.000000000000000000, 0.000000000000000000, 1.000000000000000000 ) ) ;
#54 = VECTOR ( 'NONE', #963, 1000.000000000000000 ) ;
#55 = AXIS2_PLACEMENT_3D ( 'NONE', #403, #346, #278 ) ;
#56 = CARTESIAN_POINT ( 'NONE',  ( -8.833459118600627491, 0.000000000000000000, 5.100000000000373568 ) ) ;
#57 = ORIENTED_EDGE ( 'NONE', *, *, #2, .T. ) ;
#58 = EDGE_CURVE ( 'NONE', #833, #943, #522, .T. ) ;
#59 = DIRECTION ( 'NONE',  ( 0.000000000000000000, 0.000000000000000000, 1.000000000000000000 ) ) ;
#60 = EDGE_CURVE ( 'NONE', #999, #1, #405, .T. ) ;
#61 = CARTESIAN_POINT ( 'NONE',  ( 0.000000000000000000, 0.000000000000000000, -16.50000000000000000 ) ) ;
#62 = ORIENTED_EDGE ( 'NONE', *, *, #710, .F. ) ;
#63 = CYLINDRICAL_SURFACE ( 'NONE', #988, 2.500000000000000444 ) ;
#64 = ADVANCED_FACE ( 'NONE', ( #697 ), #620, .T. ) ;
#65 = FACE_OUTER_BOUND ( 'NONE', #938, .T. ) ;
#66 = CIRCLE ( 'NONE', #639, 2.500000000000000444 ) ;
#67 = CYLINDRICAL_SURFACE ( 'NONE', #461, 1.900000000000000133 ) ;
#68 = EDGE_CURVE ( 'NONE', #29, #675, #846, .T. ) ;
#69 = CARTESIAN_POINT ( 'NONE',  ( 6.249999999999939604, 8.000000000000000000, 10.82531754730552365 ) ) ;
#70 = AXIS2_PLACEMENT_3D ( 'NONE', #909, #296, #602 ) ;
#71 = DIRECTION ( 'NONE',  ( 0.000000000000000000, 1.000000000000000000, 0.000000000000000000 ) ) ;
#72 = VERTEX_POINT ( 'NONE', #706 ) ;
#73 = CARTESIAN_POINT ( 'NONE',  ( -6.250000000000016875, 8.000000000000000000, -8.925317547305475330 ) ) ;
#74 = FACE_BOUND ( 'NONE', #175, .T. ) ;
#75 = EDGE_LOOP ( 'NONE', ( #907, #812, #703, #80 ) ) ;
#76 = EDGE_CURVE ( 'NONE', #390, #514, #661, .T. ) ;
#77 = CARTESIAN_POINT ( 'NONE',  ( 6.250000000000010658, 0.000000000000000000, -8.925317547305477106 ) ) ;
#78 = ORIENTED_EDGE ( 'NONE', *, *, #451, .F. ) ;
#79 = CARTESIAN_POINT ( 'NONE',  ( 0.000000000000000000, 0.000000000000000000, 0.000000000000000000 ) ) ;
#80 = ORIENTED_EDGE ( 'NONE', *, *, #319, .T. ) ;
#81 = ADVANCED_FACE ( 'NONE', ( #861 ), #236, .F. ) ;
#82 = CARTESIAN_POINT ( 'NONE',  ( 0.4122423485321676240, 8.000000000000000000, -16.48969394128669919 ) ) ;
#83 = CARTESIAN_POINT ( 'NONE',  ( 120.0000000000000000, 60.00000000000000000, 0.000000000000000000 ) ) ;
#84 = ORIENTED_EDGE ( 'NONE', *, *, #186, .T. ) ;
#85 = DIRECTION ( 'NONE',  ( 0.000000000000000000, 1.000000000000000000, 0.000000000000000000 ) ) ;
#86 = EDGE_LOOP ( 'NONE', ( #401, #285 ) ) ;
#87 = VECTOR ( 'NONE', #825, 1000.000000000000000 ) ;
#88 = LINE ( 'NONE', #77, #335 ) ;
#89 = CARTESIAN_POINT ( 'NONE',  ( 120.0000000000000000, 60.00000000000000000, 10.00000000000000888 ) ) ;
#90 = EDGE_LOOP ( 'NONE', ( #724, #900, #62, #340 ) ) ;
#91 = FACE_BOUND ( 'NONE', #218, .T. ) ;
#92 = VECTOR ( 'NONE', #762, 1000.000000000000000 ) ;
#93 = VERTEX_POINT ( 'NONE', #687 ) ;
#94 = DIRECTION ( 'NONE',  ( 0.000000000000000000, 1.000000000000000000, 0.000000000000000000 ) ) ;
#95 = DIRECTION ( 'NONE',  ( 0.000000000000000000, 0.000000000000000000, 1.000000000000000000 ) ) ;
#96 = DIRECTION ( 'NONE',  ( -0.000000000000000000, 1.000000000000000000, -0.000000000000000000 ) ) ;
#97 = AXIS2_PLACEMENT_3D ( 'NONE', #571, #500, #246 ) ;
#98 = AXIS2_PLACEMENT_3D ( 'NONE', #12, #462, #640 ) ;
#99 = EDGE_CURVE ( 'NONE', #532, #408, #167, .T. ) ;
#100 = EDGE_LOOP ( 'NONE', ( #344, #393, #267, #742 ) ) ;
#101 = CARTESIAN_POINT ( 'NONE',  ( -12.50000000000000355, 0.000000000000000000, -1.275021754842953214E-13 ) ) ;
#102 = CARTESIAN_POINT ( 'NONE',  ( 0.000000000000000000, 8.000000000000000000, 0.000000000000000000 ) ) ;
#103 = VERTEX_POINT ( 'NONE', #404 ) ;
#104 = CARTESIAN_POINT ( 'NONE',  ( -6.250000000000094147, 0.000000000000000000, 12.72531754730543874 ) ) ;
#105 = AXIS2_PLACEMENT_3D ( 'NONE', #759, #682, #51 ) ;
#106 = ORIENTED_EDGE ( 'NONE', *, *, #917, .F. ) ;
#107 = DIRECTION ( 'NONE',  ( 1.000000000000000000, 0.000000000000000000, 0.000000000000000000 ) ) ;
#108 = DIRECTION ( 'NONE',  ( 0.000000000000000000, 0.000000000000000000, 1.000000000000000000 ) ) ;
#109 = DIRECTION ( 'NONE',  ( 0.000000000000000000, 0.000000000000000000, 1.000000000000000000 ) ) ;
#110 = EDGE_LOOP ( 'NONE', ( #726, #820 ) ) ;
#111 = ORIENTED_EDGE ( 'NONE', *, *, #830, .T. ) ;
#112 = CYLINDRICAL_SURFACE ( 'NONE', #117, 10.00000000000000888 ) ;
#113 = ORIENTED_EDGE ( 'NONE', *, *, #28, .T. ) ;
#114 = CARTESIAN_POINT ( 'NONE',  ( 12.50000000000000355, 0.000000000000000000, 4.163336342344337027E-14 ) ) ;
#115 = ORIENTED_EDGE ( 'NONE', *, *, #559, .T. ) ;
#116 = FACE_OUTER_BOUND ( 'NONE', #100, .T. ) ;
#117 = AXIS2_PLACEMENT_3D ( 'NONE', #638, #345, #802 ) ;
#118 = UNCERTAINTY_MEASURE_WITH_UNIT (LENGTH_MEASURE( 1.000000000000000082E-05 ), #954, 'distance_accuracy_value', 'NONE');
#119 =( NAMED_UNIT ( * ) SI_UNIT ( $, .STERADIAN. ) SOLID_ANGLE_UNIT ( ) );
#120 = DIRECTION ( 'NONE',  ( -0.000000000000000000, 1.000000000000000000, -0.000000000000000000 ) ) ;
#121 = ADVANCED_FACE ( 'NONE', ( #577 ), #264, .T. ) ;
#122 = DIRECTION ( 'NONE',  ( 0.000000000000000000, 0.000000000000000000, 1.000000000000000000 ) ) ;
#123 = VERTEX_POINT ( 'NONE', #330 ) ;
#124 = CIRCLE ( 'NONE', #745, 1.900000000000000133 ) ;
#125 = CARTESIAN_POINT ( 'NONE',  ( 6.250000000000010658, 0.000000000000000000, -12.72531754730547782 ) ) ;
#126 = LINE ( 'NONE', #31, #54 ) ;
#127 = VERTEX_POINT ( 'NONE', #879 ) ;
#128 = DIRECTION ( 'NONE',  ( 0.000000000000000000, 0.000000000000000000, 1.000000000000000000 ) ) ;
#129 = EDGE_LOOP ( 'NONE', ( #558, #40 ) ) ;
#130 = CARTESIAN_POINT ( 'NONE',  ( -8.833459118600627491, 0.000000000000000000, 2.600000000000372680 ) ) ;
#131 = EDGE_LOOP ( 'NONE', ( #791, #895, #804, #552 ) ) ;
#132 = LINE ( 'NONE', #297, #309 ) ;
#133 = EDGE_CURVE ( 'NONE', #215, #719, #410, .T. ) ;
#134 = EDGE_LOOP ( 'NONE', ( #24, #17 ) ) ;
#135 = CIRCLE ( 'NONE', #806, 1.900000000000000133 ) ;
#136 = AXIS2_PLACEMENT_3D ( 'NONE', #467, #480, #391 ) ;
#137 = DIRECTION ( 'NONE',  ( -0.000000000000000000, -1.000000000000000000, -0.000000000000000000 ) ) ;
#138 = DIRECTION ( 'NONE',  ( -0.000000000000000000, -1.000000000000000000, -0.000000000000000000 ) ) ;
#139 = VERTEX_POINT ( 'NONE', #730 ) ;
#140 = DIRECTION ( 'NONE',  ( 0.000000000000000000, 0.000000000000000000, 1.000000000000000000 ) ) ;
#141 = DIRECTION ( 'NONE',  ( -0.000000000000000000, 1.000000000000000000, -0.000000000000000000 ) ) ;
#142 = ORIENTED_EDGE ( 'NONE', *, *, #516, .T. ) ;
#143 = VECTOR ( 'NONE', #736, 1000.000000000000114 ) ;
#144 = CARTESIAN_POINT ( 'NONE',  ( -6.250000000000094147, 0.000000000000000000, 12.72531754730543874 ) ) ;
#145 = EDGE_CURVE ( 'NONE', #941, #831, #223, .T. ) ;
#146 = CARTESIAN_POINT ( 'NONE',  ( 6.250000000000010658, 8.000000000000000000, -10.82531754730547746 ) ) ;
#147 = DIRECTION ( 'NONE',  ( 0.000000000000000000, 0.000000000000000000, 1.000000000000000000 ) ) ;
#148 = DIRECTION ( 'NONE',  ( 0.000000000000000000, 0.000000000000000000, 1.000000000000000000 ) ) ;
#149 = EDGE_LOOP ( 'NONE', ( #239, #572, #864, #950, #262, #985 ) ) ;
#150 = VECTOR ( 'NONE', #561, 1000.000000000000000 ) ;
#151 = CIRCLE ( 'NONE', #852, 2.500000000000000444 ) ;
#152 = CIRCLE ( 'NONE', #5, 1.900000000000000577 ) ;
#153 = DIRECTION ( 'NONE',  ( 0.000000000000000000, 0.000000000000000000, 1.000000000000000000 ) ) ;
#154 = DIRECTION ( 'NONE',  ( 0.000000000000000000, 0.000000000000000000, 1.000000000000000000 ) ) ;
#155 = CARTESIAN_POINT ( 'NONE',  ( 0.8244846970641630524, 8.000000000000000000, 16.47938788257340192 ) ) ;
#156 = VERTEX_POINT ( 'NONE', #725 ) ;
#157 = AXIS2_PLACEMENT_3D ( 'NONE', #1002, #600, #375 ) ;
#158 = DIRECTION ( 'NONE',  ( 0.000000000000000000, 1.000000000000000000, 0.000000000000000000 ) ) ;
#159 = VERTEX_POINT ( 'NONE', #735 ) ;
#160 = DIRECTION ( 'NONE',  ( -0.000000000000000000, -1.000000000000000000, -0.000000000000000000 ) ) ;
#161 = VERTEX_POINT ( 'NONE', #885 ) ;
#162 = ORIENTED_EDGE ( 'NONE', *, *, #348, .T. ) ;
#163 = ADVANCED_FACE ( 'NONE', ( #711 ), #171, .F. ) ;
#164 = CARTESIAN_POINT ( 'NONE',  ( 8.833459118601924231, 0.000000000000000000, 2.599999999999622613 ) ) ;
#165 = DIRECTION ( 'NONE',  ( 0.000000000000000000, 0.000000000000000000, -1.000000000000000000 ) ) ;
#166 = AXIS2_PLACEMENT_3D ( 'NONE', #368, #698, #982 ) ;
#167 = CIRCLE ( 'NONE', #609, 1.900000000000000577 ) ;
#168 = VERTEX_POINT ( 'NONE', #481 ) ;
#169 = EDGE_CURVE ( 'NONE', #529, #642, #932, .T. ) ;
#170 = DIRECTION ( 'NONE',  ( -0.000000000000000000, 1.000000000000000000, -0.000000000000000000 ) ) ;
#171 = CYLINDRICAL_SURFACE ( 'NONE', #187, 2.500000000000000444 ) ;
#172 = VERTEX_POINT ( 'NONE', #952 ) ;
#173 = CIRCLE ( 'NONE', #306, 1.900000000000000133 ) ;
#174 = LINE ( 'NONE', #412, #778 ) ;
#175 = EDGE_LOOP ( 'NONE', ( #373, #754 ) ) ;
#176 = AXIS2_PLACEMENT_3D ( 'NONE', #211, #518, #128 ) ;
#177 = DIRECTION ( 'NONE',  ( -0.000000000000000000, 1.000000000000000000, -0.000000000000000000 ) ) ;
#178 = DIRECTION ( 'NONE',  ( -0.000000000000000000, 1.000000000000000000, -0.000000000000000000 ) ) ;
#179 = VERTEX_POINT ( 'NONE', #89 ) ;
#180 = FACE_BOUND ( 'NONE', #134, .T. ) ;
#181 = ORIENTED_EDGE ( 'NONE', *, *, #635, .F. ) ;
#182 = PRODUCT ( '\X2\7535673a529b81c2\X0\2', '\X2\7535673a529b81c2\X0\2', '', ( #734 ) ) ;
#183 = DIRECTION ( 'NONE',  ( 0.000000000000000000, 0.000000000000000000, 1.000000000000000000 ) ) ;
#184 = FACE_OUTER_BOUND ( 'NONE', #131, .T. ) ;
#185 = CARTESIAN_POINT ( 'NONE',  ( 6.250000000000010658, 8.000000000000000000, -10.82531754730547746 ) ) ;
#186 = EDGE_CURVE ( 'NONE', #855, #103, #541, .T. ) ;
#187 = AXIS2_PLACEMENT_3D ( 'NONE', #13, #810, #336 ) ;
#188 = VECTOR ( 'NONE', #177, 1000.000000000000000 ) ;
#189 = VERTEX_POINT ( 'NONE', #959 ) ;
#190 = ORIENTED_EDGE ( 'NONE', *, *, #60, .F. ) ;
#191 = FACE_OUTER_BOUND ( 'NONE', #780, .T. ) ;
#192 = ORIENTED_EDGE ( 'NONE', *, *, #964, .F. ) ;
#193 = CARTESIAN_POINT ( 'NONE',  ( 0.000000000000000000, 8.000000000000000000, 0.000000000000000000 ) ) ;
#194 = EDGE_LOOP ( 'NONE', ( #250, #592 ) ) ;
#195 = SHAPE_DEFINITION_REPRESENTATION ( #583, #513 ) ;
#196 = DIRECTION ( 'NONE',  ( -0.9996876464081227986, 0.000000000000000000, 0.02499219116020308384 ) ) ;
#197 = EDGE_LOOP ( 'NONE', ( #206, #507, #751, #253 ) ) ;
#198 = DIRECTION ( 'NONE',  ( 0.000000000000000000, 0.000000000000000000, 1.000000000000000000 ) ) ;
#199 = AXIS2_PLACEMENT_3D ( 'NONE', #292, #910, #214 ) ;
#200 = EDGE_LOOP ( 'NONE', ( #847, #523, #57, #406 ) ) ;
#201 = CARTESIAN_POINT ( 'NONE',  ( 8.833459118601924231, 8.000000000000000000, 5.099999999999623057 ) ) ;
#202 = ADVANCED_FACE ( 'NONE', ( #790 ), #420, .F. ) ;
#203 = FACE_OUTER_BOUND ( 'NONE', #149, .T. ) ;
#204 = CARTESIAN_POINT ( 'NONE',  ( -6.250000000000016875, 8.000000000000000000, -10.82531754730547568 ) ) ;
#205 = AXIS2_PLACEMENT_3D ( 'NONE', #452, #226, #535 ) ;
#206 = ORIENTED_EDGE ( 'NONE', *, *, #228, .F. ) ;
#207 = FACE_OUTER_BOUND ( 'NONE', #976, .T. ) ;
#208 = VECTOR ( 'NONE', #896, 1000.000000000000000 ) ;
#209 = CARTESIAN_POINT ( 'NONE',  ( -6.250000000000094147, 0.000000000000000000, 10.82531754730543838 ) ) ;
#210 = ADVANCED_FACE ( 'NONE', ( #191 ), #19, .T. ) ;
#211 = CARTESIAN_POINT ( 'NONE',  ( -8.833459118600627491, 0.000000000000000000, 5.100000000000373568 ) ) ;
#212 = AXIS2_PLACEMENT_3D ( 'NONE', #781, #329, #627 ) ;
#213 = ORIENTED_EDGE ( 'NONE', *, *, #224, .T. ) ;
#214 = DIRECTION ( 'NONE',  ( 0.000000000000000000, 0.000000000000000000, 1.000000000000000000 ) ) ;
#215 = VERTEX_POINT ( 'NONE', #347 ) ;
#216 = CARTESIAN_POINT ( 'NONE',  ( 8.833459118601924231, 8.000000000000000000, 5.099999999999623057 ) ) ;
#217 = EDGE_CURVE ( 'NONE', #93, #215, #135, .T. ) ;
#218 = EDGE_LOOP ( 'NONE', ( #113, #52 ) ) ;
#219 = DIRECTION ( 'NONE',  ( 0.000000000000000000, 0.000000000000000000, 1.000000000000000000 ) ) ;
#220 = ORIENTED_EDGE ( 'NONE', *, *, #516, .F. ) ;
#221 = DIRECTION ( 'NONE',  ( 0.000000000000000000, 1.000000000000000000, -0.000000000000000000 ) ) ;
#222 = DIRECTION ( 'NONE',  ( 0.000000000000000000, 1.000000000000000000, 0.000000000000000000 ) ) ;
#223 = CIRCLE ( 'NONE', #575, 1.900000000000000577 ) ;
#224 = EDGE_CURVE ( 'NONE', #425, #719, #595, .T. ) ;
#225 = CARTESIAN_POINT ( 'NONE',  ( -6.250000000000016875, 0.000000000000000000, -10.82531754730547568 ) ) ;
#226 = DIRECTION ( 'NONE',  ( 0.000000000000000000, 1.000000000000000000, -0.000000000000000000 ) ) ;
#227 = CYLINDRICAL_SURFACE ( 'NONE', #70, 1.900000000000000577 ) ;
#228 = EDGE_CURVE ( 'NONE', #1, #999, #151, .T. ) ;
#229 = APPLICATION_CONTEXT ( 'automotive_design' ) ;
#230 = ADVANCED_FACE ( 'NONE', ( #184 ), #494, .T. ) ;
#231 = DIRECTION ( 'NONE',  ( 0.000000000000000000, 1.000000000000000000, 0.000000000000000000 ) ) ;
#232 = DIRECTION ( 'NONE',  ( 0.000000000000000000, 0.000000000000000000, -1.000000000000000000 ) ) ;
#233 = CARTESIAN_POINT ( 'NONE',  ( 12.50000000000000355, 0.000000000000000000, 4.163336342344337027E-14 ) ) ;
#234 = CIRCLE ( 'NONE', #372, 2.500000000000000444 ) ;
#235 = DIRECTION ( 'NONE',  ( -0.02499219116020308731, 0.000000000000000000, 0.9996876464081227986 ) ) ;
#236 = CYLINDRICAL_SURFACE ( 'NONE', #788, 2.500000000000000444 ) ;
#237 = EDGE_CURVE ( 'NONE', #93, #425, #126, .T. ) ;
#238 = SURFACE_STYLE_USAGE ( .BOTH. , #475 ) ;
#239 = ORIENTED_EDGE ( 'NONE', *, *, #447, .T. ) ;
#240 = AXIS2_PLACEMENT_3D ( 'NONE', #849, #440, #680 ) ;
#241 = DIRECTION ( 'NONE',  ( 0.000000000000000000, 0.000000000000000000, 1.000000000000000000 ) ) ;
#242 = CARTESIAN_POINT ( 'NONE',  ( 120.0000000000000000, 8.000000000000000000, 0.000000000000000000 ) ) ;
#243 = EDGE_CURVE ( 'NONE', #408, #161, #268, .T. ) ;
#244 = ORIENTED_EDGE ( 'NONE', *, *, #314, .T. ) ;
#245 = CARTESIAN_POINT ( 'NONE',  ( -6.250000000000016875, 8.000000000000000000, -12.72531754730547604 ) ) ;
#246 = DIRECTION ( 'NONE',  ( 0.000000000000000000, 0.000000000000000000, 1.000000000000000000 ) ) ;
#247 = ORIENTED_EDGE ( 'NONE', *, *, #816, .F. ) ;
#248 = DIRECTION ( 'NONE',  ( 0.000000000000000000, 0.000000000000000000, 1.000000000000000000 ) ) ;
#249 = EDGE_CURVE ( 'NONE', #123, #159, #474, .T. ) ;
#250 = ORIENTED_EDGE ( 'NONE', *, *, #667, .F. ) ;
#251 = CARTESIAN_POINT ( 'NONE',  ( 0.8244846970641632744, 8.000000000000000000, -16.47938788257340548 ) ) ;
#252 = DIRECTION ( 'NONE',  ( 0.000000000000000000, 0.000000000000000000, 1.000000000000000000 ) ) ;
#253 = ORIENTED_EDGE ( 'NONE', *, *, #479, .F. ) ;
#254 = AXIS2_PLACEMENT_3D ( 'NONE', #927, #277, #148 ) ;
#255 = ORIENTED_EDGE ( 'NONE', *, *, #58, .F. ) ;
#256 = ADVANCED_FACE ( 'NONE', ( #664, #818, #582, #892, #38, #671, #43, #968, #746, #203, #363 ), #973, .T. ) ;
#257 = LINE ( 'NONE', #936, #519 ) ;
#258 = CIRCLE ( 'NONE', #955, 1.900000000000000577 ) ;
#259 = CARTESIAN_POINT ( 'NONE',  ( 12.50000000000000355, 0.000000000000000000, 4.163336342344337027E-14 ) ) ;
#260 = COLOUR_RGB ( '',0.7921568627450980005, 0.8196078431372548767, 0.9333333333333333481 ) ;
#261 = CARTESIAN_POINT ( 'NONE',  ( 0.8244846970641632744, 8.000000000000000000, 16.47938788257340548 ) ) ;
#262 = ORIENTED_EDGE ( 'NONE', *, *, #30, .T. ) ;
#263 = CARTESIAN_POINT ( 'NONE',  ( -8.833459118600627491, 0.000000000000000000, 7.600000000000373568 ) ) ;
#264 = CYLINDRICAL_SURFACE ( 'NONE', #353, 10.00000000000000888 ) ;
#265 = VERTEX_POINT ( 'NONE', #588 ) ;
#266 = DIRECTION ( 'NONE',  ( 0.000000000000000000, 1.000000000000000000, 0.000000000000000000 ) ) ;
#267 = ORIENTED_EDGE ( 'NONE', *, *, #133, .T. ) ;
#268 = LINE ( 'NONE', #555, #622 ) ;
#269 = CARTESIAN_POINT ( 'NONE',  ( -6.250000000000016875, 0.000000000000000000, -10.82531754730547568 ) ) ;
#270 = ORIENTED_EDGE ( 'NONE', *, *, #843, .F. ) ;
#271 = FACE_OUTER_BOUND ( 'NONE', #837, .T. ) ;
#272 = CARTESIAN_POINT ( 'NONE',  ( 8.833459118601924231, 8.000000000000000000, 2.599999999999622613 ) ) ;
#273 = ORIENTED_EDGE ( 'NONE', *, *, #99, .F. ) ;
#274 = DIRECTION ( 'NONE',  ( 0.000000000000000000, 1.000000000000000000, 0.000000000000000000 ) ) ;
#275 = EDGE_CURVE ( 'NONE', #159, #659, #234, .T. ) ;
#276 = ORIENTED_EDGE ( 'NONE', *, *, #797, .T. ) ;
#277 = DIRECTION ( 'NONE',  ( 0.000000000000000000, 1.000000000000000000, 0.000000000000000000 ) ) ;
#278 = DIRECTION ( 'NONE',  ( 0.000000000000000000, 0.000000000000000000, 1.000000000000000000 ) ) ;
#279 = AXIS2_PLACEMENT_3D ( 'NONE', #204, #274, #109 ) ;
#280 = CARTESIAN_POINT ( 'NONE',  ( 0.000000000000000000, 8.000000000000000000, 0.000000000000000000 ) ) ;
#281 = FACE_OUTER_BOUND ( 'NONE', #815, .T. ) ;
#282 = CIRCLE ( 'NONE', #898, 1.900000000000000577 ) ;
#283 = ORIENTED_EDGE ( 'NONE', *, *, #987, .T. ) ;
#284 = FACE_OUTER_BOUND ( 'NONE', #428, .T. ) ;
#285 = ORIENTED_EDGE ( 'NONE', *, *, #365, .F. ) ;
#286 = DIRECTION ( 'NONE',  ( 0.02499219116020308731, -0.000000000000000000, 0.9996876464081227986 ) ) ;
#287 = AXIS2_PLACEMENT_3D ( 'NONE', #527, #221, #219 ) ;
#288 = AXIS2_PLACEMENT_3D ( 'NONE', #874, #568, #718 ) ;
#289 = AXIS2_PLACEMENT_3D ( 'NONE', #705, #784, #930 ) ;
#290 = VERTEX_POINT ( 'NONE', #272 ) ;
#291 = CARTESIAN_POINT ( 'NONE',  ( -8.833459118600627491, 8.000000000000000000, 5.100000000000373568 ) ) ;
#292 = CARTESIAN_POINT ( 'NONE',  ( 120.0000000000000000, 8.000000000000000000, 0.000000000000000000 ) ) ;
#293 = EDGE_LOOP ( 'NONE', ( #773, #411 ) ) ;
#294 = CARTESIAN_POINT ( 'NONE',  ( 6.249999999999939604, 0.000000000000000000, 12.72531754730552400 ) ) ;
#295 = CIRCLE ( 'NONE', #857, 1.900000000000000133 ) ;
#296 = DIRECTION ( 'NONE',  ( -0.000000000000000000, 1.000000000000000000, -0.000000000000000000 ) ) ;
#297 = CARTESIAN_POINT ( 'NONE',  ( 3.061616997868383634E-16, 0.000000000000000000, -12.69999999999999929 ) ) ;
#298 = DIRECTION ( 'NONE',  ( 0.000000000000000000, 0.000000000000000000, 1.000000000000000000 ) ) ;
#299 = CARTESIAN_POINT ( 'NONE',  ( -6.250000000000094147, 8.000000000000000000, 8.925317547305438026 ) ) ;
#300 = EDGE_CURVE ( 'NONE', #880, #397, #424, .T. ) ;
#301 = CIRCLE ( 'NONE', #824, 2.500000000000000444 ) ;
#302 = DIRECTION ( 'NONE',  ( 0.000000000000000000, 1.000000000000000000, 0.000000000000000000 ) ) ;
#303 = CARTESIAN_POINT ( 'NONE',  ( 6.249999999999939604, 0.000000000000000000, 10.82531754730552365 ) ) ;
#304 = VECTOR ( 'NONE', #178, 1000.000000000000000 ) ;
#305 = ADVANCED_FACE ( 'NONE', ( #504 ), #112, .T. ) ;
#306 = AXIS2_PLACEMENT_3D ( 'NONE', #621, #629, #248 ) ;
#307 = DIRECTION ( 'NONE',  ( -0.000000000000000000, 1.000000000000000000, -0.000000000000000000 ) ) ;
#308 = CARTESIAN_POINT ( 'NONE',  ( 0.000000000000000000, 8.000000000000000000, 0.000000000000000000 ) ) ;
#309 = VECTOR ( 'NONE', #915, 1000.000000000000000 ) ;
#310 = CYLINDRICAL_SURFACE ( 'NONE', #212, 16.50000000000000000 ) ;
#311 = LINE ( 'NONE', #261, #435 ) ;
#312 = ORIENTED_EDGE ( 'NONE', *, *, #58, .T. ) ;
#313 = CIRCLE ( 'NONE', #807, 16.50000000000000000 ) ;
#314 = EDGE_CURVE ( 'NONE', #127, #831, #692, .T. ) ;
#315 = FACE_OUTER_BOUND ( 'NONE', #553, .T. ) ;
#316 = PLANE ( 'NONE',  #358 ) ;
#317 = EDGE_LOOP ( 'NONE', ( #981, #604, #34, #631 ) ) ;
#318 = CARTESIAN_POINT ( 'NONE',  ( 120.0000000000000000, 8.000000000000000000, 13.50000000000000178 ) ) ;
#319 = EDGE_CURVE ( 'NONE', #265, #290, #23, .T. ) ;
#320 = ORIENTED_EDGE ( 'NONE', *, *, #374, .F. ) ;
#321 = EDGE_LOOP ( 'NONE', ( #371, #953, #902, #320 ) ) ;
#322 = FACE_OUTER_BOUND ( 'NONE', #570, .T. ) ;
#323 = DIRECTION ( 'NONE',  ( 0.000000000000000000, 1.000000000000000000, 0.000000000000000000 ) ) ;
#324 = VERTEX_POINT ( 'NONE', #508 ) ;
#325 = DIRECTION ( 'NONE',  ( 0.000000000000000000, -0.000000000000000000, 1.000000000000000000 ) ) ;
#326 = EDGE_CURVE ( 'NONE', #127, #482, #949, .T. ) ;
#327 = ORIENTED_EDGE ( 'NONE', *, *, #929, .T. ) ;
#328 = VECTOR ( 'NONE', #383, 1000.000000000000114 ) ;
#329 = DIRECTION ( 'NONE',  ( -0.000000000000000000, -1.000000000000000000, -0.000000000000000000 ) ) ;
#330 = CARTESIAN_POINT ( 'NONE',  ( 0.000000000000000000, 0.000000000000000000, -7.699999999999998401 ) ) ;
#331 = DIRECTION ( 'NONE',  ( -0.000000000000000000, 1.000000000000000000, -0.000000000000000000 ) ) ;
#332 = CIRCLE ( 'NONE', #842, 1.900000000000000133 ) ;
#333 = EDGE_CURVE ( 'NONE', #156, #397, #998, .T. ) ;
#334 = ORIENTED_EDGE ( 'NONE', *, *, #749, .T. ) ;
#335 = VECTOR ( 'NONE', #170, 1000.000000000000000 ) ;
#336 = DIRECTION ( 'NONE',  ( 0.000000000000000000, 0.000000000000000000, 1.000000000000000000 ) ) ;
#337 = EDGE_LOOP ( 'NONE', ( #247, #543, #327, #386 ) ) ;
#338 = CIRCLE ( 'NONE', #693, 16.50000000000000000 ) ;
#339 = CARTESIAN_POINT ( 'NONE',  ( 3.061616997868383634E-16, 8.000000000000000000, -12.69999999999999929 ) ) ;
#340 = ORIENTED_EDGE ( 'NONE', *, *, #707, .T. ) ;
#341 = EDGE_LOOP ( 'NONE', ( #477, #662, #491, #84 ) ) ;
#342 = CARTESIAN_POINT ( 'NONE',  ( 12.50000000000000355, 0.000000000000000000, 1.900000000000041878 ) ) ;
#343 = DIRECTION ( 'NONE',  ( -0.9996876464081227986, 0.000000000000000000, 0.02499219116020308384 ) ) ;
#344 = ORIENTED_EDGE ( 'NONE', *, *, #237, .F. ) ;
#345 = DIRECTION ( 'NONE',  ( -0.000000000000000000, -1.000000000000000000, -0.000000000000000000 ) ) ;
#346 = DIRECTION ( 'NONE',  ( -0.000000000000000000, 1.000000000000000000, -0.000000000000000000 ) ) ;
#347 = CARTESIAN_POINT ( 'NONE',  ( 12.50000000000000355, 0.000000000000000000, 1.900000000000041878 ) ) ;
#348 = EDGE_CURVE ( 'NONE', #189, #935, #740, .T. ) ;
#349 = ORIENTED_EDGE ( 'NONE', *, *, #929, .F. ) ;
#350 = DIRECTION ( 'NONE',  ( 0.000000000000000000, 1.000000000000000000, -0.000000000000000000 ) ) ;
#351 = EDGE_CURVE ( 'NONE', #172, #123, #688, .T. ) ;
#352 = ORIENTED_EDGE ( 'NONE', *, *, #863, .F. ) ;
#353 = AXIS2_PLACEMENT_3D ( 'NONE', #83, #945, #870 ) ;
#354 = APPLICATION_PROTOCOL_DEFINITION ( 'draft international standard', 'automotive_design', 1998, #695 ) ;
#355 = DIRECTION ( 'NONE',  ( 0.000000000000000000, -0.000000000000000000, 1.000000000000000000 ) ) ;
#356 = CARTESIAN_POINT ( 'NONE',  ( 0.4122423485321676240, 0.000000000000000000, 16.48969394128669919 ) ) ;
#357 = EDGE_CURVE ( 'NONE', #123, #172, #301, .T. ) ;
#358 = AXIS2_PLACEMENT_3D ( 'NONE', #79, #85, #325 ) ;
#359 = EDGE_CURVE ( 'NONE', #659, #159, #382, .T. ) ;
#360 = EDGE_LOOP ( 'NONE', ( #585, #672, #369, #450 ) ) ;
#361 = DIRECTION ( 'NONE',  ( 0.000000000000000000, 1.000000000000000000, 0.000000000000000000 ) ) ;
#362 = VECTOR ( 'NONE', #893, 1000.000000000000000 ) ;
#363 = FACE_BOUND ( 'NONE', #960, .T. ) ;
#364 = CYLINDRICAL_SURFACE ( 'NONE', #669, 1.900000000000000577 ) ;
#365 = EDGE_CURVE ( 'NONE', #935, #189, #66, .T. ) ;
#366 = AXIS2_PLACEMENT_3D ( 'NONE', #599, #919, #59 ) ;
#367 = ORIENTED_EDGE ( 'NONE', *, *, #447, .F. ) ;
#368 = CARTESIAN_POINT ( 'NONE',  ( -8.833459118600627491, 8.000000000000000000, 5.100000000000373568 ) ) ;
#369 = ORIENTED_EDGE ( 'NONE', *, *, #249, .T. ) ;
#370 = DIRECTION ( 'NONE',  ( 0.000000000000000000, 0.000000000000000000, 1.000000000000000000 ) ) ;
#371 = ORIENTED_EDGE ( 'NONE', *, *, #739, .F. ) ;
#372 = AXIS2_PLACEMENT_3D ( 'NONE', #510, #658, #822 ) ;
#373 = ORIENTED_EDGE ( 'NONE', *, *, #614, .T. ) ;
#374 = EDGE_CURVE ( 'NONE', #679, #855, #832, .T. ) ;
#375 = DIRECTION ( 'NONE',  ( 0.000000000000000000, 0.000000000000000000, 1.000000000000000000 ) ) ;
#376 = ORIENTED_EDGE ( 'NONE', *, *, #677, .T. ) ;
#377 = ORIENTED_EDGE ( 'NONE', *, *, #993, .F. ) ;
#378 = DIRECTION ( 'NONE',  ( 0.000000000000000000, 1.000000000000000000, 0.000000000000000000 ) ) ;
#379 = DIRECTION ( 'NONE',  ( 0.000000000000000000, 0.000000000000000000, 1.000000000000000000 ) ) ;
#380 = ADVANCED_FACE ( 'NONE', ( #116 ), #67, .F. ) ;
#381 = FACE_OUTER_BOUND ( 'NONE', #37, .T. ) ;
#382 = CIRCLE ( 'NONE', #867, 2.500000000000000444 ) ;
#383 = DIRECTION ( 'NONE',  ( -0.9996876464081227986, 0.000000000000000000, -0.02499219116020308384 ) ) ;
#384 = DIRECTION ( 'NONE',  ( -0.000000000000000000, 1.000000000000000000, -0.000000000000000000 ) ) ;
#385 = ADVANCED_FACE ( 'NONE', ( #284 ), #227, .F. ) ;
#386 = ORIENTED_EDGE ( 'NONE', *, *, #823, .F. ) ;
#387 = VECTOR ( 'NONE', #913, 1000.000000000000000 ) ;
#388 = DIRECTION ( 'NONE',  ( 0.000000000000000000, 1.000000000000000000, 0.000000000000000000 ) ) ;
#389 = DIRECTION ( 'NONE',  ( 0.000000000000000000, 0.000000000000000000, 1.000000000000000000 ) ) ;
#390 = VERTEX_POINT ( 'NONE', #903 ) ;
#391 = DIRECTION ( 'NONE',  ( 0.000000000000000000, 0.000000000000000000, 1.000000000000000000 ) ) ;
#392 = FACE_BOUND ( 'NONE', #293, .T. ) ;
#393 = ORIENTED_EDGE ( 'NONE', *, *, #525, .F. ) ;
#394 = DIRECTION ( 'NONE',  ( 0.000000000000000000, 1.000000000000000000, 0.000000000000000000 ) ) ;
#395 = ORIENTED_EDGE ( 'NONE', *, *, #314, .F. ) ;
#396 = DIRECTION ( 'NONE',  ( 0.000000000000000000, 1.000000000000000000, 0.000000000000000000 ) ) ;
#397 = VERTEX_POINT ( 'NONE', #155 ) ;
#398 = PRODUCT_DEFINITION_FORMATION_WITH_SPECIFIED_SOURCE ( 'ä»', '', #182, .NOT_KNOWN. ) ;
#399 = DIRECTION ( 'NONE',  ( 0.000000000000000000, 0.000000000000000000, 1.000000000000000000 ) ) ;
#400 = CARTESIAN_POINT ( 'NONE',  ( -6.250000000000016875, 8.000000000000000000, -10.82531754730547568 ) ) ;
#401 = ORIENTED_EDGE ( 'NONE', *, *, #348, .F. ) ;
#402 = ORIENTED_EDGE ( 'NONE', *, *, #145, .T. ) ;
#403 = CARTESIAN_POINT ( 'NONE',  ( 6.249999999999939604, 0.000000000000000000, 10.82531754730552365 ) ) ;
#404 = CARTESIAN_POINT ( 'NONE',  ( 120.0000000000000000, 8.000000000000000000, 10.00000000000000888 ) ) ;
#405 = CIRCLE ( 'NONE', #716, 2.500000000000000444 ) ;
#406 = ORIENTED_EDGE ( 'NONE', *, *, #68, .T. ) ;
#407 = EDGE_CURVE ( 'NONE', #715, #26, #429, .T. ) ;
#408 = VERTEX_POINT ( 'NONE', #743 ) ;
#409 = CIRCLE ( 'NONE', #542, 16.50000000000000000 ) ;
#410 = LINE ( 'NONE', #342, #304 ) ;
#411 = ORIENTED_EDGE ( 'NONE', *, *, #326, .T. ) ;
#412 = CARTESIAN_POINT ( 'NONE',  ( 120.0000000000000000, 8.000000000000000000, 13.50000000000000178 ) ) ;
#413 = ORIENTED_EDGE ( 'NONE', *, *, #133, .F. ) ;
#414 = CIRCLE ( 'NONE', #240, 1.900000000000000577 ) ;
#415 = DIRECTION ( 'NONE',  ( -0.000000000000000000, -1.000000000000000000, -0.000000000000000000 ) ) ;
#416 = ORIENTED_EDGE ( 'NONE', *, *, #987, .F. ) ;
#417 = CARTESIAN_POINT ( 'NONE',  ( 0.000000000000000000, 8.000000000000000000, -16.50000000000000000 ) ) ;
#418 = ORIENTED_EDGE ( 'NONE', *, *, #816, .T. ) ;
#419 = CARTESIAN_POINT ( 'NONE',  ( 8.833459118601924231, 0.000000000000000000, 7.599999999999623945 ) ) ;
#420 = CYLINDRICAL_SURFACE ( 'NONE', #288, 1.900000000000000577 ) ;
#421 = DIRECTION ( 'NONE',  ( 0.000000000000000000, 0.000000000000000000, 1.000000000000000000 ) ) ;
#422 = ORIENTED_EDGE ( 'NONE', *, *, #509, .F. ) ;
#423 = EDGE_LOOP ( 'NONE', ( #352, #946, #334, #489 ) ) ;
#424 = LINE ( 'NONE', #431, #560 ) ;
#425 = VERTEX_POINT ( 'NONE', #463 ) ;
#426 = CARTESIAN_POINT ( 'NONE',  ( 6.250000000000010658, 0.000000000000000000, -8.925317547305477106 ) ) ;
#427 = VECTOR ( 'NONE', #515, 1000.000000000000000 ) ;
#428 = EDGE_LOOP ( 'NONE', ( #498, #649, #768, #485 ) ) ;
#429 = LINE ( 'NONE', #125, #41 ) ;
#430 = CARTESIAN_POINT ( 'NONE',  ( 0.000000000000000000, 0.000000000000000000, 0.000000000000000000 ) ) ;
#431 = CARTESIAN_POINT ( 'NONE',  ( 0.4122423485321676240, 8.000000000000000000, 16.48969394128669919 ) ) ;
#432 = VERTEX_POINT ( 'NONE', #1004 ) ;
#433 = CARTESIAN_POINT ( 'NONE',  ( 0.4122423485321676240, 8.000000000000000000, 16.48969394128669919 ) ) ;
#434 = EDGE_CURVE ( 'NONE', #1, #935, #521, .T. ) ;
#435 = VECTOR ( 'NONE', #569, 1000.000000000000000 ) ;
#436 = ORIENTED_EDGE ( 'NONE', *, *, #326, .F. ) ;
#437 = DIRECTION ( 'NONE',  ( 0.000000000000000000, 1.000000000000000000, 0.000000000000000000 ) ) ;
#438 = VECTOR ( 'NONE', #343, 1000.000000000000114 ) ;
#439 = VERTEX_POINT ( 'NONE', #777 ) ;
#440 = DIRECTION ( 'NONE',  ( 0.000000000000000000, 1.000000000000000000, 0.000000000000000000 ) ) ;
#441 = EDGE_LOOP ( 'NONE', ( #470, #526 ) ) ;
#442 = DIRECTION ( 'NONE',  ( 0.000000000000000000, 0.000000000000000000, 1.000000000000000000 ) ) ;
#443 = ORIENTED_EDGE ( 'NONE', *, *, #559, .F. ) ;
#444 = CARTESIAN_POINT ( 'NONE',  ( 120.0000000000000000, 60.00000000000000000, 10.00000000000000888 ) ) ;
#445 = VECTOR ( 'NONE', #473, 1000.000000000000000 ) ;
#446 = VERTEX_POINT ( 'NONE', #914 ) ;
#447 = EDGE_CURVE ( 'NONE', #538, #651, #338, .T. ) ;
#448 = CARTESIAN_POINT ( 'NONE',  ( -12.50000000000000355, 0.000000000000000000, 1.899999999999872680 ) ) ;
#449 = DIRECTION ( 'NONE',  ( 0.000000000000000000, 0.000000000000000000, 1.000000000000000000 ) ) ;
#450 = ORIENTED_EDGE ( 'NONE', *, *, #275, .T. ) ;
#451 = EDGE_CURVE ( 'NONE', #833, #918, #124, .T. ) ;
#452 = CARTESIAN_POINT ( 'NONE',  ( 120.0000000000000000, 60.00000000000000000, 0.000000000000000000 ) ) ;
#453 = AXIS2_PLACEMENT_3D ( 'NONE', #433, #286, #980 ) ;
#454 = CIRCLE ( 'NONE', #199, 13.50000000000000178 ) ;
#455 = ADVANCED_FACE ( 'NONE', ( #207 ), #720, .F. ) ;
#456 = DIRECTION ( 'NONE',  ( 0.000000000000000000, 0.000000000000000000, 1.000000000000000000 ) ) ;
#457 = DIRECTION ( 'NONE',  ( 0.000000000000000000, 0.000000000000000000, 1.000000000000000000 ) ) ;
#458 = DIRECTION ( 'NONE',  ( 0.000000000000000000, 1.000000000000000000, 0.000000000000000000 ) ) ;
#459 = MANIFOLD_SOLID_BREP ( '\X2\51f853f0\X0\-\X2\62c94f38\X0\3', #16 ) ;
#460 = CIRCLE ( 'NONE', #850, 1.900000000000000577 ) ;
#461 = AXIS2_PLACEMENT_3D ( 'NONE', #233, #384, #986 ) ;
#462 = DIRECTION ( 'NONE',  ( -0.000000000000000000, 1.000000000000000000, -0.000000000000000000 ) ) ;
#463 = CARTESIAN_POINT ( 'NONE',  ( 12.50000000000000355, 8.000000000000000000, -1.899999999999958611 ) ) ;
#464 = EDGE_CURVE ( 'NONE', #880, #439, #174, .T. ) ;
#465 = CIRCLE ( 'NONE', #157, 16.50000000000000000 ) ;
#466 = ORIENTED_EDGE ( 'NONE', *, *, #68, .F. ) ;
#467 = CARTESIAN_POINT ( 'NONE',  ( -12.50000000000000355, 8.000000000000000000, -1.275021754842953214E-13 ) ) ;
#468 = ORIENTED_EDGE ( 'NONE', *, *, #217, .F. ) ;
#469 = CARTESIAN_POINT ( 'NONE',  ( 0.000000000000000000, 0.000000000000000000, 0.000000000000000000 ) ) ;
#470 = ORIENTED_EDGE ( 'NONE', *, *, #357, .T. ) ;
#471 = PRESENTATION_STYLE_ASSIGNMENT (( #238 ) ) ;
#472 = ORIENTED_EDGE ( 'NONE', *, *, #917, .T. ) ;
#473 = DIRECTION ( 'NONE',  ( -0.000000000000000000, 1.000000000000000000, -0.000000000000000000 ) ) ;
#474 = LINE ( 'NONE', #738, #983 ) ;
#475 = SURFACE_SIDE_STYLE ('',( #947 ) ) ;
#476 = AXIS2_PLACEMENT_3D ( 'NONE', #851, #531, #154 ) ;
#477 = ORIENTED_EDGE ( 'NONE', *, *, #694, .F. ) ;
#478 = MECHANICAL_DESIGN_GEOMETRIC_PRESENTATION_REPRESENTATION (  '', ( #1003 ), #872 ) ;
#479 = EDGE_CURVE ( 'NONE', #999, #189, #792, .T. ) ;
#480 = DIRECTION ( 'NONE',  ( 0.000000000000000000, 1.000000000000000000, 0.000000000000000000 ) ) ;
#481 = CARTESIAN_POINT ( 'NONE',  ( 0.8244846970641630524, 0.000000000000000000, 16.47938788257340192 ) ) ;
#482 = VERTEX_POINT ( 'NONE', #1007 ) ;
#483 = DIRECTION ( 'NONE',  ( -0.000000000000000000, -1.000000000000000000, -0.000000000000000000 ) ) ;
#484 = CIRCLE ( 'NONE', #279, 1.900000000000000577 ) ;
#485 = ORIENTED_EDGE ( 'NONE', *, *, #667, .T. ) ;
#486 = CARTESIAN_POINT ( 'NONE',  ( 120.0000000000000000, 0.000000000000000000, 0.000000000000000000 ) ) ;
#487 = DIRECTION ( 'NONE',  ( 0.000000000000000000, 0.000000000000000000, -1.000000000000000000 ) ) ;
#488 = AXIS2_PLACEMENT_3D ( 'NONE', #242, #551, #232 ) ;
#489 = ORIENTED_EDGE ( 'NONE', *, *, #875, .F. ) ;
#490 = CARTESIAN_POINT ( 'NONE',  ( 8.833459118601924231, 0.000000000000000000, 7.599999999999623945 ) ) ;
#491 = ORIENTED_EDGE ( 'NONE', *, *, #374, .T. ) ;
#492 = AXIS2_PLACEMENT_3D ( 'NONE', #102, #415, #165 ) ;
#493 = AXIS2_PLACEMENT_3D ( 'NONE', #101, #581, #183 ) ;
#494 = CYLINDRICAL_SURFACE ( 'NONE', #492, 16.50000000000000000 ) ;
#495 = EDGE_LOOP ( 'NONE', ( #466, #270 ) ) ;
#496 = LINE ( 'NONE', #356, #438 ) ;
#497 = ADVANCED_FACE ( 'NONE', ( #180, #800, #74, #10, #91, #942, #643, #392, #701, #6 ), #316, .F. ) ;
#498 = ORIENTED_EDGE ( 'NONE', *, *, #407, .F. ) ;
#499 = DIRECTION ( 'NONE',  ( 0.000000000000000000, 1.000000000000000000, -0.000000000000000000 ) ) ;
#500 = DIRECTION ( 'NONE',  ( 0.000000000000000000, 1.000000000000000000, 0.000000000000000000 ) ) ;
#501 = DIRECTION ( 'NONE',  ( -0.000000000000000000, 1.000000000000000000, -0.000000000000000000 ) ) ;
#502 = EDGE_CURVE ( 'NONE', #397, #168, #311, .T. ) ;
#503 = EDGE_LOOP ( 'NONE', ( #192, #349 ) ) ;
#504 = FACE_OUTER_BOUND ( 'NONE', #341, .T. ) ;
#505 = EDGE_LOOP ( 'NONE', ( #868, #418 ) ) ;
#506 = LINE ( 'NONE', #961, #87 ) ;
#507 = ORIENTED_EDGE ( 'NONE', *, *, #434, .T. ) ;
#508 = CARTESIAN_POINT ( 'NONE',  ( 2.020667218593133100E-15, 0.000000000000000000, 16.50000000000000000 ) ) ;
#509 = EDGE_CURVE ( 'NONE', #482, #127, #922, .T. ) ;
#510 = CARTESIAN_POINT ( 'NONE',  ( 0.000000000000000000, 8.000000000000000000, -10.19999999999999929 ) ) ;
#511 = PLANE ( 'NONE',  #453 ) ;
#512 = AXIS2_PLACEMENT_3D ( 'NONE', #670, #458, #753 ) ;
#513 = ADVANCED_BREP_SHAPE_REPRESENTATION ( '\X2\7535673a529b81c2\X0\2', ( #459, #920 ), #889 ) ;
#514 = VERTEX_POINT ( 'NONE', #490 ) ;
#515 = DIRECTION ( 'NONE',  ( -0.000000000000000000, 1.000000000000000000, -0.000000000000000000 ) ) ;
#516 = EDGE_CURVE ( 'NONE', #918, #833, #173, .T. ) ;
#517 = ORIENTED_EDGE ( 'NONE', *, *, #2, .F. ) ;
#518 = DIRECTION ( 'NONE',  ( -0.000000000000000000, 1.000000000000000000, -0.000000000000000000 ) ) ;
#519 = VECTOR ( 'NONE', #160, 1000.000000000000000 ) ;
#520 = ORIENTED_EDGE ( 'NONE', *, *, #224, .F. ) ;
#521 = LINE ( 'NONE', #130, #566 ) ;
#522 = LINE ( 'NONE', #448, #92 ) ;
#523 = ORIENTED_EDGE ( 'NONE', *, *, #28, .F. ) ;
#524 = CARTESIAN_POINT ( 'NONE',  ( 0.000000000000000000, 0.000000000000000000, -10.19999999999999929 ) ) ;
#525 = EDGE_CURVE ( 'NONE', #215, #93, #332, .T. ) ;
#526 = ORIENTED_EDGE ( 'NONE', *, *, #351, .T. ) ;
#527 = CARTESIAN_POINT ( 'NONE',  ( 120.0000000000000000, 60.00000000000000000, 0.000000000000000000 ) ) ;
#528 = ADVANCED_FACE ( 'NONE', ( #281 ), #36, .T. ) ;
#529 = VERTEX_POINT ( 'NONE', #974 ) ;
#530 = CARTESIAN_POINT ( 'NONE',  ( 0.4122423485321676240, 8.000000000000000000, -16.48969394128669919 ) ) ;
#531 = DIRECTION ( 'NONE',  ( 0.000000000000000000, 1.000000000000000000, 0.000000000000000000 ) ) ;
#532 = VERTEX_POINT ( 'NONE', #33 ) ;
#533 = DIRECTION ( 'NONE',  ( 0.000000000000000000, 0.000000000000000000, 1.000000000000000000 ) ) ;
#534 = ADVANCED_FACE ( 'NONE', ( #814 ), #656, .F. ) ;
#535 = DIRECTION ( 'NONE',  ( 0.000000000000000000, 0.000000000000000000, 1.000000000000000000 ) ) ;
#536 = AXIS2_PLACEMENT_3D ( 'NONE', #114, #673, #573 ) ;
#537 = CARTESIAN_POINT ( 'NONE',  ( -6.250000000000016875, 0.000000000000000000, -12.72531754730547604 ) ) ;
#538 = VERTEX_POINT ( 'NONE', #590 ) ;
#539 = CARTESIAN_POINT ( 'NONE',  ( 12.50000000000000355, 8.000000000000000000, 4.163336342344337027E-14 ) ) ;
#540 = CARTESIAN_POINT ( 'NONE',  ( 0.000000000000000000, 0.000000000000000000, -10.19999999999999929 ) ) ;
#541 = CIRCLE ( 'NONE', #882, 10.00000000000000888 ) ;
#542 = AXIS2_PLACEMENT_3D ( 'NONE', #817, #94, #884 ) ;
#543 = ORIENTED_EDGE ( 'NONE', *, *, #243, .T. ) ;
#544 = CARTESIAN_POINT ( 'NONE',  ( 6.249999999999939604, 8.000000000000000000, 10.82531754730552365 ) ) ;
#545 = EDGE_CURVE ( 'NONE', #439, #168, #496, .T. ) ;
#546 = DIRECTION ( 'NONE',  ( 0.000000000000000000, 0.000000000000000000, 1.000000000000000000 ) ) ;
#547 = EDGE_CURVE ( 'NONE', #432, #139, #44, .T. ) ;
#548 = AXIS2_PLACEMENT_3D ( 'NONE', #991, #307, #456 ) ;
#549 = EDGE_LOOP ( 'NONE', ( #668, #596 ) ) ;
#550 = CARTESIAN_POINT ( 'NONE',  ( 120.0000000000000000, 8.000000000000000000, -10.00000000000000888 ) ) ;
#551 = DIRECTION ( 'NONE',  ( -0.000000000000000000, -1.000000000000000000, -0.000000000000000000 ) ) ;
#552 = ORIENTED_EDGE ( 'NONE', *, *, #502, .F. ) ;
#553 = EDGE_LOOP ( 'NONE', ( #841, #273, #32, #645 ) ) ;
#554 = DIRECTION ( 'NONE',  ( 0.000000000000000000, 0.000000000000000000, 1.000000000000000000 ) ) ;
#555 = CARTESIAN_POINT ( 'NONE',  ( 6.249999999999939604, 0.000000000000000000, 8.925317547305521515 ) ) ;
#556 = ORIENTED_EDGE ( 'NONE', *, *, #351, .F. ) ;
#557 = EDGE_CURVE ( 'NONE', #529, #675, #506, .T. ) ;
#558 = ORIENTED_EDGE ( 'NONE', *, *, #60, .T. ) ;
#559 = EDGE_CURVE ( 'NONE', #918, #446, #27, .T. ) ;
#560 = VECTOR ( 'NONE', #196, 1000.000000000000114 ) ;
#561 = DIRECTION ( 'NONE',  ( -0.000000000000000000, -1.000000000000000000, -0.000000000000000000 ) ) ;
#562 = DIRECTION ( 'NONE',  ( 0.000000000000000000, 1.000000000000000000, 0.000000000000000000 ) ) ;
#563 = ORIENTED_EDGE ( 'NONE', *, *, #249, .F. ) ;
#564 = ORIENTED_EDGE ( 'NONE', *, *, #451, .T. ) ;
#565 = ADVANCED_FACE ( 'NONE', ( #965 ), #364, .F. ) ;
#566 = VECTOR ( 'NONE', #593, 1000.000000000000000 ) ;
#567 = CARTESIAN_POINT ( 'NONE',  ( -12.50000000000000355, 0.000000000000000000, -1.900000000000127809 ) ) ;
#568 = DIRECTION ( 'NONE',  ( -0.000000000000000000, 1.000000000000000000, -0.000000000000000000 ) ) ;
#569 = DIRECTION ( 'NONE',  ( -0.000000000000000000, -1.000000000000000000, -0.000000000000000000 ) ) ;
#570 = EDGE_LOOP ( 'NONE', ( #708, #181, #979, #873 ) ) ;
#571 = CARTESIAN_POINT ( 'NONE',  ( 12.50000000000000355, 8.000000000000000000, 4.163336342344337027E-14 ) ) ;
#572 = ORIENTED_EDGE ( 'NONE', *, *, #635, .T. ) ;
#573 = DIRECTION ( 'NONE',  ( 0.000000000000000000, 0.000000000000000000, 1.000000000000000000 ) ) ;
#574 = ORIENTED_EDGE ( 'NONE', *, *, #848, .F. ) ;
#575 = AXIS2_PLACEMENT_3D ( 'NONE', #400, #562, #108 ) ;
#576 = CIRCLE ( 'NONE', #136, 1.900000000000000133 ) ;
#577 = FACE_OUTER_BOUND ( 'NONE', #321, .T. ) ;
#578 = EDGE_LOOP ( 'NONE', ( #395, #422, #276, #402 ) ) ;
#579 = DIRECTION ( 'NONE',  ( 0.000000000000000000, 1.000000000000000000, 0.000000000000000000 ) ) ;
#580 = ORIENTED_EDGE ( 'NONE', *, *, #319, .F. ) ;
#581 = DIRECTION ( 'NONE',  ( -0.000000000000000000, 1.000000000000000000, -0.000000000000000000 ) ) ;
#582 = FACE_BOUND ( 'NONE', #826, .T. ) ;
#583 = PRODUCT_DEFINITION_SHAPE ( 'NONE', 'NONE',  #644 ) ;
#584 = CARTESIAN_POINT ( 'NONE',  ( 12.50000000000000355, 0.000000000000000000, 4.163336342344337027E-14 ) ) ;
#585 = ORIENTED_EDGE ( 'NONE', *, *, #677, .F. ) ;
#586 = AXIS2_PLACEMENT_3D ( 'NONE', #193, #748, #421 ) ;
#587 = DIRECTION ( 'NONE',  ( 0.000000000000000000, 1.000000000000000000, 0.000000000000000000 ) ) ;
#588 = CARTESIAN_POINT ( 'NONE',  ( 8.833459118601924231, 8.000000000000000000, 7.599999999999623945 ) ) ;
#589 = ORIENTED_EDGE ( 'NONE', *, *, #169, .F. ) ;
#590 = CARTESIAN_POINT ( 'NONE',  ( 0.8244846970641630524, 8.000000000000000000, -16.47938788257340192 ) ) ;
#591 = VECTOR ( 'NONE', #995, 1000.000000000000000 ) ;
#592 = ORIENTED_EDGE ( 'NONE', *, *, #749, .F. ) ;
#593 = DIRECTION ( 'NONE',  ( -0.000000000000000000, 1.000000000000000000, -0.000000000000000000 ) ) ;
#594 = UNCERTAINTY_MEASURE_WITH_UNIT (LENGTH_MEASURE( 1.000000000000000082E-05 ), #891, 'distance_accuracy_value', 'NONE');
#595 = CIRCLE ( 'NONE', #97, 1.900000000000000133 ) ;
#596 = ORIENTED_EDGE ( 'NONE', *, *, #618, .F. ) ;
#597 = FACE_OUTER_BOUND ( 'NONE', #197, .T. ) ;
#598 = DIRECTION ( 'NONE',  ( 0.000000000000000000, 1.000000000000000000, 0.000000000000000000 ) ) ;
#599 = CARTESIAN_POINT ( 'NONE',  ( -12.50000000000000355, 8.000000000000000000, -1.275021754842953214E-13 ) ) ;
#600 = DIRECTION ( 'NONE',  ( 0.000000000000000000, 1.000000000000000000, 0.000000000000000000 ) ) ;
#601 = AXIS2_PLACEMENT_3D ( 'NONE', #524, #763, #370 ) ;
#602 = DIRECTION ( 'NONE',  ( 0.000000000000000000, 0.000000000000000000, 1.000000000000000000 ) ) ;
#603 = CARTESIAN_POINT ( 'NONE',  ( 6.250000000000010658, 0.000000000000000000, -12.72531754730547782 ) ) ;
#604 = ORIENTED_EDGE ( 'NONE', *, *, #464, .F. ) ;
#605 = CYLINDRICAL_SURFACE ( 'NONE', #978, 1.900000000000000577 ) ;
#606 = CARTESIAN_POINT ( 'NONE',  ( 120.0000000000000000, 8.000000000000000000, -13.50000000000000178 ) ) ;
#607 = ADVANCED_FACE ( 'NONE', ( #39 ), #901, .F. ) ;
#608 = AXIS2_PLACEMENT_3D ( 'NONE', #201, #854, #676 ) ;
#609 = AXIS2_PLACEMENT_3D ( 'NONE', #303, #611, #923 ) ;
#610 = LINE ( 'NONE', #444, #876 ) ;
#611 = DIRECTION ( 'NONE',  ( 0.000000000000000000, 1.000000000000000000, 0.000000000000000000 ) ) ;
#612 = AXIS2_PLACEMENT_3D ( 'NONE', #937, #396, #934 ) ;
#613 = ORIENTED_EDGE ( 'NONE', *, *, #1005, .F. ) ;
#614 = EDGE_CURVE ( 'NONE', #514, #390, #925, .T. ) ;
#615 = LINE ( 'NONE', #685, #729 ) ;
#616 = AXIS2_PLACEMENT_3D ( 'NONE', #660, #350, #970 ) ;
#617 = DIRECTION ( 'NONE',  ( 0.000000000000000000, 1.000000000000000000, 0.000000000000000000 ) ) ;
#618 = EDGE_CURVE ( 'NONE', #831, #941, #484, .T. ) ;
#619 = DIRECTION ( 'NONE',  ( 0.000000000000000000, 1.000000000000000000, 0.000000000000000000 ) ) ;
#620 = CYLINDRICAL_SURFACE ( 'NONE', #488, 13.50000000000000178 ) ;
#621 = CARTESIAN_POINT ( 'NONE',  ( -12.50000000000000355, 0.000000000000000000, -1.275021754842953214E-13 ) ) ;
#622 = VECTOR ( 'NONE', #866, 1000.000000000000000 ) ;
#623 = AXIS2_PLACEMENT_3D ( 'NONE', #486, #499, #967 ) ;
#624 = VERTEX_POINT ( 'NONE', #426 ) ;
#625 = CARTESIAN_POINT ( 'NONE',  ( -12.50000000000000355, 0.000000000000000000, 1.899999999999872680 ) ) ;
#626 = ORIENTED_EDGE ( 'NONE', *, *, #30, .F. ) ;
#627 = DIRECTION ( 'NONE',  ( 0.000000000000000000, 0.000000000000000000, -1.000000000000000000 ) ) ;
#628 = ORIENTED_EDGE ( 'NONE', *, *, #545, .T. ) ;
#629 = DIRECTION ( 'NONE',  ( 0.000000000000000000, 1.000000000000000000, 0.000000000000000000 ) ) ;
#630 = ADVANCED_FACE ( 'NONE', ( #741 ), #511, .T. ) ;
#631 = ORIENTED_EDGE ( 'NONE', *, *, #502, .T. ) ;
#632 = DIRECTION ( 'NONE',  ( 0.000000000000000000, 1.000000000000000000, 0.000000000000000000 ) ) ;
#633 = DIRECTION ( 'NONE',  ( 0.000000000000000000, 1.000000000000000000, -0.000000000000000000 ) ) ;
#634 = FILL_AREA_STYLE_COLOUR ( '', #260 ) ;
#635 = EDGE_CURVE ( 'NONE', #651, #156, #975, .T. ) ;
#636 = CIRCLE ( 'NONE', #205, 10.00000000000000888 ) ;
#637 = ORIENTED_EDGE ( 'NONE', *, *, #547, .F. ) ;
#638 = CARTESIAN_POINT ( 'NONE',  ( 120.0000000000000000, 60.00000000000000000, 0.000000000000000000 ) ) ;
#639 = AXIS2_PLACEMENT_3D ( 'NONE', #291, #598, #977 ) ;
#640 = DIRECTION ( 'NONE',  ( 0.000000000000000000, 0.000000000000000000, 1.000000000000000000 ) ) ;
#641 = DIRECTION ( 'NONE',  ( -0.000000000000000000, -1.000000000000000000, -0.000000000000000000 ) ) ;
#642 = VERTEX_POINT ( 'NONE', #104 ) ;
#643 = FACE_BOUND ( 'NONE', #441, .T. ) ;
#644 = PRODUCT_DEFINITION ( 'æœ', '', #398, #663 ) ;
#645 = ORIENTED_EDGE ( 'NONE', *, *, #964, .T. ) ;
#646 = CIRCLE ( 'NONE', #776, 1.900000000000000577 ) ;
#647 = PRESENTATION_LAYER_ASSIGNMENT (  '', '', ( #1003 ) ) ;
#648 = DIRECTION ( 'NONE',  ( 0.000000000000000000, 1.000000000000000000, 0.000000000000000000 ) ) ;
#649 = ORIENTED_EDGE ( 'NONE', *, *, #714, .F. ) ;
#650 = DIRECTION ( 'NONE',  ( 0.000000000000000000, 0.000000000000000000, 1.000000000000000000 ) ) ;
#651 = VERTEX_POINT ( 'NONE', #417 ) ;
#652 = ADVANCED_FACE ( 'NONE', ( #597 ), #908, .F. ) ;
#653 = APPLICATION_PROTOCOL_DEFINITION ( 'draft international standard', 'automotive_design', 1998, #229 ) ;
#654 = DIRECTION ( 'NONE',  ( 0.000000000000000000, 1.000000000000000000, 0.000000000000000000 ) ) ;
#655 = ORIENTED_EDGE ( 'NONE', *, *, #993, .T. ) ;
#656 = CYLINDRICAL_SURFACE ( 'NONE', #536, 1.900000000000000133 ) ;
#657 = EDGE_LOOP ( 'NONE', ( #468, #862, #213, #413 ) ) ;
#658 = DIRECTION ( 'NONE',  ( 0.000000000000000000, 1.000000000000000000, 0.000000000000000000 ) ) ;
#659 = VERTEX_POINT ( 'NONE', #339 ) ;
#660 = CARTESIAN_POINT ( 'NONE',  ( 0.000000000000000000, 60.00000000000000000, 0.000000000000000000 ) ) ;
#661 = CIRCLE ( 'NONE', #476, 2.500000000000000444 ) ;
#662 = ORIENTED_EDGE ( 'NONE', *, *, #704, .F. ) ;
#663 = PRODUCT_DEFINITION_CONTEXT ( 'detailed design', #229, 'design' ) ;
#664 = FACE_BOUND ( 'NONE', #194, .T. ) ;
#665 = EDGE_LOOP ( 'NONE', ( #416, #969 ) ) ;
#666 = CARTESIAN_POINT ( 'NONE',  ( 8.833459118601924231, 0.000000000000000000, 5.099999999999623057 ) ) ;
#667 = EDGE_CURVE ( 'NONE', #883, #26, #45, .T. ) ;
#668 = ORIENTED_EDGE ( 'NONE', *, *, #145, .F. ) ;
#669 = AXIS2_PLACEMENT_3D ( 'NONE', #269, #819, #122 ) ;
#670 = CARTESIAN_POINT ( 'NONE',  ( 0.000000000000000000, 0.000000000000000000, -10.19999999999999929 ) ) ;
#671 = FACE_BOUND ( 'NONE', #86, .T. ) ;
#672 = ORIENTED_EDGE ( 'NONE', *, *, #357, .F. ) ;
#673 = DIRECTION ( 'NONE',  ( -0.000000000000000000, 1.000000000000000000, -0.000000000000000000 ) ) ;
#674 = AXIS2_PLACEMENT_3D ( 'NONE', #9, #767, #931 ) ;
#675 = VERTEX_POINT ( 'NONE', #299 ) ;
#676 = DIRECTION ( 'NONE',  ( 0.000000000000000000, 0.000000000000000000, 1.000000000000000000 ) ) ;
#677 = EDGE_CURVE ( 'NONE', #172, #659, #132, .T. ) ;
#678 = AXIS2_PLACEMENT_3D ( 'NONE', #280, #899, #355 ) ;
#679 = VERTEX_POINT ( 'NONE', #844 ) ;
#680 = DIRECTION ( 'NONE',  ( 0.000000000000000000, 0.000000000000000000, 1.000000000000000000 ) ) ;
#681 = CARTESIAN_POINT ( 'NONE',  ( 0.000000000000000000, 8.000000000000000000, 0.000000000000000000 ) ) ;
#682 = DIRECTION ( 'NONE',  ( 0.000000000000000000, 1.000000000000000000, -0.000000000000000000 ) ) ;
#683 = CIRCLE ( 'NONE', #691, 2.500000000000000444 ) ;
#684 = LINE ( 'NONE', #835, #928 ) ;
#685 = CARTESIAN_POINT ( 'NONE',  ( -6.250000000000016875, 0.000000000000000000, -8.925317547305475330 ) ) ;
#686 = CARTESIAN_POINT ( 'NONE',  ( 6.250000000000010658, 0.000000000000000000, -10.82531754730547746 ) ) ;
#687 = CARTESIAN_POINT ( 'NONE',  ( 12.50000000000000355, 0.000000000000000000, -1.899999999999958611 ) ) ;
#688 = CIRCLE ( 'NONE', #512, 2.500000000000000444 ) ;
#689 = CARTESIAN_POINT ( 'NONE',  ( 6.250000000000010658, 8.000000000000000000, -12.72531754730547782 ) ) ;
#690 = CYLINDRICAL_SURFACE ( 'NONE', #601, 2.500000000000000444 ) ;
#691 = AXIS2_PLACEMENT_3D ( 'NONE', #216, #158, #399 ) ;
#692 = LINE ( 'NONE', #537, #427 ) ;
#693 = AXIS2_PLACEMENT_3D ( 'NONE', #308, #617, #389 ) ;
#694 = EDGE_CURVE ( 'NONE', #179, #103, #610, .T. ) ;
#695 = APPLICATION_CONTEXT ( 'automotive_design' ) ;
#696 = CARTESIAN_POINT ( 'NONE',  ( -8.833459118600627491, 8.000000000000000000, 2.600000000000372680 ) ) ;
#697 = FACE_OUTER_BOUND ( 'NONE', #912, .T. ) ;
#698 = DIRECTION ( 'NONE',  ( 0.000000000000000000, 1.000000000000000000, 0.000000000000000000 ) ) ;
#699 = EDGE_LOOP ( 'NONE', ( #106, #637, #377, #628, #732, #886 ) ) ;
#700 = DIRECTION ( 'NONE',  ( 0.000000000000000000, 1.000000000000000000, 0.000000000000000000 ) ) ;
#701 = FACE_BOUND ( 'NONE', #877, .T. ) ;
#702 = CIRCLE ( 'NONE', #853, 1.900000000000000577 ) ;
#703 = ORIENTED_EDGE ( 'NONE', *, *, #1005, .T. ) ;
#704 = EDGE_CURVE ( 'NONE', #679, #179, #771, .T. ) ;
#705 = CARTESIAN_POINT ( 'NONE',  ( 6.249999999999939604, 0.000000000000000000, 10.82531754730552365 ) ) ;
#706 = CARTESIAN_POINT ( 'NONE',  ( 120.0000000000000000, 8.000000000000000000, -13.50000000000000178 ) ) ;
#707 = EDGE_CURVE ( 'NONE', #72, #432, #996, .T. ) ;
#708 = ORIENTED_EDGE ( 'NONE', *, *, #46, .F. ) ;
#709 = DIRECTION ( 'NONE',  ( 0.9996876464081227986, 0.000000000000000000, 0.02499219116020308731 ) ) ;
#710 = EDGE_CURVE ( 'NONE', #72, #538, #916, .T. ) ;
#711 = FACE_OUTER_BOUND ( 'NONE', #360, .T. ) ;
#712 = EDGE_LOOP ( 'NONE', ( #728, #520 ) ) ;
#713 = CARTESIAN_POINT ( 'NONE',  ( -6.250000000000094147, 0.000000000000000000, 10.82531754730543838 ) ) ;
#714 = EDGE_CURVE ( 'NONE', #624, #715, #460, .T. ) ;
#715 = VERTEX_POINT ( 'NONE', #603 ) ;
#716 = AXIS2_PLACEMENT_3D ( 'NONE', #997, #222, #147 ) ;
#717 = CARTESIAN_POINT ( 'NONE',  ( 6.250000000000010658, 8.000000000000000000, -8.925317547305477106 ) ) ;
#718 = DIRECTION ( 'NONE',  ( 0.000000000000000000, 0.000000000000000000, 1.000000000000000000 ) ) ;
#719 = VERTEX_POINT ( 'NONE', #755 ) ;
#720 = CYLINDRICAL_SURFACE ( 'NONE', #956, 1.900000000000000577 ) ;
#721 = AXIS2_PLACEMENT_3D ( 'NONE', #146, #231, #140 ) ;
#722 = AXIS2_PLACEMENT_3D ( 'NONE', #796, #323, #35 ) ;
#723 = CIRCLE ( 'NONE', #623, 13.50000000000000178 ) ;
#724 = ORIENTED_EDGE ( 'NONE', *, *, #547, .T. ) ;
#725 = CARTESIAN_POINT ( 'NONE',  ( 2.020667218593133100E-15, 8.000000000000000000, 16.50000000000000000 ) ) ;
#726 = ORIENTED_EDGE ( 'NONE', *, *, #525, .T. ) ;
#727 = CARTESIAN_POINT ( 'NONE',  ( 0.4122423485321676240, 0.000000000000000000, -16.48969394128669919 ) ) ;
#728 = ORIENTED_EDGE ( 'NONE', *, *, #805, .F. ) ;
#729 = VECTOR ( 'NONE', #926, 1000.000000000000000 ) ;
#730 = CARTESIAN_POINT ( 'NONE',  ( 0.8244846970641632744, 0.000000000000000000, -16.47938788257340548 ) ) ;
#731 = DIRECTION ( 'NONE',  ( 0.000000000000000000, 0.000000000000000000, 1.000000000000000000 ) ) ;
#732 = ORIENTED_EDGE ( 'NONE', *, *, #779, .F. ) ;
#733 = PRODUCT_RELATED_PRODUCT_CATEGORY ( 'part', '', ( #182 ) ) ;
#734 = PRODUCT_CONTEXT ( 'NONE', #695, 'mechanical' ) ;
#735 = CARTESIAN_POINT ( 'NONE',  ( 0.000000000000000000, 8.000000000000000000, -7.699999999999998401 ) ) ;
#736 = DIRECTION ( 'NONE',  ( -0.9996876464081227986, 0.000000000000000000, -0.02499219116020308384 ) ) ;
#737 = VERTEX_POINT ( 'NONE', #921 ) ;
#738 = CARTESIAN_POINT ( 'NONE',  ( 0.000000000000000000, 0.000000000000000000, -7.699999999999998401 ) ) ;
#739 = EDGE_CURVE ( 'NONE', #179, #679, #636, .T. ) ;
#740 = CIRCLE ( 'NONE', #166, 2.500000000000000444 ) ;
#741 = FACE_OUTER_BOUND ( 'NONE', #317, .T. ) ;
#742 = ORIENTED_EDGE ( 'NONE', *, *, #805, .T. ) ;
#743 = CARTESIAN_POINT ( 'NONE',  ( 6.249999999999939604, 0.000000000000000000, 8.925317547305521515 ) ) ;
#744 =( NAMED_UNIT ( * ) PLANE_ANGLE_UNIT ( ) SI_UNIT ( $, .RADIAN. ) );
#745 = AXIS2_PLACEMENT_3D ( 'NONE', #42, #361, #442 ) ;
#746 = FACE_BOUND ( 'NONE', #665, .T. ) ;
#747 = ORIENTED_EDGE ( 'NONE', *, *, #434, .F. ) ;
#748 = DIRECTION ( 'NONE',  ( 0.000000000000000000, 1.000000000000000000, 0.000000000000000000 ) ) ;
#749 = EDGE_CURVE ( 'NONE', #26, #883, #21, .T. ) ;
#750 = ADVANCED_FACE ( 'NONE', ( #839 ), #766, .F. ) ;
#751 = ORIENTED_EDGE ( 'NONE', *, *, #365, .T. ) ;
#752 = AXIS2_PLACEMENT_3D ( 'NONE', #185, #579, #887 ) ;
#753 = DIRECTION ( 'NONE',  ( 0.000000000000000000, 0.000000000000000000, 1.000000000000000000 ) ) ;
#754 = ORIENTED_EDGE ( 'NONE', *, *, #76, .T. ) ;
#755 = CARTESIAN_POINT ( 'NONE',  ( 12.50000000000000355, 8.000000000000000000, 1.900000000000041878 ) ) ;
#756 = CIRCLE ( 'NONE', #366, 1.900000000000000133 ) ;
#757 = ORIENTED_EDGE ( 'NONE', *, *, #888, .T. ) ;
#758 = DIRECTION ( 'NONE',  ( 0.000000000000000000, 1.000000000000000000, 0.000000000000000000 ) ) ;
#759 = CARTESIAN_POINT ( 'NONE',  ( 120.0000000000000000, 8.000000000000000000, 0.000000000000000000 ) ) ;
#760 = EDGE_LOOP ( 'NONE', ( #11, #957 ) ) ;
#761 = ADVANCED_FACE ( 'NONE', ( #770 ), #63, .F. ) ;
#762 = DIRECTION ( 'NONE',  ( -0.000000000000000000, 1.000000000000000000, -0.000000000000000000 ) ) ;
#763 = DIRECTION ( 'NONE',  ( -0.000000000000000000, 1.000000000000000000, -0.000000000000000000 ) ) ;
#764 = CARTESIAN_POINT ( 'NONE',  ( -8.833459118600627491, 0.000000000000000000, 2.600000000000372680 ) ) ;
#765 = ADVANCED_FACE ( 'NONE', ( #65 ), #690, .F. ) ;
#766 = CYLINDRICAL_SURFACE ( 'NONE', #548, 2.500000000000000444 ) ;
#767 = DIRECTION ( 'NONE',  ( 0.000000000000000000, 1.000000000000000000, 0.000000000000000000 ) ) ;
#768 = ORIENTED_EDGE ( 'NONE', *, *, #875, .T. ) ;
#769 = ORIENTED_EDGE ( 'NONE', *, *, #794, .F. ) ;
#770 = FACE_OUTER_BOUND ( 'NONE', #50, .T. ) ;
#771 = CIRCLE ( 'NONE', #287, 10.00000000000000888 ) ;
#772 = CARTESIAN_POINT ( 'NONE',  ( 120.0000000000000000, 60.00000000000000000, -10.00000000000000888 ) ) ;
#773 = ORIENTED_EDGE ( 'NONE', *, *, #509, .T. ) ;
#774 = CARTESIAN_POINT ( 'NONE',  ( -6.250000000000094147, 8.000000000000000000, 10.82531754730543838 ) ) ;
#775 = VERTEX_POINT ( 'NONE', #61 ) ;
#776 = AXIS2_PLACEMENT_3D ( 'NONE', #8, #619, #869 ) ;
#777 = CARTESIAN_POINT ( 'NONE',  ( 120.0000000000000000, 0.000000000000000000, 13.50000000000000178 ) ) ;
#778 = VECTOR ( 'NONE', #483, 1000.000000000000000 ) ;
#779 = EDGE_CURVE ( 'NONE', #324, #168, #465, .T. ) ;
#780 = EDGE_LOOP ( 'NONE', ( #574, #367, #757, #472 ) ) ;
#781 = CARTESIAN_POINT ( 'NONE',  ( 0.000000000000000000, 8.000000000000000000, 0.000000000000000000 ) ) ;
#782 =( NAMED_UNIT ( * ) PLANE_ANGLE_UNIT ( ) SI_UNIT ( $, .RADIAN. ) );
#783 = ORIENTED_EDGE ( 'NONE', *, *, #797, .F. ) ;
#784 = DIRECTION ( 'NONE',  ( -0.000000000000000000, 1.000000000000000000, -0.000000000000000000 ) ) ;
#785 = ORIENTED_EDGE ( 'NONE', *, *, #707, .F. ) ;
#786 = CARTESIAN_POINT ( 'NONE',  ( -8.833459118600627491, 0.000000000000000000, 7.600000000000373568 ) ) ;
#787 = ORIENTED_EDGE ( 'NONE', *, *, #359, .T. ) ;
#788 = AXIS2_PLACEMENT_3D ( 'NONE', #840, #141, #457 ) ;
#789 = FACE_OUTER_BOUND ( 'NONE', #90, .T. ) ;
#790 = FACE_OUTER_BOUND ( 'NONE', #423, .T. ) ;
#791 = ORIENTED_EDGE ( 'NONE', *, *, #333, .F. ) ;
#792 = LINE ( 'NONE', #786, #911 ) ;
#793 = EDGE_LOOP ( 'NONE', ( #962, #989, #111, #613 ) ) ;
#794 = EDGE_CURVE ( 'NONE', #103, #855, #828, .T. ) ;
#795 = CYLINDRICAL_SURFACE ( 'NONE', #55, 1.900000000000000577 ) ;
#796 = CARTESIAN_POINT ( 'NONE',  ( -6.250000000000094147, 0.000000000000000000, 10.82531754730543838 ) ) ;
#797 = EDGE_CURVE ( 'NONE', #482, #941, #615, .T. ) ;
#798 = ORIENTED_EDGE ( 'NONE', *, *, #830, .F. ) ;
#799 = AXIS2_PLACEMENT_3D ( 'NONE', #811, #501, #650 ) ;
#800 = FACE_BOUND ( 'NONE', #110, .T. ) ;
#801 = ORIENTED_EDGE ( 'NONE', *, *, #557, .T. ) ;
#802 = DIRECTION ( 'NONE',  ( 0.000000000000000000, 0.000000000000000000, -1.000000000000000000 ) ) ;
#803 = CARTESIAN_POINT ( 'NONE',  ( 0.000000000000000000, 8.000000000000000000, 0.000000000000000000 ) ) ;
#804 = ORIENTED_EDGE ( 'NONE', *, *, #779, .T. ) ;
#805 = EDGE_CURVE ( 'NONE', #719, #425, #295, .T. ) ;
#806 = AXIS2_PLACEMENT_3D ( 'NONE', #259, #654, #95 ) ;
#807 = AXIS2_PLACEMENT_3D ( 'NONE', #469, #394, #241 ) ;
#808 = EDGE_LOOP ( 'NONE', ( #220, #115, #871, #255 ) ) ;
#809 = DIRECTION ( 'NONE',  ( 0.000000000000000000, 0.000000000000000000, 1.000000000000000000 ) ) ;
#810 = DIRECTION ( 'NONE',  ( -0.000000000000000000, 1.000000000000000000, -0.000000000000000000 ) ) ;
#811 = CARTESIAN_POINT ( 'NONE',  ( -12.50000000000000355, 0.000000000000000000, -1.275021754842953214E-13 ) ) ;
#812 = ORIENTED_EDGE ( 'NONE', *, *, #614, .F. ) ;
#813 = DIRECTION ( 'NONE',  ( 0.000000000000000000, 0.000000000000000000, 1.000000000000000000 ) ) ;
#814 = FACE_OUTER_BOUND ( 'NONE', #657, .T. ) ;
#815 = EDGE_LOOP ( 'NONE', ( #966, #1001 ) ) ;
#816 = EDGE_CURVE ( 'NONE', #408, #532, #414, .T. ) ;
#817 = CARTESIAN_POINT ( 'NONE',  ( 0.000000000000000000, 0.000000000000000000, 0.000000000000000000 ) ) ;
#818 = FACE_BOUND ( 'NONE', #712, .T. ) ;
#819 = DIRECTION ( 'NONE',  ( -0.000000000000000000, 1.000000000000000000, -0.000000000000000000 ) ) ;
#820 = ORIENTED_EDGE ( 'NONE', *, *, #217, .T. ) ;
#821 = DIRECTION ( 'NONE',  ( 0.000000000000000000, 0.000000000000000000, 1.000000000000000000 ) ) ;
#822 = DIRECTION ( 'NONE',  ( 0.000000000000000000, 0.000000000000000000, 1.000000000000000000 ) ) ;
#823 = EDGE_CURVE ( 'NONE', #532, #737, #984, .T. ) ;
#824 = AXIS2_PLACEMENT_3D ( 'NONE', #540, #71, #48 ) ;
#825 = DIRECTION ( 'NONE',  ( -0.000000000000000000, 1.000000000000000000, -0.000000000000000000 ) ) ;
#826 = EDGE_LOOP ( 'NONE', ( #580, #798 ) ) ;
#827 = CARTESIAN_POINT ( 'NONE',  ( 0.000000000000000000, 8.000000000000000000, -10.19999999999999929 ) ) ;
#828 = CIRCLE ( 'NONE', #105, 10.00000000000000888 ) ;
#829 = CARTESIAN_POINT ( 'NONE',  ( -12.50000000000000355, 0.000000000000000000, -1.900000000000127809 ) ) ;
#830 = EDGE_CURVE ( 'NONE', #290, #265, #683, .T. ) ;
#831 = VERTEX_POINT ( 'NONE', #245 ) ;
#832 = LINE ( 'NONE', #772, #208 ) ;
#833 = VERTEX_POINT ( 'NONE', #625 ) ;
#834 = DIRECTION ( 'NONE',  ( -0.000000000000000000, -1.000000000000000000, -0.000000000000000000 ) ) ;
#835 = CARTESIAN_POINT ( 'NONE',  ( 2.020667218593133100E-15, 8.000000000000000000, 16.50000000000000000 ) ) ;
#836 = DIRECTION ( 'NONE',  ( -0.000000000000000000, 1.000000000000000000, -0.000000000000000000 ) ) ;
#837 = EDGE_LOOP ( 'NONE', ( #443, #78, #312, #283 ) ) ;
#838 = LINE ( 'NONE', #144, #591 ) ;
#839 = FACE_OUTER_BOUND ( 'NONE', #75, .T. ) ;
#840 = CARTESIAN_POINT ( 'NONE',  ( 8.833459118601924231, 0.000000000000000000, 5.099999999999623057 ) ) ;
#841 = ORIENTED_EDGE ( 'NONE', *, *, #243, .F. ) ;
#842 = AXIS2_PLACEMENT_3D ( 'NONE', #584, #266, #198 ) ;
#843 = EDGE_CURVE ( 'NONE', #675, #29, #258, .T. ) ;
#844 = CARTESIAN_POINT ( 'NONE',  ( 120.0000000000000000, 60.00000000000000000, -10.00000000000000888 ) ) ;
#845 = DIRECTION ( 'NONE',  ( -0.000000000000000000, 1.000000000000000000, -0.000000000000000000 ) ) ;
#846 = CIRCLE ( 'NONE', #674, 1.900000000000000577 ) ;
#847 = ORIENTED_EDGE ( 'NONE', *, *, #557, .F. ) ;
#848 = EDGE_CURVE ( 'NONE', #651, #775, #257, .T. ) ;
#849 = CARTESIAN_POINT ( 'NONE',  ( 6.249999999999939604, 0.000000000000000000, 10.82531754730552365 ) ) ;
#850 = AXIS2_PLACEMENT_3D ( 'NONE', #686, #302, #449 ) ;
#851 = CARTESIAN_POINT ( 'NONE',  ( 8.833459118601924231, 0.000000000000000000, 5.099999999999623057 ) ) ;
#852 = AXIS2_PLACEMENT_3D ( 'NONE', #25, #648, #813 ) ;
#853 = AXIS2_PLACEMENT_3D ( 'NONE', #69, #388, #554 ) ;
#854 = DIRECTION ( 'NONE',  ( 0.000000000000000000, 1.000000000000000000, 0.000000000000000000 ) ) ;
#855 = VERTEX_POINT ( 'NONE', #550 ) ;
#856 = PLANE ( 'NONE',  #933 ) ;
#857 = AXIS2_PLACEMENT_3D ( 'NONE', #539, #378, #992 ) ;
#858 = ADVANCED_FACE ( 'NONE', ( #322 ), #310, .T. ) ;
#859 = ORIENTED_EDGE ( 'NONE', *, *, #479, .T. ) ;
#860 = CARTESIAN_POINT ( 'NONE',  ( -12.50000000000000355, 8.000000000000000000, 1.899999999999872680 ) ) ;
#861 = FACE_OUTER_BOUND ( 'NONE', #793, .T. ) ;
#862 = ORIENTED_EDGE ( 'NONE', *, *, #237, .T. ) ;
#863 = EDGE_CURVE ( 'NONE', #715, #624, #646, .T. ) ;
#864 = ORIENTED_EDGE ( 'NONE', *, *, #333, .T. ) ;
#865 = LINE ( 'NONE', #164, #445 ) ;
#866 = DIRECTION ( 'NONE',  ( -0.000000000000000000, 1.000000000000000000, -0.000000000000000000 ) ) ;
#867 = AXIS2_PLACEMENT_3D ( 'NONE', #827, #758, #53 ) ;
#868 = ORIENTED_EDGE ( 'NONE', *, *, #99, .T. ) ;
#869 = DIRECTION ( 'NONE',  ( 0.000000000000000000, 0.000000000000000000, 1.000000000000000000 ) ) ;
#870 = DIRECTION ( 'NONE',  ( 0.000000000000000000, 0.000000000000000000, -1.000000000000000000 ) ) ;
#871 = ORIENTED_EDGE ( 'NONE', *, *, #15, .T. ) ;
#872 =( GEOMETRIC_REPRESENTATION_CONTEXT ( 3 ) GLOBAL_UNCERTAINTY_ASSIGNED_CONTEXT ( ( #118 ) ) GLOBAL_UNIT_ASSIGNED_CONTEXT ( ( #954, #782, #20 ) ) REPRESENTATION_CONTEXT ( 'NONE', 'WORKASPACE' ) );
#873 = ORIENTED_EDGE ( 'NONE', *, *, #1000, .T. ) ;
#874 = CARTESIAN_POINT ( 'NONE',  ( 6.250000000000010658, 0.000000000000000000, -10.82531754730547746 ) ) ;
#875 = EDGE_CURVE ( 'NONE', #624, #883, #88, .T. ) ;
#876 = VECTOR ( 'NONE', #834, 1000.000000000000000 ) ;
#877 = EDGE_LOOP ( 'NONE', ( #564, #142 ) ) ;
#878 = LINE ( 'NONE', #419, #188 ) ;
#879 = CARTESIAN_POINT ( 'NONE',  ( -6.250000000000016875, 0.000000000000000000, -12.72531754730547604 ) ) ;
#880 = VERTEX_POINT ( 'NONE', #318 ) ;
#881 = DIRECTION ( 'NONE',  ( 0.000000000000000000, 1.000000000000000000, 0.000000000000000000 ) ) ;
#882 = AXIS2_PLACEMENT_3D ( 'NONE', #940, #633, #252 ) ;
#883 = VERTEX_POINT ( 'NONE', #717 ) ;
#884 = DIRECTION ( 'NONE',  ( 0.000000000000000000, 0.000000000000000000, 1.000000000000000000 ) ) ;
#885 = CARTESIAN_POINT ( 'NONE',  ( 6.249999999999939604, 8.000000000000000000, 8.925317547305521515 ) ) ;
#886 = ORIENTED_EDGE ( 'NONE', *, *, #1000, .F. ) ;
#887 = DIRECTION ( 'NONE',  ( 0.000000000000000000, 0.000000000000000000, 1.000000000000000000 ) ) ;
#888 = EDGE_CURVE ( 'NONE', #538, #139, #939, .T. ) ;
#889 =( GEOMETRIC_REPRESENTATION_CONTEXT ( 3 ) GLOBAL_UNCERTAINTY_ASSIGNED_CONTEXT ( ( #594 ) ) GLOBAL_UNIT_ASSIGNED_CONTEXT ( ( #891, #744, #119 ) ) REPRESENTATION_CONTEXT ( 'NONE', 'WORKASPACE' ) );
#890 = ORIENTED_EDGE ( 'NONE', *, *, #843, .T. ) ;
#891 =( LENGTH_UNIT ( ) NAMED_UNIT ( * ) SI_UNIT ( .MILLI., .METRE. ) );
#892 = FACE_BOUND ( 'NONE', #503, .T. ) ;
#893 = DIRECTION ( 'NONE',  ( -0.000000000000000000, 1.000000000000000000, -0.000000000000000000 ) ) ;
#894 = AXIS2_PLACEMENT_3D ( 'NONE', #666, #881, #731 ) ;
#895 = ORIENTED_EDGE ( 'NONE', *, *, #46, .T. ) ;
#896 = DIRECTION ( 'NONE',  ( -0.000000000000000000, -1.000000000000000000, -0.000000000000000000 ) ) ;
#897 = ADVANCED_FACE ( 'NONE', ( #18 ), #3, .F. ) ;
#898 = AXIS2_PLACEMENT_3D ( 'NONE', #209, #437, #298 ) ;
#899 = DIRECTION ( 'NONE',  ( 0.000000000000000000, 1.000000000000000000, 0.000000000000000000 ) ) ;
#900 = ORIENTED_EDGE ( 'NONE', *, *, #888, .F. ) ;
#901 = CYLINDRICAL_SURFACE ( 'NONE', #799, 1.900000000000000133 ) ;
#902 = ORIENTED_EDGE ( 'NONE', *, *, #794, .T. ) ;
#903 = CARTESIAN_POINT ( 'NONE',  ( 8.833459118601924231, 0.000000000000000000, 2.599999999999622613 ) ) ;
#904 = VECTOR ( 'NONE', #138, 1000.000000000000000 ) ;
#905 = DIRECTION ( 'NONE',  ( -0.000000000000000000, 1.000000000000000000, -0.000000000000000000 ) ) ;
#906 = AXIS2_PLACEMENT_3D ( 'NONE', #681, #587, #821 ) ;
#907 = ORIENTED_EDGE ( 'NONE', *, *, #948, .F. ) ;
#908 = CYLINDRICAL_SURFACE ( 'NONE', #176, 2.500000000000000444 ) ;
#909 = CARTESIAN_POINT ( 'NONE',  ( 6.250000000000010658, 0.000000000000000000, -10.82531754730547746 ) ) ;
#910 = DIRECTION ( 'NONE',  ( 0.000000000000000000, 1.000000000000000000, -0.000000000000000000 ) ) ;
#911 = VECTOR ( 'NONE', #331, 1000.000000000000000 ) ;
#912 = EDGE_LOOP ( 'NONE', ( #655, #785, #626, #971 ) ) ;
#913 = DIRECTION ( 'NONE',  ( -0.000000000000000000, 1.000000000000000000, -0.000000000000000000 ) ) ;
#914 = CARTESIAN_POINT ( 'NONE',  ( -12.50000000000000355, 8.000000000000000000, -1.900000000000127809 ) ) ;
#915 = DIRECTION ( 'NONE',  ( -0.000000000000000000, 1.000000000000000000, -0.000000000000000000 ) ) ;
#916 = LINE ( 'NONE', #530, #328 ) ;
#917 = EDGE_CURVE ( 'NONE', #139, #775, #313, .T. ) ;
#918 = VERTEX_POINT ( 'NONE', #567 ) ;
#919 = DIRECTION ( 'NONE',  ( 0.000000000000000000, 1.000000000000000000, 0.000000000000000000 ) ) ;
#920 = AXIS2_PLACEMENT_3D ( 'NONE', #430, #809, #107 ) ;
#921 = CARTESIAN_POINT ( 'NONE',  ( 6.249999999999939604, 8.000000000000000000, 12.72531754730552400 ) ) ;
#922 = CIRCLE ( 'NONE', #612, 1.900000000000000577 ) ;
#923 = DIRECTION ( 'NONE',  ( 0.000000000000000000, 0.000000000000000000, 1.000000000000000000 ) ) ;
#924 = ADVANCED_FACE ( 'NONE', ( #1006 ), #951, .F. ) ;
#925 = CIRCLE ( 'NONE', #894, 2.500000000000000444 ) ;
#926 = DIRECTION ( 'NONE',  ( -0.000000000000000000, 1.000000000000000000, -0.000000000000000000 ) ) ;
#927 = CARTESIAN_POINT ( 'NONE',  ( -6.250000000000016875, 0.000000000000000000, -10.82531754730547568 ) ) ;
#928 = VECTOR ( 'NONE', #137, 1000.000000000000000 ) ;
#929 = EDGE_CURVE ( 'NONE', #161, #737, #702, .T. ) ;
#930 = DIRECTION ( 'NONE',  ( 0.000000000000000000, 0.000000000000000000, 1.000000000000000000 ) ) ;
#931 = DIRECTION ( 'NONE',  ( 0.000000000000000000, 0.000000000000000000, 1.000000000000000000 ) ) ;
#932 = CIRCLE ( 'NONE', #722, 1.900000000000000577 ) ;
#933 = AXIS2_PLACEMENT_3D ( 'NONE', #82, #235, #709 ) ;
#934 = DIRECTION ( 'NONE',  ( 0.000000000000000000, 0.000000000000000000, 1.000000000000000000 ) ) ;
#935 = VERTEX_POINT ( 'NONE', #696 ) ;
#936 = CARTESIAN_POINT ( 'NONE',  ( 0.000000000000000000, 8.000000000000000000, -16.50000000000000000 ) ) ;
#937 = CARTESIAN_POINT ( 'NONE',  ( -6.250000000000016875, 0.000000000000000000, -10.82531754730547568 ) ) ;
#938 = EDGE_LOOP ( 'NONE', ( #556, #376, #787, #563 ) ) ;
#939 = LINE ( 'NONE', #251, #150 ) ;
#940 = CARTESIAN_POINT ( 'NONE',  ( 120.0000000000000000, 8.000000000000000000, 0.000000000000000000 ) ) ;
#941 = VERTEX_POINT ( 'NONE', #73 ) ;
#942 = FACE_BOUND ( 'NONE', #129, .T. ) ;
#943 = VERTEX_POINT ( 'NONE', #860 ) ;
#944 = DIRECTION ( 'NONE',  ( 0.000000000000000000, 0.000000000000000000, 1.000000000000000000 ) ) ;
#945 = DIRECTION ( 'NONE',  ( -0.000000000000000000, -1.000000000000000000, -0.000000000000000000 ) ) ;
#946 = ORIENTED_EDGE ( 'NONE', *, *, #407, .T. ) ;
#947 = SURFACE_STYLE_FILL_AREA ( #14 ) ;
#948 = EDGE_CURVE ( 'NONE', #390, #290, #865, .T. ) ;
#949 = CIRCLE ( 'NONE', #254, 1.900000000000000577 ) ;
#950 = ORIENTED_EDGE ( 'NONE', *, *, #300, .F. ) ;
#951 = CYLINDRICAL_SURFACE ( 'NONE', #289, 1.900000000000000577 ) ;
#952 = CARTESIAN_POINT ( 'NONE',  ( 3.061616997868383634E-16, 0.000000000000000000, -12.69999999999999929 ) ) ;
#953 = ORIENTED_EDGE ( 'NONE', *, *, #694, .T. ) ;
#954 =( LENGTH_UNIT ( ) NAMED_UNIT ( * ) SI_UNIT ( .MILLI., .METRE. ) );
#955 = AXIS2_PLACEMENT_3D ( 'NONE', #774, #700, #153 ) ;
#956 = AXIS2_PLACEMENT_3D ( 'NONE', #713, #96, #546 ) ;
#957 = ORIENTED_EDGE ( 'NONE', *, *, #359, .F. ) ;
#958 = ADVANCED_FACE ( 'NONE', ( #789 ), #856, .F. ) ;
#959 = CARTESIAN_POINT ( 'NONE',  ( -8.833459118600627491, 8.000000000000000000, 7.600000000000373568 ) ) ;
#960 = EDGE_LOOP ( 'NONE', ( #7, #769 ) ) ;
#961 = CARTESIAN_POINT ( 'NONE',  ( -6.250000000000094147, 0.000000000000000000, 8.925317547305438026 ) ) ;
#962 = ORIENTED_EDGE ( 'NONE', *, *, #76, .F. ) ;
#963 = DIRECTION ( 'NONE',  ( -0.000000000000000000, 1.000000000000000000, -0.000000000000000000 ) ) ;
#964 = EDGE_CURVE ( 'NONE', #737, #161, #152, .T. ) ;
#965 = FACE_OUTER_BOUND ( 'NONE', #578, .T. ) ;
#966 = ORIENTED_EDGE ( 'NONE', *, *, #704, .T. ) ;
#967 = DIRECTION ( 'NONE',  ( 0.000000000000000000, 0.000000000000000000, 1.000000000000000000 ) ) ;
#968 = FACE_BOUND ( 'NONE', #549, .T. ) ;
#969 = ORIENTED_EDGE ( 'NONE', *, *, #15, .F. ) ;
#970 = DIRECTION ( 'NONE',  ( 0.000000000000000000, 0.000000000000000000, 1.000000000000000000 ) ) ;
#971 = ORIENTED_EDGE ( 'NONE', *, *, #464, .T. ) ;
#972 = CYLINDRICAL_SURFACE ( 'NONE', #493, 1.900000000000000133 ) ;
#973 = PLANE ( 'NONE',  #678 ) ;
#974 = CARTESIAN_POINT ( 'NONE',  ( -6.250000000000094147, 0.000000000000000000, 8.925317547305438026 ) ) ;
#975 = CIRCLE ( 'NONE', #586, 16.50000000000000000 ) ;
#976 = EDGE_LOOP ( 'NONE', ( #589, #801, #890, #517 ) ) ;
#977 = DIRECTION ( 'NONE',  ( 0.000000000000000000, 0.000000000000000000, 1.000000000000000000 ) ) ;
#978 = AXIS2_PLACEMENT_3D ( 'NONE', #225, #905, #533 ) ;
#979 = ORIENTED_EDGE ( 'NONE', *, *, #848, .T. ) ;
#980 = DIRECTION ( 'NONE',  ( 0.9996876464081227986, 0.000000000000000000, -0.02499219116020308731 ) ) ;
#981 = ORIENTED_EDGE ( 'NONE', *, *, #545, .F. ) ;
#982 = DIRECTION ( 'NONE',  ( 0.000000000000000000, 0.000000000000000000, 1.000000000000000000 ) ) ;
#983 = VECTOR ( 'NONE', #120, 1000.000000000000000 ) ;
#984 = LINE ( 'NONE', #294, #387 ) ;
#985 = ORIENTED_EDGE ( 'NONE', *, *, #710, .T. ) ;
#986 = DIRECTION ( 'NONE',  ( 0.000000000000000000, 0.000000000000000000, 1.000000000000000000 ) ) ;
#987 = EDGE_CURVE ( 'NONE', #943, #446, #576, .T. ) ;
#988 = AXIS2_PLACEMENT_3D ( 'NONE', #56, #836, #379 ) ;
#989 = ORIENTED_EDGE ( 'NONE', *, *, #948, .T. ) ;
#990 = ADVANCED_FACE ( 'NONE', ( #315 ), #795, .F. ) ;
#991 = CARTESIAN_POINT ( 'NONE',  ( 8.833459118601924231, 0.000000000000000000, 5.099999999999623057 ) ) ;
#992 = DIRECTION ( 'NONE',  ( 0.000000000000000000, 0.000000000000000000, 1.000000000000000000 ) ) ;
#993 = EDGE_CURVE ( 'NONE', #439, #432, #723, .T. ) ;
#994 = ADVANCED_FACE ( 'NONE', ( #271 ), #972, .F. ) ;
#995 = DIRECTION ( 'NONE',  ( -0.000000000000000000, 1.000000000000000000, -0.000000000000000000 ) ) ;
#996 = LINE ( 'NONE', #606, #904 ) ;
#997 = CARTESIAN_POINT ( 'NONE',  ( -8.833459118600627491, 0.000000000000000000, 5.100000000000373568 ) ) ;
#998 = CIRCLE ( 'NONE', #906, 16.50000000000000000 ) ;
#999 = VERTEX_POINT ( 'NONE', #263 ) ;
#1000 = EDGE_CURVE ( 'NONE', #775, #324, #409, .T. ) ;
#1001 = ORIENTED_EDGE ( 'NONE', *, *, #739, .T. ) ;
#1002 = CARTESIAN_POINT ( 'NONE',  ( 0.000000000000000000, 0.000000000000000000, 0.000000000000000000 ) ) ;
#1003 = STYLED_ITEM ( 'NONE', ( #471 ), #459 ) ;
#1004 = CARTESIAN_POINT ( 'NONE',  ( 120.0000000000000000, 0.000000000000000000, -13.50000000000000178 ) ) ;
#1005 = EDGE_CURVE ( 'NONE', #514, #265, #878, .T. ) ;
#1006 = FACE_OUTER_BOUND ( 'NONE', #337, .T. ) ;
#1007 = CARTESIAN_POINT ( 'NONE',  ( -6.250000000000016875, 0.000000000000000000, -8.925317547305475330 ) ) ;
ENDSEC;
END-ISO-10303-21;
