ISO-10303-21;
HEADER;
FILE_DESCRIPTION (( 'STEP AP214' ),
    '1' );
FILE_NAME ('µç»úÁ¦±Û.STEP',
    '2026-09-11T06:41:06',
    ( '' ),
    ( '' ),
    'SwSTEP 2.0',
    'SolidWorks 2025',
    '' );
FILE_SCHEMA (( 'AUTOMOTIVE_DESIGN' ));
ENDSEC;

DATA;
#1 = ORIENTED_EDGE ( 'NONE', *, *, #760, .F. ) ;
#2 = DIRECTION ( 'NONE',  ( 0.000000000000000000, 0.000000000000000000, 1.000000000000000000 ) ) ;
#3 = FACE_OUTER_BOUND ( 'NONE', #432, .T. ) ;
#4 = FACE_BOUND ( 'NONE', #14, .T. ) ;
#5 = ORIENTED_EDGE ( 'NONE', *, *, #26, .T. ) ;
#6 = AXIS2_PLACEMENT_3D ( 'NONE', #66, #989, #531 ) ;
#7 = EDGE_CURVE ( 'NONE', #131, #956, #183, .T. ) ;
#8 = VECTOR ( 'NONE', #304, 1000.000000000000000 ) ;
#9 = CARTESIAN_POINT ( 'NONE',  ( 6.249999999999939604, 0.000000000000000000, 8.925317547305521515 ) ) ;
#10 = AXIS2_PLACEMENT_3D ( 'NONE', #672, #762, #302 ) ;
#11 = CYLINDRICAL_SURFACE ( 'NONE', #148, 1.900000000000000133 ) ;
#12 = ORIENTED_EDGE ( 'NONE', *, *, #223, .T. ) ;
#13 = AXIS2_PLACEMENT_3D ( 'NONE', #96, #466, #488 ) ;
#14 = EDGE_LOOP ( 'NONE', ( #657, #833 ) ) ;
#15 = CARTESIAN_POINT ( 'NONE',  ( -6.250000000000094147, 8.000000000000000000, 12.72531754730543874 ) ) ;
#16 = CYLINDRICAL_SURFACE ( 'NONE', #656, 1.900000000000000577 ) ;
#17 = CARTESIAN_POINT ( 'NONE',  ( -8.833459118600627491, 0.000000000000000000, 7.600000000000373568 ) ) ;
#18 = ORIENTED_EDGE ( 'NONE', *, *, #626, .F. ) ;
#19 = VERTEX_POINT ( 'NONE', #154 ) ;
#20 = FACE_OUTER_BOUND ( 'NONE', #300, .T. ) ;
#21 = CARTESIAN_POINT ( 'NONE',  ( 6.249999999999939604, 0.000000000000000000, 10.82531754730552365 ) ) ;
#22 = ORIENTED_EDGE ( 'NONE', *, *, #508, .T. ) ;
#23 = CIRCLE ( 'NONE', #410, 2.500000000000000444 ) ;
#24 = ORIENTED_EDGE ( 'NONE', *, *, #940, .F. ) ;
#25 = DIRECTION ( 'NONE',  ( 0.000000000000000000, 1.000000000000000000, 0.000000000000000000 ) ) ;
#26 = EDGE_CURVE ( 'NONE', #692, #131, #842, .T. ) ;
#27 = CARTESIAN_POINT ( 'NONE',  ( 0.000000000000000000, 8.000000000000000000, -10.19999999999999929 ) ) ;
#28 = ORIENTED_EDGE ( 'NONE', *, *, #394, .F. ) ;
#29 = CIRCLE ( 'NONE', #132, 10.00000000000000888 ) ;
#30 = ORIENTED_EDGE ( 'NONE', *, *, #840, .T. ) ;
#31 = CYLINDRICAL_SURFACE ( 'NONE', #662, 1.900000000000000577 ) ;
#32 = EDGE_CURVE ( 'NONE', #409, #782, #441, .T. ) ;
#33 = LINE ( 'NONE', #736, #606 ) ;
#34 = DIRECTION ( 'NONE',  ( -0.000000000000000000, -1.000000000000000000, -0.000000000000000000 ) ) ;
#35 = ORIENTED_EDGE ( 'NONE', *, *, #965, .F. ) ;
#36 = ORIENTED_EDGE ( 'NONE', *, *, #405, .F. ) ;
#37 = FACE_OUTER_BOUND ( 'NONE', #948, .T. ) ;
#38 = DIRECTION ( 'NONE',  ( 0.000000000000000000, 0.000000000000000000, 1.000000000000000000 ) ) ;
#39 = FACE_OUTER_BOUND ( 'NONE', #769, .T. ) ;
#40 = VERTEX_POINT ( 'NONE', #452 ) ;
#41 = ADVANCED_FACE ( 'NONE', ( #379 ), #909, .F. ) ;
#42 = VERTEX_POINT ( 'NONE', #677 ) ;
#43 = EDGE_CURVE ( 'NONE', #198, #739, #995, .T. ) ;
#44 = EDGE_CURVE ( 'NONE', #387, #526, #534, .T. ) ;
#45 = CIRCLE ( 'NONE', #740, 1.900000000000000577 ) ;
#46 = CARTESIAN_POINT ( 'NONE',  ( 100.0000000000000000, 8.000000000000000000, 10.00000000000000888 ) ) ;
#47 = DIRECTION ( 'NONE',  ( 0.000000000000000000, 1.000000000000000000, -0.000000000000000000 ) ) ;
#48 = ORIENTED_EDGE ( 'NONE', *, *, #865, .T. ) ;
#49 = PRESENTATION_STYLE_ASSIGNMENT (( #192 ) ) ;
#50 = CARTESIAN_POINT ( 'NONE',  ( 0.000000000000000000, 8.000000000000000000, 0.000000000000000000 ) ) ;
#51 = CARTESIAN_POINT ( 'NONE',  ( -6.250000000000016875, 0.000000000000000000, -8.925317547305475330 ) ) ;
#52 = AXIS2_PLACEMENT_3D ( 'NONE', #510, #961, #265 ) ;
#53 = EDGE_CURVE ( 'NONE', #729, #739, #794, .T. ) ;
#54 = VERTEX_POINT ( 'NONE', #216 ) ;
#55 = ADVANCED_FACE ( 'NONE', ( #147 ), #135, .F. ) ;
#56 = CARTESIAN_POINT ( 'NONE',  ( 3.061616997868383634E-16, 0.000000000000000000, -12.69999999999999929 ) ) ;
#57 = DIRECTION ( 'NONE',  ( 0.000000000000000000, 0.000000000000000000, 1.000000000000000000 ) ) ;
#58 = DIRECTION ( 'NONE',  ( -0.000000000000000000, 1.000000000000000000, -0.000000000000000000 ) ) ;
#59 = EDGE_CURVE ( 'NONE', #712, #919, #191, .T. ) ;
#60 = CARTESIAN_POINT ( 'NONE',  ( 6.249999999999939604, 8.000000000000000000, 8.925317547305521515 ) ) ;
#61 = CIRCLE ( 'NONE', #624, 2.500000000000000444 ) ;
#62 = DIRECTION ( 'NONE',  ( -0.000000000000000000, 1.000000000000000000, -0.000000000000000000 ) ) ;
#63 = ORIENTED_EDGE ( 'NONE', *, *, #640, .F. ) ;
#64 = CIRCLE ( 'NONE', #986, 1.900000000000000133 ) ;
#65 = DIRECTION ( 'NONE',  ( 1.000000000000000000, 0.000000000000000000, 0.000000000000000000 ) ) ;
#66 = CARTESIAN_POINT ( 'NONE',  ( 6.249999999999939604, 8.000000000000000000, 10.82531754730552365 ) ) ;
#67 = ADVANCED_FACE ( 'NONE', ( #767 ), #440, .F. ) ;
#68 = AXIS2_PLACEMENT_3D ( 'NONE', #962, #583, #38 ) ;
#69 = DIRECTION ( 'NONE',  ( -0.000000000000000000, 1.000000000000000000, -0.000000000000000000 ) ) ;
#70 = ORIENTED_EDGE ( 'NONE', *, *, #118, .F. ) ;
#71 = CARTESIAN_POINT ( 'NONE',  ( -6.250000000000094147, 0.000000000000000000, 8.925317547305438026 ) ) ;
#72 = CIRCLE ( 'NONE', #330, 1.900000000000000577 ) ;
#73 = ORIENTED_EDGE ( 'NONE', *, *, #950, .T. ) ;
#74 = ORIENTED_EDGE ( 'NONE', *, *, #142, .T. ) ;
#75 = EDGE_CURVE ( 'NONE', #497, #532, #753, .T. ) ;
#76 = ADVANCED_FACE ( 'NONE', ( #615 ), #920, .F. ) ;
#77 =( NAMED_UNIT ( * ) SI_UNIT ( $, .STERADIAN. ) SOLID_ANGLE_UNIT ( ) );
#78 = DIRECTION ( 'NONE',  ( 0.000000000000000000, 0.000000000000000000, 1.000000000000000000 ) ) ;
#79 = VERTEX_POINT ( 'NONE', #603 ) ;
#80 = CIRCLE ( 'NONE', #671, 1.900000000000000133 ) ;
#81 = CARTESIAN_POINT ( 'NONE',  ( 0.000000000000000000, 0.000000000000000000, -10.19999999999999929 ) ) ;
#82 = DIRECTION ( 'NONE',  ( 0.000000000000000000, 1.000000000000000000, 0.000000000000000000 ) ) ;
#83 = ORIENTED_EDGE ( 'NONE', *, *, #940, .T. ) ;
#84 = DIRECTION ( 'NONE',  ( -0.000000000000000000, 1.000000000000000000, -0.000000000000000000 ) ) ;
#85 = CARTESIAN_POINT ( 'NONE',  ( 8.833459118601924231, 8.000000000000000000, 5.099999999999623057 ) ) ;
#86 = FACE_BOUND ( 'NONE', #354, .T. ) ;
#87 = ORIENTED_EDGE ( 'NONE', *, *, #88, .T. ) ;
#88 = EDGE_CURVE ( 'NONE', #299, #532, #45, .T. ) ;
#89 = DIRECTION ( 'NONE',  ( 0.000000000000000000, 0.000000000000000000, 1.000000000000000000 ) ) ;
#90 = DIRECTION ( 'NONE',  ( 0.000000000000000000, 1.000000000000000000, -0.000000000000000000 ) ) ;
#91 = ORIENTED_EDGE ( 'NONE', *, *, #508, .F. ) ;
#92 = AXIS2_PLACEMENT_3D ( 'NONE', #422, #47, #124 ) ;
#93 = DIRECTION ( 'NONE',  ( 0.02998650910567101854, -0.000000000000000000, 0.9995503035223667343 ) ) ;
#94 = DIRECTION ( 'NONE',  ( -0.000000000000000000, 1.000000000000000000, -0.000000000000000000 ) ) ;
#95 = ADVANCED_FACE ( 'NONE', ( #845 ), #244, .F. ) ;
#96 = CARTESIAN_POINT ( 'NONE',  ( 6.250000000000010658, 0.000000000000000000, -10.82531754730547746 ) ) ;
#97 = ORIENTED_EDGE ( 'NONE', *, *, #701, .T. ) ;
#98 = AXIS2_PLACEMENT_3D ( 'NONE', #520, #982, #826 ) ;
#99 = ORIENTED_EDGE ( 'NONE', *, *, #118, .T. ) ;
#100 = DIRECTION ( 'NONE',  ( 0.000000000000000000, 1.000000000000000000, 0.000000000000000000 ) ) ;
#101 = CARTESIAN_POINT ( 'NONE',  ( 6.249999999999939604, 0.000000000000000000, 10.82531754730552365 ) ) ;
#102 = VERTEX_POINT ( 'NONE', #861 ) ;
#103 = EDGE_LOOP ( 'NONE', ( #477, #553, #764, #418 ) ) ;
#104 = CARTESIAN_POINT ( 'NONE',  ( -12.50000000000000355, 0.000000000000000000, 1.899999999999872680 ) ) ;
#105 = DIRECTION ( 'NONE',  ( 0.000000000000000000, 1.000000000000000000, 0.000000000000000000 ) ) ;
#106 = ORIENTED_EDGE ( 'NONE', *, *, #855, .T. ) ;
#107 = VECTOR ( 'NONE', #34, 1000.000000000000000 ) ;
#108 = EDGE_CURVE ( 'NONE', #864, #188, #160, .T. ) ;
#109 = ORIENTED_EDGE ( 'NONE', *, *, #687, .F. ) ;
#110 = DIRECTION ( 'NONE',  ( 0.000000000000000000, 0.000000000000000000, 1.000000000000000000 ) ) ;
#111 = CYLINDRICAL_SURFACE ( 'NONE', #800, 1.900000000000000577 ) ;
#112 = EDGE_LOOP ( 'NONE', ( #819, #346, #718, #944 ) ) ;
#113 = AXIS2_PLACEMENT_3D ( 'NONE', #469, #167, #719 ) ;
#114 = DIRECTION ( 'NONE',  ( 0.000000000000000000, 0.000000000000000000, -1.000000000000000000 ) ) ;
#115 = DIRECTION ( 'NONE',  ( 0.000000000000000000, 0.000000000000000000, 1.000000000000000000 ) ) ;
#116 = CARTESIAN_POINT ( 'NONE',  ( -6.250000000000016875, 8.000000000000000000, -8.925317547305475330 ) ) ;
#117 = ORIENTED_EDGE ( 'NONE', *, *, #788, .T. ) ;
#118 = EDGE_CURVE ( 'NONE', #837, #841, #238, .T. ) ;
#119 = EDGE_CURVE ( 'NONE', #646, #992, #785, .T. ) ;
#120 = CIRCLE ( 'NONE', #678, 1.900000000000000577 ) ;
#121 = ORIENTED_EDGE ( 'NONE', *, *, #879, .T. ) ;
#122 = FILL_AREA_STYLE_COLOUR ( '', #838 ) ;
#123 = DIRECTION ( 'NONE',  ( 0.000000000000000000, 0.000000000000000000, 1.000000000000000000 ) ) ;
#124 = DIRECTION ( 'NONE',  ( 0.000000000000000000, 0.000000000000000000, 1.000000000000000000 ) ) ;
#125 = ORIENTED_EDGE ( 'NONE', *, *, #242, .F. ) ;
#126 = ORIENTED_EDGE ( 'NONE', *, *, #228, .F. ) ;
#127 = CARTESIAN_POINT ( 'NONE',  ( -8.833459118600627491, 0.000000000000000000, 5.100000000000373568 ) ) ;
#128 = CIRCLE ( 'NONE', #612, 10.00000000000000888 ) ;
#129 = DIRECTION ( 'NONE',  ( 0.000000000000000000, 0.000000000000000000, 1.000000000000000000 ) ) ;
#130 = EDGE_CURVE ( 'NONE', #782, #942, #927, .T. ) ;
#131 = VERTEX_POINT ( 'NONE', #557 ) ;
#132 = AXIS2_PLACEMENT_3D ( 'NONE', #556, #407, #89 ) ;
#133 = CARTESIAN_POINT ( 'NONE',  ( -12.50000000000000355, 0.000000000000000000, -1.900000000000127809 ) ) ;
#134 = DIRECTION ( 'NONE',  ( 0.000000000000000000, 0.000000000000000000, 1.000000000000000000 ) ) ;
#135 = CYLINDRICAL_SURFACE ( 'NONE', #886, 1.900000000000000133 ) ;
#136 = EDGE_CURVE ( 'NONE', #972, #188, #353, .T. ) ;
#137 = AXIS2_PLACEMENT_3D ( 'NONE', #373, #69, #212 ) ;
#138 = CARTESIAN_POINT ( 'NONE',  ( 12.50000000000000355, 8.000000000000000000, -1.899999999999958611 ) ) ;
#139 = DIRECTION ( 'NONE',  ( 0.000000000000000000, 1.000000000000000000, 0.000000000000000000 ) ) ;
#140 = DIRECTION ( 'NONE',  ( 0.000000000000000000, 0.000000000000000000, 1.000000000000000000 ) ) ;
#141 = APPLICATION_CONTEXT ( 'automotive_design' ) ;
#142 = EDGE_CURVE ( 'NONE', #157, #19, #775, .T. ) ;
#143 = DIRECTION ( 'NONE',  ( 0.000000000000000000, 0.000000000000000000, 1.000000000000000000 ) ) ;
#144 = VECTOR ( 'NONE', #168, 1000.000000000000000 ) ;
#145 = ORIENTED_EDGE ( 'NONE', *, *, #7, .T. ) ;
#146 = AXIS2_PLACEMENT_3D ( 'NONE', #625, #93, #322 ) ;
#147 = FACE_OUTER_BOUND ( 'NONE', #745, .T. ) ;
#148 = AXIS2_PLACEMENT_3D ( 'NONE', #628, #935, #475 ) ;
#149 = EDGE_LOOP ( 'NONE', ( #28, #607 ) ) ;
#150 = ADVANCED_FACE ( 'NONE', ( #3 ), #16, .F. ) ;
#151 = AXIS2_PLACEMENT_3D ( 'NONE', #518, #522, #610 ) ;
#152 = APPLICATION_PROTOCOL_DEFINITION ( 'draft international standard', 'automotive_design', 1998, #141 ) ;
#153 = DIRECTION ( 'NONE',  ( -0.000000000000000000, 1.000000000000000000, -0.000000000000000000 ) ) ;
#154 = CARTESIAN_POINT ( 'NONE',  ( 0.9891098011789094535, 8.000000000000000000, 16.47032670596463433 ) ) ;
#155 = ORIENTED_EDGE ( 'NONE', *, *, #32, .F. ) ;
#156 = AXIS2_PLACEMENT_3D ( 'NONE', #818, #733, #807 ) ;
#157 = VERTEX_POINT ( 'NONE', #635 ) ;
#158 = AXIS2_PLACEMENT_3D ( 'NONE', #860, #333, #255 ) ;
#159 = CARTESIAN_POINT ( 'NONE',  ( 8.833459118601924231, 0.000000000000000000, 5.099999999999623057 ) ) ;
#160 = LINE ( 'NONE', #382, #144 ) ;
#161 = DIRECTION ( 'NONE',  ( -0.000000000000000000, 1.000000000000000000, -0.000000000000000000 ) ) ;
#162 = ORIENTED_EDGE ( 'NONE', *, *, #108, .T. ) ;
#163 = CARTESIAN_POINT ( 'NONE',  ( 12.50000000000000355, 8.000000000000000000, 4.163336342344337027E-14 ) ) ;
#164 = FACE_BOUND ( 'NONE', #877, .T. ) ;
#165 = AXIS2_PLACEMENT_3D ( 'NONE', #876, #105, #696 ) ;
#166 = ORIENTED_EDGE ( 'NONE', *, *, #652, .F. ) ;
#167 = DIRECTION ( 'NONE',  ( 0.000000000000000000, 1.000000000000000000, -0.000000000000000000 ) ) ;
#168 = DIRECTION ( 'NONE',  ( -0.000000000000000000, 1.000000000000000000, -0.000000000000000000 ) ) ;
#169 = FACE_BOUND ( 'NONE', #804, .T. ) ;
#170 = ORIENTED_EDGE ( 'NONE', *, *, #108, .F. ) ;
#171 = VECTOR ( 'NONE', #361, 1000.000000000000000 ) ;
#172 = ORIENTED_EDGE ( 'NONE', *, *, #53, .T. ) ;
#173 = DIRECTION ( 'NONE',  ( 0.000000000000000000, 1.000000000000000000, 0.000000000000000000 ) ) ;
#174 = CARTESIAN_POINT ( 'NONE',  ( 12.50000000000000355, 0.000000000000000000, 1.900000000000041878 ) ) ;
#175 = CARTESIAN_POINT ( 'NONE',  ( -6.250000000000016875, 8.000000000000000000, -12.72531754730547604 ) ) ;
#176 = ORIENTED_EDGE ( 'NONE', *, *, #420, .F. ) ;
#177 = AXIS2_PLACEMENT_3D ( 'NONE', #50, #721, #123 ) ;
#178 = CIRCLE ( 'NONE', #13, 1.900000000000000577 ) ;
#179 = ORIENTED_EDGE ( 'NONE', *, *, #224, .F. ) ;
#180 = LINE ( 'NONE', #315, #702 ) ;
#181 = DIRECTION ( 'NONE',  ( 0.000000000000000000, 0.000000000000000000, 1.000000000000000000 ) ) ;
#182 = ORIENTED_EDGE ( 'NONE', *, *, #32, .T. ) ;
#183 = CIRCLE ( 'NONE', #711, 16.50000000000000000 ) ;
#184 = ORIENTED_EDGE ( 'NONE', *, *, #405, .T. ) ;
#185 =( NAMED_UNIT ( * ) SI_UNIT ( $, .STERADIAN. ) SOLID_ANGLE_UNIT ( ) );
#186 = DIRECTION ( 'NONE',  ( 0.000000000000000000, 1.000000000000000000, 0.000000000000000000 ) ) ;
#187 = CARTESIAN_POINT ( 'NONE',  ( 12.50000000000000355, 0.000000000000000000, -1.899999999999958611 ) ) ;
#188 = VERTEX_POINT ( 'NONE', #934 ) ;
#189 = CIRCLE ( 'NONE', #670, 2.500000000000000444 ) ;
#190 = VERTEX_POINT ( 'NONE', #946 ) ;
#191 = CIRCLE ( 'NONE', #445, 1.900000000000000133 ) ;
#192 = SURFACE_STYLE_USAGE ( .BOTH. , #355 ) ;
#193 = DIRECTION ( 'NONE',  ( 0.000000000000000000, 0.000000000000000000, 1.000000000000000000 ) ) ;
#194 = CARTESIAN_POINT ( 'NONE',  ( 100.0000000000000000, 60.00000000000000000, -10.00000000000000888 ) ) ;
#195 = AXIS2_PLACEMENT_3D ( 'NONE', #839, #676, #844 ) ;
#196 = EDGE_CURVE ( 'NONE', #642, #956, #546, .T. ) ;
#197 = ORIENTED_EDGE ( 'NONE', *, *, #371, .T. ) ;
#198 = VERTEX_POINT ( 'NONE', #174 ) ;
#199 = DIRECTION ( 'NONE',  ( -0.000000000000000000, -1.000000000000000000, -0.000000000000000000 ) ) ;
#200 = CARTESIAN_POINT ( 'NONE',  ( 8.833459118601924231, 0.000000000000000000, 2.599999999999622613 ) ) ;
#201 = CARTESIAN_POINT ( 'NONE',  ( 0.000000000000000000, 0.000000000000000000, -10.19999999999999929 ) ) ;
#202 = ORIENTED_EDGE ( 'NONE', *, *, #788, .F. ) ;
#203 = AXIS2_PLACEMENT_3D ( 'NONE', #663, #732, #801 ) ;
#204 = ORIENTED_EDGE ( 'NONE', *, *, #384, .F. ) ;
#205 = DIRECTION ( 'NONE',  ( -0.000000000000000000, -1.000000000000000000, -0.000000000000000000 ) ) ;
#206 = CARTESIAN_POINT ( 'NONE',  ( 0.000000000000000000, 8.000000000000000000, -10.19999999999999929 ) ) ;
#207 = DIRECTION ( 'NONE',  ( 0.000000000000000000, 0.000000000000000000, 1.000000000000000000 ) ) ;
#208 = EDGE_LOOP ( 'NONE', ( #305, #727, #121, #126 ) ) ;
#209 = FACE_BOUND ( 'NONE', #231, .T. ) ;
#210 =( LENGTH_UNIT ( ) NAMED_UNIT ( * ) SI_UNIT ( .MILLI., .METRE. ) );
#211 = CARTESIAN_POINT ( 'NONE',  ( -6.250000000000016875, 0.000000000000000000, -10.82531754730547568 ) ) ;
#212 = DIRECTION ( 'NONE',  ( 0.000000000000000000, 0.000000000000000000, 1.000000000000000000 ) ) ;
#213 = VECTOR ( 'NONE', #856, 1000.000000000000114 ) ;
#214 = DIRECTION ( 'NONE',  ( 0.000000000000000000, 0.000000000000000000, 1.000000000000000000 ) ) ;
#215 = DIRECTION ( 'NONE',  ( 0.000000000000000000, 1.000000000000000000, 0.000000000000000000 ) ) ;
#216 = CARTESIAN_POINT ( 'NONE',  ( 12.50000000000000355, 0.000000000000000000, -1.899999999999958611 ) ) ;
#217 = ADVANCED_FACE ( 'NONE', ( #481 ), #536, .T. ) ;
#218 = CARTESIAN_POINT ( 'NONE',  ( 8.833459118601924231, 0.000000000000000000, 7.599999999999623945 ) ) ;
#219 = ORIENTED_EDGE ( 'NONE', *, *, #584, .F. ) ;
#220 = VERTEX_POINT ( 'NONE', #194 ) ;
#221 = PRODUCT_DEFINITION ( 'æœ', '', #937, #991 ) ;
#222 = DIRECTION ( 'NONE',  ( 0.000000000000000000, 0.000000000000000000, 1.000000000000000000 ) ) ;
#223 = EDGE_CURVE ( 'NONE', #587, #712, #576, .T. ) ;
#224 = EDGE_CURVE ( 'NONE', #846, #258, #660, .T. ) ;
#225 = EDGE_LOOP ( 'NONE', ( #340, #560 ) ) ;
#226 = CIRCLE ( 'NONE', #358, 1.900000000000000577 ) ;
#227 = ORIENTED_EDGE ( 'NONE', *, *, #136, .T. ) ;
#228 = EDGE_CURVE ( 'NONE', #102, #320, #980, .T. ) ;
#229 = DIRECTION ( 'NONE',  ( 0.000000000000000000, 0.000000000000000000, 1.000000000000000000 ) ) ;
#230 = DIRECTION ( 'NONE',  ( -0.000000000000000000, -1.000000000000000000, -0.000000000000000000 ) ) ;
#231 = EDGE_LOOP ( 'NONE', ( #331, #125 ) ) ;
#232 = CARTESIAN_POINT ( 'NONE',  ( 0.000000000000000000, 8.000000000000000000, 0.000000000000000000 ) ) ;
#233 = DIRECTION ( 'NONE',  ( 0.000000000000000000, 1.000000000000000000, 0.000000000000000000 ) ) ;
#234 = VECTOR ( 'NONE', #911, 1000.000000000000000 ) ;
#235 = EDGE_LOOP ( 'NONE', ( #588, #809, #679, #896 ) ) ;
#236 = ADVANCED_FACE ( 'NONE', ( #504 ), #667, .F. ) ;
#237 = DIRECTION ( 'NONE',  ( 0.000000000000000000, 1.000000000000000000, 0.000000000000000000 ) ) ;
#238 = LINE ( 'NONE', #474, #783 ) ;
#239 = CARTESIAN_POINT ( 'NONE',  ( 100.0000000000000000, 60.00000000000000000, -10.00000000000000888 ) ) ;
#240 = CIRCLE ( 'NONE', #306, 2.500000000000000444 ) ;
#241 = EDGE_LOOP ( 'NONE', ( #880, #887, #370, #651, #866, #717 ) ) ;
#242 = EDGE_CURVE ( 'NONE', #992, #789, #128, .T. ) ;
#243 = DIRECTION ( 'NONE',  ( 0.000000000000000000, 0.000000000000000000, 1.000000000000000000 ) ) ;
#244 = PLANE ( 'NONE',  #832 ) ;
#245 = FACE_BOUND ( 'NONE', #971, .T. ) ;
#246 = VECTOR ( 'NONE', #266, 1000.000000000000114 ) ;
#247 = EDGE_LOOP ( 'NONE', ( #166, #423, #843, #650 ) ) ;
#248 = ORIENTED_EDGE ( 'NONE', *, *, #965, .T. ) ;
#249 = LINE ( 'NONE', #621, #771 ) ;
#250 = CARTESIAN_POINT ( 'NONE',  ( 2.020667218593133100E-15, 8.000000000000000000, 16.50000000000000000 ) ) ;
#251 = LINE ( 'NONE', #558, #468 ) ;
#252 = ADVANCED_FACE ( 'NONE', ( #983 ), #436, .F. ) ;
#253 = VERTEX_POINT ( 'NONE', #824 ) ;
#254 = ORIENTED_EDGE ( 'NONE', *, *, #482, .T. ) ;
#255 = DIRECTION ( 'NONE',  ( 0.000000000000000000, 0.000000000000000000, 1.000000000000000000 ) ) ;
#256 = AXIS2_PLACEMENT_3D ( 'NONE', #127, #419, #805 ) ;
#257 = DIRECTION ( 'NONE',  ( 0.000000000000000000, 0.000000000000000000, 1.000000000000000000 ) ) ;
#258 = VERTEX_POINT ( 'NONE', #116 ) ;
#259 = VERTEX_POINT ( 'NONE', #878 ) ;
#260 = FILL_AREA_STYLE ('',( #122 ) ) ;
#261 = LINE ( 'NONE', #511, #246 ) ;
#262 = ORIENTED_EDGE ( 'NONE', *, *, #351, .T. ) ;
#263 = ORIENTED_EDGE ( 'NONE', *, *, #545, .T. ) ;
#264 = ADVANCED_FACE ( 'NONE', ( #39 ), #664, .T. ) ;
#265 = DIRECTION ( 'NONE',  ( 0.000000000000000000, 0.000000000000000000, 1.000000000000000000 ) ) ;
#266 = DIRECTION ( 'NONE',  ( -0.9995503035223666233, 0.000000000000000000, -0.02998650910567101507 ) ) ;
#267 = DIRECTION ( 'NONE',  ( 0.000000000000000000, 1.000000000000000000, 0.000000000000000000 ) ) ;
#268 = ORIENTED_EDGE ( 'NONE', *, *, #738, .F. ) ;
#269 = AXIS2_PLACEMENT_3D ( 'NONE', #750, #58, #985 ) ;
#270 = EDGE_LOOP ( 'NONE', ( #777, #36 ) ) ;
#271 = DIRECTION ( 'NONE',  ( -0.000000000000000000, 1.000000000000000000, -0.000000000000000000 ) ) ;
#272 = DIRECTION ( 'NONE',  ( 0.000000000000000000, 1.000000000000000000, 0.000000000000000000 ) ) ;
#273 = DIRECTION ( 'NONE',  ( -0.000000000000000000, 1.000000000000000000, -0.000000000000000000 ) ) ;
#274 = CIRCLE ( 'NONE', #834, 16.50000000000000000 ) ;
#275 = ORIENTED_EDGE ( 'NONE', *, *, #75, .F. ) ;
#276 = ORIENTED_EDGE ( 'NONE', *, *, #394, .T. ) ;
#277 = CIRCLE ( 'NONE', #52, 1.900000000000000577 ) ;
#278 = DIRECTION ( 'NONE',  ( -0.000000000000000000, 1.000000000000000000, -0.000000000000000000 ) ) ;
#279 = DIRECTION ( 'NONE',  ( -0.000000000000000000, -1.000000000000000000, -0.000000000000000000 ) ) ;
#280 = CARTESIAN_POINT ( 'NONE',  ( 100.0000000000000000, 8.000000000000000000, 0.000000000000000000 ) ) ;
#281 = ORIENTED_EDGE ( 'NONE', *, *, #459, .F. ) ;
#282 = AXIS2_PLACEMENT_3D ( 'NONE', #905, #917, #78 ) ;
#283 = CYLINDRICAL_SURFACE ( 'NONE', #907, 16.50000000000000000 ) ;
#284 = FACE_OUTER_BOUND ( 'NONE', #787, .T. ) ;
#285 = DIRECTION ( 'NONE',  ( 0.000000000000000000, 0.000000000000000000, 1.000000000000000000 ) ) ;
#286 = EDGE_LOOP ( 'NONE', ( #70, #91, #914, #501 ) ) ;
#287 = AXIS2_PLACEMENT_3D ( 'NONE', #601, #376, #222 ) ;
#288 = DIRECTION ( 'NONE',  ( 0.000000000000000000, 1.000000000000000000, 0.000000000000000000 ) ) ;
#289 = CARTESIAN_POINT ( 'NONE',  ( 6.250000000000010658, 8.000000000000000000, -8.925317547305477106 ) ) ;
#290 = DIRECTION ( 'NONE',  ( 0.000000000000000000, 1.000000000000000000, 0.000000000000000000 ) ) ;
#291 = AXIS2_PLACEMENT_3D ( 'NONE', #372, #1005, #446 ) ;
#292 = UNCERTAINTY_MEASURE_WITH_UNIT (LENGTH_MEASURE( 1.000000000000000082E-05 ), #438, 'distance_accuracy_value', 'NONE');
#293 = DIRECTION ( 'NONE',  ( 0.000000000000000000, 1.000000000000000000, 0.000000000000000000 ) ) ;
#294 = ORIENTED_EDGE ( 'NONE', *, *, #738, .T. ) ;
#295 = AXIS2_PLACEMENT_3D ( 'NONE', #636, #386, #1006 ) ;
#296 = ADVANCED_FACE ( 'NONE', ( #591 ), #111, .F. ) ;
#297 = ADVANCED_FACE ( 'NONE', ( #900 ), #737, .F. ) ;
#298 = CARTESIAN_POINT ( 'NONE',  ( -6.250000000000016875, 0.000000000000000000, -10.82531754730547568 ) ) ;
#299 = VERTEX_POINT ( 'NONE', #349 ) ;
#300 = EDGE_LOOP ( 'NONE', ( #485, #913, #425, #5 ) ) ;
#301 = SHAPE_DEFINITION_REPRESENTATION ( #798, #554 ) ;
#302 = DIRECTION ( 'NONE',  ( 0.000000000000000000, 0.000000000000000000, 1.000000000000000000 ) ) ;
#303 = VECTOR ( 'NONE', #619, 1000.000000000000000 ) ;
#304 = DIRECTION ( 'NONE',  ( -0.000000000000000000, 1.000000000000000000, -0.000000000000000000 ) ) ;
#305 = ORIENTED_EDGE ( 'NONE', *, *, #613, .F. ) ;
#306 = AXIS2_PLACEMENT_3D ( 'NONE', #206, #742, #129 ) ;
#307 = DIRECTION ( 'NONE',  ( -0.000000000000000000, 1.000000000000000000, -0.000000000000000000 ) ) ;
#308 = MECHANICAL_DESIGN_GEOMETRIC_PRESENTATION_REPRESENTATION (  '', ( #791 ), #977 ) ;
#309 = VERTEX_POINT ( 'NONE', #439 ) ;
#310 = EDGE_CURVE ( 'NONE', #734, #309, #23, .T. ) ;
#311 = DIRECTION ( 'NONE',  ( -0.000000000000000000, -1.000000000000000000, -0.000000000000000000 ) ) ;
#312 = DIRECTION ( 'NONE',  ( -0.000000000000000000, -1.000000000000000000, -0.000000000000000000 ) ) ;
#313 = EDGE_CURVE ( 'NONE', #864, #494, #599, .T. ) ;
#314 = ORIENTED_EDGE ( 'NONE', *, *, #53, .F. ) ;
#315 = CARTESIAN_POINT ( 'NONE',  ( 3.061616997868383634E-16, 0.000000000000000000, -12.69999999999999929 ) ) ;
#316 = CARTESIAN_POINT ( 'NONE',  ( 6.250000000000010658, 0.000000000000000000, -10.82531754730547746 ) ) ;
#317 = CARTESIAN_POINT ( 'NONE',  ( 6.250000000000010658, 0.000000000000000000, -12.72531754730547782 ) ) ;
#318 = VECTOR ( 'NONE', #416, 1000.000000000000114 ) ;
#319 = EDGE_CURVE ( 'NONE', #54, #729, #364, .T. ) ;
#320 = VERTEX_POINT ( 'NONE', #289 ) ;
#321 = CIRCLE ( 'NONE', #448, 2.500000000000000444 ) ;
#322 = DIRECTION ( 'NONE',  ( 0.9995503035223666233, 0.000000000000000000, -0.02998650910567101507 ) ) ;
#323 = DIRECTION ( 'NONE',  ( 0.000000000000000000, 1.000000000000000000, 0.000000000000000000 ) ) ;
#324 = EDGE_LOOP ( 'NONE', ( #881, #281, #964, #529 ) ) ;
#325 = ORIENTED_EDGE ( 'NONE', *, *, #584, .T. ) ;
#326 = CARTESIAN_POINT ( 'NONE',  ( -8.833459118600627491, 0.000000000000000000, 2.600000000000372680 ) ) ;
#327 = EDGE_CURVE ( 'NONE', #797, #632, #492, .T. ) ;
#328 = CARTESIAN_POINT ( 'NONE',  ( 100.0000000000000000, 60.00000000000000000, 10.00000000000000888 ) ) ;
#329 = CARTESIAN_POINT ( 'NONE',  ( 0.000000000000000000, 0.000000000000000000, -10.19999999999999929 ) ) ;
#330 = AXIS2_PLACEMENT_3D ( 'NONE', #499, #272, #110 ) ;
#331 = ORIENTED_EDGE ( 'NONE', *, *, #929, .F. ) ;
#332 = ORIENTED_EDGE ( 'NONE', *, *, #760, .T. ) ;
#333 = DIRECTION ( 'NONE',  ( 0.000000000000000000, 1.000000000000000000, 0.000000000000000000 ) ) ;
#334 = DIRECTION ( 'NONE',  ( 0.000000000000000000, 1.000000000000000000, 0.000000000000000000 ) ) ;
#335 = ORIENTED_EDGE ( 'NONE', *, *, #855, .F. ) ;
#336 = EDGE_CURVE ( 'NONE', #632, #692, #726, .T. ) ;
#337 = CARTESIAN_POINT ( 'NONE',  ( 0.9891098011789096756, 0.000000000000000000, -16.47032670596463788 ) ) ;
#338 = CIRCLE ( 'NONE', #542, 1.900000000000000577 ) ;
#339 = DIRECTION ( 'NONE',  ( -0.000000000000000000, 1.000000000000000000, -0.000000000000000000 ) ) ;
#340 = ORIENTED_EDGE ( 'NONE', *, *, #395, .F. ) ;
#341 = ORIENTED_EDGE ( 'NONE', *, *, #433, .T. ) ;
#342 = CYLINDRICAL_SURFACE ( 'NONE', #955, 13.50000000000000000 ) ;
#343 = DIRECTION ( 'NONE',  ( 0.000000000000000000, 0.000000000000000000, 1.000000000000000000 ) ) ;
#344 = CARTESIAN_POINT ( 'NONE',  ( 0.9891098011789096756, 8.000000000000000000, -16.47032670596463788 ) ) ;
#345 = EDGE_LOOP ( 'NONE', ( #647, #314 ) ) ;
#346 = ORIENTED_EDGE ( 'NONE', *, *, #119, .T. ) ;
#347 = FACE_BOUND ( 'NONE', #345, .T. ) ;
#348 = CARTESIAN_POINT ( 'NONE',  ( -8.833459118600627491, 8.000000000000000000, 7.600000000000373568 ) ) ;
#349 = CARTESIAN_POINT ( 'NONE',  ( -6.250000000000094147, 8.000000000000000000, 8.925317547305438026 ) ) ;
#350 = EDGE_LOOP ( 'NONE', ( #815, #268, #633, #276 ) ) ;
#351 = EDGE_CURVE ( 'NONE', #782, #409, #61, .T. ) ;
#352 = UNCERTAINTY_MEASURE_WITH_UNIT (LENGTH_MEASURE( 1.000000000000000082E-05 ), #210, 'distance_accuracy_value', 'NONE');
#353 = CIRCLE ( 'NONE', #391, 2.500000000000000444 ) ;
#354 = EDGE_LOOP ( 'NONE', ( #22, #724 ) ) ;
#355 = SURFACE_SIDE_STYLE ('',( #574 ) ) ;
#356 = CYLINDRICAL_SURFACE ( 'NONE', #872, 2.500000000000000444 ) ;
#357 = VERTEX_POINT ( 'NONE', #524 ) ;
#358 = AXIS2_PLACEMENT_3D ( 'NONE', #666, #288, #363 ) ;
#359 =( NAMED_UNIT ( * ) PLANE_ANGLE_UNIT ( ) SI_UNIT ( $, .RADIAN. ) );
#360 = FACE_OUTER_BOUND ( 'NONE', #350, .T. ) ;
#361 = DIRECTION ( 'NONE',  ( -0.000000000000000000, 1.000000000000000000, -0.000000000000000000 ) ) ;
#362 = ORIENTED_EDGE ( 'NONE', *, *, #228, .T. ) ;
#363 = DIRECTION ( 'NONE',  ( 0.000000000000000000, 0.000000000000000000, 1.000000000000000000 ) ) ;
#364 = LINE ( 'NONE', #187, #984 ) ;
#365 = DIRECTION ( 'NONE',  ( 0.000000000000000000, 1.000000000000000000, 0.000000000000000000 ) ) ;
#366 = AXIS2_PLACEMENT_3D ( 'NONE', #201, #500, #207 ) ;
#367 = CARTESIAN_POINT ( 'NONE',  ( -8.833459118600627491, 8.000000000000000000, 5.100000000000373568 ) ) ;
#368 = CARTESIAN_POINT ( 'NONE',  ( -8.833459118600627491, 0.000000000000000000, 5.100000000000373568 ) ) ;
#369 = CIRCLE ( 'NONE', #888, 1.900000000000000577 ) ;
#370 = ORIENTED_EDGE ( 'NONE', *, *, #44, .F. ) ;
#371 = EDGE_CURVE ( 'NONE', #854, #299, #923, .T. ) ;
#372 = CARTESIAN_POINT ( 'NONE',  ( 100.0000000000000000, 60.00000000000000000, 0.000000000000000000 ) ) ;
#373 = CARTESIAN_POINT ( 'NONE',  ( 6.250000000000010658, 0.000000000000000000, -10.82531754730547746 ) ) ;
#374 = ORIENTED_EDGE ( 'NONE', *, *, #515, .T. ) ;
#375 = AXIS2_PLACEMENT_3D ( 'NONE', #776, #641, #862 ) ;
#376 = DIRECTION ( 'NONE',  ( 0.000000000000000000, 1.000000000000000000, 0.000000000000000000 ) ) ;
#377 = CARTESIAN_POINT ( 'NONE',  ( 12.50000000000000355, 0.000000000000000000, 4.163336342344337027E-14 ) ) ;
#378 = ORIENTED_EDGE ( 'NONE', *, *, #507, .T. ) ;
#379 = FACE_OUTER_BOUND ( 'NONE', #208, .T. ) ;
#380 = ORIENTED_EDGE ( 'NONE', *, *, #626, .T. ) ;
#381 = FACE_OUTER_BOUND ( 'NONE', #112, .T. ) ;
#382 = CARTESIAN_POINT ( 'NONE',  ( 8.833459118601924231, 0.000000000000000000, 2.599999999999622613 ) ) ;
#383 = ORIENTED_EDGE ( 'NONE', *, *, #313, .F. ) ;
#384 = EDGE_CURVE ( 'NONE', #942, #996, #189, .T. ) ;
#385 = CARTESIAN_POINT ( 'NONE',  ( 0.000000000000000000, 0.000000000000000000, 0.000000000000000000 ) ) ;
#386 = DIRECTION ( 'NONE',  ( 0.000000000000000000, 1.000000000000000000, 0.000000000000000000 ) ) ;
#387 = VERTEX_POINT ( 'NONE', #451 ) ;
#388 = FACE_OUTER_BOUND ( 'NONE', #411, .T. ) ;
#389 = DIRECTION ( 'NONE',  ( 0.000000000000000000, 0.000000000000000000, 1.000000000000000000 ) ) ;
#390 = FACE_OUTER_BOUND ( 'NONE', #103, .T. ) ;
#391 = AXIS2_PLACEMENT_3D ( 'NONE', #85, #715, #690 ) ;
#392 = ORIENTED_EDGE ( 'NONE', *, *, #831, .F. ) ;
#393 = EDGE_CURVE ( 'NONE', #253, #131, #605, .T. ) ;
#394 = EDGE_CURVE ( 'NONE', #532, #299, #720, .T. ) ;
#395 = EDGE_CURVE ( 'NONE', #259, #486, #931, .T. ) ;
#396 = CARTESIAN_POINT ( 'NONE',  ( 6.250000000000010658, 8.000000000000000000, -12.72531754730547782 ) ) ;
#397 = CARTESIAN_POINT ( 'NONE',  ( 0.4945549005894696593, 8.000000000000000000, 16.48516335298231894 ) ) ;
#398 = CARTESIAN_POINT ( 'NONE',  ( 100.0000000000000000, 8.000000000000000000, -10.00000000000000888 ) ) ;
#399 = ORIENTED_EDGE ( 'NONE', *, *, #594, .T. ) ;
#400 = DIRECTION ( 'NONE',  ( 0.000000000000000000, 0.000000000000000000, -1.000000000000000000 ) ) ;
#401 = CLOSED_SHELL ( 'NONE', ( #472, #41, #55, #76, #848, #714, #67, #496, #252, #768, #681, #523, #572, #673, #778, #902, #236, #297, #668, #939, #296, #988, #761, #150, #527, #680, #95, #217, #264 ) ) ;
#402 = DIRECTION ( 'NONE',  ( -0.000000000000000000, 1.000000000000000000, -0.000000000000000000 ) ) ;
#403 = DIRECTION ( 'NONE',  ( -0.000000000000000000, 1.000000000000000000, -0.000000000000000000 ) ) ;
#404 = ORIENTED_EDGE ( 'NONE', *, *, #59, .T. ) ;
#405 = EDGE_CURVE ( 'NONE', #841, #258, #444, .T. ) ;
#406 = ORIENTED_EDGE ( 'NONE', *, *, #136, .F. ) ;
#407 = DIRECTION ( 'NONE',  ( 0.000000000000000000, 1.000000000000000000, -0.000000000000000000 ) ) ;
#408 = CARTESIAN_POINT ( 'NONE',  ( 0.9891098011789096756, 8.000000000000000000, 16.47032670596463788 ) ) ;
#409 = VERTEX_POINT ( 'NONE', #535 ) ;
#410 = AXIS2_PLACEMENT_3D ( 'NONE', #512, #748, #57 ) ;
#411 = EDGE_LOOP ( 'NONE', ( #509, #478, #74, #83 ) ) ;
#412 = AXIS2_PLACEMENT_3D ( 'NONE', #159, #100, #243 ) ;
#413 = FACE_OUTER_BOUND ( 'NONE', #548, .T. ) ;
#414 = CIRCLE ( 'NONE', #643, 1.900000000000000133 ) ;
#415 = CARTESIAN_POINT ( 'NONE',  ( 8.833459118601924231, 0.000000000000000000, 5.099999999999623057 ) ) ;
#416 = DIRECTION ( 'NONE',  ( -0.9995503035223666233, 0.000000000000000000, -0.02998650910567101507 ) ) ;
#417 = ORIENTED_EDGE ( 'NONE', *, *, #44, .T. ) ;
#418 = ORIENTED_EDGE ( 'NONE', *, *, #223, .F. ) ;
#419 = DIRECTION ( 'NONE',  ( -0.000000000000000000, 1.000000000000000000, -0.000000000000000000 ) ) ;
#420 = EDGE_CURVE ( 'NONE', #494, #972, #998, .T. ) ;
#421 = CARTESIAN_POINT ( 'NONE',  ( 3.061616997868383634E-16, 8.000000000000000000, -12.69999999999999929 ) ) ;
#422 = CARTESIAN_POINT ( 'NONE',  ( 0.000000000000000000, 60.00000000000000000, 0.000000000000000000 ) ) ;
#423 = ORIENTED_EDGE ( 'NONE', *, *, #482, .F. ) ;
#424 = AXIS2_PLACEMENT_3D ( 'NONE', #709, #90, #700 ) ;
#425 = ORIENTED_EDGE ( 'NONE', *, *, #336, .T. ) ;
#426 = FACE_BOUND ( 'NONE', #683, .T. ) ;
#427 = APPLICATION_CONTEXT ( 'automotive_design' ) ;
#428 = DIRECTION ( 'NONE',  ( 0.000000000000000000, 1.000000000000000000, 0.000000000000000000 ) ) ;
#429 = CARTESIAN_POINT ( 'NONE',  ( 6.250000000000010658, 0.000000000000000000, -8.925317547305477106 ) ) ;
#430 = ORIENTED_EDGE ( 'NONE', *, *, #949, .F. ) ;
#431 = VECTOR ( 'NONE', #976, 1000.000000000000000 ) ;
#432 = EDGE_LOOP ( 'NONE', ( #803, #1, #362, #73 ) ) ;
#433 = EDGE_CURVE ( 'NONE', #632, #253, #495, .T. ) ;
#434 = FACE_BOUND ( 'NONE', #149, .T. ) ;
#435 = DIRECTION ( 'NONE',  ( 0.000000000000000000, 1.000000000000000000, -0.000000000000000000 ) ) ;
#436 = CYLINDRICAL_SURFACE ( 'NONE', #751, 1.900000000000000577 ) ;
#437 = ORIENTED_EDGE ( 'NONE', *, *, #608, .T. ) ;
#438 =( LENGTH_UNIT ( ) NAMED_UNIT ( * ) SI_UNIT ( .MILLI., .METRE. ) );
#439 = CARTESIAN_POINT ( 'NONE',  ( 0.000000000000000000, 0.000000000000000000, -7.699999999999998401 ) ) ;
#440 = CYLINDRICAL_SURFACE ( 'NONE', #578, 2.500000000000000444 ) ;
#441 = CIRCLE ( 'NONE', #1007, 2.500000000000000444 ) ;
#442 = DIRECTION ( 'NONE',  ( 0.000000000000000000, 0.000000000000000000, 1.000000000000000000 ) ) ;
#443 = DIRECTION ( 'NONE',  ( 0.000000000000000000, 0.000000000000000000, 1.000000000000000000 ) ) ;
#444 = CIRCLE ( 'NONE', #754, 1.900000000000000577 ) ;
#445 = AXIS2_PLACEMENT_3D ( 'NONE', #685, #290, #443 ) ;
#446 = DIRECTION ( 'NONE',  ( 0.000000000000000000, 0.000000000000000000, -1.000000000000000000 ) ) ;
#447 = EDGE_LOOP ( 'NONE', ( #925, #665, #871, #30 ) ) ;
#448 = AXIS2_PLACEMENT_3D ( 'NONE', #367, #139, #442 ) ;
#449 = ORIENTED_EDGE ( 'NONE', *, *, #393, .T. ) ;
#450 = AXIS2_PLACEMENT_3D ( 'NONE', #747, #906, #600 ) ;
#451 = CARTESIAN_POINT ( 'NONE',  ( 100.0000000000000000, 0.000000000000000000, 13.50000000000000000 ) ) ;
#452 = CARTESIAN_POINT ( 'NONE',  ( 0.9891098011789094535, 0.000000000000000000, 16.47032670596463433 ) ) ;
#453 = ORIENTED_EDGE ( 'NONE', *, *, #43, .F. ) ;
#454 = AXIS2_PLACEMENT_3D ( 'NONE', #329, #233, #181 ) ;
#455 = CARTESIAN_POINT ( 'NONE',  ( 0.000000000000000000, 0.000000000000000000, 0.000000000000000000 ) ) ;
#456 = CARTESIAN_POINT ( 'NONE',  ( -8.833459118600627491, 8.000000000000000000, 5.100000000000373568 ) ) ;
#457 = CARTESIAN_POINT ( 'NONE',  ( -8.833459118600627491, 0.000000000000000000, 5.100000000000373568 ) ) ;
#458 = ORIENTED_EDGE ( 'NONE', *, *, #196, .F. ) ;
#459 = EDGE_CURVE ( 'NONE', #198, #54, #64, .T. ) ;
#460 = CARTESIAN_POINT ( 'NONE',  ( 8.833459118601924231, 0.000000000000000000, 7.599999999999623945 ) ) ;
#461 = ORIENTED_EDGE ( 'NONE', *, *, #820, .F. ) ;
#462 = CIRCLE ( 'NONE', #853, 16.50000000000000000 ) ;
#463 = VECTOR ( 'NONE', #279, 1000.000000000000000 ) ;
#464 = DIRECTION ( 'NONE',  ( -0.000000000000000000, -1.000000000000000000, -0.000000000000000000 ) ) ;
#465 = CARTESIAN_POINT ( 'NONE',  ( -8.833459118600627491, 0.000000000000000000, 7.600000000000373568 ) ) ;
#466 = DIRECTION ( 'NONE',  ( 0.000000000000000000, 1.000000000000000000, 0.000000000000000000 ) ) ;
#467 = EDGE_LOOP ( 'NONE', ( #204, #623 ) ) ;
#468 = VECTOR ( 'NONE', #870, 1000.000000000000000 ) ;
#469 = CARTESIAN_POINT ( 'NONE',  ( 100.0000000000000000, 8.000000000000000000, 0.000000000000000000 ) ) ;
#470 = FACE_BOUND ( 'NONE', #617, .T. ) ;
#471 = ORIENTED_EDGE ( 'NONE', *, *, #652, .T. ) ;
#472 = ADVANCED_FACE ( 'NONE', ( #381 ), #614, .T. ) ;
#473 = CARTESIAN_POINT ( 'NONE',  ( 100.0000000000000000, 60.00000000000000000, 10.00000000000000888 ) ) ;
#474 = CARTESIAN_POINT ( 'NONE',  ( -6.250000000000016875, 0.000000000000000000, -12.72531754730547604 ) ) ;
#475 = DIRECTION ( 'NONE',  ( 0.000000000000000000, 0.000000000000000000, 1.000000000000000000 ) ) ;
#476 = AXIS2_PLACEMENT_3D ( 'NONE', #585, #654, #894 ) ;
#477 = ORIENTED_EDGE ( 'NONE', *, *, #863, .F. ) ;
#478 = ORIENTED_EDGE ( 'NONE', *, *, #865, .F. ) ;
#479 = CARTESIAN_POINT ( 'NONE',  ( 100.0000000000000142, 0.000000000000000000, -13.50000000000000000 ) ) ;
#480 = CIRCLE ( 'NONE', #675, 1.900000000000000577 ) ;
#481 = FACE_OUTER_BOUND ( 'NONE', #793, .T. ) ;
#482 = EDGE_CURVE ( 'NONE', #357, #42, #933, .T. ) ;
#483 = FACE_OUTER_BOUND ( 'NONE', #324, .T. ) ;
#484 = CIRCLE ( 'NONE', #98, 1.900000000000000133 ) ;
#485 = ORIENTED_EDGE ( 'NONE', *, *, #393, .F. ) ;
#486 = VERTEX_POINT ( 'NONE', #60 ) ;
#487 = DIRECTION ( 'NONE',  ( -0.000000000000000000, 1.000000000000000000, -0.000000000000000000 ) ) ;
#488 = DIRECTION ( 'NONE',  ( 0.000000000000000000, 0.000000000000000000, 1.000000000000000000 ) ) ;
#489 = ORIENTED_EDGE ( 'NONE', *, *, #831, .T. ) ;
#490 = ORIENTED_EDGE ( 'NONE', *, *, #310, .T. ) ;
#491 = LINE ( 'NONE', #659, #898 ) ;
#492 = LINE ( 'NONE', #802, #318 ) ;
#493 = DIRECTION ( 'NONE',  ( 0.000000000000000000, 0.000000000000000000, -1.000000000000000000 ) ) ;
#494 = VERTEX_POINT ( 'NONE', #460 ) ;
#495 = CIRCLE ( 'NONE', #10, 16.50000000000000000 ) ;
#496 = ADVANCED_FACE ( 'NONE', ( #993 ), #770, .F. ) ;
#497 = VERTEX_POINT ( 'NONE', #827 ) ;
#498 = AXIS2_PLACEMENT_3D ( 'NONE', #774, #311, #400 ) ;
#499 = CARTESIAN_POINT ( 'NONE',  ( -6.250000000000016875, 0.000000000000000000, -10.82531754730547568 ) ) ;
#500 = DIRECTION ( 'NONE',  ( -0.000000000000000000, 1.000000000000000000, -0.000000000000000000 ) ) ;
#501 = ORIENTED_EDGE ( 'NONE', *, *, #567, .T. ) ;
#502 = FACE_BOUND ( 'NONE', #270, .T. ) ;
#503 = DIRECTION ( 'NONE',  ( -0.000000000000000000, 1.000000000000000000, -0.000000000000000000 ) ) ;
#504 = FACE_OUTER_BOUND ( 'NONE', #286, .T. ) ;
#505 = ORIENTED_EDGE ( 'NONE', *, *, #616, .T. ) ;
#506 = CIRCLE ( 'NONE', #454, 2.500000000000000444 ) ;
#507 = EDGE_CURVE ( 'NONE', #996, #942, #321, .T. ) ;
#508 = EDGE_CURVE ( 'NONE', #846, #837, #369, .T. ) ;
#509 = ORIENTED_EDGE ( 'NONE', *, *, #582, .F. ) ;
#510 = CARTESIAN_POINT ( 'NONE',  ( 6.249999999999939604, 8.000000000000000000, 10.82531754730552365 ) ) ;
#511 = CARTESIAN_POINT ( 'NONE',  ( 0.4945549005894696593, 0.000000000000000000, -16.48516335298231894 ) ) ;
#512 = CARTESIAN_POINT ( 'NONE',  ( 0.000000000000000000, 0.000000000000000000, -10.19999999999999929 ) ) ;
#513 = ORIENTED_EDGE ( 'NONE', *, *, #142, .F. ) ;
#514 = CARTESIAN_POINT ( 'NONE',  ( 100.0000000000000000, 8.000000000000000000, 0.000000000000000000 ) ) ;
#515 = EDGE_CURVE ( 'NONE', #494, #864, #580, .T. ) ;
#516 = CARTESIAN_POINT ( 'NONE',  ( 100.0000000000000000, 8.000000000000000000, 0.000000000000000000 ) ) ;
#517 = DIRECTION ( 'NONE',  ( -0.000000000000000000, 1.000000000000000000, -0.000000000000000000 ) ) ;
#518 = CARTESIAN_POINT ( 'NONE',  ( 100.0000000000000000, 0.000000000000000000, 0.000000000000000000 ) ) ;
#519 = CIRCLE ( 'NONE', #543, 2.500000000000000444 ) ;
#520 = CARTESIAN_POINT ( 'NONE',  ( -12.50000000000000355, 8.000000000000000000, -1.275021754842953214E-13 ) ) ;
#521 = CARTESIAN_POINT ( 'NONE',  ( 12.50000000000000355, 0.000000000000000000, 4.163336342344337027E-14 ) ) ;
#522 = DIRECTION ( 'NONE',  ( 0.000000000000000000, 1.000000000000000000, -0.000000000000000000 ) ) ;
#523 = ADVANCED_FACE ( 'NONE', ( #634 ), #563, .T. ) ;
#524 = CARTESIAN_POINT ( 'NONE',  ( 6.249999999999939604, 0.000000000000000000, 12.72531754730552400 ) ) ;
#525 = CARTESIAN_POINT ( 'NONE',  ( 0.000000000000000000, 0.000000000000000000, 0.000000000000000000 ) ) ;
#526 = VERTEX_POINT ( 'NONE', #479 ) ;
#527 = ADVANCED_FACE ( 'NONE', ( #388 ), #875, .T. ) ;
#528 = DIRECTION ( 'NONE',  ( 0.000000000000000000, 1.000000000000000000, 0.000000000000000000 ) ) ;
#529 = ORIENTED_EDGE ( 'NONE', *, *, #586, .T. ) ;
#530 = APPLICATION_PROTOCOL_DEFINITION ( 'draft international standard', 'automotive_design', 1998, #427 ) ;
#531 = DIRECTION ( 'NONE',  ( 0.000000000000000000, 0.000000000000000000, 1.000000000000000000 ) ) ;
#532 = VERTEX_POINT ( 'NONE', #15 ) ;
#533 = EDGE_CURVE ( 'NONE', #734, #930, #180, .T. ) ;
#534 = CIRCLE ( 'NONE', #151, 13.50000000000000000 ) ;
#535 = CARTESIAN_POINT ( 'NONE',  ( -8.833459118600627491, 0.000000000000000000, 2.600000000000372680 ) ) ;
#536 = CYLINDRICAL_SURFACE ( 'NONE', #559, 10.00000000000000888 ) ;
#537 = ORIENTED_EDGE ( 'NONE', *, *, #766, .T. ) ;
#538 = CARTESIAN_POINT ( 'NONE',  ( 2.020667218593133100E-15, 8.000000000000000000, 16.50000000000000000 ) ) ;
#539 = CYLINDRICAL_SURFACE ( 'NONE', #811, 1.900000000000000577 ) ;
#540 = AXIS2_PLACEMENT_3D ( 'NONE', #790, #237, #713 ) ;
#541 = ORIENTED_EDGE ( 'NONE', *, *, #975, .T. ) ;
#542 = AXIS2_PLACEMENT_3D ( 'NONE', #868, #630, #2 ) ;
#543 = AXIS2_PLACEMENT_3D ( 'NONE', #27, #428, #343 ) ;
#544 = DIRECTION ( 'NONE',  ( 0.000000000000000000, 0.000000000000000000, 1.000000000000000000 ) ) ;
#545 = EDGE_CURVE ( 'NONE', #956, #40, #274, .T. ) ;
#546 = LINE ( 'NONE', #250, #918 ) ;
#547 = FACE_BOUND ( 'NONE', #573, .T. ) ;
#548 = EDGE_LOOP ( 'NONE', ( #202, #197, #87, #275 ) ) ;
#549 = CIRCLE ( 'NONE', #859, 1.900000000000000577 ) ;
#550 = DIRECTION ( 'NONE',  ( -0.000000000000000000, 1.000000000000000000, -0.000000000000000000 ) ) ;
#551 = DIRECTION ( 'NONE',  ( -0.02998650910567101854, 0.000000000000000000, 0.9995503035223667343 ) ) ;
#552 = CYLINDRICAL_SURFACE ( 'NONE', #375, 1.900000000000000133 ) ;
#553 = ORIENTED_EDGE ( 'NONE', *, *, #693, .T. ) ;
#554 = ADVANCED_BREP_SHAPE_REPRESENTATION ( '\X2\7535673a529b81c2\X0\', ( #705, #773 ), #564 ) ;
#555 = ORIENTED_EDGE ( 'NONE', *, *, #879, .F. ) ;
#556 = CARTESIAN_POINT ( 'NONE',  ( 100.0000000000000000, 60.00000000000000000, 0.000000000000000000 ) ) ;
#557 = CARTESIAN_POINT ( 'NONE',  ( 0.000000000000000000, 0.000000000000000000, -16.50000000000000000 ) ) ;
#558 = CARTESIAN_POINT ( 'NONE',  ( 100.0000000000000142, 8.000000000000000000, -13.50000000000000000 ) ) ;
#559 = AXIS2_PLACEMENT_3D ( 'NONE', #924, #230, #493 ) ;
#560 = ORIENTED_EDGE ( 'NONE', *, *, #701, .F. ) ;
#561 = AXIS2_PLACEMENT_3D ( 'NONE', #952, #464, #938 ) ;
#562 = ORIENTED_EDGE ( 'NONE', *, *, #119, .F. ) ;
#563 = CYLINDRICAL_SURFACE ( 'NONE', #498, 16.50000000000000000 ) ;
#564 =( GEOMETRIC_REPRESENTATION_CONTEXT ( 3 ) GLOBAL_UNCERTAINTY_ASSIGNED_CONTEXT ( ( #352 ) ) GLOBAL_UNIT_ASSIGNED_CONTEXT ( ( #210, #570, #77 ) ) REPRESENTATION_CONTEXT ( 'NONE', 'WORKASPACE' ) );
#565 = CARTESIAN_POINT ( 'NONE',  ( -6.250000000000016875, 0.000000000000000000, -8.925317547305475330 ) ) ;
#566 = EDGE_LOOP ( 'NONE', ( #417, #890, #18, #48 ) ) ;
#567 = EDGE_CURVE ( 'NONE', #258, #841, #850, .T. ) ;
#568 = ORIENTED_EDGE ( 'NONE', *, *, #975, .F. ) ;
#569 = FACE_BOUND ( 'NONE', #710, .T. ) ;
#570 =( NAMED_UNIT ( * ) PLANE_ANGLE_UNIT ( ) SI_UNIT ( $, .RADIAN. ) );
#571 = VERTEX_POINT ( 'NONE', #779 ) ;
#572 = ADVANCED_FACE ( 'NONE', ( #20 ), #694, .T. ) ;
#573 = EDGE_LOOP ( 'NONE', ( #374, #936 ) ) ;
#574 = SURFACE_STYLE_FILL_AREA ( #260 ) ;
#575 = CARTESIAN_POINT ( 'NONE',  ( -12.50000000000000355, 8.000000000000000000, -1.900000000000127809 ) ) ;
#576 = LINE ( 'NONE', #813, #867 ) ;
#577 = ORIENTED_EDGE ( 'NONE', *, *, #59, .F. ) ;
#578 = AXIS2_PLACEMENT_3D ( 'NONE', #368, #598, #682 ) ;
#579 = VERTEX_POINT ( 'NONE', #396 ) ;
#580 = CIRCLE ( 'NONE', #412, 2.500000000000000444 ) ;
#581 = DIRECTION ( 'NONE',  ( -0.000000000000000000, 1.000000000000000000, -0.000000000000000000 ) ) ;
#582 = EDGE_CURVE ( 'NONE', #387, #40, #932, .T. ) ;
#583 = DIRECTION ( 'NONE',  ( -0.000000000000000000, 1.000000000000000000, -0.000000000000000000 ) ) ;
#584 = EDGE_CURVE ( 'NONE', #309, #571, #249, .T. ) ;
#585 = CARTESIAN_POINT ( 'NONE',  ( -6.250000000000016875, 0.000000000000000000, -10.82531754730547568 ) ) ;
#586 = EDGE_CURVE ( 'NONE', #739, #729, #414, .T. ) ;
#587 = VERTEX_POINT ( 'NONE', #104 ) ;
#588 = ORIENTED_EDGE ( 'NONE', *, *, #594, .F. ) ;
#589 = FACE_BOUND ( 'NONE', #697, .T. ) ;
#590 = DIRECTION ( 'NONE',  ( 0.000000000000000000, 0.000000000000000000, 1.000000000000000000 ) ) ;
#591 = FACE_OUTER_BOUND ( 'NONE', #247, .T. ) ;
#592 = VECTOR ( 'NONE', #62, 1000.000000000000000 ) ;
#593 = ORIENTED_EDGE ( 'NONE', *, *, #130, .F. ) ;
#594 = EDGE_CURVE ( 'NONE', #409, #996, #639, .T. ) ;
#595 = LINE ( 'NONE', #133, #707 ) ;
#596 = CARTESIAN_POINT ( 'NONE',  ( -8.833459118600627491, 8.000000000000000000, 2.600000000000372680 ) ) ;
#597 = DIRECTION ( 'NONE',  ( -0.000000000000000000, 1.000000000000000000, -0.000000000000000000 ) ) ;
#598 = DIRECTION ( 'NONE',  ( -0.000000000000000000, 1.000000000000000000, -0.000000000000000000 ) ) ;
#599 = CIRCLE ( 'NONE', #156, 2.500000000000000444 ) ;
#600 = DIRECTION ( 'NONE',  ( 0.000000000000000000, 0.000000000000000000, 1.000000000000000000 ) ) ;
#601 = CARTESIAN_POINT ( 'NONE',  ( -6.250000000000094147, 8.000000000000000000, 10.82531754730543838 ) ) ;
#602 = CIRCLE ( 'NONE', #158, 1.900000000000000133 ) ;
#603 = CARTESIAN_POINT ( 'NONE',  ( 6.250000000000010658, 0.000000000000000000, -12.72531754730547782 ) ) ;
#604 = PRODUCT_RELATED_PRODUCT_CATEGORY ( 'part', '', ( #957 ) ) ;
#605 = LINE ( 'NONE', #765, #234 ) ;
#606 = VECTOR ( 'NONE', #503, 1000.000000000000000 ) ;
#607 = ORIENTED_EDGE ( 'NONE', *, *, #88, .F. ) ;
#608 = EDGE_CURVE ( 'NONE', #646, #220, #29, .T. ) ;
#609 = DIRECTION ( 'NONE',  ( 0.000000000000000000, 1.000000000000000000, 0.000000000000000000 ) ) ;
#610 = DIRECTION ( 'NONE',  ( 0.000000000000000000, 0.000000000000000000, 1.000000000000000000 ) ) ;
#611 = ORIENTED_EDGE ( 'NONE', *, *, #728, .F. ) ;
#612 = AXIS2_PLACEMENT_3D ( 'NONE', #280, #885, #285 ) ;
#613 = EDGE_CURVE ( 'NONE', #79, #102, #338, .T. ) ;
#614 = CYLINDRICAL_SURFACE ( 'NONE', #291, 10.00000000000000888 ) ;
#615 = FACE_OUTER_BOUND ( 'NONE', #981, .T. ) ;
#616 = EDGE_CURVE ( 'NONE', #587, #190, #602, .T. ) ;
#617 = EDGE_LOOP ( 'NONE', ( #294, #117 ) ) ;
#618 = PRESENTATION_LAYER_ASSIGNMENT (  '', '', ( #791 ) ) ;
#619 = DIRECTION ( 'NONE',  ( -0.000000000000000000, -1.000000000000000000, -0.000000000000000000 ) ) ;
#620 = ORIENTED_EDGE ( 'NONE', *, *, #863, .T. ) ;
#621 = CARTESIAN_POINT ( 'NONE',  ( 0.000000000000000000, 0.000000000000000000, -7.699999999999998401 ) ) ;
#622 = PLANE ( 'NONE',  #295 ) ;
#623 = ORIENTED_EDGE ( 'NONE', *, *, #507, .F. ) ;
#624 = AXIS2_PLACEMENT_3D ( 'NONE', #963, #267, #684 ) ;
#625 = CARTESIAN_POINT ( 'NONE',  ( 0.4945549005894696593, 8.000000000000000000, 16.48516335298231894 ) ) ;
#626 = EDGE_CURVE ( 'NONE', #157, #797, #723, .T. ) ;
#627 = DIRECTION ( 'NONE',  ( 0.000000000000000000, 0.000000000000000000, 1.000000000000000000 ) ) ;
#628 = CARTESIAN_POINT ( 'NONE',  ( 12.50000000000000355, 0.000000000000000000, 4.163336342344337027E-14 ) ) ;
#629 = EDGE_LOOP ( 'NONE', ( #505, #620 ) ) ;
#630 = DIRECTION ( 'NONE',  ( 0.000000000000000000, 1.000000000000000000, 0.000000000000000000 ) ) ;
#631 = CARTESIAN_POINT ( 'NONE',  ( 12.50000000000000355, 8.000000000000000000, 1.900000000000041878 ) ) ;
#632 = VERTEX_POINT ( 'NONE', #926 ) ;
#633 = ORIENTED_EDGE ( 'NONE', *, *, #75, .T. ) ;
#634 = FACE_OUTER_BOUND ( 'NONE', #901, .T. ) ;
#635 = CARTESIAN_POINT ( 'NONE',  ( 100.0000000000000000, 8.000000000000000000, 13.50000000000000000 ) ) ;
#636 = CARTESIAN_POINT ( 'NONE',  ( 0.000000000000000000, 0.000000000000000000, 0.000000000000000000 ) ) ;
#637 = ORIENTED_EDGE ( 'NONE', *, *, #515, .F. ) ;
#638 = ORIENTED_EDGE ( 'NONE', *, *, #319, .T. ) ;
#639 = LINE ( 'NONE', #326, #822 ) ;
#640 = EDGE_CURVE ( 'NONE', #253, #642, #462, .T. ) ;
#641 = DIRECTION ( 'NONE',  ( -0.000000000000000000, 1.000000000000000000, -0.000000000000000000 ) ) ;
#642 = VERTEX_POINT ( 'NONE', #538 ) ;
#643 = AXIS2_PLACEMENT_3D ( 'NONE', #163, #795, #544 ) ;
#644 = ORIENTED_EDGE ( 'NONE', *, *, #728, .T. ) ;
#645 = FACE_OUTER_BOUND ( 'NONE', #661, .T. ) ;
#646 = VERTEX_POINT ( 'NONE', #473 ) ;
#647 = ORIENTED_EDGE ( 'NONE', *, *, #586, .F. ) ;
#648 = CARTESIAN_POINT ( 'NONE',  ( 12.50000000000000355, 0.000000000000000000, 4.163336342344337027E-14 ) ) ;
#649 = CARTESIAN_POINT ( 'NONE',  ( 6.250000000000010658, 8.000000000000000000, -10.82531754730547746 ) ) ;
#650 = ORIENTED_EDGE ( 'NONE', *, *, #395, .T. ) ;
#651 = ORIENTED_EDGE ( 'NONE', *, *, #582, .T. ) ;
#652 = EDGE_CURVE ( 'NONE', #42, #486, #849, .T. ) ;
#653 = FACE_BOUND ( 'NONE', #467, .T. ) ;
#654 = DIRECTION ( 'NONE',  ( -0.000000000000000000, 1.000000000000000000, -0.000000000000000000 ) ) ;
#655 = EDGE_LOOP ( 'NONE', ( #155, #399, #378, #593 ) ) ;
#656 = AXIS2_PLACEMENT_3D ( 'NONE', #316, #307, #627 ) ;
#657 = ORIENTED_EDGE ( 'NONE', *, *, #459, .T. ) ;
#658 = CARTESIAN_POINT ( 'NONE',  ( -12.50000000000000355, 8.000000000000000000, 1.899999999999872680 ) ) ;
#659 = CARTESIAN_POINT ( 'NONE',  ( 100.0000000000000000, 8.000000000000000000, 13.50000000000000000 ) ) ;
#660 = LINE ( 'NONE', #51, #171 ) ;
#661 = EDGE_LOOP ( 'NONE', ( #341, #951, #960, #513, #380, #703 ) ) ;
#662 = AXIS2_PLACEMENT_3D ( 'NONE', #973, #278, #214 ) ;
#663 = CARTESIAN_POINT ( 'NONE',  ( -12.50000000000000355, 0.000000000000000000, -1.275021754842953214E-13 ) ) ;
#664 = PLANE ( 'NONE',  #92 ) ;
#665 = ORIENTED_EDGE ( 'NONE', *, *, #336, .F. ) ;
#666 = CARTESIAN_POINT ( 'NONE',  ( -6.250000000000094147, 0.000000000000000000, 10.82531754730543838 ) ) ;
#667 = CYLINDRICAL_SURFACE ( 'NONE', #476, 1.900000000000000577 ) ;
#668 = ADVANCED_FACE ( 'NONE', ( #816 ), #725, .F. ) ;
#669 = CARTESIAN_POINT ( 'NONE',  ( 12.50000000000000355, 0.000000000000000000, 1.900000000000041878 ) ) ;
#670 = AXIS2_PLACEMENT_3D ( 'NONE', #456, #528, #757 ) ;
#671 = AXIS2_PLACEMENT_3D ( 'NONE', #648, #810, #897 ) ;
#672 = CARTESIAN_POINT ( 'NONE',  ( 0.000000000000000000, 8.000000000000000000, 0.000000000000000000 ) ) ;
#673 = ADVANCED_FACE ( 'NONE', ( #882, #347, #589, #731, #434, #653, #426, #502, #569, #645, #209 ), #958, .T. ) ;
#674 = ORIENTED_EDGE ( 'NONE', *, *, #310, .F. ) ;
#675 = AXIS2_PLACEMENT_3D ( 'NONE', #649, #884, #115 ) ;
#676 = DIRECTION ( 'NONE',  ( 0.000000000000000000, 1.000000000000000000, 0.000000000000000000 ) ) ;
#677 = CARTESIAN_POINT ( 'NONE',  ( 6.249999999999939604, 0.000000000000000000, 8.925317547305521515 ) ) ;
#678 = AXIS2_PLACEMENT_3D ( 'NONE', #806, #186, #590 ) ;
#679 = ORIENTED_EDGE ( 'NONE', *, *, #130, .T. ) ;
#680 = ADVANCED_FACE ( 'NONE', ( #903 ), #342, .T. ) ;
#681 = ADVANCED_FACE ( 'NONE', ( #37 ), #283, .T. ) ;
#682 = DIRECTION ( 'NONE',  ( 0.000000000000000000, 0.000000000000000000, 1.000000000000000000 ) ) ;
#683 = EDGE_LOOP ( 'NONE', ( #35, #568 ) ) ;
#684 = DIRECTION ( 'NONE',  ( 0.000000000000000000, 0.000000000000000000, 1.000000000000000000 ) ) ;
#685 = CARTESIAN_POINT ( 'NONE',  ( -12.50000000000000355, 8.000000000000000000, -1.275021754842953214E-13 ) ) ;
#686 = AXIS2_PLACEMENT_3D ( 'NONE', #741, #25, #891 ) ;
#687 = EDGE_CURVE ( 'NONE', #54, #198, #80, .T. ) ;
#688 = ORIENTED_EDGE ( 'NONE', *, *, #820, .T. ) ;
#689 = DIRECTION ( 'NONE',  ( -0.000000000000000000, 1.000000000000000000, -0.000000000000000000 ) ) ;
#690 = DIRECTION ( 'NONE',  ( 0.000000000000000000, 0.000000000000000000, 1.000000000000000000 ) ) ;
#691 = FACE_OUTER_BOUND ( 'NONE', #241, .T. ) ;
#692 = VERTEX_POINT ( 'NONE', #337 ) ;
#693 = EDGE_CURVE ( 'NONE', #190, #919, #595, .T. ) ;
#694 = CYLINDRICAL_SURFACE ( 'NONE', #561, 16.50000000000000000 ) ;
#695 = DIRECTION ( 'NONE',  ( 0.9995503035223666233, 0.000000000000000000, 0.02998650910567101507 ) ) ;
#696 = DIRECTION ( 'NONE',  ( 0.000000000000000000, 0.000000000000000000, 1.000000000000000000 ) ) ;
#697 = EDGE_LOOP ( 'NONE', ( #406, #611 ) ) ;
#698 = VECTOR ( 'NONE', #94, 1000.000000000000000 ) ;
#699 = DIRECTION ( 'NONE',  ( 0.000000000000000000, 0.000000000000000000, 1.000000000000000000 ) ) ;
#700 = DIRECTION ( 'NONE',  ( 0.000000000000000000, 0.000000000000000000, 1.000000000000000000 ) ) ;
#701 = EDGE_CURVE ( 'NONE', #486, #259, #277, .T. ) ;
#702 = VECTOR ( 'NONE', #84, 1000.000000000000000 ) ;
#703 = ORIENTED_EDGE ( 'NONE', *, *, #327, .T. ) ;
#704 = ORIENTED_EDGE ( 'NONE', *, *, #693, .F. ) ;
#705 = MANIFOLD_SOLID_BREP ( '\X2\51f853f0\X0\-\X2\62c94f38\X0\3', #401 ) ;
#706 = CARTESIAN_POINT ( 'NONE',  ( 0.4945549005894696593, 0.000000000000000000, 16.48516335298231894 ) ) ;
#707 = VECTOR ( 'NONE', #271, 1000.000000000000000 ) ;
#708 = DIRECTION ( 'NONE',  ( -0.9995503035223666233, 0.000000000000000000, 0.02998650910567101507 ) ) ;
#709 = CARTESIAN_POINT ( 'NONE',  ( 100.0000000000000000, 60.00000000000000000, 0.000000000000000000 ) ) ;
#710 = EDGE_LOOP ( 'NONE', ( #577, #759 ) ) ;
#711 = AXIS2_PLACEMENT_3D ( 'NONE', #525, #365, #990 ) ;
#712 = VERTEX_POINT ( 'NONE', #658 ) ;
#713 = DIRECTION ( 'NONE',  ( 0.000000000000000000, 0.000000000000000000, 1.000000000000000000 ) ) ;
#714 = ADVANCED_FACE ( 'NONE', ( #413 ), #31, .F. ) ;
#715 = DIRECTION ( 'NONE',  ( 0.000000000000000000, 1.000000000000000000, 0.000000000000000000 ) ) ;
#716 = CARTESIAN_POINT ( 'NONE',  ( -6.250000000000094147, 0.000000000000000000, 8.925317547305438026 ) ) ;
#717 = ORIENTED_EDGE ( 'NONE', *, *, #7, .F. ) ;
#718 = ORIENTED_EDGE ( 'NONE', *, *, #242, .T. ) ;
#719 = DIRECTION ( 'NONE',  ( 0.000000000000000000, 0.000000000000000000, 1.000000000000000000 ) ) ;
#720 = CIRCLE ( 'NONE', #287, 1.900000000000000577 ) ;
#721 = DIRECTION ( 'NONE',  ( 0.000000000000000000, 1.000000000000000000, 0.000000000000000000 ) ) ;
#722 = ORIENTED_EDGE ( 'NONE', *, *, #950, .F. ) ;
#723 = CIRCLE ( 'NONE', #113, 13.50000000000000000 ) ;
#724 = ORIENTED_EDGE ( 'NONE', *, *, #910, .T. ) ;
#725 = CYLINDRICAL_SURFACE ( 'NONE', #256, 2.500000000000000444 ) ;
#726 = LINE ( 'NONE', #344, #107 ) ;
#727 = ORIENTED_EDGE ( 'NONE', *, *, #752, .T. ) ;
#728 = EDGE_CURVE ( 'NONE', #188, #972, #1004, .T. ) ;
#729 = VERTEX_POINT ( 'NONE', #138 ) ;
#730 = EDGE_CURVE ( 'NONE', #919, #712, #484, .T. ) ;
#731 = FACE_BOUND ( 'NONE', #225, .T. ) ;
#732 = DIRECTION ( 'NONE',  ( -0.000000000000000000, 1.000000000000000000, -0.000000000000000000 ) ) ;
#733 = DIRECTION ( 'NONE',  ( 0.000000000000000000, 1.000000000000000000, 0.000000000000000000 ) ) ;
#734 = VERTEX_POINT ( 'NONE', #56 ) ;
#735 = ORIENTED_EDGE ( 'NONE', *, *, #873, .F. ) ;
#736 = CARTESIAN_POINT ( 'NONE',  ( 6.249999999999939604, 0.000000000000000000, 12.72531754730552400 ) ) ;
#737 = CYLINDRICAL_SURFACE ( 'NONE', #366, 2.500000000000000444 ) ;
#738 = EDGE_CURVE ( 'NONE', #497, #854, #226, .T. ) ;
#739 = VERTEX_POINT ( 'NONE', #631 ) ;
#740 = AXIS2_PLACEMENT_3D ( 'NONE', #780, #82, #389 ) ;
#741 = CARTESIAN_POINT ( 'NONE',  ( 0.000000000000000000, 8.000000000000000000, 0.000000000000000000 ) ) ;
#742 = DIRECTION ( 'NONE',  ( 0.000000000000000000, 1.000000000000000000, 0.000000000000000000 ) ) ;
#743 = CARTESIAN_POINT ( 'NONE',  ( 6.249999999999939604, 0.000000000000000000, 10.82531754730552365 ) ) ;
#744 = CIRCLE ( 'NONE', #177, 16.50000000000000000 ) ;
#745 = EDGE_LOOP ( 'NONE', ( #109, #638, #172, #453 ) ) ;
#746 = VECTOR ( 'NONE', #312, 1000.000000000000000 ) ;
#747 = CARTESIAN_POINT ( 'NONE',  ( 8.833459118601924231, 8.000000000000000000, 5.099999999999623057 ) ) ;
#748 = DIRECTION ( 'NONE',  ( 0.000000000000000000, 1.000000000000000000, 0.000000000000000000 ) ) ;
#749 = AXIS2_PLACEMENT_3D ( 'NONE', #825, #836, #1001 ) ;
#750 = CARTESIAN_POINT ( 'NONE',  ( 8.833459118601924231, 0.000000000000000000, 5.099999999999623057 ) ) ;
#751 = AXIS2_PLACEMENT_3D ( 'NONE', #211, #597, #904 ) ;
#752 = EDGE_CURVE ( 'NONE', #79, #579, #857, .T. ) ;
#753 = LINE ( 'NONE', #999, #8 ) ;
#754 = AXIS2_PLACEMENT_3D ( 'NONE', #829, #215, #229 ) ;
#755 = EDGE_LOOP ( 'NONE', ( #704, #1003, #12, #404 ) ) ;
#756 = AXIS2_PLACEMENT_3D ( 'NONE', #81, #689, #908 ) ;
#757 = DIRECTION ( 'NONE',  ( 0.000000000000000000, 0.000000000000000000, 1.000000000000000000 ) ) ;
#758 = DIRECTION ( 'NONE',  ( 0.000000000000000000, 0.000000000000000000, 1.000000000000000000 ) ) ;
#759 = ORIENTED_EDGE ( 'NONE', *, *, #730, .F. ) ;
#760 = EDGE_CURVE ( 'NONE', #102, #79, #178, .T. ) ;
#761 = ADVANCED_FACE ( 'NONE', ( #483 ), #11, .F. ) ;
#762 = DIRECTION ( 'NONE',  ( 0.000000000000000000, 1.000000000000000000, 0.000000000000000000 ) ) ;
#763 = AXIS2_PLACEMENT_3D ( 'NONE', #947, #323, #852 ) ;
#764 = ORIENTED_EDGE ( 'NONE', *, *, #730, .T. ) ;
#765 = CARTESIAN_POINT ( 'NONE',  ( 0.000000000000000000, 8.000000000000000000, -16.50000000000000000 ) ) ;
#766 = EDGE_CURVE ( 'NONE', #220, #789, #941, .T. ) ;
#767 = FACE_OUTER_BOUND ( 'NONE', #655, .T. ) ;
#768 = ADVANCED_FACE ( 'NONE', ( #390 ), #552, .F. ) ;
#769 = EDGE_LOOP ( 'NONE', ( #688, #437 ) ) ;
#770 = CYLINDRICAL_SURFACE ( 'NONE', #756, 2.500000000000000444 ) ;
#771 = VECTOR ( 'NONE', #487, 1000.000000000000000 ) ;
#772 = EDGE_LOOP ( 'NONE', ( #335, #471, #97, #735 ) ) ;
#773 = AXIS2_PLACEMENT_3D ( 'NONE', #455, #997, #65 ) ;
#774 = CARTESIAN_POINT ( 'NONE',  ( 0.000000000000000000, 8.000000000000000000, 0.000000000000000000 ) ) ;
#775 = LINE ( 'NONE', #397, #968 ) ;
#776 = CARTESIAN_POINT ( 'NONE',  ( -12.50000000000000355, 0.000000000000000000, -1.275021754842953214E-13 ) ) ;
#777 = ORIENTED_EDGE ( 'NONE', *, *, #567, .F. ) ;
#778 = ADVANCED_FACE ( 'NONE', ( #245, #4, #547, #164, #470, #786, #169, #86, #781, #691 ), #622, .F. ) ;
#779 = CARTESIAN_POINT ( 'NONE',  ( 0.000000000000000000, 8.000000000000000000, -7.699999999999998401 ) ) ;
#780 = CARTESIAN_POINT ( 'NONE',  ( -6.250000000000094147, 8.000000000000000000, 10.82531754730543838 ) ) ;
#781 = FACE_BOUND ( 'NONE', #629, .T. ) ;
#782 = VERTEX_POINT ( 'NONE', #17 ) ;
#783 = VECTOR ( 'NONE', #402, 1000.000000000000000 ) ;
#784 = DIRECTION ( 'NONE',  ( 0.000000000000000000, 0.000000000000000000, 1.000000000000000000 ) ) ;
#785 = LINE ( 'NONE', #328, #303 ) ;
#786 = FACE_BOUND ( 'NONE', #814, .T. ) ;
#787 = EDGE_LOOP ( 'NONE', ( #170, #637, #966, #227 ) ) ;
#788 = EDGE_CURVE ( 'NONE', #854, #497, #994, .T. ) ;
#789 = VERTEX_POINT ( 'NONE', #398 ) ;
#790 = CARTESIAN_POINT ( 'NONE',  ( -6.250000000000016875, 8.000000000000000000, -10.82531754730547568 ) ) ;
#791 = STYLED_ITEM ( 'NONE', ( #49 ), #705 ) ;
#792 = DIRECTION ( 'NONE',  ( 0.000000000000000000, 0.000000000000000000, 1.000000000000000000 ) ) ;
#793 = EDGE_LOOP ( 'NONE', ( #562, #461, #537, #978 ) ) ;
#794 = CIRCLE ( 'NONE', #282, 1.900000000000000133 ) ;
#795 = DIRECTION ( 'NONE',  ( 0.000000000000000000, 1.000000000000000000, 0.000000000000000000 ) ) ;
#796 = CARTESIAN_POINT ( 'NONE',  ( -6.250000000000016875, 0.000000000000000000, -12.72531754730547604 ) ) ;
#797 = VERTEX_POINT ( 'NONE', #928 ) ;
#798 = PRODUCT_DEFINITION_SHAPE ( 'NONE', 'NONE',  #221 ) ;
#799 = EDGE_LOOP ( 'NONE', ( #722, #555 ) ) ;
#800 = AXIS2_PLACEMENT_3D ( 'NONE', #743, #517, #134 ) ;
#801 = DIRECTION ( 'NONE',  ( 0.000000000000000000, 0.000000000000000000, 1.000000000000000000 ) ) ;
#802 = CARTESIAN_POINT ( 'NONE',  ( 0.4945549005894696593, 8.000000000000000000, -16.48516335298231894 ) ) ;
#803 = ORIENTED_EDGE ( 'NONE', *, *, #752, .F. ) ;
#804 = EDGE_LOOP ( 'NONE', ( #489, #490 ) ) ;
#805 = DIRECTION ( 'NONE',  ( 0.000000000000000000, 0.000000000000000000, 1.000000000000000000 ) ) ;
#806 = CARTESIAN_POINT ( 'NONE',  ( 6.250000000000010658, 8.000000000000000000, -10.82531754730547746 ) ) ;
#807 = DIRECTION ( 'NONE',  ( 0.000000000000000000, 0.000000000000000000, 1.000000000000000000 ) ) ;
#808 = ORIENTED_EDGE ( 'NONE', *, *, #910, .F. ) ;
#809 = ORIENTED_EDGE ( 'NONE', *, *, #351, .F. ) ;
#810 = DIRECTION ( 'NONE',  ( 0.000000000000000000, 1.000000000000000000, 0.000000000000000000 ) ) ;
#811 = AXIS2_PLACEMENT_3D ( 'NONE', #101, #161, #792 ) ;
#812 = DIRECTION ( 'NONE',  ( -0.000000000000000000, -1.000000000000000000, -0.000000000000000000 ) ) ;
#813 = CARTESIAN_POINT ( 'NONE',  ( -12.50000000000000355, 0.000000000000000000, 1.899999999999872680 ) ) ;
#814 = EDGE_LOOP ( 'NONE', ( #262, #182 ) ) ;
#815 = ORIENTED_EDGE ( 'NONE', *, *, #371, .F. ) ;
#816 = FACE_OUTER_BOUND ( 'NONE', #235, .T. ) ;
#817 = CYLINDRICAL_SURFACE ( 'NONE', #203, 1.900000000000000133 ) ;
#818 = CARTESIAN_POINT ( 'NONE',  ( 8.833459118601924231, 0.000000000000000000, 5.099999999999623057 ) ) ;
#819 = ORIENTED_EDGE ( 'NONE', *, *, #608, .F. ) ;
#820 = EDGE_CURVE ( 'NONE', #220, #646, #912, .T. ) ;
#821 = DIRECTION ( 'NONE',  ( 0.000000000000000000, 0.000000000000000000, -1.000000000000000000 ) ) ;
#822 = VECTOR ( 'NONE', #550, 1000.000000000000000 ) ;
#823 = LINE ( 'NONE', #408, #463 ) ;
#824 = CARTESIAN_POINT ( 'NONE',  ( 0.000000000000000000, 8.000000000000000000, -16.50000000000000000 ) ) ;
#825 = CARTESIAN_POINT ( 'NONE',  ( 0.000000000000000000, 0.000000000000000000, 0.000000000000000000 ) ) ;
#826 = DIRECTION ( 'NONE',  ( 0.000000000000000000, 0.000000000000000000, 1.000000000000000000 ) ) ;
#827 = CARTESIAN_POINT ( 'NONE',  ( -6.250000000000094147, 0.000000000000000000, 12.72531754730543874 ) ) ;
#828 = DIRECTION ( 'NONE',  ( -0.000000000000000000, 1.000000000000000000, -0.000000000000000000 ) ) ;
#829 = CARTESIAN_POINT ( 'NONE',  ( -6.250000000000016875, 8.000000000000000000, -10.82531754730547568 ) ) ;
#830 = DIRECTION ( 'NONE',  ( 0.000000000000000000, 1.000000000000000000, 0.000000000000000000 ) ) ;
#831 = EDGE_CURVE ( 'NONE', #309, #734, #506, .T. ) ;
#832 = AXIS2_PLACEMENT_3D ( 'NONE', #851, #551, #695 ) ;
#833 = ORIENTED_EDGE ( 'NONE', *, *, #687, .T. ) ;
#834 = AXIS2_PLACEMENT_3D ( 'NONE', #385, #945, #784 ) ;
#835 = DIRECTION ( 'NONE',  ( -0.000000000000000000, 1.000000000000000000, -0.000000000000000000 ) ) ;
#836 = DIRECTION ( 'NONE',  ( 0.000000000000000000, 1.000000000000000000, 0.000000000000000000 ) ) ;
#837 = VERTEX_POINT ( 'NONE', #796 ) ;
#838 = COLOUR_RGB ( '',0.7921568627450980005, 0.8196078431372548767, 0.9333333333333333481 ) ;
#839 = CARTESIAN_POINT ( 'NONE',  ( 6.249999999999939604, 0.000000000000000000, 10.82531754730552365 ) ) ;
#840 = EDGE_CURVE ( 'NONE', #797, #526, #251, .T. ) ;
#841 = VERTEX_POINT ( 'NONE', #175 ) ;
#842 = CIRCLE ( 'NONE', #749, 16.50000000000000000 ) ;
#843 = ORIENTED_EDGE ( 'NONE', *, *, #873, .T. ) ;
#844 = DIRECTION ( 'NONE',  ( 0.000000000000000000, 0.000000000000000000, 1.000000000000000000 ) ) ;
#845 = FACE_OUTER_BOUND ( 'NONE', #447, .T. ) ;
#846 = VERTEX_POINT ( 'NONE', #565 ) ;
#847 = VECTOR ( 'NONE', #835, 1000.000000000000000 ) ;
#848 = ADVANCED_FACE ( 'NONE', ( #953 ), #539, .F. ) ;
#849 = LINE ( 'NONE', #9, #987 ) ;
#850 = CIRCLE ( 'NONE', #540, 1.900000000000000577 ) ;
#851 = CARTESIAN_POINT ( 'NONE',  ( 0.4945549005894696593, 8.000000000000000000, -16.48516335298231894 ) ) ;
#852 = DIRECTION ( 'NONE',  ( 0.000000000000000000, 0.000000000000000000, 1.000000000000000000 ) ) ;
#853 = AXIS2_PLACEMENT_3D ( 'NONE', #232, #173, #699 ) ;
#854 = VERTEX_POINT ( 'NONE', #716 ) ;
#855 = EDGE_CURVE ( 'NONE', #42, #357, #549, .T. ) ;
#856 = DIRECTION ( 'NONE',  ( -0.9995503035223666233, 0.000000000000000000, 0.02998650910567101507 ) ) ;
#857 = LINE ( 'NONE', #317, #922 ) ;
#858 = EDGE_LOOP ( 'NONE', ( #808, #99, #184, #179 ) ) ;
#859 = AXIS2_PLACEMENT_3D ( 'NONE', #21, #334, #257 ) ;
#860 = CARTESIAN_POINT ( 'NONE',  ( -12.50000000000000355, 0.000000000000000000, -1.275021754842953214E-13 ) ) ;
#861 = CARTESIAN_POINT ( 'NONE',  ( 6.250000000000010658, 0.000000000000000000, -8.925317547305477106 ) ) ;
#862 = DIRECTION ( 'NONE',  ( 0.000000000000000000, 0.000000000000000000, 1.000000000000000000 ) ) ;
#863 = EDGE_CURVE ( 'NONE', #190, #587, #943, .T. ) ;
#864 = VERTEX_POINT ( 'NONE', #200 ) ;
#865 = EDGE_CURVE ( 'NONE', #157, #387, #491, .T. ) ;
#866 = ORIENTED_EDGE ( 'NONE', *, *, #545, .F. ) ;
#867 = VECTOR ( 'NONE', #273, 1000.000000000000000 ) ;
#868 = CARTESIAN_POINT ( 'NONE',  ( 6.250000000000010658, 0.000000000000000000, -10.82531754730547746 ) ) ;
#869 = DIRECTION ( 'NONE',  ( -0.000000000000000000, -1.000000000000000000, -0.000000000000000000 ) ) ;
#870 = DIRECTION ( 'NONE',  ( -0.000000000000000000, -1.000000000000000000, -0.000000000000000000 ) ) ;
#871 = ORIENTED_EDGE ( 'NONE', *, *, #327, .F. ) ;
#872 = AXIS2_PLACEMENT_3D ( 'NONE', #415, #339, #193 ) ;
#873 = EDGE_CURVE ( 'NONE', #357, #259, #33, .T. ) ;
#874 = ORIENTED_EDGE ( 'NONE', *, *, #613, .T. ) ;
#875 = PLANE ( 'NONE',  #146 ) ;
#876 = CARTESIAN_POINT ( 'NONE',  ( -12.50000000000000355, 0.000000000000000000, -1.275021754842953214E-13 ) ) ;
#877 = EDGE_LOOP ( 'NONE', ( #254, #106 ) ) ;
#878 = CARTESIAN_POINT ( 'NONE',  ( 6.249999999999939604, 8.000000000000000000, 12.72531754730552400 ) ) ;
#879 = EDGE_CURVE ( 'NONE', #579, #320, #120, .T. ) ;
#880 = ORIENTED_EDGE ( 'NONE', *, *, #26, .F. ) ;
#881 = ORIENTED_EDGE ( 'NONE', *, *, #319, .F. ) ;
#882 = FACE_BOUND ( 'NONE', #799, .T. ) ;
#883 = VECTOR ( 'NONE', #153, 1000.000000000000000 ) ;
#884 = DIRECTION ( 'NONE',  ( 0.000000000000000000, 1.000000000000000000, 0.000000000000000000 ) ) ;
#885 = DIRECTION ( 'NONE',  ( 0.000000000000000000, 1.000000000000000000, -0.000000000000000000 ) ) ;
#886 = AXIS2_PLACEMENT_3D ( 'NONE', #377, #828, #140 ) ;
#887 = ORIENTED_EDGE ( 'NONE', *, *, #889, .F. ) ;
#888 = AXIS2_PLACEMENT_3D ( 'NONE', #298, #609, #916 ) ;
#889 = EDGE_CURVE ( 'NONE', #526, #692, #261, .T. ) ;
#890 = ORIENTED_EDGE ( 'NONE', *, *, #840, .F. ) ;
#891 = DIRECTION ( 'NONE',  ( 0.000000000000000000, -0.000000000000000000, 1.000000000000000000 ) ) ;
#892 = AXIS2_PLACEMENT_3D ( 'NONE', #516, #435, #974 ) ;
#893 = CARTESIAN_POINT ( 'NONE',  ( 8.833459118601924231, 8.000000000000000000, 7.599999999999623945 ) ) ;
#894 = DIRECTION ( 'NONE',  ( 0.000000000000000000, 0.000000000000000000, 1.000000000000000000 ) ) ;
#895 = ORIENTED_EDGE ( 'NONE', *, *, #196, .T. ) ;
#896 = ORIENTED_EDGE ( 'NONE', *, *, #384, .T. ) ;
#897 = DIRECTION ( 'NONE',  ( 0.000000000000000000, 0.000000000000000000, 1.000000000000000000 ) ) ;
#898 = VECTOR ( 'NONE', #812, 1000.000000000000000 ) ;
#899 = CYLINDRICAL_SURFACE ( 'NONE', #68, 1.900000000000000577 ) ;
#900 = FACE_OUTER_BOUND ( 'NONE', #954, .T. ) ;
#901 = EDGE_LOOP ( 'NONE', ( #458, #63, #449, #145 ) ) ;
#902 = ADVANCED_FACE ( 'NONE', ( #979 ), #817, .F. ) ;
#903 = FACE_OUTER_BOUND ( 'NONE', #566, .T. ) ;
#904 = DIRECTION ( 'NONE',  ( 0.000000000000000000, 0.000000000000000000, 1.000000000000000000 ) ) ;
#905 = CARTESIAN_POINT ( 'NONE',  ( 12.50000000000000355, 8.000000000000000000, 4.163336342344337027E-14 ) ) ;
#906 = DIRECTION ( 'NONE',  ( 0.000000000000000000, 1.000000000000000000, 0.000000000000000000 ) ) ;
#907 = AXIS2_PLACEMENT_3D ( 'NONE', #967, #199, #821 ) ;
#908 = DIRECTION ( 'NONE',  ( 0.000000000000000000, 0.000000000000000000, 1.000000000000000000 ) ) ;
#909 = CYLINDRICAL_SURFACE ( 'NONE', #137, 1.900000000000000577 ) ;
#910 = EDGE_CURVE ( 'NONE', #837, #846, #72, .T. ) ;
#911 = DIRECTION ( 'NONE',  ( -0.000000000000000000, -1.000000000000000000, -0.000000000000000000 ) ) ;
#912 = CIRCLE ( 'NONE', #424, 10.00000000000000888 ) ;
#913 = ORIENTED_EDGE ( 'NONE', *, *, #433, .F. ) ;
#914 = ORIENTED_EDGE ( 'NONE', *, *, #224, .T. ) ;
#915 = PRODUCT_CONTEXT ( 'NONE', #141, 'mechanical' ) ;
#916 = DIRECTION ( 'NONE',  ( 0.000000000000000000, 0.000000000000000000, 1.000000000000000000 ) ) ;
#917 = DIRECTION ( 'NONE',  ( 0.000000000000000000, 1.000000000000000000, 0.000000000000000000 ) ) ;
#918 = VECTOR ( 'NONE', #869, 1000.000000000000000 ) ;
#919 = VERTEX_POINT ( 'NONE', #575 ) ;
#920 = CYLINDRICAL_SURFACE ( 'NONE', #269, 2.500000000000000444 ) ;
#921 = ORIENTED_EDGE ( 'NONE', *, *, #533, .F. ) ;
#922 = VECTOR ( 'NONE', #403, 1000.000000000000000 ) ;
#923 = LINE ( 'NONE', #71, #883 ) ;
#924 = CARTESIAN_POINT ( 'NONE',  ( 100.0000000000000000, 60.00000000000000000, 0.000000000000000000 ) ) ;
#925 = ORIENTED_EDGE ( 'NONE', *, *, #889, .T. ) ;
#926 = CARTESIAN_POINT ( 'NONE',  ( 0.9891098011789094535, 8.000000000000000000, -16.47032670596463433 ) ) ;
#927 = LINE ( 'NONE', #465, #698 ) ;
#928 = CARTESIAN_POINT ( 'NONE',  ( 100.0000000000000142, 8.000000000000000000, -13.50000000000000000 ) ) ;
#929 = EDGE_CURVE ( 'NONE', #789, #992, #1002, .T. ) ;
#930 = VERTEX_POINT ( 'NONE', #421 ) ;
#931 = CIRCLE ( 'NONE', #6, 1.900000000000000577 ) ;
#932 = LINE ( 'NONE', #706, #213 ) ;
#933 = CIRCLE ( 'NONE', #195, 1.900000000000000577 ) ;
#934 = CARTESIAN_POINT ( 'NONE',  ( 8.833459118601924231, 8.000000000000000000, 2.599999999999622613 ) ) ;
#935 = DIRECTION ( 'NONE',  ( -0.000000000000000000, 1.000000000000000000, -0.000000000000000000 ) ) ;
#936 = ORIENTED_EDGE ( 'NONE', *, *, #313, .T. ) ;
#937 = PRODUCT_DEFINITION_FORMATION_WITH_SPECIFIED_SOURCE ( 'ä»', '', #957, .NOT_KNOWN. ) ;
#938 = DIRECTION ( 'NONE',  ( 0.000000000000000000, 0.000000000000000000, -1.000000000000000000 ) ) ;
#939 = ADVANCED_FACE ( 'NONE', ( #360 ), #899, .F. ) ;
#940 = EDGE_CURVE ( 'NONE', #19, #40, #823, .T. ) ;
#941 = LINE ( 'NONE', #239, #746 ) ;
#942 = VERTEX_POINT ( 'NONE', #348 ) ;
#943 = CIRCLE ( 'NONE', #165, 1.900000000000000133 ) ;
#944 = ORIENTED_EDGE ( 'NONE', *, *, #766, .F. ) ;
#945 = DIRECTION ( 'NONE',  ( 0.000000000000000000, 1.000000000000000000, 0.000000000000000000 ) ) ;
#946 = CARTESIAN_POINT ( 'NONE',  ( -12.50000000000000355, 0.000000000000000000, -1.900000000000127809 ) ) ;
#947 = CARTESIAN_POINT ( 'NONE',  ( -6.250000000000094147, 0.000000000000000000, 10.82531754730543838 ) ) ;
#948 = EDGE_LOOP ( 'NONE', ( #430, #895, #263, #24 ) ) ;
#949 = EDGE_CURVE ( 'NONE', #642, #19, #744, .T. ) ;
#950 = EDGE_CURVE ( 'NONE', #320, #579, #480, .T. ) ;
#951 = ORIENTED_EDGE ( 'NONE', *, *, #640, .T. ) ;
#952 = CARTESIAN_POINT ( 'NONE',  ( 0.000000000000000000, 8.000000000000000000, 0.000000000000000000 ) ) ;
#953 = FACE_OUTER_BOUND ( 'NONE', #772, .T. ) ;
#954 = EDGE_LOOP ( 'NONE', ( #921, #392, #325, #248 ) ) ;
#955 = AXIS2_PLACEMENT_3D ( 'NONE', #514, #205, #114 ) ;
#956 = VERTEX_POINT ( 'NONE', #969 ) ;
#957 = PRODUCT ( '\X2\7535673a529b81c2\X0\', '\X2\7535673a529b81c2\X0\', '', ( #915 ) ) ;
#958 = PLANE ( 'NONE',  #686 ) ;
#959 = ORIENTED_EDGE ( 'NONE', *, *, #533, .T. ) ;
#960 = ORIENTED_EDGE ( 'NONE', *, *, #949, .T. ) ;
#961 = DIRECTION ( 'NONE',  ( 0.000000000000000000, 1.000000000000000000, 0.000000000000000000 ) ) ;
#962 = CARTESIAN_POINT ( 'NONE',  ( -6.250000000000094147, 0.000000000000000000, 10.82531754730543838 ) ) ;
#963 = CARTESIAN_POINT ( 'NONE',  ( -8.833459118600627491, 0.000000000000000000, 5.100000000000373568 ) ) ;
#964 = ORIENTED_EDGE ( 'NONE', *, *, #43, .T. ) ;
#965 = EDGE_CURVE ( 'NONE', #571, #930, #240, .T. ) ;
#966 = ORIENTED_EDGE ( 'NONE', *, *, #420, .T. ) ;
#967 = CARTESIAN_POINT ( 'NONE',  ( 0.000000000000000000, 8.000000000000000000, 0.000000000000000000 ) ) ;
#968 = VECTOR ( 'NONE', #708, 1000.000000000000114 ) ;
#969 = CARTESIAN_POINT ( 'NONE',  ( 2.020667218593133100E-15, 0.000000000000000000, 16.50000000000000000 ) ) ;
#970 = DIRECTION ( 'NONE',  ( -0.000000000000000000, 1.000000000000000000, -0.000000000000000000 ) ) ;
#971 = EDGE_LOOP ( 'NONE', ( #332, #874 ) ) ;
#972 = VERTEX_POINT ( 'NONE', #893 ) ;
#973 = CARTESIAN_POINT ( 'NONE',  ( -6.250000000000094147, 0.000000000000000000, 10.82531754730543838 ) ) ;
#974 = DIRECTION ( 'NONE',  ( 0.000000000000000000, 0.000000000000000000, 1.000000000000000000 ) ) ;
#975 = EDGE_CURVE ( 'NONE', #930, #571, #519, .T. ) ;
#976 = DIRECTION ( 'NONE',  ( -0.000000000000000000, 1.000000000000000000, -0.000000000000000000 ) ) ;
#977 =( GEOMETRIC_REPRESENTATION_CONTEXT ( 3 ) GLOBAL_UNCERTAINTY_ASSIGNED_CONTEXT ( ( #292 ) ) GLOBAL_UNIT_ASSIGNED_CONTEXT ( ( #438, #359, #185 ) ) REPRESENTATION_CONTEXT ( 'NONE', 'WORKASPACE' ) );
#978 = ORIENTED_EDGE ( 'NONE', *, *, #929, .T. ) ;
#979 = FACE_OUTER_BOUND ( 'NONE', #755, .T. ) ;
#980 = LINE ( 'NONE', #429, #431 ) ;
#981 = EDGE_LOOP ( 'NONE', ( #383, #162, #644, #176 ) ) ;
#982 = DIRECTION ( 'NONE',  ( 0.000000000000000000, 1.000000000000000000, 0.000000000000000000 ) ) ;
#983 = FACE_OUTER_BOUND ( 'NONE', #858, .T. ) ;
#984 = VECTOR ( 'NONE', #970, 1000.000000000000000 ) ;
#985 = DIRECTION ( 'NONE',  ( 0.000000000000000000, 0.000000000000000000, 1.000000000000000000 ) ) ;
#986 = AXIS2_PLACEMENT_3D ( 'NONE', #521, #293, #143 ) ;
#987 = VECTOR ( 'NONE', #581, 1000.000000000000000 ) ;
#988 = ADVANCED_FACE ( 'NONE', ( #284 ), #356, .F. ) ;
#989 = DIRECTION ( 'NONE',  ( 0.000000000000000000, 1.000000000000000000, 0.000000000000000000 ) ) ;
#990 = DIRECTION ( 'NONE',  ( 0.000000000000000000, 0.000000000000000000, 1.000000000000000000 ) ) ;
#991 = PRODUCT_DEFINITION_CONTEXT ( 'detailed design', #427, 'design' ) ;
#992 = VERTEX_POINT ( 'NONE', #46 ) ;
#993 = FACE_OUTER_BOUND ( 'NONE', #1000, .T. ) ;
#994 = CIRCLE ( 'NONE', #763, 1.900000000000000577 ) ;
#995 = LINE ( 'NONE', #669, #592 ) ;
#996 = VERTEX_POINT ( 'NONE', #596 ) ;
#997 = DIRECTION ( 'NONE',  ( 0.000000000000000000, 0.000000000000000000, 1.000000000000000000 ) ) ;
#998 = LINE ( 'NONE', #218, #847 ) ;
#999 = CARTESIAN_POINT ( 'NONE',  ( -6.250000000000094147, 0.000000000000000000, 12.72531754730543874 ) ) ;
#1000 = EDGE_LOOP ( 'NONE', ( #674, #959, #541, #219 ) ) ;
#1001 = DIRECTION ( 'NONE',  ( 0.000000000000000000, 0.000000000000000000, 1.000000000000000000 ) ) ;
#1002 = CIRCLE ( 'NONE', #892, 10.00000000000000888 ) ;
#1003 = ORIENTED_EDGE ( 'NONE', *, *, #616, .F. ) ;
#1004 = CIRCLE ( 'NONE', #450, 2.500000000000000444 ) ;
#1005 = DIRECTION ( 'NONE',  ( -0.000000000000000000, -1.000000000000000000, -0.000000000000000000 ) ) ;
#1006 = DIRECTION ( 'NONE',  ( 0.000000000000000000, -0.000000000000000000, 1.000000000000000000 ) ) ;
#1007 = AXIS2_PLACEMENT_3D ( 'NONE', #457, #830, #758 ) ;
ENDSEC;
END-ISO-10303-21;
