ISO-10303-21;
HEADER;
FILE_DESCRIPTION (( 'STEP AP214' ),
    '1' );
FILE_NAME ('µç»úÁ¦±Û1.STEP',
    '2025-12-08T09:29:06',
    ( '' ),
    ( '' ),
    'SwSTEP 2.0',
    'SolidWorks 2025',
    '' );
FILE_SCHEMA (( 'AUTOMOTIVE_DESIGN' ));
ENDSEC;

DATA;
#1 = FACE_OUTER_BOUND ( 'NONE', #931, .T. ) ;
#2 = VERTEX_POINT ( 'NONE', #555 ) ;
#3 = CARTESIAN_POINT ( 'NONE',  ( 0.4945549005894696593, 8.000000000000000000, -16.48516335298231894 ) ) ;
#4 = ORIENTED_EDGE ( 'NONE', *, *, #218, .F. ) ;
#5 = VECTOR ( 'NONE', #731, 1000.000000000000000 ) ;
#6 = DIRECTION ( 'NONE',  ( 0.000000000000000000, 1.000000000000000000, 0.000000000000000000 ) ) ;
#7 = ORIENTED_EDGE ( 'NONE', *, *, #403, .T. ) ;
#8 = CARTESIAN_POINT ( 'NONE',  ( 0.000000000000000000, 0.000000000000000000, -10.19999999999999929 ) ) ;
#9 = CIRCLE ( 'NONE', #138, 2.100000000000559641 ) ;
#10 = ORIENTED_EDGE ( 'NONE', *, *, #136, .T. ) ;
#11 =( NAMED_UNIT ( * ) SI_UNIT ( $, .STERADIAN. ) SOLID_ANGLE_UNIT ( ) );
#12 = DIRECTION ( 'NONE',  ( 0.000000000000000000, 0.000000000000000000, -1.000000000000000000 ) ) ;
#13 = ADVANCED_FACE ( 'NONE', ( #263 ), #166, .F. ) ;
#14 = LINE ( 'NONE', #796, #5 ) ;
#15 = AXIS2_PLACEMENT_3D ( 'NONE', #197, #508, #276 ) ;
#16 = ADVANCED_FACE ( 'NONE', ( #868 ), #114, .T. ) ;
#17 = DIRECTION ( 'NONE',  ( 0.000000000000000000, 0.000000000000000000, 1.000000000000000000 ) ) ;
#18 = DIRECTION ( 'NONE',  ( 0.000000000000000000, 1.000000000000000000, 0.000000000000000000 ) ) ;
#19 = CARTESIAN_POINT ( 'NONE',  ( -6.250000000000016875, 0.000000000000000000, -10.82531754730547568 ) ) ;
#20 =( LENGTH_UNIT ( ) NAMED_UNIT ( * ) SI_UNIT ( .MILLI., .METRE. ) );
#21 = CARTESIAN_POINT ( 'NONE',  ( 0.000000000000000000, 0.000000000000000000, 0.000000000000000000 ) ) ;
#22 = FACE_OUTER_BOUND ( 'NONE', #487, .T. ) ;
#23 = VERTEX_POINT ( 'NONE', #724 ) ;
#24 = VECTOR ( 'NONE', #997, 1000.000000000000000 ) ;
#25 = EDGE_LOOP ( 'NONE', ( #603, #616 ) ) ;
#26 = FILL_AREA_STYLE_COLOUR ( '', #316 ) ;
#27 = DIRECTION ( 'NONE',  ( 0.000000000000000000, 0.000000000000000000, 1.000000000000000000 ) ) ;
#28 = CIRCLE ( 'NONE', #759, 1.599999999999998979 ) ;
#29 = CYLINDRICAL_SURFACE ( 'NONE', #778, 1.600000000000000089 ) ;
#30 = VECTOR ( 'NONE', #272, 1000.000000000000000 ) ;
#31 = ORIENTED_EDGE ( 'NONE', *, *, #783, .F. ) ;
#32 = VERTEX_POINT ( 'NONE', #170 ) ;
#33 = CARTESIAN_POINT ( 'NONE',  ( 0.4945549005894696593, 8.000000000000000000, 16.48516335298231894 ) ) ;
#34 = ADVANCED_FACE ( 'NONE', ( #717 ), #652, .T. ) ;
#35 = CARTESIAN_POINT ( 'NONE',  ( -6.250000000000016875, 0.000000000000000000, -9.225317547305476040 ) ) ;
#36 = DIRECTION ( 'NONE',  ( 0.000000000000000000, 0.000000000000000000, 1.000000000000000000 ) ) ;
#37 = AXIS2_PLACEMENT_3D ( 'NONE', #124, #595, #275 ) ;
#38 = ORIENTED_EDGE ( 'NONE', *, *, #748, .F. ) ;
#39 = FACE_BOUND ( 'NONE', #653, .T. ) ;
#40 = EDGE_CURVE ( 'NONE', #702, #571, #14, .T. ) ;
#41 = CARTESIAN_POINT ( 'NONE',  ( 0.000000000000000000, 8.000000000000000000, 0.000000000000000000 ) ) ;
#42 = ORIENTED_EDGE ( 'NONE', *, *, #45, .T. ) ;
#43 = CARTESIAN_POINT ( 'NONE',  ( 0.000000000000000000, 0.000000000000000000, 0.000000000000000000 ) ) ;
#44 = DIRECTION ( 'NONE',  ( -0.000000000000000000, 1.000000000000000000, -0.000000000000000000 ) ) ;
#45 = EDGE_CURVE ( 'NONE', #815, #241, #932, .T. ) ;
#46 = AXIS2_PLACEMENT_3D ( 'NONE', #33, #279, #729 ) ;
#47 = ORIENTED_EDGE ( 'NONE', *, *, #766, .T. ) ;
#48 = DIRECTION ( 'NONE',  ( 0.000000000000000000, 1.000000000000000000, 0.000000000000000000 ) ) ;
#49 = CARTESIAN_POINT ( 'NONE',  ( -6.250000000000016875, 0.000000000000000000, -9.225317547305476040 ) ) ;
#50 = ORIENTED_EDGE ( 'NONE', *, *, #161, .F. ) ;
#51 = PRODUCT_CONTEXT ( 'NONE', #431, 'mechanical' ) ;
#52 = FACE_BOUND ( 'NONE', #377, .T. ) ;
#53 = FACE_OUTER_BOUND ( 'NONE', #837, .T. ) ;
#54 = AXIS2_PLACEMENT_3D ( 'NONE', #631, #96, #36 ) ;
#55 = EDGE_LOOP ( 'NONE', ( #844, #31 ) ) ;
#56 = ADVANCED_FACE ( 'NONE', ( #948 ), #91, .F. ) ;
#57 = AXIS2_PLACEMENT_3D ( 'NONE', #506, #976, #585 ) ;
#58 = DIRECTION ( 'NONE',  ( 0.000000000000000000, 0.000000000000000000, 1.000000000000000000 ) ) ;
#59 = DIRECTION ( 'NONE',  ( 0.000000000000000000, 1.000000000000000000, 0.000000000000000000 ) ) ;
#60 = ADVANCED_FACE ( 'NONE', ( #22 ), #29, .F. ) ;
#61 = VECTOR ( 'NONE', #601, 1000.000000000000000 ) ;
#62 = ORIENTED_EDGE ( 'NONE', *, *, #1000, .F. ) ;
#63 = ADVANCED_FACE ( 'NONE', ( #559 ), #712, .F. ) ;
#64 = LINE ( 'NONE', #774, #985 ) ;
#65 = AXIS2_PLACEMENT_3D ( 'NONE', #986, #668, #824 ) ;
#66 = EDGE_LOOP ( 'NONE', ( #116, #708, #68, #202 ) ) ;
#67 = CARTESIAN_POINT ( 'NONE',  ( 0.9891098011789096756, 8.000000000000000000, 16.47032670596463788 ) ) ;
#68 = ORIENTED_EDGE ( 'NONE', *, *, #705, .T. ) ;
#69 = AXIS2_PLACEMENT_3D ( 'NONE', #476, #883, #564 ) ;
#70 = CARTESIAN_POINT ( 'NONE',  ( -12.50000000000000355, 8.000000000000000000, 1.599999999999873079 ) ) ;
#71 = DIRECTION ( 'NONE',  ( 0.000000000000000000, 0.000000000000000000, 1.000000000000000000 ) ) ;
#72 = ORIENTED_EDGE ( 'NONE', *, *, #172, .F. ) ;
#73 = DIRECTION ( 'NONE',  ( 0.000000000000000000, 1.000000000000000000, 0.000000000000000000 ) ) ;
#74 = VERTEX_POINT ( 'NONE', #953 ) ;
#75 = LINE ( 'NONE', #767, #907 ) ;
#76 = EDGE_CURVE ( 'NONE', #571, #965, #301, .T. ) ;
#77 = ORIENTED_EDGE ( 'NONE', *, *, #123, .F. ) ;
#78 = FACE_OUTER_BOUND ( 'NONE', #381, .T. ) ;
#79 = VECTOR ( 'NONE', #969, 1000.000000000000000 ) ;
#80 = EDGE_LOOP ( 'NONE', ( #445, #572, #111, #472 ) ) ;
#81 = FACE_BOUND ( 'NONE', #862, .T. ) ;
#82 = VERTEX_POINT ( 'NONE', #639 ) ;
#83 = CARTESIAN_POINT ( 'NONE',  ( 0.000000000000000000, 0.000000000000000000, -16.50000000000000000 ) ) ;
#84 = EDGE_LOOP ( 'NONE', ( #93, #513, #911, #776 ) ) ;
#85 = DIRECTION ( 'NONE',  ( 0.000000000000000000, 1.000000000000000000, 0.000000000000000000 ) ) ;
#86 = ORIENTED_EDGE ( 'NONE', *, *, #526, .F. ) ;
#87 = APPLICATION_CONTEXT ( 'automotive_design' ) ;
#88 = DIRECTION ( 'NONE',  ( 0.000000000000000000, 0.000000000000000000, 1.000000000000000000 ) ) ;
#89 = EDGE_CURVE ( 'NONE', #992, #566, #408, .T. ) ;
#90 = DIRECTION ( 'NONE',  ( 0.000000000000000000, 1.000000000000000000, 0.000000000000000000 ) ) ;
#91 = CYLINDRICAL_SURFACE ( 'NONE', #333, 2.100000000000559641 ) ;
#92 = AXIS2_PLACEMENT_3D ( 'NONE', #746, #48, #355 ) ;
#93 = ORIENTED_EDGE ( 'NONE', *, *, #193, .F. ) ;
#94 = CYLINDRICAL_SURFACE ( 'NONE', #102, 13.50000000000000000 ) ;
#95 = CARTESIAN_POINT ( 'NONE',  ( 12.50000000000000355, 8.000000000000000000, 4.163336342344337027E-14 ) ) ;
#96 = DIRECTION ( 'NONE',  ( 0.000000000000000000, 1.000000000000000000, 0.000000000000000000 ) ) ;
#97 = AXIS2_PLACEMENT_3D ( 'NONE', #253, #59, #756 ) ;
#98 = VERTEX_POINT ( 'NONE', #551 ) ;
#99 = CARTESIAN_POINT ( 'NONE',  ( 12.50000000000000355, 8.000000000000000000, 4.163336342344337027E-14 ) ) ;
#100 = DIRECTION ( 'NONE',  ( -0.000000000000000000, -1.000000000000000000, -0.000000000000000000 ) ) ;
#101 = DIRECTION ( 'NONE',  ( 0.000000000000000000, 1.000000000000000000, 0.000000000000000000 ) ) ;
#102 = AXIS2_PLACEMENT_3D ( 'NONE', #623, #468, #938 ) ;
#103 = EDGE_LOOP ( 'NONE', ( #264, #335 ) ) ;
#104 = ORIENTED_EDGE ( 'NONE', *, *, #800, .F. ) ;
#105 = PRESENTATION_STYLE_ASSIGNMENT (( #488 ) ) ;
#106 = DIRECTION ( 'NONE',  ( -0.000000000000000000, 1.000000000000000000, -0.000000000000000000 ) ) ;
#107 = DIRECTION ( 'NONE',  ( -0.000000000000000000, -1.000000000000000000, -0.000000000000000000 ) ) ;
#108 = EDGE_CURVE ( 'NONE', #833, #1006, #727, .T. ) ;
#109 = VERTEX_POINT ( 'NONE', #880 ) ;
#110 = AXIS2_PLACEMENT_3D ( 'NONE', #927, #229, #88 ) ;
#111 = ORIENTED_EDGE ( 'NONE', *, *, #244, .T. ) ;
#112 = CARTESIAN_POINT ( 'NONE',  ( 6.249999999999939604, 0.000000000000000000, 10.82531754730552365 ) ) ;
#113 = AXIS2_PLACEMENT_3D ( 'NONE', #812, #700, #568 ) ;
#114 = CYLINDRICAL_SURFACE ( 'NONE', #967, 9.999999999999994671 ) ;
#115 = ORIENTED_EDGE ( 'NONE', *, *, #606, .F. ) ;
#116 = ORIENTED_EDGE ( 'NONE', *, *, #968, .F. ) ;
#117 = ADVANCED_FACE ( 'NONE', ( #179 ), #413, .F. ) ;
#118 = CARTESIAN_POINT ( 'NONE',  ( 6.249999999999939604, 8.000000000000000000, 9.225317547305522226 ) ) ;
#119 = DIRECTION ( 'NONE',  ( 0.000000000000000000, 1.000000000000000000, 0.000000000000000000 ) ) ;
#120 = CIRCLE ( 'NONE', #37, 1.600000000000000089 ) ;
#121 = ORIENTED_EDGE ( 'NONE', *, *, #715, .F. ) ;
#122 = LINE ( 'NONE', #337, #896 ) ;
#123 = EDGE_CURVE ( 'NONE', #787, #571, #184, .T. ) ;
#124 = CARTESIAN_POINT ( 'NONE',  ( 12.50000000000000355, 0.000000000000000000, 4.163336342344337027E-14 ) ) ;
#125 = CARTESIAN_POINT ( 'NONE',  ( -8.833459118600627491, 8.000000000000000000, 7.200000000001189449 ) ) ;
#126 = VERTEX_POINT ( 'NONE', #864 ) ;
#127 = DIRECTION ( 'NONE',  ( 0.000000000000000000, 0.000000000000000000, 1.000000000000000000 ) ) ;
#128 = CARTESIAN_POINT ( 'NONE',  ( 100.0000000000000000, 0.000000000000000000, 0.000000000000000000 ) ) ;
#129 = AXIS2_PLACEMENT_3D ( 'NONE', #591, #910, #512 ) ;
#130 = VERTEX_POINT ( 'NONE', #477 ) ;
#131 = CARTESIAN_POINT ( 'NONE',  ( -12.50000000000000355, 8.000000000000000000, -1.275021754842953214E-13 ) ) ;
#132 = DIRECTION ( 'NONE',  ( 0.000000000000000000, 0.000000000000000000, 1.000000000000000000 ) ) ;
#133 = ORIENTED_EDGE ( 'NONE', *, *, #205, .F. ) ;
#134 = CARTESIAN_POINT ( 'NONE',  ( 100.0000000000000000, 8.000000000000000000, 0.000000000000000000 ) ) ;
#135 = CARTESIAN_POINT ( 'NONE',  ( 100.0000000000000142, 8.000000000000000000, -13.50000000000000000 ) ) ;
#136 = EDGE_CURVE ( 'NONE', #660, #2, #791, .T. ) ;
#137 = ORIENTED_EDGE ( 'NONE', *, *, #713, .F. ) ;
#138 = AXIS2_PLACEMENT_3D ( 'NONE', #736, #751, #434 ) ;
#139 = DIRECTION ( 'NONE',  ( 0.000000000000000000, 0.000000000000000000, -1.000000000000000000 ) ) ;
#140 = CARTESIAN_POINT ( 'NONE',  ( 6.250000000000010658, 8.000000000000000000, -9.225317547305479593 ) ) ;
#141 = EDGE_LOOP ( 'NONE', ( #181, #749 ) ) ;
#142 = CYLINDRICAL_SURFACE ( 'NONE', #525, 1.600000000000000755 ) ;
#143 = EDGE_CURVE ( 'NONE', #699, #499, #835, .T. ) ;
#144 = CIRCLE ( 'NONE', #318, 1.600000000000000533 ) ;
#145 = ORIENTED_EDGE ( 'NONE', *, *, #832, .F. ) ;
#146 = DIRECTION ( 'NONE',  ( -0.000000000000000000, 1.000000000000000000, -0.000000000000000000 ) ) ;
#147 = ORIENTED_EDGE ( 'NONE', *, *, #520, .T. ) ;
#148 = PRODUCT_DEFINITION_CONTEXT ( 'detailed design', #87, 'design' ) ;
#149 = LINE ( 'NONE', #298, #24 ) ;
#150 = EDGE_CURVE ( 'NONE', #693, #364, #158, .T. ) ;
#151 = FACE_BOUND ( 'NONE', #754, .T. ) ;
#152 = CARTESIAN_POINT ( 'NONE',  ( 12.50000000000000355, 0.000000000000000000, -1.599999999999958344 ) ) ;
#153 = CARTESIAN_POINT ( 'NONE',  ( 0.000000000000000000, 8.000000000000000000, 0.000000000000000000 ) ) ;
#154 = AXIS2_PLACEMENT_3D ( 'NONE', #134, #456, #452 ) ;
#155 = AXIS2_PLACEMENT_3D ( 'NONE', #112, #872, #252 ) ;
#156 = EDGE_LOOP ( 'NONE', ( #640, #587, #773, #902 ) ) ;
#157 = FILL_AREA_STYLE ('',( #26 ) ) ;
#158 = CIRCLE ( 'NONE', #745, 1.600000000000000755 ) ;
#159 = ORIENTED_EDGE ( 'NONE', *, *, #841, .T. ) ;
#160 = CARTESIAN_POINT ( 'NONE',  ( -12.50000000000000355, 0.000000000000000000, -1.600000000000127987 ) ) ;
#161 = EDGE_CURVE ( 'NONE', #331, #501, #515, .T. ) ;
#162 = CARTESIAN_POINT ( 'NONE',  ( 8.833459118601924231, 0.000000000000000000, 5.099999999999623057 ) ) ;
#163 = AXIS2_PLACEMENT_3D ( 'NONE', #867, #90, #794 ) ;
#164 = EDGE_LOOP ( 'NONE', ( #4, #849 ) ) ;
#165 = DIRECTION ( 'NONE',  ( -0.000000000000000000, 1.000000000000000000, -0.000000000000000000 ) ) ;
#166 = CYLINDRICAL_SURFACE ( 'NONE', #392, 1.599999999999998979 ) ;
#167 = ORIENTED_EDGE ( 'NONE', *, *, #89, .T. ) ;
#168 = DIRECTION ( 'NONE',  ( 0.000000000000000000, 0.000000000000000000, 1.000000000000000000 ) ) ;
#169 = CARTESIAN_POINT ( 'NONE',  ( 0.9891098011789096756, 0.000000000000000000, -16.47032670596463788 ) ) ;
#170 = CARTESIAN_POINT ( 'NONE',  ( 12.50000000000000355, 8.000000000000000000, 1.600000000000041611 ) ) ;
#171 = CARTESIAN_POINT ( 'NONE',  ( 100.0000000000000000, 0.000000000000000000, 13.50000000000000000 ) ) ;
#172 = EDGE_CURVE ( 'NONE', #209, #467, #356, .T. ) ;
#173 = DIRECTION ( 'NONE',  ( 0.000000000000000000, 1.000000000000000000, 0.000000000000000000 ) ) ;
#174 = DIRECTION ( 'NONE',  ( 0.000000000000000000, 0.000000000000000000, 1.000000000000000000 ) ) ;
#175 = ORIENTED_EDGE ( 'NONE', *, *, #816, .F. ) ;
#176 = CYLINDRICAL_SURFACE ( 'NONE', #610, 2.099999999999999645 ) ;
#177 = FACE_OUTER_BOUND ( 'NONE', #898, .T. ) ;
#178 = EDGE_CURVE ( 'NONE', #209, #186, #597, .T. ) ;
#179 = FACE_OUTER_BOUND ( 'NONE', #908, .T. ) ;
#180 = ORIENTED_EDGE ( 'NONE', *, *, #644, .F. ) ;
#181 = ORIENTED_EDGE ( 'NONE', *, *, #626, .F. ) ;
#182 = DIRECTION ( 'NONE',  ( -0.9995503035223666233, 0.000000000000000000, -0.02998650910567101507 ) ) ;
#183 = CARTESIAN_POINT ( 'NONE',  ( 2.571758278209441464E-16, 0.000000000000000000, -12.29999999999999893 ) ) ;
#184 = LINE ( 'NONE', #496, #383 ) ;
#185 = CIRCLE ( 'NONE', #792, 1.600000000000000533 ) ;
#186 = VERTEX_POINT ( 'NONE', #827 ) ;
#187 = CIRCLE ( 'NONE', #414, 1.600000000000000755 ) ;
#188 = EDGE_LOOP ( 'NONE', ( #375, #121 ) ) ;
#189 = FACE_BOUND ( 'NONE', #647, .T. ) ;
#190 = VECTOR ( 'NONE', #1005, 1000.000000000000000 ) ;
#191 = DIRECTION ( 'NONE',  ( 0.000000000000000000, 1.000000000000000000, 0.000000000000000000 ) ) ;
#192 = CIRCLE ( 'NONE', #97, 1.600000000000000755 ) ;
#193 = EDGE_CURVE ( 'NONE', #954, #234, #1003, .T. ) ;
#194 = ORIENTED_EDGE ( 'NONE', *, *, #788, .F. ) ;
#195 = DIRECTION ( 'NONE',  ( 1.000000000000000000, 0.000000000000000000, 0.000000000000000000 ) ) ;
#196 = FACE_OUTER_BOUND ( 'NONE', #80, .T. ) ;
#197 = CARTESIAN_POINT ( 'NONE',  ( -6.250000000000016875, 0.000000000000000000, -10.82531754730547568 ) ) ;
#198 = AXIS2_PLACEMENT_3D ( 'NONE', #221, #371, #1002 ) ;
#199 = ORIENTED_EDGE ( 'NONE', *, *, #766, .F. ) ;
#200 = CARTESIAN_POINT ( 'NONE',  ( -8.833459118600627491, 0.000000000000000000, 5.100000000000373568 ) ) ;
#201 = DIRECTION ( 'NONE',  ( 0.000000000000000000, 0.000000000000000000, 1.000000000000000000 ) ) ;
#202 = ORIENTED_EDGE ( 'NONE', *, *, #244, .F. ) ;
#203 = LINE ( 'NONE', #347, #873 ) ;
#204 = FACE_OUTER_BOUND ( 'NONE', #854, .T. ) ;
#205 = EDGE_CURVE ( 'NONE', #893, #787, #737, .T. ) ;
#206 = VECTOR ( 'NONE', #777, 1000.000000000000000 ) ;
#207 = DIRECTION ( 'NONE',  ( 0.000000000000000000, 0.000000000000000000, 1.000000000000000000 ) ) ;
#208 = AXIS2_PLACEMENT_3D ( 'NONE', #963, #570, #398 ) ;
#209 = VERTEX_POINT ( 'NONE', #586 ) ;
#210 = CARTESIAN_POINT ( 'NONE',  ( 0.000000000000000000, 0.000000000000000000, 0.000000000000000000 ) ) ;
#211 = CARTESIAN_POINT ( 'NONE',  ( 100.0000000000000000, 30.00000000000000000, -9.999999999999994671 ) ) ;
#212 = EDGE_CURVE ( 'NONE', #886, #787, #535, .T. ) ;
#213 = AXIS2_PLACEMENT_3D ( 'NONE', #248, #18, #494 ) ;
#214 = EDGE_LOOP ( 'NONE', ( #104, #632, #341, #379 ) ) ;
#215 = CARTESIAN_POINT ( 'NONE',  ( 100.0000000000000142, 0.000000000000000000, -13.50000000000000000 ) ) ;
#216 = ORIENTED_EDGE ( 'NONE', *, *, #446, .T. ) ;
#217 = DIRECTION ( 'NONE',  ( 0.000000000000000000, 0.000000000000000000, 1.000000000000000000 ) ) ;
#218 = EDGE_CURVE ( 'NONE', #130, #566, #709, .T. ) ;
#219 = VERTEX_POINT ( 'NONE', #972 ) ;
#220 = AXIS2_PLACEMENT_3D ( 'NONE', #200, #830, #429 ) ;
#221 = CARTESIAN_POINT ( 'NONE',  ( 0.000000000000000000, 8.000000000000000000, 0.000000000000000000 ) ) ;
#222 = DIRECTION ( 'NONE',  ( 0.000000000000000000, 0.000000000000000000, 1.000000000000000000 ) ) ;
#223 = AXIS2_PLACEMENT_3D ( 'NONE', #99, #789, #394 ) ;
#224 = EDGE_LOOP ( 'NONE', ( #314, #399 ) ) ;
#225 = EDGE_CURVE ( 'NONE', #219, #74, #352, .T. ) ;
#226 = DIRECTION ( 'NONE',  ( -0.000000000000000000, 1.000000000000000000, -0.000000000000000000 ) ) ;
#227 = FACE_BOUND ( 'NONE', #164, .T. ) ;
#228 = ORIENTED_EDGE ( 'NONE', *, *, #836, .F. ) ;
#229 = DIRECTION ( 'NONE',  ( -0.000000000000000000, 1.000000000000000000, -0.000000000000000000 ) ) ;
#230 = PLANE ( 'NONE',  #450 ) ;
#231 = ORIENTED_EDGE ( 'NONE', *, *, #718, .T. ) ;
#232 = CARTESIAN_POINT ( 'NONE',  ( 0.000000000000000000, 8.000000000000000000, 0.000000000000000000 ) ) ;
#233 = AXIS2_PLACEMENT_3D ( 'NONE', #514, #899, #826 ) ;
#234 = VERTEX_POINT ( 'NONE', #678 ) ;
#235 = CARTESIAN_POINT ( 'NONE',  ( 6.249999999999939604, 8.000000000000000000, 12.42531754730552329 ) ) ;
#236 = PRESENTATION_LAYER_ASSIGNMENT (  '', '', ( #757 ) ) ;
#237 = EDGE_CURVE ( 'NONE', #840, #82, #192, .T. ) ;
#238 = CIRCLE ( 'NONE', #416, 1.600000000000000755 ) ;
#239 = ORIENTED_EDGE ( 'NONE', *, *, #123, .T. ) ;
#240 =( NAMED_UNIT ( * ) PLANE_ANGLE_UNIT ( ) SI_UNIT ( $, .RADIAN. ) );
#241 = VERTEX_POINT ( 'NONE', #519 ) ;
#242 = DIRECTION ( 'NONE',  ( -0.000000000000000000, 1.000000000000000000, -0.000000000000000000 ) ) ;
#243 = PRODUCT ( '\X2\7535673a529b81c2\X0\1', '\X2\7535673a529b81c2\X0\1', '', ( #51 ) ) ;
#244 = EDGE_CURVE ( 'NONE', #815, #288, #581, .T. ) ;
#245 = ORIENTED_EDGE ( 'NONE', *, *, #205, .T. ) ;
#246 = DIRECTION ( 'NONE',  ( -0.000000000000000000, 1.000000000000000000, -0.000000000000000000 ) ) ;
#247 = AXIS2_PLACEMENT_3D ( 'NONE', #662, #666, #966 ) ;
#248 = CARTESIAN_POINT ( 'NONE',  ( 8.833459118601924231, 0.000000000000000000, 5.099999999999623057 ) ) ;
#249 = DIRECTION ( 'NONE',  ( -0.000000000000000000, 1.000000000000000000, -0.000000000000000000 ) ) ;
#250 = EDGE_LOOP ( 'NONE', ( #881, #858, #533, #733 ) ) ;
#251 = DIRECTION ( 'NONE',  ( 0.000000000000000000, 0.000000000000000000, 1.000000000000000000 ) ) ;
#252 = DIRECTION ( 'NONE',  ( 0.000000000000000000, 0.000000000000000000, 1.000000000000000000 ) ) ;
#253 = CARTESIAN_POINT ( 'NONE',  ( -6.250000000000094147, 8.000000000000000000, 10.82531754730543838 ) ) ;
#254 = ORIENTED_EDGE ( 'NONE', *, *, #713, .T. ) ;
#255 = EDGE_CURVE ( 'NONE', #944, #689, #369, .T. ) ;
#256 = CARTESIAN_POINT ( 'NONE',  ( 6.250000000000010658, 8.000000000000000000, -12.42531754730547711 ) ) ;
#257 = AXIS2_PLACEMENT_3D ( 'NONE', #657, #119, #345 ) ;
#258 = DIRECTION ( 'NONE',  ( 0.000000000000000000, 0.000000000000000000, 1.000000000000000000 ) ) ;
#259 = ORIENTED_EDGE ( 'NONE', *, *, #576, .F. ) ;
#260 = VERTEX_POINT ( 'NONE', #287 ) ;
#261 = LINE ( 'NONE', #325, #357 ) ;
#262 = CARTESIAN_POINT ( 'NONE',  ( 12.50000000000000355, 0.000000000000000000, 1.600000000000041611 ) ) ;
#263 = FACE_OUTER_BOUND ( 'NONE', #84, .T. ) ;
#264 = ORIENTED_EDGE ( 'NONE', *, *, #474, .T. ) ;
#265 = ORIENTED_EDGE ( 'NONE', *, *, #76, .T. ) ;
#266 = DIRECTION ( 'NONE',  ( 0.000000000000000000, 1.000000000000000000, 0.000000000000000000 ) ) ;
#267 = CARTESIAN_POINT ( 'NONE',  ( 0.4945549005894696593, 8.000000000000000000, 16.48516335298231894 ) ) ;
#268 = AXIS2_PLACEMENT_3D ( 'NONE', #232, #385, #139 ) ;
#269 = EDGE_LOOP ( 'NONE', ( #239, #914, #509, #245 ) ) ;
#270 = LINE ( 'NONE', #588, #300 ) ;
#271 = FACE_OUTER_BOUND ( 'NONE', #66, .T. ) ;
#272 = DIRECTION ( 'NONE',  ( -0.000000000000000000, -1.000000000000000000, -0.000000000000000000 ) ) ;
#273 = AXIS2_PLACEMENT_3D ( 'NONE', #41, #891, #598 ) ;
#274 = ORIENTED_EDGE ( 'NONE', *, *, #942, .T. ) ;
#275 = DIRECTION ( 'NONE',  ( 0.000000000000000000, 0.000000000000000000, 1.000000000000000000 ) ) ;
#276 = DIRECTION ( 'NONE',  ( 0.000000000000000000, 0.000000000000000000, 1.000000000000000000 ) ) ;
#277 = CIRCLE ( 'NONE', #223, 1.600000000000000089 ) ;
#278 = ORIENTED_EDGE ( 'NONE', *, *, #522, .F. ) ;
#279 = DIRECTION ( 'NONE',  ( 0.02998650910567101854, -0.000000000000000000, 0.9995503035223667343 ) ) ;
#280 = EDGE_CURVE ( 'NONE', #109, #577, #925, .T. ) ;
#281 = CYLINDRICAL_SURFACE ( 'NONE', #444, 2.100000000000816325 ) ;
#282 = DIRECTION ( 'NONE',  ( 0.000000000000000000, 0.000000000000000000, 1.000000000000000000 ) ) ;
#283 = EDGE_LOOP ( 'NONE', ( #726, #167, #770, #115 ) ) ;
#284 = VECTOR ( 'NONE', #677, 1000.000000000000000 ) ;
#285 = ADVANCED_FACE ( 'NONE', ( #426 ), #897, .F. ) ;
#286 = CARTESIAN_POINT ( 'NONE',  ( 8.833459118601924231, 0.000000000000000000, 7.200000000000183142 ) ) ;
#287 = CARTESIAN_POINT ( 'NONE',  ( -8.833459118600627491, 8.000000000000000000, 2.999999999999556355 ) ) ;
#288 = VERTEX_POINT ( 'NONE', #125 ) ;
#289 = DIRECTION ( 'NONE',  ( 0.000000000000000000, 0.000000000000000000, 1.000000000000000000 ) ) ;
#290 = CARTESIAN_POINT ( 'NONE',  ( -12.50000000000000355, 8.000000000000000000, -1.275021754842953214E-13 ) ) ;
#291 = ADVANCED_FACE ( 'NONE', ( #741 ), #982, .F. ) ;
#292 = AXIS2_PLACEMENT_3D ( 'NONE', #21, #326, #878 ) ;
#293 = ORIENTED_EDGE ( 'NONE', *, *, #612, .T. ) ;
#294 = CARTESIAN_POINT ( 'NONE',  ( -6.250000000000094147, 0.000000000000000000, 12.42531754730543803 ) ) ;
#295 = LINE ( 'NONE', #160, #61 ) ;
#296 = ADVANCED_FACE ( 'NONE', ( #53 ), #350, .F. ) ;
#297 = EDGE_LOOP ( 'NONE', ( #228, #869, #457, #684 ) ) ;
#298 = CARTESIAN_POINT ( 'NONE',  ( -12.50000000000000355, 0.000000000000000000, 1.599999999999873079 ) ) ;
#299 = DIRECTION ( 'NONE',  ( 0.000000000000000000, -0.000000000000000000, 1.000000000000000000 ) ) ;
#300 = VECTOR ( 'NONE', #428, 1000.000000000000114 ) ;
#301 = CIRCLE ( 'NONE', #958, 16.50000000000000000 ) ;
#302 = ORIENTED_EDGE ( 'NONE', *, *, #783, .T. ) ;
#303 = CARTESIAN_POINT ( 'NONE',  ( 6.249999999999939604, 8.000000000000000000, 10.82531754730552365 ) ) ;
#304 = ORIENTED_EDGE ( 'NONE', *, *, #498, .F. ) ;
#305 = LINE ( 'NONE', #999, #206 ) ;
#306 = ORIENTED_EDGE ( 'NONE', *, *, #1007, .T. ) ;
#307 = LINE ( 'NONE', #152, #656 ) ;
#308 = CYLINDRICAL_SURFACE ( 'NONE', #367, 1.600000000000000755 ) ;
#309 = CLOSED_SHELL ( 'NONE', ( #16, #13, #60, #56, #117, #358, #670, #949, #285, #901, #753, #735, #34, #313, #688, #793, #63, #596, #651, #750, #291, #860, #296, #602, #973, #885, #344, #510, #871 ) ) ;
#310 = PRODUCT_DEFINITION ( 'æœ', '', #471, #148 ) ;
#311 = DIRECTION ( 'NONE',  ( 0.000000000000000000, 0.000000000000000000, 1.000000000000000000 ) ) ;
#312 = AXIS2_PLACEMENT_3D ( 'NONE', #43, #895, #589 ) ;
#313 = ADVANCED_FACE ( 'NONE', ( #682, #928, #227, #81, #859, #524, #546, #151, #386, #991, #615 ), #230, .T. ) ;
#314 = ORIENTED_EDGE ( 'NONE', *, *, #178, .T. ) ;
#315 = CARTESIAN_POINT ( 'NONE',  ( 6.250000000000010658, 0.000000000000000000, -10.82531754730547746 ) ) ;
#316 = COLOUR_RGB ( '',0.7921568627450980005, 0.8196078431372548767, 0.9333333333333333481 ) ;
#317 = ORIENTED_EDGE ( 'NONE', *, *, #892, .T. ) ;
#318 = AXIS2_PLACEMENT_3D ( 'NONE', #290, #458, #534 ) ;
#319 = CARTESIAN_POINT ( 'NONE',  ( 100.0000000000000000, 8.000000000000000000, -9.999999999999994671 ) ) ;
#320 = CARTESIAN_POINT ( 'NONE',  ( 6.250000000000010658, 0.000000000000000000, -10.82531754730547746 ) ) ;
#321 = VECTOR ( 'NONE', #894, 1000.000000000000000 ) ;
#322 = DIRECTION ( 'NONE',  ( 0.000000000000000000, 1.000000000000000000, 0.000000000000000000 ) ) ;
#323 = DIRECTION ( 'NONE',  ( 0.000000000000000000, 0.000000000000000000, 1.000000000000000000 ) ) ;
#324 = EDGE_CURVE ( 'NONE', #1004, #98, #785, .T. ) ;
#325 = CARTESIAN_POINT ( 'NONE',  ( -8.833459118600627491, 0.000000000000000000, 2.999999999999556355 ) ) ;
#326 = DIRECTION ( 'NONE',  ( 0.000000000000000000, 1.000000000000000000, 0.000000000000000000 ) ) ;
#327 = DIRECTION ( 'NONE',  ( 0.000000000000000000, 0.000000000000000000, -1.000000000000000000 ) ) ;
#328 = CIRCLE ( 'NONE', #543, 1.600000000000000755 ) ;
#329 = ORIENTED_EDGE ( 'NONE', *, *, #582, .T. ) ;
#330 = VECTOR ( 'NONE', #851, 1000.000000000000000 ) ;
#331 = VERTEX_POINT ( 'NONE', #696 ) ;
#332 = FACE_OUTER_BOUND ( 'NONE', #620, .T. ) ;
#333 = AXIS2_PLACEMENT_3D ( 'NONE', #884, #565, #323 ) ;
#334 = DIRECTION ( 'NONE',  ( 0.000000000000000000, 1.000000000000000000, 0.000000000000000000 ) ) ;
#335 = ORIENTED_EDGE ( 'NONE', *, *, #193, .T. ) ;
#336 = ORIENTED_EDGE ( 'NONE', *, *, #474, .F. ) ;
#337 = CARTESIAN_POINT ( 'NONE',  ( 6.250000000000010658, 0.000000000000000000, -9.225317547305479593 ) ) ;
#338 = CARTESIAN_POINT ( 'NONE',  ( -12.50000000000000355, 8.000000000000000000, -1.600000000000127987 ) ) ;
#339 = CIRCLE ( 'NONE', #163, 2.100000000000816325 ) ;
#340 = DIRECTION ( 'NONE',  ( -0.9995503035223666233, 0.000000000000000000, -0.02998650910567101507 ) ) ;
#341 = ORIENTED_EDGE ( 'NONE', *, *, #852, .T. ) ;
#342 = PLANE ( 'NONE',  #46 ) ;
#343 = FACE_BOUND ( 'NONE', #974, .T. ) ;
#344 = ADVANCED_FACE ( 'NONE', ( #995 ), #391, .F. ) ;
#345 = DIRECTION ( 'NONE',  ( 0.000000000000000000, 0.000000000000000000, 1.000000000000000000 ) ) ;
#346 = ORIENTED_EDGE ( 'NONE', *, *, #76, .F. ) ;
#347 = CARTESIAN_POINT ( 'NONE',  ( 0.4945549005894696593, 8.000000000000000000, -16.48516335298231894 ) ) ;
#348 = DIRECTION ( 'NONE',  ( -0.000000000000000000, 1.000000000000000000, -0.000000000000000000 ) ) ;
#349 = AXIS2_PLACEMENT_3D ( 'NONE', #406, #634, #714 ) ;
#350 = CYLINDRICAL_SURFACE ( 'NONE', #763, 1.600000000000000089 ) ;
#351 = EDGE_CURVE ( 'NONE', #802, #618, #144, .T. ) ;
#352 = CIRCLE ( 'NONE', #65, 2.099999999999999645 ) ;
#353 = ORIENTED_EDGE ( 'NONE', *, *, #449, .F. ) ;
#354 = DIRECTION ( 'NONE',  ( 0.000000000000000000, 0.000000000000000000, 1.000000000000000000 ) ) ;
#355 = DIRECTION ( 'NONE',  ( 0.000000000000000000, 0.000000000000000000, 1.000000000000000000 ) ) ;
#356 = LINE ( 'NONE', #211, #30 ) ;
#357 = VECTOR ( 'NONE', #710, 1000.000000000000000 ) ;
#358 = ADVANCED_FACE ( 'NONE', ( #619 ), #308, .F. ) ;
#359 = EDGE_LOOP ( 'NONE', ( #691, #259 ) ) ;
#360 =( LENGTH_UNIT ( ) NAMED_UNIT ( * ) SI_UNIT ( .MILLI., .METRE. ) );
#361 = PLANE ( 'NONE',  #312 ) ;
#362 = DIRECTION ( 'NONE',  ( -0.000000000000000000, 1.000000000000000000, -0.000000000000000000 ) ) ;
#363 = AXIS2_PLACEMENT_3D ( 'NONE', #419, #266, #834 ) ;
#364 = VERTEX_POINT ( 'NONE', #235 ) ;
#365 = CIRCLE ( 'NONE', #853, 13.50000000000000000 ) ;
#366 = CARTESIAN_POINT ( 'NONE',  ( -8.833459118600627491, 0.000000000000000000, 7.200000000001189449 ) ) ;
#367 = AXIS2_PLACEMENT_3D ( 'NONE', #924, #541, #378 ) ;
#368 = CARTESIAN_POINT ( 'NONE',  ( -8.833459118600627491, 0.000000000000000000, 7.200000000001189449 ) ) ;
#369 = CIRCLE ( 'NONE', #401, 1.600000000000000533 ) ;
#370 = ORIENTED_EDGE ( 'NONE', *, *, #351, .T. ) ;
#371 = DIRECTION ( 'NONE',  ( -0.000000000000000000, -1.000000000000000000, -0.000000000000000000 ) ) ;
#372 = EDGE_CURVE ( 'NONE', #689, #618, #295, .T. ) ;
#373 = ORIENTED_EDGE ( 'NONE', *, *, #942, .F. ) ;
#374 = DIRECTION ( 'NONE',  ( -0.000000000000000000, -1.000000000000000000, -0.000000000000000000 ) ) ;
#375 = ORIENTED_EDGE ( 'NONE', *, *, #351, .F. ) ;
#376 = DIRECTION ( 'NONE',  ( 0.000000000000000000, 1.000000000000000000, 0.000000000000000000 ) ) ;
#377 = EDGE_LOOP ( 'NONE', ( #536, #846 ) ) ;
#378 = DIRECTION ( 'NONE',  ( 0.000000000000000000, 0.000000000000000000, 1.000000000000000000 ) ) ;
#379 = ORIENTED_EDGE ( 'NONE', *, *, #136, .F. ) ;
#380 = DIRECTION ( 'NONE',  ( 0.000000000000000000, 0.000000000000000000, 1.000000000000000000 ) ) ;
#381 = EDGE_LOOP ( 'NONE', ( #38, #409, #47, #865 ) ) ;
#382 = DIRECTION ( 'NONE',  ( -0.02998650910567101854, 0.000000000000000000, 0.9995503035223667343 ) ) ;
#383 = VECTOR ( 'NONE', #340, 1000.000000000000114 ) ;
#384 = ORIENTED_EDGE ( 'NONE', *, *, #540, .T. ) ;
#385 = DIRECTION ( 'NONE',  ( -0.000000000000000000, -1.000000000000000000, -0.000000000000000000 ) ) ;
#386 = FACE_BOUND ( 'NONE', #188, .T. ) ;
#387 = ORIENTED_EDGE ( 'NONE', *, *, #569, .F. ) ;
#388 = EDGE_CURVE ( 'NONE', #467, #460, #857, .T. ) ;
#389 = CARTESIAN_POINT ( 'NONE',  ( 0.000000000000000000, 30.00000000000000000, 0.000000000000000000 ) ) ;
#390 = ORIENTED_EDGE ( 'NONE', *, *, #978, .T. ) ;
#391 = PLANE ( 'NONE',  #580 ) ;
#392 = AXIS2_PLACEMENT_3D ( 'NONE', #320, #801, #420 ) ;
#393 = ORIENTED_EDGE ( 'NONE', *, *, #563, .T. ) ;
#394 = DIRECTION ( 'NONE',  ( 0.000000000000000000, 0.000000000000000000, 1.000000000000000000 ) ) ;
#395 = CIRCLE ( 'NONE', #889, 2.099999999999999645 ) ;
#396 = EDGE_CURVE ( 'NONE', #501, #32, #936, .T. ) ;
#397 = CARTESIAN_POINT ( 'NONE',  ( 100.0000000000000000, 30.00000000000000000, 0.000000000000000000 ) ) ;
#398 = DIRECTION ( 'NONE',  ( 0.000000000000000000, 0.000000000000000000, 1.000000000000000000 ) ) ;
#399 = ORIENTED_EDGE ( 'NONE', *, *, #526, .T. ) ;
#400 = CYLINDRICAL_SURFACE ( 'NONE', #929, 1.600000000000000533 ) ;
#401 = AXIS2_PLACEMENT_3D ( 'NONE', #747, #819, #831 ) ;
#402 = LINE ( 'NONE', #183, #500 ) ;
#403 = EDGE_CURVE ( 'NONE', #74, #728, #75, .T. ) ;
#404 = CARTESIAN_POINT ( 'NONE',  ( 12.50000000000000355, 0.000000000000000000, 4.163336342344337027E-14 ) ) ;
#405 = ORIENTED_EDGE ( 'NONE', *, *, #841, .F. ) ;
#406 = CARTESIAN_POINT ( 'NONE',  ( -6.250000000000016875, 8.000000000000000000, -10.82531754730547568 ) ) ;
#407 = DIRECTION ( 'NONE',  ( -0.000000000000000000, -1.000000000000000000, -0.000000000000000000 ) ) ;
#408 = LINE ( 'NONE', #807, #79 ) ;
#409 = ORIENTED_EDGE ( 'NONE', *, *, #108, .F. ) ;
#410 = VERTEX_POINT ( 'NONE', #140 ) ;
#411 = DIRECTION ( 'NONE',  ( 0.000000000000000000, 0.000000000000000000, 1.000000000000000000 ) ) ;
#412 = CARTESIAN_POINT ( 'NONE',  ( 6.249999999999939604, 0.000000000000000000, 10.82531754730552365 ) ) ;
#413 = CYLINDRICAL_SURFACE ( 'NONE', #208, 1.600000000000000755 ) ;
#414 = AXIS2_PLACEMENT_3D ( 'NONE', #680, #73, #994 ) ;
#415 = ORIENTED_EDGE ( 'NONE', *, *, #934, .T. ) ;
#416 = AXIS2_PLACEMENT_3D ( 'NONE', #630, #550, #711 ) ;
#417 = ORIENTED_EDGE ( 'NONE', *, *, #423, .T. ) ;
#418 = CARTESIAN_POINT ( 'NONE',  ( -6.250000000000094147, 0.000000000000000000, 9.225317547305436960 ) ) ;
#419 = CARTESIAN_POINT ( 'NONE',  ( -12.50000000000000355, 0.000000000000000000, -1.275021754842953214E-13 ) ) ;
#420 = DIRECTION ( 'NONE',  ( 0.000000000000000000, 0.000000000000000000, 1.000000000000000000 ) ) ;
#421 = ORIENTED_EDGE ( 'NONE', *, *, #788, .T. ) ;
#422 =( NAMED_UNIT ( * ) SI_UNIT ( $, .STERADIAN. ) SOLID_ANGLE_UNIT ( ) );
#423 = EDGE_CURVE ( 'NONE', #916, #364, #692, .T. ) ;
#424 = DIRECTION ( 'NONE',  ( 0.000000000000000000, 0.000000000000000000, 1.000000000000000000 ) ) ;
#425 = AXIS2_PLACEMENT_3D ( 'NONE', #8, #106, #27 ) ;
#426 = FACE_OUTER_BOUND ( 'NONE', #214, .T. ) ;
#427 = EDGE_LOOP ( 'NONE', ( #611, #996, #10, #415 ) ) ;
#428 = DIRECTION ( 'NONE',  ( -0.9995503035223666233, 0.000000000000000000, 0.02998650910567101507 ) ) ;
#429 = DIRECTION ( 'NONE',  ( 0.000000000000000000, 0.000000000000000000, 1.000000000000000000 ) ) ;
#430 = DIRECTION ( 'NONE',  ( -0.000000000000000000, 1.000000000000000000, -0.000000000000000000 ) ) ;
#431 = APPLICATION_CONTEXT ( 'automotive_design' ) ;
#432 = ORIENTED_EDGE ( 'NONE', *, *, #40, .T. ) ;
#433 =( NAMED_UNIT ( * ) PLANE_ANGLE_UNIT ( ) SI_UNIT ( $, .RADIAN. ) );
#434 = DIRECTION ( 'NONE',  ( 0.000000000000000000, 0.000000000000000000, 1.000000000000000000 ) ) ;
#435 = AXIS2_PLACEMENT_3D ( 'NONE', #906, #575, #201 ) ;
#436 = DIRECTION ( 'NONE',  ( 0.000000000000000000, 1.000000000000000000, 0.000000000000000000 ) ) ;
#437 = EDGE_CURVE ( 'NONE', #499, #882, #762, .T. ) ;
#438 = ORIENTED_EDGE ( 'NONE', *, *, #930, .T. ) ;
#439 = CARTESIAN_POINT ( 'NONE',  ( 0.000000000000000000, 8.000000000000000000, -10.19999999999999929 ) ) ;
#440 = CARTESIAN_POINT ( 'NONE',  ( 6.249999999999939604, 8.000000000000000000, 10.82531754730552365 ) ) ;
#441 = ORIENTED_EDGE ( 'NONE', *, *, #446, .F. ) ;
#442 = CYLINDRICAL_SURFACE ( 'NONE', #268, 16.50000000000000000 ) ;
#443 = CARTESIAN_POINT ( 'NONE',  ( 8.833459118601924231, 8.000000000000000000, 5.099999999999623057 ) ) ;
#444 = AXIS2_PLACEMENT_3D ( 'NONE', #518, #348, #424 ) ;
#445 = ORIENTED_EDGE ( 'NONE', *, *, #903, .F. ) ;
#446 = EDGE_CURVE ( 'NONE', #577, #499, #775, .T. ) ;
#447 = CYLINDRICAL_SURFACE ( 'NONE', #198, 16.50000000000000000 ) ;
#448 = CARTESIAN_POINT ( 'NONE',  ( 6.249999999999939604, 0.000000000000000000, 12.42531754730552329 ) ) ;
#449 = EDGE_CURVE ( 'NONE', #505, #410, #28, .T. ) ;
#450 = AXIS2_PLACEMENT_3D ( 'NONE', #153, #85, #299 ) ;
#451 = ORIENTED_EDGE ( 'NONE', *, *, #978, .F. ) ;
#452 = DIRECTION ( 'NONE',  ( 0.000000000000000000, 0.000000000000000000, 1.000000000000000000 ) ) ;
#453 = AXIS2_PLACEMENT_3D ( 'NONE', #493, #354, #195 ) ;
#454 = DIRECTION ( 'NONE',  ( 0.000000000000000000, 1.000000000000000000, 0.000000000000000000 ) ) ;
#455 = VERTEX_POINT ( 'NONE', #687 ) ;
#456 = DIRECTION ( 'NONE',  ( 0.000000000000000000, 1.000000000000000000, -0.000000000000000000 ) ) ;
#457 = ORIENTED_EDGE ( 'NONE', *, *, #172, .T. ) ;
#458 = DIRECTION ( 'NONE',  ( 0.000000000000000000, 1.000000000000000000, 0.000000000000000000 ) ) ;
#459 = EDGE_CURVE ( 'NONE', #954, #505, #305, .T. ) ;
#460 = VERTEX_POINT ( 'NONE', #609 ) ;
#461 = VECTOR ( 'NONE', #842, 1000.000000000000000 ) ;
#462 = DIRECTION ( 'NONE',  ( -0.000000000000000000, 1.000000000000000000, -0.000000000000000000 ) ) ;
#463 = DIRECTION ( 'NONE',  ( -0.000000000000000000, 1.000000000000000000, -0.000000000000000000 ) ) ;
#464 = VECTOR ( 'NONE', #374, 1000.000000000000000 ) ;
#465 = EDGE_CURVE ( 'NONE', #219, #583, #402, .T. ) ;
#466 = VECTOR ( 'NONE', #430, 1000.000000000000000 ) ;
#467 = VERTEX_POINT ( 'NONE', #319 ) ;
#468 = DIRECTION ( 'NONE',  ( -0.000000000000000000, -1.000000000000000000, -0.000000000000000000 ) ) ;
#469 = ORIENTED_EDGE ( 'NONE', *, *, #396, .F. ) ;
#470 = CARTESIAN_POINT ( 'NONE',  ( 12.50000000000000355, 0.000000000000000000, 1.600000000000041611 ) ) ;
#471 = PRODUCT_DEFINITION_FORMATION_WITH_SPECIFIED_SOURCE ( 'ä»', '', #243, .NOT_KNOWN. ) ;
#472 = ORIENTED_EDGE ( 'NONE', *, *, #569, .T. ) ;
#473 = VECTOR ( 'NONE', #407, 1000.000000000000000 ) ;
#474 = EDGE_CURVE ( 'NONE', #234, #954, #594, .T. ) ;
#475 = FACE_OUTER_BOUND ( 'NONE', #538, .T. ) ;
#476 = CARTESIAN_POINT ( 'NONE',  ( 100.0000000000000000, 30.00000000000000000, 0.000000000000000000 ) ) ;
#477 = CARTESIAN_POINT ( 'NONE',  ( 8.833459118601924231, 8.000000000000000000, 7.200000000000183142 ) ) ;
#478 = PLANE ( 'NONE',  #673 ) ;
#479 = EDGE_CURVE ( 'NONE', #916, #23, #987, .T. ) ;
#480 = CARTESIAN_POINT ( 'NONE',  ( 0.9891098011789094535, 8.000000000000000000, 16.47032670596463433 ) ) ;
#481 = DIRECTION ( 'NONE',  ( -0.000000000000000000, -1.000000000000000000, -0.000000000000000000 ) ) ;
#482 = AXIS2_PLACEMENT_3D ( 'NONE', #804, #6, #311 ) ;
#483 = FACE_OUTER_BOUND ( 'NONE', #224, .T. ) ;
#484 = CARTESIAN_POINT ( 'NONE',  ( 8.833459118601924231, 8.000000000000000000, 2.999999999999063416 ) ) ;
#485 = CARTESIAN_POINT ( 'NONE',  ( -6.250000000000094147, 0.000000000000000000, 10.82531754730543838 ) ) ;
#486 =( GEOMETRIC_REPRESENTATION_CONTEXT ( 3 ) GLOBAL_UNCERTAINTY_ASSIGNED_CONTEXT ( ( #920 ) ) GLOBAL_UNIT_ASSIGNED_CONTEXT ( ( #360, #433, #422 ) ) REPRESENTATION_CONTEXT ( 'NONE', 'WORKASPACE' ) );
#487 = EDGE_LOOP ( 'NONE', ( #50, #681, #492, #469 ) ) ;
#488 = SURFACE_STYLE_USAGE ( .BOTH. , #961 ) ;
#489 = LINE ( 'NONE', #558, #473 ) ;
#490 = DIRECTION ( 'NONE',  ( 0.000000000000000000, 0.000000000000000000, 1.000000000000000000 ) ) ;
#491 = ORIENTED_EDGE ( 'NONE', *, *, #612, .F. ) ;
#492 = ORIENTED_EDGE ( 'NONE', *, *, #576, .T. ) ;
#493 = CARTESIAN_POINT ( 'NONE',  ( 0.000000000000000000, 0.000000000000000000, 0.000000000000000000 ) ) ;
#494 = DIRECTION ( 'NONE',  ( 0.000000000000000000, 0.000000000000000000, 1.000000000000000000 ) ) ;
#495 = CIRCLE ( 'NONE', #57, 2.100000000000816325 ) ;
#496 = CARTESIAN_POINT ( 'NONE',  ( 0.4945549005894696593, 0.000000000000000000, -16.48516335298231894 ) ) ;
#497 = AXIS2_PLACEMENT_3D ( 'NONE', #600, #462, #289 ) ;
#498 = EDGE_CURVE ( 'NONE', #23, #916, #814, .T. ) ;
#499 = VERTEX_POINT ( 'NONE', #480 ) ;
#500 = VECTOR ( 'NONE', #165, 1000.000000000000000 ) ;
#501 = VERTEX_POINT ( 'NONE', #262 ) ;
#502 = CARTESIAN_POINT ( 'NONE',  ( -12.50000000000000355, 0.000000000000000000, -1.600000000000127987 ) ) ;
#503 = AXIS2_PLACEMENT_3D ( 'NONE', #128, #504, #207 ) ;
#504 = DIRECTION ( 'NONE',  ( 0.000000000000000000, 1.000000000000000000, -0.000000000000000000 ) ) ;
#505 = VERTEX_POINT ( 'NONE', #256 ) ;
#506 = CARTESIAN_POINT ( 'NONE',  ( -8.833459118600627491, 8.000000000000000000, 5.100000000000373568 ) ) ;
#507 = AXIS2_PLACEMENT_3D ( 'NONE', #210, #971, #730 ) ;
#508 = DIRECTION ( 'NONE',  ( -0.000000000000000000, 1.000000000000000000, -0.000000000000000000 ) ) ;
#509 = ORIENTED_EDGE ( 'NONE', *, *, #990, .F. ) ;
#510 = ADVANCED_FACE ( 'NONE', ( #625 ), #638, .T. ) ;
#511 = FACE_BOUND ( 'NONE', #686, .T. ) ;
#512 = DIRECTION ( 'NONE',  ( 0.000000000000000000, 0.000000000000000000, 1.000000000000000000 ) ) ;
#513 = ORIENTED_EDGE ( 'NONE', *, *, #459, .T. ) ;
#514 = CARTESIAN_POINT ( 'NONE',  ( 0.000000000000000000, 8.000000000000000000, 0.000000000000000000 ) ) ;
#515 = CIRCLE ( 'NONE', #257, 1.600000000000000089 ) ;
#516 = DIRECTION ( 'NONE',  ( -0.000000000000000000, 1.000000000000000000, -0.000000000000000000 ) ) ;
#517 = ORIENTED_EDGE ( 'NONE', *, *, #968, .T. ) ;
#518 = CARTESIAN_POINT ( 'NONE',  ( -8.833459118600627491, 0.000000000000000000, 5.100000000000373568 ) ) ;
#519 = CARTESIAN_POINT ( 'NONE',  ( -8.833459118600627491, 0.000000000000000000, 2.999999999999556355 ) ) ;
#520 = EDGE_CURVE ( 'NONE', #660, #1004, #238, .T. ) ;
#521 = ORIENTED_EDGE ( 'NONE', *, *, #718, .F. ) ;
#522 = EDGE_CURVE ( 'NONE', #109, #965, #952, .T. ) ;
#523 = DIRECTION ( 'NONE',  ( 0.000000000000000000, 0.000000000000000000, 1.000000000000000000 ) ) ;
#524 = FACE_BOUND ( 'NONE', #624, .T. ) ;
#525 = AXIS2_PLACEMENT_3D ( 'NONE', #694, #226, #933 ) ;
#526 = EDGE_CURVE ( 'NONE', #186, #209, #975, .T. ) ;
#527 = ORIENTED_EDGE ( 'NONE', *, *, #372, .T. ) ;
#528 = LINE ( 'NONE', #604, #461 ) ;
#529 = DIRECTION ( 'NONE',  ( 0.9995503035223666233, 0.000000000000000000, 0.02998650910567101507 ) ) ;
#530 = VECTOR ( 'NONE', #516, 1000.000000000000000 ) ;
#531 = ORIENTED_EDGE ( 'NONE', *, *, #479, .F. ) ;
#532 = DIRECTION ( 'NONE',  ( -0.000000000000000000, -1.000000000000000000, -0.000000000000000000 ) ) ;
#533 = ORIENTED_EDGE ( 'NONE', *, *, #606, .T. ) ;
#534 = DIRECTION ( 'NONE',  ( 0.000000000000000000, 0.000000000000000000, 1.000000000000000000 ) ) ;
#535 = CIRCLE ( 'NONE', #503, 13.50000000000000000 ) ;
#536 = ORIENTED_EDGE ( 'NONE', *, *, #108, .T. ) ;
#537 = CIRCLE ( 'NONE', #667, 2.100000000000559641 ) ;
#538 = EDGE_LOOP ( 'NONE', ( #738, #527, #784, #405 ) ) ;
#539 = DIRECTION ( 'NONE',  ( 0.000000000000000000, 1.000000000000000000, 0.000000000000000000 ) ) ;
#540 = EDGE_CURVE ( 'NONE', #74, #219, #786, .T. ) ;
#541 = DIRECTION ( 'NONE',  ( -0.000000000000000000, 1.000000000000000000, -0.000000000000000000 ) ) ;
#542 = ORIENTED_EDGE ( 'NONE', *, *, #800, .T. ) ;
#543 = AXIS2_PLACEMENT_3D ( 'NONE', #922, #769, #380 ) ;
#544 = DIRECTION ( 'NONE',  ( 0.000000000000000000, 0.000000000000000000, 1.000000000000000000 ) ) ;
#545 = EDGE_LOOP ( 'NONE', ( #521, #353 ) ) ;
#546 = FACE_BOUND ( 'NONE', #141, .T. ) ;
#547 = AXIS2_PLACEMENT_3D ( 'NONE', #397, #100, #12 ) ;
#548 = EDGE_LOOP ( 'NONE', ( #346, #77, #960, #390, #560, #180 ) ) ;
#549 = ORIENTED_EDGE ( 'NONE', *, *, #437, .F. ) ;
#550 = DIRECTION ( 'NONE',  ( 0.000000000000000000, 1.000000000000000000, 0.000000000000000000 ) ) ;
#551 = CARTESIAN_POINT ( 'NONE',  ( -6.250000000000016875, 8.000000000000000000, -12.42531754730547711 ) ) ;
#552 = EDGE_LOOP ( 'NONE', ( #254, #964, #216, #695, #817, #848 ) ) ;
#553 = VECTOR ( 'NONE', #909, 1000.000000000000000 ) ;
#554 = CARTESIAN_POINT ( 'NONE',  ( 0.000000000000000000, 0.000000000000000000, -10.19999999999999929 ) ) ;
#555 = CARTESIAN_POINT ( 'NONE',  ( -6.250000000000016875, 8.000000000000000000, -9.225317547305476040 ) ) ;
#556 = ORIENTED_EDGE ( 'NONE', *, *, #1000, .T. ) ;
#557 = CARTESIAN_POINT ( 'NONE',  ( 6.250000000000010658, 0.000000000000000000, -12.42531754730547711 ) ) ;
#558 = CARTESIAN_POINT ( 'NONE',  ( 100.0000000000000000, 8.000000000000000000, 13.50000000000000000 ) ) ;
#559 = FACE_OUTER_BOUND ( 'NONE', #427, .T. ) ;
#560 = ORIENTED_EDGE ( 'NONE', *, *, #590, .F. ) ;
#561 = VECTOR ( 'NONE', #663, 1000.000000000000114 ) ;
#562 = DIRECTION ( 'NONE',  ( 0.000000000000000000, 1.000000000000000000, 0.000000000000000000 ) ) ;
#563 = EDGE_CURVE ( 'NONE', #992, #607, #633, .T. ) ;
#564 = DIRECTION ( 'NONE',  ( 0.000000000000000000, 0.000000000000000000, 1.000000000000000000 ) ) ;
#565 = DIRECTION ( 'NONE',  ( -0.000000000000000000, 1.000000000000000000, -0.000000000000000000 ) ) ;
#566 = VERTEX_POINT ( 'NONE', #484 ) ;
#567 = ORIENTED_EDGE ( 'NONE', *, *, #644, .T. ) ;
#568 = DIRECTION ( 'NONE',  ( 0.000000000000000000, 0.000000000000000000, 1.000000000000000000 ) ) ;
#569 = EDGE_CURVE ( 'NONE', #288, #260, #339, .T. ) ;
#570 = DIRECTION ( 'NONE',  ( -0.000000000000000000, 1.000000000000000000, -0.000000000000000000 ) ) ;
#571 = VERTEX_POINT ( 'NONE', #169 ) ;
#572 = ORIENTED_EDGE ( 'NONE', *, *, #45, .F. ) ;
#573 = FACE_BOUND ( 'NONE', #25, .T. ) ;
#574 = CIRCLE ( 'NONE', #363, 1.600000000000000533 ) ;
#575 = DIRECTION ( 'NONE',  ( 0.000000000000000000, 1.000000000000000000, -0.000000000000000000 ) ) ;
#576 = EDGE_CURVE ( 'NONE', #126, #32, #732, .T. ) ;
#577 = VERTEX_POINT ( 'NONE', #635 ) ;
#578 = CARTESIAN_POINT ( 'NONE',  ( 8.833459118601924231, 0.000000000000000000, 2.999999999999063416 ) ) ;
#579 = FACE_BOUND ( 'NONE', #674, .T. ) ;
#580 = AXIS2_PLACEMENT_3D ( 'NONE', #3, #382, #529 ) ;
#581 = LINE ( 'NONE', #368, #530 ) ;
#582 = EDGE_CURVE ( 'NONE', #699, #886, #489, .T. ) ;
#583 = VERTEX_POINT ( 'NONE', #716 ) ;
#584 = DIRECTION ( 'NONE',  ( -0.000000000000000000, 1.000000000000000000, -0.000000000000000000 ) ) ;
#585 = DIRECTION ( 'NONE',  ( 0.000000000000000000, 0.000000000000000000, 1.000000000000000000 ) ) ;
#586 = CARTESIAN_POINT ( 'NONE',  ( 100.0000000000000000, 30.00000000000000000, -9.999999999999994671 ) ) ;
#587 = ORIENTED_EDGE ( 'NONE', *, *, #465, .T. ) ;
#588 = CARTESIAN_POINT ( 'NONE',  ( 0.4945549005894696593, 0.000000000000000000, 16.48516335298231894 ) ) ;
#589 = DIRECTION ( 'NONE',  ( 0.000000000000000000, -0.000000000000000000, 1.000000000000000000 ) ) ;
#590 = EDGE_CURVE ( 'NONE', #455, #882, #993, .T. ) ;
#591 = CARTESIAN_POINT ( 'NONE',  ( 6.250000000000010658, 0.000000000000000000, -10.82531754730547746 ) ) ;
#592 = MECHANICAL_DESIGN_GEOMETRIC_PRESENTATION_REPRESENTATION (  '', ( #757 ), #980 ) ;
#593 = ORIENTED_EDGE ( 'NONE', *, *, #143, .T. ) ;
#594 = CIRCLE ( 'NONE', #113, 1.599999999999998979 ) ;
#595 = DIRECTION ( 'NONE',  ( 0.000000000000000000, 1.000000000000000000, 0.000000000000000000 ) ) ;
#596 = ADVANCED_FACE ( 'NONE', ( #177 ), #805, .F. ) ;
#597 = CIRCLE ( 'NONE', #435, 9.999999999999994671 ) ;
#598 = DIRECTION ( 'NONE',  ( 0.000000000000000000, 0.000000000000000000, 1.000000000000000000 ) ) ;
#599 = ORIENTED_EDGE ( 'NONE', *, *, #779, .F. ) ;
#600 = CARTESIAN_POINT ( 'NONE',  ( -12.50000000000000355, 0.000000000000000000, -1.275021754842953214E-13 ) ) ;
#601 = DIRECTION ( 'NONE',  ( -0.000000000000000000, 1.000000000000000000, -0.000000000000000000 ) ) ;
#602 = ADVANCED_FACE ( 'NONE', ( #332 ), #941, .F. ) ;
#603 = ORIENTED_EDGE ( 'NONE', *, *, #479, .T. ) ;
#604 = CARTESIAN_POINT ( 'NONE',  ( 100.0000000000000000, 30.00000000000000000, 9.999999999999994671 ) ) ;
#605 = CARTESIAN_POINT ( 'NONE',  ( 100.0000000000000000, 8.000000000000000000, 0.000000000000000000 ) ) ;
#606 = EDGE_CURVE ( 'NONE', #607, #130, #962, .T. ) ;
#607 = VERTEX_POINT ( 'NONE', #286 ) ;
#608 = LINE ( 'NONE', #760, #284 ) ;
#609 = CARTESIAN_POINT ( 'NONE',  ( 100.0000000000000000, 8.000000000000000000, 9.999999999999994671 ) ) ;
#610 = AXIS2_PLACEMENT_3D ( 'NONE', #704, #246, #168 ) ;
#611 = ORIENTED_EDGE ( 'NONE', *, *, #324, .F. ) ;
#612 = EDGE_CURVE ( 'NONE', #501, #331, #120, .T. ) ;
#613 = CYLINDRICAL_SURFACE ( 'NONE', #110, 2.100000000000559641 ) ;
#614 = ORIENTED_EDGE ( 'NONE', *, *, #590, .T. ) ;
#615 = FACE_BOUND ( 'NONE', #55, .T. ) ;
#616 = ORIENTED_EDGE ( 'NONE', *, *, #498, .T. ) ;
#617 = DIRECTION ( 'NONE',  ( -0.000000000000000000, 1.000000000000000000, -0.000000000000000000 ) ) ;
#618 = VERTEX_POINT ( 'NONE', #338 ) ;
#619 = FACE_OUTER_BOUND ( 'NONE', #719, .T. ) ;
#620 = EDGE_LOOP ( 'NONE', ( #979, #336, #306, #231 ) ) ;
#621 = CIRCLE ( 'NONE', #92, 1.599999999999998979 ) ;
#622 = AXIS2_PLACEMENT_3D ( 'NONE', #303, #539, #544 ) ;
#623 = CARTESIAN_POINT ( 'NONE',  ( 100.0000000000000000, 8.000000000000000000, 0.000000000000000000 ) ) ;
#624 = EDGE_LOOP ( 'NONE', ( #387, #780 ) ) ;
#625 = FACE_OUTER_BOUND ( 'NONE', #297, .T. ) ;
#626 = EDGE_CURVE ( 'NONE', #728, #583, #683, .T. ) ;
#627 = AXIS2_PLACEMENT_3D ( 'NONE', #605, #915, #217 ) ;
#628 = VECTOR ( 'NONE', #146, 1000.000000000000000 ) ;
#629 = SURFACE_STYLE_FILL_AREA ( #157 ) ;
#630 = CARTESIAN_POINT ( 'NONE',  ( -6.250000000000016875, 0.000000000000000000, -10.82531754730547568 ) ) ;
#631 = CARTESIAN_POINT ( 'NONE',  ( -8.833459118600627491, 0.000000000000000000, 5.100000000000373568 ) ) ;
#632 = ORIENTED_EDGE ( 'NONE', *, *, #324, .T. ) ;
#633 = CIRCLE ( 'NONE', #213, 2.100000000000559641 ) ;
#634 = DIRECTION ( 'NONE',  ( 0.000000000000000000, 1.000000000000000000, 0.000000000000000000 ) ) ;
#635 = CARTESIAN_POINT ( 'NONE',  ( 2.020667218593133100E-15, 8.000000000000000000, 16.50000000000000000 ) ) ;
#636 = DIRECTION ( 'NONE',  ( 0.000000000000000000, 0.000000000000000000, 1.000000000000000000 ) ) ;
#637 = ORIENTED_EDGE ( 'NONE', *, *, #779, .T. ) ;
#638 = CYLINDRICAL_SURFACE ( 'NONE', #547, 9.999999999999994671 ) ;
#639 = CARTESIAN_POINT ( 'NONE',  ( -6.250000000000094147, 8.000000000000000000, 9.225317547305436960 ) ) ;
#640 = ORIENTED_EDGE ( 'NONE', *, *, #225, .F. ) ;
#641 = AXIS2_PLACEMENT_3D ( 'NONE', #485, #101, #258 ) ;
#642 = ORIENTED_EDGE ( 'NONE', *, *, #626, .T. ) ;
#643 = CARTESIAN_POINT ( 'NONE',  ( 6.249999999999939604, 0.000000000000000000, 12.42531754730552329 ) ) ;
#644 = EDGE_CURVE ( 'NONE', #965, #455, #820, .T. ) ;
#645 = DIRECTION ( 'NONE',  ( 0.000000000000000000, 0.000000000000000000, 1.000000000000000000 ) ) ;
#646 = CARTESIAN_POINT ( 'NONE',  ( 100.0000000000000000, 30.00000000000000000, 0.000000000000000000 ) ) ;
#647 = EDGE_LOOP ( 'NONE', ( #293, #743 ) ) ;
#648 = AXIS2_PLACEMENT_3D ( 'NONE', #554, #946, #706 ) ;
#649 = ORIENTED_EDGE ( 'NONE', *, *, #280, .F. ) ;
#650 = DIRECTION ( 'NONE',  ( 0.000000000000000000, 0.000000000000000000, 1.000000000000000000 ) ) ;
#651 = ADVANCED_FACE ( 'NONE', ( #196 ), #281, .F. ) ;
#652 = CYLINDRICAL_SURFACE ( 'NONE', #806, 16.50000000000000000 ) ;
#653 = EDGE_LOOP ( 'NONE', ( #317, #393 ) ) ;
#654 = CARTESIAN_POINT ( 'NONE',  ( 6.249999999999939604, 0.000000000000000000, 9.225317547305522226 ) ) ;
#655 = CARTESIAN_POINT ( 'NONE',  ( 0.9891098011789094535, 8.000000000000000000, -16.47032670596463433 ) ) ;
#656 = VECTOR ( 'NONE', #617, 1000.000000000000000 ) ;
#657 = CARTESIAN_POINT ( 'NONE',  ( 12.50000000000000355, 0.000000000000000000, 4.163336342344337027E-14 ) ) ;
#658 = EDGE_CURVE ( 'NONE', #689, #944, #574, .T. ) ;
#659 = CIRCLE ( 'NONE', #349, 1.600000000000000755 ) ;
#660 = VERTEX_POINT ( 'NONE', #35 ) ;
#661 = CARTESIAN_POINT ( 'NONE',  ( -6.250000000000016875, 0.000000000000000000, -12.42531754730547711 ) ) ;
#662 = CARTESIAN_POINT ( 'NONE',  ( 0.000000000000000000, 8.000000000000000000, -10.19999999999999929 ) ) ;
#663 = DIRECTION ( 'NONE',  ( -0.9995503035223666233, 0.000000000000000000, 0.02998650910567101507 ) ) ;
#664 = ADVANCED_BREP_SHAPE_REPRESENTATION ( '\X2\7535673a529b81c2\X0\1', ( #879, #453 ), #486 ) ;
#665 = ORIENTED_EDGE ( 'NONE', *, *, #852, .F. ) ;
#666 = DIRECTION ( 'NONE',  ( 0.000000000000000000, 1.000000000000000000, 0.000000000000000000 ) ) ;
#667 = AXIS2_PLACEMENT_3D ( 'NONE', #162, #955, #782 ) ;
#668 = DIRECTION ( 'NONE',  ( 0.000000000000000000, 1.000000000000000000, 0.000000000000000000 ) ) ;
#669 = ORIENTED_EDGE ( 'NONE', *, *, #225, .T. ) ;
#670 = ADVANCED_FACE ( 'NONE', ( #271 ), #984, .F. ) ;
#671 = CARTESIAN_POINT ( 'NONE',  ( 100.0000000000000000, 8.000000000000000000, 13.50000000000000000 ) ) ;
#672 = DIRECTION ( 'NONE',  ( 0.000000000000000000, 0.000000000000000000, 1.000000000000000000 ) ) ;
#673 = AXIS2_PLACEMENT_3D ( 'NONE', #389, #866, #411 ) ;
#674 = EDGE_LOOP ( 'NONE', ( #970, #1001 ) ) ;
#675 = VECTOR ( 'NONE', #790, 1000.000000000000000 ) ;
#676 = EDGE_CURVE ( 'NONE', #583, #728, #395, .T. ) ;
#677 = DIRECTION ( 'NONE',  ( -0.000000000000000000, 1.000000000000000000, -0.000000000000000000 ) ) ;
#678 = CARTESIAN_POINT ( 'NONE',  ( 6.250000000000010658, 0.000000000000000000, -9.225317547305479593 ) ) ;
#679 = ORIENTED_EDGE ( 'NONE', *, *, #437, .T. ) ;
#680 = CARTESIAN_POINT ( 'NONE',  ( -6.250000000000094147, 0.000000000000000000, 10.82531754730543838 ) ) ;
#681 = ORIENTED_EDGE ( 'NONE', *, *, #761, .T. ) ;
#682 = FACE_BOUND ( 'NONE', #545, .T. ) ;
#683 = CIRCLE ( 'NONE', #247, 2.099999999999999645 ) ;
#684 = ORIENTED_EDGE ( 'NONE', *, *, #388, .T. ) ;
#685 = DIRECTION ( 'NONE',  ( 0.000000000000000000, 1.000000000000000000, -0.000000000000000000 ) ) ;
#686 = EDGE_LOOP ( 'NONE', ( #384, #669 ) ) ;
#687 = CARTESIAN_POINT ( 'NONE',  ( 2.020667218593133100E-15, 0.000000000000000000, 16.50000000000000000 ) ) ;
#688 = ADVANCED_FACE ( 'NONE', ( #740, #189, #39, #573, #52, #343, #511, #818, #579, #890 ), #361, .F. ) ;
#689 = VERTEX_POINT ( 'NONE', #502 ) ;
#690 = FACE_OUTER_BOUND ( 'NONE', #250, .T. ) ;
#691 = ORIENTED_EDGE ( 'NONE', *, *, #930, .F. ) ;
#692 = LINE ( 'NONE', #448, #190 ) ;
#693 = VERTEX_POINT ( 'NONE', #118 ) ;
#694 = CARTESIAN_POINT ( 'NONE',  ( -6.250000000000094147, 0.000000000000000000, 10.82531754730543838 ) ) ;
#695 = ORIENTED_EDGE ( 'NONE', *, *, #143, .F. ) ;
#696 = CARTESIAN_POINT ( 'NONE',  ( 12.50000000000000355, 0.000000000000000000, -1.599999999999958344 ) ) ;
#697 = ORIENTED_EDGE ( 'NONE', *, *, #150, .T. ) ;
#698 = EDGE_CURVE ( 'NONE', #566, #130, #9, .T. ) ;
#699 = VERTEX_POINT ( 'NONE', #671 ) ;
#700 = DIRECTION ( 'NONE',  ( 0.000000000000000000, 1.000000000000000000, 0.000000000000000000 ) ) ;
#701 = PRODUCT_DEFINITION_SHAPE ( 'NONE', 'NONE',  #310 ) ;
#702 = VERTEX_POINT ( 'NONE', #655 ) ;
#703 = VECTOR ( 'NONE', #850, 1000.000000000000000 ) ;
#704 = CARTESIAN_POINT ( 'NONE',  ( 0.000000000000000000, 0.000000000000000000, -10.19999999999999929 ) ) ;
#705 = EDGE_CURVE ( 'NONE', #260, #288, #495, .T. ) ;
#706 = DIRECTION ( 'NONE',  ( 0.000000000000000000, 0.000000000000000000, 1.000000000000000000 ) ) ;
#707 = DIRECTION ( 'NONE',  ( 0.000000000000000000, 0.000000000000000000, -1.000000000000000000 ) ) ;
#708 = ORIENTED_EDGE ( 'NONE', *, *, #903, .T. ) ;
#709 = CIRCLE ( 'NONE', #797, 2.100000000000559641 ) ;
#710 = DIRECTION ( 'NONE',  ( -0.000000000000000000, 1.000000000000000000, -0.000000000000000000 ) ) ;
#711 = DIRECTION ( 'NONE',  ( 0.000000000000000000, 0.000000000000000000, 1.000000000000000000 ) ) ;
#712 = CYLINDRICAL_SURFACE ( 'NONE', #875, 1.600000000000000755 ) ;
#713 = EDGE_CURVE ( 'NONE', #702, #109, #810, .T. ) ;
#714 = DIRECTION ( 'NONE',  ( 0.000000000000000000, 0.000000000000000000, 1.000000000000000000 ) ) ;
#715 = EDGE_CURVE ( 'NONE', #618, #802, #185, .T. ) ;
#716 = CARTESIAN_POINT ( 'NONE',  ( 2.571758278209441957E-16, 8.000000000000000000, -12.29999999999999893 ) ) ;
#717 = FACE_OUTER_BOUND ( 'NONE', #720, .T. ) ;
#718 = EDGE_CURVE ( 'NONE', #410, #505, #621, .T. ) ;
#719 = EDGE_LOOP ( 'NONE', ( #145, #809, #274, #199 ) ) ;
#720 = EDGE_LOOP ( 'NONE', ( #278, #137, #432, #265 ) ) ;
#721 = CARTESIAN_POINT ( 'NONE',  ( 100.0000000000000142, 8.000000000000000000, -13.50000000000000000 ) ) ;
#722 = CIRCLE ( 'NONE', #622, 1.600000000000000755 ) ;
#723 = DIRECTION ( 'NONE',  ( 0.000000000000000000, 0.000000000000000000, 1.000000000000000000 ) ) ;
#724 = CARTESIAN_POINT ( 'NONE',  ( 6.249999999999939604, 0.000000000000000000, 9.225317547305522226 ) ) ;
#725 = AXIS2_PLACEMENT_3D ( 'NONE', #412, #173, #956 ) ;
#726 = ORIENTED_EDGE ( 'NONE', *, *, #563, .F. ) ;
#727 = CIRCLE ( 'NONE', #641, 1.600000000000000755 ) ;
#728 = VERTEX_POINT ( 'NONE', #904 ) ;
#729 = DIRECTION ( 'NONE',  ( 0.9995503035223666233, 0.000000000000000000, -0.02998650910567101507 ) ) ;
#730 = DIRECTION ( 'NONE',  ( 0.000000000000000000, 0.000000000000000000, 1.000000000000000000 ) ) ;
#731 = DIRECTION ( 'NONE',  ( -0.000000000000000000, -1.000000000000000000, -0.000000000000000000 ) ) ;
#732 = CIRCLE ( 'NONE', #912, 1.600000000000000089 ) ;
#733 = ORIENTED_EDGE ( 'NONE', *, *, #218, .T. ) ;
#734 = APPLICATION_PROTOCOL_DEFINITION ( 'draft international standard', 'automotive_design', 1998, #431 ) ;
#735 = ADVANCED_FACE ( 'NONE', ( #204 ), #442, .T. ) ;
#736 = CARTESIAN_POINT ( 'NONE',  ( 8.833459118601924231, 8.000000000000000000, 5.099999999999623057 ) ) ;
#737 = LINE ( 'NONE', #135, #829 ) ;
#738 = ORIENTED_EDGE ( 'NONE', *, *, #658, .F. ) ;
#739 = APPLICATION_PROTOCOL_DEFINITION ( 'draft international standard', 'automotive_design', 1998, #87 ) ;
#740 = FACE_BOUND ( 'NONE', #103, .T. ) ;
#741 = FACE_OUTER_BOUND ( 'NONE', #887, .T. ) ;
#742 = CIRCLE ( 'NONE', #482, 2.100000000000816325 ) ;
#743 = ORIENTED_EDGE ( 'NONE', *, *, #161, .T. ) ;
#744 = FACE_OUTER_BOUND ( 'NONE', #998, .T. ) ;
#745 = AXIS2_PLACEMENT_3D ( 'NONE', #440, #191, #672 ) ;
#746 = CARTESIAN_POINT ( 'NONE',  ( 6.250000000000010658, 8.000000000000000000, -10.82531754730547746 ) ) ;
#747 = CARTESIAN_POINT ( 'NONE',  ( -12.50000000000000355, 0.000000000000000000, -1.275021754842953214E-13 ) ) ;
#748 = EDGE_CURVE ( 'NONE', #1006, #82, #755, .T. ) ;
#749 = ORIENTED_EDGE ( 'NONE', *, *, #676, .F. ) ;
#750 = ADVANCED_FACE ( 'NONE', ( #78 ), #142, .F. ) ;
#751 = DIRECTION ( 'NONE',  ( 0.000000000000000000, 1.000000000000000000, 0.000000000000000000 ) ) ;
#752 = CARTESIAN_POINT ( 'NONE',  ( 6.249999999999939604, 0.000000000000000000, 10.82531754730552365 ) ) ;
#753 = ADVANCED_FACE ( 'NONE', ( #1 ), #447, .T. ) ;
#754 = EDGE_LOOP ( 'NONE', ( #935, #665 ) ) ;
#755 = LINE ( 'NONE', #838, #703 ) ;
#756 = DIRECTION ( 'NONE',  ( 0.000000000000000000, 0.000000000000000000, 1.000000000000000000 ) ) ;
#757 = STYLED_ITEM ( 'NONE', ( #105 ), #879 ) ;
#758 = ORIENTED_EDGE ( 'NONE', *, *, #396, .T. ) ;
#759 = AXIS2_PLACEMENT_3D ( 'NONE', #843, #454, #71 ) ;
#760 = CARTESIAN_POINT ( 'NONE',  ( -6.250000000000094147, 0.000000000000000000, 12.42531754730543803 ) ) ;
#761 = EDGE_CURVE ( 'NONE', #331, #126, #307, .T. ) ;
#762 = LINE ( 'NONE', #67, #464 ) ;
#763 = AXIS2_PLACEMENT_3D ( 'NONE', #977, #362, #839 ) ;
#764 = ORIENTED_EDGE ( 'NONE', *, *, #372, .F. ) ;
#765 = CARTESIAN_POINT ( 'NONE',  ( -6.250000000000094147, 8.000000000000000000, 12.42531754730543803 ) ) ;
#766 = EDGE_CURVE ( 'NONE', #833, #840, #608, .T. ) ;
#767 = CARTESIAN_POINT ( 'NONE',  ( 0.000000000000000000, 0.000000000000000000, -8.099999999999999645 ) ) ;
#768 = EDGE_LOOP ( 'NONE', ( #764, #821, #159, #370 ) ) ;
#769 = DIRECTION ( 'NONE',  ( 0.000000000000000000, 1.000000000000000000, 0.000000000000000000 ) ) ;
#770 = ORIENTED_EDGE ( 'NONE', *, *, #698, .T. ) ;
#771 = CARTESIAN_POINT ( 'NONE',  ( -6.250000000000016875, 0.000000000000000000, -12.42531754730547711 ) ) ;
#772 = CIRCLE ( 'NONE', #811, 1.600000000000000755 ) ;
#773 = ORIENTED_EDGE ( 'NONE', *, *, #676, .T. ) ;
#774 = CARTESIAN_POINT ( 'NONE',  ( 2.020667218593133100E-15, 8.000000000000000000, 16.50000000000000000 ) ) ;
#775 = CIRCLE ( 'NONE', #939, 16.50000000000000000 ) ;
#776 = ORIENTED_EDGE ( 'NONE', *, *, #1007, .F. ) ;
#777 = DIRECTION ( 'NONE',  ( -0.000000000000000000, 1.000000000000000000, -0.000000000000000000 ) ) ;
#778 = AXIS2_PLACEMENT_3D ( 'NONE', #404, #957, #490 ) ;
#779 = EDGE_CURVE ( 'NONE', #364, #693, #722, .T. ) ;
#780 = ORIENTED_EDGE ( 'NONE', *, *, #705, .F. ) ;
#781 = UNCERTAINTY_MEASURE_WITH_UNIT (LENGTH_MEASURE( 1.000000000000000082E-05 ), #20, 'distance_accuracy_value', 'NONE');
#782 = DIRECTION ( 'NONE',  ( 0.000000000000000000, 0.000000000000000000, 1.000000000000000000 ) ) ;
#783 = EDGE_CURVE ( 'NONE', #460, #467, #905, .T. ) ;
#784 = ORIENTED_EDGE ( 'NONE', *, *, #715, .T. ) ;
#785 = LINE ( 'NONE', #771, #628 ) ;
#786 = CIRCLE ( 'NONE', #648, 2.099999999999999645 ) ;
#787 = VERTEX_POINT ( 'NONE', #215 ) ;
#788 = EDGE_CURVE ( 'NONE', #577, #455, #64, .T. ) ;
#789 = DIRECTION ( 'NONE',  ( 0.000000000000000000, 1.000000000000000000, 0.000000000000000000 ) ) ;
#790 = DIRECTION ( 'NONE',  ( -0.000000000000000000, -1.000000000000000000, -0.000000000000000000 ) ) ;
#791 = LINE ( 'NONE', #49, #466 ) ;
#792 = AXIS2_PLACEMENT_3D ( 'NONE', #131, #981, #127 ) ;
#793 = ADVANCED_FACE ( 'NONE', ( #845 ), #917, .F. ) ;
#794 = DIRECTION ( 'NONE',  ( 0.000000000000000000, 0.000000000000000000, 1.000000000000000000 ) ) ;
#795 = CIRCLE ( 'NONE', #921, 1.600000000000000755 ) ;
#796 = CARTESIAN_POINT ( 'NONE',  ( 0.9891098011789096756, 8.000000000000000000, -16.47032670596463788 ) ) ;
#797 = AXIS2_PLACEMENT_3D ( 'NONE', #443, #436, #132 ) ;
#798 = FACE_OUTER_BOUND ( 'NONE', #950, .T. ) ;
#799 = CARTESIAN_POINT ( 'NONE',  ( 0.000000000000000000, 8.000000000000000000, -16.50000000000000000 ) ) ;
#800 = EDGE_CURVE ( 'NONE', #1004, #660, #772, .T. ) ;
#801 = DIRECTION ( 'NONE',  ( -0.000000000000000000, 1.000000000000000000, -0.000000000000000000 ) ) ;
#802 = VERTEX_POINT ( 'NONE', #70 ) ;
#803 = ORIENTED_EDGE ( 'NONE', *, *, #582, .F. ) ;
#804 = CARTESIAN_POINT ( 'NONE',  ( -8.833459118600627491, 0.000000000000000000, 5.100000000000373568 ) ) ;
#805 = CYLINDRICAL_SURFACE ( 'NONE', #425, 2.099999999999999645 ) ;
#806 = AXIS2_PLACEMENT_3D ( 'NONE', #813, #481, #327 ) ;
#807 = CARTESIAN_POINT ( 'NONE',  ( 8.833459118601924231, 0.000000000000000000, 2.999999999999063416 ) ) ;
#808 = ORIENTED_EDGE ( 'NONE', *, *, #237, .F. ) ;
#809 = ORIENTED_EDGE ( 'NONE', *, *, #748, .T. ) ;
#810 = CIRCLE ( 'NONE', #233, 16.50000000000000000 ) ;
#811 = AXIS2_PLACEMENT_3D ( 'NONE', #913, #376, #58 ) ;
#812 = CARTESIAN_POINT ( 'NONE',  ( 6.250000000000010658, 0.000000000000000000, -10.82531754730547746 ) ) ;
#813 = CARTESIAN_POINT ( 'NONE',  ( 0.000000000000000000, 8.000000000000000000, 0.000000000000000000 ) ) ;
#814 = CIRCLE ( 'NONE', #725, 1.600000000000000755 ) ;
#815 = VERTEX_POINT ( 'NONE', #366 ) ;
#816 = EDGE_CURVE ( 'NONE', #699, #893, #365, .T. ) ;
#817 = ORIENTED_EDGE ( 'NONE', *, *, #816, .T. ) ;
#818 = FACE_BOUND ( 'NONE', #825, .T. ) ;
#819 = DIRECTION ( 'NONE',  ( 0.000000000000000000, 1.000000000000000000, 0.000000000000000000 ) ) ;
#820 = CIRCLE ( 'NONE', #507, 16.50000000000000000 ) ;
#821 = ORIENTED_EDGE ( 'NONE', *, *, #255, .F. ) ;
#822 = LINE ( 'NONE', #654, #321 ) ;
#823 = DIRECTION ( 'NONE',  ( 0.000000000000000000, 1.000000000000000000, 0.000000000000000000 ) ) ;
#824 = DIRECTION ( 'NONE',  ( 0.000000000000000000, 0.000000000000000000, 1.000000000000000000 ) ) ;
#825 = EDGE_LOOP ( 'NONE', ( #147, #542 ) ) ;
#826 = DIRECTION ( 'NONE',  ( 0.000000000000000000, 0.000000000000000000, 1.000000000000000000 ) ) ;
#827 = CARTESIAN_POINT ( 'NONE',  ( 100.0000000000000000, 30.00000000000000000, 9.999999999999994671 ) ) ;
#828 = ORIENTED_EDGE ( 'NONE', *, *, #522, .T. ) ;
#829 = VECTOR ( 'NONE', #900, 1000.000000000000000 ) ;
#830 = DIRECTION ( 'NONE',  ( -0.000000000000000000, 1.000000000000000000, -0.000000000000000000 ) ) ;
#831 = DIRECTION ( 'NONE',  ( 0.000000000000000000, 0.000000000000000000, 1.000000000000000000 ) ) ;
#832 = EDGE_CURVE ( 'NONE', #1006, #833, #187, .T. ) ;
#833 = VERTEX_POINT ( 'NONE', #294 ) ;
#834 = DIRECTION ( 'NONE',  ( 0.000000000000000000, 0.000000000000000000, 1.000000000000000000 ) ) ;
#835 = LINE ( 'NONE', #267, #561 ) ;
#836 = EDGE_CURVE ( 'NONE', #186, #460, #528, .T. ) ;
#837 = EDGE_LOOP ( 'NONE', ( #940, #491, #758, #438 ) ) ;
#838 = CARTESIAN_POINT ( 'NONE',  ( -6.250000000000094147, 0.000000000000000000, 9.225317547305436960 ) ) ;
#839 = DIRECTION ( 'NONE',  ( 0.000000000000000000, 0.000000000000000000, 1.000000000000000000 ) ) ;
#840 = VERTEX_POINT ( 'NONE', #765 ) ;
#841 = EDGE_CURVE ( 'NONE', #944, #802, #149, .T. ) ;
#842 = DIRECTION ( 'NONE',  ( -0.000000000000000000, -1.000000000000000000, -0.000000000000000000 ) ) ;
#843 = CARTESIAN_POINT ( 'NONE',  ( 6.250000000000010658, 8.000000000000000000, -10.82531754730547746 ) ) ;
#844 = ORIENTED_EDGE ( 'NONE', *, *, #388, .F. ) ;
#845 = FACE_OUTER_BOUND ( 'NONE', #768, .T. ) ;
#846 = ORIENTED_EDGE ( 'NONE', *, *, #832, .T. ) ;
#847 = DIRECTION ( 'NONE',  ( 0.000000000000000000, 1.000000000000000000, 0.000000000000000000 ) ) ;
#848 = ORIENTED_EDGE ( 'NONE', *, *, #990, .T. ) ;
#849 = ORIENTED_EDGE ( 'NONE', *, *, #698, .F. ) ;
#850 = DIRECTION ( 'NONE',  ( -0.000000000000000000, 1.000000000000000000, -0.000000000000000000 ) ) ;
#851 = DIRECTION ( 'NONE',  ( -0.000000000000000000, 1.000000000000000000, -0.000000000000000000 ) ) ;
#852 = EDGE_CURVE ( 'NONE', #98, #2, #328, .T. ) ;
#853 = AXIS2_PLACEMENT_3D ( 'NONE', #989, #685, #523 ) ;
#854 = EDGE_LOOP ( 'NONE', ( #194, #649, #828, #567 ) ) ;
#855 = PRODUCT_RELATED_PRODUCT_CATEGORY ( 'part', '', ( #243 ) ) ;
#856 = CARTESIAN_POINT ( 'NONE',  ( -12.50000000000000355, 0.000000000000000000, 1.599999999999873079 ) ) ;
#857 = CIRCLE ( 'NONE', #627, 9.999999999999994671 ) ;
#858 = ORIENTED_EDGE ( 'NONE', *, *, #892, .F. ) ;
#859 = FACE_BOUND ( 'NONE', #926, .T. ) ;
#860 = ADVANCED_FACE ( 'NONE', ( #690 ), #613, .F. ) ;
#861 = CARTESIAN_POINT ( 'NONE',  ( 0.9891098011789094535, 0.000000000000000000, 16.47032670596463433 ) ) ;
#862 = EDGE_LOOP ( 'NONE', ( #599, #919 ) ) ;
#863 = CARTESIAN_POINT ( 'NONE',  ( 8.833459118601924231, 0.000000000000000000, 7.200000000000183142 ) ) ;
#864 = CARTESIAN_POINT ( 'NONE',  ( 12.50000000000000355, 8.000000000000000000, -1.599999999999958344 ) ) ;
#865 = ORIENTED_EDGE ( 'NONE', *, *, #237, .T. ) ;
#866 = DIRECTION ( 'NONE',  ( 0.000000000000000000, 1.000000000000000000, -0.000000000000000000 ) ) ;
#867 = CARTESIAN_POINT ( 'NONE',  ( -8.833459118600627491, 8.000000000000000000, 5.100000000000373568 ) ) ;
#868 = FACE_OUTER_BOUND ( 'NONE', #937, .T. ) ;
#869 = ORIENTED_EDGE ( 'NONE', *, *, #178, .F. ) ;
#870 = DIRECTION ( 'NONE',  ( -0.000000000000000000, 1.000000000000000000, -0.000000000000000000 ) ) ;
#871 = ADVANCED_FACE ( 'NONE', ( #483 ), #478, .T. ) ;
#872 = DIRECTION ( 'NONE',  ( 0.000000000000000000, 1.000000000000000000, 0.000000000000000000 ) ) ;
#873 = VECTOR ( 'NONE', #182, 1000.000000000000114 ) ;
#874 = CARTESIAN_POINT ( 'NONE',  ( 0.000000000000000000, 0.000000000000000000, 0.000000000000000000 ) ) ;
#875 = AXIS2_PLACEMENT_3D ( 'NONE', #19, #249, #636 ) ;
#876 = ORIENTED_EDGE ( 'NONE', *, *, #212, .T. ) ;
#877 = FACE_OUTER_BOUND ( 'NONE', #156, .T. ) ;
#878 = DIRECTION ( 'NONE',  ( 0.000000000000000000, 0.000000000000000000, 1.000000000000000000 ) ) ;
#879 = MANIFOLD_SOLID_BREP ( '\X2\51f853f0\X0\-\X2\62c94f38\X0\3', #309 ) ;
#880 = CARTESIAN_POINT ( 'NONE',  ( 0.000000000000000000, 8.000000000000000000, -16.50000000000000000 ) ) ;
#881 = ORIENTED_EDGE ( 'NONE', *, *, #89, .F. ) ;
#882 = VERTEX_POINT ( 'NONE', #861 ) ;
#883 = DIRECTION ( 'NONE',  ( 0.000000000000000000, 1.000000000000000000, -0.000000000000000000 ) ) ;
#884 = CARTESIAN_POINT ( 'NONE',  ( 8.833459118601924231, 0.000000000000000000, 5.099999999999623057 ) ) ;
#885 = ADVANCED_FACE ( 'NONE', ( #798 ), #94, .T. ) ;
#886 = VERTEX_POINT ( 'NONE', #171 ) ;
#887 = EDGE_LOOP ( 'NONE', ( #62, #531, #417, #637 ) ) ;
#888 = SHAPE_DEFINITION_REPRESENTATION ( #701, #664 ) ;
#889 = AXIS2_PLACEMENT_3D ( 'NONE', #439, #823, #650 ) ;
#890 = FACE_OUTER_BOUND ( 'NONE', #548, .T. ) ;
#891 = DIRECTION ( 'NONE',  ( 0.000000000000000000, 1.000000000000000000, 0.000000000000000000 ) ) ;
#892 = EDGE_CURVE ( 'NONE', #607, #992, #537, .T. ) ;
#893 = VERTEX_POINT ( 'NONE', #721 ) ;
#894 = DIRECTION ( 'NONE',  ( -0.000000000000000000, 1.000000000000000000, -0.000000000000000000 ) ) ;
#895 = DIRECTION ( 'NONE',  ( 0.000000000000000000, 1.000000000000000000, 0.000000000000000000 ) ) ;
#896 = VECTOR ( 'NONE', #584, 1000.000000000000000 ) ;
#897 = CYLINDRICAL_SURFACE ( 'NONE', #15, 1.600000000000000755 ) ;
#898 = EDGE_LOOP ( 'NONE', ( #923, #983, #7, #642 ) ) ;
#899 = DIRECTION ( 'NONE',  ( 0.000000000000000000, 1.000000000000000000, 0.000000000000000000 ) ) ;
#900 = DIRECTION ( 'NONE',  ( -0.000000000000000000, -1.000000000000000000, -0.000000000000000000 ) ) ;
#901 = ADVANCED_FACE ( 'NONE', ( #475 ), #400, .F. ) ;
#902 = ORIENTED_EDGE ( 'NONE', *, *, #403, .F. ) ;
#903 = EDGE_CURVE ( 'NONE', #241, #260, #261, .T. ) ;
#904 = CARTESIAN_POINT ( 'NONE',  ( 0.000000000000000000, 8.000000000000000000, -8.099999999999999645 ) ) ;
#905 = CIRCLE ( 'NONE', #154, 9.999999999999994671 ) ;
#906 = CARTESIAN_POINT ( 'NONE',  ( 100.0000000000000000, 30.00000000000000000, 0.000000000000000000 ) ) ;
#907 = VECTOR ( 'NONE', #463, 1000.000000000000000 ) ;
#908 = EDGE_LOOP ( 'NONE', ( #304, #556, #697, #988 ) ) ;
#909 = DIRECTION ( 'NONE',  ( -0.000000000000000000, 1.000000000000000000, -0.000000000000000000 ) ) ;
#910 = DIRECTION ( 'NONE',  ( 0.000000000000000000, 1.000000000000000000, 0.000000000000000000 ) ) ;
#911 = ORIENTED_EDGE ( 'NONE', *, *, #449, .T. ) ;
#912 = AXIS2_PLACEMENT_3D ( 'NONE', #95, #322, #723 ) ;
#913 = CARTESIAN_POINT ( 'NONE',  ( -6.250000000000016875, 0.000000000000000000, -10.82531754730547568 ) ) ;
#914 = ORIENTED_EDGE ( 'NONE', *, *, #40, .F. ) ;
#915 = DIRECTION ( 'NONE',  ( 0.000000000000000000, 1.000000000000000000, -0.000000000000000000 ) ) ;
#916 = VERTEX_POINT ( 'NONE', #643 ) ;
#917 = CYLINDRICAL_SURFACE ( 'NONE', #497, 1.600000000000000533 ) ;
#918 = CARTESIAN_POINT ( 'NONE',  ( 0.000000000000000000, 8.000000000000000000, 0.000000000000000000 ) ) ;
#919 = ORIENTED_EDGE ( 'NONE', *, *, #150, .F. ) ;
#920 = UNCERTAINTY_MEASURE_WITH_UNIT (LENGTH_MEASURE( 1.000000000000000082E-05 ), #360, 'distance_accuracy_value', 'NONE');
#921 = AXIS2_PLACEMENT_3D ( 'NONE', #951, #562, #251 ) ;
#922 = CARTESIAN_POINT ( 'NONE',  ( -6.250000000000016875, 8.000000000000000000, -10.82531754730547568 ) ) ;
#923 = ORIENTED_EDGE ( 'NONE', *, *, #465, .F. ) ;
#924 = CARTESIAN_POINT ( 'NONE',  ( -6.250000000000094147, 0.000000000000000000, 10.82531754730543838 ) ) ;
#925 = CIRCLE ( 'NONE', #273, 16.50000000000000000 ) ;
#926 = EDGE_LOOP ( 'NONE', ( #808, #373 ) ) ;
#927 = CARTESIAN_POINT ( 'NONE',  ( 8.833459118601924231, 0.000000000000000000, 5.099999999999623057 ) ) ;
#928 = FACE_BOUND ( 'NONE', #359, .T. ) ;
#929 = AXIS2_PLACEMENT_3D ( 'NONE', #945, #870, #17 ) ;
#930 = EDGE_CURVE ( 'NONE', #32, #126, #277, .T. ) ;
#931 = EDGE_LOOP ( 'NONE', ( #441, #421, #614, #549 ) ) ;
#932 = CIRCLE ( 'NONE', #54, 2.100000000000816325 ) ;
#933 = DIRECTION ( 'NONE',  ( 0.000000000000000000, 0.000000000000000000, 1.000000000000000000 ) ) ;
#934 = EDGE_CURVE ( 'NONE', #2, #98, #659, .T. ) ;
#935 = ORIENTED_EDGE ( 'NONE', *, *, #934, .F. ) ;
#936 = LINE ( 'NONE', #470, #330 ) ;
#937 = EDGE_LOOP ( 'NONE', ( #86, #959, #302, #72 ) ) ;
#938 = DIRECTION ( 'NONE',  ( 0.000000000000000000, 0.000000000000000000, -1.000000000000000000 ) ) ;
#939 = AXIS2_PLACEMENT_3D ( 'NONE', #918, #847, #222 ) ;
#940 = ORIENTED_EDGE ( 'NONE', *, *, #761, .F. ) ;
#941 = CYLINDRICAL_SURFACE ( 'NONE', #947, 1.599999999999998979 ) ;
#942 = EDGE_CURVE ( 'NONE', #82, #840, #795, .T. ) ;
#943 = AXIS2_PLACEMENT_3D ( 'NONE', #752, #44, #282 ) ;
#944 = VERTEX_POINT ( 'NONE', #856 ) ;
#945 = CARTESIAN_POINT ( 'NONE',  ( -12.50000000000000355, 0.000000000000000000, -1.275021754842953214E-13 ) ) ;
#946 = DIRECTION ( 'NONE',  ( 0.000000000000000000, 1.000000000000000000, 0.000000000000000000 ) ) ;
#947 = AXIS2_PLACEMENT_3D ( 'NONE', #315, #242, #645 ) ;
#948 = FACE_OUTER_BOUND ( 'NONE', #283, .T. ) ;
#949 = ADVANCED_FACE ( 'NONE', ( #877 ), #176, .F. ) ;
#950 = EDGE_LOOP ( 'NONE', ( #876, #133, #175, #329 ) ) ;
#951 = CARTESIAN_POINT ( 'NONE',  ( -6.250000000000094147, 8.000000000000000000, 10.82531754730543838 ) ) ;
#952 = LINE ( 'NONE', #799, #675 ) ;
#953 = CARTESIAN_POINT ( 'NONE',  ( 0.000000000000000000, 0.000000000000000000, -8.099999999999999645 ) ) ;
#954 = VERTEX_POINT ( 'NONE', #557 ) ;
#955 = DIRECTION ( 'NONE',  ( 0.000000000000000000, 1.000000000000000000, 0.000000000000000000 ) ) ;
#956 = DIRECTION ( 'NONE',  ( 0.000000000000000000, 0.000000000000000000, 1.000000000000000000 ) ) ;
#957 = DIRECTION ( 'NONE',  ( -0.000000000000000000, 1.000000000000000000, -0.000000000000000000 ) ) ;
#958 = AXIS2_PLACEMENT_3D ( 'NONE', #874, #334, #174 ) ;
#959 = ORIENTED_EDGE ( 'NONE', *, *, #836, .T. ) ;
#960 = ORIENTED_EDGE ( 'NONE', *, *, #212, .F. ) ;
#961 = SURFACE_SIDE_STYLE ('',( #629 ) ) ;
#962 = LINE ( 'NONE', #863, #553 ) ;
#963 = CARTESIAN_POINT ( 'NONE',  ( 6.249999999999939604, 0.000000000000000000, 10.82531754730552365 ) ) ;
#964 = ORIENTED_EDGE ( 'NONE', *, *, #280, .T. ) ;
#965 = VERTEX_POINT ( 'NONE', #83 ) ;
#966 = DIRECTION ( 'NONE',  ( 0.000000000000000000, 0.000000000000000000, 1.000000000000000000 ) ) ;
#967 = AXIS2_PLACEMENT_3D ( 'NONE', #646, #107, #707 ) ;
#968 = EDGE_CURVE ( 'NONE', #241, #815, #742, .T. ) ;
#969 = DIRECTION ( 'NONE',  ( -0.000000000000000000, 1.000000000000000000, -0.000000000000000000 ) ) ;
#970 = ORIENTED_EDGE ( 'NONE', *, *, #255, .T. ) ;
#971 = DIRECTION ( 'NONE',  ( 0.000000000000000000, 1.000000000000000000, 0.000000000000000000 ) ) ;
#972 = CARTESIAN_POINT ( 'NONE',  ( 2.571758278209441957E-16, 0.000000000000000000, -12.29999999999999893 ) ) ;
#973 = ADVANCED_FACE ( 'NONE', ( #744 ), #342, .T. ) ;
#974 = EDGE_LOOP ( 'NONE', ( #42, #517 ) ) ;
#975 = CIRCLE ( 'NONE', #69, 9.999999999999994671 ) ;
#976 = DIRECTION ( 'NONE',  ( 0.000000000000000000, 1.000000000000000000, 0.000000000000000000 ) ) ;
#977 = CARTESIAN_POINT ( 'NONE',  ( 12.50000000000000355, 0.000000000000000000, 4.163336342344337027E-14 ) ) ;
#978 = EDGE_CURVE ( 'NONE', #886, #882, #270, .T. ) ;
#979 = ORIENTED_EDGE ( 'NONE', *, *, #459, .F. ) ;
#980 =( GEOMETRIC_REPRESENTATION_CONTEXT ( 3 ) GLOBAL_UNCERTAINTY_ASSIGNED_CONTEXT ( ( #781 ) ) GLOBAL_UNIT_ASSIGNED_CONTEXT ( ( #20, #240, #11 ) ) REPRESENTATION_CONTEXT ( 'NONE', 'WORKASPACE' ) );
#981 = DIRECTION ( 'NONE',  ( 0.000000000000000000, 1.000000000000000000, 0.000000000000000000 ) ) ;
#982 = CYLINDRICAL_SURFACE ( 'NONE', #943, 1.600000000000000755 ) ;
#983 = ORIENTED_EDGE ( 'NONE', *, *, #540, .F. ) ;
#984 = CYLINDRICAL_SURFACE ( 'NONE', #220, 2.100000000000816325 ) ;
#985 = VECTOR ( 'NONE', #532, 1000.000000000000000 ) ;
#986 = CARTESIAN_POINT ( 'NONE',  ( 0.000000000000000000, 0.000000000000000000, -10.19999999999999929 ) ) ;
#987 = CIRCLE ( 'NONE', #155, 1.600000000000000755 ) ;
#988 = ORIENTED_EDGE ( 'NONE', *, *, #423, .F. ) ;
#989 = CARTESIAN_POINT ( 'NONE',  ( 100.0000000000000000, 8.000000000000000000, 0.000000000000000000 ) ) ;
#990 = EDGE_CURVE ( 'NONE', #893, #702, #203, .T. ) ;
#991 = FACE_OUTER_BOUND ( 'NONE', #552, .T. ) ;
#992 = VERTEX_POINT ( 'NONE', #578 ) ;
#993 = CIRCLE ( 'NONE', #292, 16.50000000000000000 ) ;
#994 = DIRECTION ( 'NONE',  ( 0.000000000000000000, 0.000000000000000000, 1.000000000000000000 ) ) ;
#995 = FACE_OUTER_BOUND ( 'NONE', #269, .T. ) ;
#996 = ORIENTED_EDGE ( 'NONE', *, *, #520, .F. ) ;
#997 = DIRECTION ( 'NONE',  ( -0.000000000000000000, 1.000000000000000000, -0.000000000000000000 ) ) ;
#998 = EDGE_LOOP ( 'NONE', ( #451, #803, #593, #679 ) ) ;
#999 = CARTESIAN_POINT ( 'NONE',  ( 6.250000000000010658, 0.000000000000000000, -12.42531754730547711 ) ) ;
#1000 = EDGE_CURVE ( 'NONE', #23, #693, #822, .T. ) ;
#1001 = ORIENTED_EDGE ( 'NONE', *, *, #658, .T. ) ;
#1002 = DIRECTION ( 'NONE',  ( 0.000000000000000000, 0.000000000000000000, -1.000000000000000000 ) ) ;
#1003 = CIRCLE ( 'NONE', #129, 1.599999999999998979 ) ;
#1004 = VERTEX_POINT ( 'NONE', #661 ) ;
#1005 = DIRECTION ( 'NONE',  ( -0.000000000000000000, 1.000000000000000000, -0.000000000000000000 ) ) ;
#1006 = VERTEX_POINT ( 'NONE', #418 ) ;
#1007 = EDGE_CURVE ( 'NONE', #234, #410, #122, .T. ) ;
ENDSEC;
END-ISO-10303-21;
