ISO-10303-21;
HEADER;
FILE_DESCRIPTION (( 'STEP AP214' ),
    '1' );
FILE_NAME ('µç»úÁ¦±Û3.STEP',
    '2025-12-19T02:54:15',
    ( '' ),
    ( '' ),
    'SwSTEP 2.0',
    'SolidWorks 2025',
    '' );
FILE_SCHEMA (( 'AUTOMOTIVE_DESIGN' ));
ENDSEC;

DATA;
#1 = CARTESIAN_POINT ( 'NONE',  ( 6.249999999999939604, 0.000000000000000000, 10.82531754730552365 ) ) ;
#2 = ORIENTED_EDGE ( 'NONE', *, *, #462, .T. ) ;
#3 = CARTESIAN_POINT ( 'NONE',  ( 8.833459118601924231, 0.000000000000000000, 7.599999999999623945 ) ) ;
#4 = VERTEX_POINT ( 'NONE', #894 ) ;
#5 = DIRECTION ( 'NONE',  ( 0.000000000000000000, 0.000000000000000000, 1.000000000000000000 ) ) ;
#6 = LINE ( 'NONE', #877, #204 ) ;
#7 = EDGE_CURVE ( 'NONE', #454, #1005, #898, .T. ) ;
#8 = ORIENTED_EDGE ( 'NONE', *, *, #866, .T. ) ;
#9 = DIRECTION ( 'NONE',  ( -0.000000000000000000, 1.000000000000000000, -0.000000000000000000 ) ) ;
#10 = DIRECTION ( 'NONE',  ( 0.000000000000000000, 0.000000000000000000, 1.000000000000000000 ) ) ;
#11 = CARTESIAN_POINT ( 'NONE',  ( 8.833459118601924231, 0.000000000000000000, 5.099999999999623057 ) ) ;
#12 = VECTOR ( 'NONE', #805, 1000.000000000000000 ) ;
#13 = CIRCLE ( 'NONE', #782, 1.900000000000000577 ) ;
#14 = CARTESIAN_POINT ( 'NONE',  ( 6.250000000000010658, 0.000000000000000000, -12.72531754730547782 ) ) ;
#15 = EDGE_CURVE ( 'NONE', #687, #540, #820, .T. ) ;
#16 = DIRECTION ( 'NONE',  ( 0.000000000000000000, 1.000000000000000000, 0.000000000000000000 ) ) ;
#17 = CYLINDRICAL_SURFACE ( 'NONE', #889, 2.500000000000000444 ) ;
#18 = DIRECTION ( 'NONE',  ( 0.000000000000000000, 0.000000000000000000, 1.000000000000000000 ) ) ;
#19 = FACE_OUTER_BOUND ( 'NONE', #276, .T. ) ;
#20 = DIRECTION ( 'NONE',  ( 0.000000000000000000, 0.000000000000000000, 1.000000000000000000 ) ) ;
#21 = LINE ( 'NONE', #748, #222 ) ;
#22 = ORIENTED_EDGE ( 'NONE', *, *, #598, .T. ) ;
#23 = DIRECTION ( 'NONE',  ( -0.000000000000000000, -1.000000000000000000, -0.000000000000000000 ) ) ;
#24 = DIRECTION ( 'NONE',  ( 0.000000000000000000, 1.000000000000000000, 0.000000000000000000 ) ) ;
#25 = AXIS2_PLACEMENT_3D ( 'NONE', #869, #948, #718 ) ;
#26 = EDGE_CURVE ( 'NONE', #128, #832, #47, .T. ) ;
#27 = AXIS2_PLACEMENT_3D ( 'NONE', #475, #943, #717 ) ;
#28 = VERTEX_POINT ( 'NONE', #674 ) ;
#29 = CIRCLE ( 'NONE', #206, 16.50000000000000000 ) ;
#30 = DIRECTION ( 'NONE',  ( 0.000000000000000000, 0.000000000000000000, 1.000000000000000000 ) ) ;
#31 = ORIENTED_EDGE ( 'NONE', *, *, #656, .F. ) ;
#32 = LINE ( 'NONE', #360, #12 ) ;
#33 = EDGE_LOOP ( 'NONE', ( #412, #761, #946, #356 ) ) ;
#34 = DIRECTION ( 'NONE',  ( 0.000000000000000000, 0.000000000000000000, 1.000000000000000000 ) ) ;
#35 = VERTEX_POINT ( 'NONE', #981 ) ;
#36 = CARTESIAN_POINT ( 'NONE',  ( -6.250000000000094147, 0.000000000000000000, 10.82531754730543838 ) ) ;
#37 = ORIENTED_EDGE ( 'NONE', *, *, #880, .T. ) ;
#38 = DIRECTION ( 'NONE',  ( -0.9995503035223666233, 0.000000000000000000, -0.02998650910567101507 ) ) ;
#39 = ORIENTED_EDGE ( 'NONE', *, *, #392, .T. ) ;
#40 = FACE_OUTER_BOUND ( 'NONE', #892, .T. ) ;
#41 = CARTESIAN_POINT ( 'NONE',  ( -6.250000000000016875, 0.000000000000000000, -12.72531754730547604 ) ) ;
#42 = DIRECTION ( 'NONE',  ( 0.000000000000000000, 0.000000000000000000, 1.000000000000000000 ) ) ;
#43 =( GEOMETRIC_REPRESENTATION_CONTEXT ( 3 ) GLOBAL_UNCERTAINTY_ASSIGNED_CONTEXT ( ( #920 ) ) GLOBAL_UNIT_ASSIGNED_CONTEXT ( ( #176, #960, #803 ) ) REPRESENTATION_CONTEXT ( 'NONE', 'WORKASPACE' ) );
#44 = ORIENTED_EDGE ( 'NONE', *, *, #707, .T. ) ;
#45 = DIRECTION ( 'NONE',  ( 0.000000000000000000, 0.000000000000000000, 1.000000000000000000 ) ) ;
#46 = DIRECTION ( 'NONE',  ( -0.000000000000000000, 1.000000000000000000, -0.000000000000000000 ) ) ;
#47 = LINE ( 'NONE', #279, #1000 ) ;
#48 = EDGE_LOOP ( 'NONE', ( #708, #421, #573, #649 ) ) ;
#49 = CARTESIAN_POINT ( 'NONE',  ( 8.833459118601924231, 8.000000000000000000, 7.599999999999623945 ) ) ;
#50 = ADVANCED_FACE ( 'NONE', ( #284, #769, #777, #136, #774, #522, #448, #536, #61, #685, #780 ), #928, .T. ) ;
#51 = ORIENTED_EDGE ( 'NONE', *, *, #675, .F. ) ;
#52 = EDGE_LOOP ( 'NONE', ( #930, #156, #489, #146 ) ) ;
#53 = DIRECTION ( 'NONE',  ( -0.000000000000000000, -1.000000000000000000, -0.000000000000000000 ) ) ;
#54 = DIRECTION ( 'NONE',  ( -0.000000000000000000, 1.000000000000000000, -0.000000000000000000 ) ) ;
#55 = EDGE_CURVE ( 'NONE', #528, #631, #728, .T. ) ;
#56 = AXIS2_PLACEMENT_3D ( 'NONE', #209, #535, #907 ) ;
#57 = ORIENTED_EDGE ( 'NONE', *, *, #918, .T. ) ;
#58 = CARTESIAN_POINT ( 'NONE',  ( -8.833459118600627491, 8.000000000000000000, 2.600000000000372680 ) ) ;
#59 = AXIS2_PLACEMENT_3D ( 'NONE', #147, #547, #461 ) ;
#60 = AXIS2_PLACEMENT_3D ( 'NONE', #729, #817, #42 ) ;
#61 = FACE_BOUND ( 'NONE', #383, .T. ) ;
#62 = CARTESIAN_POINT ( 'NONE',  ( 100.0000000000000000, 0.000000000000000000, 0.000000000000000000 ) ) ;
#63 = ORIENTED_EDGE ( 'NONE', *, *, #179, .F. ) ;
#64 = DIRECTION ( 'NONE',  ( 0.000000000000000000, 1.000000000000000000, 0.000000000000000000 ) ) ;
#65 = CARTESIAN_POINT ( 'NONE',  ( -6.250000000000094147, 8.000000000000000000, 10.82531754730543838 ) ) ;
#66 = CARTESIAN_POINT ( 'NONE',  ( 0.000000000000000000, 0.000000000000000000, 0.000000000000000000 ) ) ;
#67 = ORIENTED_EDGE ( 'NONE', *, *, #207, .F. ) ;
#68 = CARTESIAN_POINT ( 'NONE',  ( 0.000000000000000000, 0.000000000000000000, 0.000000000000000000 ) ) ;
#69 = CARTESIAN_POINT ( 'NONE',  ( -12.50000000000000355, 0.000000000000000000, -1.275021754842953214E-13 ) ) ;
#70 = ORIENTED_EDGE ( 'NONE', *, *, #961, .F. ) ;
#71 = DIRECTION ( 'NONE',  ( -0.000000000000000000, 1.000000000000000000, -0.000000000000000000 ) ) ;
#72 = CIRCLE ( 'NONE', #749, 2.500000000000000444 ) ;
#73 = VECTOR ( 'NONE', #23, 1000.000000000000000 ) ;
#74 = ADVANCED_FACE ( 'NONE', ( #852 ), #370, .T. ) ;
#75 = FACE_OUTER_BOUND ( 'NONE', #181, .T. ) ;
#76 = VERTEX_POINT ( 'NONE', #681 ) ;
#77 = FACE_OUTER_BOUND ( 'NONE', #911, .T. ) ;
#78 = CARTESIAN_POINT ( 'NONE',  ( 0.000000000000000000, 8.000000000000000000, 0.000000000000000000 ) ) ;
#79 = ORIENTED_EDGE ( 'NONE', *, *, #275, .T. ) ;
#80 = CARTESIAN_POINT ( 'NONE',  ( 0.9891098011789094535, 8.000000000000000000, -16.47032670596463433 ) ) ;
#81 = DIRECTION ( 'NONE',  ( -0.000000000000000000, 1.000000000000000000, -0.000000000000000000 ) ) ;
#82 = DIRECTION ( 'NONE',  ( 0.000000000000000000, 1.000000000000000000, -0.000000000000000000 ) ) ;
#83 = EDGE_CURVE ( 'NONE', #230, #440, #952, .T. ) ;
#84 = EDGE_CURVE ( 'NONE', #802, #1005, #87, .T. ) ;
#85 = CYLINDRICAL_SURFACE ( 'NONE', #517, 10.00000000000000888 ) ;
#86 = CARTESIAN_POINT ( 'NONE',  ( 100.0000000000000000, 60.00000000000000000, 0.000000000000000000 ) ) ;
#87 = CIRCLE ( 'NONE', #515, 16.50000000000000000 ) ;
#88 = CARTESIAN_POINT ( 'NONE',  ( 12.50000000000000355, 0.000000000000000000, 1.900000000000041878 ) ) ;
#89 = AXIS2_PLACEMENT_3D ( 'NONE', #119, #653, #103 ) ;
#90 = CIRCLE ( 'NONE', #580, 1.900000000000000133 ) ;
#91 = AXIS2_PLACEMENT_3D ( 'NONE', #519, #831, #910 ) ;
#92 = DIRECTION ( 'NONE',  ( 0.000000000000000000, 0.000000000000000000, -1.000000000000000000 ) ) ;
#93 = ADVANCED_FACE ( 'NONE', ( #603 ), #226, .F. ) ;
#94 = DIRECTION ( 'NONE',  ( 0.000000000000000000, 0.000000000000000000, 1.000000000000000000 ) ) ;
#95 = LINE ( 'NONE', #431, #306 ) ;
#96 = ORIENTED_EDGE ( 'NONE', *, *, #83, .F. ) ;
#97 = CARTESIAN_POINT ( 'NONE',  ( 6.250000000000010658, 8.000000000000000000, -10.82531754730547746 ) ) ;
#98 = EDGE_CURVE ( 'NONE', #799, #540, #611, .T. ) ;
#99 = CARTESIAN_POINT ( 'NONE',  ( -6.250000000000016875, 0.000000000000000000, -8.925317547305475330 ) ) ;
#100 = EDGE_LOOP ( 'NONE', ( #79, #289 ) ) ;
#101 = DIRECTION ( 'NONE',  ( 0.000000000000000000, 0.000000000000000000, 1.000000000000000000 ) ) ;
#102 = ORIENTED_EDGE ( 'NONE', *, *, #759, .F. ) ;
#103 = DIRECTION ( 'NONE',  ( 0.000000000000000000, 0.000000000000000000, 1.000000000000000000 ) ) ;
#104 = DIRECTION ( 'NONE',  ( -0.000000000000000000, -1.000000000000000000, -0.000000000000000000 ) ) ;
#105 = AXIS2_PLACEMENT_3D ( 'NONE', #300, #992, #296 ) ;
#106 = CIRCLE ( 'NONE', #843, 2.500000000000000444 ) ;
#107 = ORIENTED_EDGE ( 'NONE', *, *, #315, .F. ) ;
#108 = CIRCLE ( 'NONE', #438, 1.900000000000000577 ) ;
#109 = DIRECTION ( 'NONE',  ( 0.000000000000000000, 0.000000000000000000, 1.000000000000000000 ) ) ;
#110 = EDGE_LOOP ( 'NONE', ( #956, #756, #723, #672 ) ) ;
#111 = CARTESIAN_POINT ( 'NONE',  ( 100.0000000000000000, 0.000000000000000000, 13.50000000000000000 ) ) ;
#112 = ORIENTED_EDGE ( 'NONE', *, *, #764, .T. ) ;
#113 = EDGE_CURVE ( 'NONE', #76, #282, #223, .T. ) ;
#114 = ORIENTED_EDGE ( 'NONE', *, *, #254, .T. ) ;
#115 = CARTESIAN_POINT ( 'NONE',  ( 100.0000000000000000, 60.00000000000000000, -10.00000000000000888 ) ) ;
#116 = VERTEX_POINT ( 'NONE', #386 ) ;
#117 = DIRECTION ( 'NONE',  ( 0.000000000000000000, 1.000000000000000000, 0.000000000000000000 ) ) ;
#118 = VERTEX_POINT ( 'NONE', #849 ) ;
#119 = CARTESIAN_POINT ( 'NONE',  ( -12.50000000000000355, 8.000000000000000000, -1.275021754842953214E-13 ) ) ;
#120 = ORIENTED_EDGE ( 'NONE', *, *, #675, .T. ) ;
#121 = VECTOR ( 'NONE', #824, 1000.000000000000000 ) ;
#122 = VECTOR ( 'NONE', #949, 1000.000000000000114 ) ;
#123 = ADVANCED_BREP_SHAPE_REPRESENTATION ( '\X2\7535673a529b81c2\X0\3', ( #899, #91 ), #734 ) ;
#124 = CIRCLE ( 'NONE', #60, 2.500000000000000444 ) ;
#125 = ORIENTED_EDGE ( 'NONE', *, *, #194, .F. ) ;
#126 = CARTESIAN_POINT ( 'NONE',  ( -6.250000000000016875, 0.000000000000000000, -12.72531754730547604 ) ) ;
#127 = DIRECTION ( 'NONE',  ( 0.000000000000000000, 0.000000000000000000, 1.000000000000000000 ) ) ;
#128 = VERTEX_POINT ( 'NONE', #919 ) ;
#129 = ORIENTED_EDGE ( 'NONE', *, *, #194, .T. ) ;
#130 = CARTESIAN_POINT ( 'NONE',  ( -12.50000000000000355, 8.000000000000000000, -1.275021754842953214E-13 ) ) ;
#131 = EDGE_CURVE ( 'NONE', #394, #28, #642, .T. ) ;
#132 = ADVANCED_FACE ( 'NONE', ( #445 ), #213, .F. ) ;
#133 = DIRECTION ( 'NONE',  ( 0.000000000000000000, 1.000000000000000000, 0.000000000000000000 ) ) ;
#134 = ORIENTED_EDGE ( 'NONE', *, *, #512, .T. ) ;
#135 = CARTESIAN_POINT ( 'NONE',  ( 0.000000000000000000, 8.000000000000000000, -7.699999999999998401 ) ) ;
#136 = FACE_BOUND ( 'NONE', #201, .T. ) ;
#137 = DIRECTION ( 'NONE',  ( 0.000000000000000000, 1.000000000000000000, 0.000000000000000000 ) ) ;
#138 = AXIS2_PLACEMENT_3D ( 'NONE', #622, #607, #694 ) ;
#139 = CIRCLE ( 'NONE', #679, 1.900000000000000577 ) ;
#140 = VERTEX_POINT ( 'NONE', #148 ) ;
#141 = CARTESIAN_POINT ( 'NONE',  ( 0.000000000000000000, 0.000000000000000000, -7.699999999999998401 ) ) ;
#142 = CARTESIAN_POINT ( 'NONE',  ( 8.833459118601924231, 0.000000000000000000, 5.099999999999623057 ) ) ;
#143 = ORIENTED_EDGE ( 'NONE', *, *, #385, .T. ) ;
#144 = DIRECTION ( 'NONE',  ( 0.000000000000000000, 0.000000000000000000, 1.000000000000000000 ) ) ;
#145 = DIRECTION ( 'NONE',  ( 0.000000000000000000, 1.000000000000000000, 0.000000000000000000 ) ) ;
#146 = ORIENTED_EDGE ( 'NONE', *, *, #866, .F. ) ;
#147 = CARTESIAN_POINT ( 'NONE',  ( 6.250000000000010658, 0.000000000000000000, -10.82531754730547746 ) ) ;
#148 = CARTESIAN_POINT ( 'NONE',  ( -8.833459118600627491, 0.000000000000000000, 2.600000000000372680 ) ) ;
#149 = ORIENTED_EDGE ( 'NONE', *, *, #26, .T. ) ;
#150 = FACE_OUTER_BOUND ( 'NONE', #211, .T. ) ;
#151 = CIRCLE ( 'NONE', #794, 2.500000000000000444 ) ;
#152 = CIRCLE ( 'NONE', #730, 2.500000000000000444 ) ;
#153 = FACE_OUTER_BOUND ( 'NONE', #757, .T. ) ;
#154 = CIRCLE ( 'NONE', #731, 2.500000000000000444 ) ;
#155 = CYLINDRICAL_SURFACE ( 'NONE', #1001, 1.900000000000000133 ) ;
#156 = ORIENTED_EDGE ( 'NONE', *, *, #15, .T. ) ;
#157 = DIRECTION ( 'NONE',  ( 0.000000000000000000, 0.000000000000000000, 1.000000000000000000 ) ) ;
#158 = ADVANCED_FACE ( 'NONE', ( #839 ), #845, .F. ) ;
#159 = DIRECTION ( 'NONE',  ( 0.000000000000000000, 1.000000000000000000, 0.000000000000000000 ) ) ;
#160 = ADVANCED_FACE ( 'NONE', ( #75 ), #701, .F. ) ;
#161 = DIRECTION ( 'NONE',  ( 0.000000000000000000, 0.000000000000000000, 1.000000000000000000 ) ) ;
#162 = DIRECTION ( 'NONE',  ( -0.000000000000000000, 1.000000000000000000, -0.000000000000000000 ) ) ;
#163 = CARTESIAN_POINT ( 'NONE',  ( 12.50000000000000355, 0.000000000000000000, 4.163336342344337027E-14 ) ) ;
#164 = AXIS2_PLACEMENT_3D ( 'NONE', #641, #553, #793 ) ;
#165 = ORIENTED_EDGE ( 'NONE', *, *, #635, .F. ) ;
#166 = DIRECTION ( 'NONE',  ( 0.000000000000000000, 1.000000000000000000, 0.000000000000000000 ) ) ;
#167 = CARTESIAN_POINT ( 'NONE',  ( 0.000000000000000000, 0.000000000000000000, -10.19999999999999929 ) ) ;
#168 = VECTOR ( 'NONE', #823, 1000.000000000000000 ) ;
#169 = CIRCLE ( 'NONE', #754, 16.50000000000000000 ) ;
#170 = EDGE_CURVE ( 'NONE', #737, #859, #312, .T. ) ;
#171 = PRESENTATION_STYLE_ASSIGNMENT (( #505 ) ) ;
#172 = VERTEX_POINT ( 'NONE', #99 ) ;
#173 = CARTESIAN_POINT ( 'NONE',  ( 0.4945549005894696593, 8.000000000000000000, 16.48516335298231894 ) ) ;
#174 = CARTESIAN_POINT ( 'NONE',  ( 8.833459118601924231, 0.000000000000000000, 5.099999999999623057 ) ) ;
#175 = ORIENTED_EDGE ( 'NONE', *, *, #423, .T. ) ;
#176 =( LENGTH_UNIT ( ) NAMED_UNIT ( * ) SI_UNIT ( .MILLI., .METRE. ) );
#177 = ORIENTED_EDGE ( 'NONE', *, *, #664, .T. ) ;
#178 = FACE_OUTER_BOUND ( 'NONE', #546, .T. ) ;
#179 = EDGE_CURVE ( 'NONE', #261, #569, #825, .T. ) ;
#180 = CARTESIAN_POINT ( 'NONE',  ( -6.250000000000016875, 0.000000000000000000, -10.82531754730547568 ) ) ;
#181 = EDGE_LOOP ( 'NONE', ( #183, #114, #198, #705 ) ) ;
#182 = CARTESIAN_POINT ( 'NONE',  ( 0.000000000000000000, 8.000000000000000000, 0.000000000000000000 ) ) ;
#183 = ORIENTED_EDGE ( 'NONE', *, *, #308, .F. ) ;
#184 = CARTESIAN_POINT ( 'NONE',  ( 0.000000000000000000, 0.000000000000000000, -16.50000000000000000 ) ) ;
#185 = EDGE_CURVE ( 'NONE', #140, #128, #72, .T. ) ;
#186 = CIRCLE ( 'NONE', #322, 2.500000000000000444 ) ;
#187 = ORIENTED_EDGE ( 'NONE', *, *, #192, .F. ) ;
#188 = AXIS2_PLACEMENT_3D ( 'NONE', #320, #719, #632 ) ;
#189 = FACE_BOUND ( 'NONE', #850, .T. ) ;
#190 = ORIENTED_EDGE ( 'NONE', *, *, #420, .F. ) ;
#191 = CARTESIAN_POINT ( 'NONE',  ( -6.250000000000094147, 8.000000000000000000, 12.72531754730543874 ) ) ;
#192 = EDGE_CURVE ( 'NONE', #28, #394, #856, .T. ) ;
#193 = DIRECTION ( 'NONE',  ( -0.9995503035223666233, 0.000000000000000000, 0.02998650910567101507 ) ) ;
#194 = EDGE_CURVE ( 'NONE', #974, #454, #6, .T. ) ;
#195 = SURFACE_STYLE_FILL_AREA ( #879 ) ;
#196 = EDGE_LOOP ( 'NONE', ( #327, #314 ) ) ;
#197 = DIRECTION ( 'NONE',  ( 0.000000000000000000, 0.000000000000000000, 1.000000000000000000 ) ) ;
#198 = ORIENTED_EDGE ( 'NONE', *, *, #192, .T. ) ;
#199 = ADVANCED_FACE ( 'NONE', ( #951 ), #627, .F. ) ;
#200 = FACE_BOUND ( 'NONE', #807, .T. ) ;
#201 = EDGE_LOOP ( 'NONE', ( #881, #187 ) ) ;
#202 = DIRECTION ( 'NONE',  ( -0.000000000000000000, -1.000000000000000000, -0.000000000000000000 ) ) ;
#203 = ORIENTED_EDGE ( 'NONE', *, *, #633, .F. ) ;
#204 = VECTOR ( 'NONE', #706, 1000.000000000000000 ) ;
#205 = VECTOR ( 'NONE', #893, 1000.000000000000000 ) ;
#206 = AXIS2_PLACEMENT_3D ( 'NONE', #68, #838, #773 ) ;
#207 = EDGE_CURVE ( 'NONE', #214, #984, #842, .T. ) ;
#208 = EDGE_LOOP ( 'NONE', ( #482, #562 ) ) ;
#209 = CARTESIAN_POINT ( 'NONE',  ( 0.000000000000000000, 8.000000000000000000, 0.000000000000000000 ) ) ;
#210 = VERTEX_POINT ( 'NONE', #648 ) ;
#211 = EDGE_LOOP ( 'NONE', ( #698, #107, #344, #129 ) ) ;
#212 = LINE ( 'NONE', #828, #629 ) ;
#213 = CYLINDRICAL_SURFACE ( 'NONE', #246, 1.900000000000000133 ) ;
#214 = VERTEX_POINT ( 'NONE', #472 ) ;
#215 = DIRECTION ( 'NONE',  ( -0.02998650910567101854, 0.000000000000000000, 0.9995503035223667343 ) ) ;
#216 = DIRECTION ( 'NONE',  ( 0.000000000000000000, 1.000000000000000000, 0.000000000000000000 ) ) ;
#217 = CARTESIAN_POINT ( 'NONE',  ( 6.249999999999939604, 8.000000000000000000, 10.82531754730552365 ) ) ;
#218 = CIRCLE ( 'NONE', #164, 16.50000000000000000 ) ;
#219 = CIRCLE ( 'NONE', #89, 1.900000000000000133 ) ;
#220 = VERTEX_POINT ( 'NONE', #88 ) ;
#221 = CARTESIAN_POINT ( 'NONE',  ( 12.50000000000000355, 8.000000000000000000, 1.900000000000041878 ) ) ;
#222 = VECTOR ( 'NONE', #643, 1000.000000000000000 ) ;
#223 = LINE ( 'NONE', #292, #480 ) ;
#224 = ORIENTED_EDGE ( 'NONE', *, *, #786, .F. ) ;
#225 = FACE_OUTER_BOUND ( 'NONE', #667, .T. ) ;
#226 = CYLINDRICAL_SURFACE ( 'NONE', #138, 1.900000000000000577 ) ;
#227 = ADVANCED_FACE ( 'NONE', ( #469 ), #232, .T. ) ;
#228 = ORIENTED_EDGE ( 'NONE', *, *, #237, .T. ) ;
#229 = CARTESIAN_POINT ( 'NONE',  ( -12.50000000000000355, 0.000000000000000000, -1.275021754842953214E-13 ) ) ;
#230 = VERTEX_POINT ( 'NONE', #241 ) ;
#231 = DIRECTION ( 'NONE',  ( 0.000000000000000000, 0.000000000000000000, -1.000000000000000000 ) ) ;
#232 = PLANE ( 'NONE',  #628 ) ;
#233 = ORIENTED_EDGE ( 'NONE', *, *, #315, .T. ) ;
#234 = CYLINDRICAL_SURFACE ( 'NONE', #59, 1.900000000000000577 ) ;
#235 = ADVANCED_FACE ( 'NONE', ( #711 ), #17, .F. ) ;
#236 = CIRCLE ( 'NONE', #614, 10.00000000000000888 ) ;
#237 = EDGE_CURVE ( 'NONE', #859, #510, #218, .T. ) ;
#238 = EDGE_CURVE ( 'NONE', #499, #875, #321, .T. ) ;
#239 = DIRECTION ( 'NONE',  ( -0.000000000000000000, 1.000000000000000000, -0.000000000000000000 ) ) ;
#240 = DIRECTION ( 'NONE',  ( 0.000000000000000000, 0.000000000000000000, 1.000000000000000000 ) ) ;
#241 = CARTESIAN_POINT ( 'NONE',  ( 100.0000000000000000, 60.00000000000000000, -10.00000000000000888 ) ) ;
#242 = LINE ( 'NONE', #3, #829 ) ;
#243 = CARTESIAN_POINT ( 'NONE',  ( 6.249999999999939604, 8.000000000000000000, 12.72531754730552400 ) ) ;
#244 = DIRECTION ( 'NONE',  ( 0.000000000000000000, 0.000000000000000000, 1.000000000000000000 ) ) ;
#245 = CARTESIAN_POINT ( 'NONE',  ( 0.4945549005894696593, 8.000000000000000000, -16.48516335298231894 ) ) ;
#246 = AXIS2_PLACEMENT_3D ( 'NONE', #69, #527, #1004 ) ;
#247 = ORIENTED_EDGE ( 'NONE', *, *, #512, .F. ) ;
#248 = DIRECTION ( 'NONE',  ( -0.000000000000000000, -1.000000000000000000, -0.000000000000000000 ) ) ;
#249 = CIRCLE ( 'NONE', #781, 2.500000000000000444 ) ;
#250 = DIRECTION ( 'NONE',  ( 0.000000000000000000, 0.000000000000000000, 1.000000000000000000 ) ) ;
#251 = AXIS2_PLACEMENT_3D ( 'NONE', #326, #935, #474 ) ;
#252 = AXIS2_PLACEMENT_3D ( 'NONE', #62, #281, #439 ) ;
#253 = ORIENTED_EDGE ( 'NONE', *, *, #380, .T. ) ;
#254 = EDGE_CURVE ( 'NONE', #118, #28, #977, .T. ) ;
#255 = VERTEX_POINT ( 'NONE', #557 ) ;
#256 = CARTESIAN_POINT ( 'NONE',  ( 100.0000000000000000, 8.000000000000000000, -10.00000000000000888 ) ) ;
#257 = ORIENTED_EDGE ( 'NONE', *, *, #880, .F. ) ;
#258 = ORIENTED_EDGE ( 'NONE', *, *, #366, .F. ) ;
#259 = CARTESIAN_POINT ( 'NONE',  ( -8.833459118600627491, 0.000000000000000000, 2.600000000000372680 ) ) ;
#260 = CARTESIAN_POINT ( 'NONE',  ( 100.0000000000000142, 8.000000000000000000, -13.50000000000000000 ) ) ;
#261 = VERTEX_POINT ( 'NONE', #406 ) ;
#262 = DIRECTION ( 'NONE',  ( -0.9995503035223666233, 0.000000000000000000, 0.02998650910567101507 ) ) ;
#263 = ORIENTED_EDGE ( 'NONE', *, *, #83, .T. ) ;
#264 = CARTESIAN_POINT ( 'NONE',  ( 100.0000000000000000, 8.000000000000000000, 0.000000000000000000 ) ) ;
#265 = EDGE_CURVE ( 'NONE', #716, #368, #449, .T. ) ;
#266 = EDGE_CURVE ( 'NONE', #599, #404, #151, .T. ) ;
#267 = AXIS2_PLACEMENT_3D ( 'NONE', #217, #133, #459 ) ;
#268 = AXIS2_PLACEMENT_3D ( 'NONE', #570, #882, #429 ) ;
#269 = ORIENTED_EDGE ( 'NONE', *, *, #623, .T. ) ;
#270 = CIRCLE ( 'NONE', #645, 1.900000000000000133 ) ;
#271 = CARTESIAN_POINT ( 'NONE',  ( 0.9891098011789096756, 0.000000000000000000, -16.47032670596463788 ) ) ;
#272 = ORIENTED_EDGE ( 'NONE', *, *, #601, .T. ) ;
#273 = DIRECTION ( 'NONE',  ( -0.000000000000000000, 1.000000000000000000, -0.000000000000000000 ) ) ;
#274 = FACE_OUTER_BOUND ( 'NONE', #52, .T. ) ;
#275 = EDGE_CURVE ( 'NONE', #210, #76, #750, .T. ) ;
#276 = EDGE_LOOP ( 'NONE', ( #492, #96, #2, #921 ) ) ;
#277 = ORIENTED_EDGE ( 'NONE', *, *, #347, .T. ) ;
#278 = DIRECTION ( 'NONE',  ( 0.000000000000000000, 0.000000000000000000, 1.000000000000000000 ) ) ;
#279 = CARTESIAN_POINT ( 'NONE',  ( -8.833459118600627491, 0.000000000000000000, 7.600000000000373568 ) ) ;
#280 = ADVANCED_FACE ( 'NONE', ( #797 ), #155, .F. ) ;
#281 = DIRECTION ( 'NONE',  ( 0.000000000000000000, 1.000000000000000000, -0.000000000000000000 ) ) ;
#282 = VERTEX_POINT ( 'NONE', #487 ) ;
#283 = DIRECTION ( 'NONE',  ( 0.000000000000000000, 0.000000000000000000, 1.000000000000000000 ) ) ;
#284 = FACE_BOUND ( 'NONE', #654, .T. ) ;
#285 = AXIS2_PLACEMENT_3D ( 'NONE', #1, #381, #690 ) ;
#286 = CIRCLE ( 'NONE', #858, 13.50000000000000000 ) ;
#287 = CIRCLE ( 'NONE', #844, 1.900000000000000577 ) ;
#288 = PRODUCT_DEFINITION ( 'æœ', '', #697, #929 ) ;
#289 = ORIENTED_EDGE ( 'NONE', *, *, #525, .T. ) ;
#290 = DIRECTION ( 'NONE',  ( 0.000000000000000000, 1.000000000000000000, 0.000000000000000000 ) ) ;
#291 = CARTESIAN_POINT ( 'NONE',  ( 8.833459118601924231, 8.000000000000000000, 5.099999999999623057 ) ) ;
#292 = CARTESIAN_POINT ( 'NONE',  ( 8.833459118601924231, 0.000000000000000000, 2.599999999999622613 ) ) ;
#293 = FACE_BOUND ( 'NONE', #196, .T. ) ;
#294 = ORIENTED_EDGE ( 'NONE', *, *, #743, .F. ) ;
#295 = CARTESIAN_POINT ( 'NONE',  ( 6.250000000000010658, 0.000000000000000000, -12.72531754730547782 ) ) ;
#296 = DIRECTION ( 'NONE',  ( 0.000000000000000000, -0.000000000000000000, 1.000000000000000000 ) ) ;
#297 = FACE_BOUND ( 'NONE', #972, .T. ) ;
#298 = ORIENTED_EDGE ( 'NONE', *, *, #786, .T. ) ;
#299 = DIRECTION ( 'NONE',  ( -0.000000000000000000, 1.000000000000000000, -0.000000000000000000 ) ) ;
#300 = CARTESIAN_POINT ( 'NONE',  ( 0.000000000000000000, 8.000000000000000000, 0.000000000000000000 ) ) ;
#301 = AXIS2_PLACEMENT_3D ( 'NONE', #861, #939, #414 ) ;
#302 = AXIS2_PLACEMENT_3D ( 'NONE', #857, #801, #787 ) ;
#303 = AXIS2_PLACEMENT_3D ( 'NONE', #606, #216, #10 ) ;
#304 = ORIENTED_EDGE ( 'NONE', *, *, #15, .F. ) ;
#305 = CARTESIAN_POINT ( 'NONE',  ( -12.50000000000000355, 8.000000000000000000, -1.900000000000127809 ) ) ;
#306 = VECTOR ( 'NONE', #351, 1000.000000000000000 ) ;
#307 = CARTESIAN_POINT ( 'NONE',  ( 0.000000000000000000, 8.000000000000000000, 0.000000000000000000 ) ) ;
#308 = EDGE_CURVE ( 'NONE', #118, #966, #695, .T. ) ;
#309 = ORIENTED_EDGE ( 'NONE', *, *, #185, .F. ) ;
#310 = DIRECTION ( 'NONE',  ( 0.000000000000000000, 1.000000000000000000, 0.000000000000000000 ) ) ;
#311 = DIRECTION ( 'NONE',  ( 0.000000000000000000, 0.000000000000000000, 1.000000000000000000 ) ) ;
#312 = LINE ( 'NONE', #997, #938 ) ;
#313 = ADVANCED_FACE ( 'NONE', ( #274 ), #509, .F. ) ;
#314 = ORIENTED_EDGE ( 'NONE', *, *, #308, .T. ) ;
#315 = EDGE_CURVE ( 'NONE', #588, #4, #813, .T. ) ;
#316 = PRODUCT_DEFINITION_SHAPE ( 'NONE', 'NONE',  #288 ) ;
#317 = DIRECTION ( 'NONE',  ( 0.000000000000000000, 1.000000000000000000, 0.000000000000000000 ) ) ;
#318 = CARTESIAN_POINT ( 'NONE',  ( -8.833459118600627491, 0.000000000000000000, 5.100000000000373568 ) ) ;
#319 = ORIENTED_EDGE ( 'NONE', *, *, #477, .F. ) ;
#320 = CARTESIAN_POINT ( 'NONE',  ( 100.0000000000000000, 8.000000000000000000, 0.000000000000000000 ) ) ;
#321 = CIRCLE ( 'NONE', #903, 10.00000000000000888 ) ;
#322 = AXIS2_PLACEMENT_3D ( 'NONE', #455, #995, #758 ) ;
#323 = LINE ( 'NONE', #1007, #905 ) ;
#324 = VECTOR ( 'NONE', #38, 1000.000000000000114 ) ;
#325 = DIRECTION ( 'NONE',  ( -0.000000000000000000, 1.000000000000000000, -0.000000000000000000 ) ) ;
#326 = CARTESIAN_POINT ( 'NONE',  ( 12.50000000000000355, 8.000000000000000000, 4.163336342344337027E-14 ) ) ;
#327 = ORIENTED_EDGE ( 'NONE', *, *, #855, .T. ) ;
#328 = DIRECTION ( 'NONE',  ( 0.000000000000000000, 0.000000000000000000, 1.000000000000000000 ) ) ;
#329 = CARTESIAN_POINT ( 'NONE',  ( 100.0000000000000000, 8.000000000000000000, 0.000000000000000000 ) ) ;
#330 = EDGE_CURVE ( 'NONE', #966, #394, #739, .T. ) ;
#331 = CARTESIAN_POINT ( 'NONE',  ( 0.000000000000000000, 8.000000000000000000, 0.000000000000000000 ) ) ;
#332 = FACE_OUTER_BOUND ( 'NONE', #566, .T. ) ;
#333 = DIRECTION ( 'NONE',  ( 0.000000000000000000, 1.000000000000000000, 0.000000000000000000 ) ) ;
#334 = ORIENTED_EDGE ( 'NONE', *, *, #266, .T. ) ;
#335 = CYLINDRICAL_SURFACE ( 'NONE', #336, 1.900000000000000577 ) ;
#336 = AXIS2_PLACEMENT_3D ( 'NONE', #343, #957, #197 ) ;
#337 = DIRECTION ( 'NONE',  ( 0.000000000000000000, 1.000000000000000000, 0.000000000000000000 ) ) ;
#338 = CIRCLE ( 'NONE', #595, 1.900000000000000133 ) ;
#339 = ORIENTED_EDGE ( 'NONE', *, *, #266, .F. ) ;
#340 = EDGE_CURVE ( 'NONE', #659, #282, #106, .T. ) ;
#341 = CARTESIAN_POINT ( 'NONE',  ( 6.249999999999939604, 0.000000000000000000, 12.72531754730552400 ) ) ;
#342 = ORIENTED_EDGE ( 'NONE', *, *, #834, .T. ) ;
#343 = CARTESIAN_POINT ( 'NONE',  ( 6.249999999999939604, 0.000000000000000000, 10.82531754730552365 ) ) ;
#344 = ORIENTED_EDGE ( 'NONE', *, *, #526, .F. ) ;
#345 = EDGE_CURVE ( 'NONE', #172, #687, #560, .T. ) ;
#346 = CARTESIAN_POINT ( 'NONE',  ( -12.50000000000000355, 0.000000000000000000, -1.900000000000127809 ) ) ;
#347 = EDGE_CURVE ( 'NONE', #220, #577, #323, .T. ) ;
#348 = ORIENTED_EDGE ( 'NONE', *, *, #959, .F. ) ;
#349 = CARTESIAN_POINT ( 'NONE',  ( 0.9891098011789096756, 8.000000000000000000, 16.47032670596463788 ) ) ;
#350 = ORIENTED_EDGE ( 'NONE', *, *, #113, .T. ) ;
#351 = DIRECTION ( 'NONE',  ( -0.000000000000000000, 1.000000000000000000, -0.000000000000000000 ) ) ;
#352 = EDGE_LOOP ( 'NONE', ( #224, #747, #361, #958 ) ) ;
#353 = DIRECTION ( 'NONE',  ( -0.000000000000000000, 1.000000000000000000, -0.000000000000000000 ) ) ;
#354 = ADVANCED_FACE ( 'NONE', ( #19 ), #947, .T. ) ;
#355 = AXIS2_PLACEMENT_3D ( 'NONE', #36, #353, #413 ) ;
#356 = ORIENTED_EDGE ( 'NONE', *, *, #131, .T. ) ;
#357 = AXIS2_PLACEMENT_3D ( 'NONE', #568, #660, #582 ) ;
#358 = CARTESIAN_POINT ( 'NONE',  ( -6.250000000000094147, 0.000000000000000000, 8.925317547305438026 ) ) ;
#359 = ORIENTED_EDGE ( 'NONE', *, *, #598, .F. ) ;
#360 = CARTESIAN_POINT ( 'NONE',  ( 3.061616997868383634E-16, 0.000000000000000000, -12.69999999999999929 ) ) ;
#361 = ORIENTED_EDGE ( 'NONE', *, *, #743, .T. ) ;
#362 = APPLICATION_PROTOCOL_DEFINITION ( 'draft international standard', 'automotive_design', 1998, #712 ) ;
#363 = ORIENTED_EDGE ( 'NONE', *, *, #392, .F. ) ;
#364 = DIRECTION ( 'NONE',  ( 0.000000000000000000, 0.000000000000000000, 1.000000000000000000 ) ) ;
#365 = ORIENTED_EDGE ( 'NONE', *, *, #237, .F. ) ;
#366 = EDGE_CURVE ( 'NONE', #128, #140, #249, .T. ) ;
#367 = FACE_OUTER_BOUND ( 'NONE', #827, .T. ) ;
#368 = VERTEX_POINT ( 'NONE', #700 ) ;
#369 = CARTESIAN_POINT ( 'NONE',  ( -6.250000000000094147, 8.000000000000000000, 8.925317547305438026 ) ) ;
#370 = CYLINDRICAL_SURFACE ( 'NONE', #678, 16.50000000000000000 ) ;
#371 = VECTOR ( 'NONE', #202, 1000.000000000000000 ) ;
#372 = AXIS2_PLACEMENT_3D ( 'NONE', #942, #639, #240 ) ;
#373 = ORIENTED_EDGE ( 'NONE', *, *, #759, .T. ) ;
#374 = DIRECTION ( 'NONE',  ( 0.000000000000000000, 0.000000000000000000, 1.000000000000000000 ) ) ;
#375 = CARTESIAN_POINT ( 'NONE',  ( 0.000000000000000000, 0.000000000000000000, 0.000000000000000000 ) ) ;
#376 = CARTESIAN_POINT ( 'NONE',  ( 0.9891098011789094535, 0.000000000000000000, 16.47032670596463433 ) ) ;
#377 = ADVANCED_FACE ( 'NONE', ( #153 ), #551, .F. ) ;
#378 = ORIENTED_EDGE ( 'NONE', *, *, #887, .F. ) ;
#379 = DIRECTION ( 'NONE',  ( -0.000000000000000000, 1.000000000000000000, -0.000000000000000000 ) ) ;
#380 = EDGE_CURVE ( 'NONE', #984, #214, #403, .T. ) ;
#381 = DIRECTION ( 'NONE',  ( -0.000000000000000000, 1.000000000000000000, -0.000000000000000000 ) ) ;
#382 = FACE_BOUND ( 'NONE', #616, .T. ) ;
#383 = EDGE_LOOP ( 'NONE', ( #488, #51 ) ) ;
#384 = CARTESIAN_POINT ( 'NONE',  ( -6.250000000000016875, 8.000000000000000000, -10.82531754730547568 ) ) ;
#385 = EDGE_CURVE ( 'NONE', #599, #703, #626, .T. ) ;
#386 = CARTESIAN_POINT ( 'NONE',  ( -6.250000000000094147, 0.000000000000000000, 12.72531754730543874 ) ) ;
#387 = CIRCLE ( 'NONE', #953, 2.500000000000000444 ) ;
#388 = CIRCLE ( 'NONE', #908, 1.900000000000000133 ) ;
#389 = EDGE_LOOP ( 'NONE', ( #427, #446, #37, #609 ) ) ;
#390 = CARTESIAN_POINT ( 'NONE',  ( 0.000000000000000000, 0.000000000000000000, -10.19999999999999929 ) ) ;
#391 = LINE ( 'NONE', #418, #73 ) ;
#392 = EDGE_CURVE ( 'NONE', #255, #590, #665, .T. ) ;
#393 = DIRECTION ( 'NONE',  ( 0.000000000000000000, 1.000000000000000000, -0.000000000000000000 ) ) ;
#394 = VERTEX_POINT ( 'NONE', #243 ) ;
#395 = DIRECTION ( 'NONE',  ( -0.000000000000000000, -1.000000000000000000, -0.000000000000000000 ) ) ;
#396 = DIRECTION ( 'NONE',  ( -0.000000000000000000, 1.000000000000000000, -0.000000000000000000 ) ) ;
#397 = CARTESIAN_POINT ( 'NONE',  ( -8.833459118600627491, 0.000000000000000000, 5.100000000000373568 ) ) ;
#398 = PRODUCT_RELATED_PRODUCT_CATEGORY ( 'part', '', ( #468 ) ) ;
#399 = ORIENTED_EDGE ( 'NONE', *, *, #925, .F. ) ;
#400 = CARTESIAN_POINT ( 'NONE',  ( 0.000000000000000000, 8.000000000000000000, -10.19999999999999929 ) ) ;
#401 = DIRECTION ( 'NONE',  ( 0.000000000000000000, 0.000000000000000000, 1.000000000000000000 ) ) ;
#402 = CARTESIAN_POINT ( 'NONE',  ( 100.0000000000000000, 60.00000000000000000, 0.000000000000000000 ) ) ;
#403 = CIRCLE ( 'NONE', #27, 1.900000000000000133 ) ;
#404 = VERTEX_POINT ( 'NONE', #563 ) ;
#405 = CARTESIAN_POINT ( 'NONE',  ( -8.833459118600627491, 0.000000000000000000, 5.100000000000373568 ) ) ;
#406 = CARTESIAN_POINT ( 'NONE',  ( 2.020667218593133100E-15, 8.000000000000000000, 16.50000000000000000 ) ) ;
#407 = CYLINDRICAL_SURFACE ( 'NONE', #372, 2.500000000000000444 ) ;
#408 = EDGE_LOOP ( 'NONE', ( #534, #998, #815, #783, #485, #596 ) ) ;
#409 = CARTESIAN_POINT ( 'NONE',  ( 6.250000000000010658, 8.000000000000000000, -10.82531754730547746 ) ) ;
#410 = CARTESIAN_POINT ( 'NONE',  ( 12.50000000000000355, 0.000000000000000000, 4.163336342344337027E-14 ) ) ;
#411 = CARTESIAN_POINT ( 'NONE',  ( 0.000000000000000000, 8.000000000000000000, 0.000000000000000000 ) ) ;
#412 = ORIENTED_EDGE ( 'NONE', *, *, #254, .F. ) ;
#413 = DIRECTION ( 'NONE',  ( 0.000000000000000000, 0.000000000000000000, 1.000000000000000000 ) ) ;
#414 = DIRECTION ( 'NONE',  ( 0.000000000000000000, 0.000000000000000000, 1.000000000000000000 ) ) ;
#415 = ORIENTED_EDGE ( 'NONE', *, *, #26, .F. ) ;
#416 = DIRECTION ( 'NONE',  ( 0.000000000000000000, 0.000000000000000000, 1.000000000000000000 ) ) ;
#417 = ORIENTED_EDGE ( 'NONE', *, *, #633, .T. ) ;
#418 = CARTESIAN_POINT ( 'NONE',  ( 2.020667218593133100E-15, 8.000000000000000000, 16.50000000000000000 ) ) ;
#419 = AXIS2_PLACEMENT_3D ( 'NONE', #600, #848, #283 ) ;
#420 = EDGE_CURVE ( 'NONE', #832, #571, #387, .T. ) ;
#421 = ORIENTED_EDGE ( 'NONE', *, *, #275, .F. ) ;
#422 = ADVANCED_FACE ( 'NONE', ( #332 ), #876, .T. ) ;
#423 = EDGE_CURVE ( 'NONE', #261, #802, #391, .T. ) ;
#424 = LINE ( 'NONE', #245, #324 ) ;
#425 = ORIENTED_EDGE ( 'NONE', *, *, #726, .T. ) ;
#426 = LINE ( 'NONE', #259, #205 ) ;
#427 = ORIENTED_EDGE ( 'NONE', *, *, #552, .F. ) ;
#428 = EDGE_LOOP ( 'NONE', ( #112, #830 ) ) ;
#429 = DIRECTION ( 'NONE',  ( 0.000000000000000000, 0.000000000000000000, 1.000000000000000000 ) ) ;
#430 = CARTESIAN_POINT ( 'NONE',  ( 0.4945549005894696593, 0.000000000000000000, 16.48516335298231894 ) ) ;
#431 = CARTESIAN_POINT ( 'NONE',  ( 6.250000000000010658, 0.000000000000000000, -8.925317547305477106 ) ) ;
#432 = ORIENTED_EDGE ( 'NONE', *, *, #988, .T. ) ;
#433 = DIRECTION ( 'NONE',  ( 0.000000000000000000, 1.000000000000000000, 0.000000000000000000 ) ) ;
#434 = AXIS2_PLACEMENT_3D ( 'NONE', #142, #456, #618 ) ;
#435 = AXIS2_PLACEMENT_3D ( 'NONE', #180, #46, #127 ) ;
#436 = AXIS2_PLACEMENT_3D ( 'NONE', #955, #117, #416 ) ;
#437 = EDGE_LOOP ( 'NONE', ( #888, #203, #277, #342 ) ) ;
#438 = AXIS2_PLACEMENT_3D ( 'NONE', #779, #790, #157 ) ;
#439 = DIRECTION ( 'NONE',  ( 0.000000000000000000, 0.000000000000000000, 1.000000000000000000 ) ) ;
#440 = VERTEX_POINT ( 'NONE', #819 ) ;
#441 = DIRECTION ( 'NONE',  ( -0.000000000000000000, 1.000000000000000000, -0.000000000000000000 ) ) ;
#442 = EDGE_LOOP ( 'NONE', ( #466, #253 ) ) ;
#443 = ORIENTED_EDGE ( 'NONE', *, *, #84, .F. ) ;
#444 = DIRECTION ( 'NONE',  ( 0.000000000000000000, 0.000000000000000000, 1.000000000000000000 ) ) ;
#445 = FACE_OUTER_BOUND ( 'NONE', #789, .T. ) ;
#446 = ORIENTED_EDGE ( 'NONE', *, *, #554, .T. ) ;
#447 = CARTESIAN_POINT ( 'NONE',  ( 0.000000000000000000, 0.000000000000000000, -10.19999999999999929 ) ) ;
#448 = FACE_BOUND ( 'NONE', #634, .T. ) ;
#449 = CIRCLE ( 'NONE', #25, 1.900000000000000577 ) ;
#450 = EDGE_CURVE ( 'NONE', #404, #979, #32, .T. ) ;
#451 = CIRCLE ( 'NONE', #419, 1.900000000000000577 ) ;
#452 = COLOUR_RGB ( '',0.7921568627450980005, 0.8196078431372548767, 0.9333333333333333481 ) ;
#453 = EDGE_CURVE ( 'NONE', #503, #585, #219, .T. ) ;
#454 = VERTEX_POINT ( 'NONE', #111 ) ;
#455 = CARTESIAN_POINT ( 'NONE',  ( 8.833459118601924231, 8.000000000000000000, 5.099999999999623057 ) ) ;
#456 = DIRECTION ( 'NONE',  ( -0.000000000000000000, 1.000000000000000000, -0.000000000000000000 ) ) ;
#457 = EDGE_LOOP ( 'NONE', ( #691, #294 ) ) ;
#458 = LINE ( 'NONE', #524, #545 ) ;
#459 = DIRECTION ( 'NONE',  ( 0.000000000000000000, 0.000000000000000000, 1.000000000000000000 ) ) ;
#460 = ORIENTED_EDGE ( 'NONE', *, *, #345, .F. ) ;
#461 = DIRECTION ( 'NONE',  ( 0.000000000000000000, 0.000000000000000000, 1.000000000000000000 ) ) ;
#462 = EDGE_CURVE ( 'NONE', #230, #499, #574, .T. ) ;
#463 = DIRECTION ( 'NONE',  ( 0.000000000000000000, 0.000000000000000000, 1.000000000000000000 ) ) ;
#464 = VECTOR ( 'NONE', #162, 1000.000000000000000 ) ;
#465 = AXIS2_PLACEMENT_3D ( 'NONE', #990, #215, #529 ) ;
#466 = ORIENTED_EDGE ( 'NONE', *, *, #207, .T. ) ;
#467 = DIRECTION ( 'NONE',  ( 0.000000000000000000, 1.000000000000000000, 0.000000000000000000 ) ) ;
#468 = PRODUCT ( '\X2\7535673a529b81c2\X0\3', '\X2\7535673a529b81c2\X0\3', '', ( #914 ) ) ;
#469 = FACE_OUTER_BOUND ( 'NONE', #727, .T. ) ;
#470 = EDGE_LOOP ( 'NONE', ( #581, #640 ) ) ;
#471 = CARTESIAN_POINT ( 'NONE',  ( 0.4945549005894696593, 0.000000000000000000, -16.48516335298231894 ) ) ;
#472 = CARTESIAN_POINT ( 'NONE',  ( -12.50000000000000355, 0.000000000000000000, 1.899999999999872680 ) ) ;
#473 = EDGE_CURVE ( 'NONE', #140, #571, #426, .T. ) ;
#474 = DIRECTION ( 'NONE',  ( 0.000000000000000000, 0.000000000000000000, 1.000000000000000000 ) ) ;
#475 = CARTESIAN_POINT ( 'NONE',  ( -12.50000000000000355, 0.000000000000000000, -1.275021754842953214E-13 ) ) ;
#476 = DIRECTION ( 'NONE',  ( 0.000000000000000000, 0.000000000000000000, 1.000000000000000000 ) ) ;
#477 = EDGE_CURVE ( 'NONE', #590, #255, #139, .T. ) ;
#478 = EDGE_CURVE ( 'NONE', #116, #528, #976, .T. ) ;
#479 = CARTESIAN_POINT ( 'NONE',  ( -6.250000000000016875, 8.000000000000000000, -8.925317547305475330 ) ) ;
#480 = VECTOR ( 'NONE', #54, 1000.000000000000000 ) ;
#481 = VECTOR ( 'NONE', #104, 1000.000000000000000 ) ;
#482 = ORIENTED_EDGE ( 'NONE', *, *, #340, .F. ) ;
#483 = CIRCLE ( 'NONE', #682, 16.50000000000000000 ) ;
#484 = DIRECTION ( 'NONE',  ( 0.000000000000000000, 0.000000000000000000, 1.000000000000000000 ) ) ;
#485 = ORIENTED_EDGE ( 'NONE', *, *, #526, .T. ) ;
#486 = DIRECTION ( 'NONE',  ( 0.02998650910567101854, -0.000000000000000000, 0.9995503035223667343 ) ) ;
#487 = CARTESIAN_POINT ( 'NONE',  ( 8.833459118601924231, 8.000000000000000000, 2.599999999999622613 ) ) ;
#488 = ORIENTED_EDGE ( 'NONE', *, *, #453, .F. ) ;
#489 = ORIENTED_EDGE ( 'NONE', *, *, #702, .T. ) ;
#490 = CYLINDRICAL_SURFACE ( 'NONE', #268, 1.900000000000000133 ) ;
#491 = ADVANCED_FACE ( 'NONE', ( #178 ), #738, .F. ) ;
#492 = ORIENTED_EDGE ( 'NONE', *, *, #554, .F. ) ;
#493 = DIRECTION ( 'NONE',  ( 0.000000000000000000, 1.000000000000000000, 0.000000000000000000 ) ) ;
#494 = AXIS2_PLACEMENT_3D ( 'NONE', #987, #393, #913 ) ;
#495 = ORIENTED_EDGE ( 'NONE', *, *, #601, .F. ) ;
#496 = DIRECTION ( 'NONE',  ( -0.000000000000000000, -1.000000000000000000, -0.000000000000000000 ) ) ;
#497 = VECTOR ( 'NONE', #53, 1000.000000000000000 ) ;
#498 = VECTOR ( 'NONE', #379, 1000.000000000000000 ) ;
#499 = VERTEX_POINT ( 'NONE', #256 ) ;
#500 = LINE ( 'NONE', #742, #768 ) ;
#501 = ORIENTED_EDGE ( 'NONE', *, *, #7, .T. ) ;
#502 = CARTESIAN_POINT ( 'NONE',  ( -6.250000000000016875, 8.000000000000000000, -12.72531754730547604 ) ) ;
#503 = VERTEX_POINT ( 'NONE', #886 ) ;
#504 = ADVANCED_FACE ( 'NONE', ( #752 ), #490, .F. ) ;
#505 = SURFACE_STYLE_USAGE ( .BOTH. , #970 ) ;
#506 = ADVANCED_FACE ( 'NONE', ( #733 ), #335, .F. ) ;
#507 = VERTEX_POINT ( 'NONE', #724 ) ;
#508 = CARTESIAN_POINT ( 'NONE',  ( 100.0000000000000000, 60.00000000000000000, 0.000000000000000000 ) ) ;
#509 = CYLINDRICAL_SURFACE ( 'NONE', #435, 1.900000000000000577 ) ;
#510 = VERTEX_POINT ( 'NONE', #184 ) ;
#511 = APPLICATION_PROTOCOL_DEFINITION ( 'draft international standard', 'automotive_design', 1998, #936 ) ;
#512 = EDGE_CURVE ( 'NONE', #569, #1005, #746, .T. ) ;
#513 = ORIENTED_EDGE ( 'NONE', *, *, #420, .T. ) ;
#514 = FACE_OUTER_BOUND ( 'NONE', #811, .T. ) ;
#515 = AXIS2_PLACEMENT_3D ( 'NONE', #375, #145, #933 ) ;
#516 = AXIS2_PLACEMENT_3D ( 'NONE', #86, #248, #231 ) ;
#517 = AXIS2_PLACEMENT_3D ( 'NONE', #402, #637, #945 ) ;
#518 = ORIENTED_EDGE ( 'NONE', *, *, #961, .T. ) ;
#519 = CARTESIAN_POINT ( 'NONE',  ( 0.000000000000000000, 0.000000000000000000, 0.000000000000000000 ) ) ;
#520 = ORIENTED_EDGE ( 'NONE', *, *, #380, .F. ) ;
#521 = CARTESIAN_POINT ( 'NONE',  ( 6.250000000000010658, 8.000000000000000000, -8.925317547305477106 ) ) ;
#522 = FACE_BOUND ( 'NONE', #932, .T. ) ;
#523 = ORIENTED_EDGE ( 'NONE', *, *, #567, .T. ) ;
#524 = CARTESIAN_POINT ( 'NONE',  ( -6.250000000000094147, 0.000000000000000000, 8.925317547305438026 ) ) ;
#525 = EDGE_CURVE ( 'NONE', #76, #210, #152, .T. ) ;
#526 = EDGE_CURVE ( 'NONE', #974, #588, #286, .T. ) ;
#527 = DIRECTION ( 'NONE',  ( -0.000000000000000000, 1.000000000000000000, -0.000000000000000000 ) ) ;
#528 = VERTEX_POINT ( 'NONE', #191 ) ;
#529 = DIRECTION ( 'NONE',  ( 0.9995503035223666233, 0.000000000000000000, 0.02998650910567101507 ) ) ;
#530 = CARTESIAN_POINT ( 'NONE',  ( -6.250000000000016875, 8.000000000000000000, -10.82531754730547568 ) ) ;
#531 = AXIS2_PLACEMENT_3D ( 'NONE', #409, #16, #328 ) ;
#532 = PRESENTATION_LAYER_ASSIGNMENT (  '', '', ( #891 ) ) ;
#533 = CIRCLE ( 'NONE', #252, 13.50000000000000000 ) ;
#534 = ORIENTED_EDGE ( 'NONE', *, *, #904, .T. ) ;
#535 = DIRECTION ( 'NONE',  ( -0.000000000000000000, -1.000000000000000000, -0.000000000000000000 ) ) ;
#536 = FACE_BOUND ( 'NONE', #676, .T. ) ;
#537 = ORIENTED_EDGE ( 'NONE', *, *, #656, .T. ) ;
#538 = CYLINDRICAL_SURFACE ( 'NONE', #630, 2.500000000000000444 ) ;
#539 = DIRECTION ( 'NONE',  ( 0.000000000000000000, 1.000000000000000000, 0.000000000000000000 ) ) ;
#540 = VERTEX_POINT ( 'NONE', #502 ) ;
#541 = DIRECTION ( 'NONE',  ( 0.000000000000000000, 0.000000000000000000, 1.000000000000000000 ) ) ;
#542 = DIRECTION ( 'NONE',  ( 0.000000000000000000, 1.000000000000000000, 0.000000000000000000 ) ) ;
#543 = DIRECTION ( 'NONE',  ( 0.000000000000000000, 0.000000000000000000, 1.000000000000000000 ) ) ;
#544 = AXIS2_PLACEMENT_3D ( 'NONE', #922, #688, #444 ) ;
#545 = VECTOR ( 'NONE', #441, 1000.000000000000000 ) ;
#546 = EDGE_LOOP ( 'NONE', ( #975, #683, #57, #671 ) ) ;
#547 = DIRECTION ( 'NONE',  ( -0.000000000000000000, 1.000000000000000000, -0.000000000000000000 ) ) ;
#548 = ADVANCED_FACE ( 'NONE', ( #40 ), #663, .F. ) ;
#549 = CARTESIAN_POINT ( 'NONE',  ( -12.50000000000000355, 0.000000000000000000, -1.275021754842953214E-13 ) ) ;
#550 = DIRECTION ( 'NONE',  ( 0.000000000000000000, 1.000000000000000000, 0.000000000000000000 ) ) ;
#551 = CYLINDRICAL_SURFACE ( 'NONE', #579, 1.900000000000000577 ) ;
#552 = EDGE_CURVE ( 'NONE', #440, #230, #236, .T. ) ;
#553 = DIRECTION ( 'NONE',  ( 0.000000000000000000, 1.000000000000000000, 0.000000000000000000 ) ) ;
#554 = EDGE_CURVE ( 'NONE', #440, #875, #589, .T. ) ;
#555 = DIRECTION ( 'NONE',  ( 0.000000000000000000, 0.000000000000000000, 1.000000000000000000 ) ) ;
#556 = EDGE_LOOP ( 'NONE', ( #304, #460, #8, #909 ) ) ;
#557 = CARTESIAN_POINT ( 'NONE',  ( 6.250000000000010658, 8.000000000000000000, -12.72531754730547782 ) ) ;
#558 = ADVANCED_FACE ( 'NONE', ( #514 ), #673, .F. ) ;
#559 = CARTESIAN_POINT ( 'NONE',  ( 100.0000000000000000, 8.000000000000000000, 10.00000000000000888 ) ) ;
#560 = CIRCLE ( 'NONE', #303, 1.900000000000000577 ) ;
#561 = CIRCLE ( 'NONE', #251, 1.900000000000000133 ) ;
#562 = ORIENTED_EDGE ( 'NONE', *, *, #619, .F. ) ;
#563 = CARTESIAN_POINT ( 'NONE',  ( 3.061616997868383634E-16, 0.000000000000000000, -12.69999999999999929 ) ) ;
#564 = AXIS2_PLACEMENT_3D ( 'NONE', #66, #137, #836 ) ;
#565 = DIRECTION ( 'NONE',  ( 0.000000000000000000, 0.000000000000000000, 1.000000000000000000 ) ) ;
#566 = EDGE_LOOP ( 'NONE', ( #818, #125, #432, #134 ) ) ;
#567 = EDGE_CURVE ( 'NONE', #716, #255, #985, .T. ) ;
#568 = CARTESIAN_POINT ( 'NONE',  ( 6.249999999999939604, 0.000000000000000000, 10.82531754730552365 ) ) ;
#569 = VERTEX_POINT ( 'NONE', #762 ) ;
#570 = CARTESIAN_POINT ( 'NONE',  ( 12.50000000000000355, 0.000000000000000000, 4.163336342344337027E-14 ) ) ;
#571 = VERTEX_POINT ( 'NONE', #58 ) ;
#572 = DIRECTION ( 'NONE',  ( -0.000000000000000000, 1.000000000000000000, -0.000000000000000000 ) ) ;
#573 = ORIENTED_EDGE ( 'NONE', *, *, #741, .T. ) ;
#574 = LINE ( 'NONE', #115, #767 ) ;
#575 = ORIENTED_EDGE ( 'NONE', *, *, #925, .T. ) ;
#576 = FACE_BOUND ( 'NONE', #428, .T. ) ;
#577 = VERTEX_POINT ( 'NONE', #221 ) ;
#578 = DIRECTION ( 'NONE',  ( 0.000000000000000000, 0.000000000000000000, 1.000000000000000000 ) ) ;
#579 = AXIS2_PLACEMENT_3D ( 'NONE', #785, #864, #5 ) ;
#580 = AXIS2_PLACEMENT_3D ( 'NONE', #163, #467, #161 ) ;
#581 = ORIENTED_EDGE ( 'NONE', *, *, #366, .T. ) ;
#582 = DIRECTION ( 'NONE',  ( 0.000000000000000000, 0.000000000000000000, 1.000000000000000000 ) ) ;
#583 = ORIENTED_EDGE ( 'NONE', *, *, #238, .F. ) ;
#584 = DIRECTION ( 'NONE',  ( 0.000000000000000000, 0.000000000000000000, 1.000000000000000000 ) ) ;
#585 = VERTEX_POINT ( 'NONE', #305 ) ;
#586 = ADVANCED_FACE ( 'NONE', ( #225 ), #692, .T. ) ;
#587 =( LENGTH_UNIT ( ) NAMED_UNIT ( * ) SI_UNIT ( .MILLI., .METRE. ) );
#588 = VERTEX_POINT ( 'NONE', #677 ) ;
#589 = LINE ( 'NONE', #901, #371 ) ;
#590 = VERTEX_POINT ( 'NONE', #521 ) ;
#591 = FACE_BOUND ( 'NONE', #100, .T. ) ;
#592 = ORIENTED_EDGE ( 'NONE', *, *, #917, .T. ) ;
#593 = DIRECTION ( 'NONE',  ( 0.000000000000000000, 1.000000000000000000, 0.000000000000000000 ) ) ;
#594 = VECTOR ( 'NONE', #193, 1000.000000000000114 ) ;
#595 = AXIS2_PLACEMENT_3D ( 'NONE', #130, #617, #374 ) ;
#596 = ORIENTED_EDGE ( 'NONE', *, *, #887, .T. ) ;
#597 = AXIS2_PLACEMENT_3D ( 'NONE', #736, #808, #34 ) ;
#598 = EDGE_CURVE ( 'NONE', #35, #510, #833, .T. ) ;
#599 = VERTEX_POINT ( 'NONE', #141 ) ;
#600 = CARTESIAN_POINT ( 'NONE',  ( -6.250000000000016875, 0.000000000000000000, -10.82531754730547568 ) ) ;
#601 = EDGE_CURVE ( 'NONE', #214, #503, #212, .T. ) ;
#602 = DIRECTION ( 'NONE',  ( 0.000000000000000000, 1.000000000000000000, 0.000000000000000000 ) ) ;
#603 = FACE_OUTER_BOUND ( 'NONE', #556, .T. ) ;
#604 = ORIENTED_EDGE ( 'NONE', *, *, #982, .F. ) ;
#605 = LINE ( 'NONE', #776, #498 ) ;
#606 = CARTESIAN_POINT ( 'NONE',  ( -6.250000000000016875, 0.000000000000000000, -10.82531754730547568 ) ) ;
#607 = DIRECTION ( 'NONE',  ( -0.000000000000000000, 1.000000000000000000, -0.000000000000000000 ) ) ;
#608 = SHAPE_DEFINITION_REPRESENTATION ( #316, #123 ) ;
#609 = ORIENTED_EDGE ( 'NONE', *, *, #462, .F. ) ;
#610 = CARTESIAN_POINT ( 'NONE',  ( 0.000000000000000000, 8.000000000000000000, -16.50000000000000000 ) ) ;
#611 = CIRCLE ( 'NONE', #713, 1.900000000000000577 ) ;
#612 = DIRECTION ( 'NONE',  ( 0.000000000000000000, 0.000000000000000000, -1.000000000000000000 ) ) ;
#613 = AXIS2_PLACEMENT_3D ( 'NONE', #549, #159, #250 ) ;
#614 = AXIS2_PLACEMENT_3D ( 'NONE', #508, #669, #278 ) ;
#615 = CIRCLE ( 'NONE', #795, 2.500000000000000444 ) ;
#616 = EDGE_LOOP ( 'NONE', ( #334, #44 ) ) ;
#617 = DIRECTION ( 'NONE',  ( 0.000000000000000000, 1.000000000000000000, 0.000000000000000000 ) ) ;
#618 = DIRECTION ( 'NONE',  ( 0.000000000000000000, 0.000000000000000000, 1.000000000000000000 ) ) ;
#619 = EDGE_CURVE ( 'NONE', #282, #659, #186, .T. ) ;
#620 = EDGE_LOOP ( 'NONE', ( #652, #954 ) ) ;
#621 = CARTESIAN_POINT ( 'NONE',  ( 2.020667218593133100E-15, 0.000000000000000000, 16.50000000000000000 ) ) ;
#622 = CARTESIAN_POINT ( 'NONE',  ( -6.250000000000016875, 0.000000000000000000, -10.82531754730547568 ) ) ;
#623 = EDGE_CURVE ( 'NONE', #687, #172, #451, .T. ) ;
#624 = ORIENTED_EDGE ( 'NONE', *, *, #170, .F. ) ;
#625 = CARTESIAN_POINT ( 'NONE',  ( -8.833459118600627491, 8.000000000000000000, 7.600000000000373568 ) ) ;
#626 = LINE ( 'NONE', #937, #826 ) ;
#627 = CYLINDRICAL_SURFACE ( 'NONE', #969, 2.500000000000000444 ) ;
#628 = AXIS2_PLACEMENT_3D ( 'NONE', #791, #82, #401 ) ;
#629 = VECTOR ( 'NONE', #299, 1000.000000000000000 ) ;
#630 = AXIS2_PLACEMENT_3D ( 'NONE', #390, #1006, #867 ) ;
#631 = VERTEX_POINT ( 'NONE', #369 ) ;
#632 = DIRECTION ( 'NONE',  ( 0.000000000000000000, 0.000000000000000000, -1.000000000000000000 ) ) ;
#633 = EDGE_CURVE ( 'NONE', #220, #507, #270, .T. ) ;
#634 = EDGE_LOOP ( 'NONE', ( #70, #840 ) ) ;
#635 = EDGE_CURVE ( 'NONE', #962, #631, #458, .T. ) ;
#636 = CARTESIAN_POINT ( 'NONE',  ( 6.249999999999939604, 0.000000000000000000, 8.925317547305521515 ) ) ;
#637 = DIRECTION ( 'NONE',  ( -0.000000000000000000, -1.000000000000000000, -0.000000000000000000 ) ) ;
#638 = DIRECTION ( 'NONE',  ( -0.000000000000000000, -1.000000000000000000, -0.000000000000000000 ) ) ;
#639 = DIRECTION ( 'NONE',  ( -0.000000000000000000, 1.000000000000000000, -0.000000000000000000 ) ) ;
#640 = ORIENTED_EDGE ( 'NONE', *, *, #185, .T. ) ;
#641 = CARTESIAN_POINT ( 'NONE',  ( 0.000000000000000000, 0.000000000000000000, 0.000000000000000000 ) ) ;
#642 = CIRCLE ( 'NONE', #267, 1.900000000000000577 ) ;
#643 = DIRECTION ( 'NONE',  ( -0.000000000000000000, 1.000000000000000000, -0.000000000000000000 ) ) ;
#644 = VECTOR ( 'NONE', #689, 1000.000000000000000 ) ;
#645 = AXIS2_PLACEMENT_3D ( 'NONE', #999, #290, #144 ) ;
#646 = ORIENTED_EDGE ( 'NONE', *, *, #764, .F. ) ;
#647 = CARTESIAN_POINT ( 'NONE',  ( -6.250000000000094147, 0.000000000000000000, 12.72531754730543874 ) ) ;
#648 = CARTESIAN_POINT ( 'NONE',  ( 8.833459118601924231, 0.000000000000000000, 7.599999999999623945 ) ) ;
#649 = ORIENTED_EDGE ( 'NONE', *, *, #340, .T. ) ;
#650 = EDGE_CURVE ( 'NONE', #507, #915, #605, .T. ) ;
#651 = CARTESIAN_POINT ( 'NONE',  ( 100.0000000000000000, 8.000000000000000000, 13.50000000000000000 ) ) ;
#652 = ORIENTED_EDGE ( 'NONE', *, *, #55, .F. ) ;
#653 = DIRECTION ( 'NONE',  ( 0.000000000000000000, 1.000000000000000000, 0.000000000000000000 ) ) ;
#654 = EDGE_LOOP ( 'NONE', ( #319, #363 ) ) ;
#655 = LINE ( 'NONE', #965, #755 ) ;
#656 = EDGE_CURVE ( 'NONE', #510, #802, #29, .T. ) ;
#657 = ORIENTED_EDGE ( 'NONE', *, *, #567, .F. ) ;
#658 = DIRECTION ( 'NONE',  ( 0.000000000000000000, 1.000000000000000000, 0.000000000000000000 ) ) ;
#659 = VERTEX_POINT ( 'NONE', #49 ) ;
#660 = DIRECTION ( 'NONE',  ( 0.000000000000000000, 1.000000000000000000, 0.000000000000000000 ) ) ;
#661 = AXIS2_PLACEMENT_3D ( 'NONE', #78, #944, #476 ) ;
#662 = ORIENTED_EDGE ( 'NONE', *, *, #473, .F. ) ;
#663 = CYLINDRICAL_SURFACE ( 'NONE', #753, 1.900000000000000577 ) ;
#664 = EDGE_CURVE ( 'NONE', #962, #116, #13, .T. ) ;
#665 = CIRCLE ( 'NONE', #531, 1.900000000000000577 ) ;
#666 = MECHANICAL_DESIGN_GEOMETRIC_PRESENTATION_REPRESENTATION (  '', ( #891 ), #43 ) ;
#667 = EDGE_LOOP ( 'NONE', ( #359, #668, #968, #228 ) ) ;
#668 = ORIENTED_EDGE ( 'NONE', *, *, #904, .F. ) ;
#669 = DIRECTION ( 'NONE',  ( 0.000000000000000000, 1.000000000000000000, -0.000000000000000000 ) ) ;
#670 = CARTESIAN_POINT ( 'NONE',  ( 6.249999999999939604, 0.000000000000000000, 12.72531754730552400 ) ) ;
#671 = ORIENTED_EDGE ( 'NONE', *, *, #478, .F. ) ;
#672 = ORIENTED_EDGE ( 'NONE', *, *, #385, .F. ) ;
#673 = CYLINDRICAL_SURFACE ( 'NONE', #544, 2.500000000000000444 ) ;
#674 = CARTESIAN_POINT ( 'NONE',  ( 6.249999999999939604, 8.000000000000000000, 8.925317547305521515 ) ) ;
#675 = EDGE_CURVE ( 'NONE', #585, #503, #338, .T. ) ;
#676 = EDGE_LOOP ( 'NONE', ( #760, #732 ) ) ;
#677 = CARTESIAN_POINT ( 'NONE',  ( 100.0000000000000142, 8.000000000000000000, -13.50000000000000000 ) ) ;
#678 = AXIS2_PLACEMENT_3D ( 'NONE', #307, #763, #612 ) ;
#679 = AXIS2_PLACEMENT_3D ( 'NONE', #97, #433, #45 ) ;
#680 = AXIS2_PLACEMENT_3D ( 'NONE', #400, #310, #18 ) ;
#681 = CARTESIAN_POINT ( 'NONE',  ( 8.833459118601924231, 0.000000000000000000, 2.599999999999622613 ) ) ;
#682 = AXIS2_PLACEMENT_3D ( 'NONE', #182, #493, #109 ) ;
#683 = ORIENTED_EDGE ( 'NONE', *, *, #635, .T. ) ;
#684 = FACE_OUTER_BOUND ( 'NONE', #804, .T. ) ;
#685 = FACE_OUTER_BOUND ( 'NONE', #408, .T. ) ;
#686 =( NAMED_UNIT ( * ) PLANE_ANGLE_UNIT ( ) SI_UNIT ( $, .RADIAN. ) );
#687 = VERTEX_POINT ( 'NONE', #126 ) ;
#688 = DIRECTION ( 'NONE',  ( -0.000000000000000000, 1.000000000000000000, -0.000000000000000000 ) ) ;
#689 = DIRECTION ( 'NONE',  ( -0.000000000000000000, 1.000000000000000000, -0.000000000000000000 ) ) ;
#690 = DIRECTION ( 'NONE',  ( 0.000000000000000000, 0.000000000000000000, 1.000000000000000000 ) ) ;
#691 = ORIENTED_EDGE ( 'NONE', *, *, #834, .F. ) ;
#692 = CYLINDRICAL_SURFACE ( 'NONE', #56, 16.50000000000000000 ) ;
#693 = AXIS2_PLACEMENT_3D ( 'NONE', #65, #835, #463 ) ;
#694 = DIRECTION ( 'NONE',  ( 0.000000000000000000, 0.000000000000000000, 1.000000000000000000 ) ) ;
#695 = CIRCLE ( 'NONE', #302, 1.900000000000000577 ) ;
#696 = UNCERTAINTY_MEASURE_WITH_UNIT (LENGTH_MEASURE( 1.000000000000000082E-05 ), #587, 'distance_accuracy_value', 'NONE');
#697 = PRODUCT_DEFINITION_FORMATION_WITH_SPECIFIED_SOURCE ( 'ä»', '', #468, .NOT_KNOWN. ) ;
#698 = ORIENTED_EDGE ( 'NONE', *, *, #1003, .T. ) ;
#699 = CARTESIAN_POINT ( 'NONE',  ( 12.50000000000000355, 8.000000000000000000, 4.163336342344337027E-14 ) ) ;
#700 = CARTESIAN_POINT ( 'NONE',  ( 6.250000000000010658, 0.000000000000000000, -8.925317547305477106 ) ) ;
#701 = CYLINDRICAL_SURFACE ( 'NONE', #285, 1.900000000000000577 ) ;
#702 = EDGE_CURVE ( 'NONE', #540, #799, #287, .T. ) ;
#703 = VERTEX_POINT ( 'NONE', #135 ) ;
#704 = FACE_OUTER_BOUND ( 'NONE', #775, .T. ) ;
#705 = ORIENTED_EDGE ( 'NONE', *, *, #330, .F. ) ;
#706 = DIRECTION ( 'NONE',  ( -0.000000000000000000, -1.000000000000000000, -0.000000000000000000 ) ) ;
#707 = EDGE_CURVE ( 'NONE', #404, #599, #615, .T. ) ;
#708 = ORIENTED_EDGE ( 'NONE', *, *, #113, .F. ) ;
#709 = ADVANCED_FACE ( 'NONE', ( #684 ), #916, .F. ) ;
#710 = CYLINDRICAL_SURFACE ( 'NONE', #714, 1.900000000000000133 ) ;
#711 = FACE_OUTER_BOUND ( 'NONE', #778, .T. ) ;
#712 = APPLICATION_CONTEXT ( 'automotive_design' ) ;
#713 = AXIS2_PLACEMENT_3D ( 'NONE', #530, #539, #924 ) ;
#714 = AXIS2_PLACEMENT_3D ( 'NONE', #229, #9, #541 ) ;
#715 = FACE_OUTER_BOUND ( 'NONE', #950, .T. ) ;
#716 = VERTEX_POINT ( 'NONE', #14 ) ;
#717 = DIRECTION ( 'NONE',  ( 0.000000000000000000, 0.000000000000000000, 1.000000000000000000 ) ) ;
#718 = DIRECTION ( 'NONE',  ( 0.000000000000000000, 0.000000000000000000, 1.000000000000000000 ) ) ;
#719 = DIRECTION ( 'NONE',  ( -0.000000000000000000, -1.000000000000000000, -0.000000000000000000 ) ) ;
#720 = DIRECTION ( 'NONE',  ( 0.000000000000000000, 0.000000000000000000, 1.000000000000000000 ) ) ;
#721 = DIRECTION ( 'NONE',  ( -0.000000000000000000, 1.000000000000000000, -0.000000000000000000 ) ) ;
#722 = CARTESIAN_POINT ( 'NONE',  ( 12.50000000000000355, 8.000000000000000000, -1.899999999999958611 ) ) ;
#723 = ORIENTED_EDGE ( 'NONE', *, *, #788, .T. ) ;
#724 = CARTESIAN_POINT ( 'NONE',  ( 12.50000000000000355, 0.000000000000000000, -1.899999999999958611 ) ) ;
#725 = DIRECTION ( 'NONE',  ( 0.000000000000000000, 1.000000000000000000, -0.000000000000000000 ) ) ;
#726 = EDGE_CURVE ( 'NONE', #4, #859, #851, .T. ) ;
#727 = EDGE_LOOP ( 'NONE', ( #263, #989 ) ) ;
#728 = CIRCLE ( 'NONE', #693, 1.900000000000000577 ) ;
#729 = CARTESIAN_POINT ( 'NONE',  ( 0.000000000000000000, 8.000000000000000000, -10.19999999999999929 ) ) ;
#730 = AXIS2_PLACEMENT_3D ( 'NONE', #812, #658, #967 ) ;
#731 = AXIS2_PLACEMENT_3D ( 'NONE', #860, #317, #555 ) ;
#732 = ORIENTED_EDGE ( 'NONE', *, *, #702, .F. ) ;
#733 = FACE_OUTER_BOUND ( 'NONE', #33, .T. ) ;
#734 =( GEOMETRIC_REPRESENTATION_CONTEXT ( 3 ) GLOBAL_UNCERTAINTY_ASSIGNED_CONTEXT ( ( #696 ) ) GLOBAL_UNIT_ASSIGNED_CONTEXT ( ( #587, #686, #993 ) ) REPRESENTATION_CONTEXT ( 'NONE', 'WORKASPACE' ) );
#735 = ORIENTED_EDGE ( 'NONE', *, *, #423, .F. ) ;
#736 = CARTESIAN_POINT ( 'NONE',  ( -6.250000000000094147, 0.000000000000000000, 10.82531754730543838 ) ) ;
#737 = VERTEX_POINT ( 'NONE', #80 ) ;
#738 = CYLINDRICAL_SURFACE ( 'NONE', #355, 1.900000000000000577 ) ;
#739 = LINE ( 'NONE', #670, #644 ) ;
#740 = ORIENTED_EDGE ( 'NONE', *, *, #84, .T. ) ;
#741 = EDGE_CURVE ( 'NONE', #210, #659, #242, .T. ) ;
#742 = CARTESIAN_POINT ( 'NONE',  ( -6.250000000000016875, 0.000000000000000000, -8.925317547305475330 ) ) ;
#743 = EDGE_CURVE ( 'NONE', #915, #577, #388, .T. ) ;
#744 = ADVANCED_FACE ( 'NONE', ( #715 ), #234, .F. ) ;
#745 = ORIENTED_EDGE ( 'NONE', *, *, #525, .F. ) ;
#746 = LINE ( 'NONE', #349, #923 ) ;
#747 = ORIENTED_EDGE ( 'NONE', *, *, #650, .T. ) ;
#748 = CARTESIAN_POINT ( 'NONE',  ( -12.50000000000000355, 0.000000000000000000, -1.900000000000127809 ) ) ;
#749 = AXIS2_PLACEMENT_3D ( 'NONE', #397, #333, #94 ) ;
#750 = CIRCLE ( 'NONE', #871, 2.500000000000000444 ) ;
#751 = ORIENTED_EDGE ( 'NONE', *, *, #265, .F. ) ;
#752 = FACE_OUTER_BOUND ( 'NONE', #352, .T. ) ;
#753 = AXIS2_PLACEMENT_3D ( 'NONE', #973, #273, #584 ) ;
#754 = AXIS2_PLACEMENT_3D ( 'NONE', #411, #798, #101 ) ;
#755 = VECTOR ( 'NONE', #262, 1000.000000000000114 ) ;
#756 = ORIENTED_EDGE ( 'NONE', *, *, #450, .T. ) ;
#757 = EDGE_LOOP ( 'NONE', ( #165, #399, #900, #896 ) ) ;
#758 = DIRECTION ( 'NONE',  ( 0.000000000000000000, 0.000000000000000000, 1.000000000000000000 ) ) ;
#759 = EDGE_CURVE ( 'NONE', #571, #832, #154, .T. ) ;
#760 = ORIENTED_EDGE ( 'NONE', *, *, #98, .F. ) ;
#761 = ORIENTED_EDGE ( 'NONE', *, *, #855, .F. ) ;
#762 = CARTESIAN_POINT ( 'NONE',  ( 0.9891098011789094535, 8.000000000000000000, 16.47032670596463433 ) ) ;
#763 = DIRECTION ( 'NONE',  ( -0.000000000000000000, -1.000000000000000000, -0.000000000000000000 ) ) ;
#764 = EDGE_CURVE ( 'NONE', #368, #716, #108, .T. ) ;
#765 = ORIENTED_EDGE ( 'NONE', *, *, #345, .T. ) ;
#766 = DIRECTION ( 'NONE',  ( 0.000000000000000000, 0.000000000000000000, 1.000000000000000000 ) ) ;
#767 = VECTOR ( 'NONE', #963, 1000.000000000000000 ) ;
#768 = VECTOR ( 'NONE', #572, 1000.000000000000000 ) ;
#769 = FACE_BOUND ( 'NONE', #457, .T. ) ;
#770 = ADVANCED_FACE ( 'NONE', ( #854 ), #538, .F. ) ;
#771 = FACE_BOUND ( 'NONE', #470, .T. ) ;
#772 = ORIENTED_EDGE ( 'NONE', *, *, #959, .T. ) ;
#773 = DIRECTION ( 'NONE',  ( 0.000000000000000000, 0.000000000000000000, 1.000000000000000000 ) ) ;
#774 = FACE_BOUND ( 'NONE', #620, .T. ) ;
#775 = EDGE_LOOP ( 'NONE', ( #883, #339, #143, #518 ) ) ;
#776 = CARTESIAN_POINT ( 'NONE',  ( 12.50000000000000355, 0.000000000000000000, -1.899999999999958611 ) ) ;
#777 = FACE_BOUND ( 'NONE', #208, .T. ) ;
#778 = EDGE_LOOP ( 'NONE', ( #745, #350, #837, #863 ) ) ;
#779 = CARTESIAN_POINT ( 'NONE',  ( 6.250000000000010658, 0.000000000000000000, -10.82531754730547746 ) ) ;
#780 = FACE_BOUND ( 'NONE', #926, .T. ) ;
#781 = AXIS2_PLACEMENT_3D ( 'NONE', #405, #542, #311 ) ;
#782 = AXIS2_PLACEMENT_3D ( 'NONE', #912, #64, #364 ) ;
#783 = ORIENTED_EDGE ( 'NONE', *, *, #988, .F. ) ;
#784 = CYLINDRICAL_SURFACE ( 'NONE', #810, 16.50000000000000000 ) ;
#785 = CARTESIAN_POINT ( 'NONE',  ( -6.250000000000094147, 0.000000000000000000, 10.82531754730543838 ) ) ;
#786 = EDGE_CURVE ( 'NONE', #507, #220, #90, .T. ) ;
#787 = DIRECTION ( 'NONE',  ( 0.000000000000000000, 0.000000000000000000, 1.000000000000000000 ) ) ;
#788 = EDGE_CURVE ( 'NONE', #979, #703, #986, .T. ) ;
#789 = EDGE_LOOP ( 'NONE', ( #348, #67, #272, #847 ) ) ;
#790 = DIRECTION ( 'NONE',  ( 0.000000000000000000, 1.000000000000000000, 0.000000000000000000 ) ) ;
#791 = CARTESIAN_POINT ( 'NONE',  ( 0.000000000000000000, 60.00000000000000000, 0.000000000000000000 ) ) ;
#792 = FACE_OUTER_BOUND ( 'NONE', #389, .T. ) ;
#793 = DIRECTION ( 'NONE',  ( 0.000000000000000000, 0.000000000000000000, 1.000000000000000000 ) ) ;
#794 = AXIS2_PLACEMENT_3D ( 'NONE', #167, #24, #484 ) ;
#795 = AXIS2_PLACEMENT_3D ( 'NONE', #447, #980, #766 ) ;
#796 = CYLINDRICAL_SURFACE ( 'NONE', #188, 13.50000000000000000 ) ;
#797 = FACE_OUTER_BOUND ( 'NONE', #437, .T. ) ;
#798 = DIRECTION ( 'NONE',  ( 0.000000000000000000, 1.000000000000000000, 0.000000000000000000 ) ) ;
#799 = VERTEX_POINT ( 'NONE', #479 ) ;
#800 = DIRECTION ( 'NONE',  ( 0.9995503035223666233, 0.000000000000000000, -0.02998650910567101507 ) ) ;
#801 = DIRECTION ( 'NONE',  ( 0.000000000000000000, 1.000000000000000000, 0.000000000000000000 ) ) ;
#802 = VERTEX_POINT ( 'NONE', #621 ) ;
#803 =( NAMED_UNIT ( * ) SI_UNIT ( $, .STERADIAN. ) SOLID_ANGLE_UNIT ( ) );
#804 = EDGE_LOOP ( 'NONE', ( #425, #624, #378, #233 ) ) ;
#805 = DIRECTION ( 'NONE',  ( -0.000000000000000000, 1.000000000000000000, -0.000000000000000000 ) ) ;
#806 = ADVANCED_FACE ( 'NONE', ( #931 ), #710, .F. ) ;
#807 = EDGE_LOOP ( 'NONE', ( #765, #269 ) ) ;
#808 = DIRECTION ( 'NONE',  ( 0.000000000000000000, 1.000000000000000000, 0.000000000000000000 ) ) ;
#809 = AXIS2_PLACEMENT_3D ( 'NONE', #173, #486, #800 ) ;
#810 = AXIS2_PLACEMENT_3D ( 'NONE', #331, #395, #92 ) ;
#811 = EDGE_LOOP ( 'NONE', ( #309, #934, #373, #415 ) ) ;
#812 = CARTESIAN_POINT ( 'NONE',  ( 8.833459118601924231, 0.000000000000000000, 5.099999999999623057 ) ) ;
#813 = LINE ( 'NONE', #260, #481 ) ;
#814 = ADVANCED_FACE ( 'NONE', ( #150 ), #796, .T. ) ;
#815 = ORIENTED_EDGE ( 'NONE', *, *, #179, .T. ) ;
#816 = ADVANCED_FACE ( 'NONE', ( #77 ), #784, .T. ) ;
#817 = DIRECTION ( 'NONE',  ( 0.000000000000000000, 1.000000000000000000, 0.000000000000000000 ) ) ;
#818 = ORIENTED_EDGE ( 'NONE', *, *, #7, .F. ) ;
#819 = CARTESIAN_POINT ( 'NONE',  ( 100.0000000000000000, 60.00000000000000000, 10.00000000000000888 ) ) ;
#820 = LINE ( 'NONE', #41, #121 ) ;
#821 = ADVANCED_FACE ( 'NONE', ( #704 ), #407, .F. ) ;
#822 = EDGE_LOOP ( 'NONE', ( #520, #772, #120, #495 ) ) ;
#823 = DIRECTION ( 'NONE',  ( -0.000000000000000000, 1.000000000000000000, -0.000000000000000000 ) ) ;
#824 = DIRECTION ( 'NONE',  ( -0.000000000000000000, 1.000000000000000000, -0.000000000000000000 ) ) ;
#825 = CIRCLE ( 'NONE', #661, 16.50000000000000000 ) ;
#826 = VECTOR ( 'NONE', #81, 1000.000000000000000 ) ;
#827 = EDGE_LOOP ( 'NONE', ( #365, #906, #853, #501, #443, #31 ) ) ;
#828 = CARTESIAN_POINT ( 'NONE',  ( -12.50000000000000355, 0.000000000000000000, 1.899999999999872680 ) ) ;
#829 = VECTOR ( 'NONE', #71, 1000.000000000000000 ) ;
#830 = ORIENTED_EDGE ( 'NONE', *, *, #265, .T. ) ;
#831 = DIRECTION ( 'NONE',  ( 0.000000000000000000, 0.000000000000000000, 1.000000000000000000 ) ) ;
#832 = VERTEX_POINT ( 'NONE', #625 ) ;
#833 = LINE ( 'NONE', #610, #497 ) ;
#834 = EDGE_CURVE ( 'NONE', #577, #915, #561, .T. ) ;
#835 = DIRECTION ( 'NONE',  ( 0.000000000000000000, 1.000000000000000000, 0.000000000000000000 ) ) ;
#836 = DIRECTION ( 'NONE',  ( 0.000000000000000000, -0.000000000000000000, 1.000000000000000000 ) ) ;
#837 = ORIENTED_EDGE ( 'NONE', *, *, #619, .T. ) ;
#838 = DIRECTION ( 'NONE',  ( 0.000000000000000000, 1.000000000000000000, 0.000000000000000000 ) ) ;
#839 = FACE_OUTER_BOUND ( 'NONE', #48, .T. ) ;
#840 = ORIENTED_EDGE ( 'NONE', *, *, #788, .F. ) ;
#841 = DIRECTION ( 'NONE',  ( -0.000000000000000000, 1.000000000000000000, -0.000000000000000000 ) ) ;
#842 = CIRCLE ( 'NONE', #613, 1.900000000000000133 ) ;
#843 = AXIS2_PLACEMENT_3D ( 'NONE', #291, #602, #996 ) ;
#844 = AXIS2_PLACEMENT_3D ( 'NONE', #384, #593, #927 ) ;
#845 = CYLINDRICAL_SURFACE ( 'NONE', #434, 2.500000000000000444 ) ;
#846 = ADVANCED_FACE ( 'NONE', ( #792 ), #85, .T. ) ;
#847 = ORIENTED_EDGE ( 'NONE', *, *, #453, .T. ) ;
#848 = DIRECTION ( 'NONE',  ( 0.000000000000000000, 1.000000000000000000, 0.000000000000000000 ) ) ;
#849 = CARTESIAN_POINT ( 'NONE',  ( 6.249999999999939604, 0.000000000000000000, 8.925317547305521515 ) ) ;
#850 = EDGE_LOOP ( 'NONE', ( #417, #298 ) ) ;
#851 = LINE ( 'NONE', #471, #122 ) ;
#852 = FACE_OUTER_BOUND ( 'NONE', #885, .T. ) ;
#853 = ORIENTED_EDGE ( 'NONE', *, *, #1003, .F. ) ;
#854 = FACE_OUTER_BOUND ( 'NONE', #110, .T. ) ;
#855 = EDGE_CURVE ( 'NONE', #966, #118, #971, .T. ) ;
#856 = CIRCLE ( 'NONE', #301, 1.900000000000000577 ) ;
#857 = CARTESIAN_POINT ( 'NONE',  ( 6.249999999999939604, 0.000000000000000000, 10.82531754730552365 ) ) ;
#858 = AXIS2_PLACEMENT_3D ( 'NONE', #264, #897, #578 ) ;
#859 = VERTEX_POINT ( 'NONE', #271 ) ;
#860 = CARTESIAN_POINT ( 'NONE',  ( -8.833459118600627491, 8.000000000000000000, 5.100000000000373568 ) ) ;
#861 = CARTESIAN_POINT ( 'NONE',  ( 6.249999999999939604, 8.000000000000000000, 10.82531754730552365 ) ) ;
#862 = DIRECTION ( 'NONE',  ( 0.000000000000000000, 0.000000000000000000, 1.000000000000000000 ) ) ;
#863 = ORIENTED_EDGE ( 'NONE', *, *, #741, .F. ) ;
#864 = DIRECTION ( 'NONE',  ( -0.000000000000000000, 1.000000000000000000, -0.000000000000000000 ) ) ;
#865 = DIRECTION ( 'NONE',  ( 0.000000000000000000, 0.000000000000000000, 1.000000000000000000 ) ) ;
#866 = EDGE_CURVE ( 'NONE', #172, #799, #500, .T. ) ;
#867 = DIRECTION ( 'NONE',  ( 0.000000000000000000, 0.000000000000000000, 1.000000000000000000 ) ) ;
#868 = CARTESIAN_POINT ( 'NONE',  ( -8.833459118600627491, 8.000000000000000000, 5.100000000000373568 ) ) ;
#869 = CARTESIAN_POINT ( 'NONE',  ( 6.250000000000010658, 0.000000000000000000, -10.82531754730547746 ) ) ;
#870 = CLOSED_SHELL ( 'NONE', ( #846, #744, #504, #235, #160, #491, #558, #770, #313, #806, #816, #74, #586, #50, #991, #132, #93, #821, #199, #377, #506, #158, #280, #548, #422, #814, #709, #354, #227 ) ) ;
#871 = AXIS2_PLACEMENT_3D ( 'NONE', #174, #337, #543 ) ;
#872 = CIRCLE ( 'NONE', #941, 10.00000000000000888 ) ;
#873 = CIRCLE ( 'NONE', #436, 1.900000000000000577 ) ;
#874 = CARTESIAN_POINT ( 'NONE',  ( 100.0000000000000000, 8.000000000000000000, 0.000000000000000000 ) ) ;
#875 = VERTEX_POINT ( 'NONE', #559 ) ;
#876 = PLANE ( 'NONE',  #809 ) ;
#877 = CARTESIAN_POINT ( 'NONE',  ( 100.0000000000000000, 8.000000000000000000, 13.50000000000000000 ) ) ;
#878 = ORIENTED_EDGE ( 'NONE', *, *, #917, .F. ) ;
#879 = FILL_AREA_STYLE ('',( #895 ) ) ;
#880 = EDGE_CURVE ( 'NONE', #875, #499, #872, .T. ) ;
#881 = ORIENTED_EDGE ( 'NONE', *, *, #131, .F. ) ;
#882 = DIRECTION ( 'NONE',  ( -0.000000000000000000, 1.000000000000000000, -0.000000000000000000 ) ) ;
#883 = ORIENTED_EDGE ( 'NONE', *, *, #450, .F. ) ;
#884 = CARTESIAN_POINT ( 'NONE',  ( 3.061616997868383634E-16, 8.000000000000000000, -12.69999999999999929 ) ) ;
#885 = EDGE_LOOP ( 'NONE', ( #735, #604, #22, #537 ) ) ;
#886 = CARTESIAN_POINT ( 'NONE',  ( -12.50000000000000355, 8.000000000000000000, 1.899999999999872680 ) ) ;
#887 = EDGE_CURVE ( 'NONE', #588, #737, #424, .T. ) ;
#888 = ORIENTED_EDGE ( 'NONE', *, *, #650, .F. ) ;
#889 = AXIS2_PLACEMENT_3D ( 'NONE', #11, #325, #20 ) ;
#890 = DIRECTION ( 'NONE',  ( 0.000000000000000000, 1.000000000000000000, -0.000000000000000000 ) ) ;
#891 = STYLED_ITEM ( 'NONE', ( #171 ), #899 ) ;
#892 = EDGE_LOOP ( 'NONE', ( #657, #646, #592, #994 ) ) ;
#893 = DIRECTION ( 'NONE',  ( -0.000000000000000000, 1.000000000000000000, -0.000000000000000000 ) ) ;
#894 = CARTESIAN_POINT ( 'NONE',  ( 100.0000000000000142, 0.000000000000000000, -13.50000000000000000 ) ) ;
#895 = FILL_AREA_STYLE_COLOUR ( '', #452 ) ;
#896 = ORIENTED_EDGE ( 'NONE', *, *, #55, .T. ) ;
#897 = DIRECTION ( 'NONE',  ( 0.000000000000000000, 1.000000000000000000, -0.000000000000000000 ) ) ;
#898 = LINE ( 'NONE', #430, #594 ) ;
#899 = MANIFOLD_SOLID_BREP ( '\X2\51f853f0\X0\-\X2\62c94f38\X0\3', #870 ) ;
#900 = ORIENTED_EDGE ( 'NONE', *, *, #478, .T. ) ;
#901 = CARTESIAN_POINT ( 'NONE',  ( 100.0000000000000000, 60.00000000000000000, 10.00000000000000888 ) ) ;
#902 = DIRECTION ( 'NONE',  ( -0.000000000000000000, 1.000000000000000000, -0.000000000000000000 ) ) ;
#903 = AXIS2_PLACEMENT_3D ( 'NONE', #329, #725, #865 ) ;
#904 = EDGE_CURVE ( 'NONE', #737, #35, #169, .T. ) ;
#905 = VECTOR ( 'NONE', #396, 1000.000000000000000 ) ;
#906 = ORIENTED_EDGE ( 'NONE', *, *, #726, .F. ) ;
#907 = DIRECTION ( 'NONE',  ( 0.000000000000000000, 0.000000000000000000, -1.000000000000000000 ) ) ;
#908 = AXIS2_PLACEMENT_3D ( 'NONE', #699, #550, #862 ) ;
#909 = ORIENTED_EDGE ( 'NONE', *, *, #98, .T. ) ;
#910 = DIRECTION ( 'NONE',  ( 1.000000000000000000, 0.000000000000000000, 0.000000000000000000 ) ) ;
#911 = EDGE_LOOP ( 'NONE', ( #63, #175, #740, #247 ) ) ;
#912 = CARTESIAN_POINT ( 'NONE',  ( -6.250000000000094147, 0.000000000000000000, 10.82531754730543838 ) ) ;
#913 = DIRECTION ( 'NONE',  ( 0.000000000000000000, 0.000000000000000000, 1.000000000000000000 ) ) ;
#914 = PRODUCT_CONTEXT ( 'NONE', #712, 'mechanical' ) ;
#915 = VERTEX_POINT ( 'NONE', #722 ) ;
#916 = PLANE ( 'NONE',  #465 ) ;
#917 = EDGE_CURVE ( 'NONE', #368, #590, #95, .T. ) ;
#918 = EDGE_CURVE ( 'NONE', #631, #528, #873, .T. ) ;
#919 = CARTESIAN_POINT ( 'NONE',  ( -8.833459118600627491, 0.000000000000000000, 7.600000000000373568 ) ) ;
#920 = UNCERTAINTY_MEASURE_WITH_UNIT (LENGTH_MEASURE( 1.000000000000000082E-05 ), #176, 'distance_accuracy_value', 'NONE');
#921 = ORIENTED_EDGE ( 'NONE', *, *, #238, .T. ) ;
#922 = CARTESIAN_POINT ( 'NONE',  ( -8.833459118600627491, 0.000000000000000000, 5.100000000000373568 ) ) ;
#923 = VECTOR ( 'NONE', #496, 1000.000000000000000 ) ;
#924 = DIRECTION ( 'NONE',  ( 0.000000000000000000, 0.000000000000000000, 1.000000000000000000 ) ) ;
#925 = EDGE_CURVE ( 'NONE', #116, #962, #1002, .T. ) ;
#926 = EDGE_LOOP ( 'NONE', ( #583, #257 ) ) ;
#927 = DIRECTION ( 'NONE',  ( 0.000000000000000000, 0.000000000000000000, 1.000000000000000000 ) ) ;
#928 = PLANE ( 'NONE',  #105 ) ;
#929 = PRODUCT_DEFINITION_CONTEXT ( 'detailed design', #936, 'design' ) ;
#930 = ORIENTED_EDGE ( 'NONE', *, *, #623, .F. ) ;
#931 = FACE_OUTER_BOUND ( 'NONE', #822, .T. ) ;
#932 = EDGE_LOOP ( 'NONE', ( #190, #102 ) ) ;
#933 = DIRECTION ( 'NONE',  ( 0.000000000000000000, 0.000000000000000000, 1.000000000000000000 ) ) ;
#934 = ORIENTED_EDGE ( 'NONE', *, *, #473, .T. ) ;
#935 = DIRECTION ( 'NONE',  ( 0.000000000000000000, 1.000000000000000000, 0.000000000000000000 ) ) ;
#936 = APPLICATION_CONTEXT ( 'automotive_design' ) ;
#937 = CARTESIAN_POINT ( 'NONE',  ( 0.000000000000000000, 0.000000000000000000, -7.699999999999998401 ) ) ;
#938 = VECTOR ( 'NONE', #638, 1000.000000000000000 ) ;
#939 = DIRECTION ( 'NONE',  ( 0.000000000000000000, 1.000000000000000000, 0.000000000000000000 ) ) ;
#940 = VECTOR ( 'NONE', #841, 1000.000000000000000 ) ;
#941 = AXIS2_PLACEMENT_3D ( 'NONE', #874, #890, #30 ) ;
#942 = CARTESIAN_POINT ( 'NONE',  ( 0.000000000000000000, 0.000000000000000000, -10.19999999999999929 ) ) ;
#943 = DIRECTION ( 'NONE',  ( 0.000000000000000000, 1.000000000000000000, 0.000000000000000000 ) ) ;
#944 = DIRECTION ( 'NONE',  ( 0.000000000000000000, 1.000000000000000000, 0.000000000000000000 ) ) ;
#945 = DIRECTION ( 'NONE',  ( 0.000000000000000000, 0.000000000000000000, -1.000000000000000000 ) ) ;
#946 = ORIENTED_EDGE ( 'NONE', *, *, #330, .T. ) ;
#947 = CYLINDRICAL_SURFACE ( 'NONE', #516, 10.00000000000000888 ) ;
#948 = DIRECTION ( 'NONE',  ( 0.000000000000000000, 1.000000000000000000, 0.000000000000000000 ) ) ;
#949 = DIRECTION ( 'NONE',  ( -0.9995503035223666233, 0.000000000000000000, -0.02998650910567101507 ) ) ;
#950 = EDGE_LOOP ( 'NONE', ( #751, #523, #39, #878 ) ) ;
#951 = FACE_OUTER_BOUND ( 'NONE', #964, .T. ) ;
#952 = CIRCLE ( 'NONE', #494, 10.00000000000000888 ) ;
#953 = AXIS2_PLACEMENT_3D ( 'NONE', #868, #166, #720 ) ;
#954 = ORIENTED_EDGE ( 'NONE', *, *, #918, .F. ) ;
#955 = CARTESIAN_POINT ( 'NONE',  ( -6.250000000000094147, 8.000000000000000000, 10.82531754730543838 ) ) ;
#956 = ORIENTED_EDGE ( 'NONE', *, *, #707, .F. ) ;
#957 = DIRECTION ( 'NONE',  ( -0.000000000000000000, 1.000000000000000000, -0.000000000000000000 ) ) ;
#958 = ORIENTED_EDGE ( 'NONE', *, *, #347, .F. ) ;
#959 = EDGE_CURVE ( 'NONE', #984, #585, #21, .T. ) ;
#960 =( NAMED_UNIT ( * ) PLANE_ANGLE_UNIT ( ) SI_UNIT ( $, .RADIAN. ) );
#961 = EDGE_CURVE ( 'NONE', #703, #979, #124, .T. ) ;
#962 = VERTEX_POINT ( 'NONE', #358 ) ;
#963 = DIRECTION ( 'NONE',  ( -0.000000000000000000, -1.000000000000000000, -0.000000000000000000 ) ) ;
#964 = EDGE_LOOP ( 'NONE', ( #662, #258, #149, #513 ) ) ;
#965 = CARTESIAN_POINT ( 'NONE',  ( 0.4945549005894696593, 8.000000000000000000, 16.48516335298231894 ) ) ;
#966 = VERTEX_POINT ( 'NONE', #341 ) ;
#967 = DIRECTION ( 'NONE',  ( 0.000000000000000000, 0.000000000000000000, 1.000000000000000000 ) ) ;
#968 = ORIENTED_EDGE ( 'NONE', *, *, #170, .T. ) ;
#969 = AXIS2_PLACEMENT_3D ( 'NONE', #318, #239, #244 ) ;
#970 = SURFACE_SIDE_STYLE ('',( #195 ) ) ;
#971 = CIRCLE ( 'NONE', #357, 1.900000000000000577 ) ;
#972 = EDGE_LOOP ( 'NONE', ( #575, #177 ) ) ;
#973 = CARTESIAN_POINT ( 'NONE',  ( 6.250000000000010658, 0.000000000000000000, -10.82531754730547746 ) ) ;
#974 = VERTEX_POINT ( 'NONE', #651 ) ;
#975 = ORIENTED_EDGE ( 'NONE', *, *, #664, .F. ) ;
#976 = LINE ( 'NONE', #647, #168 ) ;
#977 = LINE ( 'NONE', #636, #464 ) ;
#978 = FACE_BOUND ( 'NONE', #442, .T. ) ;
#979 = VERTEX_POINT ( 'NONE', #884 ) ;
#980 = DIRECTION ( 'NONE',  ( 0.000000000000000000, 1.000000000000000000, 0.000000000000000000 ) ) ;
#981 = CARTESIAN_POINT ( 'NONE',  ( 0.000000000000000000, 8.000000000000000000, -16.50000000000000000 ) ) ;
#982 = EDGE_CURVE ( 'NONE', #35, #261, #483, .T. ) ;
#983 = PLANE ( 'NONE',  #564 ) ;
#984 = VERTEX_POINT ( 'NONE', #346 ) ;
#985 = LINE ( 'NONE', #295, #940 ) ;
#986 = CIRCLE ( 'NONE', #680, 2.500000000000000444 ) ;
#987 = CARTESIAN_POINT ( 'NONE',  ( 100.0000000000000000, 60.00000000000000000, 0.000000000000000000 ) ) ;
#988 = EDGE_CURVE ( 'NONE', #974, #569, #655, .T. ) ;
#989 = ORIENTED_EDGE ( 'NONE', *, *, #552, .T. ) ;
#990 = CARTESIAN_POINT ( 'NONE',  ( 0.4945549005894696593, 8.000000000000000000, -16.48516335298231894 ) ) ;
#991 = ADVANCED_FACE ( 'NONE', ( #576, #189, #591, #293, #297, #771, #382, #200, #978, #367 ), #983, .F. ) ;
#992 = DIRECTION ( 'NONE',  ( 0.000000000000000000, 1.000000000000000000, 0.000000000000000000 ) ) ;
#993 =( NAMED_UNIT ( * ) SI_UNIT ( $, .STERADIAN. ) SOLID_ANGLE_UNIT ( ) );
#994 = ORIENTED_EDGE ( 'NONE', *, *, #477, .T. ) ;
#995 = DIRECTION ( 'NONE',  ( 0.000000000000000000, 1.000000000000000000, 0.000000000000000000 ) ) ;
#996 = DIRECTION ( 'NONE',  ( 0.000000000000000000, 0.000000000000000000, 1.000000000000000000 ) ) ;
#997 = CARTESIAN_POINT ( 'NONE',  ( 0.9891098011789096756, 8.000000000000000000, -16.47032670596463788 ) ) ;
#998 = ORIENTED_EDGE ( 'NONE', *, *, #982, .T. ) ;
#999 = CARTESIAN_POINT ( 'NONE',  ( 12.50000000000000355, 0.000000000000000000, 4.163336342344337027E-14 ) ) ;
#1000 = VECTOR ( 'NONE', #902, 1000.000000000000000 ) ;
#1001 = AXIS2_PLACEMENT_3D ( 'NONE', #410, #721, #565 ) ;
#1002 = CIRCLE ( 'NONE', #597, 1.900000000000000577 ) ;
#1003 = EDGE_CURVE ( 'NONE', #454, #4, #533, .T. ) ;
#1004 = DIRECTION ( 'NONE',  ( 0.000000000000000000, 0.000000000000000000, 1.000000000000000000 ) ) ;
#1005 = VERTEX_POINT ( 'NONE', #376 ) ;
#1006 = DIRECTION ( 'NONE',  ( -0.000000000000000000, 1.000000000000000000, -0.000000000000000000 ) ) ;
#1007 = CARTESIAN_POINT ( 'NONE',  ( 12.50000000000000355, 0.000000000000000000, 1.900000000000041878 ) ) ;
ENDSEC;
END-ISO-10303-21;
