;TYPE=PLATED
;Layer: PTH_Through_Via
;EasyEDA Pro v3.2.69, 2026-03-27 19:08:31
;Gerber Generator version 0.3
M48
METRIC,LZ,0000.00000
;Hole size 1 = 0.30480 METRIC
T01C0.30480
%
G05
G90
T01
X-17.66697Y15.51703
X-17.6022Y-15.59558
X-17.06316Y16.9886
X-17.05341Y14.04952
X-16.99834Y-14.12401
X-16.98864Y-17.06315
X-15.5956Y17.60222
X-15.58183Y13.44566
X-15.53083Y-13.51045
X-15.51701Y-17.66695
X-14.12402Y16.99836
X-14.11427Y14.05922
X-14.05925Y-14.11426
X-14.0495Y-17.05339
X-13.51041Y15.53085
X-13.44564Y-15.58182
X13.44564Y15.5818
X13.51041Y-15.53081
X14.0495Y17.05337
X14.05926Y14.11429
X14.11427Y-14.05924
X14.12403Y-16.99838
X15.51701Y17.66699
X15.53083Y13.51043
X15.58178Y-13.44563
X15.5956Y-17.60218
X16.98859Y17.06313
X16.99834Y14.12404
X17.05341Y-14.04949
X17.06316Y-16.98862
X17.6022Y15.59562
X17.66697Y-15.51705
X7.62Y18.59976
X-15.59879Y8.128
X-18.627Y-2.54
X-9.525Y-12.954
X3.048Y-16.637
X-4.44499Y16.47699
X-2.667Y19.177
X-14.27747Y-6.04235
X11.049Y17.145
X11.049Y16.35098
X11.049Y15.55696
X11.049Y14.77444
X9.8552Y17.145
X9.8552Y16.35098
X-12.75746Y-1.07798
X4.25726Y-13.31395
X18.796Y9.144
X18.796Y8.32005
X24.67686Y7.83828
X24.67686Y8.58849
X24.67686Y9.31002
X23.89543Y7.83828
X23.89543Y8.58849
X23.89543Y9.31002
X23.114Y7.83828
X18.796Y7.4961
X12.30477Y13.11656
X12.30477Y12.27328
X13.15375Y12.27328
X12.30477Y11.43
X13.15375Y11.43
X13.15375Y10.58672
X12.30477Y10.58672
X-13.51235Y7.14375
X-12.9726Y6.604
X-12.43285Y6.06425
X-11.41685Y5.04825
X-12.97947Y5.49943
X9.8552Y15.55696
X-14.76433Y5.08001
X8.636Y12.94371
X9.398Y12.94371
X10.16Y12.94371
X10.16Y13.843
X9.398Y13.843
X10.88146Y-11.47086
X10.35384Y-11.99609
X9.83628Y-11.59786
X10.35384Y-10.98945
X6.731Y-9.00019
X7.22775Y-9.45211
X10.398Y9.906
X17.145Y10.16
X17.145Y10.922
X17.145Y9.398
X18.034Y8.636
X18.034Y9.398
X18.034Y10.16
X18.034Y10.922
X18.034Y11.684
X17.145Y11.684
X18.034Y12.446
X18.923Y13.208
X18.923Y11.684
X18.923Y12.446
X19.812Y13.208
X19.812Y12.446
X24.511Y0.381
X23.749Y0.381
X22.987Y0.381
X24.511Y-0.381
X23.749Y-0.381
X22.987Y-0.381
X6.477Y13.335
X12.66582Y-8.40272
X14.478Y-9.525
X15.18873Y-9.525
X-3.302Y1.83998
X15.875Y-9.525
X24.003Y4.572
X23.15628Y4.572
X21.46282Y4.572
X20.6161Y4.572
X22.30955Y4.572
X11.303Y-1.27
X9.144Y11.303
X-7.62Y-16.764
X-9.144Y-16.764
X-8.382Y-16.764
X-7.62Y-16.129
X-9.144Y-16.129
X-8.382Y-16.129
X-6.858Y-16.129
X-6.858Y-16.764
X6.46836Y11.684
X11.176Y-5.08
X-12.42597Y7.16882
X-12.96572Y7.70857
X-11.88622Y6.62907
X-9.779Y-11.557
X-10.414Y-10.922
X-8.41162Y-1.14305
X-7.71618Y-1.14305
X-9.10705Y-1.14305
X-7.68649Y-0.25754
X-8.38192Y-0.25754
X-9.07736Y-0.25754
X4.96164Y11.811
X8.89Y17.78
X-13.716Y-9.525
X-13.081Y-10.16
X-13.97Y-7.62
X-13.97Y-8.51802
X-6.18678Y12.92175
X7.62Y14.478
X1.41919Y5.35619
X-2.921Y5.42366
X-4.82765Y-1.372
X-4.826Y-2.159
X-8.12591Y2.79191
X-7.64531Y2.284
X6.223Y-2.794
X3.03715Y-1.36035
X4.953Y5.334
X5.72567Y2.769
X4.54406Y-1.27
X3.73695Y1.1684
X6.985Y0.0
X3.30261Y1.78388
X1.016Y-3.429
X2.794Y-3.429
X1.524Y-1.828
X2.286Y-1.8792
X-2.159Y-1.778
X3.048Y3.556
X5.715Y3.429
X-8.0645Y13.5255
X-11.15289Y11.15289
X-2.032Y10.16
X-2.05419Y9.35081
X0.127Y4.699
X-10.16Y5.08
X-11.049Y7.112
X0.508Y6.604
X0.889Y4.826
X3.175Y4.826
X3.83375Y4.84975
X0.127Y7.239
X-0.508Y8.382
X13.335Y-3.175
X14.77371Y-4.48671
X-7.27803Y-4.94414
X9.779Y6.1724
X10.414Y6.1724
X11.04445Y6.1724
X10.32871Y5.37571
X11.049Y5.37571
X3.47129Y11.811
X-4.19377Y7.16438
X-4.5344Y-4.10241
X-1.651Y-3.556
X7.366Y22.098
X12.82321Y18.99067
X-6.35Y3.556
X-5.715Y6.858
X-10.287Y8.763
X7.112Y-7.112
X7.366Y-5.334
X1.92126Y12.827
X1.778Y10.795
X-3.48414Y8.09464
X-0.254Y6.604
X-5.969Y2.667
X-7.84397Y5.56946
X6.096Y-10.287
X16.256Y-8.78733
X17.399Y-2.667
X13.208Y0.889
X10.922Y-0.508
X9.72223Y2.92486
X1.778Y1.397
X1.524Y2.032
X-0.40645Y-4.191
X-1.143Y-6.604
X4.191Y-4.445
X-1.016Y-4.572
X-5.461Y-7.112
X-3.302Y-1.20802
X-20.0587Y6.14642
X-0.762Y-8.636
X-2.80844Y0.14144
X4.191Y5.588
X6.21296Y8.39204
X6.096Y9.398
X5.588Y10.664
X7.93189Y7.20941
X11.74386Y6.985
X11.303Y7.493
X8.89Y19.685
X9.398Y19.177
X10.033Y18.669
X12.446Y19.939
X11.811Y20.447
X11.303Y20.955
X10.668Y21.336
X9.398Y18.542
X8.763Y19.05
X-7.747Y-9.779
X-8.255Y-9.271
X-7.747Y-8.763
X-7.239Y-9.271
X-6.731Y-8.763
X-7.239Y-8.255
X-6.731Y-7.747
X-6.223Y-8.255
X13.335Y2.794
X-1.186Y22.20001
X-0.33093Y22.20001
X-1.186Y21.463
X-0.33093Y21.463
X-1.186Y20.663
X-0.33093Y20.663
X-19.52623Y6.69715
X-18.99801Y7.24524
X-18.41579Y6.71646
X-19.02986Y6.14771
X-19.685Y5.588
M30