G04 Layer: InnerLayer2*
G04 EasyEDA Pro v3.2.69, 2026-03-27 19:08:31*
G04 Gerber Generator version 0.3*
G04 Scale: 100 percent, Rotated: No, Reflected: No*
G04 Dimensions in millimeters*
G04 Leading zeros omitted, absolute positions, 4 integers and 5 decimals*
G04 Generated by one-click*
%FSLAX45Y45*%
%MOMM*%
%ADD10C,0.2032*%
%ADD11C,5.5*%
%ADD12C,1.6*%
%ADD13C,0.508*%
%ADD14C,0.6096*%
%ADD15C,0.762*%
%ADD16C,0.2551*%
%ADD17C,0.254*%
G75*


G04 Copper Start*
G36*
G01X1942460Y378460D02*
G01X1942460Y582940D01*
G01X2428240Y582940D01*
G01X2428240Y378460D01*
G01X1942460Y378460D01*
G37*
G36*
G01X911860Y688340D02*
G01X1119179Y688340D01*
G01X1123207Y675439D01*
G01X1130203Y663874D01*
G01X1139760Y654317D01*
G01X1151324Y647322D01*
G01X1164226Y643293D01*
G01X1164226Y495696D01*
G01X911860Y495696D01*
G01X911860Y688340D01*
G37*
G36*
G01X-953947Y2248765D02*
G01X641211Y2248765D01*
G01X635110Y2245112D01*
G01X629688Y2240512D01*
G01X316416Y1927241D01*
G01X309514Y1918246D01*
G01X305175Y1907770D01*
G01X303695Y1896529D01*
G01X303695Y1249934D01*
G01X148363Y1249934D01*
G01X134934Y1248611D01*
G01X122022Y1244694D01*
G01X110121Y1238333D01*
G01X99690Y1229773D01*
G01X-160861Y969222D01*
G01X-165429Y974474D01*
G01X-156727Y984516D01*
G01X-150628Y996322D01*
G01X-147476Y1009231D01*
G01X-147446Y1022519D01*
G01X-150540Y1035441D01*
G01X-156586Y1047275D01*
G01X-165243Y1057356D01*
G01X-176027Y1065119D01*
G01X-188334Y1070130D01*
G01X-201475Y1072107D01*
G01X-510834Y1381466D01*
G01X-519303Y1387965D01*
G01X-529166Y1392051D01*
G01X-539750Y1393444D01*
G01X-767996Y1393444D01*
G01X-779722Y1401912D01*
G01X-793222Y1407103D01*
G01X-807600Y1408672D01*
G01X-821902Y1406515D01*
G01X-835179Y1400775D01*
G01X-846547Y1391834D01*
G01X-855254Y1380284D01*
G01X-860721Y1366893D01*
G01X-862584Y1352550D01*
G01X-860721Y1338207D01*
G01X-855254Y1324816D01*
G01X-846547Y1313266D01*
G01X-835179Y1304325D01*
G01X-821902Y1298585D01*
G01X-807600Y1296428D01*
G01X-793222Y1297997D01*
G01X-779722Y1303188D01*
G01X-767996Y1311656D01*
G01X-556689Y1311656D01*
G01X-401216Y1156183D01*
G01X-1076835Y1156183D01*
G01X-1088561Y1164651D01*
G01X-1102061Y1169842D01*
G01X-1116439Y1171411D01*
G01X-1130741Y1169254D01*
G01X-1144017Y1163514D01*
G01X-1155386Y1154573D01*
G01X-1164093Y1143023D01*
G01X-1169559Y1129632D01*
G01X-1171423Y1115289D01*
G01X-1169559Y1100946D01*
G01X-1164093Y1087555D01*
G01X-1155386Y1076005D01*
G01X-1144017Y1067063D01*
G01X-1130741Y1061324D01*
G01X-1116439Y1059167D01*
G01X-1102061Y1060736D01*
G01X-1088561Y1065927D01*
G01X-1076835Y1074395D01*
G01X-402566Y1074395D01*
G01X-261527Y933355D01*
G01X-260076Y922286D01*
G01X-256463Y911723D01*
G01X-260733Y915993D01*
G01X-272358Y924913D01*
G01X-285897Y930521D01*
G01X-300425Y932434D01*
G01X-1028700Y932434D01*
G01X-1043229Y930521D01*
G01X-1056767Y924913D01*
G01X-1068393Y915993D01*
G01X-1077313Y904367D01*
G01X-1082921Y890829D01*
G01X-1084834Y876300D01*
G01X-1082921Y861771D01*
G01X-1077313Y848233D01*
G01X-1068393Y836607D01*
G01X-1056767Y827687D01*
G01X-1043229Y822079D01*
G01X-1028700Y820166D01*
G01X-323677Y820166D01*
G01X-316797Y813286D01*
G01X-370211Y759872D01*
G01X-376242Y759872D01*
G01X-387222Y768526D01*
G01X-399879Y774463D01*
G01X-413553Y777374D01*
G01X-427531Y777106D01*
G01X-441083Y773674D01*
G01X-453503Y767256D01*
G01X-464144Y758188D01*
G01X-472449Y746942D01*
G01X-477986Y734105D01*
G01X-480466Y720346D01*
G01X-479759Y706383D01*
G01X-475903Y692945D01*
G01X-469099Y680732D01*
G01X-459701Y670382D01*
G01X-543973Y586110D01*
G01X-552533Y575679D01*
G01X-558894Y563778D01*
G01X-562811Y550866D01*
G01X-564134Y537437D01*
G01X-564134Y399034D01*
G01X-599440Y399034D01*
G01X-611330Y406499D01*
G01X-624700Y410781D01*
G01X-638715Y411611D01*
G01X-652498Y408937D01*
G01X-665186Y402927D01*
G01X-675985Y393957D01*
G01X-684221Y382587D01*
G01X-689378Y369529D01*
G01X-691134Y355600D01*
G01X-689378Y341671D01*
G01X-684221Y328613D01*
G01X-675985Y317243D01*
G01X-665186Y308273D01*
G01X-652498Y302263D01*
G01X-638715Y299589D01*
G01X-624700Y300419D01*
G01X-611330Y304701D01*
G01X-599440Y312166D01*
G01X-564134Y312166D01*
G01X-564134Y-13460D01*
G01X-607638Y-56964D01*
G01X-616198Y-67395D01*
G01X-622559Y-79295D01*
G01X-626476Y-92208D01*
G01X-627799Y-105637D01*
G01X-627799Y-380835D01*
G01X-626476Y-394264D01*
G01X-622559Y-407177D01*
G01X-616198Y-419077D01*
G01X-607638Y-429508D01*
G01X-598393Y-438753D01*
G01X-598393Y-469900D01*
G01X-597071Y-483329D01*
G01X-593154Y-496242D01*
G01X-586793Y-508142D01*
G01X-578232Y-518573D01*
G01X-502032Y-594773D01*
G01X-491601Y-603333D01*
G01X-479701Y-609694D01*
G01X-466788Y-613611D01*
G01X-453359Y-614934D01*
G01X655066Y-614934D01*
G01X655066Y-686784D01*
G01X650794Y-701288D01*
G01X650207Y-716397D01*
G01X653341Y-731188D01*
G01X660006Y-744760D01*
G01X669793Y-756285D01*
G01X682107Y-765059D01*
G01X696196Y-770547D01*
G01X711200Y-772414D01*
G01X726204Y-770547D01*
G01X740293Y-765059D01*
G01X752607Y-756285D01*
G01X762394Y-744760D01*
G01X769059Y-731188D01*
G01X772193Y-716397D01*
G01X771606Y-701288D01*
G01X767334Y-686784D01*
G01X767334Y-611615D01*
G01X782115Y-604833D01*
G01X794891Y-594773D01*
G01X848773Y-540891D01*
G01X857333Y-530461D01*
G01X863694Y-518560D01*
G01X867611Y-505647D01*
G01X868934Y-492218D01*
G01X868934Y-448671D01*
G01X1421237Y-448671D01*
G01X1423150Y-463199D01*
G01X1428757Y-476738D01*
G01X1437678Y-488364D01*
G01X1449304Y-497284D01*
G01X1462842Y-502892D01*
G01X1477371Y-504805D01*
G01X1491899Y-502892D01*
G01X1505438Y-497284D01*
G01X1517064Y-488364D01*
G01X1525984Y-476738D01*
G01X1531592Y-463199D01*
G01X1533505Y-448671D01*
G01X1531592Y-434142D01*
G01X1525984Y-420604D01*
G01X1517064Y-408978D01*
G01X1505438Y-400057D01*
G01X1491899Y-394450D01*
G01X1477371Y-392537D01*
G01X1462842Y-394450D01*
G01X1449304Y-400057D01*
G01X1437678Y-408978D01*
G01X1428757Y-420604D01*
G01X1423150Y-434142D01*
G01X1421237Y-448671D01*
G01X1421237Y-448671D01*
G01X868934Y-448671D01*
G01X868934Y-317500D01*
G01X1277366Y-317500D01*
G01X1279279Y-332029D01*
G01X1284887Y-345567D01*
G01X1293807Y-357193D01*
G01X1305433Y-366113D01*
G01X1318971Y-371721D01*
G01X1333500Y-373634D01*
G01X1348029Y-371721D01*
G01X1361567Y-366113D01*
G01X1373193Y-357193D01*
G01X1382113Y-345567D01*
G01X1387721Y-332029D01*
G01X1389634Y-317500D01*
G01X1387721Y-302971D01*
G01X1382113Y-289433D01*
G01X1373193Y-277807D01*
G01X1361567Y-268887D01*
G01X1348029Y-263279D01*
G01X1333500Y-261366D01*
G01X1318971Y-263279D01*
G01X1305433Y-268887D01*
G01X1293807Y-277807D01*
G01X1284887Y-289433D01*
G01X1279279Y-302971D01*
G01X1277366Y-317500D01*
G01X1277366Y-317500D01*
G01X868934Y-317500D01*
G01X868934Y276288D01*
G01X1047448Y454802D01*
G01X1174386Y454802D01*
G01X1183883Y456306D01*
G01X1192451Y460671D01*
G01X1199250Y467471D01*
G01X1203615Y476038D01*
G01X1205120Y485536D01*
G01X1205120Y651527D01*
G01X1215207Y659969D01*
G01X1223052Y670526D01*
G01X1228226Y682618D01*
G01X1230444Y695583D01*
G01X1229584Y708708D01*
G01X1225693Y721273D01*
G01X1218985Y732587D01*
G01X1209828Y742030D01*
G01X1198726Y749082D01*
G01X1186287Y753358D01*
G01X1183625Y766835D01*
G01X1177769Y779262D01*
G01X1169070Y789894D01*
G01X1158049Y798096D01*
G01X1145366Y803374D01*
G01X1131781Y805414D01*
G01X1118107Y804094D01*
G01X1105164Y799492D01*
G01X1093725Y791883D01*
G01X1084478Y781724D01*
G01X1077974Y769624D01*
G01X1074605Y756306D01*
G01X1074571Y742568D01*
G01X1077875Y729234D01*
G01X901700Y729234D01*
G01X891246Y727401D01*
G01X882039Y722122D01*
G01X875176Y714026D01*
G01X871477Y704079D01*
G01X849047Y726509D01*
G01X845918Y740195D01*
G01X839491Y752677D01*
G01X830168Y763174D01*
G01X818532Y771029D01*
G01X805310Y775751D01*
G01X791331Y777044D01*
G01X777467Y774828D01*
G01X764588Y769242D01*
G01X753497Y760634D01*
G01X744889Y749543D01*
G01X739302Y736663D01*
G01X737086Y722800D01*
G01X738380Y708820D01*
G01X743102Y695599D01*
G01X750957Y683962D01*
G01X761453Y674639D01*
G01X773935Y668212D01*
G01X787622Y665084D01*
G01X866178Y586527D01*
G01X870966Y582391D01*
G01X870966Y485536D01*
G01X872862Y474908D01*
G01X751427Y353473D01*
G01X742867Y343042D01*
G01X736506Y331142D01*
G01X732589Y318229D01*
G01X731266Y304800D01*
G01X731266Y45579D01*
G01X719295Y52140D01*
G01X706095Y55618D01*
G01X692445Y55807D01*
G01X679154Y52695D01*
G01X667006Y46467D01*
G01X656721Y37491D01*
G01X648907Y26298D01*
G01X644026Y13550D01*
G01X642366Y0D01*
G01X644026Y-13550D01*
G01X648907Y-26298D01*
G01X656721Y-37491D01*
G01X667006Y-46467D01*
G01X679154Y-52695D01*
G01X692445Y-55807D01*
G01X706095Y-55618D01*
G01X719295Y-52140D01*
G01X731266Y-45579D01*
G01X731266Y-463706D01*
G01X717706Y-477266D01*
G01X322834Y-477266D01*
G01X322834Y-386035D01*
G01X331693Y-374722D01*
G01X337670Y-361655D01*
G01X340437Y-347555D01*
G01X339840Y-333199D01*
G01X335914Y-319377D01*
G01X328873Y-306851D01*
G01X319107Y-296311D01*
G01X307153Y-288339D01*
G01X293670Y-283372D01*
G01X279400Y-281686D01*
G01X265130Y-283372D01*
G01X251647Y-288339D01*
G01X239693Y-296311D01*
G01X229927Y-306851D01*
G01X222886Y-319377D01*
G01X218960Y-333199D01*
G01X218363Y-347555D01*
G01X221130Y-361655D01*
G01X227107Y-374722D01*
G01X235966Y-386035D01*
G01X235966Y-477266D01*
G01X145034Y-477266D01*
G01X145034Y-386035D01*
G01X153893Y-374722D01*
G01X159870Y-361655D01*
G01X162637Y-347555D01*
G01X162040Y-333199D01*
G01X158114Y-319377D01*
G01X151073Y-306851D01*
G01X141307Y-296311D01*
G01X129353Y-288339D01*
G01X115870Y-283372D01*
G01X101600Y-281686D01*
G01X87330Y-283372D01*
G01X73847Y-288339D01*
G01X61893Y-296311D01*
G01X52127Y-306851D01*
G01X45086Y-319377D01*
G01X41160Y-333199D01*
G01X40563Y-347555D01*
G01X43330Y-361655D01*
G01X49307Y-374722D01*
G01X58166Y-386035D01*
G01X58166Y-477266D01*
G01X-424847Y-477266D01*
G01X-433871Y-468242D01*
G01X-420735Y-461986D01*
G01X-409447Y-452805D01*
G01X-400644Y-441220D01*
G01X-394824Y-427885D01*
G01X-392316Y-413553D01*
G01X-393261Y-399034D01*
G01X-208235Y-399034D01*
G01X-196922Y-407893D01*
G01X-183855Y-413870D01*
G01X-169755Y-416637D01*
G01X-155399Y-416040D01*
G01X-141577Y-412114D01*
G01X-129051Y-405073D01*
G01X-118511Y-395307D01*
G01X-110539Y-383353D01*
G01X-105572Y-369870D01*
G01X-103886Y-355600D01*
G01X-105572Y-341330D01*
G01X-110539Y-327847D01*
G01X-118511Y-315893D01*
G01X-129051Y-306127D01*
G01X-141577Y-299086D01*
G01X-155399Y-295160D01*
G01X-169755Y-294563D01*
G01X-183855Y-297330D01*
G01X-196922Y-303307D01*
G01X-208235Y-312166D01*
G01X-490131Y-312166D01*
G01X-490131Y-279400D01*
G01X566166Y-279400D01*
G01X568079Y-293929D01*
G01X573687Y-307467D01*
G01X582607Y-319093D01*
G01X594233Y-328013D01*
G01X607771Y-333621D01*
G01X622300Y-335534D01*
G01X636829Y-333621D01*
G01X650367Y-328013D01*
G01X661993Y-319093D01*
G01X670913Y-307467D01*
G01X676521Y-293929D01*
G01X678434Y-279400D01*
G01X676521Y-264871D01*
G01X670913Y-251333D01*
G01X661993Y-239707D01*
G01X650367Y-230787D01*
G01X636829Y-225179D01*
G01X622300Y-223266D01*
G01X607771Y-225179D01*
G01X594233Y-230787D01*
G01X582607Y-239707D01*
G01X573687Y-251333D01*
G01X568079Y-264871D01*
G01X566166Y-279400D01*
G01X566166Y-279400D01*
G01X-490131Y-279400D01*
G01X-490131Y-271527D01*
G01X-476222Y-271671D01*
G01X-462705Y-268390D01*
G01X-450410Y-261887D01*
G01X-440091Y-252561D01*
G01X-432382Y-240983D01*
G01X-427756Y-227865D01*
G01X-426498Y-214013D01*
G01X-428684Y-200277D01*
G01X-434181Y-187499D01*
G01X-441626Y-177800D01*
G01X-272034Y-177800D01*
G01X-270121Y-192329D01*
G01X-264513Y-205867D01*
G01X-255593Y-217493D01*
G01X-243967Y-226413D01*
G01X-230429Y-232021D01*
G01X-215900Y-233934D01*
G01X-201371Y-232021D01*
G01X-187833Y-226413D01*
G01X-176207Y-217493D01*
G01X-167287Y-205867D01*
G01X-161679Y-192329D01*
G01X-159929Y-179037D01*
G01X96392Y-179037D01*
G01X97282Y-193433D01*
G01X101811Y-207127D01*
G01X109680Y-219215D01*
G01X120369Y-228898D01*
G01X133173Y-235539D01*
G01X147246Y-238697D01*
G01X161660Y-238165D01*
G01X175462Y-233978D01*
G01X187742Y-226412D01*
G01X197918Y-234927D01*
G01X209808Y-240815D01*
G01X222749Y-243748D01*
G01X236016Y-243562D01*
G01X248869Y-240267D01*
G01X260589Y-234047D01*
G01X270522Y-225250D01*
G01X278113Y-214368D01*
G01X282938Y-202007D01*
G01X284726Y-188860D01*
G01X298499Y-191926D01*
G01X312602Y-191461D01*
G01X326143Y-187494D01*
G01X338267Y-180275D01*
G01X348208Y-170261D01*
G01X355337Y-158084D01*
G01X359205Y-144514D01*
G01X359566Y-130408D01*
G01X358781Y-127000D01*
G01X398272Y-127000D01*
G01X400185Y-141529D01*
G01X405793Y-155067D01*
G01X414713Y-166693D01*
G01X426339Y-175613D01*
G01X439877Y-181221D01*
G01X454406Y-183134D01*
G01X468935Y-181221D01*
G01X482473Y-175613D01*
G01X494099Y-166693D01*
G01X503019Y-155067D01*
G01X508627Y-141529D01*
G01X510540Y-127000D01*
G01X508627Y-112471D01*
G01X503019Y-98933D01*
G01X494099Y-87307D01*
G01X482473Y-78387D01*
G01X468935Y-72779D01*
G01X454406Y-70866D01*
G01X439877Y-72779D01*
G01X426339Y-78387D01*
G01X414713Y-87307D01*
G01X405793Y-98933D01*
G01X400185Y-112471D01*
G01X398272Y-127000D01*
G01X398272Y-127000D01*
G01X358781Y-127000D01*
G01X356398Y-116658D01*
G01X349902Y-104132D01*
G01X340487Y-93622D01*
G01X328748Y-85792D01*
G01X315428Y-81137D01*
G01X301367Y-79950D01*
G01X287455Y-82308D01*
G01X274570Y-88060D01*
G01X263527Y-96843D01*
G01X255023Y-108104D01*
G01X249596Y-121129D01*
G01X247589Y-135095D01*
G01X233564Y-132006D01*
G01X219215Y-132576D01*
G01X205480Y-136768D01*
G01X193258Y-144308D01*
G01X193258Y-144308D01*
G01X182101Y-135168D01*
G01X168983Y-129172D01*
G01X154770Y-126716D01*
G01X140401Y-127964D01*
G01X126824Y-132831D01*
G01X114935Y-140998D01*
G01X105520Y-151925D01*
G01X99200Y-164890D01*
G01X96392Y-179037D01*
G01X-159929Y-179037D01*
G01X-159766Y-177800D01*
G01X-161679Y-163271D01*
G01X-167287Y-149733D01*
G01X-176207Y-138107D01*
G01X-187833Y-129187D01*
G01X-201371Y-123579D01*
G01X-215900Y-121666D01*
G01X-230429Y-123579D01*
G01X-243967Y-129187D01*
G01X-255593Y-138107D01*
G01X-264513Y-149733D01*
G01X-270121Y-163271D01*
G01X-272034Y-177800D01*
G01X-272034Y-177800D01*
G01X-441626Y-177800D01*
G01X-442650Y-176466D01*
G01X-434419Y-165724D01*
G01X-428997Y-153325D01*
G01X-426700Y-139988D01*
G01X-427662Y-126489D01*
G01X-431827Y-113613D01*
G01X-438952Y-102108D01*
G01X-448624Y-92642D01*
G01X-446627Y-90645D01*
G01X-438067Y-80214D01*
G01X-431706Y-68313D01*
G01X-427789Y-55401D01*
G01X-426466Y-41972D01*
G01X-426466Y-29290D01*
G01X-316404Y-29290D01*
G01X-304514Y-36755D01*
G01X-291144Y-41037D01*
G01X-277129Y-41867D01*
G01X-263347Y-39193D01*
G01X-250659Y-33183D01*
G01X-239859Y-24212D01*
G01X-231623Y-12843D01*
G01X-226466Y215D01*
G01X-224710Y14144D01*
G01X-226466Y28073D01*
G01X-231623Y41131D01*
G01X-239859Y52501D01*
G01X-250659Y61471D01*
G01X-263347Y67481D01*
G01X-277129Y70155D01*
G01X-291144Y69325D01*
G01X-304514Y65044D01*
G01X-316404Y57578D01*
G01X-426466Y57578D01*
G01X-426466Y140564D01*
G01X-365760Y140564D01*
G01X-353870Y133098D01*
G01X-340500Y128817D01*
G01X-326485Y127987D01*
G01X-312702Y130660D01*
G01X-300014Y136670D01*
G01X-289215Y145641D01*
G01X-280979Y157011D01*
G01X-275822Y170068D01*
G01X-275259Y174530D01*
G01X274260Y174530D01*
G01X277066Y160462D01*
G01X283347Y147564D01*
G01X292692Y136680D01*
G01X304490Y128520D01*
G01X317972Y123616D01*
G01X318074Y109271D01*
G01X321809Y95420D01*
G01X328932Y82968D01*
G01X338979Y72728D01*
G01X351294Y65370D01*
G01X365071Y61372D01*
G01X379412Y60998D01*
G01X393379Y64270D01*
G01X406061Y70976D01*
G01X406061Y70976D01*
G01X416629Y80678D01*
G01X424393Y92741D01*
G01X428846Y106378D01*
G01X429696Y120698D01*
G01X426890Y134766D01*
G01X420609Y147664D01*
G01X411264Y158548D01*
G01X399466Y166709D01*
G01X385984Y171612D01*
G01X385882Y185957D01*
G01X382147Y199808D01*
G01X375024Y212260D01*
G01X364977Y222500D01*
G01X352662Y229859D01*
G01X338885Y233856D01*
G01X324544Y234230D01*
G01X310577Y230958D01*
G01X297895Y224252D01*
G01X287327Y214551D01*
G01X279563Y202488D01*
G01X275111Y188851D01*
G01X274260Y174530D01*
G01X-275259Y174530D01*
G01X-274066Y183998D01*
G01X-275822Y197927D01*
G01X-280979Y210985D01*
G01X-289215Y222354D01*
G01X-300014Y231325D01*
G01X-312702Y237335D01*
G01X-326485Y240009D01*
G01X-340500Y239179D01*
G01X-353870Y234897D01*
G01X-365760Y227432D01*
G01X-426466Y227432D01*
G01X-426466Y355600D01*
G01X248666Y355600D01*
G01X250579Y341071D01*
G01X256187Y327533D01*
G01X265107Y315907D01*
G01X276733Y306987D01*
G01X290271Y301379D01*
G01X304800Y299466D01*
G01X319329Y301379D01*
G01X332867Y306987D01*
G01X344493Y315907D01*
G01X353413Y327533D01*
G01X359021Y341071D01*
G01X359915Y347857D01*
G01X515585Y347857D01*
G01X516047Y334181D01*
G01X519804Y321024D01*
G01X526633Y309166D01*
G01X520191Y297094D01*
G01X516861Y283822D01*
G01X516841Y270139D01*
G01X520133Y256857D01*
G01X526540Y244766D01*
G01X535682Y234585D01*
G01X547016Y226918D01*
G01X559868Y222221D01*
G01X573474Y220773D01*
G01X573474Y220773D01*
G01X587027Y222660D01*
G01X599720Y227770D01*
G01X610800Y235799D01*
G01X619608Y246271D01*
G01X625621Y258562D01*
G01X628482Y271943D01*
G01X628020Y285619D01*
G01X624263Y298776D01*
G01X617434Y310634D01*
G01X623876Y322706D01*
G01X627206Y335978D01*
G01X627225Y349661D01*
G01X623934Y362943D01*
G01X617527Y375033D01*
G01X608385Y385215D01*
G01X597051Y392882D01*
G01X584199Y397579D01*
G01X570593Y399027D01*
G01X557040Y397140D01*
G01X544347Y392030D01*
G01X533267Y384000D01*
G01X524459Y373529D01*
G01X518446Y361238D01*
G01X515585Y347857D01*
G01X359915Y347857D01*
G01X360934Y355600D01*
G01X359021Y370129D01*
G01X353413Y383667D01*
G01X344493Y395293D01*
G01X332867Y404213D01*
G01X319329Y409821D01*
G01X304800Y411734D01*
G01X290271Y409821D01*
G01X276733Y404213D01*
G01X265107Y395293D01*
G01X256187Y383667D01*
G01X250579Y370129D01*
G01X248666Y355600D01*
G01X248666Y355600D01*
G01X-426466Y355600D01*
G01X-426466Y508925D01*
G01X-393025Y542366D01*
G01X-348234Y542366D01*
G01X-346321Y527838D01*
G01X-340713Y514299D01*
G01X-331793Y502673D01*
G01X-320167Y493753D01*
G01X-306629Y488145D01*
G01X-292100Y486232D01*
G01X-277571Y488145D01*
G01X-264033Y493753D01*
G01X-252407Y502673D01*
G01X-243487Y514299D01*
G01X-237879Y527838D01*
G01X-235966Y542366D01*
G01X-237879Y556895D01*
G01X-243487Y570433D01*
G01X-252407Y582059D01*
G01X-264033Y590980D01*
G01X-277571Y596587D01*
G01X-292100Y598500D01*
G01X-306629Y596587D01*
G01X-320167Y590980D01*
G01X-331793Y582059D01*
G01X-340713Y570433D01*
G01X-346321Y556895D01*
G01X-348234Y542366D01*
G01X-348234Y542366D01*
G01X-393025Y542366D01*
G01X-210811Y724580D01*
G01X-43430Y724580D01*
G01X-41792Y710423D01*
G01X-36642Y697135D01*
G01X-28312Y685572D01*
G01X-17338Y676479D01*
G01X-4428Y670443D01*
G01X-5222Y656860D01*
G01X-2725Y643485D01*
G01X2917Y631104D01*
G01X11372Y620444D01*
G01X22144Y612131D01*
G01X34599Y606655D01*
G01X48006Y604336D01*
G01X48006Y604336D01*
G01X48006Y521054D01*
G01X44104Y516428D01*
G01X31148Y522916D01*
G01X16963Y525872D01*
G01X2494Y525098D01*
G01X-11296Y520647D01*
G01X-23486Y512814D01*
G01X-33265Y502122D01*
G01X-39981Y489283D01*
G01X-43188Y475152D01*
G01X-42670Y460672D01*
G01X-38463Y446806D01*
G01X-30847Y434479D01*
G01X-20330Y424512D01*
G01X-7612Y417570D01*
G01X6460Y414114D01*
G01X20947Y414375D01*
G01X34885Y418336D01*
G01X47345Y425733D01*
G01X57496Y436072D01*
G01X70715Y429493D01*
G01X85192Y426589D01*
G01X99926Y427560D01*
G01X113897Y432339D01*
G01X126138Y440596D01*
G01X135803Y451759D01*
G01X142222Y465056D01*
G01X144952Y479567D01*
G01X150765Y480578D01*
G01X261402Y480578D01*
G01X263557Y467071D01*
G01X268913Y454487D01*
G01X277154Y443571D01*
G01X287791Y434973D01*
G01X300191Y429201D01*
G01X313618Y426600D01*
G01X327276Y427324D01*
G01X340354Y431329D01*
G01X352075Y438378D01*
G01X364273Y432191D01*
G01X377605Y429138D01*
G01X391279Y429400D01*
G01X404485Y432961D01*
G01X416437Y439610D01*
G01X426426Y448953D01*
G01X433860Y460433D01*
G01X438296Y473371D01*
G01X439472Y486997D01*
G01X437318Y500504D01*
G01X431962Y513088D01*
G01X423721Y524004D01*
G01X413084Y532602D01*
G01X411371Y533400D01*
G01X439166Y533400D01*
G01X441079Y518871D01*
G01X446687Y505333D01*
G01X455607Y493707D01*
G01X467233Y484787D01*
G01X480771Y479179D01*
G01X495300Y477266D01*
G01X509829Y479179D01*
G01X523367Y484787D01*
G01X534993Y493707D01*
G01X543913Y505333D01*
G01X549521Y518871D01*
G01X551434Y533400D01*
G01X549521Y547929D01*
G01X543913Y561467D01*
G01X534993Y573093D01*
G01X523367Y582013D01*
G01X509829Y587621D01*
G01X495300Y589534D01*
G01X480771Y587621D01*
G01X467233Y582013D01*
G01X455607Y573093D01*
G01X446687Y561467D01*
G01X441079Y547929D01*
G01X439166Y533400D01*
G01X439166Y533400D01*
G01X411371Y533400D01*
G01X400684Y538373D01*
G01X387257Y540975D01*
G01X373599Y540251D01*
G01X360521Y536246D01*
G01X348800Y529197D01*
G01X336602Y535384D01*
G01X323270Y538437D01*
G01X309596Y538175D01*
G01X296390Y534613D01*
G01X284438Y527964D01*
G01X274449Y518622D01*
G01X267015Y507142D01*
G01X262578Y494204D01*
G01X261402Y480578D01*
G01X261402Y480578D01*
G01X150765Y480578D01*
G01X157979Y481831D01*
G01X170114Y487080D01*
G01X180686Y495021D01*
G01X189106Y505215D01*
G01X194909Y517096D01*
G01X197772Y530004D01*
G01X197536Y543224D01*
G01X194214Y556022D01*
G01X187991Y567688D01*
G01X179212Y577574D01*
G01X168365Y585134D01*
G01X156049Y589946D01*
G01X142950Y591744D01*
G01X129794Y590428D01*
G01X129794Y622300D01*
G01X128401Y632884D01*
G01X124315Y642747D01*
G01X117816Y651216D01*
G01X106907Y662125D01*
G01X104798Y675737D01*
G01X99438Y688425D01*
G01X91149Y699426D01*
G01X80431Y708077D01*
G01X67928Y713857D01*
G01X68678Y728089D01*
G01X65819Y742050D01*
G01X59536Y754842D01*
G01X50235Y765639D01*
G01X38514Y773746D01*
G01X25130Y778641D01*
G01X10944Y780007D01*
G01X-3128Y777756D01*
G01X-16181Y772035D01*
G01X-27371Y763210D01*
G01X-35979Y751852D01*
G01X-41450Y738693D01*
G01X-43430Y724580D01*
G01X-210811Y724580D01*
G01X-106205Y829185D01*
G01X-102389Y816074D01*
G01X-95520Y804271D01*
G01X-86004Y794477D01*
G01X-74404Y787270D01*
G01X-61408Y783077D01*
G01X-47784Y782147D01*
G01X-34338Y784534D01*
G01X-21866Y790097D01*
G01X-11107Y798507D01*
G01X-2697Y809266D01*
G01X2866Y821738D01*
G01X5253Y835184D01*
G01X4323Y848808D01*
G01X130Y861804D01*
G01X-7077Y873404D01*
G01X-16871Y882920D01*
G01X-28674Y889789D01*
G01X-41785Y893605D01*
G01X4409Y939800D01*
G01X553466Y939800D01*
G01X555379Y925271D01*
G01X560987Y911733D01*
G01X569907Y900107D01*
G01X581533Y891187D01*
G01X595071Y885579D01*
G01X609600Y883666D01*
G01X624129Y885579D01*
G01X637667Y891187D01*
G01X649293Y900107D01*
G01X658213Y911733D01*
G01X663821Y925271D01*
G01X665734Y939800D01*
G01X663821Y954329D01*
G01X658213Y967867D01*
G01X649293Y979493D01*
G01X637667Y988413D01*
G01X624129Y994021D01*
G01X609600Y995934D01*
G01X595071Y994021D01*
G01X581533Y988413D01*
G01X569907Y979493D01*
G01X560987Y967867D01*
G01X555379Y954329D01*
G01X553466Y939800D01*
G01X553466Y939800D01*
G01X4409Y939800D01*
G01X176875Y1112266D01*
G01X303709Y1112266D01*
G01X305372Y1101420D01*
G01X309699Y1091336D01*
G01X316416Y1082659D01*
G01X363388Y1035687D01*
G01X372383Y1028785D01*
G01X382859Y1024446D01*
G01X394100Y1022966D01*
G01X523240Y1022966D01*
G01X535130Y1015501D01*
G01X548500Y1011219D01*
G01X562515Y1010389D01*
G01X576298Y1013063D01*
G01X588986Y1019073D01*
G01X599785Y1028043D01*
G01X608021Y1039413D01*
G01X613178Y1052471D01*
G01X614934Y1066400D01*
G01X613178Y1080329D01*
G01X608021Y1093387D01*
G01X599785Y1104757D01*
G01X588986Y1113727D01*
G01X576298Y1119737D01*
G01X562515Y1122411D01*
G01X548500Y1121581D01*
G01X535130Y1117299D01*
G01X523240Y1109834D01*
G01X412091Y1109834D01*
G01X392548Y1129377D01*
G01X402630Y1140384D01*
G01X410102Y1153305D01*
G01X414613Y1167533D01*
G01X414620Y1167618D01*
G01X590708Y1167618D01*
G01X592752Y1153368D01*
G01X598354Y1140107D01*
G01X607144Y1128707D01*
G01X618544Y1119917D01*
G01X631805Y1114316D01*
G01X646054Y1112271D01*
G01X660355Y1113918D01*
G01X673767Y1119148D01*
G01X685407Y1127616D01*
G01X694512Y1138767D01*
G01X700480Y1151867D01*
G01X702921Y1166054D01*
G01X909088Y959888D01*
G01X918083Y952985D01*
G01X928558Y948646D01*
G01X939800Y947166D01*
G01X1004240Y947166D01*
G01X1016130Y939701D01*
G01X1029500Y935419D01*
G01X1043515Y934589D01*
G01X1057297Y937263D01*
G01X1069985Y943273D01*
G01X1080785Y952243D01*
G01X1089021Y963613D01*
G01X1094178Y976671D01*
G01X1095934Y990600D01*
G01X1094178Y1004529D01*
G01X1089021Y1017587D01*
G01X1080785Y1028957D01*
G01X1069985Y1037927D01*
G01X1057297Y1043937D01*
G01X1043515Y1046611D01*
G01X1029500Y1045781D01*
G01X1016130Y1041499D01*
G01X1004240Y1034034D01*
G01X957791Y1034034D01*
G01X917569Y1074256D01*
G01X931632Y1076876D01*
G01X944575Y1082966D01*
G01X955559Y1092130D01*
G01X963870Y1103772D01*
G01X968969Y1117137D01*
G01X970524Y1131357D01*
G01X968435Y1145508D01*
G01X962836Y1158672D01*
G01X954093Y1169993D01*
G01X942772Y1178736D01*
G01X929608Y1184335D01*
G01X915457Y1186424D01*
G01X901237Y1184869D01*
G01X887872Y1179770D01*
G01X876230Y1171459D01*
G01X867066Y1160475D01*
G01X860976Y1147532D01*
G01X858356Y1133469D01*
G01X692348Y1299477D01*
G01X699352Y1311520D01*
G01X703174Y1324917D01*
G01X703579Y1338842D01*
G01X700543Y1352439D01*
G01X694252Y1364868D01*
G01X685093Y1375366D01*
G01X673631Y1383285D01*
G01X660572Y1388138D01*
G01X646721Y1389625D01*
G01X632929Y1387656D01*
G01X620048Y1382351D01*
G01X608869Y1374036D01*
G01X600082Y1363225D01*
G01X594229Y1350584D01*
G01X591668Y1336889D01*
G01X592559Y1322987D01*
G01X596847Y1309731D01*
G01X604266Y1297940D01*
G01X604266Y1282700D01*
G01X605746Y1271458D01*
G01X610085Y1260983D01*
G01X616988Y1251988D01*
G01X644490Y1224485D01*
G01X644490Y1224485D01*
G01X630303Y1222044D01*
G01X617204Y1216075D01*
G01X606053Y1206971D01*
G01X597584Y1195330D01*
G01X592355Y1181919D01*
G01X590708Y1167618D01*
G01X414620Y1167618D01*
G01X415951Y1182399D01*
G01X414052Y1197204D01*
G01X409007Y1211252D01*
G01X401053Y1223882D01*
G01X390563Y1234500D01*
G01X390563Y1447800D01*
G01X705866Y1447800D01*
G01X707779Y1433271D01*
G01X713387Y1419733D01*
G01X722307Y1408107D01*
G01X733933Y1399187D01*
G01X747471Y1393579D01*
G01X762000Y1391666D01*
G01X776529Y1393579D01*
G01X790067Y1399187D01*
G01X801693Y1408107D01*
G01X810613Y1419733D01*
G01X816221Y1433271D01*
G01X818134Y1447800D01*
G01X816221Y1462329D01*
G01X810613Y1475867D01*
G01X801693Y1487493D01*
G01X790067Y1496413D01*
G01X776529Y1502021D01*
G01X762000Y1503934D01*
G01X747471Y1502021D01*
G01X733933Y1496413D01*
G01X722307Y1487493D01*
G01X713387Y1475867D01*
G01X707779Y1462329D01*
G01X705866Y1447800D01*
G01X705866Y1447800D01*
G01X390563Y1447800D01*
G01X390563Y1635098D01*
G01X929386Y1635098D01*
G01X931300Y1620566D01*
G01X936910Y1607024D01*
G01X945835Y1595397D01*
G01X936912Y1583772D01*
G01X931301Y1570234D01*
G01X929386Y1555704D01*
G01X931297Y1541174D01*
G01X936904Y1527634D01*
G01X945825Y1516006D01*
G01X957451Y1507084D01*
G01X970990Y1501475D01*
G01X985520Y1499562D01*
G01X985520Y1499562D01*
G01X1000050Y1501475D01*
G01X1013589Y1507084D01*
G01X1025215Y1516006D01*
G01X1034136Y1527634D01*
G01X1039743Y1541174D01*
G01X1041654Y1555704D01*
G01X1039739Y1570234D01*
G01X1034128Y1583772D01*
G01X1025205Y1595397D01*
G01X1034130Y1607024D01*
G01X1039740Y1620566D01*
G01X1041654Y1635098D01*
G01X1048766Y1635098D01*
G01X1050680Y1620566D01*
G01X1056290Y1607024D01*
G01X1065215Y1595397D01*
G01X1056358Y1583886D01*
G01X1050750Y1570488D01*
G01X1048767Y1556100D01*
G01X1050543Y1541684D01*
G01X1055958Y1528207D01*
G01X1064649Y1516570D01*
G01X1055937Y1504896D01*
G01X1050522Y1491374D01*
G01X1048769Y1476913D01*
G01X1050795Y1462489D01*
G01X1056464Y1449071D01*
G01X1065395Y1437564D01*
G01X1076986Y1428742D01*
G01X1090457Y1423199D01*
G01X1104900Y1421310D01*
G01X1119343Y1423199D01*
G01X1132814Y1428742D01*
G01X1144405Y1437564D01*
G01X1153336Y1449071D01*
G01X1159005Y1462489D01*
G01X1161031Y1476913D01*
G01X1159278Y1491374D01*
G01X1153863Y1504896D01*
G01X1145151Y1516570D01*
G01X1153842Y1528207D01*
G01X1159257Y1541684D01*
G01X1161033Y1556100D01*
G01X1159050Y1570488D01*
G01X1153442Y1583886D01*
G01X1144585Y1595397D01*
G01X1144585Y1595397D01*
G01X1153510Y1607024D01*
G01X1159120Y1620566D01*
G01X1161034Y1635098D01*
G01X1159120Y1649630D01*
G01X1153510Y1663172D01*
G01X1144585Y1674799D01*
G01X1153508Y1686424D01*
G01X1159119Y1699963D01*
G01X1161034Y1714492D01*
G01X1159123Y1729022D01*
G01X1153516Y1742563D01*
G01X1144595Y1754190D01*
G01X1132969Y1763112D01*
G01X1119430Y1768721D01*
G01X1104900Y1770634D01*
G01X1090370Y1768721D01*
G01X1076831Y1763112D01*
G01X1065205Y1754190D01*
G01X1056284Y1742563D01*
G01X1050677Y1729022D01*
G01X1048766Y1714492D01*
G01X1050681Y1699963D01*
G01X1056292Y1686424D01*
G01X1065215Y1674799D01*
G01X1056290Y1663172D01*
G01X1050680Y1649630D01*
G01X1048766Y1635098D01*
G01X1041654Y1635098D01*
G01X1039740Y1649630D01*
G01X1034130Y1663172D01*
G01X1025205Y1674799D01*
G01X1034128Y1686424D01*
G01X1039739Y1699963D01*
G01X1041654Y1714492D01*
G01X1039743Y1729022D01*
G01X1034136Y1742563D01*
G01X1025215Y1754190D01*
G01X1013589Y1763112D01*
G01X1000050Y1768721D01*
G01X985520Y1770634D01*
G01X970990Y1768721D01*
G01X957451Y1763112D01*
G01X945825Y1754190D01*
G01X936904Y1742563D01*
G01X931297Y1729022D01*
G01X929386Y1714492D01*
G01X931301Y1699963D01*
G01X936912Y1686424D01*
G01X945835Y1674799D01*
G01X936910Y1663172D01*
G01X931300Y1649630D01*
G01X929386Y1635098D01*
G01X390563Y1635098D01*
G01X390563Y1859976D01*
G01X705866Y1859976D01*
G01X707779Y1845447D01*
G01X713387Y1831909D01*
G01X722307Y1820283D01*
G01X733933Y1811362D01*
G01X747471Y1805755D01*
G01X762000Y1803842D01*
G01X776529Y1805755D01*
G01X790067Y1811362D01*
G01X801693Y1820283D01*
G01X810613Y1831909D01*
G01X816221Y1845447D01*
G01X818134Y1859976D01*
G01X816221Y1874505D01*
G01X810613Y1888043D01*
G01X801693Y1899669D01*
G01X790067Y1908589D01*
G01X776529Y1914197D01*
G01X762000Y1916110D01*
G01X747471Y1914197D01*
G01X733933Y1908589D01*
G01X722307Y1899669D01*
G01X713387Y1888043D01*
G01X707779Y1874505D01*
G01X705866Y1859976D01*
G01X705866Y1859976D01*
G01X390563Y1859976D01*
G01X390563Y1878538D01*
G01X678391Y2166366D01*
G01X701040Y2166366D01*
G01X712993Y2158871D01*
G01X726438Y2154593D01*
G01X740525Y2153803D01*
G01X754363Y2156551D01*
G01X767080Y2162662D01*
G01X777871Y2171751D01*
G01X786055Y2183243D01*
G01X791114Y2196414D01*
G01X792730Y2210429D01*
G01X790801Y2224405D01*
G01X785447Y2237459D01*
G01X777007Y2248765D01*
G01X953946Y2248765D01*
G01X1043751Y2208516D01*
G01X1131862Y2164681D01*
G01X1218136Y2117334D01*
G01X1302433Y2066549D01*
G01X1318878Y2046495D01*
G01X1332434Y2024385D01*
G01X1342847Y2000632D01*
G01X1349922Y1975681D01*
G01X1353527Y1949997D01*
G01X1353594Y1924062D01*
G01X1350123Y1898361D01*
G01X1343177Y1873373D01*
G01X1332888Y1849566D01*
G01X1319447Y1827386D01*
G01X1303106Y1807247D01*
G01X1278536Y1779862D01*
G01X1256960Y1750062D01*
G01X1238613Y1718172D01*
G01X1223696Y1684541D01*
G01X1212372Y1649536D01*
G01X1204764Y1613540D01*
G01X1200956Y1576947D01*
G01X1200989Y1540156D01*
G01X1204864Y1503569D01*
G01X1212537Y1467587D01*
G01X1223925Y1432603D01*
G01X1238903Y1398999D01*
G01X1257308Y1367143D01*
G01X1278939Y1337382D01*
G01X1303558Y1310042D01*
G01X1330897Y1285422D01*
G01X1360657Y1263791D01*
G01X1392514Y1245385D01*
G01X1426117Y1230406D01*
G01X1461101Y1219017D01*
G01X1497083Y1211343D01*
G01X1533669Y1207468D01*
G01X1570460Y1207433D01*
G01X1607054Y1211240D01*
G01X1643050Y1218847D01*
G01X1678055Y1230171D01*
G01X1711687Y1245087D01*
G01X1743577Y1263433D01*
G01X1773378Y1285009D01*
G01X1800763Y1309578D01*
G01X1821564Y1326368D01*
G01X1844518Y1340069D01*
G01X1869169Y1350409D01*
G01X1895028Y1357183D01*
G01X1921583Y1360256D01*
G01X1948306Y1359567D01*
G01X1974668Y1355131D01*
G01X2000144Y1347035D01*
G01X2024230Y1335440D01*
G01X2046448Y1320576D01*
G01X2066358Y1302737D01*
G01X2109825Y1231095D01*
G01X2150810Y1158004D01*
G01X2189264Y1083550D01*
G01X2195072Y1075041D01*
G01X2202998Y1068458D01*
G01X2212429Y1064310D01*
G01X2222637Y1062916D01*
G01X2399986Y1062916D01*
G01X2419596Y1061203D01*
G01X2438610Y1056110D01*
G01X2456450Y1047793D01*
G01X2472575Y1036504D01*
G01X2486495Y1022586D01*
G01X2497786Y1006462D01*
G01X2506105Y988623D01*
G01X2511200Y969609D01*
G01X2512916Y950000D01*
G01X2512916Y-949986D01*
G01X2511202Y-969595D01*
G01X2506110Y-988609D01*
G01X2497792Y-1006450D01*
G01X2486503Y-1022575D01*
G01X2472585Y-1036494D01*
G01X2456462Y-1047785D01*
G01X2438622Y-1056105D01*
G01X2419609Y-1061200D01*
G01X2400000Y-1062915D01*
G01X2222701Y-1062916D01*
G01X2221464Y-1062937D01*
G01X2211463Y-1064669D01*
G01X2202303Y-1069042D01*
G01X2194667Y-1075729D01*
G01X2189124Y-1084233D01*
G01X2189124Y-1084233D01*
G01X2150921Y-1158174D01*
G01X2110220Y-1230771D01*
G01X2067071Y-1301940D01*
G01X2067071Y-1301940D01*
G01X2047026Y-1318499D01*
G01X2024905Y-1332161D01*
G01X2001123Y-1342670D01*
G01X1976127Y-1349827D01*
G01X1950388Y-1353499D01*
G01X1924388Y-1353615D01*
G01X1898616Y-1350175D01*
G01X1873558Y-1343242D01*
G01X1849682Y-1332948D01*
G01X1827439Y-1319485D01*
G01X1807247Y-1303106D01*
G01X1779862Y-1278536D01*
G01X1750062Y-1256960D01*
G01X1718171Y-1238613D01*
G01X1684540Y-1223696D01*
G01X1649535Y-1212371D01*
G01X1613539Y-1204764D01*
G01X1576945Y-1200956D01*
G01X1540154Y-1200990D01*
G01X1503567Y-1204864D01*
G01X1467585Y-1212538D01*
G01X1432600Y-1223926D01*
G01X1398996Y-1238905D01*
G01X1367140Y-1257310D01*
G01X1337379Y-1278941D01*
G01X1310039Y-1303561D01*
G01X1285419Y-1330901D01*
G01X1263788Y-1360661D01*
G01X1245383Y-1392518D01*
G01X1230404Y-1426122D01*
G01X1219016Y-1461107D01*
G01X1211342Y-1497089D01*
G01X1207468Y-1533675D01*
G01X1207434Y-1570467D01*
G01X1211242Y-1607061D01*
G01X1218849Y-1643057D01*
G01X1230174Y-1678062D01*
G01X1245091Y-1711693D01*
G01X1263438Y-1743584D01*
G01X1285014Y-1773384D01*
G01X1309584Y-1800769D01*
G01X1325383Y-1820142D01*
G01X1338497Y-1841425D01*
G01X1348698Y-1864248D01*
G01X1355809Y-1888214D01*
G01X1359706Y-1912907D01*
G01X1360321Y-1937898D01*
G01X1357644Y-1962753D01*
G01X-1352184Y-1962753D01*
G01X-1353992Y-1938757D01*
G01X-1352746Y-1914726D01*
G01X-1348468Y-1891045D01*
G01X-1341225Y-1868097D01*
G01X-1331135Y-1846251D01*
G01X-1318360Y-1825858D01*
G01X-1303106Y-1807247D01*
G01X-1278536Y-1779862D01*
G01X-1256960Y-1750062D01*
G01X-1238613Y-1718171D01*
G01X-1223696Y-1684540D01*
G01X-1216954Y-1663700D01*
G01X248666Y-1663700D01*
G01X250579Y-1678229D01*
G01X256187Y-1691767D01*
G01X265107Y-1703393D01*
G01X276733Y-1712313D01*
G01X290271Y-1717921D01*
G01X304800Y-1719834D01*
G01X319329Y-1717921D01*
G01X332867Y-1712313D01*
G01X344493Y-1703393D01*
G01X353413Y-1691767D01*
G01X359021Y-1678229D01*
G01X360934Y-1663700D01*
G01X359021Y-1649171D01*
G01X353413Y-1635633D01*
G01X344493Y-1624007D01*
G01X332867Y-1615087D01*
G01X319329Y-1609479D01*
G01X304800Y-1607566D01*
G01X290271Y-1609479D01*
G01X276733Y-1615087D01*
G01X265107Y-1624007D01*
G01X256187Y-1635633D01*
G01X250579Y-1649171D01*
G01X248666Y-1663700D01*
G01X248666Y-1663700D01*
G01X-1216954Y-1663700D01*
G01X-1212371Y-1649535D01*
G01X-1204764Y-1613539D01*
G01X-1200956Y-1576945D01*
G01X-1200989Y-1540153D01*
G01X-1204864Y-1503567D01*
G01X-1212538Y-1467585D01*
G01X-1223926Y-1432600D01*
G01X-1238905Y-1398996D01*
G01X-1257310Y-1367139D01*
G01X-1278941Y-1337379D01*
G01X-1303561Y-1310039D01*
G01X-1319817Y-1295400D01*
G01X-1008634Y-1295400D01*
G01X-1006721Y-1309929D01*
G01X-1001113Y-1323467D01*
G01X-992193Y-1335093D01*
G01X-980567Y-1344013D01*
G01X-967029Y-1349621D01*
G01X-952500Y-1351534D01*
G01X-937971Y-1349621D01*
G01X-924433Y-1344013D01*
G01X-912807Y-1335093D01*
G01X-909970Y-1331395D01*
G01X369592Y-1331395D01*
G01X371504Y-1345924D01*
G01X377112Y-1359462D01*
G01X386033Y-1371088D01*
G01X397659Y-1380009D01*
G01X411197Y-1385616D01*
G01X425726Y-1387529D01*
G01X440254Y-1385616D01*
G01X453793Y-1380009D01*
G01X465418Y-1371088D01*
G01X474339Y-1359462D01*
G01X479947Y-1345924D01*
G01X481860Y-1331395D01*
G01X479947Y-1316867D01*
G01X474339Y-1303328D01*
G01X465418Y-1291702D01*
G01X453793Y-1282782D01*
G01X440254Y-1277174D01*
G01X425726Y-1275261D01*
G01X411197Y-1277174D01*
G01X397659Y-1282782D01*
G01X386033Y-1291702D01*
G01X377112Y-1303328D01*
G01X371504Y-1316867D01*
G01X369592Y-1331395D01*
G01X369592Y-1331395D01*
G01X-909970Y-1331395D01*
G01X-903887Y-1323467D01*
G01X-898279Y-1309929D01*
G01X-896366Y-1295400D01*
G01X-898279Y-1280871D01*
G01X-903887Y-1267333D01*
G01X-912807Y-1255707D01*
G01X-924433Y-1246787D01*
G01X-937971Y-1241179D01*
G01X-952500Y-1239266D01*
G01X-967029Y-1241179D01*
G01X-980567Y-1246787D01*
G01X-992193Y-1255707D01*
G01X-1001113Y-1267333D01*
G01X-1006721Y-1280871D01*
G01X-1008634Y-1295400D01*
G01X-1008634Y-1295400D01*
G01X-1319817Y-1295400D01*
G01X-1330901Y-1285419D01*
G01X-1360661Y-1263788D01*
G01X-1392518Y-1245383D01*
G01X-1426122Y-1230404D01*
G01X-1461106Y-1219016D01*
G01X-1497089Y-1211342D01*
G01X-1533675Y-1207467D01*
G01X-1570467Y-1207434D01*
G01X-1607060Y-1211241D01*
G01X-1643057Y-1218849D01*
G01X-1678062Y-1230173D01*
G01X-1711693Y-1245091D01*
G01X-1743584Y-1263438D01*
G01X-1773384Y-1285014D01*
G01X-1800769Y-1309584D01*
G01X-1800769Y-1309584D01*
G01X-1821457Y-1326310D01*
G01X-1844281Y-1339976D01*
G01X-1868794Y-1350315D01*
G01X-1894512Y-1357121D01*
G01X-1920929Y-1360263D01*
G01X-1947526Y-1359677D01*
G01X-1973779Y-1355375D01*
G01X-1999173Y-1347442D01*
G01X-2023206Y-1336034D01*
G01X-2045407Y-1321376D01*
G01X-2065338Y-1303755D01*
G01X-2113342Y-1224413D01*
G01X-2158299Y-1143305D01*
G01X-2200144Y-1060549D01*
G01X-2238818Y-976265D01*
G01X-2274265Y-890572D01*
G01X-2306433Y-803597D01*
G01X-2335276Y-715462D01*
G01X-2335276Y-715462D01*
G01X-2335276Y-668312D01*
G01X-957834Y-668312D01*
G01X-957834Y-952500D01*
G01X-955921Y-967029D01*
G01X-950313Y-980567D01*
G01X-941393Y-992193D01*
G01X-738193Y-1195393D01*
G01X-726567Y-1204313D01*
G01X-713029Y-1209921D01*
G01X-698500Y-1211834D01*
G01X421249Y-1211834D01*
G01X569907Y-1360493D01*
G01X581533Y-1369413D01*
G01X595071Y-1375021D01*
G01X609600Y-1376934D01*
G01X1079500Y-1376934D01*
G01X1094029Y-1375021D01*
G01X1107567Y-1369413D01*
G01X1119193Y-1360493D01*
G01X1356751Y-1122934D01*
G01X1638300Y-1122934D01*
G01X1652829Y-1121021D01*
G01X1666367Y-1115413D01*
G01X1677993Y-1106493D01*
G01X1910979Y-873506D01*
G01X2238766Y-873506D01*
G01X2240652Y-893853D01*
G01X2246244Y-913508D01*
G01X2255352Y-931800D01*
G01X2267667Y-948107D01*
G01X2282768Y-961874D01*
G01X2300142Y-972631D01*
G01X2319196Y-980013D01*
G01X2339283Y-983767D01*
G01X2359717Y-983767D01*
G01X2379804Y-980013D01*
G01X2398858Y-972631D01*
G01X2416232Y-961874D01*
G01X2431333Y-948107D01*
G01X2443648Y-931800D01*
G01X2452756Y-913508D01*
G01X2458348Y-893853D01*
G01X2460234Y-873506D01*
G01X2460234Y-873506D01*
G01X2458348Y-853159D01*
G01X2452756Y-833504D01*
G01X2443648Y-815212D01*
G01X2431333Y-798905D01*
G01X2416232Y-785138D01*
G01X2398858Y-774381D01*
G01X2379804Y-766999D01*
G01X2359717Y-763245D01*
G01X2339283Y-763245D01*
G01X2319196Y-766999D01*
G01X2300142Y-774381D01*
G01X2282768Y-785138D01*
G01X2267667Y-798905D01*
G01X2255352Y-815212D01*
G01X2246244Y-833504D01*
G01X2240652Y-853159D01*
G01X2238766Y-873506D01*
G01X1910979Y-873506D01*
G01X2101303Y-683183D01*
G01X2110224Y-671557D01*
G01X2115831Y-658018D01*
G01X2117744Y-643490D01*
G01X2117744Y337566D01*
G01X2438400Y337566D01*
G01X2447897Y339070D01*
G01X2456465Y343436D01*
G01X2463264Y350235D01*
G01X2467630Y358803D01*
G01X2469134Y368300D01*
G01X2469134Y593100D01*
G01X2467630Y602597D01*
G01X2463264Y611165D01*
G01X2456465Y617964D01*
G01X2447897Y622330D01*
G01X2438400Y623834D01*
G01X1932300Y623834D01*
G01X1922803Y622330D01*
G01X1914235Y617964D01*
G01X1907436Y611165D01*
G01X1903070Y602597D01*
G01X1901566Y593100D01*
G01X1901566Y368300D01*
G01X1903070Y358803D01*
G01X1907436Y350235D01*
G01X1914235Y343436D01*
G01X1922803Y339070D01*
G01X1932300Y337566D01*
G01X2005476Y337566D01*
G01X2005476Y-620238D01*
G01X2005476Y-620238D01*
G01X1615049Y-1010666D01*
G01X1333500Y-1010666D01*
G01X1318971Y-1012579D01*
G01X1305433Y-1018187D01*
G01X1293807Y-1027107D01*
G01X1056249Y-1264666D01*
G01X632851Y-1264666D01*
G01X484193Y-1116007D01*
G01X472567Y-1107087D01*
G01X459029Y-1101479D01*
G01X444500Y-1099566D01*
G01X-675249Y-1099566D01*
G01X-845566Y-929249D01*
G01X-845566Y-691563D01*
G01X-705375Y-551372D01*
G01X-692098Y-544137D01*
G01X-681000Y-533868D01*
G01X-672757Y-521193D01*
G01X-667872Y-506884D01*
G01X-666644Y-491814D01*
G01X-669147Y-476902D01*
G01X-675229Y-463059D01*
G01X-684518Y-451129D01*
G01X-696448Y-441840D01*
G01X-710291Y-435759D01*
G01X-725202Y-433256D01*
G01X-740272Y-434484D01*
G01X-754582Y-439368D01*
G01X-767257Y-447611D01*
G01X-777525Y-458709D01*
G01X-784760Y-471986D01*
G01X-941393Y-628619D01*
G01X-950313Y-640245D01*
G01X-955921Y-653783D01*
G01X-957834Y-668312D01*
G01X-2335276Y-668312D01*
G01X-2335276Y-604235D01*
G01X-1483881Y-604235D01*
G01X-1481969Y-618763D01*
G01X-1476361Y-632302D01*
G01X-1467440Y-643927D01*
G01X-1455814Y-652848D01*
G01X-1442276Y-658456D01*
G01X-1427747Y-660369D01*
G01X-1413219Y-658456D01*
G01X-1399680Y-652848D01*
G01X-1388055Y-643927D01*
G01X-1379134Y-632302D01*
G01X-1373526Y-618763D01*
G01X-1371613Y-604235D01*
G01X-1373526Y-589706D01*
G01X-1379134Y-576168D01*
G01X-1388055Y-564542D01*
G01X-1399680Y-555621D01*
G01X-1413219Y-550013D01*
G01X-1427747Y-548101D01*
G01X-1442276Y-550013D01*
G01X-1455814Y-555621D01*
G01X-1467440Y-564542D01*
G01X-1476361Y-576168D01*
G01X-1481969Y-589706D01*
G01X-1483881Y-604235D01*
G01X-1483881Y-604235D01*
G01X-2335276Y-604235D01*
G01X-2335276Y-254000D01*
G01X-1918834Y-254000D01*
G01X-1916921Y-268529D01*
G01X-1911314Y-282067D01*
G01X-1902393Y-293693D01*
G01X-1890767Y-302613D01*
G01X-1877229Y-308221D01*
G01X-1862700Y-310134D01*
G01X-1848172Y-308221D01*
G01X-1834633Y-302613D01*
G01X-1823007Y-293693D01*
G01X-1814087Y-282067D01*
G01X-1808479Y-268529D01*
G01X-1806566Y-254000D01*
G01X-1808479Y-239471D01*
G01X-1814087Y-225933D01*
G01X-1823007Y-214307D01*
G01X-1834633Y-205387D01*
G01X-1848172Y-199779D01*
G01X-1862700Y-197866D01*
G01X-1877229Y-199779D01*
G01X-1890767Y-205387D01*
G01X-1902393Y-214307D01*
G01X-1911314Y-225933D01*
G01X-1916921Y-239471D01*
G01X-1918834Y-254000D01*
G01X-1918834Y-254000D01*
G01X-2335276Y-254000D01*
G01X-2335276Y-107798D01*
G01X-1331880Y-107798D01*
G01X-1329967Y-122326D01*
G01X-1324359Y-135865D01*
G01X-1315439Y-147490D01*
G01X-1303813Y-156411D01*
G01X-1290275Y-162019D01*
G01X-1275746Y-163932D01*
G01X-1261217Y-162019D01*
G01X-1247679Y-156411D01*
G01X-1236053Y-147490D01*
G01X-1227133Y-135865D01*
G01X-1221525Y-122326D01*
G01X-1219612Y-107798D01*
G01X-1221525Y-93269D01*
G01X-1227133Y-79731D01*
G01X-1236053Y-68105D01*
G01X-1247679Y-59184D01*
G01X-1261217Y-53576D01*
G01X-1275746Y-51664D01*
G01X-1290275Y-53576D01*
G01X-1303813Y-59184D01*
G01X-1315439Y-68105D01*
G01X-1324359Y-79731D01*
G01X-1329967Y-93269D01*
G01X-1331880Y-107798D01*
G01X-1331880Y-107798D01*
G01X-2335276Y-107798D01*
G01X-2335276Y282854D01*
G01X-868606Y282854D01*
G01X-867778Y268924D01*
G01X-863540Y255628D01*
G01X-856154Y243789D01*
G01X-846075Y234137D01*
G01X-833927Y227270D01*
G01X-820460Y223611D01*
G01X-817551Y209963D01*
G01X-811365Y197455D01*
G01X-802284Y186859D01*
G01X-790871Y178830D01*
G01X-777829Y173864D01*
G01X-763966Y172269D01*
G01X-750138Y174143D01*
G01X-737199Y179370D01*
G01X-725949Y187627D01*
G01X-717084Y198404D01*
G01X-711151Y211034D01*
G01X-708516Y224738D01*
G01X-709344Y238668D01*
G01X-713582Y251964D01*
G01X-720968Y263803D01*
G01X-731047Y273454D01*
G01X-743195Y280322D01*
G01X-756662Y283980D01*
G01X-759571Y297628D01*
G01X-765757Y310137D01*
G01X-774838Y320733D01*
G01X-786251Y328762D01*
G01X-799293Y333727D01*
G01X-813156Y335322D01*
G01X-826984Y333449D01*
G01X-839923Y328222D01*
G01X-851173Y319965D01*
G01X-851173Y319965D01*
G01X-860038Y309188D01*
G01X-865971Y296557D01*
G01X-868606Y282854D01*
G01X-2335276Y282854D01*
G01X-2335276Y711775D01*
G01X-1161031Y711775D01*
G01X-1159315Y697414D01*
G01X-1153986Y683967D01*
G01X-1145398Y672329D01*
G01X-1134121Y663271D01*
G01X-1120905Y657396D01*
G01X-1106625Y655093D01*
G01X-1056894Y605361D01*
G01X-1056894Y546454D01*
G01X-1065362Y534728D01*
G01X-1070553Y521228D01*
G01X-1072122Y506850D01*
G01X-1069965Y492548D01*
G01X-1064225Y479271D01*
G01X-1055284Y467903D01*
G01X-1043734Y459196D01*
G01X-1030343Y453729D01*
G01X-1016000Y451866D01*
G01X-1001657Y453729D01*
G01X-988266Y459196D01*
G01X-976716Y467903D01*
G01X-967775Y479271D01*
G01X-962035Y492548D01*
G01X-959878Y506850D01*
G01X-961447Y521228D01*
G01X-966638Y534728D01*
G01X-975106Y546454D01*
G01X-975106Y622300D01*
G01X-976499Y632884D01*
G01X-980585Y642747D01*
G01X-987084Y651216D01*
G01X-1021667Y685800D01*
G01X-627634Y685800D01*
G01X-625721Y671271D01*
G01X-620113Y657733D01*
G01X-611193Y646107D01*
G01X-599567Y637187D01*
G01X-586029Y631579D01*
G01X-571500Y629666D01*
G01X-556971Y631579D01*
G01X-543433Y637187D01*
G01X-531807Y646107D01*
G01X-522887Y657733D01*
G01X-517279Y671271D01*
G01X-515366Y685800D01*
G01X-517279Y700329D01*
G01X-522887Y713867D01*
G01X-531807Y725493D01*
G01X-543433Y734413D01*
G01X-556971Y740021D01*
G01X-571500Y741934D01*
G01X-586029Y740021D01*
G01X-599567Y734413D01*
G01X-611193Y725493D01*
G01X-620113Y713867D01*
G01X-625721Y700329D01*
G01X-627634Y685800D01*
G01X-627634Y685800D01*
G01X-1021667Y685800D01*
G01X-1048793Y712925D01*
G01X-1051096Y727205D01*
G01X-1056971Y740421D01*
G01X-1066029Y751698D01*
G01X-1077667Y760286D01*
G01X-1091114Y765615D01*
G01X-1105475Y767331D01*
G01X-1119799Y765321D01*
G01X-1133133Y759717D01*
G01X-1144593Y750893D01*
G01X-1144593Y750893D01*
G01X-1153417Y739433D01*
G01X-1159021Y726099D01*
G01X-1161031Y711775D01*
G01X-2335276Y711775D01*
G01X-2335276Y716551D01*
G01X-2306523Y804306D01*
G01X-2303380Y812800D01*
G01X-1616013Y812800D01*
G01X-1614101Y798271D01*
G01X-1608493Y784733D01*
G01X-1599572Y773107D01*
G01X-1587946Y764187D01*
G01X-1574408Y758579D01*
G01X-1559879Y756666D01*
G01X-1545351Y758579D01*
G01X-1531812Y764187D01*
G01X-1520187Y773107D01*
G01X-1511266Y784733D01*
G01X-1505658Y798271D01*
G01X-1503745Y812800D01*
G01X-1505658Y827329D01*
G01X-1511266Y840867D01*
G01X-1520187Y852493D01*
G01X-1531812Y861413D01*
G01X-1545351Y867021D01*
G01X-1559879Y868934D01*
G01X-1574408Y867021D01*
G01X-1587946Y861413D01*
G01X-1599572Y852493D01*
G01X-1608493Y840867D01*
G01X-1614101Y827329D01*
G01X-1616013Y812800D01*
G01X-1616013Y812800D01*
G01X-2303380Y812800D01*
G01X-2274475Y890911D01*
G01X-2239176Y976243D01*
G01X-2200676Y1060180D01*
G01X-2159032Y1142602D01*
G01X-2114302Y1223391D01*
G01X-2066550Y1302432D01*
G01X-2046496Y1318878D01*
G01X-2024386Y1332434D01*
G01X-2000633Y1342847D01*
G01X-1975681Y1349922D01*
G01X-1949998Y1353527D01*
G01X-1924063Y1353594D01*
G01X-1898361Y1350123D01*
G01X-1873373Y1343178D01*
G01X-1849566Y1332888D01*
G01X-1827386Y1319448D01*
G01X-1807246Y1303106D01*
G01X-1779862Y1278537D01*
G01X-1750062Y1256960D01*
G01X-1718172Y1238613D01*
G01X-1684541Y1223696D01*
G01X-1649536Y1212372D01*
G01X-1613540Y1204764D01*
G01X-1576947Y1200956D01*
G01X-1540156Y1200990D01*
G01X-1503569Y1204864D01*
G01X-1467587Y1212537D01*
G01X-1432603Y1223925D01*
G01X-1398999Y1238903D01*
G01X-1367142Y1257308D01*
G01X-1337382Y1278939D01*
G01X-1310042Y1303558D01*
G01X-1285422Y1330897D01*
G01X-1263791Y1360658D01*
G01X-1245385Y1392514D01*
G01X-1230406Y1426117D01*
G01X-1219017Y1461101D01*
G01X-1211343Y1497083D01*
G01X-1207468Y1533669D01*
G01X-1207433Y1570460D01*
G01X-1211240Y1607054D01*
G01X-1218847Y1643050D01*
G01X-1220351Y1647699D01*
G01X-500633Y1647699D01*
G01X-498720Y1633171D01*
G01X-493112Y1619632D01*
G01X-484191Y1608007D01*
G01X-472566Y1599086D01*
G01X-459027Y1593478D01*
G01X-444499Y1591565D01*
G01X-429970Y1593478D01*
G01X-416432Y1599086D01*
G01X-404806Y1608007D01*
G01X-395885Y1619632D01*
G01X-390277Y1633171D01*
G01X-388365Y1647699D01*
G01X-390277Y1662228D01*
G01X-395885Y1675766D01*
G01X-404806Y1687392D01*
G01X-416432Y1696313D01*
G01X-429970Y1701921D01*
G01X-444499Y1703833D01*
G01X-459027Y1701921D01*
G01X-472566Y1696313D01*
G01X-484191Y1687392D01*
G01X-493112Y1675766D01*
G01X-498720Y1662228D01*
G01X-500633Y1647699D01*
G01X-500633Y1647699D01*
G01X-1220351Y1647699D01*
G01X-1230171Y1678055D01*
G01X-1245087Y1711686D01*
G01X-1263433Y1743577D01*
G01X-1285009Y1773378D01*
G01X-1309578Y1800763D01*
G01X-1326368Y1821564D01*
G01X-1340069Y1844518D01*
G01X-1350408Y1869169D01*
G01X-1357182Y1895029D01*
G01X-1359806Y1917700D01*
G01X-322834Y1917700D01*
G01X-320921Y1903171D01*
G01X-315313Y1889633D01*
G01X-306393Y1878007D01*
G01X-294767Y1869087D01*
G01X-281229Y1863479D01*
G01X-266700Y1861566D01*
G01X-252171Y1863479D01*
G01X-238633Y1869087D01*
G01X-227007Y1878007D01*
G01X-218087Y1889633D01*
G01X-212479Y1903171D01*
G01X-210566Y1917700D01*
G01X-212479Y1932229D01*
G01X-218087Y1945767D01*
G01X-227007Y1957393D01*
G01X-238633Y1966313D01*
G01X-252171Y1971921D01*
G01X-266700Y1973834D01*
G01X-281229Y1971921D01*
G01X-294767Y1966313D01*
G01X-306393Y1957393D01*
G01X-315313Y1945767D01*
G01X-320921Y1932229D01*
G01X-322834Y1917700D01*
G01X-322834Y1917700D01*
G01X-1359806Y1917700D01*
G01X-1360255Y1921584D01*
G01X-1359567Y1948307D01*
G01X-1355131Y1974668D01*
G01X-1347035Y2000145D01*
G01X-1335439Y2024231D01*
G01X-1320575Y2046449D01*
G01X-1302736Y2066359D01*
G01X-1218369Y2117200D01*
G01X-1132021Y2164599D01*
G01X-1043833Y2208477D01*
G01X-953947Y2248765D01*
G37*
G54D10*
G01X1942460Y378460D02*
G01X1942460Y582940D01*
G01X2428240Y582940D01*
G01X2428240Y378460D01*
G01X1942460Y378460D01*
G01X911860Y688340D02*
G01X1119179Y688340D01*
G03X1164226Y643293I55207J10160D01*
G01X1164226Y495696D01*
G01X911860Y495696D01*
G01X911860Y688340D01*
G01X-953947Y2248765D02*
G01X641211Y2248765D01*
G03X629688Y2240512I19189J-38965D01*
G01X316416Y1927241D01*
G03X303695Y1896529I30712J-30712D01*
G01X303695Y1249934D01*
G01X148363Y1249934D01*
G03X99690Y1229773I0J-68834D01*
G01X-160861Y969222D01*
G03X-165429Y974474I-44558J-34141D01*
G03X-150540Y1035441I-37771J41526D01*
G03X-201475Y1072107I-52660J-19441D01*
G01X-510834Y1381466D01*
G03X-539750Y1393444I-28916J-28916D01*
G01X-767996Y1393444D01*
G03X-862584Y1352550I-38454J-40894D01*
G03X-767996Y1311656I56134J0D01*
G01X-556689Y1311656D01*
G01X-401216Y1156183D01*
G01X-1076835Y1156183D01*
G03X-1171423Y1115289I-38454J-40894D01*
G03X-1076835Y1074395I56134J0D01*
G01X-402566Y1074395D01*
G01X-261527Y933355D01*
G03X-256463Y911723I56107J1725D01*
G01X-260733Y915993D01*
G03X-300425Y932434I-39693J-39693D01*
G01X-1028700Y932434D01*
G03X-1084834Y876300I0J-56134D01*
G03X-1028700Y820166I56134J0D01*
G01X-323677Y820166D01*
G01X-316797Y813286D01*
G01X-370211Y759872D01*
G01X-376242Y759872D01*
G03X-464144Y758188I-43135J-43434D01*
G03X-459701Y670382I44767J-41750D01*
G01X-543973Y586110D01*
G03X-564134Y537437I48673J-48673D01*
G01X-564134Y399034D01*
G01X-599440Y399034D01*
G03X-691134Y355600I-35560J-43434D01*
G03X-599440Y312166I56134J0D01*
G01X-564134Y312166D01*
G01X-564134Y-13460D01*
G01X-607638Y-56964D01*
G03X-627799Y-105637I48673J-48673D01*
G01X-627799Y-380835D01*
G03X-607638Y-429508I68834J0D01*
G01X-598393Y-438753D01*
G01X-598393Y-469900D01*
G03X-578232Y-518573I68834J0D01*
G01X-502032Y-594773D01*
G03X-453359Y-614934I48673J48673D01*
G01X655066Y-614934D01*
G01X655066Y-686784D01*
G03X711200Y-772414I56134J-24416D01*
G03X767334Y-686784I0J61214D01*
G01X767334Y-611615D01*
G03X794891Y-594773I-21116J65515D01*
G01X848773Y-540891D01*
G03X868934Y-492218I-48673J48673D01*
G01X868934Y276288D01*
G01X1047448Y454802D01*
G01X1174386Y454802D01*
G03X1205120Y485536I0J30734D01*
G01X1205120Y651527D01*
G03X1229584Y708708I-30734J46973D01*
G03X1186287Y753358I-55198J-10208D01*
G03X1118107Y804094I-55987J-4058D01*
G03X1077875Y729234I12193J-54794D01*
G01X901700Y729234D01*
G03X871477Y704079I0J-30734D01*
G01X849047Y726509D01*
G03X753497Y760634I-55857J-5568D01*
G03X787622Y665084I39693J-39693D01*
G01X866178Y586527D01*
G03X870966Y582391I30713J30712D01*
G01X870966Y485536D01*
G03X872862Y474908I30734J0D01*
G01X751427Y353473D01*
G03X731266Y304800I48673J-48673D01*
G01X731266Y45579D01*
G03X642366Y0I-32766J-45579D01*
G03X731266Y-45579I56134J0D01*
G01X731266Y-463706D01*
G01X717706Y-477266D01*
G01X322834Y-477266D01*
G01X322834Y-386035D01*
G03X279400Y-281686I-43434J43135D01*
G03X235966Y-386035I0J-61214D01*
G01X235966Y-477266D01*
G01X145034Y-477266D01*
G01X145034Y-386035D01*
G03X101600Y-281686I-43434J43135D01*
G03X58166Y-386035I0J-61214D01*
G01X58166Y-477266D01*
G01X-424847Y-477266D01*
G01X-433871Y-468242D01*
G03X-393261Y-399034I-19569J58002D01*
G01X-208235Y-399034D01*
G03X-103886Y-355600I43135J43434D01*
G03X-208235Y-312166I-61214J0D01*
G01X-490131Y-312166D01*
G01X-490131Y-271527D01*
G03X-432382Y-240983I7531J55627D01*
G03X-442650Y-176466I-50218J25083D01*
G03X-448624Y-92642I-40115J39266D01*
G01X-446627Y-90645D01*
G03X-426466Y-41972I-48673J48673D01*
G01X-426466Y-29290D01*
G01X-316404Y-29290D01*
G03X-224710Y14144I35560J43434D01*
G03X-316404Y57578I-56134J0D01*
G01X-426466Y57578D01*
G01X-426466Y140564D01*
G01X-365760Y140564D01*
G03X-274066Y183998I35560J43434D01*
G03X-365760Y227432I-56134J0D01*
G01X-426466Y227432D01*
G01X-426466Y508925D01*
G01X-106205Y829185D01*
G03X-11107Y798507I55405J9015D01*
G03X-41785Y893605I-39693J39693D01*
G01X176875Y1112266D01*
G01X303709Y1112266D01*
G03X316416Y1082659I43420J1105D01*
G01X363388Y1035687D01*
G03X394100Y1022966I30712J30712D01*
G01X523240Y1022966D01*
G03X614934Y1066400I35560J43434D01*
G03X523240Y1109834I-56134J0D01*
G01X412091Y1109834D01*
G01X392548Y1129377D01*
G03X390563Y1234500I-45419J51723D01*
G01X390563Y1878538D01*
G01X678391Y2166366D01*
G01X701040Y2166366D01*
G03X777871Y2171751I35560J43434D01*
G03X777007Y2248765I-41271J38049D01*
G01X953946Y2248765D01*
G02X1302433Y2066549I-953946J-2248765D01*
G02X1303106Y1807247I-138089J-130011D01*
G03X1800763Y1309578I249287J-248376D01*
G02X2066358Y1302737I129307J-138918D01*
G02X2189264Y1083550I-2066358J-1302737D01*
G03X2222637Y1062916I33236J16450D01*
G01X2399986Y1062916D01*
G02X2512916Y950000I14J-112916D01*
G01X2512916Y-949986D01*
G02X2400000Y-1062915I-112916J-14D01*
G01X2222701Y-1062916D01*
G01X2221464Y-1062937D01*
G03X2189124Y-1084233I1284J-37153D01*
G02X2067071Y-1301940I-2189127J1084227D01*
G02X1807247Y-1303106I-130532J137596D01*
G03X1309584Y-1800769I-248376J-249287D01*
G02X1357644Y-1962753I-138762J-129292D01*
G01X-1352184Y-1962753D01*
G02X-1303106Y-1807247I187841J26214D01*
G03X-1800769Y-1309584I-249287J248376D01*
G02X-2065338Y-1303755I-129292J138762D01*
G02X-2335276Y-715462I2065336J1303754D01*
G01X-2335276Y716551D01*
G02X-2066550Y1302432I2335275J-716550D01*
G02X-1807246Y1303106I130012J-138088D01*
G03X-1309578Y1800763I248376J249287D01*
G02X-1302736Y2066359I138919J129308D01*
G02X-953947Y2248765I1302735J-2066358D01*
G01X-1918834Y-254000D02*
G03X-1806566Y-254000I56134J0D01*
G03X-1918834Y-254000I-56134J0D01*
G01X-1616013Y812800D02*
G03X-1503745Y812800I56134J0D01*
G03X-1616013Y812800I-56134J0D01*
G01X-1483881Y-604235D02*
G03X-1371613Y-604235I56134J0D01*
G03X-1483881Y-604235I-56134J0D01*
G01X-1331880Y-107798D02*
G03X-1219612Y-107798I56134J0D01*
G03X-1331880Y-107798I-56134J0D01*
G01X-1144593Y750893D02*
G03X-1106625Y655093I39693J-39693D01*
G01X-1056894Y605361D01*
G01X-1056894Y546454D01*
G03X-1016000Y451866I40894J-38454D01*
G03X-975106Y546454I0J56134D01*
G01X-975106Y622300D01*
G03X-987084Y651216I-40894J0D01*
G01X-1048793Y712925D01*
G03X-1144593Y750893I-56107J-1725D01*
G01X-1008634Y-1295400D02*
G03X-896366Y-1295400I56134J0D01*
G03X-1008634Y-1295400I-56134J0D01*
G01X2005476Y-620238D02*
G01X1615049Y-1010666D01*
G01X1333500Y-1010666D01*
G03X1293807Y-1027107I0J-56134D01*
G01X1056249Y-1264666D01*
G01X632851Y-1264666D01*
G01X484193Y-1116007D01*
G03X444500Y-1099566I-39693J-39693D01*
G01X-675249Y-1099566D01*
G01X-845566Y-929249D01*
G01X-845566Y-691563D01*
G01X-705375Y-551372D01*
G03X-684518Y-451129I-22428J56957D01*
G03X-784760Y-471986I-43285J-43285D01*
G01X-941393Y-628619D01*
G03X-957834Y-668312I39693J-39693D01*
G01X-957834Y-952500D01*
G03X-941393Y-992193I56134J0D01*
G01X-738193Y-1195393D01*
G03X-698500Y-1211834I39693J39693D01*
G01X421249Y-1211834D01*
G01X569907Y-1360493D01*
G03X609600Y-1376934I39693J39693D01*
G01X1079500Y-1376934D01*
G03X1119193Y-1360493I0J56134D01*
G01X1356751Y-1122934D01*
G01X1638300Y-1122934D01*
G03X1677993Y-1106493I0J56134D01*
G01X2101303Y-683183D01*
G03X2117744Y-643490I-39693J39693D01*
G01X2117744Y337566D01*
G01X2438400Y337566D01*
G03X2469134Y368300I0J30734D01*
G01X2469134Y593100D01*
G03X2438400Y623834I-30734J0D01*
G01X1932300Y623834D01*
G03X1901566Y593100I0J-30734D01*
G01X1901566Y368300D01*
G03X1932300Y337566I30734J0D01*
G01X2005476Y337566D01*
G01X2005476Y-620238D01*
G01X-851173Y319965D02*
G03X-820460Y223611I38582J-40774D01*
G03X-725949Y187627I55929J4789D01*
G03X-756662Y283980I-38582J40774D01*
G03X-851173Y319965I-55929J-4789D01*
G01X-627634Y685800D02*
G03X-515366Y685800I56134J0D01*
G03X-627634Y685800I-56134J0D01*
G01X-500633Y1647699D02*
G03X-388365Y1647699I56134J0D01*
G03X-500633Y1647699I-56134J0D01*
G01X-348234Y542366D02*
G03X-235966Y542366I56134J0D01*
G03X-348234Y542366I-56134J0D01*
G01X-322834Y1917700D02*
G03X-210566Y1917700I56134J0D01*
G03X-322834Y1917700I-56134J0D01*
G01X-272034Y-177800D02*
G03X-159766Y-177800I56134J0D01*
G03X-272034Y-177800I-56134J0D01*
G01X48006Y604336D02*
G01X48006Y521054D01*
G03X44104Y516428I40894J-38454D01*
G03X-42670Y460672I-31404J-46528D01*
G03X57496Y436072I55370J9228D01*
G03X144952Y479567I31404J46528D01*
G03X197536Y543224I-3033J56052D01*
G03X129794Y590428I-55617J-7604D01*
G01X129794Y622300D01*
G03X117816Y651216I-40894J0D01*
G01X106907Y662125D01*
G03X67928Y713857I-56107J-1725D01*
G03X-16181Y772035I-55228J10043D01*
G03X-4428Y670443I28881J-48135D01*
G03X48006Y604336I55228J-10043D01*
G01X193258Y-144308D02*
G03X96392Y-179037I-40858J-38492D01*
G03X187742Y-226412I56008J-3763D01*
G03X248869Y-240267I40858J38492D01*
G03X284726Y-188860I-20269J52347D01*
G03X349902Y-104132I18989J52825D01*
G03X247589Y-135095I-46187J-31903D01*
G03X193258Y-144308I-18989J-52825D01*
G01X248666Y-1663700D02*
G03X360934Y-1663700I56134J0D01*
G03X248666Y-1663700I-56134J0D01*
G01X248666Y355600D02*
G03X360934Y355600I56134J0D01*
G03X248666Y355600I-56134J0D01*
G01X261402Y480578D02*
G03X352075Y438378I56098J2022D01*
G03X439472Y486997I31300J46597D01*
G03X348800Y529197I-56098J-2022D01*
G03X261402Y480578I-31300J-46597D01*
G01X406061Y70976D02*
G03X385984Y171612I-32366J45864D01*
G03X297895Y224252I-55724J6776D01*
G03X317972Y123616I32366J-45864D01*
G03X406061Y70976I55724J-6776D01*
G01X369592Y-1331395D02*
G03X481860Y-1331395I56134J0D01*
G03X369592Y-1331395I-56134J0D01*
G01X398272Y-127000D02*
G03X510540Y-127000I56134J0D01*
G03X398272Y-127000I-56134J0D01*
G01X439166Y533400D02*
G03X551434Y533400I56134J0D01*
G03X439166Y533400I-56134J0D01*
G01X573474Y220773D02*
G03X617434Y310634I-907J56127D01*
G03X570593Y399027I-45934J32266D01*
G03X526633Y309166I907J-56127D01*
G03X573474Y220773I45934J-32266D01*
G01X553466Y939800D02*
G03X665734Y939800I56134J0D01*
G03X553466Y939800I-56134J0D01*
G01X566166Y-279400D02*
G03X678434Y-279400I56134J0D01*
G03X566166Y-279400I-56134J0D01*
G01X644490Y1224485D02*
G03X607144Y1128707I2346J-56085D01*
G03X702921Y1166054I39693J39693D01*
G01X909088Y959888D01*
G03X939800Y947166I30712J30712D01*
G01X1004240Y947166D01*
G03X1095934Y990600I35560J43434D01*
G03X1004240Y1034034I-56134J0D01*
G01X957791Y1034034D01*
G01X917569Y1074256D01*
G03X954093Y1169993I-3169J56044D01*
G03X858356Y1133469I-39693J-39693D01*
G01X692348Y1299477D01*
G03X646721Y1389625I-44648J34023D01*
G03X604266Y1297940I979J-56125D01*
G01X604266Y1282700D01*
G03X616988Y1251988I43434J0D01*
G01X644490Y1224485D01*
G01X705866Y1859976D02*
G03X818134Y1859976I56134J0D01*
G03X705866Y1859976I-56134J0D01*
G01X705866Y1447800D02*
G03X818134Y1447800I56134J0D01*
G03X705866Y1447800I-56134J0D01*
G01X985520Y1499562D02*
G03X1025205Y1595397I0J56134D01*
G03X1025205Y1674799I-39685J39701D01*
G03X985520Y1770634I-39685J39701D01*
G03X945835Y1674799I0J-56134D01*
G03X945835Y1595397I39685J-39701D01*
G03X985520Y1499562I39685J-39701D01*
G01X1144585Y1595397D02*
G03X1144585Y1674799I-39685J39701D01*
G03X1104900Y1770634I-39685J39701D01*
G03X1065215Y1674799I0J-56134D01*
G03X1065215Y1595397I39685J-39701D01*
G03X1064649Y1516570I39685J-39701D01*
G03X1104900Y1421310I40251J-39126D01*
G03X1145151Y1516570I0J56134D01*
G03X1144585Y1595397I-40251J39126D01*
G01X1277366Y-317500D02*
G03X1389634Y-317500I56134J0D01*
G03X1277366Y-317500I-56134J0D01*
G01X1421237Y-448671D02*
G03X1533505Y-448671I56134J0D01*
G03X1421237Y-448671I-56134J0D01*
G01X2460234Y-873506D02*
G03X2238766Y-873506I-110734J0D01*
G03X2460234Y-873506I110734J0D01*
G04 Copper End*

G04 Pad Start*
G54D11*
G01X-1558869Y1552394D03*
G01X-1552392Y-1558873D03*
G01X1552392Y1558871D03*
G01X1558869Y-1552391D03*
G54D12*
G01X2349500Y-523494D03*
G01X2349500Y-873506D03*
G04 Pad End*

G04 Via Start*
G54D13*
G01X-1766697Y1551703D03*
G01X-1760220Y-1559558D03*
G01X-1706316Y1698860D03*
G01X-1705341Y1404952D03*
G01X-1699834Y-1412401D03*
G01X-1698864Y-1706315D03*
G01X-1559560Y1760222D03*
G01X-1558183Y1344566D03*
G01X-1553083Y-1351045D03*
G01X-1551701Y-1766695D03*
G01X-1412402Y1699836D03*
G01X-1411427Y1405922D03*
G01X-1405925Y-1411426D03*
G01X-1404950Y-1705339D03*
G01X-1351041Y1553085D03*
G01X-1344564Y-1558182D03*
G01X1344564Y1558180D03*
G01X1351041Y-1553081D03*
G01X1404950Y1705337D03*
G01X1405926Y1411429D03*
G01X1411427Y-1405924D03*
G01X1412403Y-1699838D03*
G01X1551701Y1766699D03*
G01X1553083Y1351043D03*
G01X1558178Y-1344563D03*
G01X1559560Y-1760218D03*
G01X1698859Y1706313D03*
G01X1699834Y1412404D03*
G01X1705341Y-1404949D03*
G01X1706316Y-1698862D03*
G01X1760220Y1559562D03*
G01X1766697Y-1551705D03*
G01X762000Y1859976D03*
G01X-1559879Y812800D03*
G01X-1862700Y-254000D03*
G01X-952500Y-1295400D03*
G01X304800Y-1663700D03*
G01X-444499Y1647699D03*
G01X-266700Y1917700D03*
G01X-1427747Y-604235D03*
G01X1104900Y1714500D03*
G01X1104900Y1635098D03*
G01X1104900Y1555696D03*
G01X1104900Y1477444D03*
G01X985520Y1714500D03*
G01X985520Y1635098D03*
G01X-1275746Y-107798D03*
G01X425726Y-1331395D03*
G01X1879600Y914400D03*
G01X1879600Y832005D03*
G01X2467686Y783828D03*
G01X2467686Y858849D03*
G01X2467686Y931002D03*
G01X2389543Y783828D03*
G01X2389543Y858849D03*
G01X2389543Y931002D03*
G01X2311400Y783828D03*
G01X1879600Y749610D03*
G01X1230477Y1311656D03*
G01X1230477Y1227328D03*
G01X1315375Y1227328D03*
G01X1230477Y1143000D03*
G01X1315375Y1143000D03*
G01X1315375Y1058672D03*
G01X1230477Y1058672D03*
G01X-1351235Y714375D03*
G01X-1297260Y660400D03*
G01X-1243285Y606425D03*
G01X-1141685Y504825D03*
G01X-1297947Y549943D03*
G01X985520Y1555696D03*
G01X-1476433Y508001D03*
G01X863600Y1294371D03*
G01X939800Y1294371D03*
G01X1016000Y1294371D03*
G01X1016000Y1384300D03*
G01X939800Y1384300D03*
G01X1088146Y-1147086D03*
G01X1035384Y-1199609D03*
G01X983628Y-1159786D03*
G01X1035384Y-1098945D03*
G01X673100Y-900019D03*
G01X722775Y-945211D03*
G01X1039800Y990600D03*
G01X1714500Y1016000D03*
G01X1714500Y1092200D03*
G01X1714500Y939800D03*
G01X1803400Y863600D03*
G01X1803400Y939800D03*
G01X1803400Y1016000D03*
G01X1803400Y1092200D03*
G01X1803400Y1168400D03*
G01X1714500Y1168400D03*
G01X1803400Y1244600D03*
G01X1892300Y1320800D03*
G01X1892300Y1168400D03*
G01X1892300Y1244600D03*
G01X1981200Y1320800D03*
G01X1981200Y1244600D03*
G01X2451100Y38100D03*
G01X2374900Y38100D03*
G01X2298700Y38100D03*
G01X2451100Y-38100D03*
G01X2374900Y-38100D03*
G01X2298700Y-38100D03*
G01X647700Y1333500D03*
G01X1266582Y-840272D03*
G01X1447800Y-952500D03*
G01X1518873Y-952500D03*
G01X-330200Y183998D03*
G01X1587500Y-952500D03*
G01X2400300Y457200D03*
G01X2315628Y457200D03*
G01X2146282Y457200D03*
G01X2061610Y457200D03*
G01X2230955Y457200D03*
G01X1130300Y-127000D03*
G01X914400Y1130300D03*
G01X-762000Y-1676400D03*
G01X-914400Y-1676400D03*
G01X-838200Y-1676400D03*
G01X-762000Y-1612900D03*
G01X-914400Y-1612900D03*
G01X-838200Y-1612900D03*
G01X-685800Y-1612900D03*
G01X-685800Y-1676400D03*
G01X646836Y1168400D03*
G01X1117600Y-508000D03*
G01X-1242597Y716882D03*
G01X-1296572Y770857D03*
G01X-1188622Y662907D03*
G01X-977900Y-1155700D03*
G01X-1041400Y-1092200D03*
G01X-841162Y-114305D03*
G01X-771618Y-114305D03*
G01X-910705Y-114305D03*
G01X-768649Y-25754D03*
G01X-838192Y-25754D03*
G01X-907736Y-25754D03*
G01X496164Y1181100D03*
G01X889000Y1778000D03*
G01X-1371600Y-952500D03*
G01X-1308100Y-1016000D03*
G01X-1397000Y-762000D03*
G01X-1397000Y-851802D03*
G01X-618678Y1292175D03*
G01X762000Y1447800D03*
G01X141919Y535619D03*
G01X-292100Y542366D03*
G01X-482765Y-137200D03*
G01X-482600Y-215900D03*
G01X-812591Y279191D03*
G01X-764531Y228400D03*
G01X622300Y-279400D03*
G01X303715Y-136035D03*
G01X495300Y533400D03*
G01X572567Y276900D03*
G01X454406Y-127000D03*
G01X373695Y116840D03*
G01X698500Y0D03*
G01X330261Y178388D03*
G54D14*
G01X101600Y-342900D03*
G01X279400Y-342900D03*
G54D13*
G01X152400Y-182800D03*
G01X228600Y-187920D03*
G01X-215900Y-177800D03*
G01X304800Y355600D03*
G01X571500Y342900D03*
G01X-806450Y1352550D03*
G01X-1115289Y1115289D03*
G01X-203200Y1016000D03*
G01X-205419Y935081D03*
G01X12700Y469900D03*
G01X-1016000Y508000D03*
G01X-1104900Y711200D03*
G01X50800Y660400D03*
G01X88900Y482600D03*
G01X317500Y482600D03*
G01X383375Y484975D03*
G01X12700Y723900D03*
G01X-50800Y838200D03*
G01X1333500Y-317500D03*
G01X1477371Y-448671D03*
G54D14*
G01X-727803Y-494414D03*
G54D13*
G01X977900Y617240D03*
G01X1041400Y617240D03*
G01X1104445Y617240D03*
G01X1032871Y537571D03*
G01X1104900Y537571D03*
G54D14*
G01X347129Y1181100D03*
G01X-419377Y716438D03*
G01X-453440Y-410241D03*
G01X-165100Y-355600D03*
G54D13*
G01X736600Y2209800D03*
G01X1282321Y1899067D03*
G01X-635000Y355600D03*
G01X-571500Y685800D03*
G01X-1028700Y876300D03*
G54D14*
G01X711200Y-711200D03*
G54D13*
G01X736600Y-533400D03*
G01X192126Y1282700D03*
G01X177800Y1079500D03*
G01X-348414Y809464D03*
G01X-25400Y660400D03*
G01X-596900Y266700D03*
G01X-784397Y556946D03*
G01X609600Y-1028700D03*
G01X1625600Y-878733D03*
G01X1739900Y-266700D03*
G01X1320800Y88900D03*
G01X1092200Y-50800D03*
G01X972223Y292486D03*
G01X177800Y139700D03*
G01X152400Y203200D03*
G01X-40645Y-419100D03*
G01X-114300Y-660400D03*
G01X419100Y-444500D03*
G01X-101600Y-457200D03*
G01X-546100Y-711200D03*
G01X-330200Y-120802D03*
G01X-2005870Y614642D03*
G01X-76200Y-863600D03*
G01X-280844Y14144D03*
G01X419100Y558800D03*
G01X621296Y839204D03*
G01X609600Y939800D03*
G01X558800Y1066400D03*
G01X793189Y720941D03*
G01X1174386Y698500D03*
G01X1130300Y749300D03*
G01X889000Y1968500D03*
G01X939800Y1917700D03*
G01X1003300Y1866900D03*
G01X1244600Y1993900D03*
G01X1181100Y2044700D03*
G01X1130300Y2095500D03*
G01X1066800Y2133600D03*
G01X939800Y1854200D03*
G01X876300Y1905000D03*
G01X-774700Y-977900D03*
G01X-825500Y-927100D03*
G01X-774700Y-876300D03*
G01X-723900Y-927100D03*
G01X-673100Y-876300D03*
G01X-723900Y-825500D03*
G01X-673100Y-774700D03*
G01X-622300Y-825500D03*
G01X1333500Y279400D03*
G01X-118600Y2220001D03*
G01X-33093Y2220001D03*
G01X-118600Y2146300D03*
G01X-33093Y2146300D03*
G01X-118600Y2066300D03*
G01X-33093Y2066300D03*
G01X-1952623Y669715D03*
G01X-1899801Y724524D03*
G01X-1841579Y671646D03*
G01X-1902986Y614771D03*
G01X-1968500Y558800D03*
G04 Via End*

G04 Track Start*
G54D10*
G01X-1016000Y508000D02*
G01X-1016000Y622300D01*
G01X-1104900Y711200D01*
G01X88900Y482600D02*
G01X88900Y622300D01*
G01X50800Y660400D01*
G54D13*
G01X2061610Y457200D02*
G01X2061610Y-643490D01*
G01X1638300Y-1066800D01*
G01X1333500Y-1066800D01*
G01X1079500Y-1320800D01*
G01X609600Y-1320800D01*
G01X444500Y-1155700D01*
G01X-698500Y-1155700D01*
G54D15*
G01X1032871Y537571D02*
G01X800100Y304800D01*
G01X148363Y1181100D02*
G01X347129Y1181100D01*
G54D17*
G01X-419377Y716438D02*
G01X-316299Y716438D01*
G54D15*
G01X-495300Y537437D02*
G01X-316299Y716438D01*
G54D17*
G01X-330200Y183998D02*
G01X-491672Y183998D01*
G01X-495300Y180370D01*
G01X-453440Y-410241D02*
G01X-529559Y-410241D01*
G54D15*
G01X-529559Y-410241D02*
G01X-558965Y-380835D01*
G54D17*
G01X-165100Y-355600D02*
G01X-538168Y-355600D01*
G01X-558965Y-334803D01*
G54D15*
G01X-558965Y-380835D02*
G01X-558965Y-334803D01*
G01X-558965Y-105637D02*
G01X-558965Y-334803D01*
G01X-495300Y-41972D02*
G01X-558965Y-105637D01*
G01X800100Y304800D02*
G01X800100Y-492218D01*
G01X746218Y-546100D01*
G01X-453359Y-546100D02*
G01X-529559Y-469900D01*
G01X-529559Y-410241D01*
G54D17*
G01X101600Y-342900D02*
G01X101600Y-541261D01*
G01X96761Y-546100D01*
G54D15*
G01X96761Y-546100D02*
G01X-453359Y-546100D01*
G54D17*
G01X279400Y-342900D02*
G01X279400Y-545444D01*
G01X280056Y-546100D01*
G54D15*
G01X280056Y-546100D02*
G01X96761Y-546100D01*
G54D17*
G01X347129Y1181100D02*
G01X347129Y1896529D01*
G01X660400Y2209800D02*
G01X736600Y2209800D01*
G01X347129Y1896529D02*
G01X660400Y2209800D01*
G01X647700Y1282700D02*
G01X647700Y1333500D01*
G01X1039800Y990600D02*
G01X939800Y990600D01*
G01X647700Y1282700D01*
G01X-635000Y355600D02*
G01X-503386Y355600D01*
G01X-495300Y347514D01*
G54D15*
G01X-495300Y180370D02*
G01X-495300Y347514D01*
G01X-495300Y537437D01*
G54D13*
G01X-1028700Y876300D02*
G01X-300425Y876300D01*
G01X-228431Y804306D01*
G54D15*
G01X-316299Y716438D02*
G01X-228431Y804306D01*
G01X148363Y1181100D01*
G54D10*
G01X-1115289Y1115289D02*
G01X-385627Y1115289D01*
G01X-205419Y935081D01*
G54D13*
G01X711200Y-711200D02*
G01X711200Y-559292D01*
G54D15*
G01X724392Y-546100D02*
G01X280056Y-546100D01*
G54D10*
G01X-203200Y1016000D02*
G01X-539750Y1352550D01*
G01X-806450Y1352550D01*
G54D15*
G01X-495300Y180370D02*
G01X-495300Y-41972D01*
G54D17*
G01X-280844Y14144D02*
G01X-469940Y14144D01*
G01X-493896Y-9812D01*
G01X347129Y1113371D02*
G01X347129Y1181100D01*
G01X558800Y1066400D02*
G01X394100Y1066400D01*
G01X347129Y1113371D01*
G01X793189Y720941D02*
G01X896891Y617240D01*
G01X977900Y617240D01*
G54D13*
G01X-698500Y-1155700D02*
G01X-901700Y-952500D01*
G01X-901700Y-668312D01*
G01X-727803Y-494414D01*
G04 Track End*

M02*

