G04 Layer: TopSolderMaskLayer*
G04 EasyEDA Pro v3.2.69, 2026-03-27 19:08:31*
G04 Gerber Generator version 0.3*
G04 Scale: 100 percent, Rotated: No, Reflected: No*
G04 Dimensions in millimeters*
G04 Leading zeros omitted, absolute positions, 4 integers and 5 decimals*
G04 Generated by one-click*
%FSLAX45Y45*%
%MOMM*%
%AMRoundRect*1,1,$1,$2,$3*1,1,$1,$4,$5*1,1,$1,0-$2,0-$3*1,1,$1,0-$4,0-$5*20,1,$1,$2,$3,$4,$5,0*20,1,$1,$4,$5,0-$2,0-$3,0*20,1,$1,0-$2,0-$3,0-$4,0-$5,0*20,1,$1,0-$4,0-$5,$2,$3,0*4,1,4,$2,$3,$4,$5,0-$2,0-$3,0-$4,0-$5,$2,$3,0*%
%AMOval*1,1,$1,$2,$3*1,1,$1,$4,$5*20,1,$1,$2,$3,$4,$5,0*%
%ADD10C,1.524*%
%ADD11RoundRect,0.1016X-0.97581X-0.02121X0.02121X0.97581*%
%ADD12RoundRect,0.1016X-0.60104X0.03536X-0.03536X0.60104*%
%ADD13RoundRect,0.1016X-0.03536X-0.60104X-0.60104X-0.03536*%
%ADD14RoundRect,0.1016X-0.86399X-0.74251X-0.86399X0.74251*%
%ADD15RoundRect,0.1016X-0.45X-0.4X-0.45X0.4*%
%ADD16RoundRect,0.1016X-1.13597X0.08591X-0.08591X1.13597*%
%ADD17Oval,2.4049X-0.70711X-0.70711X0.70711X0.70711*%
%ADD18Oval,2.4016X-0.70711X-0.70711X0.70711X0.70711*%
%ADD19RoundRect,0.1016X-0.91924X-0.07071X0.07071X0.91924*%
%ADD20RoundRect,0.1016X-0.61872X0.08838X-0.08838X0.61872*%
%ADD21RoundRect,0.1016X-0.08838X-0.61872X-0.61872X-0.08838*%
%ADD22RoundRect,0.1016X-0.02034X-0.5906X-0.5906X-0.02034*%
%ADD23RoundRect,0.1016X-0.5906X0.02034X-0.02034X0.5906*%
%ADD24RoundRect,0.1016X-0.40659X-0.2298X0.2298X0.40659*%
%ADD25RoundRect,0.1016X-0.67176X-0.49497X0.49497X0.67176*%
%ADD26RoundRect,0.1016X-0.39951X-0.23688X0.23688X0.39951*%
%ADD27RoundRect,0.1016X0.2298X-0.40659X-0.40659X0.2298*%
%ADD28RoundRect,0.1016X0.12375X-0.33588X-0.33588X0.12375*%
%ADD29RoundRect,0.1X-0.14X0.4X0.14X0.4*%
%ADD30RoundRect,0.1X-0.4X0.14X0.4X0.14*%
%ADD31RoundRect,0.1X-0.825X0.825X0.825X0.825*%
%ADD32RoundRect,0.1016X-0.37123X-0.12374X0.12374X0.37123*%
%ADD33RoundRect,0.1016X-0.37123X0.12374X-0.12374X0.37123*%
%ADD34O,4.4016X2.4016*%
%ADD35Oval,0.45461X-0.38926X0.38926X0.38926X-0.38926*%
%ADD36Oval,0.45461X-0.38926X-0.38926X0.38926X0.38926*%
%ADD37C,1.7016*%
%ADD38RoundRect,0.1016X-0.67172X-0.03538X0.03538X0.67172*%
%ADD39RoundRect,0.1016X-2.84999X-1.25X-2.84999X1.25*%
%ADD40RoundRect,0.1016X-0.08591X-1.13597X-1.13597X-0.08591*%
%ADD41RoundRect,0.1016X-0.74251X0.86399X0.74251X0.86399*%
%ADD42RoundRect,0.1016X-1.02832X0.17448X-0.17448X1.02832*%
%ADD43RoundRect,0.1016X-0.17448X-1.02832X-1.02832X-0.17448*%
G75*


G04 PolygonModel Start*
G54D10*
G01X1841500Y-1206500D02*
G03X1128301Y-1671265I-282631J-345891D01*
G01X-1114974Y-1649351D02*
G03X-1779679Y-1174346I-437417J90478D01*
G01X-1765063Y1156156D02*
G03X-1201251Y1820031I206194J396238D01*
G01X-2222500Y711200D02*
G01X-2222500Y-736600D01*
G01X-939800Y-1866900D02*
G01X939800Y-1866900D01*
G01X-1201251Y1820031D02*
G02X-698500Y1905000I256500J12163D01*
G01X-2222500Y711200D02*
G02X-1765300Y1155700I650291J-211489D01*
G01X-2222500Y-736600D02*
G03X-1778000Y-1168400I563954J135854D01*
G01X-1114974Y-1649351D02*
G03X-939800Y-1866900I124124J-79355D01*
G01X1128301Y-1671265D02*
G02X939800Y-1866900I-146960J-47030D01*
G36*
G01X1821550Y-1281478D02*
G01X1821550Y-1250050D01*
G01X1765300Y-1193800D01*
G01X1765300Y-1130300D01*
G01X1689100Y-1054100D01*
G01X1752600Y-1054100D01*
G01X1968500Y-838200D01*
G01X2133600Y-1003300D01*
G01X2298700Y-1003300D01*
G01X2260600Y-1041400D01*
G01X2146300Y-1041400D01*
G01X2146300Y-1168400D01*
G01X2033222Y-1281478D01*
G01X1821550Y-1281478D01*
G37*
G36*
G01X-2279650Y-793750D02*
G01X-1895721Y-409821D01*
G01X-1496075Y-809467D01*
G01X-1880004Y-1193396D01*
G01X-2279650Y-793750D01*
G37*
G36*
G01X-700386Y2230333D02*
G01X-373607Y1903555D01*
G01X-773253Y1503909D01*
G01X-1100032Y1830688D01*
G01X-700386Y2230333D01*
G37*
G36*
G01X-972409Y1670050D02*
G01X-1090065Y1552394D01*
G01X-1185495Y1647823D01*
G01X-1185495Y1921539D01*
G01X-1024234Y2082800D01*
G01X-800100Y2082800D01*
G01X-657559Y1940259D01*
G01X-657559Y1867121D01*
G01X-854630Y1670050D01*
G01X-972409Y1670050D01*
G37*
G36*
G01X728741Y-1928487D02*
G01X395613Y-1595359D01*
G01X795259Y-1195713D01*
G01X1128387Y-1528841D01*
G01X728741Y-1928487D01*
G37*
G36*
G01X787400Y-1828800D02*
G01X762000Y-1803400D01*
G01X762000Y-1562100D01*
G01X800100Y-1524000D01*
G01X1104900Y-1524000D01*
G01X1117600Y-1536700D01*
G01X1117600Y-1816100D01*
G01X1104900Y-1828800D01*
G01X787400Y-1828800D01*
G37*

G04 Pad Start*
G54D11*
G01X1017038Y-840243D03*
G01X875617Y-981664D03*
G54D12*
G01X859982Y-736057D03*
G01X760983Y-835055D03*
G54D13*
G01X1484599Y-328899D03*
G01X1385601Y-229901D03*
G54D14*
G01X2358425Y828363D03*
G01X2358425Y509847D03*
G01X2111975Y828363D03*
G01X2111975Y509847D03*
G54D12*
G01X1179799Y-179101D03*
G01X1080801Y-278099D03*
G54D13*
G01X1713199Y-557499D03*
G01X1614201Y-458501D03*
G54D15*
G01X-330200Y196698D03*
G01X-330200Y336702D03*
G01X-330200Y19202D03*
G01X-330200Y-120802D03*
G01X1892300Y743102D03*
G01X1892300Y603098D03*
G54D12*
G01X765786Y414551D03*
G01X864785Y513550D03*
G01X1144301Y737901D03*
G01X1243299Y836899D03*
G54D16*
G01X750988Y1017688D03*
G01X976212Y1242912D03*
G01X928788Y839888D03*
G01X1154012Y1065112D03*
G54D12*
G01X1471899Y100299D03*
G01X1372901Y1301D03*
G54D11*
G01X1164105Y-987310D03*
G01X1022684Y-1128732D03*
G54D18*
G01X453854Y-754045D03*
G54D19*
G01X1189488Y109988D03*
G01X944112Y-135388D03*
G54D20*
G01X-336947Y1736656D03*
G01X-426749Y1646853D03*
G01X-516552Y1557051D03*
G01X-606354Y1467248D03*
G36*
G01X-411844Y1864587D02*
G01X-734285Y1542145D01*
G02X-741469Y1542145I-3592J3592D01*
G01X-767929Y1568605D01*
G01X-799338Y1537196D01*
G02X-806522Y1537196I-3592J3592D01*
G01X-870516Y1601189D01*
G02X-870516Y1608373I3592J3592D01*
G01X-839106Y1639782D01*
G01X-1061788Y1862464D01*
G02X-1061788Y1869648I3592J3592D01*
G01X-1008754Y1922682D01*
G02X-1001570Y1922682I3592J-3592D01*
G01X-969807Y1890919D01*
G01X-760617Y2100109D01*
G01X-792380Y2131872D01*
G02X-792380Y2139056I3592J3592D01*
G01X-739346Y2192090D01*
G02X-732162Y2192090I3592J-3592D01*
G01X-509481Y1969408D01*
G01X-478071Y2000817D01*
G02X-470887Y2000817I3592J-3592D01*
G01X-406894Y1936824D01*
G02X-406894Y1929640I-3592J-3592D01*
G01X-438303Y1898231D01*
G01X-411844Y1871771D01*
G02X-411844Y1864587I-3592J-3592D01*
G37*
G01X638912Y1674179D03*
G01X549109Y1584377D03*
G01X459307Y1494574D03*
G01X369504Y1404772D03*
G36*
G01X564015Y1802110D02*
G01X241573Y1479669D01*
G02X234389Y1479669I-3592J3592D01*
G01X207930Y1506128D01*
G01X176520Y1474719D01*
G02X169336Y1474719I-3592J3592D01*
G01X105343Y1538712D01*
G02X105343Y1545896I3592J3592D01*
G01X136752Y1577306D01*
G01X-85930Y1799987D01*
G02X-85930Y1807172I3592J3592D01*
G01X-32896Y1860205D01*
G02X-25712Y1860205I3592J-3592D01*
G01X6052Y1828442D01*
G01X215241Y2037632D01*
G01X183478Y2069395D01*
G02X183478Y2076579I3592J3592D01*
G01X236512Y2129613D01*
G02X243696Y2129613I3592J-3592D01*
G01X466378Y1906931D01*
G01X497787Y1938341D01*
G02X504971Y1938341I3592J-3592D01*
G01X568965Y1874347D01*
G02X568965Y1867163I-3592J-3592D01*
G01X537555Y1835754D01*
G01X564015Y1809294D01*
G02X564015Y1802110I-3592J-3592D01*
G37*
G54D21*
G01X-1698556Y-336947D03*
G01X-1608753Y-426749D03*
G01X-1518951Y-516552D03*
G01X-1429148Y-606354D03*
G36*
G01X-1826487Y-411844D02*
G01X-1504045Y-734285D01*
G02X-1504045Y-741469I-3592J-3592D01*
G01X-1530505Y-767929D01*
G01X-1499096Y-799338D01*
G02X-1499096Y-806522I-3592J-3592D01*
G01X-1563089Y-870516D01*
G02X-1570273Y-870516I-3592J3592D01*
G01X-1601682Y-839106D01*
G01X-1824364Y-1061788D01*
G02X-1831548Y-1061788I-3592J3592D01*
G01X-1884582Y-1008754D01*
G02X-1884582Y-1001570I3592J3592D01*
G01X-1852819Y-969807D01*
G01X-2062009Y-760617D01*
G01X-2093772Y-792380D01*
G02X-2100956Y-792380I-3592J3592D01*
G01X-2153990Y-739346D01*
G02X-2153990Y-732162I3592J3592D01*
G01X-1931308Y-509481D01*
G01X-1962717Y-478071D01*
G02X-1962717Y-470887I3592J3592D01*
G01X-1898724Y-406894D01*
G02X-1891540Y-406894I3592J-3592D01*
G01X-1860131Y-438303D01*
G01X-1833671Y-411844D01*
G02X-1826487Y-411844I3592J-3592D01*
G37*
G01X-1559879Y651612D03*
G01X-1470077Y561809D03*
G01X-1380274Y472007D03*
G01X-1290472Y382204D03*
G36*
G01X-1687810Y576715D02*
G01X-1365369Y254273D01*
G02X-1365369Y247089I-3592J-3592D01*
G01X-1391828Y220630D01*
G01X-1360419Y189220D01*
G02X-1360419Y182036I-3592J-3592D01*
G01X-1424412Y118043D01*
G02X-1431596Y118043I-3592J3592D01*
G01X-1463006Y149452D01*
G01X-1685687Y-73230D01*
G02X-1692872Y-73230I-3592J3592D01*
G01X-1745905Y-20196D01*
G02X-1745905Y-13012I3592J3592D01*
G01X-1714142Y18752D01*
G01X-1923332Y227941D01*
G01X-1955095Y196178D01*
G02X-1962279Y196178I-3592J3592D01*
G01X-2015313Y249212D01*
G02X-2015313Y256396I3592J3592D01*
G01X-1792631Y479078D01*
G01X-1824041Y510487D01*
G02X-1824041Y517671I3592J3592D01*
G01X-1760047Y581665D01*
G02X-1752863Y581665I3592J-3592D01*
G01X-1721454Y550255D01*
G01X-1694994Y576715D01*
G02X-1687810Y576715I3592J-3592D01*
G37*
G54D20*
G01X335923Y-1421198D03*
G01X425726Y-1331395D03*
G01X515528Y-1241593D03*
G01X605331Y-1151790D03*
G36*
G01X410820Y-1549129D02*
G01X733262Y-1226687D01*
G02X740446Y-1226687I3592J-3592D01*
G01X766905Y-1253147D01*
G01X798315Y-1221737D01*
G02X805499Y-1221737I3592J-3592D01*
G01X869492Y-1285730D01*
G02X869492Y-1292915I-3592J-3592D01*
G01X838083Y-1324324D01*
G01X1060765Y-1547006D01*
G02X1060765Y-1554190I-3592J-3592D01*
G01X1007731Y-1607224D01*
G02X1000547Y-1607224I-3592J3592D01*
G01X968783Y-1575460D01*
G01X759594Y-1784650D01*
G01X791357Y-1816413D01*
G02X791357Y-1823598I-3592J-3592D01*
G01X738323Y-1876631D01*
G02X731139Y-1876631I-3592J3592D01*
G01X508457Y-1653950D01*
G01X477048Y-1685359D01*
G02X469864Y-1685359I-3592J3592D01*
G01X405870Y-1621366D01*
G02X405870Y-1614182I3592J3592D01*
G01X437280Y-1582772D01*
G01X410820Y-1556313D01*
G02X410820Y-1549129I3592J3592D01*
G37*
G01X-867033Y-1230698D03*
G01X-777230Y-1140895D03*
G01X-687427Y-1051093D03*
G01X-597625Y-961290D03*
G36*
G01X-792135Y-1358629D02*
G01X-469694Y-1036187D01*
G02X-462510Y-1036187I3592J-3592D01*
G01X-436050Y-1062647D01*
G01X-404641Y-1031237D01*
G02X-397457Y-1031237I3592J-3592D01*
G01X-333463Y-1095230D01*
G02X-333463Y-1102415I-3592J-3592D01*
G01X-364873Y-1133824D01*
G01X-142191Y-1356506D01*
G02X-142191Y-1363690I-3592J-3592D01*
G01X-195225Y-1416724D01*
G02X-202409Y-1416724I-3592J3592D01*
G01X-234172Y-1384960D01*
G01X-443362Y-1594150D01*
G01X-411599Y-1625913D01*
G02X-411599Y-1633098I-3592J-3592D01*
G01X-464633Y-1686131D01*
G02X-471817Y-1686131I-3592J3592D01*
G01X-694498Y-1463450D01*
G01X-725908Y-1494859D01*
G02X-733092Y-1494859I-3592J3592D01*
G01X-797085Y-1430866D01*
G02X-797085Y-1423682I3592J3592D01*
G01X-765676Y-1392272D01*
G01X-792135Y-1365813D01*
G02X-792135Y-1358629I3592J3592D01*
G37*
G54D22*
G01X830602Y-510471D03*
G01X724060Y-403929D03*
G01X843302Y-284687D03*
G01X949843Y-391229D03*
G01X1706709Y-114325D03*
G01X1600167Y-7784D03*
G01X1602671Y-218371D03*
G01X1496129Y-111829D03*
G54D23*
G01X979165Y398832D03*
G01X872623Y292290D03*
G01X980080Y184833D03*
G01X1086622Y291375D03*
G01X750072Y627925D03*
G01X643530Y521383D03*
G54D22*
G01X1764297Y325594D03*
G01X1657755Y432136D03*
G01X1648529Y210613D03*
G01X1541987Y317154D03*
G54D24*
G01X1182115Y-674535D03*
G54D25*
G01X1243989Y-683389D03*
G54D24*
G01X1309401Y-801821D03*
G01X1344765Y-837185D03*
G54D26*
G01X1560435Y-671015D03*
G54D24*
G01X1525071Y-635650D03*
G01X1489724Y-600304D03*
G01X1408399Y-518979D03*
G01X1373035Y-483615D03*
G54D27*
G01X1228076Y-458883D03*
G01X1192729Y-494229D03*
G01X1157365Y-529594D03*
G54D28*
G01X1408399Y-709899D03*
G36*
G01X1072519Y-543728D02*
G01X1093732Y-522514D01*
G02X1100803Y-522514I3536J-3536D01*
G01X1171515Y-593227D01*
G02X1171515Y-600298I-3536J-3536D01*
G01X1107876Y-663937D01*
G02X1100805Y-663937I-3536J3536D01*
G01X1072521Y-635653D01*
G02X1072521Y-628582I3536J3536D01*
G01X1111411Y-589691D01*
G01X1072519Y-550799D01*
G02X1072519Y-543728I3536J3536D01*
G37*
G36*
G01X1291725Y-473017D02*
G01X1221014Y-402307D01*
G02X1221014Y-395235I3536J3536D01*
G01X1242228Y-374022D01*
G02X1249299Y-374022I3536J-3536D01*
G01X1288189Y-412913D01*
G01X1327080Y-374022D01*
G02X1334151Y-374022I3536J-3536D01*
G01X1362436Y-402307D01*
G02X1362436Y-409378I-3536J-3536D01*
G01X1298796Y-473017D01*
G02X1291725Y-473017I-3536J3536D01*
G37*
G36*
G01X1571033Y-851318D02*
G01X1549819Y-872531D01*
G02X1542748Y-872531I-3536J3536D01*
G01X1503856Y-833638D01*
G01X1496785Y-840709D01*
G01X1535677Y-879602D01*
G02X1535677Y-886673I-3536J-3536D01*
G01X1514464Y-907886D01*
G02X1507393Y-907886I-3536J3536D01*
G01X1443754Y-844246D01*
G02X1443754Y-837175I3536J3536D01*
G01X1448773Y-832156D01*
G01X1494733Y-786193D01*
G01X1494734Y-786192D01*
G01X1500323Y-780606D01*
G02X1507393Y-780607I3534J-3537D01*
G01X1571033Y-844246D01*
G02X1571033Y-851318I-3536J-3536D01*
G37*
G36*
G01X1645278Y-777072D02*
G01X1624065Y-798286D01*
G02X1616993Y-798286I-3536J3536D01*
G01X1546283Y-727575D01*
G02X1546283Y-720504I3536J3536D01*
G01X1609922Y-656864D01*
G02X1616993Y-656864I3536J-3536D01*
G01X1645278Y-685149D01*
G02X1645278Y-692220I-3536J-3536D01*
G01X1606387Y-731111D01*
G01X1645278Y-770001D01*
G02X1645278Y-777072I-3536J-3536D01*
G37*
G36*
G01X1426068Y-847790D02*
G01X1496778Y-918501D01*
G02X1496778Y-925572I-3536J-3536D01*
G01X1475565Y-946785D01*
G02X1468494Y-946785I-3536J3536D01*
G01X1429603Y-907894D01*
G01X1390713Y-946785D01*
G02X1383642Y-946785I-3536J3536D01*
G01X1355357Y-918501D01*
G02X1355357Y-911430I3536J3536D01*
G01X1418997Y-847790D01*
G02X1426068Y-847790I3536J-3536D01*
G37*
G54D29*
G01X-75019Y-150000D03*
G01X-25006Y-150000D03*
G01X24981Y-150000D03*
G01X74994Y-150000D03*
G54D30*
G01X150000Y-74993D03*
G01X150000Y-24981D03*
G01X150000Y25006D03*
G01X150000Y75019D03*
G54D29*
G01X74994Y150000D03*
G01X24981Y150000D03*
G01X-25006Y150000D03*
G01X-75019Y150000D03*
G54D30*
G01X-150000Y75019D03*
G01X-150000Y25006D03*
G01X-150000Y-24981D03*
G01X-150000Y-74993D03*
G54D31*
G01X-13Y13D03*
G54D32*
G01X1482973Y636894D03*
G01X1436994Y682873D03*
G54D33*
G01X1329177Y705845D03*
G01X1283216Y659884D03*
G01X1237255Y613923D03*
G54D32*
G01X1260227Y506106D03*
G01X1306206Y460127D03*
G54D33*
G01X1414023Y437155D03*
G01X1459984Y483116D03*
G01X1505945Y529077D03*
G54D18*
G01X-1127177Y-779946D03*
G01X-497210Y985797D03*
G54D34*
G01X2184400Y-546100D03*
G01X2184400Y-889000D03*
G54D35*
G01X-268373Y-1037927D03*
G01X-222395Y-991948D03*
G01X-176434Y-945987D03*
G01X-130473Y-900027D03*
G01X-682327Y-623973D03*
G01X-636348Y-577995D03*
G01X-590387Y-532034D03*
G01X-544427Y-486073D03*
G54D36*
G01X-1164927Y268373D03*
G01X-1118948Y222395D03*
G01X-1072987Y176434D03*
G01X-1027027Y130473D03*
G01X-750973Y682327D03*
G01X-704995Y636348D03*
G01X-659034Y590387D03*
G01X-613073Y544427D03*
G54D35*
G01X39773Y1177627D03*
G01X-6205Y1131648D03*
G01X-52166Y1085687D03*
G01X-98127Y1039727D03*
G01X453727Y763673D03*
G01X407748Y717695D03*
G01X361787Y671734D03*
G01X315827Y625773D03*
G54D15*
G01X-508000Y336702D03*
G01X-508000Y196698D03*
G54D13*
G01X560101Y900399D03*
G01X659099Y801401D03*
G01X-341599Y-407701D03*
G01X-242601Y-506699D03*
G54D37*
G01X2349500Y-523494D03*
G01X2349500Y-873506D03*
G54D16*
G01X1827112Y1014312D03*
G01X1601888Y789088D03*
G54D38*
G01X1089031Y1946196D03*
G01X1209240Y1825987D03*
G54D22*
G01X971744Y2055734D03*
G01X865202Y2162276D03*
G54D39*
G01X2175459Y240132D03*
G01X2177999Y-229870D03*
G54D40*
G01X-1939216Y614765D03*
G01X-2164441Y839990D03*
G54D41*
G01X-69342Y2146300D03*
G01X-387858Y2146300D03*
G54D16*
G01X-846798Y-1582335D03*
G01X-1072023Y-1807559D03*
G54D42*
G01X-22434Y1438066D03*
G01X-231566Y1228934D03*
G54D43*
G01X-1399280Y-76451D03*
G01X-1190148Y-285583D03*
G54D42*
G01X-53766Y-1171366D03*
G01X155366Y-962234D03*
G04 Pad End*

M02*

