G04 Layer: BottomSolderMaskLayer*
G04 EasyEDA Pro v3.2.69, 2026-03-27 19:08:31*
G04 Gerber Generator version 0.3*
G04 Scale: 100 percent, Rotated: No, Reflected: No*
G04 Dimensions in millimeters*
G04 Leading zeros omitted, absolute positions, 4 integers and 5 decimals*
G04 Generated by one-click*
%FSLAX45Y45*%
%MOMM*%
%AMRoundRect*1,1,$1,$2,$3*1,1,$1,$4,$5*1,1,$1,0-$2,0-$3*1,1,$1,0-$4,0-$5*20,1,$1,$2,$3,$4,$5,0*20,1,$1,$4,$5,0-$2,0-$3,0*20,1,$1,0-$2,0-$3,0-$4,0-$5,0*20,1,$1,0-$4,0-$5,$2,$3,0*4,1,4,$2,$3,$4,$5,0-$2,0-$3,0-$4,0-$5,$2,$3,0*%
%ADD10C,5.7032*%
%ADD11RoundRect,0.1016X-0.45X-0.4X-0.45X0.4*%
%ADD12RoundRect,0.1016X-0.4X0.45X0.4X0.45*%
%ADD13RoundRect,0.1016X-0.705X0.67501X0.705X0.67501*%
%ADD14RoundRect,0.1016X-0.5X-0.55X-0.5X0.55*%
%ADD15RoundRect,0.1016X-0.55X0.5X0.55X0.5*%
%ADD16RoundRect,0.1018X-0.432X-0.4X-0.432X0.4*%
%ADD17RoundRect,0.1016X-0.432X-0.4X-0.432X0.4*%
%ADD18RoundRect,0.1016X-0.40324X0.432X0.40324X0.432*%
%ADD19RoundRect,0.1016X-0.432X-0.40324X-0.432X0.40324*%
%ADD20RoundRect,0.1016X-1.825X-1.325X-1.825X1.325*%
%ADD21RoundRect,0.1016X-0.3325X-0.14X-0.3325X0.14*%
%ADD22RoundRect,0.1016X-0.14X-0.3325X-0.14X0.3325*%
%ADD23RoundRect,0.1X-1.25X-0.85X-1.25X0.85*%
%ADD24RoundRect,0.1X-0.17501X0.3125X0.17501X0.3125*%
%ADD25RoundRect,0.1016X-0.57501X-0.7X-0.57501X0.7*%
%ADD26RoundRect,0.10003X-0.85X-0.3X-0.85X0.3*%
%ADD27RoundRect,0.10003X-1.4X-0.5X-1.4X0.5*%
%ADD28C,1.7016*%
%ADD29RoundRect,0.1016X-0.60104X0.03536X-0.03536X0.60104*%
%ADD30RoundRect,0.1016X-0.88726X0.08643X-0.08643X0.88726*%
%ADD31RoundRect,0.1016X-0.5906X0.02034X-0.02034X0.5906*%
%ADD32O,1.60002X0.37003*%
%ADD33O,0.37003X1.60002*%
%ADD34O,2.1466X0.68961*%
%ADD35RoundRect,0.1016X-0.81317X0.38891X-0.38891X0.81317*%
%ADD36RoundRect,0.1016X-1.3435X0.63639X-0.63639X1.3435*%
G75*


G04 Pad Start*
G54D10*
G01X-1558869Y1552394D03*
G01X-1552392Y-1558873D03*
G01X1552392Y1558871D03*
G01X1558869Y-1552391D03*
G54D11*
G01X-723900Y-514198D03*
G01X-723900Y-654202D03*
G01X-914400Y-514198D03*
G01X-914400Y-654202D03*
G01X-1270000Y-247802D03*
G01X-1270000Y-107798D03*
G01X-1263802Y241300D03*
G01X-1263802Y381305D03*
G54D12*
G01X869798Y-203200D03*
G01X1009802Y-203200D03*
G54D11*
G01X1282700Y-6198D03*
G01X1282700Y-146202D03*
G54D13*
G01X1039800Y990600D03*
G01X839800Y990600D03*
G54D12*
G01X882508Y1638292D03*
G01X1022513Y1638292D03*
G54D14*
G01X120379Y-1600985D03*
G01X120379Y-1253995D03*
G01X-502362Y-1614232D03*
G01X-502362Y-1267243D03*
G54D15*
G01X-1862700Y-329085D03*
G01X-1515711Y-329085D03*
G01X-1735595Y850900D03*
G01X-1388605Y850900D03*
G54D14*
G01X-266700Y1913395D03*
G01X-266700Y1566405D03*
G01X303705Y1964300D03*
G01X303705Y1617311D03*
G54D17*
G01X1045842Y649051D03*
G01X1045842Y789030D03*
G54D18*
G01X-216764Y-660400D03*
G01X-367436Y-660400D03*
G54D19*
G01X-65020Y-1496292D03*
G01X-65020Y-1345620D03*
G01X-686667Y-1509434D03*
G01X-686667Y-1358762D03*
G54D18*
G01X-1771076Y-514505D03*
G01X-1620403Y-514505D03*
G01X-1631271Y666038D03*
G01X-1480598Y666038D03*
G54D19*
G01X-84907Y1806117D03*
G01X-84907Y1655444D03*
G01X489105Y1859976D03*
G01X489105Y1709303D03*
G01X1841500Y-38964D03*
G01X1841500Y-189636D03*
G54D18*
G01X646836Y1181100D03*
G01X496164Y1181100D03*
G01X646836Y1333500D03*
G01X496164Y1333500D03*
G01X495300Y1486764D03*
G01X645973Y1486764D03*
G01X-216764Y-355600D03*
G01X-367436Y-355600D03*
G01X-367436Y-508000D03*
G01X-216764Y-508000D03*
G54D20*
G01X-838200Y-76200D03*
G54D21*
G01X-597459Y-201193D03*
G01X-597459Y-151206D03*
G01X-597459Y-101194D03*
G01X-597459Y-51206D03*
G01X-597459Y-1194D03*
G01X-597459Y48793D03*
G54D22*
G01X-663194Y114554D03*
G01X-713207Y114554D03*
G01X-763194Y114554D03*
G01X-813206Y114554D03*
G01X-863194Y114554D03*
G01X-913206Y114554D03*
G01X-963193Y114554D03*
G01X-1013206Y114554D03*
G54D21*
G01X-1078941Y48793D03*
G01X-1078941Y-1194D03*
G01X-1078941Y-51206D03*
G01X-1078941Y-101194D03*
G01X-1078941Y-151206D03*
G01X-1078941Y-201193D03*
G54D22*
G01X-1013206Y-266954D03*
G01X-963193Y-266954D03*
G01X-913206Y-266954D03*
G01X-863194Y-266954D03*
G01X-813206Y-266954D03*
G01X-763194Y-266954D03*
G01X-713207Y-266954D03*
G01X-663194Y-266954D03*
G54D23*
G01X941725Y1340396D03*
G54D24*
G01X1039211Y1481646D03*
G01X974237Y1481646D03*
G01X909213Y1481646D03*
G01X844240Y1481646D03*
G01X844240Y1199147D03*
G01X909213Y1199147D03*
G01X974237Y1199147D03*
G01X1039211Y1199147D03*
G54D25*
G01X923303Y262395D03*
G01X923303Y42405D03*
G01X1083297Y42405D03*
G01X1083297Y262395D03*
G54D19*
G01X304800Y-1497736D03*
G01X304800Y-1347064D03*
G01X-845262Y-1509434D03*
G01X-845262Y-1358762D03*
G54D18*
G01X-1631271Y508000D03*
G01X-1480598Y508000D03*
G01X-1771076Y-673100D03*
G01X-1620403Y-673100D03*
G54D19*
G01X-444500Y1802536D03*
G01X-444500Y1651864D03*
G01X647700Y1859976D03*
G01X647700Y1709303D03*
G54D26*
G01X2026691Y-51803D03*
G01X2026691Y-176797D03*
G54D27*
G01X2316683Y133185D03*
G01X2316683Y-361810D03*
G54D18*
G01X2170836Y-876300D03*
G01X2020164Y-876300D03*
G01X1857911Y-878733D03*
G01X1707238Y-878733D03*
G54D28*
G01X2349500Y-523494D03*
G01X2349500Y-873506D03*
G54D12*
G01X1009802Y-381000D03*
G01X869798Y-381000D03*
G01X-40645Y-350609D03*
G01X99360Y-350609D03*
G01X414957Y-350609D03*
G01X274952Y-350609D03*
G01X192126Y1179300D03*
G01X332130Y1179300D03*
G54D11*
G01X-419377Y851440D03*
G01X-419377Y711435D03*
G54D29*
G01X-2090164Y698936D03*
G01X-1991165Y797934D03*
G54D18*
G01X864464Y-546100D03*
G01X1015136Y-546100D03*
G01X-126136Y1181100D03*
G01X24536Y1181100D03*
G54D30*
G01X-1844598Y1178226D03*
G01X-1986019Y1036805D03*
G54D31*
G01X-2200876Y812522D03*
G01X-2094334Y919064D03*
G54D32*
G01X704393Y694106D03*
G01X704393Y644093D03*
G01X704393Y594106D03*
G01X704393Y544093D03*
G01X704393Y494106D03*
G01X704393Y444094D03*
G01X704393Y394106D03*
G01X704393Y344094D03*
G01X704393Y294107D03*
G01X704393Y244094D03*
G01X704393Y194107D03*
G01X704393Y144094D03*
G54D33*
G01X554406Y-5893D03*
G01X504393Y-5893D03*
G01X454406Y-5893D03*
G01X404393Y-5893D03*
G01X354406Y-5893D03*
G01X304394Y-5893D03*
G01X254406Y-5893D03*
G01X204394Y-5893D03*
G01X154407Y-5893D03*
G01X104394Y-5893D03*
G01X54407Y-5893D03*
G01X4394Y-5893D03*
G54D32*
G01X-145593Y144094D03*
G01X-145593Y194107D03*
G01X-145593Y244094D03*
G01X-145593Y294107D03*
G01X-145593Y344094D03*
G01X-145593Y394106D03*
G01X-145593Y444094D03*
G01X-145593Y494106D03*
G01X-145593Y544093D03*
G01X-145593Y594106D03*
G01X-145593Y644093D03*
G01X-145593Y694106D03*
G54D33*
G01X4394Y844093D03*
G01X54407Y844093D03*
G01X104394Y844093D03*
G01X154407Y844093D03*
G01X204394Y844093D03*
G01X254406Y844093D03*
G01X304394Y844093D03*
G01X354406Y844093D03*
G01X404393Y844093D03*
G01X454406Y844093D03*
G01X504393Y844093D03*
G01X554406Y844093D03*
G54D34*
G01X1907997Y546100D03*
G01X1907997Y419100D03*
G01X1907997Y292100D03*
G01X1907997Y165100D03*
G01X1394003Y546100D03*
G01X1394003Y419100D03*
G01X1394003Y292100D03*
G01X1394003Y165100D03*
G54D35*
G01X-941235Y955484D03*
G01X-852833Y1043886D03*
G01X-764450Y1132269D03*
G01X-676066Y1220653D03*
G54D36*
G01X-782141Y1588340D03*
G01X-1308940Y1061541D03*
G54D35*
G01X941235Y-904684D03*
G01X852833Y-993086D03*
G01X764450Y-1081469D03*
G01X676066Y-1169853D03*
G54D36*
G01X782141Y-1537540D03*
G01X1308940Y-1010741D03*
G04 Pad End*

M02*

