G04 Layer: TopSilkscreenLayer*
G04 EasyEDA Pro v3.2.69, 2026-03-27 19:08:31*
G04 Gerber Generator version 0.3*
G04 Scale: 100 percent, Rotated: No, Reflected: No*
G04 Dimensions in millimeters*
G04 Leading zeros omitted, absolute positions, 4 integers and 5 decimals*
G04 Generated by one-click*
%FSLAX45Y45*%
%MOMM*%
%ADD10C,0.1524*%
%ADD11C,0.254*%
%ADD12C,0.15199*%
%ADD13C,0.15001*%
%ADD14C,0.2*%
%ADD15C,0.0936*%
G75*


G04 Text Start*
G36*
G01X1941484Y445424D02*
G01X1943100Y445077D01*
G01X1947641Y444962D01*
G01X1953645Y444962D01*
G01X1956416Y453274D01*
G01X1957031Y454814D01*
G01X1961650Y468669D01*
G01X1962266Y470208D01*
G01X1966576Y483139D01*
G01X1967807Y486526D01*
G01X1972117Y499456D01*
G01X1972733Y500996D01*
G01X1975043Y507923D01*
G01X1975350Y509154D01*
G01X1974311Y509501D01*
G01X1970886Y509616D01*
G01X1966268Y509616D01*
G01X1966114Y508847D01*
G01X1964267Y503305D01*
G01X1963959Y502073D01*
G01X1961650Y495146D01*
G01X1960418Y491144D01*
G01X1958571Y485602D01*
G01X1957339Y481599D01*
G01X1955492Y476057D01*
G01X1955030Y474364D01*
G01X1952721Y467437D01*
G01X1951797Y464358D01*
G01X1950874Y461587D01*
G01X1949950Y458509D01*
G01X1948565Y454352D01*
G01X1948373Y453813D01*
G01X1948103Y453736D01*
G01X1947641Y454814D01*
G01X1946256Y459432D01*
G01X1945794Y460817D01*
G01X1945486Y462049D01*
G01X1944409Y465282D01*
G01X1943177Y469284D01*
G01X1941946Y472979D01*
G01X1940714Y476981D01*
G01X1939483Y480676D01*
G01X1938251Y484678D01*
G01X1936404Y490220D01*
G01X1935942Y491913D01*
G01X1934094Y497455D01*
G01X1933787Y498687D01*
G01X1931477Y505614D01*
G01X1930862Y507615D01*
G01X1930246Y509154D01*
G01X1928822Y509501D01*
G01X1925166Y509616D01*
G01X1920394Y509616D01*
G01X1920548Y508693D01*
G01X1921010Y507153D01*
G01X1935326Y464204D01*
G01X1935634Y462973D01*
G01X1941484Y445424D01*
G37*
G36*
G01X1871441Y448810D02*
G01X1871441Y444962D01*
G01X1914236Y444962D01*
G01X1914236Y452967D01*
G01X1898689Y452967D01*
G01X1887066Y453082D01*
G01X1883294Y453429D01*
G01X1883910Y454198D01*
G01X1892377Y462665D01*
G01X1894532Y464512D01*
G01X1898381Y468361D01*
G01X1899920Y470208D01*
G01X1901459Y471747D01*
G01X1903307Y473903D01*
G01X1904076Y474826D01*
G01X1904692Y475750D01*
G01X1906231Y477905D01*
G01X1906847Y478829D01*
G01X1907463Y479906D01*
G01X1908694Y482369D01*
G01X1909156Y483447D01*
G01X1909618Y484678D01*
G01X1910080Y486526D01*
G01X1910388Y488219D01*
G01X1910542Y492067D01*
G01X1910388Y495916D01*
G01X1910080Y497301D01*
G01X1909618Y498841D01*
G01X1909003Y500226D01*
G01X1908233Y501766D01*
G01X1907309Y503151D01*
G01X1906539Y504229D01*
G01X1905000Y505768D01*
G01X1904230Y506384D01*
G01X1903461Y506846D01*
G01X1902383Y507615D01*
G01X1900844Y508385D01*
G01X1899458Y509001D01*
G01X1897765Y509616D01*
G01X1895610Y510078D01*
G01X1893454Y510386D01*
G01X1890530Y510540D01*
G01X1888221Y510386D01*
G01X1886066Y510078D01*
G01X1883294Y509463D01*
G01X1881909Y509001D01*
G01X1880216Y508231D01*
G01X1878676Y507461D01*
G01X1877599Y506846D01*
G01X1876521Y506076D01*
G01X1874982Y504998D01*
G01X1873443Y503767D01*
G01X1872365Y502689D01*
G01X1872057Y501766D01*
G01X1872519Y500996D01*
G01X1873289Y500226D01*
G01X1874212Y498994D01*
G01X1875444Y497455D01*
G01X1876521Y496686D01*
G01X1877291Y497147D01*
G01X1879446Y498994D01*
G01X1880216Y499610D01*
G01X1881293Y500226D01*
G01X1882679Y500996D01*
G01X1883910Y501611D01*
G01X1885450Y502227D01*
G01X1887605Y502689D01*
G01X1890837Y502843D01*
G01X1893454Y502689D01*
G01X1894686Y502227D01*
G01X1895917Y501611D01*
G01X1896995Y500996D01*
G01X1897919Y500226D01*
G01X1898689Y499456D01*
G01X1899304Y498687D01*
G01X1899766Y497763D01*
G01X1900228Y496686D01*
G01X1900690Y495454D01*
G01X1900997Y494223D01*
G01X1901151Y493145D01*
G01X1901306Y490220D01*
G01X1901151Y487295D01*
G01X1900844Y486064D01*
G01X1900382Y484678D01*
G01X1899920Y483447D01*
G01X1899458Y482369D01*
G01X1898689Y481137D01*
G01X1897765Y479752D01*
G01X1896995Y478674D01*
G01X1895764Y477135D01*
G01X1894994Y476366D01*
G01X1893147Y474210D01*
G01X1889298Y470362D01*
G01X1888683Y469592D01*
G01X1887605Y468669D01*
G01X1871903Y452967D01*
G01X1871557Y451774D01*
G01X1871441Y448810D01*
G37*
G36*
G01X1816947Y448810D02*
G01X1816947Y444962D01*
G01X1857894Y444962D01*
G01X1857894Y452659D01*
G01X1843424Y452659D01*
G01X1843424Y509616D01*
G01X1842654Y509770D01*
G01X1838652Y509924D01*
G01X1834957Y509616D01*
G01X1832494Y508385D01*
G01X1831263Y507615D01*
G01X1827261Y505614D01*
G01X1824490Y504074D01*
G01X1820795Y502227D01*
G01X1819564Y501457D01*
G01X1816793Y500072D01*
G01X1815715Y499456D01*
G01X1815292Y499071D01*
G01X1815253Y498533D01*
G01X1815715Y497301D01*
G01X1817563Y493145D01*
G01X1818178Y492067D01*
G01X1818563Y491952D01*
G01X1819102Y492221D01*
G01X1820487Y492991D01*
G01X1821719Y493607D01*
G01X1823874Y494838D01*
G01X1826337Y496070D01*
G01X1827569Y496839D01*
G01X1830339Y498225D01*
G01X1831571Y498994D01*
G01X1832956Y499610D01*
G01X1833572Y499764D01*
G01X1833572Y452659D01*
G01X1816947Y452659D01*
G01X1816947Y448810D01*
G37*
G36*
G01X1775999Y457893D02*
G01X1775999Y447733D01*
G01X1784619Y447733D01*
G01X1784619Y468053D01*
G01X1804016Y468053D01*
G01X1804016Y475442D01*
G01X1784619Y475442D01*
G01X1784619Y495762D01*
G01X1775999Y495762D01*
G01X1775999Y475442D01*
G01X1756603Y475442D01*
G01X1756603Y468053D01*
G01X1775999Y468053D01*
G01X1775999Y457893D01*
G37*
G36*
G01X620558Y1116937D02*
G01X622110Y1117835D01*
G01X625457Y1120965D01*
G01X629702Y1125210D01*
G01X629267Y1125863D01*
G01X624042Y1136313D01*
G01X622953Y1138707D01*
G01X617075Y1150464D01*
G01X615987Y1152858D01*
G01X609456Y1165920D01*
G01X608367Y1168315D01*
G01X601836Y1181377D01*
G01X601183Y1182901D01*
G01X599659Y1185949D01*
G01X598679Y1185459D01*
G01X596176Y1183119D01*
G01X592910Y1179853D01*
G01X593237Y1179091D01*
G01X593999Y1177676D01*
G01X597264Y1171145D01*
G01X598788Y1168315D01*
G01X601400Y1163090D01*
G01X602925Y1160260D01*
G01X605537Y1155035D01*
G01X607061Y1152205D01*
G01X609673Y1146980D01*
G01X611197Y1144150D01*
G01X613810Y1138925D01*
G01X615334Y1136095D01*
G01X616640Y1133483D01*
G01X618164Y1130653D01*
G01X618817Y1129346D01*
G01X619361Y1128149D01*
G01X619334Y1127741D01*
G01X619034Y1127605D01*
G01X617837Y1128149D01*
G01X616422Y1128911D01*
G01X615116Y1129564D01*
G01X614027Y1130217D01*
G01X610980Y1131741D01*
G01X609456Y1132612D01*
G01X605537Y1134571D01*
G01X602707Y1136095D01*
G01X598788Y1138054D01*
G01X597700Y1138707D01*
G01X591168Y1141973D01*
G01X589645Y1142844D01*
G01X583113Y1146109D01*
G01X580283Y1147633D01*
G01X576365Y1149593D01*
G01X575276Y1150246D01*
G01X568745Y1153511D01*
G01X567439Y1153947D01*
G01X563629Y1150572D01*
G01X560255Y1147198D01*
G01X578542Y1138054D01*
G01X580066Y1137184D01*
G01X620558Y1116937D01*
G37*
G36*
G01X577453Y1071873D02*
G01X581263Y1075465D01*
G01X585073Y1079492D01*
G01X586379Y1081234D01*
G01X588121Y1083846D01*
G01X588665Y1085044D01*
G01X589427Y1086676D01*
G01X589971Y1088092D01*
G01X590842Y1090704D01*
G01X591168Y1092119D01*
G01X591386Y1093425D01*
G01X591604Y1095384D01*
G01X591604Y1096255D01*
G01X591495Y1097235D01*
G01X591495Y1098323D01*
G01X591386Y1099739D01*
G01X591060Y1101371D01*
G01X590624Y1102895D01*
G01X590189Y1104201D01*
G01X589645Y1105399D01*
G01X588338Y1107576D01*
G01X587250Y1109100D01*
G01X585399Y1111168D01*
G01X583767Y1112583D01*
G01X582460Y1113454D01*
G01X580936Y1114325D01*
G01X579739Y1114869D01*
G01X578650Y1115304D01*
G01X577562Y1115522D01*
G01X574514Y1115957D01*
G01X573426Y1115957D01*
G01X571902Y1115740D01*
G01X570051Y1115413D01*
G01X567112Y1114434D01*
G01X565806Y1113780D01*
G01X564609Y1113019D01*
G01X563194Y1112256D01*
G01X561779Y1111277D01*
G01X560908Y1110624D01*
G01X558948Y1109100D01*
G01X555139Y1105508D01*
G01X551764Y1102133D01*
G01X538702Y1115196D01*
G01X557642Y1134136D01*
G01X552417Y1139361D01*
G01X527599Y1114543D01*
G01X550893Y1091248D01*
G01X555356Y1095711D01*
G01X560255Y1100392D01*
G01X563956Y1103657D01*
G01X565262Y1104528D01*
G01X566786Y1105399D01*
G01X568092Y1106052D01*
G01X569507Y1106596D01*
G01X571140Y1106923D01*
G01X572555Y1107032D01*
G01X573534Y1106923D01*
G01X574841Y1106705D01*
G01X576365Y1106052D01*
G01X577453Y1105399D01*
G01X578759Y1104528D01*
G01X580392Y1103113D01*
G01X581372Y1101916D01*
G01X582134Y1100718D01*
G01X582787Y1099412D01*
G01X583222Y1098106D01*
G01X583549Y1096908D01*
G01X583658Y1095929D01*
G01X583658Y1093752D01*
G01X583549Y1092772D01*
G01X583222Y1091792D01*
G01X582896Y1090595D01*
G01X582352Y1089180D01*
G01X581589Y1087547D01*
G01X580283Y1085588D01*
G01X578977Y1083846D01*
G01X576147Y1080798D01*
G01X573317Y1078186D01*
G01X570487Y1075791D01*
G01X568745Y1074485D01*
G01X567765Y1073941D01*
G01X567221Y1073614D01*
G01X572881Y1067954D01*
G01X573752Y1068825D01*
G01X576365Y1071002D01*
G01X577453Y1071873D01*
G37*
G36*
G01X534348Y1048143D02*
G01X541532Y1040959D01*
G01X547628Y1047054D01*
G01X533260Y1061423D01*
G01X546975Y1075138D01*
G01X541750Y1080363D01*
G01X528035Y1066648D01*
G01X513666Y1081016D01*
G01X507570Y1074920D01*
G01X521939Y1060552D01*
G01X508224Y1046837D01*
G01X513449Y1041612D01*
G01X527164Y1055327D01*
G01X534348Y1048143D01*
G37*
G36*
G01X-731811Y968655D02*
G01X-726150Y973880D01*
G01X-721361Y979105D01*
G01X-717442Y983894D01*
G01X-714394Y987813D01*
G01X-712870Y990643D01*
G01X-710911Y993908D01*
G01X-708299Y999133D01*
G01X-707210Y1001528D01*
G01X-708462Y1003759D01*
G01X-712653Y1008277D01*
G01X-718313Y1013937D01*
G01X-719184Y1012631D01*
G01X-720272Y1010236D01*
G01X-721361Y1007406D01*
G01X-723102Y1003923D01*
G01X-725062Y1000222D01*
G01X-727021Y997392D01*
G01X-728327Y995650D01*
G01X-730069Y993038D01*
G01X-733117Y989554D01*
G01X-735076Y987160D01*
G01X-736165Y986071D01*
G01X-742260Y980846D01*
G01X-744437Y979540D01*
G01X-747267Y978016D01*
G01X-750315Y976710D01*
G01X-753363Y975839D01*
G01X-756629Y975186D01*
G01X-759459Y974968D01*
G01X-763813Y974968D01*
G01X-765772Y975186D01*
G01X-768385Y975621D01*
G01X-771215Y976274D01*
G01X-773827Y977145D01*
G01X-776875Y978451D01*
G01X-780141Y979975D01*
G01X-783406Y981935D01*
G01X-785801Y983459D01*
G01X-788849Y985636D01*
G01X-792767Y988683D01*
G01X-800169Y995650D01*
G01X-806265Y1002181D01*
G01X-809313Y1006100D01*
G01X-812361Y1010889D01*
G01X-813449Y1013284D01*
G01X-814973Y1016550D01*
G01X-816062Y1019380D01*
G01X-816932Y1021992D01*
G01X-817586Y1024387D01*
G01X-818021Y1026999D01*
G01X-818239Y1029829D01*
G01X-818456Y1032224D01*
G01X-818456Y1034401D01*
G01X-818021Y1038320D01*
G01X-817586Y1040061D01*
G01X-816933Y1042456D01*
G01X-816062Y1045068D01*
G01X-814973Y1047463D01*
G01X-812361Y1051817D01*
G01X-810619Y1054430D01*
G01X-805176Y1060308D01*
G01X-799734Y1065315D01*
G01X-796904Y1067274D01*
G01X-793638Y1069234D01*
G01X-788413Y1071846D01*
G01X-786019Y1072935D01*
G01X-783842Y1073805D01*
G01X-781447Y1074459D01*
G01X-779923Y1075112D01*
G01X-785801Y1081425D01*
G01X-791897Y1087521D01*
G01X-793421Y1086432D01*
G01X-796033Y1085126D01*
G01X-798428Y1084037D01*
G01X-800605Y1082731D01*
G01X-803435Y1081207D01*
G01X-807571Y1078377D01*
G01X-810619Y1076200D01*
G01X-816715Y1070975D01*
G01X-819110Y1069016D01*
G01X-824988Y1061832D01*
G01X-827600Y1058348D01*
G01X-829124Y1055518D01*
G01X-830866Y1052035D01*
G01X-832172Y1048987D01*
G01X-833913Y1043762D01*
G01X-834567Y1041368D01*
G01X-835002Y1038755D01*
G01X-835220Y1035925D01*
G01X-835655Y1032006D01*
G01X-835655Y1029830D01*
G01X-835220Y1024169D01*
G01X-835002Y1022210D01*
G01X-834567Y1020468D01*
G01X-834131Y1018291D01*
G01X-833478Y1015896D01*
G01X-831736Y1010671D01*
G01X-830648Y1007841D01*
G01X-829124Y1004576D01*
G01X-827600Y1001746D01*
G01X-826294Y999569D01*
G01X-824770Y996738D01*
G01X-822810Y993908D01*
G01X-818892Y988684D01*
G01X-812796Y981717D01*
G01X-810837Y979322D01*
G01X-808442Y977363D01*
G01X-801476Y971267D01*
G01X-797557Y968219D01*
G01X-792332Y964736D01*
G01X-789502Y963212D01*
G01X-786019Y961471D01*
G01X-782971Y960164D01*
G01X-780141Y959076D01*
G01X-777093Y958205D01*
G01X-773609Y957334D01*
G01X-769909Y956681D01*
G01X-765990Y956246D01*
G01X-762942Y956246D01*
G01X-756847Y957117D01*
G01X-754234Y957552D01*
G01X-751186Y958423D01*
G01X-748574Y959294D01*
G01X-745744Y960382D01*
G01X-742260Y962124D01*
G01X-738559Y964083D01*
G01X-735729Y966042D01*
G01X-733988Y967348D01*
G01X-731811Y968655D01*
G37*
G36*
G01X331124Y-1128453D02*
G01X333202Y-1129146D01*
G01X340052Y-1129376D01*
G01X349289Y-1129376D01*
G01X349596Y-1127837D01*
G01X354214Y-1113983D01*
G01X356062Y-1107825D01*
G01X356986Y-1105054D01*
G01X358217Y-1102283D01*
G01X365529Y-1101359D01*
G01X385618Y-1101051D01*
G01X412096Y-1101051D01*
G01X415174Y-1110288D01*
G01X417637Y-1118293D01*
G01X421024Y-1128453D01*
G01X423641Y-1129146D01*
G01X430876Y-1129376D01*
G01X440421Y-1129376D01*
G01X440113Y-1127837D01*
G01X432724Y-1105670D01*
G01X432108Y-1103207D01*
G01X421332Y-1070879D01*
G01X418869Y-1062874D01*
G01X409017Y-1033318D01*
G01X408093Y-1029931D01*
G01X398857Y-1002223D01*
G01X398241Y-1000991D01*
G01X397010Y-1000375D01*
G01X384694Y-1000067D01*
G01X373919Y-1000067D01*
G01X373611Y-1001607D01*
G01X345697Y-1085350D01*
G01X363759Y-1085350D01*
G01X364067Y-1083194D01*
G01X365298Y-1079500D01*
G01X366222Y-1076113D01*
G01X368993Y-1067801D01*
G01X370840Y-1061643D01*
G01X372687Y-1056101D01*
G01X374534Y-1049944D01*
G01X376382Y-1044402D01*
G01X378229Y-1038244D01*
G01X380076Y-1032703D01*
G01X381924Y-1026545D01*
G01X383771Y-1021003D01*
G01X384694Y-1018848D01*
G01X385618Y-1018232D01*
G01X386542Y-1020079D01*
G01X387466Y-1022850D01*
G01X389313Y-1029008D01*
G01X391160Y-1034550D01*
G01X393007Y-1040707D01*
G01X394854Y-1046249D01*
G01X396702Y-1052407D01*
G01X398549Y-1057949D01*
G01X400396Y-1064106D01*
G01X402244Y-1069648D01*
G01X404091Y-1075806D01*
G01X406862Y-1084118D01*
G01X407170Y-1085657D01*
G01X385618Y-1085657D01*
G01X363759Y-1085350D01*
G01X363759Y-1085350D01*
G01X345697Y-1085350D01*
G01X332047Y-1126297D01*
G01X331124Y-1128453D01*
G37*
G36*
G01X-1265207Y-630723D02*
G01X-1219489Y-676441D01*
G01X-1203814Y-660766D01*
G01X-1187704Y-644221D01*
G01X-1183786Y-638560D01*
G01X-1182479Y-636383D01*
G01X-1178561Y-628546D01*
G01X-1176819Y-622450D01*
G01X-1176166Y-619185D01*
G01X-1175731Y-615266D01*
G01X-1175948Y-611565D01*
G01X-1176819Y-606340D01*
G01X-1177690Y-603292D01*
G01X-1178778Y-600462D01*
G01X-1180520Y-596979D01*
G01X-1182479Y-594149D01*
G01X-1183786Y-592407D01*
G01X-1187269Y-588489D01*
G01X-1191188Y-585005D01*
G01X-1193365Y-583699D01*
G01X-1195977Y-582393D01*
G01X-1199025Y-581522D01*
G01X-1202508Y-580651D01*
G01X-1206209Y-579998D01*
G01X-1209039Y-580216D01*
G01X-1212958Y-580651D01*
G01X-1217530Y-582175D01*
G01X-1220360Y-583264D01*
G01X-1222972Y-584570D01*
G01X-1224931Y-585223D01*
G01X-1225204Y-584624D01*
G01X-1224714Y-583264D01*
G01X-1223625Y-580434D01*
G01X-1222319Y-574773D01*
G01X-1222319Y-570419D01*
G01X-1222537Y-567589D01*
G01X-1223190Y-564759D01*
G01X-1224061Y-562147D01*
G01X-1225585Y-558881D01*
G01X-1228197Y-554962D01*
G01X-1231245Y-551044D01*
G01X-1233422Y-548867D01*
G01X-1235817Y-546907D01*
G01X-1238647Y-544948D01*
G01X-1241259Y-543642D01*
G01X-1243654Y-542553D01*
G01X-1246049Y-541900D01*
G01X-1249314Y-541247D01*
G01X-1254539Y-541247D01*
G01X-1256499Y-541465D01*
G01X-1258893Y-542118D01*
G01X-1261941Y-542989D01*
G01X-1265207Y-544513D01*
G01X-1268908Y-546472D01*
G01X-1272609Y-548867D01*
G01X-1275221Y-550608D01*
G01X-1280010Y-554527D01*
G01X-1295903Y-569984D01*
G01X-1308747Y-582828D01*
G01X-1287848Y-582828D01*
G01X-1278922Y-573903D01*
G01X-1269125Y-564541D01*
G01X-1264336Y-561493D01*
G01X-1261941Y-560405D01*
G01X-1258893Y-559534D01*
G01X-1256281Y-559099D01*
G01X-1253886Y-559316D01*
G01X-1251491Y-559969D01*
G01X-1248661Y-561058D01*
G01X-1244743Y-563670D01*
G01X-1241477Y-566501D01*
G01X-1239953Y-568460D01*
G01X-1238647Y-570637D01*
G01X-1237558Y-573032D01*
G01X-1236905Y-575862D01*
G01X-1236688Y-578692D01*
G01X-1236688Y-580869D01*
G01X-1236905Y-582828D01*
G01X-1237558Y-584788D01*
G01X-1238647Y-587618D01*
G01X-1239953Y-590230D01*
G01X-1241259Y-592407D01*
G01X-1243436Y-595455D01*
G01X-1251709Y-604163D01*
G01X-1259111Y-611130D01*
G01X-1259111Y-611130D01*
G01X-1273697Y-596979D01*
G01X-1287848Y-582828D01*
G01X-1308747Y-582828D01*
G01X-1310924Y-585005D01*
G01X-1273915Y-622015D01*
G01X-1248661Y-622015D01*
G01X-1239735Y-613089D01*
G01X-1229939Y-603728D01*
G01X-1227326Y-601986D01*
G01X-1224278Y-600245D01*
G01X-1221884Y-599156D01*
G01X-1219707Y-598285D01*
G01X-1217312Y-597632D01*
G01X-1214046Y-596979D01*
G01X-1210345Y-597197D01*
G01X-1207515Y-597850D01*
G01X-1204685Y-598938D01*
G01X-1200767Y-601551D01*
G01X-1197719Y-604163D01*
G01X-1196413Y-605905D01*
G01X-1194888Y-608300D01*
G01X-1193364Y-611130D01*
G01X-1192494Y-613742D01*
G01X-1192058Y-615919D01*
G01X-1191841Y-617879D01*
G01X-1192058Y-620709D01*
G01X-1192929Y-623756D01*
G01X-1193800Y-626369D01*
G01X-1195106Y-628981D01*
G01X-1196413Y-631158D01*
G01X-1198589Y-634206D01*
G01X-1208604Y-644656D01*
G01X-1217312Y-652929D01*
G01X-1217312Y-652929D01*
G01X-1233204Y-637472D01*
G01X-1248661Y-622015D01*
G01X-1273915Y-622015D01*
G01X-1265207Y-630723D01*
G37*
G36*
G01X1833187Y-1166245D02*
G01X1836651Y-1167169D01*
G01X1845810Y-1167476D01*
G01X1857817Y-1167476D01*
G01X1858126Y-1165937D01*
G01X1861820Y-1154853D01*
G01X1863667Y-1149927D01*
G01X1871980Y-1124989D01*
G01X1873827Y-1120063D01*
G01X1883064Y-1092354D01*
G01X1884295Y-1089275D01*
G01X1892916Y-1063413D01*
G01X1895379Y-1056640D01*
G01X1901229Y-1039091D01*
G01X1899150Y-1038398D01*
G01X1892300Y-1038167D01*
G01X1883064Y-1038167D01*
G01X1878753Y-1051098D01*
G01X1877830Y-1054485D01*
G01X1873211Y-1068339D01*
G01X1871364Y-1074497D01*
G01X1867670Y-1085581D01*
G01X1865823Y-1091738D01*
G01X1862128Y-1102822D01*
G01X1860281Y-1108979D01*
G01X1856586Y-1120063D01*
G01X1854739Y-1126221D01*
G01X1852891Y-1131763D01*
G01X1851044Y-1137920D01*
G01X1849197Y-1143462D01*
G01X1848273Y-1146541D01*
G01X1847350Y-1149311D01*
G01X1846734Y-1149696D01*
G01X1846118Y-1149004D01*
G01X1844271Y-1143462D01*
G01X1840576Y-1131147D01*
G01X1839653Y-1128376D01*
G01X1839037Y-1125913D01*
G01X1834419Y-1112058D01*
G01X1831956Y-1104053D01*
G01X1829493Y-1096664D01*
G01X1827030Y-1088659D01*
G01X1824567Y-1081270D01*
G01X1822104Y-1073266D01*
G01X1818409Y-1062182D01*
G01X1817486Y-1058795D01*
G01X1813791Y-1047711D01*
G01X1813175Y-1045249D01*
G01X1812251Y-1042477D01*
G01X1811020Y-1039399D01*
G01X1808172Y-1038475D01*
G01X1800860Y-1038167D01*
G01X1793702Y-1038475D01*
G01X1791316Y-1039399D01*
G01X1791931Y-1041862D01*
G01X1826106Y-1144386D01*
G01X1826722Y-1146849D01*
G01X1827646Y-1149311D01*
G01X1828569Y-1152390D01*
G01X1833187Y-1166245D01*
G37*
G36*
G01X2025919Y-1102822D02*
G01X2025919Y-1167476D01*
G01X2041929Y-1167476D01*
G01X2041929Y-1115137D01*
G01X2042083Y-1075959D01*
G01X2042545Y-1063106D01*
G01X2043776Y-1064953D01*
G01X2046239Y-1071110D01*
G01X2047471Y-1073881D01*
G01X2048703Y-1076960D01*
G01X2049934Y-1079731D01*
G01X2053629Y-1088351D01*
G01X2056091Y-1093893D01*
G01X2058554Y-1098819D01*
G01X2060402Y-1103130D01*
G01X2062865Y-1108056D01*
G01X2065328Y-1113597D01*
G01X2067791Y-1118524D01*
G01X2069638Y-1122834D01*
G01X2072101Y-1127760D01*
G01X2073949Y-1132070D01*
G01X2076411Y-1136996D01*
G01X2078259Y-1141307D01*
G01X2080722Y-1146233D01*
G01X2083185Y-1151774D01*
G01X2085648Y-1156701D01*
G01X2087495Y-1161011D01*
G01X2089958Y-1165937D01*
G01X2091497Y-1167169D01*
G01X2103197Y-1167476D01*
G01X2113973Y-1167476D01*
G01X2113973Y-1038167D01*
G01X2097347Y-1038167D01*
G01X2097347Y-1090199D01*
G01X2097193Y-1129146D01*
G01X2096731Y-1141923D01*
G01X2095500Y-1140075D01*
G01X2094269Y-1136996D01*
G01X2089343Y-1125913D01*
G01X2088111Y-1122834D01*
G01X2086879Y-1120371D01*
G01X2083185Y-1111750D01*
G01X2080722Y-1106824D01*
G01X2078259Y-1101283D01*
G01X2075796Y-1096356D01*
G01X2073333Y-1090814D01*
G01X2070870Y-1085889D01*
G01X2068407Y-1080347D01*
G01X2065944Y-1075421D01*
G01X2063481Y-1069879D01*
G01X2061017Y-1064953D01*
G01X2058554Y-1059411D01*
G01X2056091Y-1054485D01*
G01X2053629Y-1048943D01*
G01X2051166Y-1044017D01*
G01X2049934Y-1041246D01*
G01X2048087Y-1038783D01*
G01X2036387Y-1038167D01*
G01X2025919Y-1038167D01*
G01X2025919Y-1102822D01*
G37*
G36*
G01X1919393Y-1160087D02*
G01X1919393Y-1167476D01*
G01X1996979Y-1167476D01*
G01X1996979Y-1152698D01*
G01X1966807Y-1152698D01*
G01X1966807Y-1052946D01*
G01X1996979Y-1052946D01*
G01X1996979Y-1038167D01*
G01X1919393Y-1038167D01*
G01X1919393Y-1052946D01*
G01X1948950Y-1052946D01*
G01X1948950Y-1152698D01*
G01X1919393Y-1152698D01*
G01X1919393Y-1160087D01*
G37*
G36*
G01X1765128Y-775624D02*
G01X1756199Y-775316D01*
G01X1753428Y-774700D01*
G01X1747271Y-773469D01*
G01X1743884Y-772545D01*
G01X1741113Y-771313D01*
G01X1738034Y-770082D01*
G01X1735571Y-768850D01*
G01X1733416Y-767619D01*
G01X1731569Y-766387D01*
G01X1729414Y-764848D01*
G01X1727259Y-763001D01*
G01X1721101Y-756843D01*
G01X1719870Y-755304D01*
G01X1718330Y-753149D01*
G01X1716791Y-750686D01*
G01X1714328Y-745759D01*
G01X1712480Y-741449D01*
G01X1711557Y-738678D01*
G01X1710633Y-735599D01*
G01X1709710Y-732213D01*
G01X1709094Y-729134D01*
G01X1708478Y-724824D01*
G01X1707862Y-718050D01*
G01X1707554Y-711893D01*
G01X1707862Y-705735D01*
G01X1708478Y-698962D01*
G01X1709094Y-694651D01*
G01X1709710Y-691265D01*
G01X1710633Y-687570D01*
G01X1712480Y-681413D01*
G01X1713712Y-678334D01*
G01X1714943Y-675563D01*
G01X1716175Y-673100D01*
G01X1717714Y-670329D01*
G01X1719562Y-667558D01*
G01X1721101Y-665403D01*
G01X1722333Y-663556D01*
G01X1723872Y-661709D01*
G01X1730030Y-655551D01*
G01X1732493Y-653704D01*
G01X1737111Y-650625D01*
G01X1739266Y-649393D01*
G01X1741729Y-648162D01*
G01X1744500Y-646930D01*
G01X1750966Y-644775D01*
G01X1757123Y-643544D01*
G01X1762049Y-642928D01*
G01X1767591Y-642620D01*
G01X1773133Y-642928D01*
G01X1776211Y-643236D01*
G01X1779906Y-643544D01*
G01X1784216Y-644159D01*
G01X1789142Y-645083D01*
G01X1793145Y-646314D01*
G01X1796531Y-647546D01*
G01X1801150Y-649393D01*
G01X1801150Y-657706D01*
G01X1800842Y-666019D01*
G01X1798687Y-665403D01*
G01X1795916Y-664171D01*
G01X1791606Y-662324D01*
G01X1788834Y-661401D01*
G01X1785756Y-660477D01*
G01X1782369Y-659553D01*
G01X1779290Y-658937D01*
G01X1771286Y-658630D01*
G01X1762665Y-658937D01*
G01X1759586Y-659553D01*
G01X1754660Y-660785D01*
G01X1752197Y-661709D01*
G01X1745423Y-665095D01*
G01X1743884Y-666327D01*
G01X1740190Y-669406D01*
G01X1738650Y-670945D01*
G01X1736803Y-673100D01*
G01X1734648Y-676179D01*
G01X1732800Y-679257D01*
G01X1731569Y-681721D01*
G01X1730337Y-684491D01*
G01X1728182Y-690957D01*
G01X1726951Y-696499D01*
G01X1726335Y-702041D01*
G01X1726027Y-709122D01*
G01X1726335Y-716203D01*
G01X1726951Y-721745D01*
G01X1727259Y-724208D01*
G01X1727874Y-727903D01*
G01X1728798Y-730981D01*
G01X1729414Y-733752D01*
G01X1730337Y-736523D01*
G01X1731261Y-738678D01*
G01X1732493Y-741449D01*
G01X1734340Y-744528D01*
G01X1735879Y-746683D01*
G01X1737111Y-748223D01*
G01X1740190Y-751301D01*
G01X1742345Y-753149D01*
G01X1745116Y-754996D01*
G01X1747887Y-756535D01*
G01X1750966Y-757767D01*
G01X1753428Y-758690D01*
G01X1759586Y-759922D01*
G01X1766667Y-760230D01*
G01X1773748Y-759922D01*
G01X1777135Y-759306D01*
G01X1781753Y-758383D01*
G01X1783908Y-757767D01*
G01X1783908Y-716511D01*
G01X1757431Y-716511D01*
G01X1757431Y-701733D01*
G01X1801766Y-701733D01*
G01X1801766Y-733444D01*
G01X1801457Y-766695D01*
G01X1800842Y-768004D01*
G01X1799610Y-768850D01*
G01X1796839Y-770082D01*
G01X1788527Y-772853D01*
G01X1786063Y-773469D01*
G01X1780522Y-774700D01*
G01X1774364Y-775316D01*
G01X1765128Y-775624D01*
G37*
G36*
G01X1935385Y-773776D02*
G01X1935385Y-708814D01*
G01X1953242Y-708814D01*
G01X1953550Y-758690D01*
G01X1961862Y-758998D01*
G01X1970791Y-758690D01*
G01X1975717Y-758074D01*
G01X1978796Y-757459D01*
G01X1982798Y-756535D01*
G01X1986185Y-755304D01*
G01X1988956Y-754072D01*
G01X1991419Y-752841D01*
G01X1993266Y-751609D01*
G01X1994806Y-750686D01*
G01X1996345Y-749454D01*
G01X2000039Y-745759D01*
G01X2001887Y-743296D01*
G01X2003426Y-741141D01*
G01X2004966Y-738370D01*
G01X2006197Y-735291D01*
G01X2007428Y-731905D01*
G01X2008352Y-729134D01*
G01X2009583Y-722976D01*
G01X2010199Y-716819D01*
G01X2010507Y-709430D01*
G01X2010199Y-702041D01*
G01X2009891Y-699577D01*
G01X2009583Y-695267D01*
G01X2008968Y-691573D01*
G01X2008352Y-688494D01*
G01X2007428Y-684491D01*
G01X2006197Y-681105D01*
G01X2004966Y-678026D01*
G01X2003426Y-674947D01*
G01X2001887Y-672792D01*
G01X1999423Y-669713D01*
G01X1998192Y-668482D01*
G01X1996037Y-666634D01*
G01X1993266Y-664787D01*
G01X1991111Y-663556D01*
G01X1988956Y-662632D01*
G01X1986493Y-661709D01*
G01X1983414Y-660785D01*
G01X1980643Y-660169D01*
G01X1976333Y-659553D01*
G01X1964326Y-659246D01*
G01X1953242Y-659246D01*
G01X1953242Y-708814D01*
G01X1953242Y-708814D01*
G01X1935385Y-708814D01*
G01X1935385Y-644467D01*
G01X1954473Y-644467D01*
G01X1974486Y-644775D01*
G01X1977872Y-645083D01*
G01X1981874Y-645391D01*
G01X1988032Y-646623D01*
G01X1990495Y-647238D01*
G01X1993266Y-647854D01*
G01X1996037Y-648777D01*
G01X2000347Y-650625D01*
G01X2002810Y-651856D01*
G01X2005581Y-653396D01*
G01X2007736Y-654627D01*
G01X2012354Y-658322D01*
G01X2013894Y-659861D01*
G01X2016357Y-662940D01*
G01X2018204Y-665095D01*
G01X2019743Y-667250D01*
G01X2020975Y-669406D01*
G01X2022207Y-671869D01*
G01X2024054Y-676179D01*
G01X2024977Y-678642D01*
G01X2025901Y-682029D01*
G01X2026825Y-684799D01*
G01X2028056Y-692189D01*
G01X2028672Y-698346D01*
G01X2028980Y-706659D01*
G01X2028672Y-714971D01*
G01X2028056Y-720513D01*
G01X2027440Y-724824D01*
G01X2026209Y-730981D01*
G01X2025593Y-733752D01*
G01X2024670Y-736831D01*
G01X2023438Y-739910D01*
G01X2022207Y-742681D01*
G01X2019436Y-748223D01*
G01X2017588Y-750993D01*
G01X2015433Y-753764D01*
G01X2013586Y-756227D01*
G01X2012047Y-757767D01*
G01X2010199Y-759306D01*
G01X2007736Y-761461D01*
G01X2004657Y-763616D01*
G01X2001887Y-765464D01*
G01X1999116Y-767003D01*
G01X1996345Y-768234D01*
G01X1991419Y-770082D01*
G01X1988340Y-771006D01*
G01X1984337Y-771929D01*
G01X1981259Y-772853D01*
G01X1975101Y-773469D01*
G01X1954781Y-773776D01*
G01X1935385Y-773776D01*
G37*
G36*
G01X1824548Y-773776D02*
G01X1824548Y-644467D01*
G01X1835632Y-644467D01*
G01X1844176Y-644698D01*
G01X1847639Y-645391D01*
G01X1849179Y-648162D01*
G01X1850410Y-650933D01*
G01X1852873Y-655859D01*
G01X1855336Y-661401D01*
G01X1856568Y-663864D01*
G01X1859031Y-669406D01*
G01X1862726Y-676794D01*
G01X1865188Y-682336D01*
G01X1867651Y-687263D01*
G01X1870114Y-692804D01*
G01X1872577Y-697730D01*
G01X1875040Y-703272D01*
G01X1877503Y-708198D01*
G01X1879351Y-712509D01*
G01X1881814Y-717434D01*
G01X1884277Y-722976D01*
G01X1886124Y-727287D01*
G01X1887356Y-729750D01*
G01X1888587Y-732829D01*
G01X1893513Y-743912D01*
G01X1894745Y-746991D01*
G01X1895976Y-748838D01*
G01X1896438Y-735984D01*
G01X1896592Y-696807D01*
G01X1896592Y-644467D01*
G01X1912602Y-644467D01*
G01X1912602Y-773776D01*
G01X1902442Y-773776D01*
G01X1890742Y-773469D01*
G01X1889434Y-772853D01*
G01X1888587Y-771621D01*
G01X1886124Y-766695D01*
G01X1884893Y-763616D01*
G01X1882430Y-758690D01*
G01X1879967Y-753149D01*
G01X1877503Y-748223D01*
G01X1876272Y-745144D01*
G01X1873809Y-740217D01*
G01X1871346Y-734676D01*
G01X1868883Y-729750D01*
G01X1866420Y-724208D01*
G01X1863957Y-719282D01*
G01X1862726Y-716203D01*
G01X1860262Y-711277D01*
G01X1857799Y-705735D01*
G01X1855336Y-700809D01*
G01X1854105Y-697730D01*
G01X1851642Y-692804D01*
G01X1849179Y-686647D01*
G01X1847947Y-683876D01*
G01X1847023Y-681413D01*
G01X1844253Y-674947D01*
G01X1843021Y-672176D01*
G01X1841790Y-670021D01*
G01X1841328Y-682798D01*
G01X1841174Y-721745D01*
G01X1841174Y-773776D01*
G01X1824548Y-773776D01*
G37*
G36*
G01X864077Y19139D02*
G01X806930Y76286D01*
G01X839041Y108397D01*
G01X845572Y101866D01*
G01X821353Y77647D01*
G01X840130Y58870D01*
G01X863261Y82001D01*
G01X865846Y79416D01*
G01X868975Y76014D01*
G01X869520Y75198D01*
G01X846661Y52339D01*
G01X871969Y27031D01*
G01X864077Y19139D01*
G37*
G36*
G01X911155Y66217D02*
G01X877139Y100234D01*
G01X892923Y100234D01*
G01X902583Y90573D01*
G01X902583Y90573D01*
G01X912516Y80912D01*
G01X918095Y86219D01*
G01X924218Y92614D01*
G01X925578Y94519D01*
G01X926395Y95879D01*
G01X927211Y97512D01*
G01X928027Y99689D01*
G01X928299Y101322D01*
G01X928436Y102547D01*
G01X928436Y103907D01*
G01X928163Y105540D01*
G01X927483Y107581D01*
G01X926667Y109214D01*
G01X924626Y111527D01*
G01X922313Y113568D01*
G01X920816Y114520D01*
G01X919183Y115337D01*
G01X917958Y115745D01*
G01X916734Y115881D01*
G01X914013Y115881D01*
G01X912788Y115745D01*
G01X911291Y115337D01*
G01X909386Y114520D01*
G01X907890Y113840D01*
G01X904896Y111935D01*
G01X898637Y105948D01*
G01X892923Y100234D01*
G01X877139Y100234D01*
G01X854008Y123365D01*
G01X855369Y124725D01*
G01X868431Y124725D01*
G01X877275Y115881D01*
G01X877275Y115881D01*
G01X886392Y107037D01*
G01X891018Y111391D01*
G01X896188Y116833D01*
G01X897549Y118738D01*
G01X899182Y121460D01*
G01X899726Y122820D01*
G01X900134Y124317D01*
G01X900406Y125950D01*
G01X900406Y128671D01*
G01X900270Y129896D01*
G01X899862Y131120D01*
G01X899181Y132617D01*
G01X897141Y135202D01*
G01X894555Y137515D01*
G01X893195Y138332D01*
G01X891698Y139012D01*
G01X890201Y139420D01*
G01X888977Y139556D01*
G01X887616Y139556D01*
G01X886255Y139284D01*
G01X885031Y138876D01*
G01X883670Y138332D01*
G01X881901Y137379D01*
G01X880405Y136427D01*
G01X874146Y130440D01*
G01X868431Y124725D01*
G01X855369Y124725D01*
G01X863397Y132753D01*
G01X873329Y142413D01*
G01X874690Y143502D01*
G01X876323Y144863D01*
G01X879588Y147040D01*
G01X882310Y148673D01*
G01X883806Y149353D01*
G01X885439Y149897D01*
G01X887344Y150441D01*
G01X888977Y150713D01*
G01X891426Y150986D01*
G01X893195Y150850D01*
G01X894964Y150441D01*
G01X897685Y149353D01*
G01X899454Y148400D01*
G01X901086Y147312D01*
G01X903264Y145407D01*
G01X905168Y143230D01*
G01X907345Y139964D01*
G01X908162Y138332D01*
G01X908978Y136155D01*
G01X909251Y134522D01*
G01X909522Y133161D01*
G01X909522Y131256D01*
G01X909386Y129487D01*
G01X909114Y127854D01*
G01X908706Y126358D01*
G01X908162Y124997D01*
G01X907754Y123773D01*
G01X908094Y123569D01*
G01X908842Y123773D01*
G01X912652Y125406D01*
G01X914557Y125950D01*
G01X916054Y126358D01*
G01X917278Y126494D01*
G01X920544Y126494D01*
G01X922585Y126086D01*
G01X924081Y125677D01*
G01X925306Y125269D01*
G01X926667Y124725D01*
G01X928572Y123637D01*
G01X930749Y122004D01*
G01X932109Y120643D01*
G01X933062Y119419D01*
G01X934286Y117922D01*
G01X935375Y116289D01*
G01X936463Y114384D01*
G01X937280Y112479D01*
G01X937824Y110847D01*
G01X938368Y108125D01*
G01X938504Y106629D01*
G01X938504Y103363D01*
G01X938232Y101458D01*
G01X938096Y100234D01*
G01X937688Y98737D01*
G01X937144Y97104D01*
G01X936463Y95335D01*
G01X934558Y91525D01*
G01X932654Y88532D01*
G01X931021Y86355D01*
G01X920952Y76014D01*
G01X911155Y66217D01*
G37*
G36*
G01X1644739Y-305277D02*
G01X1701886Y-248130D01*
G01X1733997Y-280241D01*
G01X1727466Y-286772D01*
G01X1703247Y-262553D01*
G01X1684470Y-281330D01*
G01X1707601Y-304461D01*
G01X1705016Y-307046D01*
G01X1701614Y-310175D01*
G01X1700798Y-310720D01*
G01X1677939Y-287861D01*
G01X1652631Y-313169D01*
G01X1644739Y-305277D01*
G37*
G36*
G01X1691817Y-352355D02*
G01X1716581Y-327592D01*
G01X1732637Y-327592D01*
G01X1736991Y-332218D01*
G01X1742433Y-337388D01*
G01X1744338Y-338749D01*
G01X1747060Y-340382D01*
G01X1748420Y-340926D01*
G01X1749917Y-341334D01*
G01X1751550Y-341606D01*
G01X1754271Y-341606D01*
G01X1755496Y-341470D01*
G01X1756720Y-341062D01*
G01X1758217Y-340381D01*
G01X1760802Y-338341D01*
G01X1763115Y-335755D01*
G01X1763932Y-334395D01*
G01X1764612Y-332898D01*
G01X1765020Y-331401D01*
G01X1765156Y-330177D01*
G01X1765156Y-328816D01*
G01X1764884Y-327455D01*
G01X1764476Y-326231D01*
G01X1763932Y-324870D01*
G01X1762979Y-323101D01*
G01X1762027Y-321605D01*
G01X1756040Y-315346D01*
G01X1750325Y-309631D01*
G01X1741481Y-318475D01*
G01X1741481Y-318475D01*
G01X1732637Y-327592D01*
G01X1716581Y-327592D01*
G01X1748965Y-295208D01*
G01X1758353Y-304597D01*
G01X1768013Y-314529D01*
G01X1769102Y-315890D01*
G01X1770463Y-317523D01*
G01X1772640Y-320788D01*
G01X1774273Y-323510D01*
G01X1774953Y-325006D01*
G01X1775497Y-326639D01*
G01X1776041Y-328544D01*
G01X1776313Y-330177D01*
G01X1776586Y-332626D01*
G01X1776450Y-334395D01*
G01X1776041Y-336164D01*
G01X1774953Y-338885D01*
G01X1774000Y-340654D01*
G01X1772912Y-342286D01*
G01X1771007Y-344464D01*
G01X1768830Y-346368D01*
G01X1765564Y-348545D01*
G01X1763932Y-349362D01*
G01X1761755Y-350178D01*
G01X1760122Y-350451D01*
G01X1758761Y-350722D01*
G01X1756856Y-350722D01*
G01X1755087Y-350586D01*
G01X1753454Y-350314D01*
G01X1751958Y-349906D01*
G01X1750597Y-349362D01*
G01X1749373Y-348954D01*
G01X1749169Y-349294D01*
G01X1749373Y-350042D01*
G01X1751006Y-353852D01*
G01X1751550Y-355757D01*
G01X1751958Y-357254D01*
G01X1752094Y-358478D01*
G01X1752094Y-361744D01*
G01X1751686Y-363785D01*
G01X1751277Y-365281D01*
G01X1750869Y-366506D01*
G01X1750325Y-367867D01*
G01X1749237Y-369772D01*
G01X1747604Y-371949D01*
G01X1746243Y-373309D01*
G01X1745019Y-374262D01*
G01X1743522Y-375486D01*
G01X1741889Y-376575D01*
G01X1739984Y-377663D01*
G01X1738079Y-378480D01*
G01X1736447Y-379024D01*
G01X1733725Y-379568D01*
G01X1732229Y-379704D01*
G01X1728963Y-379704D01*
G01X1727058Y-379432D01*
G01X1725834Y-379296D01*
G01X1724337Y-378888D01*
G01X1722704Y-378344D01*
G01X1720935Y-377663D01*
G01X1717125Y-375758D01*
G01X1714132Y-373854D01*
G01X1711955Y-372221D01*
G01X1701614Y-362152D01*
G01X1693178Y-353716D01*
G01X1706512Y-353716D01*
G01X1711819Y-359295D01*
G01X1718214Y-365418D01*
G01X1720119Y-366778D01*
G01X1721479Y-367595D01*
G01X1723112Y-368411D01*
G01X1725289Y-369227D01*
G01X1726922Y-369499D01*
G01X1728147Y-369636D01*
G01X1729507Y-369636D01*
G01X1731140Y-369363D01*
G01X1733181Y-368683D01*
G01X1734814Y-367867D01*
G01X1737127Y-365826D01*
G01X1739168Y-363513D01*
G01X1740120Y-362016D01*
G01X1740937Y-360383D01*
G01X1741345Y-359158D01*
G01X1741481Y-357934D01*
G01X1741481Y-355213D01*
G01X1741345Y-353988D01*
G01X1740937Y-352491D01*
G01X1740120Y-350586D01*
G01X1739440Y-349090D01*
G01X1737535Y-346096D01*
G01X1731548Y-339837D01*
G01X1725834Y-334123D01*
G01X1716173Y-343783D01*
G01X1716173Y-343783D01*
G01X1706512Y-353716D01*
G01X1693178Y-353716D01*
G01X1691817Y-352355D01*
G37*
G54D10*
G01X-13893Y994598D02*
G01X-90584Y1009865D01*
G01X-44605Y963886D02*
G01X-59872Y1040577D01*
G01X-79089Y951313D02*
G01X-76934Y949158D01*
G01X-74599Y942513D01*
G01X-74599Y938202D01*
G01X-76754Y931736D01*
G01X-85555Y922936D01*
G01X-92201Y920601D01*
G01X-96511Y920601D01*
G01X-103156Y922936D01*
G01X-107467Y927246D01*
G01X-109622Y933712D01*
G01X-111777Y944848D01*
G01X-111957Y988492D01*
G01X-142490Y957959D01*
G01X-850136Y-537741D02*
G01X-817268Y-570609D01*
G01X-808647Y-574920D01*
G01X-799667Y-574920D01*
G01X-791046Y-570609D01*
G01X-786556Y-566119D01*
G01X-782245Y-557498D01*
G01X-782425Y-548697D01*
G01X-786556Y-539897D01*
G01X-819424Y-507029D01*
G01X-784939Y-494457D02*
G01X-787095Y-492301D01*
G01X-789430Y-485656D01*
G01X-789430Y-481345D01*
G01X-787274Y-474880D01*
G01X-778474Y-466079D01*
G01X-771828Y-463744D01*
G01X-767518Y-463744D01*
G01X-760872Y-466079D01*
G01X-756562Y-470389D01*
G01X-754407Y-476855D01*
G01X-752251Y-487991D01*
G01X-752072Y-531635D01*
G01X-721539Y-501102D01*
G01X621536Y677441D02*
G01X588668Y710309D01*
G01X580047Y714620D01*
G01X571067Y714620D01*
G01X562446Y710309D01*
G01X557956Y705819D01*
G01X553645Y697198D01*
G01X553825Y688397D01*
G01X557956Y679597D01*
G01X590824Y646729D01*
G01X543228Y599134D02*
G01X565140Y621045D01*
G01X547718Y642778D01*
G01X547718Y638467D01*
G01X543408Y629846D01*
G01X536762Y623201D01*
G01X527962Y618711D01*
G01X519161Y618890D01*
G01X510540Y623201D01*
G01X506050Y627691D01*
G01X501739Y636312D01*
G01X501560Y645112D01*
G01X506050Y653913D01*
G01X512695Y660559D01*
G01X521316Y664869D01*
G01X525807Y664689D01*
G01X532272Y662534D01*
G01X1845313Y-1053299D02*
G01X1838963Y-1056347D01*
G01X1832867Y-1062697D01*
G01X1829819Y-1068793D01*
G01X1829819Y-1081239D01*
G01X1832867Y-1087335D01*
G01X1838963Y-1093685D01*
G01X1845313Y-1096733D01*
G01X1854457Y-1099781D01*
G01X1869951Y-1099781D01*
G01X1879349Y-1096733D01*
G01X1885445Y-1093685D01*
G01X1891795Y-1087335D01*
G01X1894843Y-1081239D01*
G01X1894843Y-1068793D01*
G01X1891795Y-1062697D01*
G01X1885445Y-1056347D01*
G01X1879349Y-1053299D01*
G01X1842265Y-1023073D02*
G01X1838963Y-1016977D01*
G01X1829819Y-1007833D01*
G01X1894843Y-1007833D01*
G01X1842265Y-977607D02*
G01X1838963Y-971511D01*
G01X1829819Y-962367D01*
G01X1894843Y-962367D01*
G01X1418789Y900599D02*
G01X1412144Y902934D01*
G01X1403343Y902754D01*
G01X1396877Y900599D01*
G01X1388077Y891798D01*
G01X1385921Y885333D01*
G01X1385742Y876532D01*
G01X1388077Y869887D01*
G01X1392387Y861266D01*
G01X1403343Y850310D01*
G01X1412144Y845820D01*
G01X1418609Y843664D01*
G01X1427590Y843664D01*
G01X1434055Y845820D01*
G01X1442856Y854620D01*
G01X1445011Y861086D01*
G01X1445011Y870066D01*
G01X1442856Y876532D01*
G01X1442317Y924127D02*
G01X1440162Y926283D01*
G01X1437827Y932928D01*
G01X1437827Y937239D01*
G01X1439982Y943704D01*
G01X1448783Y952505D01*
G01X1455428Y954840D01*
G01X1459739Y954840D01*
G01X1466384Y952505D01*
G01X1470695Y948194D01*
G01X1472850Y941729D01*
G01X1475005Y930593D01*
G01X1475185Y886949D01*
G01X1505718Y917482D01*
G01X1494223Y997945D02*
G01X1489733Y989144D01*
G01X1492068Y978189D01*
G01X1500689Y965257D01*
G01X1507334Y958612D01*
G01X1520446Y949811D01*
G01X1531401Y947476D01*
G01X1540202Y951966D01*
G01X1544513Y956277D01*
G01X1549003Y965077D01*
G01X1546668Y976033D01*
G01X1537867Y989144D01*
G01X1531222Y995790D01*
G01X1518290Y1004411D01*
G01X1507334Y1006746D01*
G01X1498534Y1002256D01*
G01X1494223Y997945D01*
G01X1173576Y2129560D02*
G01X1127598Y2083582D01*
G01X1127598Y2083582D02*
G01X1153820Y2057359D01*
G01X1221172Y2081965D02*
G01X1175193Y2035986D01*
G01X1221172Y2081965D02*
G01X1249549Y2053588D01*
G01X1199260Y2060053D02*
G01X1216682Y2042632D01*
G01X1175193Y2035986D02*
G01X1203571Y2007609D01*
G01X1270922Y2032215D02*
G01X1224944Y1986236D01*
G01X1270922Y2032215D02*
G01X1286189Y2016948D01*
G01X1290499Y2008327D01*
G01X1290679Y1999526D01*
G01X1288344Y1992881D01*
G01X1284034Y1984260D01*
G01X1273078Y1973304D01*
G01X1264277Y1968814D01*
G01X1257811Y1966659D01*
G01X1248831Y1966659D01*
G01X1240210Y1970969D01*
G01X1224944Y1986236D01*
G01X1314028Y1971508D02*
G01X1320673Y1969532D01*
G01X1333605Y1969532D01*
G01X1287626Y1923553D01*
G01X948246Y2334659D02*
G01X902267Y2288680D01*
G01X948246Y2334659D02*
G01X968003Y2314902D01*
G01X972313Y2306281D01*
G01X972313Y2301970D01*
G01X970158Y2295146D01*
G01X965847Y2290835D01*
G01X959202Y2288859D01*
G01X954891Y2288859D01*
G01X946091Y2292990D01*
G01X926334Y2312747D01*
G01X941601Y2297480D02*
G01X932980Y2257967D01*
G01X991531Y2273772D02*
G01X998176Y2271797D01*
G01X1011108Y2271797D01*
G01X965129Y2225818D01*
G01X1054213Y2228692D02*
G01X1001948Y2219891D01*
G01X1034636Y2187203D01*
G01X1054213Y2228692D02*
G01X1008234Y2182713D01*
G01X1757096Y-347250D02*
G01X1822120Y-347250D01*
G01X1822120Y-347250D02*
G01X1822120Y-310166D01*
G01X1769542Y-279940D02*
G01X1766240Y-273844D01*
G01X1757096Y-264700D01*
G01X1822120Y-264700D01*
G01X-2052930Y1023089D02*
G01X-2050595Y1029734D01*
G01X-2050774Y1038535D01*
G01X-2052930Y1045000D01*
G01X-2061730Y1053801D01*
G01X-2068196Y1055956D01*
G01X-2076997Y1056136D01*
G01X-2083642Y1053801D01*
G01X-2092263Y1049491D01*
G01X-2103219Y1038535D01*
G01X-2107709Y1029734D01*
G01X-2109865Y1023268D01*
G01X-2109865Y1014288D01*
G01X-2107709Y1007822D01*
G01X-2098909Y999022D01*
G01X-2092443Y996866D01*
G01X-2083463Y996866D01*
G01X-2076997Y999022D01*
G01X-2029401Y1003871D02*
G01X-2022756Y1001895D01*
G01X-2009825Y1001895D01*
G01X-2055803Y955916D01*
G01X-1957919Y949989D02*
G01X-2025809Y925922D01*
G01X-1988451Y980522D02*
G01X-1957919Y949989D01*
G01X-1255121Y-1696048D02*
G01X-1261767Y-1693713D01*
G01X-1270567Y-1693893D01*
G01X-1277033Y-1696048D01*
G01X-1285834Y-1704849D01*
G01X-1287989Y-1711314D01*
G01X-1288169Y-1720115D01*
G01X-1285834Y-1726761D01*
G01X-1281523Y-1735382D01*
G01X-1270567Y-1746337D01*
G01X-1261767Y-1750828D01*
G01X-1255301Y-1752983D01*
G01X-1246321Y-1752983D01*
G01X-1239855Y-1750828D01*
G01X-1231054Y-1742027D01*
G01X-1228899Y-1735561D01*
G01X-1228899Y-1726581D01*
G01X-1231054Y-1720115D01*
G01X-1231593Y-1672520D02*
G01X-1233748Y-1670365D01*
G01X-1236083Y-1663719D01*
G01X-1236083Y-1659409D01*
G01X-1233928Y-1652943D01*
G01X-1225127Y-1644142D01*
G01X-1218482Y-1641807D01*
G01X-1214171Y-1641807D01*
G01X-1207526Y-1644142D01*
G01X-1203215Y-1648453D01*
G01X-1201060Y-1654918D01*
G01X-1198905Y-1666054D01*
G01X-1198725Y-1709698D01*
G01X-1168192Y-1679165D01*
G01X-1179687Y-1620614D02*
G01X-1181842Y-1618459D01*
G01X-1184177Y-1611813D01*
G01X-1184177Y-1607503D01*
G01X-1182022Y-1601037D01*
G01X-1173221Y-1592236D01*
G01X-1166576Y-1589901D01*
G01X-1162265Y-1589901D01*
G01X-1155620Y-1592236D01*
G01X-1151309Y-1596547D01*
G01X-1149154Y-1603013D01*
G01X-1146999Y-1614148D01*
G01X-1146819Y-1657792D01*
G01X-1116286Y-1627259D01*
G04 Text End*

G04 PolygonModel Start*
G01X1010504Y-718988D02*
G01X910802Y-818691D01*
G01X1038591Y-946480D02*
G01X1138293Y-846777D01*
G01X1138293Y-825225D02*
G01X1032057Y-718988D01*
G01X754362Y-975130D02*
G01X854064Y-875428D01*
G01X981853Y-1003217D02*
G01X882151Y-1102919D01*
G01X860598Y-1102919D02*
G01X754362Y-996683D01*
G01X1138293Y-846777D02*
G03X1138293Y-825225I-10776J10776D01*
G01X1032057Y-718988D02*
G03X1010504Y-718988I-10776J-10776D01*
G01X882151Y-1102919D02*
G02X860598Y-1102919I-10776J10776D01*
G01X754362Y-996683D02*
G02X754362Y-975130I10776J10776D01*
G54D11*
G01X840845Y-855542D02*
G01X784278Y-912109D01*
G01X880507Y-815945D02*
G01X937074Y-759378D01*
G01X740458Y-755156D02*
G01X683891Y-811722D01*
G01X780122Y-715560D02*
G01X836689Y-658993D01*
G01X740467Y-912104D02*
G01X683895Y-855532D01*
G01X880503Y-658999D02*
G01X937074Y-715569D01*
G01X836685Y-658997D02*
G02X880503Y-658999I21908J-21908D01*
G01X937070Y-715565D02*
G02X937070Y-759382I-21908J-21908D01*
G01X784282Y-912105D02*
G02X740467Y-912104I-21906J21910D01*
G01X683900Y-855537D02*
G02X683895Y-811719I21905J21912D01*
G01X1365113Y-309762D02*
G01X1308547Y-253196D01*
G01X1404711Y-349424D02*
G01X1461277Y-405991D01*
G01X1465500Y-209376D02*
G01X1408933Y-152809D01*
G01X1505096Y-249040D02*
G01X1561662Y-305606D01*
G01X1308552Y-209385D02*
G01X1365124Y-152813D01*
G01X1561657Y-349421D02*
G01X1505087Y-405991D01*
G01X1561659Y-305603D02*
G02X1561657Y-349421I-21908J-21908D01*
G01X1505090Y-405987D02*
G02X1461274Y-405987I-21908J21908D01*
G01X1308550Y-253199D02*
G02X1308552Y-209385I21910J21906D01*
G01X1365119Y-152818D02*
G02X1408937Y-152813I21912J-21905D01*
G54D10*
G01X2249164Y910225D02*
G01X2249164Y761726D01*
G01X2467686Y761726D02*
G01X2467686Y910225D01*
G01X2452446Y925465D02*
G01X2264404Y925465D01*
G01X2249164Y427986D02*
G01X2249164Y576484D01*
G01X2467686Y576484D02*
G01X2467686Y427986D01*
G01X2452446Y412746D02*
G01X2264404Y412746D01*
G01X2467686Y910225D02*
G03X2452446Y925465I-15240J0D01*
G01X2264404Y925465D02*
G03X2249164Y910225I0J-15240D01*
G01X2467686Y427986D02*
G02X2452446Y412746I-15240J0D01*
G01X2264404Y412746D02*
G02X2249164Y427986I0J15240D01*
G01X2002714Y910225D02*
G01X2002714Y761726D01*
G01X2221236Y761726D02*
G01X2221236Y910225D01*
G01X2205996Y925465D02*
G01X2017954Y925465D01*
G01X2002714Y427985D02*
G01X2002714Y576484D01*
G01X2221236Y576484D02*
G01X2221236Y427985D01*
G01X2205996Y412745D02*
G01X2017954Y412745D01*
G01X2221236Y910225D02*
G03X2205996Y925465I-15240J0D01*
G01X2017954Y925465D02*
G03X2002714Y910225I0J-15240D01*
G01X2221236Y427985D02*
G02X2205996Y412745I-15240J0D01*
G01X2017954Y412745D02*
G02X2002714Y427985I0J15240D01*
G54D11*
G01X1160662Y-298587D02*
G01X1104096Y-355153D01*
G01X1200324Y-258989D02*
G01X1256891Y-202423D01*
G01X1060276Y-198200D02*
G01X1003709Y-254767D01*
G01X1099940Y-158604D02*
G01X1156506Y-102038D01*
G01X1060285Y-355148D02*
G01X1003713Y-298576D01*
G01X1200321Y-102043D02*
G01X1256891Y-158613D01*
G01X1156503Y-102041D02*
G02X1200321Y-102043I21908J-21908D01*
G01X1256887Y-158610D02*
G02X1256887Y-202426I-21908J-21908D01*
G01X1104099Y-355150D02*
G02X1060285Y-355148I-21906J21910D01*
G01X1003718Y-298581D02*
G02X1003713Y-254763I21905J21912D01*
G01X1593713Y-538362D02*
G01X1537147Y-481796D01*
G01X1633311Y-578024D02*
G01X1689877Y-634591D01*
G01X1694100Y-437976D02*
G01X1637533Y-381409D01*
G01X1733696Y-477640D02*
G01X1790262Y-534206D01*
G01X1537152Y-437985D02*
G01X1593724Y-381413D01*
G01X1790257Y-578021D02*
G01X1733687Y-634591D01*
G01X1790259Y-534203D02*
G02X1790257Y-578021I-21908J-21908D01*
G01X1733690Y-634587D02*
G02X1689874Y-634587I-21908J21908D01*
G01X1537150Y-481799D02*
G02X1537152Y-437985I21910J21906D01*
G01X1593719Y-381418D02*
G02X1637537Y-381413I21912J-21905D01*
G01X-401157Y294719D02*
G01X-401157Y374716D01*
G01X-401203Y238674D02*
G01X-401203Y158676D01*
G01X-259189Y294719D02*
G01X-259189Y374716D01*
G01X-259237Y238674D02*
G01X-259237Y158676D01*
G01X-370175Y405691D02*
G01X-290170Y405691D01*
G01X-290223Y127699D02*
G01X-370225Y127699D01*
G01X-259237Y158681D02*
G02X-290223Y127699I-30983J0D01*
G01X-370220Y127699D02*
G02X-401203Y158681I0J30983D01*
G01X-401157Y374711D02*
G02X-370175Y405691I30983J-3D01*
G01X-290177Y405691D02*
G02X-259189Y374711I5J-30983D01*
G01X-259243Y-78819D02*
G01X-259243Y-158816D01*
G01X-259197Y-22774D02*
G01X-259197Y57224D01*
G01X-401211Y-78819D02*
G01X-401211Y-158816D01*
G01X-401163Y-22774D02*
G01X-401163Y57224D01*
G01X-290225Y-189791D02*
G01X-370230Y-189791D01*
G01X-370177Y88202D02*
G01X-290175Y88202D01*
G01X-401163Y57219D02*
G02X-370177Y88202I30983J0D01*
G01X-290180Y88202D02*
G02X-259197Y57219I0J-30983D01*
G01X-259243Y-158811D02*
G02X-290225Y-189791I-30983J3D01*
G01X-370223Y-189791D02*
G02X-401211Y-158811I-5J30983D01*
G01X1963257Y645081D02*
G01X1963257Y565084D01*
G01X1963303Y701126D02*
G01X1963303Y781124D01*
G01X1821289Y645081D02*
G01X1821289Y565084D01*
G01X1821337Y701126D02*
G01X1821337Y781124D01*
G01X1932275Y534109D02*
G01X1852270Y534109D01*
G01X1852323Y812102D02*
G01X1932325Y812102D01*
G01X1821337Y781119D02*
G02X1852323Y812102I30983J0D01*
G01X1932320Y812102D02*
G02X1963303Y781119I0J-30983D01*
G01X1963257Y565089D02*
G02X1932275Y534109I-30983J3D01*
G01X1852277Y534109D02*
G02X1821289Y565089I-5J30983D01*
G01X784923Y534037D02*
G01X841490Y590604D01*
G01X745261Y494440D02*
G01X688694Y437873D01*
G01X885310Y433650D02*
G01X941876Y490217D01*
G01X845646Y394055D02*
G01X789079Y337488D01*
G01X885301Y590598D02*
G01X941873Y534026D01*
G01X745265Y337493D02*
G01X688694Y394064D01*
G01X789083Y337492D02*
G02X745265Y337493I-21908J21908D01*
G01X688698Y394060D02*
G02X688698Y437877I21908J21908D01*
G01X841486Y590600D02*
G02X885301Y590598I21906J-21910D01*
G01X941867Y534032D02*
G02X941873Y490213I-21905J-21912D01*
G01X1163438Y857387D02*
G01X1220004Y913953D01*
G01X1123776Y817789D02*
G01X1067209Y761223D01*
G01X1263824Y757000D02*
G01X1320391Y813567D01*
G01X1224160Y717404D02*
G01X1167594Y660838D01*
G01X1263815Y913948D02*
G01X1320387Y857376D01*
G01X1123779Y660843D02*
G01X1067209Y717413D01*
G01X1167597Y660841D02*
G02X1123779Y660843I-21908J21908D01*
G01X1067213Y717410D02*
G02X1067213Y761226I21908J21908D01*
G01X1220001Y913950D02*
G02X1263815Y913948I21906J-21910D01*
G01X1320382Y857381D02*
G02X1320387Y813563I-21905J-21912D01*
G54D10*
G01X770362Y882544D02*
G01X875366Y987548D01*
G01X720848Y1142066D02*
G01X615844Y1037062D01*
G01X615844Y1015509D02*
G01X748809Y882544D01*
G01X1111356Y1223538D02*
G01X1006352Y1118534D01*
G01X851834Y1273052D02*
G01X956838Y1378056D01*
G01X978391Y1378056D02*
G01X1111356Y1245091D01*
G01X615844Y1037062D02*
G03X615844Y1015509I10776J-10776D01*
G01X748809Y882544D02*
G03X770362Y882544I10776J10776D01*
G01X956838Y1378056D02*
G02X978391Y1378056I10776J-10776D01*
G01X1111356Y1245091D02*
G02X1111356Y1223538I-10776J-10776D01*
G01X948162Y704744D02*
G01X1053166Y809748D01*
G01X898648Y964266D02*
G01X793644Y859262D01*
G01X793644Y837709D02*
G01X926609Y704744D01*
G01X1289156Y1045738D02*
G01X1184152Y940734D01*
G01X1029634Y1095252D02*
G01X1134638Y1200256D01*
G01X1156191Y1200256D02*
G01X1289156Y1067291D01*
G01X793644Y859262D02*
G03X793644Y837709I10776J-10776D01*
G01X926609Y704744D02*
G03X948162Y704744I10776J10776D01*
G01X1134638Y1200256D02*
G02X1156191Y1200256I10776J-10776D01*
G01X1289156Y1067291D02*
G02X1289156Y1045738I-10776J-10776D01*
G54D11*
G01X1452762Y-19187D02*
G01X1396196Y-75753D01*
G01X1492424Y20411D02*
G01X1548991Y76977D01*
G01X1352376Y81200D02*
G01X1295809Y24633D01*
G01X1392040Y120796D02*
G01X1448606Y177362D01*
G01X1352385Y-75748D02*
G01X1295813Y-19176D01*
G01X1492421Y177357D02*
G01X1548991Y120787D01*
G01X1448603Y177359D02*
G02X1492421Y177357I21908J-21908D01*
G01X1548987Y120790D02*
G02X1548987Y76974I-21908J-21908D01*
G01X1396199Y-75750D02*
G02X1352385Y-75748I-21906J21910D01*
G01X1295818Y-19181D02*
G02X1295813Y24637I21905J21912D01*
G54D10*
G01X1157571Y-866055D02*
G01X1057869Y-965758D01*
G01X1185658Y-1093547D02*
G01X1285360Y-993844D01*
G01X1285360Y-972292D02*
G01X1179124Y-866055D01*
G01X901429Y-1122198D02*
G01X1001131Y-1022495D01*
G01X1128920Y-1150284D02*
G01X1029218Y-1249987D01*
G01X1007665Y-1249987D02*
G01X901429Y-1143750D01*
G01X1285360Y-993844D02*
G03X1285360Y-972292I-10776J10776D01*
G01X1179124Y-866055D02*
G03X1157571Y-866055I-10776J-10776D01*
G01X1029218Y-1249987D02*
G02X1007665Y-1249987I-10776J10776D01*
G01X901429Y-1143750D02*
G02X901429Y-1122198I10776J10776D01*
G01X954159Y-1424D02*
G01X1078076Y-125341D01*
G01X1034981Y-175508D02*
G01X1229608Y19119D01*
G01X903992Y-44519D02*
G01X1098619Y150108D01*
G01X1098619Y150108D02*
G01X1112269Y136458D01*
G01X1229608Y19119D02*
G01X1215958Y32769D01*
G36*
G01X903995Y-33743D02*
G01X926622Y-56369D01*
G01X905069Y-77922D01*
G01X882443Y-55295D01*
G01X903995Y-33743D01*
G37*
G36*
G01X1045757Y-175505D02*
G01X1024205Y-197057D01*
G01X1001578Y-174431D01*
G01X1023131Y-152878D01*
G01X1045757Y-175505D01*
G37*
G54D12*
G01X-636772Y1419157D02*
G01X-639590Y1416339D01*
G01X-639590Y1416339D02*
G01X-770747Y1547496D01*
G01X-546970Y1508960D02*
G01X-558263Y1497666D01*
G01X-457167Y1598762D02*
G01X-468461Y1587469D01*
G01X-367364Y1688565D02*
G01X-378658Y1677271D01*
G01X-860215Y1636964D02*
G01X-1056782Y1833531D01*
G01X-1056782Y1833531D02*
G01X-1053964Y1836349D01*
G01X-706048Y2184266D02*
G01X-703230Y2187084D01*
G01X-975455Y1914858D02*
G01X-784557Y2105757D01*
G01X-417194Y1901049D02*
G01X-244985Y1728840D01*
G01X-286037Y1769892D02*
G01X-288855Y1767074D01*
G01X-703230Y2187084D02*
G01X-506663Y1990517D01*
G54D10*
G01X-331960Y1641865D02*
G01X-432011Y1741916D01*
G54D12*
G01X339086Y1356681D02*
G01X336268Y1353863D01*
G01X336268Y1353863D02*
G01X205112Y1485019D01*
G01X428889Y1446483D02*
G01X417595Y1435190D01*
G01X518691Y1536286D02*
G01X507398Y1524992D01*
G01X608494Y1626088D02*
G01X597200Y1614795D01*
G01X115643Y1574488D02*
G01X-80924Y1771055D01*
G01X-80924Y1771055D02*
G01X-78106Y1773873D01*
G01X269811Y2121789D02*
G01X272629Y2124607D01*
G01X403Y1852382D02*
G01X191302Y2043280D01*
G01X558664Y1838572D02*
G01X730873Y1666363D01*
G01X689821Y1707415D02*
G01X687003Y1704597D01*
G01X272629Y2124607D02*
G01X469196Y1928040D01*
G54D10*
G01X643899Y1579388D02*
G01X543848Y1679439D01*
G54D12*
G01X-1381057Y-636772D02*
G01X-1378239Y-639590D01*
G01X-1378239Y-639590D02*
G01X-1509396Y-770747D01*
G01X-1470860Y-546970D02*
G01X-1459566Y-558263D01*
G01X-1560662Y-457167D02*
G01X-1549369Y-468461D01*
G01X-1650465Y-367364D02*
G01X-1639171Y-378658D01*
G01X-1598864Y-860215D02*
G01X-1795431Y-1056782D01*
G01X-1795431Y-1056782D02*
G01X-1798249Y-1053964D01*
G01X-2146166Y-706048D02*
G01X-2148984Y-703230D01*
G01X-1876758Y-975455D02*
G01X-2067657Y-784557D01*
G01X-1862949Y-417194D02*
G01X-1690740Y-244985D01*
G01X-1731792Y-286037D02*
G01X-1728974Y-288855D01*
G01X-2148984Y-703230D02*
G01X-1952417Y-506663D01*
G54D10*
G01X-1603765Y-331960D02*
G01X-1703816Y-432011D01*
G54D12*
G01X-1242381Y351786D02*
G01X-1239563Y348968D01*
G01X-1239563Y348968D02*
G01X-1370719Y217812D01*
G01X-1332183Y441589D02*
G01X-1320890Y430295D01*
G01X-1421986Y531391D02*
G01X-1410692Y520098D01*
G01X-1511788Y621194D02*
G01X-1500495Y609900D01*
G01X-1460188Y128343D02*
G01X-1656755Y-68224D01*
G01X-1656755Y-68224D02*
G01X-1659573Y-65406D01*
G01X-2007489Y282511D02*
G01X-2010307Y285329D01*
G01X-1738082Y13103D02*
G01X-1928980Y204002D01*
G01X-1724272Y571364D02*
G01X-1552063Y743573D01*
G01X-1593115Y702521D02*
G01X-1590297Y699703D01*
G01X-2010307Y285329D02*
G01X-1813740Y481896D01*
G54D10*
G01X-1465088Y656599D02*
G01X-1565139Y556548D01*
G54D12*
G01X635749Y-1103699D02*
G01X638567Y-1100881D01*
G01X638567Y-1100881D02*
G01X769723Y-1232038D01*
G01X545946Y-1193501D02*
G01X557240Y-1182208D01*
G01X456144Y-1283304D02*
G01X467437Y-1272010D01*
G01X366341Y-1373107D02*
G01X377635Y-1361813D01*
G01X859192Y-1321506D02*
G01X1055759Y-1518073D01*
G01X1055759Y-1518073D02*
G01X1052941Y-1520891D01*
G01X705024Y-1868808D02*
G01X702206Y-1871626D01*
G01X974432Y-1599400D02*
G01X783533Y-1790299D01*
G01X416171Y-1585590D02*
G01X243962Y-1413381D01*
G01X285014Y-1454434D02*
G01X287832Y-1451616D01*
G01X702206Y-1871626D02*
G01X505639Y-1675059D01*
G54D10*
G01X330936Y-1326407D02*
G01X430987Y-1426457D01*
G54D12*
G01X-567207Y-913199D02*
G01X-564389Y-910381D01*
G01X-564389Y-910381D02*
G01X-433232Y-1041538D01*
G01X-657010Y-1003001D02*
G01X-645716Y-991708D01*
G01X-746812Y-1092804D02*
G01X-735518Y-1081510D01*
G01X-836615Y-1182607D02*
G01X-825321Y-1171313D01*
G01X-343764Y-1131006D02*
G01X-147197Y-1327573D01*
G01X-147197Y-1327573D02*
G01X-150015Y-1330391D01*
G01X-497931Y-1678308D02*
G01X-500749Y-1681126D01*
G01X-228524Y-1408900D02*
G01X-419422Y-1599799D01*
G01X-786785Y-1395090D02*
G01X-958994Y-1222881D01*
G01X-917942Y-1263934D02*
G01X-915124Y-1261116D01*
G01X-500749Y-1681126D02*
G01X-697316Y-1484559D01*
G54D10*
G01X-872019Y-1135907D02*
G01X-771968Y-1235957D01*
G01X760757Y-534049D02*
G01X828559Y-601852D01*
G01X828559Y-601852D02*
G01X921983Y-508429D01*
G01X921983Y-508429D02*
G01X854180Y-440626D01*
G01X700481Y-473774D02*
G01X632679Y-405971D01*
G01X632679Y-405971D02*
G01X726102Y-312548D01*
G01X726102Y-312548D02*
G01X793905Y-380351D01*
G01X913146Y-261109D02*
G01X845344Y-193306D01*
G01X845344Y-193306D02*
G01X751920Y-286729D01*
G01X751920Y-286729D02*
G01X819723Y-354532D01*
G01X973422Y-321384D02*
G01X1041225Y-389187D01*
G01X1041225Y-389187D02*
G01X947801Y-482610D01*
G01X947801Y-482610D02*
G01X879999Y-414808D01*
G01X1636864Y-137904D02*
G01X1704667Y-205707D01*
G01X1704667Y-205707D02*
G01X1798090Y-112283D01*
G01X1798090Y-112283D02*
G01X1730288Y-44481D01*
G01X1576589Y-77628D02*
G01X1508786Y-9826D01*
G01X1508786Y-9826D02*
G01X1602209Y83598D01*
G01X1602209Y83598D02*
G01X1670012Y15795D01*
G01X1532826Y-241949D02*
G01X1600629Y-309752D01*
G01X1600629Y-309752D02*
G01X1694052Y-216329D01*
G01X1694052Y-216329D02*
G01X1626249Y-148526D01*
G01X1472551Y-181674D02*
G01X1404748Y-113871D01*
G01X1404748Y-113871D02*
G01X1498171Y-20448D01*
G01X1498171Y-20448D02*
G01X1565974Y-88251D01*
G01X1002744Y328987D02*
G01X1070546Y396789D01*
G01X1070546Y396789D02*
G01X977123Y490213D01*
G01X977123Y490213D02*
G01X909320Y422410D01*
G01X942468Y268711D02*
G01X874665Y200908D01*
G01X874665Y200908D02*
G01X781242Y294332D01*
G01X781242Y294332D02*
G01X849045Y362135D01*
G01X956502Y254678D02*
G01X888699Y186875D01*
G01X888699Y186875D02*
G01X982122Y93452D01*
G01X982122Y93452D02*
G01X1049925Y161254D01*
G01X1016777Y314953D02*
G01X1084580Y382756D01*
G01X1084580Y382756D02*
G01X1178003Y289333D01*
G01X1178003Y289333D02*
G01X1110200Y221530D01*
G01X773650Y558080D02*
G01X841453Y625883D01*
G01X841453Y625883D02*
G01X748030Y719306D01*
G01X748030Y719306D02*
G01X680227Y651503D01*
G01X713375Y497804D02*
G01X645572Y430002D01*
G01X645572Y430002D02*
G01X552149Y523425D01*
G01X552149Y523425D02*
G01X619952Y591228D01*
G01X1694452Y302015D02*
G01X1762255Y234213D01*
G01X1762255Y234213D02*
G01X1855678Y327636D01*
G01X1855678Y327636D02*
G01X1787876Y395439D01*
G01X1634177Y362291D02*
G01X1566374Y430094D01*
G01X1566374Y430094D02*
G01X1659798Y523517D01*
G01X1659798Y523517D02*
G01X1727600Y455714D01*
G01X1578684Y187034D02*
G01X1646487Y119231D01*
G01X1646487Y119231D02*
G01X1739910Y212655D01*
G01X1739910Y212655D02*
G01X1672108Y280457D01*
G01X1518409Y247309D02*
G01X1450606Y315112D01*
G01X1450606Y315112D02*
G01X1544029Y408536D01*
G01X1544029Y408536D02*
G01X1611832Y340733D01*
G54D11*
G01X1144636Y-661663D02*
G01X1140204Y-657230D01*
G01X1271917Y-788943D02*
G01X1230357Y-747383D01*
G01X1369143Y-886169D02*
G01X1357637Y-874664D01*
G01X1437310Y-941200D02*
G01X1430742Y-947768D01*
G01X1430742Y-947768D02*
G01X1430115Y-947141D01*
G01X1582266Y-796244D02*
G01X1565455Y-813055D01*
G01X1644562Y-733948D02*
G01X1643238Y-735272D01*
G01X1643935Y-733321D02*
G01X1644562Y-733948D01*
G01X1444177Y-533563D02*
G01X1475130Y-564516D01*
G01X1354024Y-443410D02*
G01X1358456Y-447843D01*
G01X1276371Y-365758D02*
G01X1293051Y-382438D01*
G01X1271513Y-370616D02*
G01X1276371Y-365758D01*
G01X1079231Y-596258D02*
G01X1062552Y-579578D01*
G01X1062552Y-579578D02*
G01X1069116Y-573013D01*
G36*
G01X990715Y-597540D02*
G02X1044596Y-651422I26941J-26941D01*
G02X990715Y-597540I-26941J26941D01*
G37*
G54D10*
G01X-157632Y108062D02*
G01X-157632Y157632D01*
G01X-157632Y157632D02*
G01X-108062Y157632D01*
G01X157607Y108062D02*
G01X157607Y157632D01*
G01X157607Y157632D02*
G01X108036Y157632D01*
G01X-157632Y-108036D02*
G01X-157632Y-157607D01*
G01X-157632Y-157607D02*
G01X-108062Y-157607D01*
G01X157607Y-108036D02*
G01X157607Y-157607D01*
G01X157607Y-157607D02*
G01X108036Y-157607D01*
G01X1306773Y413419D02*
G01X1371600Y348592D01*
G01X1371600Y348592D02*
G01X1413446Y390438D01*
G01X1529681Y636327D02*
G01X1594508Y571500D01*
G01X1594508Y571500D02*
G01X1552662Y529654D01*
G01X1213519Y506673D02*
G01X1148692Y571500D01*
G01X1148692Y571500D02*
G01X1190538Y613346D01*
G01X1436427Y729581D02*
G01X1371600Y794408D01*
G01X1371600Y794408D02*
G01X1329754Y752562D01*
G54D11*
G01X-439343Y-516925D02*
G01X-163283Y-792985D01*
G01X-476545Y-903987D02*
G01X-375415Y-1005117D01*
G01X-548468Y-832226D02*
G01X-651556Y-729138D01*
G01X-375415Y-1005117D02*
G01X-163283Y-792985D01*
G01X-651475Y-729057D02*
G01X-439343Y-516925D01*
G01X-476545Y-903987D02*
G03X-548468Y-832226I-35961J35881D01*
G36*
G01X-408025Y-943231D02*
G02X-350891Y-886096I28341J28794D01*
G02X-408025Y-943231I-28341J-28794D01*
G37*
G01X-643925Y439343D02*
G01X-919985Y163283D01*
G01X-1030987Y476545D02*
G01X-1132117Y375415D01*
G01X-959226Y548468D02*
G01X-856138Y651556D01*
G01X-1132117Y375415D02*
G01X-919985Y163283D01*
G01X-856057Y651475D02*
G01X-643925Y439343D01*
G01X-1030987Y476545D02*
G03X-959226Y548468I35881J35961D01*
G36*
G01X-1070231Y408025D02*
G02X-1013096Y350891I28794J-28341D01*
G02X-1070231Y408025I-28794J28341D01*
G37*
G01X210743Y656625D02*
G01X-65317Y932685D01*
G01X247945Y1043687D02*
G01X146815Y1144817D01*
G01X319868Y971926D02*
G01X422956Y868838D01*
G01X146815Y1144817D02*
G01X-65317Y932685D01*
G01X422875Y868757D02*
G01X210743Y656625D01*
G01X247945Y1043687D02*
G03X319868Y971926I35961J-35881D01*
G36*
G01X179425Y1082931D02*
G02X122291Y1025796I-28341J-28794D01*
G02X179425Y1082931I28341J28794D01*
G37*
G01X-437043Y238681D02*
G01X-437043Y158684D01*
G01X-436997Y294726D02*
G01X-436997Y374724D01*
G01X-579011Y238681D02*
G01X-579011Y158684D01*
G01X-578963Y294726D02*
G01X-578963Y374724D01*
G01X-468025Y127709D02*
G01X-548030Y127709D01*
G01X-547977Y405702D02*
G01X-467975Y405702D01*
G01X-578963Y374719D02*
G02X-547977Y405702I30983J0D01*
G01X-467980Y405702D02*
G02X-436997Y374719I0J-30983D01*
G01X-437043Y158689D02*
G02X-468025Y127709I-30983J3D01*
G01X-548023Y127709D02*
G02X-579011Y158689I-5J30983D01*
G01X679587Y881262D02*
G01X736153Y824696D01*
G01X639989Y920924D02*
G01X583423Y977491D01*
G01X579200Y780876D02*
G01X635767Y724309D01*
G01X539604Y820540D02*
G01X483038Y877106D01*
G01X736148Y780885D02*
G01X679576Y724313D01*
G01X483043Y920921D02*
G01X539613Y977491D01*
G01X483041Y877103D02*
G02X483043Y920921I21908J21908D01*
G01X539610Y977487D02*
G02X583426Y977487I21908J-21908D01*
G01X736150Y824699D02*
G02X736148Y780885I-21910J-21906D01*
G01X679581Y724318D02*
G02X635763Y724313I-21912J21905D01*
G01X-222113Y-426838D02*
G01X-165547Y-483404D01*
G01X-261711Y-387176D02*
G01X-318277Y-330609D01*
G01X-322500Y-527224D02*
G01X-265933Y-583791D01*
G01X-362096Y-487560D02*
G01X-418662Y-430994D01*
G01X-165552Y-527215D02*
G01X-222124Y-583787D01*
G01X-418657Y-387179D02*
G01X-362087Y-330609D01*
G01X-418659Y-430997D02*
G02X-418657Y-387179I21908J21908D01*
G01X-362090Y-330613D02*
G02X-318274Y-330613I21908J-21908D01*
G01X-165550Y-483401D02*
G02X-165552Y-527215I-21910J-21906D01*
G01X-222119Y-583782D02*
G02X-265937Y-583787I-21912J21905D01*
G01X2229503Y-918510D02*
G01X2229503Y-1042970D01*
G01X2296813Y-980740D02*
G01X2162193Y-980740D01*
G01X1949453Y-698256D02*
G03X1949453Y-691144I399985J3556D01*
G36*
G01X2649502Y-423509D02*
G01X2049503Y-423509D01*
G02X2649502Y-423509I299999J-314998D01*
G37*
G54D10*
G01X1807738Y1149456D02*
G01X1702734Y1044452D01*
G01X1857252Y889934D02*
G01X1962256Y994938D01*
G01X1962256Y1016491D02*
G01X1829291Y1149456D01*
G01X1466744Y808462D02*
G01X1571748Y913466D01*
G01X1726266Y758948D02*
G01X1621262Y653944D01*
G01X1599709Y653944D02*
G01X1466744Y786909D01*
G01X1962256Y994938D02*
G03X1962256Y1016491I-10776J10776D01*
G01X1829291Y1149456D02*
G03X1807738Y1149456I-10776J-10776D01*
G01X1621262Y653944D02*
G02X1599709Y653944I-10776J10776D01*
G01X1466744Y786909D02*
G02X1466744Y808462I10776J10776D01*
G54D13*
G01X1297633Y1787093D02*
G01X1304706Y1794166D01*
G01X1304706Y1794166D02*
G01X1304711Y1836591D01*
G01X1248141Y1737601D02*
G01X1241059Y1730519D01*
G01X1241059Y1730519D02*
G01X1198640Y1730519D01*
G01X1248141Y1737601D02*
G01X1297633Y1787093D01*
G01X986512Y1942665D02*
G01X1091157Y2047310D01*
G01X1223393Y1917909D02*
G01X1304711Y1836591D01*
G01X1117322Y1811837D02*
G01X1198640Y1730519D01*
G01X1180965Y1960337D02*
G01X1092574Y2048728D01*
G01X1074894Y1854265D02*
G01X986503Y1942656D01*
G01X1167096Y1922013D02*
G01X1113215Y1868131D01*
G01X1139703Y1894619D02*
G01X1157663Y1876659D01*
G54D10*
G01X901899Y2032155D02*
G01X969702Y1964353D01*
G01X969702Y1964353D02*
G01X1063125Y2057776D01*
G01X1063125Y2057776D02*
G01X995322Y2125579D01*
G01X841623Y2092431D02*
G01X773821Y2160233D01*
G01X773821Y2160233D02*
G01X867244Y2253657D01*
G01X867244Y2253657D02*
G01X935047Y2185854D01*
G54D11*
G01X1876730Y-164147D02*
G01X1876730Y172189D01*
G01X2476729Y-161928D02*
G01X2476729Y174409D01*
G54D10*
G01X-1804072Y634139D02*
G01X-1909077Y739144D01*
G01X-2063595Y584626D02*
G01X-1958590Y479621D01*
G01X-1937038Y479621D02*
G01X-1804072Y612587D01*
G01X-2145067Y975134D02*
G01X-2040063Y870130D01*
G01X-2194581Y715612D02*
G01X-2299585Y820616D01*
G01X-2299585Y842169D02*
G01X-2166620Y975134D01*
G01X-1958590Y479621D02*
G03X-1937038Y479621I10776J10776D01*
G01X-1804072Y612587D02*
G03X-1804072Y634139I-10776J10776D01*
G01X-2299585Y820616D02*
G02X-2299585Y842169I10776J10776D01*
G01X-2166620Y975134D02*
G02X-2145067Y975134I10776J-10776D01*
G01X12520Y2255561D02*
G01X-135979Y2255561D01*
G01X-135979Y2037039D02*
G01X12520Y2037039D01*
G01X27760Y2052279D02*
G01X27760Y2240321D01*
G01X-469720Y2255561D02*
G01X-321221Y2255561D01*
G01X-321221Y2037039D02*
G01X-469720Y2037039D01*
G01X-484960Y2052279D02*
G01X-484960Y2240321D01*
G01X12520Y2037039D02*
G03X27760Y2052279I0J15240D01*
G01X27760Y2240321D02*
G03X12520Y2255561I-15240J0D01*
G01X-469720Y2037039D02*
G02X-484960Y2052279I0J15240D01*
G01X-484960Y2240321D02*
G02X-469720Y2255561I15240J0D01*
G01X-866172Y-1447191D02*
G01X-971176Y-1552195D01*
G01X-816658Y-1706713D02*
G01X-711654Y-1601709D01*
G01X-711654Y-1580156D02*
G01X-844619Y-1447191D01*
G01X-1207167Y-1788185D02*
G01X-1102162Y-1683181D01*
G01X-947644Y-1837699D02*
G01X-1052649Y-1942703D01*
G01X-1074201Y-1942703D02*
G01X-1207167Y-1809738D01*
G01X-711654Y-1601709D02*
G03X-711654Y-1580156I-10776J10776D01*
G01X-844619Y-1447191D02*
G03X-866172Y-1447191I-10776J-10776D01*
G01X-1052649Y-1942703D02*
G02X-1074201Y-1942703I-10776J10776D01*
G01X-1207167Y-1809738D02*
G02X-1207167Y-1788185I10776J10776D01*
G01X16564Y1324457D02*
G01X112724Y1420617D01*
G01X112724Y1420617D02*
G01X-39883Y1573224D01*
G01X-39883Y1573224D02*
G01X-136043Y1477064D01*
G01X-117957Y1189936D02*
G01X-214117Y1093776D01*
G01X-214117Y1093776D02*
G01X-366724Y1246383D01*
G01X-366724Y1246383D02*
G01X-270564Y1342543D01*
G01X-1285671Y-37453D02*
G01X-1381831Y58707D01*
G01X-1381831Y58707D02*
G01X-1534438Y-93900D01*
G01X-1534438Y-93900D02*
G01X-1438277Y-190060D01*
G01X-1151150Y-171974D02*
G01X-1054989Y-268135D01*
G01X-1054989Y-268135D02*
G01X-1207596Y-420742D01*
G01X-1207596Y-420742D02*
G01X-1303757Y-324581D01*
G01X-92764Y-1057757D02*
G01X-188924Y-1153917D01*
G01X-188924Y-1153917D02*
G01X-36317Y-1306524D01*
G01X-36317Y-1306524D02*
G01X59843Y-1210364D01*
G01X41757Y-923236D02*
G01X137917Y-827076D01*
G01X137917Y-827076D02*
G01X290524Y-979683D01*
G01X290524Y-979683D02*
G01X194364Y-1075843D01*

G04 Circle Start*
G54D11*
G01X-787425Y13D02*
G03X787400Y13I787413J0D01*
G03X-787425Y13I-787413J0D01*
G01X172312Y-810755D02*
G03X197712Y-810755I12700J0D01*
G03X172312Y-810755I-12700J0D01*
G54D14*
G01X-635454Y1388060D02*
G03X-615439Y1388060I10008J0D01*
G03X-635454Y1388060I-10008J0D01*
G01X340405Y1325584D02*
G03X360420Y1325584I10008J0D01*
G03X340405Y1325584I-10008J0D01*
G01X-1359968Y-625446D02*
G03X-1339953Y-625446I10008J0D01*
G03X-1359968Y-625446I-10008J0D01*
G01X-1221291Y363112D02*
G03X-1201276Y363112I10008J0D01*
G03X-1221291Y363112I-10008J0D01*
G01X614415Y-1072602D02*
G03X634430Y-1072602I10008J0D01*
G03X614415Y-1072602I-10008J0D01*
G01X-588540Y-882102D02*
G03X-568525Y-882102I10008J0D01*
G03X-588540Y-882102I-10008J0D01*
G54D13*
G01X-83706Y-215887D02*
G03X-68720Y-215887I7493J0D01*
G03X-83706Y-215887I-7493J0D01*
G54D14*
G01X1523506Y686753D02*
G03X1543522Y686753I10008J0D01*
G03X1523506Y686753I-10008J0D01*
G54D11*
G01X-871035Y-723236D02*
G03X-845635Y-723236I12700J0D01*
G03X-871035Y-723236I-12700J0D01*
G01X-241068Y1042507D02*
G03X-215668Y1042507I12700J0D01*
G03X-241068Y1042507I-12700J0D01*
G01X2401900Y-696100D02*
G03X2427300Y-696100I12700J0D01*
G03X2401900Y-696100I-12700J0D01*
G01X2401900Y-1039000D02*
G03X2427300Y-1039000I12700J0D01*
G03X2401900Y-1039000I-12700J0D01*
G04 Circle End*

M02*

