G04 Layer: InnerLayer1*
G04 EasyEDA Pro v3.2.69, 2026-03-27 19:08:31*
G04 Gerber Generator version 0.3*
G04 Scale: 100 percent, Rotated: No, Reflected: No*
G04 Dimensions in millimeters*
G04 Leading zeros omitted, absolute positions, 4 integers and 5 decimals*
G04 Generated by one-click*
%FSLAX45Y45*%
%MOMM*%
%ADD10C,0.2032*%
%ADD11C,5.5*%
%ADD12C,1.6*%
%ADD13C,0.508*%
%ADD14C,0.6096*%
%ADD15C,0.2552*%
%ADD16C,0.254*%
G75*


G04 Copper Start*
G36*
G01X-953947Y2248765D02*
G01X696193Y2248765D01*
G01X687540Y2237078D01*
G01X682179Y2223561D01*
G01X680470Y2209120D01*
G01X682528Y2194725D01*
G01X688215Y2181341D01*
G01X697148Y2169868D01*
G01X708729Y2161074D01*
G01X722181Y2155550D01*
G01X736600Y2153666D01*
G01X751019Y2155550D01*
G01X764471Y2161074D01*
G01X776052Y2169868D01*
G01X784985Y2181341D01*
G01X790672Y2194725D01*
G01X792730Y2209120D01*
G01X791021Y2223561D01*
G01X785660Y2237078D01*
G01X777007Y2248765D01*
G01X953946Y2248765D01*
G01X1043751Y2208516D01*
G01X1131862Y2164681D01*
G01X1218136Y2117334D01*
G01X1302433Y2066549D01*
G01X1318878Y2046495D01*
G01X1332434Y2024385D01*
G01X1342847Y2000632D01*
G01X1349922Y1975681D01*
G01X1353527Y1949997D01*
G01X1353594Y1924062D01*
G01X1350123Y1898361D01*
G01X1343177Y1873373D01*
G01X1332888Y1849566D01*
G01X1319447Y1827386D01*
G01X1303106Y1807247D01*
G01X1278536Y1779862D01*
G01X1256960Y1750062D01*
G01X1238613Y1718172D01*
G01X1223696Y1684541D01*
G01X1212372Y1649536D01*
G01X1204764Y1613540D01*
G01X1200956Y1576947D01*
G01X1200989Y1540156D01*
G01X1204864Y1503569D01*
G01X1212537Y1467587D01*
G01X1223925Y1432603D01*
G01X1238903Y1398999D01*
G01X1257308Y1367143D01*
G01X1278939Y1337382D01*
G01X1303558Y1310042D01*
G01X1330897Y1285422D01*
G01X1360657Y1263791D01*
G01X1392514Y1245385D01*
G01X1426117Y1230406D01*
G01X1461101Y1219017D01*
G01X1497083Y1211343D01*
G01X1533669Y1207468D01*
G01X1570460Y1207433D01*
G01X1607054Y1211240D01*
G01X1643050Y1218847D01*
G01X1678055Y1230171D01*
G01X1711687Y1245087D01*
G01X1743577Y1263433D01*
G01X1773378Y1285009D01*
G01X1800763Y1309578D01*
G01X1821564Y1326368D01*
G01X1844518Y1340069D01*
G01X1869169Y1350409D01*
G01X1895028Y1357183D01*
G01X1921583Y1360256D01*
G01X1948306Y1359567D01*
G01X1974668Y1355131D01*
G01X2000144Y1347035D01*
G01X2024230Y1335440D01*
G01X2046448Y1320576D01*
G01X2066358Y1302737D01*
G01X2109825Y1231095D01*
G01X2150810Y1158004D01*
G01X2189264Y1083550D01*
G01X2195072Y1075041D01*
G01X2202998Y1068458D01*
G01X2212429Y1064310D01*
G01X2222637Y1062916D01*
G01X2399986Y1062916D01*
G01X2419596Y1061203D01*
G01X2438610Y1056110D01*
G01X2456450Y1047793D01*
G01X2472575Y1036504D01*
G01X2486495Y1022586D01*
G01X2497786Y1006462D01*
G01X2506105Y988623D01*
G01X2511200Y969609D01*
G01X2512916Y950000D01*
G01X2512916Y-949986D01*
G01X2511202Y-969595D01*
G01X2506110Y-988609D01*
G01X2497792Y-1006450D01*
G01X2486503Y-1022575D01*
G01X2472585Y-1036494D01*
G01X2456462Y-1047785D01*
G01X2438622Y-1056105D01*
G01X2419609Y-1061200D01*
G01X2400000Y-1062915D01*
G01X2222701Y-1062916D01*
G01X2221464Y-1062937D01*
G01X2211463Y-1064669D01*
G01X2202303Y-1069042D01*
G01X2194667Y-1075729D01*
G01X2189124Y-1084233D01*
G01X2189124Y-1084233D01*
G01X2150921Y-1158174D01*
G01X2110220Y-1230771D01*
G01X2067071Y-1301940D01*
G01X2067071Y-1301940D01*
G01X2047026Y-1318499D01*
G01X2024905Y-1332161D01*
G01X2001123Y-1342670D01*
G01X1976127Y-1349827D01*
G01X1950388Y-1353499D01*
G01X1924388Y-1353615D01*
G01X1898616Y-1350175D01*
G01X1873558Y-1343242D01*
G01X1849682Y-1332948D01*
G01X1827439Y-1319485D01*
G01X1807247Y-1303106D01*
G01X1779862Y-1278536D01*
G01X1750062Y-1256960D01*
G01X1718171Y-1238613D01*
G01X1684540Y-1223696D01*
G01X1649535Y-1212371D01*
G01X1613539Y-1204764D01*
G01X1576945Y-1200956D01*
G01X1540154Y-1200990D01*
G01X1503567Y-1204864D01*
G01X1467585Y-1212538D01*
G01X1432600Y-1223926D01*
G01X1398996Y-1238905D01*
G01X1367140Y-1257310D01*
G01X1337379Y-1278941D01*
G01X1310039Y-1303561D01*
G01X1285419Y-1330901D01*
G01X1263788Y-1360661D01*
G01X1245383Y-1392518D01*
G01X1230404Y-1426122D01*
G01X1219016Y-1461107D01*
G01X1211342Y-1497089D01*
G01X1207468Y-1533675D01*
G01X1207434Y-1570467D01*
G01X1211242Y-1607061D01*
G01X1218849Y-1643057D01*
G01X1230174Y-1678062D01*
G01X1245091Y-1711693D01*
G01X1263438Y-1743584D01*
G01X1285014Y-1773384D01*
G01X1309584Y-1800769D01*
G01X1325383Y-1820142D01*
G01X1338497Y-1841425D01*
G01X1348698Y-1864248D01*
G01X1355809Y-1888214D01*
G01X1359706Y-1912907D01*
G01X1360321Y-1937898D01*
G01X1357644Y-1962753D01*
G01X-1352184Y-1962753D01*
G01X-1353992Y-1938757D01*
G01X-1352746Y-1914726D01*
G01X-1348468Y-1891045D01*
G01X-1341225Y-1868097D01*
G01X-1331135Y-1846251D01*
G01X-1318360Y-1825858D01*
G01X-1303106Y-1807247D01*
G01X-1278536Y-1779862D01*
G01X-1256960Y-1750062D01*
G01X-1238613Y-1718171D01*
G01X-1223696Y-1684540D01*
G01X-1216954Y-1663700D01*
G01X248666Y-1663700D01*
G01X250579Y-1678229D01*
G01X256187Y-1691767D01*
G01X265107Y-1703393D01*
G01X276733Y-1712313D01*
G01X290271Y-1717921D01*
G01X304800Y-1719834D01*
G01X319329Y-1717921D01*
G01X332867Y-1712313D01*
G01X344493Y-1703393D01*
G01X353413Y-1691767D01*
G01X359021Y-1678229D01*
G01X360934Y-1663700D01*
G01X359021Y-1649171D01*
G01X353413Y-1635633D01*
G01X344493Y-1624007D01*
G01X332867Y-1615087D01*
G01X319329Y-1609479D01*
G01X304800Y-1607566D01*
G01X290271Y-1609479D01*
G01X276733Y-1615087D01*
G01X265107Y-1624007D01*
G01X256187Y-1635633D01*
G01X250579Y-1649171D01*
G01X248666Y-1663700D01*
G01X248666Y-1663700D01*
G01X-1216954Y-1663700D01*
G01X-1212371Y-1649535D01*
G01X-1204764Y-1613539D01*
G01X-1200956Y-1576945D01*
G01X-1200989Y-1540153D01*
G01X-1204864Y-1503567D01*
G01X-1212538Y-1467585D01*
G01X-1223926Y-1432600D01*
G01X-1238905Y-1398996D01*
G01X-1257310Y-1367139D01*
G01X-1278941Y-1337379D01*
G01X-1303561Y-1310039D01*
G01X-1319817Y-1295400D01*
G01X-1008634Y-1295400D01*
G01X-1006721Y-1309929D01*
G01X-1001113Y-1323467D01*
G01X-992193Y-1335093D01*
G01X-980567Y-1344013D01*
G01X-967029Y-1349621D01*
G01X-952500Y-1351534D01*
G01X-937971Y-1349621D01*
G01X-924433Y-1344013D01*
G01X-912807Y-1335093D01*
G01X-909970Y-1331395D01*
G01X369592Y-1331395D01*
G01X371504Y-1345924D01*
G01X377112Y-1359462D01*
G01X386033Y-1371088D01*
G01X397659Y-1380009D01*
G01X411197Y-1385616D01*
G01X425726Y-1387529D01*
G01X440254Y-1385616D01*
G01X453793Y-1380009D01*
G01X465418Y-1371088D01*
G01X474339Y-1359462D01*
G01X479947Y-1345924D01*
G01X481860Y-1331395D01*
G01X479947Y-1316867D01*
G01X474339Y-1303328D01*
G01X465418Y-1291702D01*
G01X453793Y-1282782D01*
G01X440254Y-1277174D01*
G01X425726Y-1275261D01*
G01X411197Y-1277174D01*
G01X397659Y-1282782D01*
G01X386033Y-1291702D01*
G01X377112Y-1303328D01*
G01X371504Y-1316867D01*
G01X369592Y-1331395D01*
G01X369592Y-1331395D01*
G01X-909970Y-1331395D01*
G01X-903887Y-1323467D01*
G01X-898279Y-1309929D01*
G01X-896366Y-1295400D01*
G01X-898279Y-1280871D01*
G01X-903887Y-1267333D01*
G01X-912807Y-1255707D01*
G01X-924433Y-1246787D01*
G01X-937971Y-1241179D01*
G01X-952500Y-1239266D01*
G01X-967029Y-1241179D01*
G01X-980567Y-1246787D01*
G01X-992193Y-1255707D01*
G01X-1001113Y-1267333D01*
G01X-1006721Y-1280871D01*
G01X-1008634Y-1295400D01*
G01X-1008634Y-1295400D01*
G01X-1319817Y-1295400D01*
G01X-1330901Y-1285419D01*
G01X-1360661Y-1263788D01*
G01X-1392518Y-1245383D01*
G01X-1426122Y-1230404D01*
G01X-1461106Y-1219016D01*
G01X-1497089Y-1211342D01*
G01X-1533675Y-1207467D01*
G01X-1570467Y-1207434D01*
G01X-1607060Y-1211241D01*
G01X-1643057Y-1218849D01*
G01X-1678062Y-1230173D01*
G01X-1711693Y-1245091D01*
G01X-1743584Y-1263438D01*
G01X-1773384Y-1285014D01*
G01X-1800769Y-1309584D01*
G01X-1800769Y-1309584D01*
G01X-1821457Y-1326310D01*
G01X-1844281Y-1339976D01*
G01X-1868794Y-1350315D01*
G01X-1894512Y-1357121D01*
G01X-1920929Y-1360263D01*
G01X-1947526Y-1359677D01*
G01X-1973779Y-1355375D01*
G01X-1999173Y-1347442D01*
G01X-2023206Y-1336034D01*
G01X-2045407Y-1321376D01*
G01X-2065338Y-1303755D01*
G01X-2113342Y-1224413D01*
G01X-2158299Y-1143305D01*
G01X-2200144Y-1060549D01*
G01X-2238818Y-976265D01*
G01X-2274265Y-890572D01*
G01X-2280577Y-873506D01*
G01X2238766Y-873506D01*
G01X2240652Y-893853D01*
G01X2246244Y-913508D01*
G01X2255352Y-931800D01*
G01X2267667Y-948107D01*
G01X2282768Y-961874D01*
G01X2300142Y-972631D01*
G01X2319196Y-980013D01*
G01X2339283Y-983767D01*
G01X2359717Y-983767D01*
G01X2379804Y-980013D01*
G01X2398858Y-972631D01*
G01X2416232Y-961874D01*
G01X2431333Y-948107D01*
G01X2443648Y-931800D01*
G01X2452756Y-913508D01*
G01X2458348Y-893853D01*
G01X2460234Y-873506D01*
G01X2460234Y-873506D01*
G01X2458348Y-853159D01*
G01X2452756Y-833504D01*
G01X2443648Y-815212D01*
G01X2431333Y-798905D01*
G01X2416232Y-785138D01*
G01X2398858Y-774381D01*
G01X2379804Y-766999D01*
G01X2359717Y-763245D01*
G01X2339283Y-763245D01*
G01X2319196Y-766999D01*
G01X2300142Y-774381D01*
G01X2282768Y-785138D01*
G01X2267667Y-798905D01*
G01X2255352Y-815212D01*
G01X2246244Y-833504D01*
G01X2240652Y-853159D01*
G01X2238766Y-873506D01*
G01X-2280577Y-873506D01*
G01X-2306433Y-803597D01*
G01X-2335276Y-715462D01*
G01X-2335276Y-715462D01*
G01X-2335276Y-711200D01*
G01X649986Y-711200D01*
G01X651765Y-725849D01*
G01X656998Y-739648D01*
G01X665381Y-751792D01*
G01X676426Y-761578D01*
G01X689493Y-768436D01*
G01X703821Y-771968D01*
G01X718579Y-771968D01*
G01X732907Y-768436D01*
G01X745974Y-761578D01*
G01X757019Y-751792D01*
G01X765402Y-739648D01*
G01X770635Y-725849D01*
G01X772414Y-711200D01*
G01X770635Y-696551D01*
G01X765402Y-682752D01*
G01X757019Y-670608D01*
G01X745974Y-660822D01*
G01X732907Y-653964D01*
G01X718579Y-650432D01*
G01X703821Y-650432D01*
G01X689493Y-653964D01*
G01X676426Y-660822D01*
G01X665381Y-670608D01*
G01X656998Y-682752D01*
G01X651765Y-696551D01*
G01X649986Y-711200D01*
G01X649986Y-711200D01*
G01X-2335276Y-711200D01*
G01X-2335276Y-604235D01*
G01X-1483881Y-604235D01*
G01X-1481969Y-618763D01*
G01X-1476361Y-632302D01*
G01X-1467440Y-643927D01*
G01X-1455814Y-652848D01*
G01X-1442276Y-658456D01*
G01X-1427747Y-660369D01*
G01X-1413219Y-658456D01*
G01X-1399680Y-652848D01*
G01X-1388055Y-643927D01*
G01X-1379134Y-632302D01*
G01X-1373526Y-618763D01*
G01X-1371613Y-604235D01*
G01X-1373526Y-589706D01*
G01X-1379134Y-576168D01*
G01X-1388055Y-564542D01*
G01X-1399680Y-555621D01*
G01X-1413219Y-550013D01*
G01X-1427747Y-548101D01*
G01X-1442276Y-550013D01*
G01X-1455814Y-555621D01*
G01X-1467440Y-564542D01*
G01X-1476361Y-576168D01*
G01X-1481969Y-589706D01*
G01X-1483881Y-604235D01*
G01X-1483881Y-604235D01*
G01X-2335276Y-604235D01*
G01X-2335276Y-494414D01*
G01X-789017Y-494414D01*
G01X-787238Y-509064D01*
G01X-782005Y-522862D01*
G01X-773622Y-535007D01*
G01X-762576Y-544792D01*
G01X-749510Y-551650D01*
G01X-735181Y-555182D01*
G01X-720424Y-555182D01*
G01X-706096Y-551650D01*
G01X-693029Y-544792D01*
G01X-681984Y-535007D01*
G01X-680875Y-533400D01*
G01X680466Y-533400D01*
G01X682379Y-547929D01*
G01X687987Y-561467D01*
G01X696907Y-573093D01*
G01X708533Y-582013D01*
G01X722071Y-587621D01*
G01X736600Y-589534D01*
G01X751129Y-587621D01*
G01X764667Y-582013D01*
G01X776293Y-573093D01*
G01X785213Y-561467D01*
G01X790821Y-547929D01*
G01X792734Y-533400D01*
G01X790821Y-518871D01*
G01X785213Y-505333D01*
G01X776293Y-493707D01*
G01X764667Y-484787D01*
G01X751129Y-479179D01*
G01X736600Y-477266D01*
G01X722071Y-479179D01*
G01X708533Y-484787D01*
G01X696907Y-493707D01*
G01X687987Y-505333D01*
G01X682379Y-518871D01*
G01X680466Y-533400D01*
G01X680466Y-533400D01*
G01X-680875Y-533400D01*
G01X-673601Y-522862D01*
G01X-668368Y-509064D01*
G01X-666589Y-494414D01*
G01X-668368Y-479765D01*
G01X-673601Y-465967D01*
G01X-681984Y-453822D01*
G01X-693029Y-444036D01*
G01X-706096Y-437178D01*
G01X-720424Y-433647D01*
G01X-735181Y-433647D01*
G01X-749510Y-437178D01*
G01X-762576Y-444036D01*
G01X-773622Y-453822D01*
G01X-782005Y-465967D01*
G01X-787238Y-479765D01*
G01X-789017Y-494414D01*
G01X-789017Y-494414D01*
G01X-2335276Y-494414D01*
G01X-2335276Y-410241D01*
G01X-514654Y-410241D01*
G01X-512876Y-424890D01*
G01X-507643Y-438688D01*
G01X-499260Y-450833D01*
G01X-488214Y-460619D01*
G01X-475147Y-467477D01*
G01X-460819Y-471008D01*
G01X-446062Y-471008D01*
G01X-431734Y-467477D01*
G01X-418667Y-460619D01*
G01X-407621Y-450833D01*
G01X-406129Y-448671D01*
G01X1421237Y-448671D01*
G01X1423150Y-463199D01*
G01X1428757Y-476738D01*
G01X1437678Y-488364D01*
G01X1449304Y-497284D01*
G01X1462842Y-502892D01*
G01X1477371Y-504805D01*
G01X1491899Y-502892D01*
G01X1505438Y-497284D01*
G01X1517064Y-488364D01*
G01X1525984Y-476738D01*
G01X1531592Y-463199D01*
G01X1533505Y-448671D01*
G01X1531592Y-434142D01*
G01X1525984Y-420604D01*
G01X1517064Y-408978D01*
G01X1505438Y-400057D01*
G01X1491899Y-394450D01*
G01X1477371Y-392537D01*
G01X1462842Y-394450D01*
G01X1449304Y-400057D01*
G01X1437678Y-408978D01*
G01X1428757Y-420604D01*
G01X1423150Y-434142D01*
G01X1421237Y-448671D01*
G01X1421237Y-448671D01*
G01X-406129Y-448671D01*
G01X-399238Y-438688D01*
G01X-394005Y-424890D01*
G01X-392226Y-410241D01*
G01X-394005Y-395591D01*
G01X-399238Y-381793D01*
G01X-407621Y-369648D01*
G01X-418667Y-359863D01*
G01X-426788Y-355600D01*
G01X-226314Y-355600D01*
G01X-224535Y-370249D01*
G01X-219302Y-384048D01*
G01X-210919Y-396192D01*
G01X-199874Y-405978D01*
G01X-186807Y-412836D01*
G01X-172479Y-416368D01*
G01X-157721Y-416368D01*
G01X-143393Y-412836D01*
G01X-130326Y-405978D01*
G01X-119281Y-396192D01*
G01X-110898Y-384048D01*
G01X-105665Y-370249D01*
G01X-103886Y-355600D01*
G01X-105428Y-342900D01*
G01X40386Y-342900D01*
G01X42165Y-357549D01*
G01X47398Y-371348D01*
G01X55781Y-383492D01*
G01X66826Y-393278D01*
G01X79893Y-400136D01*
G01X94221Y-403668D01*
G01X108979Y-403668D01*
G01X123307Y-400136D01*
G01X136374Y-393278D01*
G01X147419Y-383492D01*
G01X155802Y-371348D01*
G01X161035Y-357549D01*
G01X162814Y-342900D01*
G01X218186Y-342900D01*
G01X219965Y-357549D01*
G01X225198Y-371348D01*
G01X233581Y-383492D01*
G01X244626Y-393278D01*
G01X257693Y-400136D01*
G01X272021Y-403668D01*
G01X286779Y-403668D01*
G01X301107Y-400136D01*
G01X314174Y-393278D01*
G01X325219Y-383492D01*
G01X333602Y-371348D01*
G01X338835Y-357549D01*
G01X340614Y-342900D01*
G01X338835Y-328251D01*
G01X333602Y-314452D01*
G01X325219Y-302308D01*
G01X314174Y-292522D01*
G01X301107Y-285664D01*
G01X286779Y-282132D01*
G01X272021Y-282132D01*
G01X257693Y-285664D01*
G01X244626Y-292522D01*
G01X233581Y-302308D01*
G01X225198Y-314452D01*
G01X219965Y-328251D01*
G01X218186Y-342900D01*
G01X218186Y-342900D01*
G01X162814Y-342900D01*
G01X162814Y-342900D01*
G01X161035Y-328251D01*
G01X155802Y-314452D01*
G01X147419Y-302308D01*
G01X136374Y-292522D01*
G01X123307Y-285664D01*
G01X108979Y-282132D01*
G01X94221Y-282132D01*
G01X79893Y-285664D01*
G01X66826Y-292522D01*
G01X55781Y-302308D01*
G01X47398Y-314452D01*
G01X42165Y-328251D01*
G01X40386Y-342900D01*
G01X40386Y-342900D01*
G01X-105428Y-342900D01*
G01X-105665Y-340951D01*
G01X-110898Y-327152D01*
G01X-119281Y-315008D01*
G01X-130326Y-305222D01*
G01X-143393Y-298364D01*
G01X-157721Y-294832D01*
G01X-172479Y-294832D01*
G01X-186807Y-298364D01*
G01X-199874Y-305222D01*
G01X-210919Y-315008D01*
G01X-219302Y-327152D01*
G01X-224535Y-340951D01*
G01X-226314Y-355600D01*
G01X-226314Y-355600D01*
G01X-426788Y-355600D01*
G01X-431734Y-353005D01*
G01X-446062Y-349473D01*
G01X-460819Y-349473D01*
G01X-475147Y-353005D01*
G01X-488214Y-359863D01*
G01X-499260Y-369648D01*
G01X-507643Y-381793D01*
G01X-512876Y-395591D01*
G01X-514654Y-410241D01*
G01X-514654Y-410241D01*
G01X-2335276Y-410241D01*
G01X-2335276Y-254000D01*
G01X-1918834Y-254000D01*
G01X-1916921Y-268529D01*
G01X-1911314Y-282067D01*
G01X-1902393Y-293693D01*
G01X-1890767Y-302613D01*
G01X-1877229Y-308221D01*
G01X-1862700Y-310134D01*
G01X-1848172Y-308221D01*
G01X-1834633Y-302613D01*
G01X-1823007Y-293693D01*
G01X-1814087Y-282067D01*
G01X-1812982Y-279400D01*
G01X566166Y-279400D01*
G01X568079Y-293929D01*
G01X573687Y-307467D01*
G01X582607Y-319093D01*
G01X594233Y-328013D01*
G01X607771Y-333621D01*
G01X622300Y-335534D01*
G01X636829Y-333621D01*
G01X650367Y-328013D01*
G01X661993Y-319093D01*
G01X663215Y-317500D01*
G01X1277366Y-317500D01*
G01X1279279Y-332029D01*
G01X1284887Y-345567D01*
G01X1293807Y-357193D01*
G01X1305433Y-366113D01*
G01X1318971Y-371721D01*
G01X1333500Y-373634D01*
G01X1348029Y-371721D01*
G01X1361567Y-366113D01*
G01X1373193Y-357193D01*
G01X1382113Y-345567D01*
G01X1387721Y-332029D01*
G01X1389634Y-317500D01*
G01X1387721Y-302971D01*
G01X1382113Y-289433D01*
G01X1373193Y-277807D01*
G01X1361567Y-268887D01*
G01X1348029Y-263279D01*
G01X1333500Y-261366D01*
G01X1318971Y-263279D01*
G01X1305433Y-268887D01*
G01X1293807Y-277807D01*
G01X1284887Y-289433D01*
G01X1279279Y-302971D01*
G01X1277366Y-317500D01*
G01X1277366Y-317500D01*
G01X663215Y-317500D01*
G01X670913Y-307467D01*
G01X676521Y-293929D01*
G01X678434Y-279400D01*
G01X676521Y-264871D01*
G01X670913Y-251333D01*
G01X661993Y-239707D01*
G01X650367Y-230787D01*
G01X636829Y-225179D01*
G01X622300Y-223266D01*
G01X607771Y-225179D01*
G01X594233Y-230787D01*
G01X582607Y-239707D01*
G01X573687Y-251333D01*
G01X568079Y-264871D01*
G01X566166Y-279400D01*
G01X566166Y-279400D01*
G01X-1812982Y-279400D01*
G01X-1808479Y-268529D01*
G01X-1806566Y-254000D01*
G01X-1808479Y-239471D01*
G01X-1814087Y-225933D01*
G01X-1823007Y-214307D01*
G01X-1834633Y-205387D01*
G01X-1848172Y-199779D01*
G01X-1862700Y-197866D01*
G01X-1877229Y-199779D01*
G01X-1890767Y-205387D01*
G01X-1902393Y-214307D01*
G01X-1911314Y-225933D01*
G01X-1916921Y-239471D01*
G01X-1918834Y-254000D01*
G01X-1918834Y-254000D01*
G01X-2335276Y-254000D01*
G01X-2335276Y-107798D01*
G01X-1331880Y-107798D01*
G01X-1329967Y-122326D01*
G01X-1324359Y-135865D01*
G01X-1315439Y-147490D01*
G01X-1303813Y-156411D01*
G01X-1290275Y-162019D01*
G01X-1275746Y-163932D01*
G01X-1261217Y-162019D01*
G01X-1247679Y-156411D01*
G01X-1236053Y-147490D01*
G01X-1228001Y-136996D01*
G01X-538899Y-136996D01*
G01X-537052Y-151480D01*
G01X-531533Y-164997D01*
G01X-522715Y-176634D01*
G01X-531484Y-188308D01*
G01X-536947Y-201848D01*
G01X-538732Y-216339D01*
G01X-536720Y-230801D01*
G01X-531047Y-244254D01*
G01X-522095Y-255789D01*
G01X-510472Y-264626D01*
G01X-496963Y-270165D01*
G01X-482482Y-272034D01*
G01X-482482Y-272034D01*
G01X-468009Y-270105D01*
G01X-454524Y-264508D01*
G01X-442938Y-255623D01*
G01X-434035Y-244051D01*
G01X-428418Y-230574D01*
G01X-426466Y-216104D01*
G01X-428313Y-201620D01*
G01X-433832Y-188103D01*
G01X-441639Y-177800D01*
G01X-272034Y-177800D01*
G01X-270121Y-192329D01*
G01X-264513Y-205867D01*
G01X-255593Y-217493D01*
G01X-243967Y-226413D01*
G01X-230429Y-232021D01*
G01X-215900Y-233934D01*
G01X-201371Y-232021D01*
G01X-187833Y-226413D01*
G01X-176207Y-217493D01*
G01X-167287Y-205867D01*
G01X-161679Y-192329D01*
G01X-159929Y-179037D01*
G01X96392Y-179037D01*
G01X97282Y-193433D01*
G01X101811Y-207127D01*
G01X109680Y-219215D01*
G01X120369Y-228898D01*
G01X133173Y-235539D01*
G01X147246Y-238697D01*
G01X161660Y-238165D01*
G01X175462Y-233978D01*
G01X187742Y-226412D01*
G01X197918Y-234927D01*
G01X209808Y-240815D01*
G01X222749Y-243748D01*
G01X236016Y-243562D01*
G01X248869Y-240267D01*
G01X260589Y-234047D01*
G01X270522Y-225250D01*
G01X278113Y-214368D01*
G01X282938Y-202007D01*
G01X284726Y-188860D01*
G01X298499Y-191926D01*
G01X312602Y-191461D01*
G01X326143Y-187494D01*
G01X338267Y-180275D01*
G01X348208Y-170261D01*
G01X355337Y-158084D01*
G01X359205Y-144514D01*
G01X359566Y-130408D01*
G01X358781Y-127000D01*
G01X398272Y-127000D01*
G01X400185Y-141529D01*
G01X405793Y-155067D01*
G01X414713Y-166693D01*
G01X426339Y-175613D01*
G01X439877Y-181221D01*
G01X454406Y-183134D01*
G01X468935Y-181221D01*
G01X482473Y-175613D01*
G01X494099Y-166693D01*
G01X503019Y-155067D01*
G01X508627Y-141529D01*
G01X510540Y-127000D01*
G01X508627Y-112471D01*
G01X503019Y-98933D01*
G01X494099Y-87307D01*
G01X482473Y-78387D01*
G01X468935Y-72779D01*
G01X454406Y-70866D01*
G01X439877Y-72779D01*
G01X426339Y-78387D01*
G01X414713Y-87307D01*
G01X405793Y-98933D01*
G01X400185Y-112471D01*
G01X398272Y-127000D01*
G01X398272Y-127000D01*
G01X358781Y-127000D01*
G01X356398Y-116658D01*
G01X349902Y-104132D01*
G01X340487Y-93622D01*
G01X328748Y-85792D01*
G01X315428Y-81137D01*
G01X301367Y-79950D01*
G01X287455Y-82308D01*
G01X274570Y-88060D01*
G01X263527Y-96843D01*
G01X255023Y-108104D01*
G01X249596Y-121129D01*
G01X247589Y-135095D01*
G01X233564Y-132006D01*
G01X219215Y-132576D01*
G01X205480Y-136768D01*
G01X193258Y-144308D01*
G01X193258Y-144308D01*
G01X182101Y-135168D01*
G01X168983Y-129172D01*
G01X154770Y-126716D01*
G01X140401Y-127964D01*
G01X126824Y-132831D01*
G01X114935Y-140998D01*
G01X105520Y-151925D01*
G01X99200Y-164890D01*
G01X96392Y-179037D01*
G01X-159929Y-179037D01*
G01X-159766Y-177800D01*
G01X-161679Y-163271D01*
G01X-167287Y-149733D01*
G01X-176207Y-138107D01*
G01X-187833Y-129187D01*
G01X-201371Y-123579D01*
G01X-215900Y-121666D01*
G01X-230429Y-123579D01*
G01X-243967Y-129187D01*
G01X-255593Y-138107D01*
G01X-264513Y-149733D01*
G01X-270121Y-163271D01*
G01X-272034Y-177800D01*
G01X-272034Y-177800D01*
G01X-441639Y-177800D01*
G01X-442650Y-176466D01*
G01X-433881Y-164792D01*
G01X-428418Y-151252D01*
G01X-426633Y-136761D01*
G01X-428645Y-122299D01*
G01X-434319Y-108846D01*
G01X-443270Y-97311D01*
G01X-454893Y-88474D01*
G01X-468402Y-82934D01*
G01X-482883Y-81066D01*
G01X-497356Y-82995D01*
G01X-510841Y-88592D01*
G01X-522427Y-97477D01*
G01X-531330Y-109049D01*
G01X-536947Y-122526D01*
G01X-538899Y-136996D01*
G01X-1228001Y-136996D01*
G01X-1227133Y-135865D01*
G01X-1221525Y-122326D01*
G01X-1219612Y-107798D01*
G01X-1221525Y-93269D01*
G01X-1227133Y-79731D01*
G01X-1236053Y-68105D01*
G01X-1247679Y-59184D01*
G01X-1261217Y-53576D01*
G01X-1275746Y-51664D01*
G01X-1290275Y-53576D01*
G01X-1303813Y-59184D01*
G01X-1315439Y-68105D01*
G01X-1324359Y-79731D01*
G01X-1329967Y-93269D01*
G01X-1331880Y-107798D01*
G01X-1331880Y-107798D01*
G01X-2335276Y-107798D01*
G01X-2335276Y14144D01*
G01X-336978Y14144D01*
G01X-335066Y-384D01*
G01X-329458Y-13923D01*
G01X-320537Y-25548D01*
G01X-308911Y-34469D01*
G01X-295373Y-40077D01*
G01X-280844Y-41990D01*
G01X-266316Y-40077D01*
G01X-252777Y-34469D01*
G01X-241152Y-25548D01*
G01X-232231Y-13923D01*
G01X-226623Y-384D01*
G01X-226572Y0D01*
G01X642366Y0D01*
G01X644279Y-14529D01*
G01X649887Y-28067D01*
G01X658807Y-39693D01*
G01X670433Y-48613D01*
G01X683971Y-54221D01*
G01X698500Y-56134D01*
G01X713029Y-54221D01*
G01X726567Y-48613D01*
G01X738193Y-39693D01*
G01X747113Y-28067D01*
G01X752721Y-14529D01*
G01X754634Y0D01*
G01X752721Y14529D01*
G01X747113Y28067D01*
G01X738193Y39693D01*
G01X726567Y48613D01*
G01X713029Y54221D01*
G01X698500Y56134D01*
G01X683971Y54221D01*
G01X670433Y48613D01*
G01X658807Y39693D01*
G01X649887Y28067D01*
G01X644279Y14529D01*
G01X642366Y0D01*
G01X642366Y0D01*
G01X-226572Y0D01*
G01X-224710Y14144D01*
G01X-226623Y28673D01*
G01X-232231Y42211D01*
G01X-241152Y53837D01*
G01X-252777Y62758D01*
G01X-266316Y68366D01*
G01X-280844Y70278D01*
G01X-295373Y68366D01*
G01X-308911Y62758D01*
G01X-320537Y53837D01*
G01X-329458Y42211D01*
G01X-335066Y28673D01*
G01X-336978Y14144D01*
G01X-336978Y14144D01*
G01X-2335276Y14144D01*
G01X-2335276Y282854D01*
G01X-868606Y282854D01*
G01X-867778Y268924D01*
G01X-863540Y255628D01*
G01X-856154Y243789D01*
G01X-846075Y234137D01*
G01X-833927Y227270D01*
G01X-820460Y223611D01*
G01X-817551Y209963D01*
G01X-811365Y197455D01*
G01X-802284Y186859D01*
G01X-790871Y178830D01*
G01X-777829Y173864D01*
G01X-763966Y172269D01*
G01X-750138Y174143D01*
G01X-737199Y179370D01*
G01X-730894Y183998D01*
G01X-386334Y183998D01*
G01X-384421Y169469D01*
G01X-378813Y155931D01*
G01X-369893Y144305D01*
G01X-358267Y135384D01*
G01X-344729Y129776D01*
G01X-330200Y127864D01*
G01X-315671Y129776D01*
G01X-302133Y135384D01*
G01X-290507Y144305D01*
G01X-281587Y155931D01*
G01X-275979Y169469D01*
G01X-275312Y174530D01*
G01X274260Y174530D01*
G01X277066Y160462D01*
G01X283347Y147564D01*
G01X292692Y136680D01*
G01X304490Y128520D01*
G01X317972Y123616D01*
G01X318074Y109271D01*
G01X321809Y95420D01*
G01X328932Y82968D01*
G01X338979Y72728D01*
G01X351294Y65370D01*
G01X365071Y61372D01*
G01X379412Y60998D01*
G01X393379Y64270D01*
G01X406061Y70976D01*
G01X406061Y70976D01*
G01X416629Y80678D01*
G01X424393Y92741D01*
G01X428846Y106378D01*
G01X429696Y120698D01*
G01X426890Y134766D01*
G01X420609Y147664D01*
G01X411264Y158548D01*
G01X399466Y166709D01*
G01X385984Y171612D01*
G01X385882Y185957D01*
G01X382147Y199808D01*
G01X375024Y212260D01*
G01X364977Y222500D01*
G01X352662Y229859D01*
G01X338885Y233856D01*
G01X324544Y234230D01*
G01X310577Y230958D01*
G01X297895Y224252D01*
G01X287327Y214551D01*
G01X279563Y202488D01*
G01X275111Y188851D01*
G01X274260Y174530D01*
G01X-275312Y174530D01*
G01X-274066Y183998D01*
G01X-275979Y198526D01*
G01X-281587Y212065D01*
G01X-290507Y223690D01*
G01X-302133Y232611D01*
G01X-315671Y238219D01*
G01X-330200Y240132D01*
G01X-344729Y238219D01*
G01X-358267Y232611D01*
G01X-369893Y223690D01*
G01X-378813Y212065D01*
G01X-384421Y198526D01*
G01X-386334Y183998D01*
G01X-386334Y183998D01*
G01X-730894Y183998D01*
G01X-725949Y187627D01*
G01X-717084Y198404D01*
G01X-711151Y211034D01*
G01X-708516Y224738D01*
G01X-709344Y238668D01*
G01X-713582Y251964D01*
G01X-720968Y263803D01*
G01X-731047Y273454D01*
G01X-743195Y280322D01*
G01X-756662Y283980D01*
G01X-759571Y297628D01*
G01X-765757Y310137D01*
G01X-774838Y320733D01*
G01X-786251Y328762D01*
G01X-799293Y333727D01*
G01X-813156Y335322D01*
G01X-826984Y333449D01*
G01X-839923Y328222D01*
G01X-851173Y319965D01*
G01X-851173Y319965D01*
G01X-860038Y309188D01*
G01X-865971Y296557D01*
G01X-868606Y282854D01*
G01X-2335276Y282854D01*
G01X-2335276Y355600D01*
G01X-691134Y355600D01*
G01X-689221Y341071D01*
G01X-683613Y327533D01*
G01X-674693Y315907D01*
G01X-663067Y306987D01*
G01X-649529Y301379D01*
G01X-635000Y299466D01*
G01X-620471Y301379D01*
G01X-606933Y306987D01*
G01X-595307Y315907D01*
G01X-586387Y327533D01*
G01X-580779Y341071D01*
G01X-578866Y355600D01*
G01X248666Y355600D01*
G01X250579Y341071D01*
G01X256187Y327533D01*
G01X265107Y315907D01*
G01X276733Y306987D01*
G01X290271Y301379D01*
G01X304800Y299466D01*
G01X319329Y301379D01*
G01X332867Y306987D01*
G01X344493Y315907D01*
G01X353413Y327533D01*
G01X359021Y341071D01*
G01X359915Y347857D01*
G01X515585Y347857D01*
G01X516047Y334181D01*
G01X519804Y321024D01*
G01X526633Y309166D01*
G01X520191Y297094D01*
G01X516861Y283822D01*
G01X516841Y270139D01*
G01X520133Y256857D01*
G01X526540Y244766D01*
G01X535682Y234585D01*
G01X547016Y226918D01*
G01X559868Y222221D01*
G01X573474Y220773D01*
G01X573474Y220773D01*
G01X587027Y222660D01*
G01X599720Y227770D01*
G01X610800Y235799D01*
G01X619608Y246271D01*
G01X625621Y258562D01*
G01X628482Y271943D01*
G01X628020Y285619D01*
G01X624263Y298776D01*
G01X617434Y310634D01*
G01X623876Y322706D01*
G01X627206Y335978D01*
G01X627225Y349661D01*
G01X623934Y362943D01*
G01X617527Y375033D01*
G01X608385Y385215D01*
G01X597051Y392882D01*
G01X584199Y397579D01*
G01X570593Y399027D01*
G01X557040Y397140D01*
G01X544347Y392030D01*
G01X533267Y384000D01*
G01X524459Y373529D01*
G01X518446Y361238D01*
G01X515585Y347857D01*
G01X359915Y347857D01*
G01X360934Y355600D01*
G01X359021Y370129D01*
G01X353413Y383667D01*
G01X344493Y395293D01*
G01X332867Y404213D01*
G01X319329Y409821D01*
G01X304800Y411734D01*
G01X290271Y409821D01*
G01X276733Y404213D01*
G01X265107Y395293D01*
G01X256187Y383667D01*
G01X250579Y370129D01*
G01X248666Y355600D01*
G01X248666Y355600D01*
G01X-578866Y355600D01*
G01X-580779Y370129D01*
G01X-586387Y383667D01*
G01X-595307Y395293D01*
G01X-606933Y404213D01*
G01X-620471Y409821D01*
G01X-635000Y411734D01*
G01X-649529Y409821D01*
G01X-663067Y404213D01*
G01X-674693Y395293D01*
G01X-683613Y383667D01*
G01X-689221Y370129D01*
G01X-691134Y355600D01*
G01X-691134Y355600D01*
G01X-2335276Y355600D01*
G01X-2335276Y508000D01*
G01X-1072134Y508000D01*
G01X-1070221Y493471D01*
G01X-1064613Y479933D01*
G01X-1055693Y468307D01*
G01X-1044067Y459387D01*
G01X-1030529Y453779D01*
G01X-1016000Y451866D01*
G01X-1001471Y453779D01*
G01X-987933Y459387D01*
G01X-976307Y468307D01*
G01X-971055Y475152D01*
G01X-43188Y475152D01*
G01X-42670Y460672D01*
G01X-38463Y446806D01*
G01X-30847Y434479D01*
G01X-20330Y424512D01*
G01X-7612Y417570D01*
G01X6460Y414114D01*
G01X20947Y414375D01*
G01X34885Y418336D01*
G01X47345Y425733D01*
G01X57496Y436072D01*
G01X70715Y429493D01*
G01X85192Y426589D01*
G01X99926Y427560D01*
G01X113897Y432339D01*
G01X126138Y440596D01*
G01X135803Y451759D01*
G01X142222Y465056D01*
G01X144952Y479567D01*
G01X150444Y480578D01*
G01X261402Y480578D01*
G01X263557Y467071D01*
G01X268913Y454487D01*
G01X277154Y443571D01*
G01X287791Y434973D01*
G01X300191Y429201D01*
G01X313618Y426600D01*
G01X327276Y427324D01*
G01X340354Y431329D01*
G01X352075Y438378D01*
G01X364273Y432191D01*
G01X377605Y429138D01*
G01X391279Y429400D01*
G01X404485Y432961D01*
G01X416437Y439610D01*
G01X426426Y448953D01*
G01X431766Y457200D01*
G01X2005476Y457200D01*
G01X2007119Y443719D01*
G01X2011951Y431028D01*
G01X2019690Y419868D01*
G01X2029882Y410893D01*
G01X2041931Y404628D01*
G01X2055132Y401441D01*
G01X2068712Y401517D01*
G01X2081877Y404852D01*
G01X2093855Y411251D01*
G01X2103946Y420340D01*
G01X2114111Y411200D01*
G01X2126183Y404788D01*
G01X2139448Y401484D01*
G01X2153117Y401484D01*
G01X2166382Y404788D01*
G01X2178454Y411200D01*
G01X2188619Y420340D01*
G01X2198783Y411200D01*
G01X2210856Y404788D01*
G01X2224120Y401484D01*
G01X2237790Y401484D01*
G01X2251054Y404788D01*
G01X2263127Y411200D01*
G01X2273291Y420340D01*
G01X2283456Y411200D01*
G01X2295528Y404788D01*
G01X2308793Y401484D01*
G01X2322462Y401484D01*
G01X2335727Y404788D01*
G01X2347799Y411200D01*
G01X2357964Y420340D01*
G01X2368055Y411251D01*
G01X2380033Y404852D01*
G01X2393198Y401517D01*
G01X2406778Y401441D01*
G01X2419979Y404628D01*
G01X2432028Y410893D01*
G01X2442220Y419868D01*
G01X2449959Y431028D01*
G01X2454791Y443719D01*
G01X2456434Y457200D01*
G01X2454791Y470681D01*
G01X2449959Y483372D01*
G01X2442220Y494532D01*
G01X2432028Y503507D01*
G01X2419979Y509772D01*
G01X2406778Y512959D01*
G01X2393198Y512883D01*
G01X2380033Y509548D01*
G01X2368055Y503149D01*
G01X2357964Y494060D01*
G01X2347799Y503200D01*
G01X2335727Y509612D01*
G01X2322462Y512916D01*
G01X2308793Y512916D01*
G01X2295528Y509612D01*
G01X2283456Y503200D01*
G01X2273291Y494060D01*
G01X2263127Y503200D01*
G01X2251054Y509612D01*
G01X2237790Y512916D01*
G01X2224120Y512916D01*
G01X2210856Y509612D01*
G01X2198783Y503200D01*
G01X2188619Y494060D01*
G01X2178454Y503200D01*
G01X2166382Y509612D01*
G01X2153117Y512916D01*
G01X2139448Y512916D01*
G01X2126183Y509612D01*
G01X2114111Y503200D01*
G01X2103946Y494060D01*
G01X2103946Y494060D01*
G01X2093855Y503149D01*
G01X2081877Y509548D01*
G01X2068712Y512883D01*
G01X2055132Y512959D01*
G01X2041931Y509772D01*
G01X2029882Y503507D01*
G01X2019690Y494532D01*
G01X2011951Y483372D01*
G01X2007119Y470681D01*
G01X2005476Y457200D01*
G01X431766Y457200D01*
G01X433860Y460433D01*
G01X438296Y473371D01*
G01X439472Y486997D01*
G01X437318Y500504D01*
G01X431962Y513088D01*
G01X423721Y524004D01*
G01X413084Y532602D01*
G01X411371Y533400D01*
G01X439166Y533400D01*
G01X441079Y518871D01*
G01X446687Y505333D01*
G01X455607Y493707D01*
G01X467233Y484787D01*
G01X480771Y479179D01*
G01X495300Y477266D01*
G01X509829Y479179D01*
G01X523367Y484787D01*
G01X534993Y493707D01*
G01X543913Y505333D01*
G01X549521Y518871D01*
G01X551434Y533400D01*
G01X549521Y547929D01*
G01X543913Y561467D01*
G01X534993Y573093D01*
G01X523367Y582013D01*
G01X509829Y587621D01*
G01X495300Y589534D01*
G01X480771Y587621D01*
G01X467233Y582013D01*
G01X455607Y573093D01*
G01X446687Y561467D01*
G01X441079Y547929D01*
G01X439166Y533400D01*
G01X439166Y533400D01*
G01X411371Y533400D01*
G01X400684Y538373D01*
G01X387257Y540975D01*
G01X373599Y540251D01*
G01X360521Y536246D01*
G01X348800Y529197D01*
G01X336602Y535384D01*
G01X323270Y538437D01*
G01X309596Y538175D01*
G01X296390Y534613D01*
G01X284438Y527964D01*
G01X274449Y518622D01*
G01X267015Y507142D01*
G01X262578Y494204D01*
G01X261402Y480578D01*
G01X261402Y480578D01*
G01X150444Y480578D01*
G01X159035Y482158D01*
G01X172005Y488228D01*
G01X183016Y497382D01*
G01X191353Y509025D01*
G01X196474Y522397D01*
G01X198044Y536631D01*
G01X195962Y550798D01*
G01X190363Y563978D01*
G01X181612Y575312D01*
G01X170278Y584063D01*
G01X157098Y589662D01*
G01X142931Y591744D01*
G01X128697Y590174D01*
G01X115325Y585053D01*
G01X103682Y576716D01*
G01X94528Y565705D01*
G01X88458Y552735D01*
G01X85867Y538652D01*
G01X73844Y536677D01*
G01X62530Y532154D01*
G01X52458Y525297D01*
G01X44104Y516428D01*
G01X44104Y516428D01*
G01X31148Y522916D01*
G01X16963Y525872D01*
G01X2494Y525098D01*
G01X-11296Y520647D01*
G01X-23486Y512814D01*
G01X-33265Y502122D01*
G01X-39981Y489283D01*
G01X-43188Y475152D01*
G01X-971055Y475152D01*
G01X-967387Y479933D01*
G01X-961779Y493471D01*
G01X-959866Y508000D01*
G01X-961779Y522529D01*
G01X-967387Y536067D01*
G01X-972220Y542366D01*
G01X-348234Y542366D01*
G01X-346321Y527838D01*
G01X-340713Y514299D01*
G01X-331793Y502673D01*
G01X-320167Y493753D01*
G01X-306629Y488145D01*
G01X-292100Y486232D01*
G01X-277571Y488145D01*
G01X-264033Y493753D01*
G01X-252407Y502673D01*
G01X-243487Y514299D01*
G01X-237879Y527838D01*
G01X-235966Y542366D01*
G01X-237879Y556895D01*
G01X-243487Y570433D01*
G01X-252407Y582059D01*
G01X-264033Y590980D01*
G01X-277571Y596587D01*
G01X-292100Y598500D01*
G01X-306629Y596587D01*
G01X-320167Y590980D01*
G01X-331793Y582059D01*
G01X-340713Y570433D01*
G01X-346321Y556895D01*
G01X-348234Y542366D01*
G01X-348234Y542366D01*
G01X-972220Y542366D01*
G01X-976307Y547693D01*
G01X-987933Y556613D01*
G01X-1001471Y562221D01*
G01X-1016000Y564134D01*
G01X-1030529Y562221D01*
G01X-1044067Y556613D01*
G01X-1055693Y547693D01*
G01X-1064613Y536067D01*
G01X-1070221Y522529D01*
G01X-1072134Y508000D01*
G01X-1072134Y508000D01*
G01X-2335276Y508000D01*
G01X-2335276Y711200D01*
G01X-1161034Y711200D01*
G01X-1159121Y696671D01*
G01X-1153513Y683133D01*
G01X-1144593Y671507D01*
G01X-1132967Y662587D01*
G01X-1119429Y656979D01*
G01X-1104900Y655066D01*
G01X-1090371Y656979D01*
G01X-1076833Y662587D01*
G01X-1065207Y671507D01*
G01X-1056287Y683133D01*
G01X-1055182Y685800D01*
G01X-627634Y685800D01*
G01X-625721Y671271D01*
G01X-620113Y657733D01*
G01X-611193Y646107D01*
G01X-599567Y637187D01*
G01X-586029Y631579D01*
G01X-571500Y629666D01*
G01X-556971Y631579D01*
G01X-543433Y637187D01*
G01X-531807Y646107D01*
G01X-522887Y657733D01*
G01X-517279Y671271D01*
G01X-515366Y685800D01*
G01X-517279Y700329D01*
G01X-522887Y713867D01*
G01X-524859Y716438D01*
G01X-480591Y716438D01*
G01X-478812Y701788D01*
G01X-473579Y687990D01*
G01X-465196Y675845D01*
G01X-454150Y666060D01*
G01X-441084Y659202D01*
G01X-426755Y655670D01*
G01X-411998Y655670D01*
G01X-397670Y659202D01*
G01X-384603Y666060D01*
G01X-373558Y675845D01*
G01X-365175Y687990D01*
G01X-359942Y701788D01*
G01X-358163Y716438D01*
G01X-359151Y724580D01*
G01X-43430Y724580D01*
G01X-41792Y710423D01*
G01X-36642Y697135D01*
G01X-28312Y685572D01*
G01X-17338Y676479D01*
G01X-4428Y670443D01*
G01X-5178Y656211D01*
G01X-2319Y642250D01*
G01X3964Y629458D01*
G01X13265Y618661D01*
G01X24986Y610554D01*
G01X38370Y605659D01*
G01X52556Y604293D01*
G01X66628Y606544D01*
G01X79681Y612265D01*
G01X79681Y612265D01*
G01X87823Y618686D01*
G01X921785Y618686D01*
G01X923031Y605390D01*
G01X927383Y592764D01*
G01X934594Y581524D01*
G01X944256Y572305D01*
G01X955822Y565630D01*
G01X968638Y561875D01*
G01X981977Y561254D01*
G01X977974Y549289D01*
G01X976743Y536732D01*
G01X978348Y524218D01*
G01X982708Y512378D01*
G01X989602Y501811D01*
G01X998681Y493050D01*
G01X1009488Y486539D01*
G01X1021477Y482606D01*
G01X1034040Y481449D01*
G01X1046545Y483128D01*
G01X1058359Y487557D01*
G01X1068885Y494513D01*
G01X1080920Y486817D01*
G01X1094507Y482407D01*
G01X1108768Y481570D01*
G01X1122778Y484360D01*
G01X1135630Y490595D01*
G01X1146492Y499873D01*
G01X1154661Y511592D01*
G01X1159607Y524993D01*
G01X1161010Y539209D01*
G01X1158780Y553319D01*
G01X1153060Y566409D01*
G01X1144222Y577631D01*
G01X1153303Y589600D01*
G01X1158884Y603548D01*
G01X1160565Y618478D01*
G01X1158227Y633318D01*
G01X1152036Y647007D01*
G01X1164828Y643186D01*
G01X1178160Y642493D01*
G01X1191278Y644968D01*
G01X1203441Y650471D01*
G01X1213961Y658690D01*
G01X1222242Y669162D01*
G01X1227817Y681292D01*
G01X1230369Y694396D01*
G01X1229755Y707732D01*
G01X1226009Y720545D01*
G01X1219344Y732112D01*
G01X1210135Y741778D01*
G01X1198905Y748996D01*
G01X1186287Y753358D01*
G01X1183615Y766865D01*
G01X1177735Y779316D01*
G01X1169001Y789960D01*
G01X1157938Y798158D01*
G01X1145213Y803417D01*
G01X1131590Y805419D01*
G01X1117889Y804045D01*
G01X1104936Y799377D01*
G01X1093508Y791696D01*
G01X1093508Y791696D01*
G01X1084294Y781463D01*
G01X1077848Y769296D01*
G01X1074558Y755926D01*
G01X1074622Y742157D01*
G01X1078036Y728818D01*
G01X1084595Y716711D01*
G01X1093903Y706565D01*
G01X1105402Y698990D01*
G01X1118398Y694442D01*
G01X1121025Y681074D01*
G01X1126794Y668733D01*
G01X1113280Y672674D01*
G01X1099210Y673129D01*
G01X1085470Y670069D01*
G01X1072922Y663687D01*
G01X1061005Y669839D01*
G01X1047969Y672988D01*
G01X1034558Y672955D01*
G01X1021537Y669742D01*
G01X1009650Y663532D01*
G01X997817Y669721D01*
G01X984856Y672941D01*
G01X971502Y673008D01*
G01X958510Y669918D01*
G01X946615Y663847D01*
G01X936491Y655138D01*
G01X928711Y644285D01*
G01X923714Y631900D01*
G01X921785Y618686D01*
G01X87823Y618686D01*
G01X90871Y621090D01*
G01X99479Y632448D01*
G01X104950Y645607D01*
G01X106930Y659720D01*
G01X105292Y673877D01*
G01X100142Y687165D01*
G01X91812Y698728D01*
G01X80838Y707821D01*
G01X67928Y713857D01*
G01X68301Y720941D01*
G01X737055Y720941D01*
G01X738968Y706412D01*
G01X744576Y692874D01*
G01X753497Y681248D01*
G01X765122Y672327D01*
G01X778661Y666720D01*
G01X793189Y664807D01*
G01X807718Y666720D01*
G01X821256Y672327D01*
G01X832882Y681248D01*
G01X841803Y692874D01*
G01X847411Y706412D01*
G01X849323Y720941D01*
G01X847411Y735469D01*
G01X841803Y749008D01*
G01X832882Y760634D01*
G01X821256Y769554D01*
G01X807718Y775162D01*
G01X793189Y777075D01*
G01X778661Y775162D01*
G01X765122Y769554D01*
G01X753497Y760634D01*
G01X744576Y749008D01*
G01X738968Y735469D01*
G01X737055Y720941D01*
G01X737055Y720941D01*
G01X68301Y720941D01*
G01X68678Y728089D01*
G01X65819Y742050D01*
G01X59536Y754842D01*
G01X50235Y765639D01*
G01X38514Y773746D01*
G01X25130Y778641D01*
G01X10944Y780007D01*
G01X-3128Y777756D01*
G01X-16181Y772035D01*
G01X-27371Y763210D01*
G01X-35979Y751852D01*
G01X-41450Y738693D01*
G01X-43430Y724580D01*
G01X-359151Y724580D01*
G01X-359942Y731087D01*
G01X-365175Y744885D01*
G01X-373558Y757030D01*
G01X-384603Y766816D01*
G01X-397670Y773674D01*
G01X-411998Y777205D01*
G01X-426755Y777205D01*
G01X-441084Y773674D01*
G01X-454150Y766816D01*
G01X-465196Y757030D01*
G01X-473579Y744885D01*
G01X-478812Y731087D01*
G01X-480591Y716438D01*
G01X-480591Y716438D01*
G01X-524859Y716438D01*
G01X-531807Y725493D01*
G01X-543433Y734413D01*
G01X-556971Y740021D01*
G01X-571500Y741934D01*
G01X-586029Y740021D01*
G01X-599567Y734413D01*
G01X-611193Y725493D01*
G01X-620113Y713867D01*
G01X-625721Y700329D01*
G01X-627634Y685800D01*
G01X-627634Y685800D01*
G01X-1055182Y685800D01*
G01X-1050679Y696671D01*
G01X-1048766Y711200D01*
G01X-1050679Y725729D01*
G01X-1056287Y739267D01*
G01X-1065207Y750893D01*
G01X-1076833Y759813D01*
G01X-1090371Y765421D01*
G01X-1104900Y767334D01*
G01X-1119429Y765421D01*
G01X-1132967Y759813D01*
G01X-1144593Y750893D01*
G01X-1153513Y739267D01*
G01X-1159121Y725729D01*
G01X-1161034Y711200D01*
G01X-1161034Y711200D01*
G01X-2335276Y711200D01*
G01X-2335276Y716551D01*
G01X-2306523Y804306D01*
G01X-2303380Y812800D01*
G01X-1616013Y812800D01*
G01X-1614101Y798271D01*
G01X-1608493Y784733D01*
G01X-1599572Y773107D01*
G01X-1587946Y764187D01*
G01X-1574408Y758579D01*
G01X-1559879Y756666D01*
G01X-1545351Y758579D01*
G01X-1531812Y764187D01*
G01X-1520187Y773107D01*
G01X-1511266Y784733D01*
G01X-1505658Y798271D01*
G01X-1503745Y812800D01*
G01X-1505658Y827329D01*
G01X-1511266Y840867D01*
G01X-1520187Y852493D01*
G01X-1531812Y861413D01*
G01X-1545351Y867021D01*
G01X-1559879Y868934D01*
G01X-1574408Y867021D01*
G01X-1587946Y861413D01*
G01X-1599572Y852493D01*
G01X-1608493Y840867D01*
G01X-1614101Y827329D01*
G01X-1616013Y812800D01*
G01X-1616013Y812800D01*
G01X-2303380Y812800D01*
G01X-2279882Y876300D01*
G01X-1084834Y876300D01*
G01X-1082921Y861771D01*
G01X-1077313Y848233D01*
G01X-1068393Y836607D01*
G01X-1056767Y827687D01*
G01X-1043229Y822079D01*
G01X-1028700Y820166D01*
G01X-1014171Y822079D01*
G01X-1000633Y827687D01*
G01X-989007Y836607D01*
G01X-987785Y838200D01*
G01X-106934Y838200D01*
G01X-105021Y823671D01*
G01X-99413Y810133D01*
G01X-90493Y798507D01*
G01X-78867Y789587D01*
G01X-65329Y783979D01*
G01X-50800Y782066D01*
G01X-36271Y783979D01*
G01X-22733Y789587D01*
G01X-11107Y798507D01*
G01X-2187Y810133D01*
G01X3421Y823671D01*
G01X5334Y838200D01*
G01X3421Y852729D01*
G01X-2187Y866267D01*
G01X-11107Y877893D01*
G01X-22733Y886813D01*
G01X-36271Y892421D01*
G01X-50800Y894334D01*
G01X-65329Y892421D01*
G01X-78867Y886813D01*
G01X-90493Y877893D01*
G01X-99413Y866267D01*
G01X-105021Y852729D01*
G01X-106934Y838200D01*
G01X-106934Y838200D01*
G01X-987785Y838200D01*
G01X-980087Y848233D01*
G01X-974479Y861771D01*
G01X-972566Y876300D01*
G01X-974479Y890829D01*
G01X-980087Y904367D01*
G01X-989007Y915993D01*
G01X-1000633Y924913D01*
G01X-1014171Y930521D01*
G01X-1028700Y932434D01*
G01X-1043229Y930521D01*
G01X-1056767Y924913D01*
G01X-1068393Y915993D01*
G01X-1077313Y904367D01*
G01X-1082921Y890829D01*
G01X-1084834Y876300D01*
G01X-1084834Y876300D01*
G01X-2279882Y876300D01*
G01X-2274475Y890911D01*
G01X-2255259Y937364D01*
G01X-261507Y937364D01*
G01X-260159Y922649D01*
G01X-255018Y908795D01*
G01X-246440Y896762D01*
G01X-235020Y887385D01*
G01X-221548Y881314D01*
G01X-206958Y878968D01*
G01X-206958Y878968D01*
G01X-192262Y880510D01*
G01X-178477Y885835D01*
G01X-166560Y894572D01*
G01X-157335Y906116D01*
G01X-151443Y919667D01*
G01X-149291Y934286D01*
G01X-149944Y939800D01*
G01X553466Y939800D01*
G01X555379Y925271D01*
G01X560987Y911733D01*
G01X569907Y900107D01*
G01X581533Y891187D01*
G01X595071Y885579D01*
G01X609600Y883666D01*
G01X624129Y885579D01*
G01X637667Y891187D01*
G01X649293Y900107D01*
G01X658213Y911733D01*
G01X663821Y925271D01*
G01X665734Y939800D01*
G01X663821Y954329D01*
G01X658213Y967867D01*
G01X649293Y979493D01*
G01X637667Y988413D01*
G01X632388Y990600D01*
G01X983666Y990600D01*
G01X985579Y976071D01*
G01X991186Y962533D01*
G01X1000107Y950907D01*
G01X1011733Y941987D01*
G01X1025271Y936379D01*
G01X1039800Y934466D01*
G01X1054328Y936379D01*
G01X1067867Y941987D01*
G01X1079493Y950907D01*
G01X1088413Y962533D01*
G01X1094021Y976071D01*
G01X1095934Y990600D01*
G01X1094021Y1005129D01*
G01X1088413Y1018667D01*
G01X1079493Y1030293D01*
G01X1067867Y1039213D01*
G01X1054328Y1044821D01*
G01X1039800Y1046734D01*
G01X1025271Y1044821D01*
G01X1011733Y1039213D01*
G01X1000107Y1030293D01*
G01X991186Y1018667D01*
G01X985579Y1005129D01*
G01X983666Y990600D01*
G01X983666Y990600D01*
G01X632388Y990600D01*
G01X624129Y994021D01*
G01X609600Y995934D01*
G01X595071Y994021D01*
G01X581533Y988413D01*
G01X569907Y979493D01*
G01X560987Y967867D01*
G01X555379Y954329D01*
G01X553466Y939800D01*
G01X553466Y939800D01*
G01X-149944Y939800D01*
G01X-151028Y948961D01*
G01X-156535Y962674D01*
G01X-165429Y974474D01*
G01X-155902Y985769D01*
G01X-149652Y999159D01*
G01X-147112Y1013717D01*
G01X-148460Y1028432D01*
G01X-153601Y1042286D01*
G01X-162179Y1054318D01*
G01X-173600Y1063695D01*
G01X-179601Y1066400D01*
G01X502666Y1066400D01*
G01X504579Y1051871D01*
G01X510187Y1038333D01*
G01X519107Y1026707D01*
G01X530733Y1017786D01*
G01X544271Y1012179D01*
G01X558800Y1010266D01*
G01X573329Y1012179D01*
G01X586867Y1017786D01*
G01X598493Y1026707D01*
G01X607413Y1038333D01*
G01X613021Y1051871D01*
G01X614934Y1066400D01*
G01X613021Y1080928D01*
G01X607413Y1094467D01*
G01X598493Y1106093D01*
G01X586867Y1115013D01*
G01X573329Y1120621D01*
G01X558800Y1122534D01*
G01X544271Y1120621D01*
G01X530733Y1115013D01*
G01X519107Y1106093D01*
G01X510187Y1094467D01*
G01X504579Y1080928D01*
G01X502666Y1066400D01*
G01X502666Y1066400D01*
G01X-179601Y1066400D01*
G01X-187072Y1069767D01*
G01X-201661Y1072113D01*
G01X-216357Y1070570D01*
G01X-230142Y1065246D01*
G01X-242059Y1056509D01*
G01X-251284Y1044965D01*
G01X-257176Y1031414D01*
G01X-259328Y1016794D01*
G01X-257591Y1002120D01*
G01X-252084Y988407D01*
G01X-243190Y976607D01*
G01X-252718Y965311D01*
G01X-258968Y951921D01*
G01X-261507Y937364D01*
G01X-2255259Y937364D01*
G01X-2239176Y976243D01*
G01X-2200676Y1060180D01*
G01X-2172832Y1115289D01*
G01X-1171423Y1115289D01*
G01X-1169510Y1100760D01*
G01X-1163902Y1087222D01*
G01X-1154982Y1075596D01*
G01X-1143356Y1066675D01*
G01X-1129817Y1061068D01*
G01X-1115289Y1059155D01*
G01X-1100760Y1061068D01*
G01X-1087222Y1066675D01*
G01X-1075596Y1075596D01*
G01X-1066675Y1087222D01*
G01X-1061068Y1100760D01*
G01X-1059155Y1115289D01*
G01X-1061068Y1129817D01*
G01X-1066675Y1143356D01*
G01X-1075596Y1154982D01*
G01X-1087222Y1163902D01*
G01X-1100760Y1169510D01*
G01X-1115289Y1171423D01*
G01X-1129817Y1169510D01*
G01X-1143356Y1163902D01*
G01X-1154982Y1154982D01*
G01X-1163902Y1143356D01*
G01X-1169510Y1129817D01*
G01X-1171423Y1115289D01*
G01X-1171423Y1115289D01*
G01X-2172832Y1115289D01*
G01X-2159032Y1142602D01*
G01X-2137717Y1181100D01*
G01X285915Y1181100D01*
G01X287694Y1166451D01*
G01X292927Y1152652D01*
G01X301310Y1140508D01*
G01X312355Y1130722D01*
G01X325422Y1123864D01*
G01X339750Y1120332D01*
G01X354507Y1120332D01*
G01X368836Y1123864D01*
G01X381902Y1130722D01*
G01X392948Y1140508D01*
G01X401331Y1152652D01*
G01X406564Y1166451D01*
G01X406801Y1168400D01*
G01X590702Y1168400D01*
G01X592458Y1154471D01*
G01X597615Y1141413D01*
G01X605851Y1130043D01*
G01X616651Y1121073D01*
G01X629339Y1115063D01*
G01X643121Y1112389D01*
G01X657136Y1113219D01*
G01X670506Y1117501D01*
G01X682396Y1124966D01*
G01X858309Y1124966D01*
G01X858543Y1124732D01*
G01X858543Y1124732D01*
G01X861671Y1111046D01*
G01X868098Y1098564D01*
G01X877421Y1088067D01*
G01X889058Y1080212D01*
G01X902279Y1075490D01*
G01X916259Y1074197D01*
G01X930122Y1076413D01*
G01X943002Y1081999D01*
G01X954093Y1090607D01*
G01X962701Y1101698D01*
G01X968287Y1114578D01*
G01X970503Y1128441D01*
G01X969210Y1142421D01*
G01X964488Y1155642D01*
G01X956633Y1167279D01*
G01X946136Y1176602D01*
G01X933654Y1183029D01*
G01X919968Y1186157D01*
G01X907012Y1199112D01*
G01X898017Y1206015D01*
G01X887542Y1210354D01*
G01X876300Y1211834D01*
G01X682396Y1211834D01*
G01X670506Y1219299D01*
G01X657136Y1223581D01*
G01X643121Y1224411D01*
G01X629339Y1221737D01*
G01X616651Y1215727D01*
G01X605851Y1206757D01*
G01X597615Y1195387D01*
G01X592458Y1182329D01*
G01X590702Y1168400D01*
G01X406801Y1168400D01*
G01X408343Y1181100D01*
G01X406564Y1195749D01*
G01X401331Y1209548D01*
G01X392948Y1221692D01*
G01X381902Y1231478D01*
G01X368836Y1238336D01*
G01X354507Y1241868D01*
G01X339750Y1241868D01*
G01X325422Y1238336D01*
G01X312355Y1231478D01*
G01X301310Y1221692D01*
G01X292927Y1209548D01*
G01X287694Y1195749D01*
G01X285915Y1181100D01*
G01X285915Y1181100D01*
G01X-2137717Y1181100D01*
G01X-2114302Y1223391D01*
G01X-2066550Y1302432D01*
G01X-2046496Y1318878D01*
G01X-2024386Y1332434D01*
G01X-2000633Y1342847D01*
G01X-1975681Y1349922D01*
G01X-1949998Y1353527D01*
G01X-1924063Y1353594D01*
G01X-1898361Y1350123D01*
G01X-1873373Y1343178D01*
G01X-1849566Y1332888D01*
G01X-1827386Y1319448D01*
G01X-1807246Y1303106D01*
G01X-1779862Y1278537D01*
G01X-1750062Y1256960D01*
G01X-1718172Y1238613D01*
G01X-1684541Y1223696D01*
G01X-1649536Y1212372D01*
G01X-1613540Y1204764D01*
G01X-1576947Y1200956D01*
G01X-1540156Y1200990D01*
G01X-1503569Y1204864D01*
G01X-1467587Y1212537D01*
G01X-1432603Y1223925D01*
G01X-1398999Y1238903D01*
G01X-1367142Y1257308D01*
G01X-1337382Y1278939D01*
G01X-1310042Y1303558D01*
G01X-1285422Y1330897D01*
G01X-1269684Y1352550D01*
G01X-862584Y1352550D01*
G01X-860671Y1338021D01*
G01X-855063Y1324483D01*
G01X-846143Y1312857D01*
G01X-834517Y1303937D01*
G01X-820979Y1298329D01*
G01X-806450Y1296416D01*
G01X-791921Y1298329D01*
G01X-778383Y1303937D01*
G01X-766757Y1312857D01*
G01X-757837Y1324483D01*
G01X-754102Y1333500D01*
G01X591566Y1333500D01*
G01X593479Y1318971D01*
G01X599087Y1305433D01*
G01X608007Y1293807D01*
G01X619633Y1284887D01*
G01X633171Y1279279D01*
G01X647700Y1277366D01*
G01X662229Y1279279D01*
G01X675767Y1284887D01*
G01X687393Y1293807D01*
G01X696313Y1305433D01*
G01X701921Y1318971D01*
G01X703834Y1333500D01*
G01X701921Y1348029D01*
G01X696313Y1361567D01*
G01X687393Y1373193D01*
G01X675767Y1382113D01*
G01X662229Y1387721D01*
G01X647700Y1389634D01*
G01X633171Y1387721D01*
G01X619633Y1382113D01*
G01X608007Y1373193D01*
G01X599087Y1361567D01*
G01X593479Y1348029D01*
G01X591566Y1333500D01*
G01X591566Y1333500D01*
G01X-754102Y1333500D01*
G01X-752229Y1338021D01*
G01X-750316Y1352550D01*
G01X-752229Y1367079D01*
G01X-757837Y1380617D01*
G01X-766757Y1392243D01*
G01X-778383Y1401163D01*
G01X-791921Y1406771D01*
G01X-806450Y1408684D01*
G01X-820979Y1406771D01*
G01X-834517Y1401163D01*
G01X-846143Y1392243D01*
G01X-855063Y1380617D01*
G01X-860671Y1367079D01*
G01X-862584Y1352550D01*
G01X-862584Y1352550D01*
G01X-1269684Y1352550D01*
G01X-1263791Y1360658D01*
G01X-1245385Y1392514D01*
G01X-1230406Y1426117D01*
G01X-1223347Y1447800D01*
G01X705866Y1447800D01*
G01X707779Y1433271D01*
G01X713387Y1419733D01*
G01X722307Y1408107D01*
G01X733933Y1399187D01*
G01X747471Y1393579D01*
G01X762000Y1391666D01*
G01X776529Y1393579D01*
G01X790067Y1399187D01*
G01X801693Y1408107D01*
G01X810613Y1419733D01*
G01X816221Y1433271D01*
G01X818134Y1447800D01*
G01X816221Y1462329D01*
G01X810613Y1475867D01*
G01X801693Y1487493D01*
G01X790067Y1496413D01*
G01X776529Y1502021D01*
G01X762000Y1503934D01*
G01X747471Y1502021D01*
G01X733933Y1496413D01*
G01X722307Y1487493D01*
G01X713387Y1475867D01*
G01X707779Y1462329D01*
G01X705866Y1447800D01*
G01X705866Y1447800D01*
G01X-1223347Y1447800D01*
G01X-1219017Y1461101D01*
G01X-1211343Y1497083D01*
G01X-1207468Y1533669D01*
G01X-1207433Y1570460D01*
G01X-1211240Y1607054D01*
G01X-1218847Y1643050D01*
G01X-1220351Y1647699D01*
G01X-500633Y1647699D01*
G01X-498720Y1633171D01*
G01X-493112Y1619632D01*
G01X-484191Y1608007D01*
G01X-472566Y1599086D01*
G01X-459027Y1593478D01*
G01X-444499Y1591565D01*
G01X-429970Y1593478D01*
G01X-416432Y1599086D01*
G01X-404806Y1608007D01*
G01X-395885Y1619632D01*
G01X-390277Y1633171D01*
G01X-390024Y1635098D01*
G01X929386Y1635098D01*
G01X931300Y1620566D01*
G01X936910Y1607024D01*
G01X945835Y1595397D01*
G01X936912Y1583772D01*
G01X931301Y1570234D01*
G01X929386Y1555704D01*
G01X931297Y1541174D01*
G01X936904Y1527634D01*
G01X945825Y1516006D01*
G01X957451Y1507084D01*
G01X970990Y1501475D01*
G01X985520Y1499562D01*
G01X985520Y1499562D01*
G01X1000050Y1501475D01*
G01X1013589Y1507084D01*
G01X1025215Y1516006D01*
G01X1034136Y1527634D01*
G01X1039743Y1541174D01*
G01X1041654Y1555704D01*
G01X1039739Y1570234D01*
G01X1034128Y1583772D01*
G01X1025205Y1595397D01*
G01X1034130Y1607024D01*
G01X1039740Y1620566D01*
G01X1041654Y1635098D01*
G01X1048766Y1635098D01*
G01X1050680Y1620566D01*
G01X1056290Y1607024D01*
G01X1065215Y1595397D01*
G01X1056358Y1583886D01*
G01X1050750Y1570488D01*
G01X1048767Y1556100D01*
G01X1050543Y1541684D01*
G01X1055958Y1528207D01*
G01X1064649Y1516570D01*
G01X1055937Y1504896D01*
G01X1050522Y1491374D01*
G01X1048769Y1476913D01*
G01X1050795Y1462489D01*
G01X1056464Y1449071D01*
G01X1065395Y1437564D01*
G01X1076986Y1428742D01*
G01X1090457Y1423199D01*
G01X1104900Y1421310D01*
G01X1119343Y1423199D01*
G01X1132814Y1428742D01*
G01X1144405Y1437564D01*
G01X1153336Y1449071D01*
G01X1159005Y1462489D01*
G01X1161031Y1476913D01*
G01X1159278Y1491374D01*
G01X1153863Y1504896D01*
G01X1145151Y1516570D01*
G01X1153842Y1528207D01*
G01X1159257Y1541684D01*
G01X1161033Y1556100D01*
G01X1159050Y1570488D01*
G01X1153442Y1583886D01*
G01X1144585Y1595397D01*
G01X1144585Y1595397D01*
G01X1153510Y1607024D01*
G01X1159120Y1620566D01*
G01X1161034Y1635098D01*
G01X1159120Y1649630D01*
G01X1153510Y1663172D01*
G01X1144585Y1674799D01*
G01X1153508Y1686424D01*
G01X1159119Y1699963D01*
G01X1161034Y1714492D01*
G01X1159123Y1729022D01*
G01X1153516Y1742563D01*
G01X1144595Y1754190D01*
G01X1132969Y1763112D01*
G01X1119430Y1768721D01*
G01X1104900Y1770634D01*
G01X1090370Y1768721D01*
G01X1076831Y1763112D01*
G01X1065205Y1754190D01*
G01X1056284Y1742563D01*
G01X1050677Y1729022D01*
G01X1048766Y1714492D01*
G01X1050681Y1699963D01*
G01X1056292Y1686424D01*
G01X1065215Y1674799D01*
G01X1056290Y1663172D01*
G01X1050680Y1649630D01*
G01X1048766Y1635098D01*
G01X1041654Y1635098D01*
G01X1039740Y1649630D01*
G01X1034130Y1663172D01*
G01X1025205Y1674799D01*
G01X1034128Y1686424D01*
G01X1039739Y1699963D01*
G01X1041654Y1714492D01*
G01X1039743Y1729022D01*
G01X1034136Y1742563D01*
G01X1025215Y1754190D01*
G01X1013589Y1763112D01*
G01X1000050Y1768721D01*
G01X985520Y1770634D01*
G01X970990Y1768721D01*
G01X957451Y1763112D01*
G01X945825Y1754190D01*
G01X936904Y1742563D01*
G01X931297Y1729022D01*
G01X929386Y1714492D01*
G01X931301Y1699963D01*
G01X936912Y1686424D01*
G01X945835Y1674799D01*
G01X936910Y1663172D01*
G01X931300Y1649630D01*
G01X929386Y1635098D01*
G01X-390024Y1635098D01*
G01X-388365Y1647699D01*
G01X-390277Y1662228D01*
G01X-395885Y1675766D01*
G01X-404806Y1687392D01*
G01X-416432Y1696313D01*
G01X-429970Y1701921D01*
G01X-444499Y1703833D01*
G01X-459027Y1701921D01*
G01X-472566Y1696313D01*
G01X-484191Y1687392D01*
G01X-493112Y1675766D01*
G01X-498720Y1662228D01*
G01X-500633Y1647699D01*
G01X-500633Y1647699D01*
G01X-1220351Y1647699D01*
G01X-1230171Y1678055D01*
G01X-1245087Y1711686D01*
G01X-1263433Y1743577D01*
G01X-1285009Y1773378D01*
G01X-1309578Y1800763D01*
G01X-1326368Y1821564D01*
G01X-1340069Y1844518D01*
G01X-1346552Y1859976D01*
G01X705866Y1859976D01*
G01X707779Y1845447D01*
G01X713387Y1831909D01*
G01X722307Y1820283D01*
G01X733933Y1811362D01*
G01X747471Y1805755D01*
G01X762000Y1803842D01*
G01X776529Y1805755D01*
G01X790067Y1811362D01*
G01X801693Y1820283D01*
G01X810613Y1831909D01*
G01X816221Y1845447D01*
G01X818134Y1859976D01*
G01X816221Y1874505D01*
G01X810613Y1888043D01*
G01X801693Y1899669D01*
G01X790067Y1908589D01*
G01X776529Y1914197D01*
G01X762000Y1916110D01*
G01X747471Y1914197D01*
G01X733933Y1908589D01*
G01X722307Y1899669D01*
G01X713387Y1888043D01*
G01X707779Y1874505D01*
G01X705866Y1859976D01*
G01X705866Y1859976D01*
G01X-1346552Y1859976D01*
G01X-1350408Y1869169D01*
G01X-1357182Y1895029D01*
G01X-1359806Y1917700D01*
G01X-322834Y1917700D01*
G01X-320921Y1903171D01*
G01X-315313Y1889633D01*
G01X-306393Y1878007D01*
G01X-294767Y1869087D01*
G01X-281229Y1863479D01*
G01X-266700Y1861566D01*
G01X-252171Y1863479D01*
G01X-238633Y1869087D01*
G01X-227007Y1878007D01*
G01X-218087Y1889633D01*
G01X-212479Y1903171D01*
G01X-210566Y1917700D01*
G01X-212479Y1932229D01*
G01X-218087Y1945767D01*
G01X-227007Y1957393D01*
G01X-238633Y1966313D01*
G01X-252171Y1971921D01*
G01X-266700Y1973834D01*
G01X-281229Y1971921D01*
G01X-294767Y1966313D01*
G01X-306393Y1957393D01*
G01X-315313Y1945767D01*
G01X-320921Y1932229D01*
G01X-322834Y1917700D01*
G01X-322834Y1917700D01*
G01X-1359806Y1917700D01*
G01X-1360255Y1921584D01*
G01X-1359567Y1948307D01*
G01X-1355131Y1974668D01*
G01X-1347035Y2000145D01*
G01X-1335439Y2024231D01*
G01X-1320575Y2046449D01*
G01X-1302736Y2066359D01*
G01X-1218369Y2117200D01*
G01X-1132021Y2164599D01*
G01X-1043833Y2208477D01*
G01X-953947Y2248765D01*
G37*
G54D10*
G01X-953947Y2248765D02*
G01X696193Y2248765D01*
G03X736600Y2153666I40407J-38965D01*
G03X777007Y2248765I0J56134D01*
G01X953946Y2248765D01*
G02X1302433Y2066549I-953946J-2248765D01*
G02X1303106Y1807247I-138089J-130011D01*
G03X1800763Y1309578I249287J-248376D01*
G02X2066358Y1302737I129307J-138918D01*
G02X2189264Y1083550I-2066358J-1302737D01*
G03X2222637Y1062916I33236J16450D01*
G01X2399986Y1062916D01*
G02X2512916Y950000I14J-112916D01*
G01X2512916Y-949986D01*
G02X2400000Y-1062915I-112916J-14D01*
G01X2222701Y-1062916D01*
G01X2221464Y-1062937D01*
G03X2189124Y-1084233I1284J-37153D01*
G02X2067071Y-1301940I-2189127J1084227D01*
G02X1807247Y-1303106I-130532J137596D01*
G03X1309584Y-1800769I-248376J-249287D01*
G02X1357644Y-1962753I-138762J-129292D01*
G01X-1352184Y-1962753D01*
G02X-1303106Y-1807247I187841J26214D01*
G03X-1800769Y-1309584I-249287J248376D01*
G02X-2065338Y-1303755I-129292J138762D01*
G02X-2335276Y-715462I2065336J1303754D01*
G01X-2335276Y716551D01*
G02X-2066550Y1302432I2335275J-716550D01*
G02X-1807246Y1303106I130012J-138088D01*
G03X-1309578Y1800763I248376J249287D01*
G02X-1302736Y2066359I138919J129308D01*
G02X-953947Y2248765I1302735J-2066358D01*
G01X-1918834Y-254000D02*
G03X-1806566Y-254000I56134J0D01*
G03X-1918834Y-254000I-56134J0D01*
G01X-1616013Y812800D02*
G03X-1503745Y812800I56134J0D01*
G03X-1616013Y812800I-56134J0D01*
G01X-1483881Y-604235D02*
G03X-1371613Y-604235I56134J0D01*
G03X-1483881Y-604235I-56134J0D01*
G01X-1331880Y-107798D02*
G03X-1219612Y-107798I56134J0D01*
G03X-1331880Y-107798I-56134J0D01*
G01X-1171423Y1115289D02*
G03X-1059155Y1115289I56134J0D01*
G03X-1171423Y1115289I-56134J0D01*
G01X-1161034Y711200D02*
G03X-1048766Y711200I56134J0D01*
G03X-1161034Y711200I-56134J0D01*
G01X-1084834Y876300D02*
G03X-972566Y876300I56134J0D01*
G03X-1084834Y876300I-56134J0D01*
G01X-1072134Y508000D02*
G03X-959866Y508000I56134J0D01*
G03X-1072134Y508000I-56134J0D01*
G01X-1008634Y-1295400D02*
G03X-896366Y-1295400I56134J0D01*
G03X-1008634Y-1295400I-56134J0D01*
G01X-851173Y319965D02*
G03X-820460Y223611I38582J-40774D01*
G03X-725949Y187627I55929J4789D01*
G03X-756662Y283980I-38582J40774D01*
G03X-851173Y319965I-55929J-4789D01*
G01X-862584Y1352550D02*
G03X-750316Y1352550I56134J0D01*
G03X-862584Y1352550I-56134J0D01*
G01X-789017Y-494414D02*
G03X-666589Y-494414I61214J0D01*
G03X-789017Y-494414I-61214J0D01*
G01X-691134Y355600D02*
G03X-578866Y355600I56134J0D01*
G03X-691134Y355600I-56134J0D01*
G01X-627634Y685800D02*
G03X-515366Y685800I56134J0D01*
G03X-627634Y685800I-56134J0D01*
G01X-482482Y-272034D02*
G03X-442650Y-176466I-118J56134D01*
G03X-482883Y-81066I-40115J39266D01*
G03X-522715Y-176634I118J-56134D01*
G03X-482482Y-272034I40115J-39266D01*
G01X-514654Y-410241D02*
G03X-392226Y-410241I61214J0D01*
G03X-514654Y-410241I-61214J0D01*
G01X-500633Y1647699D02*
G03X-388365Y1647699I56134J0D01*
G03X-500633Y1647699I-56134J0D01*
G01X-480591Y716438D02*
G03X-358163Y716438I61214J0D01*
G03X-480591Y716438I-61214J0D01*
G01X-386334Y183998D02*
G03X-274066Y183998I56134J0D01*
G03X-386334Y183998I-56134J0D01*
G01X-348234Y542366D02*
G03X-235966Y542366I56134J0D01*
G03X-348234Y542366I-56134J0D01*
G01X-336978Y14144D02*
G03X-224710Y14144I56134J0D01*
G03X-336978Y14144I-56134J0D01*
G01X-322834Y1917700D02*
G03X-210566Y1917700I56134J0D01*
G03X-322834Y1917700I-56134J0D01*
G01X-272034Y-177800D02*
G03X-159766Y-177800I56134J0D01*
G03X-272034Y-177800I-56134J0D01*
G01X-206958Y878968D02*
G03X-165429Y974474I1539J56113D01*
G03X-201661Y1072113I-37771J41526D01*
G03X-243190Y976607I-1539J-56113D01*
G03X-206958Y878968I37771J-41526D01*
G01X-226314Y-355600D02*
G03X-103886Y-355600I61214J0D01*
G03X-226314Y-355600I-61214J0D01*
G01X-106934Y838200D02*
G03X5334Y838200I56134J0D01*
G03X-106934Y838200I-56134J0D01*
G01X79681Y612265D02*
G03X67928Y713857I-28881J48135D01*
G03X-16181Y772035I-55228J10043D01*
G03X-4428Y670443I28881J-48135D01*
G03X79681Y612265I55228J-10043D01*
G01X44104Y516428D02*
G03X-42670Y460672I-31404J-46528D01*
G03X57496Y436072I55370J9228D01*
G03X144952Y479567I31404J46528D01*
G03X181612Y575312I-3033J56052D01*
G03X85867Y538652I-39693J-39693D01*
G03X44104Y516428I3033J-56052D01*
G01X40386Y-342900D02*
G03X162814Y-342900I61214J0D01*
G03X40386Y-342900I-61214J0D01*
G01X193258Y-144308D02*
G03X96392Y-179037I-40858J-38492D01*
G03X187742Y-226412I56008J-3763D01*
G03X248869Y-240267I40858J38492D01*
G03X284726Y-188860I-20269J52347D01*
G03X349902Y-104132I18989J52825D01*
G03X247589Y-135095I-46187J-31903D01*
G03X193258Y-144308I-18989J-52825D01*
G01X218186Y-342900D02*
G03X340614Y-342900I61214J0D01*
G03X218186Y-342900I-61214J0D01*
G01X248666Y-1663700D02*
G03X360934Y-1663700I56134J0D01*
G03X248666Y-1663700I-56134J0D01*
G01X248666Y355600D02*
G03X360934Y355600I56134J0D01*
G03X248666Y355600I-56134J0D01*
G01X261402Y480578D02*
G03X352075Y438378I56098J2022D01*
G03X439472Y486997I31300J46597D01*
G03X348800Y529197I-56098J-2022D01*
G03X261402Y480578I-31300J-46597D01*
G01X406061Y70976D02*
G03X385984Y171612I-32366J45864D01*
G03X297895Y224252I-55724J6776D01*
G03X317972Y123616I32366J-45864D01*
G03X406061Y70976I55724J-6776D01*
G01X285915Y1181100D02*
G03X408343Y1181100I61214J0D01*
G03X285915Y1181100I-61214J0D01*
G01X369592Y-1331395D02*
G03X481860Y-1331395I56134J0D01*
G03X369592Y-1331395I-56134J0D01*
G01X398272Y-127000D02*
G03X510540Y-127000I56134J0D01*
G03X398272Y-127000I-56134J0D01*
G01X439166Y533400D02*
G03X551434Y533400I56134J0D01*
G03X439166Y533400I-56134J0D01*
G01X502666Y1066400D02*
G03X614934Y1066400I56134J0D01*
G03X502666Y1066400I-56134J0D01*
G01X573474Y220773D02*
G03X617434Y310634I-907J56127D01*
G03X570593Y399027I-45934J32266D01*
G03X526633Y309166I907J-56127D01*
G03X573474Y220773I45934J-32266D01*
G01X553466Y939800D02*
G03X665734Y939800I56134J0D01*
G03X553466Y939800I-56134J0D01*
G01X566166Y-279400D02*
G03X678434Y-279400I56134J0D01*
G03X566166Y-279400I-56134J0D01*
G01X858543Y1124732D02*
G03X954093Y1090607I55857J5568D01*
G03X919968Y1186157I-39693J39693D01*
G01X907012Y1199112D01*
G03X876300Y1211834I-30712J-30712D01*
G01X682396Y1211834D01*
G03X590702Y1168400I-35560J-43434D01*
G03X682396Y1124966I56134J0D01*
G01X858309Y1124966D01*
G01X858543Y1124732D01*
G01X591566Y1333500D02*
G03X703834Y1333500I56134J0D01*
G03X591566Y1333500I-56134J0D01*
G01X642366Y0D02*
G03X754634Y0I56134J0D01*
G03X642366Y0I-56134J0D01*
G01X649986Y-711200D02*
G03X772414Y-711200I61214J0D01*
G03X649986Y-711200I-61214J0D01*
G01X680466Y-533400D02*
G03X792734Y-533400I56134J0D01*
G03X680466Y-533400I-56134J0D01*
G01X705866Y1859976D02*
G03X818134Y1859976I56134J0D01*
G03X705866Y1859976I-56134J0D01*
G01X705866Y1447800D02*
G03X818134Y1447800I56134J0D01*
G03X705866Y1447800I-56134J0D01*
G01X737055Y720941D02*
G03X849323Y720941I56134J0D01*
G03X737055Y720941I-56134J0D01*
G01X1093508Y791696D02*
G03X1118398Y694442I36792J-42396D01*
G03X1126794Y668733I55987J4058D01*
G03X1072922Y663687I-22349J-51493D01*
G03X1009650Y663532I-31522J-46447D01*
G03X923714Y631900I-31750J-46292D01*
G03X981977Y561254I54186J-14661D01*
G03X998681Y493050I50893J-23683D01*
G03X1068885Y494513I34190J44521D01*
G03X1146492Y499873I36015J43058D01*
G03X1144222Y577631I-41592J37698D01*
G03X1152036Y647007I-39777J39608D01*
G03X1227817Y681292I22349J51493D01*
G03X1186287Y753358I-53431J17208D01*
G03X1093508Y791696I-55987J-4058D01*
G01X985520Y1499562D02*
G03X1025205Y1595397I0J56134D01*
G03X1025205Y1674799I-39685J39701D01*
G03X985520Y1770634I-39685J39701D01*
G03X945835Y1674799I0J-56134D01*
G03X945835Y1595397I39685J-39701D01*
G03X985520Y1499562I39685J-39701D01*
G01X983666Y990600D02*
G03X1095934Y990600I56134J0D01*
G03X983666Y990600I-56134J0D01*
G01X1144585Y1595397D02*
G03X1144585Y1674799I-39685J39701D01*
G03X1104900Y1770634I-39685J39701D01*
G03X1065215Y1674799I0J-56134D01*
G03X1065215Y1595397I39685J-39701D01*
G03X1064649Y1516570I39685J-39701D01*
G03X1104900Y1421310I40251J-39126D01*
G03X1145151Y1516570I0J56134D01*
G03X1144585Y1595397I-40251J39126D01*
G01X1277366Y-317500D02*
G03X1389634Y-317500I56134J0D01*
G03X1277366Y-317500I-56134J0D01*
G01X1421237Y-448671D02*
G03X1533505Y-448671I56134J0D01*
G03X1421237Y-448671I-56134J0D01*
G01X2103946Y494060D02*
G03X2005476Y457200I-42336J-36860D01*
G03X2103946Y420340I56134J0D01*
G03X2188619Y420340I42336J36860D01*
G03X2273291Y420340I42336J36860D01*
G03X2357964Y420340I42336J36860D01*
G03X2456434Y457200I42336J36860D01*
G03X2357964Y494060I-56134J0D01*
G03X2273291Y494060I-42336J-36860D01*
G03X2188619Y494060I-42336J-36860D01*
G03X2103946Y494060I-42336J-36860D01*
G01X2460234Y-873506D02*
G03X2238766Y-873506I-110734J0D01*
G03X2460234Y-873506I110734J0D01*
G04 Copper End*

G04 Pad Start*
G54D11*
G01X-1558869Y1552394D03*
G01X-1552392Y-1558873D03*
G01X1552392Y1558871D03*
G01X1558869Y-1552391D03*
G54D12*
G01X2349500Y-523494D03*
G01X2349500Y-873506D03*
G04 Pad End*

G04 Via Start*
G54D13*
G01X-1766697Y1551703D03*
G01X-1760220Y-1559558D03*
G01X-1706316Y1698860D03*
G01X-1705341Y1404952D03*
G01X-1699834Y-1412401D03*
G01X-1698864Y-1706315D03*
G01X-1559560Y1760222D03*
G01X-1558183Y1344566D03*
G01X-1553083Y-1351045D03*
G01X-1551701Y-1766695D03*
G01X-1412402Y1699836D03*
G01X-1411427Y1405922D03*
G01X-1405925Y-1411426D03*
G01X-1404950Y-1705339D03*
G01X-1351041Y1553085D03*
G01X-1344564Y-1558182D03*
G01X1344564Y1558180D03*
G01X1351041Y-1553081D03*
G01X1404950Y1705337D03*
G01X1405926Y1411429D03*
G01X1411427Y-1405924D03*
G01X1412403Y-1699838D03*
G01X1551701Y1766699D03*
G01X1553083Y1351043D03*
G01X1558178Y-1344563D03*
G01X1559560Y-1760218D03*
G01X1698859Y1706313D03*
G01X1699834Y1412404D03*
G01X1705341Y-1404949D03*
G01X1706316Y-1698862D03*
G01X1760220Y1559562D03*
G01X1766697Y-1551705D03*
G01X762000Y1859976D03*
G01X-1559879Y812800D03*
G01X-1862700Y-254000D03*
G01X-952500Y-1295400D03*
G01X304800Y-1663700D03*
G01X-444499Y1647699D03*
G01X-266700Y1917700D03*
G01X-1427747Y-604235D03*
G01X1104900Y1714500D03*
G01X1104900Y1635098D03*
G01X1104900Y1555696D03*
G01X1104900Y1477444D03*
G01X985520Y1714500D03*
G01X985520Y1635098D03*
G01X-1275746Y-107798D03*
G01X425726Y-1331395D03*
G01X1879600Y914400D03*
G01X1879600Y832005D03*
G01X2467686Y783828D03*
G01X2467686Y858849D03*
G01X2467686Y931002D03*
G01X2389543Y783828D03*
G01X2389543Y858849D03*
G01X2389543Y931002D03*
G01X2311400Y783828D03*
G01X1879600Y749610D03*
G01X1230477Y1311656D03*
G01X1230477Y1227328D03*
G01X1315375Y1227328D03*
G01X1230477Y1143000D03*
G01X1315375Y1143000D03*
G01X1315375Y1058672D03*
G01X1230477Y1058672D03*
G01X-1351235Y714375D03*
G01X-1297260Y660400D03*
G01X-1243285Y606425D03*
G01X-1141685Y504825D03*
G01X-1297947Y549943D03*
G01X985520Y1555696D03*
G01X-1476433Y508001D03*
G01X863600Y1294371D03*
G01X939800Y1294371D03*
G01X1016000Y1294371D03*
G01X1016000Y1384300D03*
G01X939800Y1384300D03*
G01X1088146Y-1147086D03*
G01X1035384Y-1199609D03*
G01X983628Y-1159786D03*
G01X1035384Y-1098945D03*
G01X673100Y-900019D03*
G01X722775Y-945211D03*
G01X1039800Y990600D03*
G01X1714500Y1016000D03*
G01X1714500Y1092200D03*
G01X1714500Y939800D03*
G01X1803400Y863600D03*
G01X1803400Y939800D03*
G01X1803400Y1016000D03*
G01X1803400Y1092200D03*
G01X1803400Y1168400D03*
G01X1714500Y1168400D03*
G01X1803400Y1244600D03*
G01X1892300Y1320800D03*
G01X1892300Y1168400D03*
G01X1892300Y1244600D03*
G01X1981200Y1320800D03*
G01X1981200Y1244600D03*
G01X2451100Y38100D03*
G01X2374900Y38100D03*
G01X2298700Y38100D03*
G01X2451100Y-38100D03*
G01X2374900Y-38100D03*
G01X2298700Y-38100D03*
G01X647700Y1333500D03*
G01X1266582Y-840272D03*
G01X1447800Y-952500D03*
G01X1518873Y-952500D03*
G01X-330200Y183998D03*
G01X1587500Y-952500D03*
G01X2400300Y457200D03*
G01X2315628Y457200D03*
G01X2146282Y457200D03*
G01X2061610Y457200D03*
G01X2230955Y457200D03*
G01X1130300Y-127000D03*
G01X914400Y1130300D03*
G01X-762000Y-1676400D03*
G01X-914400Y-1676400D03*
G01X-838200Y-1676400D03*
G01X-762000Y-1612900D03*
G01X-914400Y-1612900D03*
G01X-838200Y-1612900D03*
G01X-685800Y-1612900D03*
G01X-685800Y-1676400D03*
G01X646836Y1168400D03*
G01X1117600Y-508000D03*
G01X-1242597Y716882D03*
G01X-1296572Y770857D03*
G01X-1188622Y662907D03*
G01X-977900Y-1155700D03*
G01X-1041400Y-1092200D03*
G01X-841162Y-114305D03*
G01X-771618Y-114305D03*
G01X-910705Y-114305D03*
G01X-768649Y-25754D03*
G01X-838192Y-25754D03*
G01X-907736Y-25754D03*
G01X496164Y1181100D03*
G01X889000Y1778000D03*
G01X-1371600Y-952500D03*
G01X-1308100Y-1016000D03*
G01X-1397000Y-762000D03*
G01X-1397000Y-851802D03*
G01X-618678Y1292175D03*
G01X762000Y1447800D03*
G01X141919Y535619D03*
G01X-292100Y542366D03*
G01X-482765Y-137200D03*
G01X-482600Y-215900D03*
G01X-812591Y279191D03*
G01X-764531Y228400D03*
G01X622300Y-279400D03*
G01X303715Y-136035D03*
G01X495300Y533400D03*
G01X572567Y276900D03*
G01X454406Y-127000D03*
G01X373695Y116840D03*
G01X698500Y0D03*
G01X330261Y178388D03*
G54D14*
G01X101600Y-342900D03*
G01X279400Y-342900D03*
G54D13*
G01X152400Y-182800D03*
G01X228600Y-187920D03*
G01X-215900Y-177800D03*
G01X304800Y355600D03*
G01X571500Y342900D03*
G01X-806450Y1352550D03*
G01X-1115289Y1115289D03*
G01X-203200Y1016000D03*
G01X-205419Y935081D03*
G01X12700Y469900D03*
G01X-1016000Y508000D03*
G01X-1104900Y711200D03*
G01X50800Y660400D03*
G01X88900Y482600D03*
G01X317500Y482600D03*
G01X383375Y484975D03*
G01X12700Y723900D03*
G01X-50800Y838200D03*
G01X1333500Y-317500D03*
G01X1477371Y-448671D03*
G54D14*
G01X-727803Y-494414D03*
G54D13*
G01X977900Y617240D03*
G01X1041400Y617240D03*
G01X1104445Y617240D03*
G01X1032871Y537571D03*
G01X1104900Y537571D03*
G54D14*
G01X347129Y1181100D03*
G01X-419377Y716438D03*
G01X-453440Y-410241D03*
G01X-165100Y-355600D03*
G54D13*
G01X736600Y2209800D03*
G01X1282321Y1899067D03*
G01X-635000Y355600D03*
G01X-571500Y685800D03*
G01X-1028700Y876300D03*
G54D14*
G01X711200Y-711200D03*
G54D13*
G01X736600Y-533400D03*
G01X192126Y1282700D03*
G01X177800Y1079500D03*
G01X-348414Y809464D03*
G01X-25400Y660400D03*
G01X-596900Y266700D03*
G01X-784397Y556946D03*
G01X609600Y-1028700D03*
G01X1625600Y-878733D03*
G01X1739900Y-266700D03*
G01X1320800Y88900D03*
G01X1092200Y-50800D03*
G01X972223Y292486D03*
G01X177800Y139700D03*
G01X152400Y203200D03*
G01X-40645Y-419100D03*
G01X-114300Y-660400D03*
G01X419100Y-444500D03*
G01X-101600Y-457200D03*
G01X-546100Y-711200D03*
G01X-330200Y-120802D03*
G01X-2005870Y614642D03*
G01X-76200Y-863600D03*
G01X-280844Y14144D03*
G01X419100Y558800D03*
G01X621296Y839204D03*
G01X609600Y939800D03*
G01X558800Y1066400D03*
G01X793189Y720941D03*
G01X1174386Y698500D03*
G01X1130300Y749300D03*
G01X889000Y1968500D03*
G01X939800Y1917700D03*
G01X1003300Y1866900D03*
G01X1244600Y1993900D03*
G01X1181100Y2044700D03*
G01X1130300Y2095500D03*
G01X1066800Y2133600D03*
G01X939800Y1854200D03*
G01X876300Y1905000D03*
G01X-774700Y-977900D03*
G01X-825500Y-927100D03*
G01X-774700Y-876300D03*
G01X-723900Y-927100D03*
G01X-673100Y-876300D03*
G01X-723900Y-825500D03*
G01X-673100Y-774700D03*
G01X-622300Y-825500D03*
G01X1333500Y279400D03*
G01X-118600Y2220001D03*
G01X-33093Y2220001D03*
G01X-118600Y2146300D03*
G01X-33093Y2146300D03*
G01X-118600Y2066300D03*
G01X-33093Y2066300D03*
G01X-1952623Y669715D03*
G01X-1899801Y724524D03*
G01X-1841579Y671646D03*
G01X-1902986Y614771D03*
G01X-1968500Y558800D03*
G04 Via End*

G04 Track Start*
G54D16*
G01X646836Y1168400D02*
G01X876300Y1168400D01*
G01X914400Y1130300D01*
G04 Track End*

M02*

