G04 Layer: BottomPasteMaskLayer*
G04 EasyEDA Pro v3.2.69, 2026-03-27 19:08:31*
G04 Gerber Generator version 0.3*
G04 Scale: 100 percent, Rotated: No, Reflected: No*
G04 Dimensions in millimeters*
G04 Leading zeros omitted, absolute positions, 4 integers and 5 decimals*
G04 Generated by one-click*
%FSLAX45Y45*%
%MOMM*%
%AMRect*21,1,$1,$2,0,0,$3*%
%ADD10R,0.9X0.8*%
%ADD11R,0.8X0.9*%
%ADD12R,1.0X1.1*%
%ADD13R,1.1X1.0*%
%ADD14R,2.49999X1.7*%
%ADD15R,0.35001X0.62499*%
%ADD16R,1.15001X1.4*%
%ADD17R,1.7X0.6*%
%ADD18R,2.79999X1.0*%
%ADD19Rect,0.8035X0.9X45.0*%
%ADD20Rect,0.8X0.9X45.0*%
%ADD21O,1.5X0.27*%
%ADD22O,0.27X1.5*%
%ADD23O,2.045X0.58801*%
%ADD24Rect,0.6X1.7X45.0*%
%ADD25Rect,1.0X2.79999X45.0*%
G75*


G04 PolygonModel Start*
G36*
G01X769303Y1054600D02*
G01X774304Y1059602D01*
G01X889305Y1059602D01*
G01X894304Y1054600D01*
G01X893806Y1012604D01*
G01X849805Y1012604D01*
G01X849805Y967605D01*
G01X894806Y967605D01*
G01X894304Y926602D01*
G01X889305Y921601D01*
G01X774304Y921601D01*
G01X769303Y926602D01*
G01X769303Y1054600D01*
G37*
G36*
G01X1110298Y926600D02*
G01X1105296Y921598D01*
G01X990295Y921598D01*
G01X985296Y926600D01*
G01X985794Y968596D01*
G01X1029795Y968596D01*
G01X1029795Y1013595D01*
G01X984794Y1013595D01*
G01X985296Y1054598D01*
G01X990295Y1059599D01*
G01X1105296Y1059599D01*
G01X1110298Y1054598D01*
G01X1110298Y926600D01*
G37*
G36*
G01X1060140Y693879D02*
G01X1089515Y666460D01*
G01X1089515Y616132D01*
G01X1083114Y609731D01*
G01X1009515Y609731D01*
G01X1003114Y616132D01*
G01X1003114Y666460D01*
G01X1032489Y693879D01*
G01X1060140Y693879D01*
G37*
G36*
G01X1061265Y745444D02*
G01X1033614Y745444D01*
G01X1004239Y772863D01*
G01X1004239Y823190D01*
G01X1010640Y829591D01*
G01X1084239Y829591D01*
G01X1090640Y823190D01*
G01X1090640Y772863D01*
G01X1061265Y745444D01*
G37*
G36*
G01X-172598Y-705399D02*
G01X-252598Y-705399D01*
G01X-257599Y-700397D01*
G01X-257599Y-677601D01*
G01X-220599Y-677601D01*
G01X-220599Y-644601D01*
G01X-257599Y-644601D01*
G01X-257599Y-620398D01*
G01X-252598Y-615399D01*
G01X-172598Y-615399D01*
G01X-167599Y-620398D01*
G01X-167599Y-700397D01*
G01X-172598Y-705399D01*
G37*
G36*
G01X-411602Y-615401D02*
G01X-331602Y-615401D01*
G01X-326601Y-620403D01*
G01X-326601Y-643199D01*
G01X-363601Y-643199D01*
G01X-363601Y-676199D01*
G01X-326601Y-676199D01*
G01X-326601Y-700402D01*
G01X-331602Y-705401D01*
G01X-411602Y-705401D01*
G01X-416601Y-700402D01*
G01X-416601Y-620403D01*
G01X-411602Y-615401D01*
G37*
G36*
G01X-110019Y-1540458D02*
G01X-110019Y-1460458D01*
G01X-105018Y-1455457D01*
G01X-82221Y-1455457D01*
G01X-82221Y-1492457D01*
G01X-49221Y-1492457D01*
G01X-49221Y-1455457D01*
G01X-25018Y-1455457D01*
G01X-20019Y-1460458D01*
G01X-20019Y-1540458D01*
G01X-25018Y-1545457D01*
G01X-105018Y-1545457D01*
G01X-110019Y-1540458D01*
G37*
G36*
G01X-20022Y-1301454D02*
G01X-20022Y-1381454D01*
G01X-25023Y-1386455D01*
G01X-47819Y-1386455D01*
G01X-47819Y-1349455D01*
G01X-80819Y-1349455D01*
G01X-80819Y-1386455D01*
G01X-105023Y-1386455D01*
G01X-110021Y-1381454D01*
G01X-110021Y-1301454D01*
G01X-105023Y-1296455D01*
G01X-25023Y-1296455D01*
G01X-20022Y-1301454D01*
G37*
G36*
G01X-731666Y-1553600D02*
G01X-731666Y-1473600D01*
G01X-726665Y-1468599D01*
G01X-703868Y-1468599D01*
G01X-703868Y-1505599D01*
G01X-670869Y-1505599D01*
G01X-670869Y-1468599D01*
G01X-646665Y-1468599D01*
G01X-641666Y-1473600D01*
G01X-641666Y-1553600D01*
G01X-646665Y-1558599D01*
G01X-726665Y-1558599D01*
G01X-731666Y-1553600D01*
G37*
G36*
G01X-641669Y-1314596D02*
G01X-641669Y-1394596D01*
G01X-646670Y-1399597D01*
G01X-669467Y-1399597D01*
G01X-669467Y-1362597D01*
G01X-702466Y-1362597D01*
G01X-702466Y-1399597D01*
G01X-726670Y-1399597D01*
G01X-731669Y-1394596D01*
G01X-731669Y-1314596D01*
G01X-726670Y-1309597D01*
G01X-646670Y-1309597D01*
G01X-641669Y-1314596D01*
G37*
G36*
G01X-1815241Y-469506D02*
G01X-1735242Y-469506D01*
G01X-1730240Y-474508D01*
G01X-1730240Y-497304D01*
G01X-1767241Y-497304D01*
G01X-1767241Y-530304D01*
G01X-1730240Y-530304D01*
G01X-1730240Y-554507D01*
G01X-1735242Y-559506D01*
G01X-1815241Y-559506D01*
G01X-1820240Y-554507D01*
G01X-1820240Y-474508D01*
G01X-1815241Y-469506D01*
G37*
G36*
G01X-1576238Y-559504D02*
G01X-1656237Y-559504D01*
G01X-1661239Y-554502D01*
G01X-1661239Y-531706D01*
G01X-1624239Y-531706D01*
G01X-1624239Y-498706D01*
G01X-1661239Y-498706D01*
G01X-1661239Y-474502D01*
G01X-1656237Y-469504D01*
G01X-1576238Y-469504D01*
G01X-1571239Y-474502D01*
G01X-1571239Y-554502D01*
G01X-1576238Y-559504D01*
G37*
G36*
G01X-1675436Y711036D02*
G01X-1595436Y711036D01*
G01X-1590435Y706035D01*
G01X-1590435Y683238D01*
G01X-1627435Y683238D01*
G01X-1627435Y650239D01*
G01X-1590435Y650239D01*
G01X-1590435Y626035D01*
G01X-1595436Y621036D01*
G01X-1675436Y621036D01*
G01X-1680435Y626035D01*
G01X-1680435Y706035D01*
G01X-1675436Y711036D01*
G37*
G36*
G01X-1436432Y621039D02*
G01X-1516432Y621039D01*
G01X-1521433Y626040D01*
G01X-1521433Y648837D01*
G01X-1484433Y648837D01*
G01X-1484433Y681836D01*
G01X-1521433Y681836D01*
G01X-1521433Y706040D01*
G01X-1516432Y711039D01*
G01X-1436432Y711039D01*
G01X-1431434Y706040D01*
G01X-1431434Y626040D01*
G01X-1436432Y621039D01*
G37*
G36*
G01X-39908Y1850282D02*
G01X-39908Y1770282D01*
G01X-44909Y1765281D01*
G01X-67706Y1765281D01*
G01X-67706Y1802281D01*
G01X-100706Y1802281D01*
G01X-100706Y1765281D01*
G01X-124909Y1765281D01*
G01X-129908Y1770282D01*
G01X-129908Y1850282D01*
G01X-124909Y1855281D01*
G01X-44909Y1855281D01*
G01X-39908Y1850282D01*
G37*
G36*
G01X-129906Y1611278D02*
G01X-129906Y1691278D01*
G01X-124904Y1696280D01*
G01X-102108Y1696280D01*
G01X-102108Y1659279D01*
G01X-69108Y1659279D01*
G01X-69108Y1696280D01*
G01X-44904Y1696280D01*
G01X-39906Y1691278D01*
G01X-39906Y1611278D01*
G01X-44904Y1606280D01*
G01X-124904Y1606280D01*
G01X-129906Y1611278D01*
G37*
G36*
G01X534104Y1904141D02*
G01X534104Y1824142D01*
G01X529102Y1819140D01*
G01X506306Y1819140D01*
G01X506306Y1856141D01*
G01X473306Y1856141D01*
G01X473306Y1819140D01*
G01X449102Y1819140D01*
G01X444104Y1824142D01*
G01X444104Y1904141D01*
G01X449102Y1909140D01*
G01X529102Y1909140D01*
G01X534104Y1904141D01*
G37*
G36*
G01X444106Y1665138D02*
G01X444106Y1745137D01*
G01X449108Y1750139D01*
G01X471904Y1750139D01*
G01X471904Y1713139D01*
G01X504904Y1713139D01*
G01X504904Y1750139D01*
G01X529107Y1750139D01*
G01X534106Y1745137D01*
G01X534106Y1665138D01*
G01X529107Y1660139D01*
G01X449108Y1660139D01*
G01X444106Y1665138D01*
G37*
G36*
G01X1886499Y5202D02*
G01X1886499Y-74798D01*
G01X1881497Y-79799D01*
G01X1858701Y-79799D01*
G01X1858701Y-42799D01*
G01X1825701Y-42799D01*
G01X1825701Y-79799D01*
G01X1801498Y-79799D01*
G01X1796499Y-74798D01*
G01X1796499Y5202D01*
G01X1801498Y10201D01*
G01X1881497Y10201D01*
G01X1886499Y5202D01*
G37*
G36*
G01X1796501Y-233802D02*
G01X1796501Y-153802D01*
G01X1801503Y-148801D01*
G01X1824299Y-148801D01*
G01X1824299Y-185801D01*
G01X1857299Y-185801D01*
G01X1857299Y-148801D01*
G01X1881502Y-148801D01*
G01X1886501Y-153802D01*
G01X1886501Y-233802D01*
G01X1881502Y-238801D01*
G01X1801503Y-238801D01*
G01X1796501Y-233802D01*
G37*
G36*
G01X691002Y1136101D02*
G01X611002Y1136101D01*
G01X606001Y1141103D01*
G01X606001Y1163899D01*
G01X643001Y1163899D01*
G01X643001Y1196899D01*
G01X606001Y1196899D01*
G01X606001Y1221102D01*
G01X611002Y1226101D01*
G01X691002Y1226101D01*
G01X696001Y1221102D01*
G01X696001Y1141103D01*
G01X691002Y1136101D01*
G37*
G36*
G01X451998Y1226099D02*
G01X531998Y1226099D01*
G01X536999Y1221097D01*
G01X536999Y1198301D01*
G01X499999Y1198301D01*
G01X499999Y1165301D01*
G01X536999Y1165301D01*
G01X536999Y1141098D01*
G01X531998Y1136099D01*
G01X451998Y1136099D01*
G01X446999Y1141098D01*
G01X446999Y1221097D01*
G01X451998Y1226099D01*
G37*
G36*
G01X691002Y1288501D02*
G01X611002Y1288501D01*
G01X606001Y1293503D01*
G01X606001Y1316299D01*
G01X643001Y1316299D01*
G01X643001Y1349299D01*
G01X606001Y1349299D01*
G01X606001Y1373502D01*
G01X611002Y1378501D01*
G01X691002Y1378501D01*
G01X696001Y1373502D01*
G01X696001Y1293503D01*
G01X691002Y1288501D01*
G37*
G36*
G01X451998Y1378499D02*
G01X531998Y1378499D01*
G01X536999Y1373497D01*
G01X536999Y1350701D01*
G01X499999Y1350701D01*
G01X499999Y1317701D01*
G01X536999Y1317701D01*
G01X536999Y1293498D01*
G01X531998Y1288499D01*
G01X451998Y1288499D01*
G01X446999Y1293498D01*
G01X446999Y1373497D01*
G01X451998Y1378499D01*
G37*
G36*
G01X451134Y1531762D02*
G01X531134Y1531762D01*
G01X536136Y1526761D01*
G01X536136Y1503964D01*
G01X499135Y1503964D01*
G01X499135Y1470965D01*
G01X536136Y1470965D01*
G01X536136Y1446761D01*
G01X531134Y1441762D01*
G01X451134Y1441762D01*
G01X446136Y1446761D01*
G01X446136Y1526761D01*
G01X451134Y1531762D01*
G37*
G36*
G01X690138Y1441765D02*
G01X610138Y1441765D01*
G01X605137Y1446766D01*
G01X605137Y1469563D01*
G01X642137Y1469563D01*
G01X642137Y1502562D01*
G01X605137Y1502562D01*
G01X605137Y1526766D01*
G01X610138Y1531765D01*
G01X690138Y1531765D01*
G01X695137Y1526766D01*
G01X695137Y1446766D01*
G01X690138Y1441765D01*
G37*
G36*
G01X-172598Y-400599D02*
G01X-252598Y-400599D01*
G01X-257599Y-395597D01*
G01X-257599Y-372801D01*
G01X-220599Y-372801D01*
G01X-220599Y-339801D01*
G01X-257599Y-339801D01*
G01X-257599Y-315598D01*
G01X-252598Y-310599D01*
G01X-172598Y-310599D01*
G01X-167599Y-315598D01*
G01X-167599Y-395597D01*
G01X-172598Y-400599D01*
G37*
G36*
G01X-411602Y-310601D02*
G01X-331602Y-310601D01*
G01X-326601Y-315603D01*
G01X-326601Y-338399D01*
G01X-363601Y-338399D01*
G01X-363601Y-371399D01*
G01X-326601Y-371399D01*
G01X-326601Y-395602D01*
G01X-331602Y-400601D01*
G01X-411602Y-400601D01*
G01X-416601Y-395602D01*
G01X-416601Y-315603D01*
G01X-411602Y-310601D01*
G37*
G36*
G01X-411602Y-463001D02*
G01X-331602Y-463001D01*
G01X-326601Y-468003D01*
G01X-326601Y-490799D01*
G01X-363601Y-490799D01*
G01X-363601Y-523799D01*
G01X-326601Y-523799D01*
G01X-326601Y-548002D01*
G01X-331602Y-553001D01*
G01X-411602Y-553001D01*
G01X-416601Y-548002D01*
G01X-416601Y-468003D01*
G01X-411602Y-463001D01*
G37*
G36*
G01X-172598Y-552999D02*
G01X-252598Y-552999D01*
G01X-257599Y-547997D01*
G01X-257599Y-525201D01*
G01X-220599Y-525201D01*
G01X-220599Y-492201D01*
G01X-257599Y-492201D01*
G01X-257599Y-467998D01*
G01X-252598Y-462999D01*
G01X-172598Y-462999D01*
G01X-167599Y-467998D01*
G01X-167599Y-547997D01*
G01X-172598Y-552999D01*
G37*
G36*
G01X-692196Y-182204D02*
G01X-984194Y-182204D01*
G01X-984194Y29794D01*
G01X-692196Y29794D01*
G01X-692196Y-182204D01*
G37*
G36*
G01X-564200Y-215201D02*
G01X-630702Y-215201D01*
G01X-630702Y-187201D01*
G01X-564200Y-187201D01*
G01X-564200Y-215201D01*
G37*
G36*
G01X-564200Y-165214D02*
G01X-630702Y-165214D01*
G01X-630702Y-137213D01*
G01X-564200Y-137213D01*
G01X-564200Y-165214D01*
G37*
G36*
G01X-564200Y-115202D02*
G01X-630702Y-115202D01*
G01X-630702Y-87201D01*
G01X-564200Y-87201D01*
G01X-564200Y-115202D01*
G37*
G36*
G01X-564200Y-65214D02*
G01X-630702Y-65214D01*
G01X-630702Y-37214D01*
G01X-564200Y-37214D01*
G01X-564200Y-65214D01*
G37*
G36*
G01X-564200Y-15202D02*
G01X-630702Y-15202D01*
G01X-630702Y12799D01*
G01X-564200Y12799D01*
G01X-564200Y-15202D01*
G37*
G36*
G01X-564200Y34785D02*
G01X-630702Y34785D01*
G01X-630702Y62786D01*
G01X-564200Y62786D01*
G01X-564200Y34785D01*
G37*
G36*
G01X-649186Y81295D02*
G01X-677187Y81295D01*
G01X-677187Y147798D01*
G01X-649186Y147798D01*
G01X-649186Y81295D01*
G37*
G36*
G01X-699198Y81295D02*
G01X-727199Y81295D01*
G01X-727199Y147798D01*
G01X-699198Y147798D01*
G01X-699198Y81295D01*
G37*
G36*
G01X-749186Y81295D02*
G01X-777187Y81295D01*
G01X-777187Y147798D01*
G01X-749186Y147798D01*
G01X-749186Y81295D01*
G37*
G36*
G01X-799198Y81295D02*
G01X-827199Y81295D01*
G01X-827199Y147798D01*
G01X-799198Y147798D01*
G01X-799198Y81295D01*
G37*
G36*
G01X-849185Y81295D02*
G01X-877186Y81295D01*
G01X-877186Y147798D01*
G01X-849185Y147798D01*
G01X-849185Y81295D01*
G37*
G36*
G01X-899198Y81295D02*
G01X-927199Y81295D01*
G01X-927199Y147798D01*
G01X-899198Y147798D01*
G01X-899198Y81295D01*
G37*
G36*
G01X-949185Y81295D02*
G01X-977186Y81295D01*
G01X-977186Y147798D01*
G01X-949185Y147798D01*
G01X-949185Y81295D01*
G37*
G36*
G01X-999198Y81295D02*
G01X-1027199Y81295D01*
G01X-1027199Y147798D01*
G01X-999198Y147798D01*
G01X-999198Y81295D01*
G37*
G36*
G01X-1045682Y34785D02*
G01X-1112185Y34785D01*
G01X-1112185Y62786D01*
G01X-1045682Y62786D01*
G01X-1045682Y34785D01*
G37*
G36*
G01X-1045682Y-15202D02*
G01X-1112185Y-15202D01*
G01X-1112185Y12799D01*
G01X-1045682Y12799D01*
G01X-1045682Y-15202D01*
G37*
G36*
G01X-1045682Y-65214D02*
G01X-1112185Y-65214D01*
G01X-1112185Y-37214D01*
G01X-1045682Y-37214D01*
G01X-1045682Y-65214D01*
G37*
G36*
G01X-1045682Y-115202D02*
G01X-1112185Y-115202D01*
G01X-1112185Y-87201D01*
G01X-1045682Y-87201D01*
G01X-1045682Y-115202D01*
G37*
G36*
G01X-1045682Y-165214D02*
G01X-1112185Y-165214D01*
G01X-1112185Y-137213D01*
G01X-1045682Y-137213D01*
G01X-1045682Y-165214D01*
G37*
G36*
G01X-1045682Y-215201D02*
G01X-1112185Y-215201D01*
G01X-1112185Y-187201D01*
G01X-1045682Y-187201D01*
G01X-1045682Y-215201D01*
G37*
G36*
G01X-999198Y-300213D02*
G01X-1027199Y-300213D01*
G01X-1027199Y-233710D01*
G01X-999198Y-233710D01*
G01X-999198Y-300213D01*
G37*
G36*
G01X-949185Y-300213D02*
G01X-977186Y-300213D01*
G01X-977186Y-233710D01*
G01X-949185Y-233710D01*
G01X-949185Y-300213D01*
G37*
G36*
G01X-899198Y-300213D02*
G01X-927199Y-300213D01*
G01X-927199Y-233710D01*
G01X-899198Y-233710D01*
G01X-899198Y-300213D01*
G37*
G36*
G01X-849185Y-300213D02*
G01X-877186Y-300213D01*
G01X-877186Y-233710D01*
G01X-849185Y-233710D01*
G01X-849185Y-300213D01*
G37*
G36*
G01X-799198Y-300213D02*
G01X-827199Y-300213D01*
G01X-827199Y-233710D01*
G01X-799198Y-233710D01*
G01X-799198Y-300213D01*
G37*
G36*
G01X-749186Y-300213D02*
G01X-777187Y-300213D01*
G01X-777187Y-233710D01*
G01X-749186Y-233710D01*
G01X-749186Y-300213D01*
G37*
G36*
G01X-699198Y-300213D02*
G01X-727199Y-300213D01*
G01X-727199Y-233710D01*
G01X-699198Y-233710D01*
G01X-699198Y-300213D01*
G37*
G36*
G01X-649186Y-300213D02*
G01X-677187Y-300213D01*
G01X-677187Y-233710D01*
G01X-649186Y-233710D01*
G01X-649186Y-300213D01*
G37*
G36*
G01X259801Y-1541902D02*
G01X259801Y-1461902D01*
G01X264803Y-1456901D01*
G01X287599Y-1456901D01*
G01X287599Y-1493901D01*
G01X320599Y-1493901D01*
G01X320599Y-1456901D01*
G01X344802Y-1456901D01*
G01X349801Y-1461902D01*
G01X349801Y-1541902D01*
G01X344802Y-1546901D01*
G01X264803Y-1546901D01*
G01X259801Y-1541902D01*
G37*
G36*
G01X349799Y-1302898D02*
G01X349799Y-1382898D01*
G01X344797Y-1387899D01*
G01X322001Y-1387899D01*
G01X322001Y-1350899D01*
G01X289001Y-1350899D01*
G01X289001Y-1387899D01*
G01X264798Y-1387899D01*
G01X259799Y-1382898D01*
G01X259799Y-1302898D01*
G01X264798Y-1297899D01*
G01X344797Y-1297899D01*
G01X349799Y-1302898D01*
G37*
G36*
G01X-890261Y-1553600D02*
G01X-890261Y-1473600D01*
G01X-885260Y-1468599D01*
G01X-862463Y-1468599D01*
G01X-862463Y-1505599D01*
G01X-829464Y-1505599D01*
G01X-829464Y-1468599D01*
G01X-805260Y-1468599D01*
G01X-800261Y-1473600D01*
G01X-800261Y-1553600D01*
G01X-805260Y-1558599D01*
G01X-885260Y-1558599D01*
G01X-890261Y-1553600D01*
G37*
G36*
G01X-800264Y-1314596D02*
G01X-800264Y-1394596D01*
G01X-805265Y-1399597D01*
G01X-828062Y-1399597D01*
G01X-828062Y-1362597D01*
G01X-861061Y-1362597D01*
G01X-861061Y-1399597D01*
G01X-885265Y-1399597D01*
G01X-890264Y-1394596D01*
G01X-890264Y-1314596D01*
G01X-885265Y-1309597D01*
G01X-805265Y-1309597D01*
G01X-800264Y-1314596D01*
G37*
G36*
G01X-1675436Y552999D02*
G01X-1595436Y552999D01*
G01X-1590435Y547997D01*
G01X-1590435Y525201D01*
G01X-1627435Y525201D01*
G01X-1627435Y492201D01*
G01X-1590435Y492201D01*
G01X-1590435Y467998D01*
G01X-1595436Y462999D01*
G01X-1675436Y462999D01*
G01X-1680435Y467998D01*
G01X-1680435Y547997D01*
G01X-1675436Y552999D01*
G37*
G36*
G01X-1436432Y463001D02*
G01X-1516432Y463001D01*
G01X-1521433Y468003D01*
G01X-1521433Y490799D01*
G01X-1484433Y490799D01*
G01X-1484433Y523799D01*
G01X-1521433Y523799D01*
G01X-1521433Y548002D01*
G01X-1516432Y553001D01*
G01X-1436432Y553001D01*
G01X-1431434Y548002D01*
G01X-1431434Y468003D01*
G01X-1436432Y463001D01*
G37*
G36*
G01X-1815241Y-628101D02*
G01X-1735242Y-628101D01*
G01X-1730240Y-633103D01*
G01X-1730240Y-655899D01*
G01X-1767241Y-655899D01*
G01X-1767241Y-688899D01*
G01X-1730240Y-688899D01*
G01X-1730240Y-713102D01*
G01X-1735242Y-718101D01*
G01X-1815241Y-718101D01*
G01X-1820240Y-713102D01*
G01X-1820240Y-633103D01*
G01X-1815241Y-628101D01*
G37*
G36*
G01X-1576238Y-718099D02*
G01X-1656237Y-718099D01*
G01X-1661239Y-713097D01*
G01X-1661239Y-690301D01*
G01X-1624239Y-690301D01*
G01X-1624239Y-657301D01*
G01X-1661239Y-657301D01*
G01X-1661239Y-633098D01*
G01X-1656237Y-628099D01*
G01X-1576238Y-628099D01*
G01X-1571239Y-633098D01*
G01X-1571239Y-713097D01*
G01X-1576238Y-718099D01*
G37*
G36*
G01X-399501Y1846702D02*
G01X-399501Y1766702D01*
G01X-404503Y1761701D01*
G01X-427299Y1761701D01*
G01X-427299Y1798701D01*
G01X-460299Y1798701D01*
G01X-460299Y1761701D01*
G01X-484502Y1761701D01*
G01X-489501Y1766702D01*
G01X-489501Y1846702D01*
G01X-484502Y1851701D01*
G01X-404503Y1851701D01*
G01X-399501Y1846702D01*
G37*
G36*
G01X-489499Y1607698D02*
G01X-489499Y1687698D01*
G01X-484497Y1692699D01*
G01X-461701Y1692699D01*
G01X-461701Y1655699D01*
G01X-428701Y1655699D01*
G01X-428701Y1692699D01*
G01X-404498Y1692699D01*
G01X-399499Y1687698D01*
G01X-399499Y1607698D01*
G01X-404498Y1602699D01*
G01X-484497Y1602699D01*
G01X-489499Y1607698D01*
G37*
G36*
G01X692699Y1904141D02*
G01X692699Y1824142D01*
G01X687697Y1819140D01*
G01X664901Y1819140D01*
G01X664901Y1856141D01*
G01X631901Y1856141D01*
G01X631901Y1819140D01*
G01X607698Y1819140D01*
G01X602699Y1824142D01*
G01X602699Y1904141D01*
G01X607698Y1909140D01*
G01X687697Y1909140D01*
G01X692699Y1904141D01*
G37*
G36*
G01X602701Y1665138D02*
G01X602701Y1745137D01*
G01X607703Y1750139D01*
G01X630499Y1750139D01*
G01X630499Y1713139D01*
G01X663499Y1713139D01*
G01X663499Y1750139D01*
G01X687702Y1750139D01*
G01X692701Y1745137D01*
G01X692701Y1665138D01*
G01X687702Y1660139D01*
G01X607703Y1660139D01*
G01X602701Y1665138D01*
G37*
G36*
G01X2215002Y-921299D02*
G01X2135002Y-921299D01*
G01X2130001Y-916297D01*
G01X2130001Y-893501D01*
G01X2167001Y-893501D01*
G01X2167001Y-860501D01*
G01X2130001Y-860501D01*
G01X2130001Y-836298D01*
G01X2135002Y-831299D01*
G01X2215002Y-831299D01*
G01X2220001Y-836298D01*
G01X2220001Y-916297D01*
G01X2215002Y-921299D01*
G37*
G36*
G01X1975998Y-831301D02*
G01X2055998Y-831301D01*
G01X2060999Y-836303D01*
G01X2060999Y-859099D01*
G01X2023999Y-859099D01*
G01X2023999Y-892099D01*
G01X2060999Y-892099D01*
G01X2060999Y-916302D01*
G01X2055998Y-921301D01*
G01X1975998Y-921301D01*
G01X1970999Y-916302D01*
G01X1970999Y-836303D01*
G01X1975998Y-831301D01*
G37*
G36*
G01X1902076Y-923732D02*
G01X1822077Y-923732D01*
G01X1817075Y-918731D01*
G01X1817075Y-895934D01*
G01X1854076Y-895934D01*
G01X1854076Y-862935D01*
G01X1817075Y-862935D01*
G01X1817075Y-838731D01*
G01X1822077Y-833732D01*
G01X1902076Y-833732D01*
G01X1907075Y-838731D01*
G01X1907075Y-918731D01*
G01X1902076Y-923732D01*
G37*
G36*
G01X1663073Y-833735D02*
G01X1743072Y-833735D01*
G01X1748074Y-838736D01*
G01X1748074Y-861532D01*
G01X1711074Y-861532D01*
G01X1711074Y-894532D01*
G01X1748074Y-894532D01*
G01X1748074Y-918736D01*
G01X1743072Y-923734D01*
G01X1663073Y-923734D01*
G01X1658074Y-918736D01*
G01X1658074Y-838736D01*
G01X1663073Y-833735D01*
G37*
G36*
G01X820298Y-501101D02*
G01X900298Y-501101D01*
G01X905299Y-506103D01*
G01X905299Y-528899D01*
G01X868299Y-528899D01*
G01X868299Y-561899D01*
G01X905299Y-561899D01*
G01X905299Y-586102D01*
G01X900298Y-591101D01*
G01X820298Y-591101D01*
G01X815299Y-586102D01*
G01X815299Y-506103D01*
G01X820298Y-501101D01*
G37*
G36*
G01X1059302Y-591099D02*
G01X979302Y-591099D01*
G01X974301Y-586097D01*
G01X974301Y-563301D01*
G01X1011301Y-563301D01*
G01X1011301Y-530301D01*
G01X974301Y-530301D01*
G01X974301Y-506098D01*
G01X979302Y-501099D01*
G01X1059302Y-501099D01*
G01X1064301Y-506098D01*
G01X1064301Y-586097D01*
G01X1059302Y-591099D01*
G37*
G36*
G01X-170302Y1226099D02*
G01X-90302Y1226099D01*
G01X-85301Y1221097D01*
G01X-85301Y1198301D01*
G01X-122301Y1198301D01*
G01X-122301Y1165301D01*
G01X-85301Y1165301D01*
G01X-85301Y1141098D01*
G01X-90302Y1136099D01*
G01X-170302Y1136099D01*
G01X-175301Y1141098D01*
G01X-175301Y1221097D01*
G01X-170302Y1226099D01*
G37*
G36*
G01X68702Y1136101D02*
G01X-11298Y1136101D01*
G01X-16299Y1141103D01*
G01X-16299Y1163899D01*
G01X20701Y1163899D01*
G01X20701Y1196899D01*
G01X-16299Y1196899D01*
G01X-16299Y1221102D01*
G01X-11298Y1226101D01*
G01X68702Y1226101D01*
G01X73701Y1221102D01*
G01X73701Y1141103D01*
G01X68702Y1136101D01*
G37*
G36*
G01X-2080773Y1032561D02*
G01X-2080773Y1039634D01*
G01X-1999455Y1120952D01*
G01X-1992384Y1120950D01*
G01X-1963040Y1090902D01*
G01X-1994153Y1059789D01*
G01X-1962334Y1027970D01*
G01X-1930514Y1059791D01*
G01X-1901876Y1030442D01*
G01X-1901874Y1023371D01*
G01X-1983192Y942053D01*
G01X-1990265Y942053D01*
G01X-2080773Y1032561D01*
G37*
G36*
G01X-1928745Y1184590D02*
G01X-1928745Y1191662D01*
G01X-1847428Y1272979D01*
G01X-1840356Y1272979D01*
G01X-1749847Y1182470D01*
G01X-1749847Y1175397D01*
G01X-1831163Y1094081D01*
G01X-1838236Y1094081D01*
G01X-1866874Y1123431D01*
G01X-1835763Y1154542D01*
G01X-1867582Y1186361D01*
G01X-1899047Y1154896D01*
G01X-1928745Y1184590D01*
G37*
G36*
G01X-2263925Y813111D02*
G01X-2207356Y869680D01*
G01X-2200283Y869680D01*
G01X-2184164Y853560D01*
G01X-2210327Y827397D01*
G01X-2186993Y804063D01*
G01X-2160830Y830226D01*
G01X-2143715Y813111D01*
G01X-2143717Y806040D01*
G01X-2200285Y749472D01*
G01X-2207355Y749472D01*
G01X-2263923Y806040D01*
G01X-2263925Y813111D01*
G37*
G36*
G01X-2031286Y918475D02*
G01X-2087854Y861906D01*
G01X-2094927Y861906D01*
G01X-2111047Y878026D01*
G01X-2084884Y904189D01*
G01X-2108218Y927523D01*
G01X-2134381Y901360D01*
G01X-2151496Y918475D01*
G01X-2151494Y925546D01*
G01X-2094925Y982114D01*
G01X-2087856Y982114D01*
G01X-2031288Y925546D01*
G01X-2031286Y918475D01*
G37*

G04 Pad Start*
G54D10*
G01X-723900Y-514198D03*
G01X-723900Y-654202D03*
G01X-914400Y-514198D03*
G01X-914400Y-654202D03*
G01X-1270000Y-247802D03*
G01X-1270000Y-107798D03*
G01X-1263802Y241300D03*
G01X-1263802Y381305D03*
G54D11*
G01X869798Y-203200D03*
G01X1009802Y-203200D03*
G54D10*
G01X1282700Y-6198D03*
G01X1282700Y-146202D03*
G54D11*
G01X882508Y1638292D03*
G01X1022513Y1638292D03*
G54D12*
G01X120379Y-1600985D03*
G01X120379Y-1253995D03*
G01X-502362Y-1614232D03*
G01X-502362Y-1267243D03*
G54D13*
G01X-1862700Y-329085D03*
G01X-1515711Y-329085D03*
G01X-1735595Y850900D03*
G01X-1388605Y850900D03*
G54D12*
G01X-266700Y1913395D03*
G01X-266700Y1566405D03*
G01X303705Y1964300D03*
G01X303705Y1617311D03*
G54D14*
G01X941725Y1340396D03*
G54D15*
G01X1039211Y1481646D03*
G01X974237Y1481646D03*
G01X909213Y1481646D03*
G01X844240Y1481646D03*
G01X844240Y1199147D03*
G01X909213Y1199147D03*
G01X974237Y1199147D03*
G01X1039211Y1199147D03*
G54D16*
G01X923303Y262395D03*
G01X923303Y42405D03*
G01X1083297Y42405D03*
G01X1083297Y262395D03*
G54D17*
G01X2026691Y-51803D03*
G01X2026691Y-176797D03*
G54D18*
G01X2316683Y133185D03*
G01X2316683Y-361810D03*
G54D11*
G01X1009802Y-381000D03*
G01X869798Y-381000D03*
G01X-40645Y-350609D03*
G01X99360Y-350609D03*
G01X414957Y-350609D03*
G01X274952Y-350609D03*
G01X192126Y1179300D03*
G01X332130Y1179300D03*
G54D10*
G01X-419377Y851440D03*
G01X-419377Y711435D03*
G54D20*
G01X-2090164Y698936D03*
G01X-1991165Y797934D03*
G54D21*
G01X704393Y694106D03*
G01X704393Y644093D03*
G01X704393Y594106D03*
G01X704393Y544093D03*
G01X704393Y494106D03*
G01X704393Y444094D03*
G01X704393Y394106D03*
G01X704393Y344094D03*
G01X704393Y294107D03*
G01X704393Y244094D03*
G01X704393Y194107D03*
G01X704393Y144094D03*
G54D22*
G01X554406Y-5893D03*
G01X504393Y-5893D03*
G01X454406Y-5893D03*
G01X404393Y-5893D03*
G01X354406Y-5893D03*
G01X304394Y-5893D03*
G01X254406Y-5893D03*
G01X204394Y-5893D03*
G01X154407Y-5893D03*
G01X104394Y-5893D03*
G01X54407Y-5893D03*
G01X4394Y-5893D03*
G54D21*
G01X-145593Y144094D03*
G01X-145593Y194107D03*
G01X-145593Y244094D03*
G01X-145593Y294107D03*
G01X-145593Y344094D03*
G01X-145593Y394106D03*
G01X-145593Y444094D03*
G01X-145593Y494106D03*
G01X-145593Y544093D03*
G01X-145593Y594106D03*
G01X-145593Y644093D03*
G01X-145593Y694106D03*
G54D22*
G01X4394Y844093D03*
G01X54407Y844093D03*
G01X104394Y844093D03*
G01X154407Y844093D03*
G01X204394Y844093D03*
G01X254406Y844093D03*
G01X304394Y844093D03*
G01X354406Y844093D03*
G01X404393Y844093D03*
G01X454406Y844093D03*
G01X504393Y844093D03*
G01X554406Y844093D03*
G54D23*
G01X1907997Y546100D03*
G01X1907997Y419100D03*
G01X1907997Y292100D03*
G01X1907997Y165100D03*
G01X1394003Y546100D03*
G01X1394003Y419100D03*
G01X1394003Y292100D03*
G01X1394003Y165100D03*
G54D24*
G01X-941235Y955484D03*
G01X-852833Y1043886D03*
G01X-764450Y1132269D03*
G01X-676066Y1220653D03*
G54D25*
G01X-782141Y1588340D03*
G01X-1308940Y1061541D03*
G54D24*
G01X941235Y-904684D03*
G01X852833Y-993086D03*
G01X764450Y-1081469D03*
G01X676066Y-1169853D03*
G54D25*
G01X782141Y-1537540D03*
G01X1308940Y-1010741D03*
G04 Pad End*

M02*

