G04 Layer: TopLayer*
G04 EasyEDA Pro v3.2.69, 2026-03-27 19:08:31*
G04 Gerber Generator version 0.3*
G04 Scale: 100 percent, Rotated: No, Reflected: No*
G04 Dimensions in millimeters*
G04 Leading zeros omitted, absolute positions, 4 integers and 5 decimals*
G04 Generated by one-click*
%FSLAX45Y45*%
%MOMM*%
%AMRect*21,1,$1,$2,0,0,$3*%
%AMOval*1,1,$1,$2,$3*1,1,$1,$4,$5*20,1,$1,$2,$3,$4,$5,0*%
%AMPolygonMacro1*4,1,16,-0.33588,-2.88854,-0.68589,-3.23855,-1.32583,-2.59862,-0.97581,-2.2486,-3.23855,0.01413,-2.70821,0.54447,-2.35466,0.19092,-0.19092,2.35466,-0.54447,2.70821,-0.01413,3.23855,2.2486,0.97581,2.59862,1.32583,3.23855,0.68589,2.88854,0.33588,3.18905,0.03536,-0.03536,-3.18905,-0.33588,-2.88854,0*%
%AMPolygonMacro2*4,1,16,2.88854,-0.33588,3.23855,-0.68589,2.59862,-1.32583,2.2486,-0.97581,-0.01413,-3.23855,-0.54447,-2.70821,-0.19092,-2.35466,-2.35466,-0.19092,-2.70821,-0.54447,-3.23855,-0.01413,-0.97581,2.2486,-1.32583,2.59862,-0.68589,3.23855,-0.33588,2.88854,-0.03536,3.18905,3.18905,-0.03536,2.88854,-0.33588,0*%
%AMPolygonMacro3*4,1,16,0.33588,2.88854,0.68589,3.23855,1.32583,2.59862,0.97581,2.2486,3.23855,-0.01413,2.70821,-0.54447,2.35466,-0.19092,0.19092,-2.35466,0.54447,-2.70821,0.01413,-3.23855,-2.2486,-0.97581,-2.59862,-1.32583,-3.23855,-0.68589,-2.88854,-0.33588,-3.18905,-0.03536,0.03536,3.18905,0.33588,2.88854,0*%
%AMPolygonMacro4*4,1,8,0.3889,0.03536,0.45963,-0.03536,-0.17677,-0.67176,-0.45961,-0.38892,-0.03535,0.03535,-0.45963,0.45963,-0.2475,0.67176,0.17679,0.24748,0.3889,0.03536,0*%
%AMPolygonMacro5*4,1,8,-0.45962,0.45962,-0.03536,0.03536,0.38891,0.45962,0.67175,0.17678,0.03536,-0.45962,-0.03536,-0.38891,-0.24749,-0.17678,-0.67175,0.24749,-0.45962,0.45962,0*%
%AMPolygonMacro6*4,1,12,0.38891,-0.24749,-0.03537,0.17679,-0.17679,0.03537,0.24749,-0.38891,0.03536,-0.60104,-0.60104,0.03536,-0.55084,0.08555,-0.55086,0.08557,-0.09125,0.54518,-0.09123,0.54516,-0.03536,0.60104,0.60104,-0.03536,0.38891,-0.24749,0*%
%AMPolygonMacro7*4,1,8,-0.17678,-0.24749,-0.38891,-0.03536,-0.45962,0.03536,0.17678,0.67175,0.45962,0.38891,0.03536,-0.03536,0.45962,-0.45962,0.24749,-0.67175,-0.17678,-0.24749,0*%
%AMPolygonMacro8*4,1,8,0.45962,-0.45962,0.03536,-0.03536,-0.38891,-0.45962,-0.67175,-0.17678,-0.03536,0.45962,0.03536,0.38891,0.24749,0.17678,0.67175,-0.24749,0.45962,-0.45962,0*%
%ADD10C,0.2032*%
%ADD11C,5.5*%
%ADD12Rect,1.41X1.35001X45.0*%
%ADD13Rect,0.8X0.9X45.0*%
%ADD14Rect,0.8X0.9X135.0*%
%ADD15R,1.72799X1.48501*%
%ADD16R,0.9005X0.8*%
%ADD17R,0.9X0.8*%
%ADD18Rect,1.48501X1.72799X45.0*%
%ADD19Oval,2.3X-0.70711X-0.70711X0.70711X0.70711*%
%ADD20Rect,1.4X1.2X45.0*%
%ADD21Rect,0.75001X1.0X45.0*%
%ADD22PolygonMacro1*%
%ADD23Rect,0.75001X1.0X135.0*%
%ADD24PolygonMacro2*%
%ADD25PolygonMacro3*%
%ADD26Rect,0.80648X0.86401X135.0*%
%ADD27Rect,0.80648X0.86401X45.0*%
%ADD28Rect,0.9X0.25001X45.0*%
%ADD29Rect,1.65001X0.25001X45.0*%
%ADD30Rect,0.9X0.23X45.0*%
%ADD31Rect,0.9X0.25001X135.0*%
%ADD32Rect,0.65001X0.3X135.0*%
%ADD33PolygonMacro4*%
%ADD34PolygonMacro5*%
%ADD35PolygonMacro6*%
%ADD36PolygonMacro7*%
%ADD37PolygonMacro8*%
%ADD38R,0.28001X0.8*%
%ADD39R,0.8X0.28001*%
%ADD40R,1.65001X1.65001*%
%ADD41Rect,0.7X0.35001X45.0*%
%ADD42Rect,0.35001X0.7X45.0*%
%ADD43O,4.3X2.3*%
%ADD44Oval,0.35301X-0.38926X0.38926X0.38926X-0.38926*%
%ADD45Oval,0.35301X-0.38926X-0.38926X0.38926X0.38926*%
%ADD46C,1.6*%
%ADD47Rect,1.0X0.89992X45.0*%
%ADD48R,5.69999X2.49999*%
%ADD49Rect,1.48501X1.72799X135.0*%
%ADD50R,1.48501X1.72799*%
%ADD51Rect,1.20752X1.70101X45.0*%
%ADD52Rect,1.20752X1.70101X135.0*%
%ADD53C,0.508*%
%ADD54C,0.6096*%
%ADD55C,0.254*%
G75*


G04 Copper Start*
G36*
G01X1042361Y-1879577D02*
G01X429328Y-1879577D01*
G01X380832Y-1831081D01*
G01X380832Y-1635297D01*
G01X796010Y-1220119D01*
G01X1070646Y-1494754D01*
G01X1075200Y-1497384D01*
G01X1080460Y-1497384D01*
G01X1085014Y-1494754D01*
G01X1094740Y-1485028D01*
G01X1094740Y-1827198D01*
G01X1042361Y-1879577D01*
G37*
G36*
G01X-1820308Y-403860D02*
G01X-1452251Y-771917D01*
G01X-1448407Y-784546D01*
G01X-1441720Y-795928D01*
G01X-1432560Y-805434D01*
G01X-1432560Y-808368D01*
G01X-1442293Y-818642D01*
G01X-1449147Y-831024D01*
G01X-1452686Y-844726D01*
G01X-1452686Y-858879D01*
G01X-1449147Y-872581D01*
G01X-1442293Y-884962D01*
G01X-1432560Y-895236D01*
G01X-1432560Y-1209040D01*
G01X-1514272Y-1209040D01*
G01X-1539664Y-1207199D01*
G01X-1565122Y-1207199D01*
G01X-1590513Y-1209040D01*
G01X-1811892Y-1209040D01*
G01X-1921010Y-1099921D01*
G01X-1924306Y-1097719D01*
G01X-1928195Y-1096945D01*
G01X-2116692Y-1096945D01*
G01X-2136140Y-1077497D01*
G01X-2136140Y-403860D01*
G01X-1820308Y-403860D01*
G37*
G36*
G01X-1059155Y1115289D02*
G01X-1060753Y1128589D01*
G01X-1065457Y1141131D01*
G01X-1072999Y1152202D01*
G01X-1082948Y1161171D01*
G01X-1094740Y1167526D01*
G01X-1094740Y1189592D01*
G01X-901700Y1382632D01*
G01X-861701Y1342633D01*
G01X-857689Y1329624D01*
G01X-850663Y1317963D01*
G01X-841037Y1308337D01*
G01X-829376Y1301311D01*
G01X-816367Y1297299D01*
G01X-718384Y1199316D01*
G01X-715088Y1197113D01*
G01X-711200Y1196340D01*
G01X-457200Y1196340D01*
G01X-453312Y1197113D01*
G01X-450016Y1199316D01*
G01X-275192Y1374140D01*
G01X-274386Y1374140D01*
G01X-117094Y1216848D01*
G01X-117094Y1201643D01*
G01X-115701Y1191059D01*
G01X-111615Y1181196D01*
G01X-105116Y1172727D01*
G01X-95679Y1163289D01*
G01X-132178Y1126791D01*
G01X-144394Y1126477D01*
G01X-156142Y1123112D01*
G01X-166672Y1116912D01*
G01X-175313Y1108271D01*
G01X-181513Y1097741D01*
G01X-184878Y1085993D01*
G01X-185191Y1073777D01*
G01X-188731Y1070237D01*
G01X-203246Y1072134D01*
G01X-217758Y1070213D01*
G01X-231280Y1064606D01*
G01X-242893Y1055693D01*
G01X-251806Y1044080D01*
G01X-257413Y1030558D01*
G01X-259334Y1016046D01*
G01X-257437Y1001531D01*
G01X-499508Y759460D01*
G01X-511127Y759460D01*
G01X-529884Y778216D01*
G01X-538353Y784715D01*
G01X-548216Y788801D01*
G01X-558800Y790194D01*
G01X-684001Y790194D01*
G01X-694585Y788801D01*
G01X-704448Y784715D01*
G01X-712917Y778216D01*
G01X-722678Y768455D01*
G01X-732702Y765008D01*
G01X-741734Y759460D01*
G01X-821292Y759460D01*
G01X-1094740Y1032908D01*
G01X-1094740Y1063051D01*
G01X-1082948Y1069407D01*
G01X-1072999Y1078376D01*
G01X-1065457Y1089447D01*
G01X-1060753Y1101989D01*
G01X-1059155Y1115289D01*
G37*
G36*
G01X-1361440Y-808368D02*
G01X-1361440Y-805434D01*
G01X-1351324Y-794630D01*
G01X-1344383Y-781557D01*
G01X-1341100Y-767125D01*
G01X-1341704Y-752337D01*
G01X-1346152Y-738220D01*
G01X-1212016Y-604084D01*
G01X-1209813Y-600788D01*
G01X-1209040Y-596900D01*
G01X-1209040Y-489645D01*
G01X-1209813Y-485757D01*
G01X-1212016Y-482460D01*
G01X-1369932Y-324545D01*
G01X-1192049Y-146662D01*
G01X-1074206Y-146662D01*
G01X-848360Y-372508D01*
G01X-848360Y-770492D01*
G01X-1168400Y-1090532D01*
G01X-1252849Y-1006083D01*
G01X-1256861Y-993074D01*
G01X-1263887Y-981413D01*
G01X-1273513Y-971787D01*
G01X-1285174Y-964761D01*
G01X-1298183Y-960749D01*
G01X-1316349Y-942583D01*
G01X-1320341Y-929619D01*
G01X-1327326Y-917991D01*
G01X-1336897Y-908378D01*
G01X-1348494Y-901342D01*
G01X-1361440Y-897293D01*
G01X-1361440Y-895236D01*
G01X-1351707Y-884962D01*
G01X-1344853Y-872581D01*
G01X-1341314Y-858879D01*
G01X-1341314Y-844726D01*
G01X-1344853Y-831024D01*
G01X-1351707Y-818642D01*
G01X-1361440Y-808368D01*
G37*
G36*
G01X-27953Y-935579D02*
G01X-27953Y-892292D01*
G01X-22074Y-878478D01*
G01X-20066Y-863600D01*
G01X-22074Y-848722D01*
G01X-27953Y-834908D01*
G01X-27953Y-781786D01*
G01X206274Y-781786D01*
G01X210162Y-781013D01*
G01X213458Y-778810D01*
G01X458987Y-533282D01*
G01X598215Y-533282D01*
G01X622345Y-557412D01*
G01X629688Y-567188D01*
G01X657841Y-595341D01*
G01X657841Y-681201D01*
G01X651982Y-695695D01*
G01X649986Y-711200D01*
G01X651982Y-726705D01*
G01X657841Y-741199D01*
G01X657841Y-762891D01*
G01X602416Y-818316D01*
G01X600213Y-821612D01*
G01X599440Y-825500D01*
G01X599440Y-951661D01*
G01X499490Y-1051611D01*
G01X233629Y-1051611D01*
G01X229741Y-1052385D01*
G01X226444Y-1054587D01*
G01X160892Y-1120140D01*
G01X156608Y-1120140D01*
G01X-27953Y-935579D01*
G37*
G36*
G01X1196340Y-340393D02*
G01X1196340Y-386574D01*
G01X1194100Y-394603D01*
G01X1194100Y-402939D01*
G01X1196340Y-410968D01*
G01X1196340Y-419100D01*
G01X1197113Y-422988D01*
G01X1199316Y-426284D01*
G01X1261982Y-488950D01*
G01X1257300Y-493632D01*
G01X1167226Y-403558D01*
G01X1163930Y-401355D01*
G01X1160042Y-400582D01*
G01X1117467Y-400582D01*
G01X970809Y-253924D01*
G01X967513Y-251722D01*
G01X963625Y-250949D01*
G01X951117Y-250949D01*
G01X848360Y-148192D01*
G01X848360Y-143908D01*
G01X956708Y-35560D01*
G01X960501Y-35560D01*
G01X1050116Y-125175D01*
G01X1050116Y-189960D01*
G01X1050889Y-193848D01*
G01X1053091Y-197144D01*
G01X1196340Y-340393D01*
G37*
G36*
G01X1079500Y-746760D02*
G01X1079960Y-746760D01*
G01X1091823Y-752619D01*
G01X1104900Y-754634D01*
G01X1145450Y-754634D01*
G01X1154404Y-753701D01*
G01X1162975Y-750941D01*
G01X1170792Y-746474D01*
G01X1175584Y-743784D01*
G01X1295256Y-624112D01*
G01X1313632Y-642489D01*
G01X1313632Y-668107D01*
G01X1206769Y-774969D01*
G01X1204567Y-778266D01*
G01X1203794Y-782154D01*
G01X1203794Y-934554D01*
G01X1204567Y-938442D01*
G01X1206769Y-941738D01*
G01X1281032Y-1016000D01*
G01X1181100Y-1115932D01*
G01X784860Y-719692D01*
G01X784860Y-715408D01*
G01X905908Y-594360D01*
G01X922892Y-594360D01*
G01X1072316Y-743784D01*
G01X1075612Y-745987D01*
G01X1079500Y-746760D01*
G37*
G36*
G01X1472583Y-675386D02*
G01X1478687Y-669282D01*
G01X1483900Y-666463D01*
G01X1488476Y-662695D01*
G01X1517356Y-633815D01*
G01X1520437Y-631017D01*
G01X1589106Y-562347D01*
G01X1633311Y-562347D01*
G01X1637199Y-561574D01*
G01X1640495Y-559371D01*
G01X1886665Y-313202D01*
G01X1888867Y-309905D01*
G01X1889641Y-306017D01*
G01X1889641Y-126512D01*
G01X2482587Y-126512D01*
G01X2504559Y-148484D01*
G01X2504559Y-376672D01*
G01X2497692Y-383540D01*
G01X2004934Y-383540D01*
G01X2001046Y-384313D01*
G01X1997750Y-386516D01*
G01X1727233Y-657033D01*
G01X1653556Y-657033D01*
G01X1635190Y-638668D01*
G01X1627411Y-633016D01*
G01X1618266Y-630044D01*
G01X1608650Y-630044D01*
G01X1599505Y-633016D01*
G01X1591726Y-638668D01*
G01X1528086Y-702307D01*
G01X1522721Y-709537D01*
G01X1519681Y-718012D01*
G01X1519228Y-727004D01*
G01X1495989Y-750242D01*
G01X1389711Y-750242D01*
G01X1363166Y-723697D01*
G01X1363166Y-678362D01*
G01X1465398Y-678362D01*
G01X1469286Y-677588D01*
G01X1472583Y-675386D01*
G37*
G36*
G01X1424117Y646253D02*
G01X1419214Y639854D01*
G01X1394460Y664608D01*
G01X1394460Y668892D01*
G01X1443611Y718042D01*
G01X1445813Y721339D01*
G01X1446587Y725227D01*
G01X1446587Y788873D01*
G01X1561954Y904240D01*
G01X1608692Y904240D01*
G01X1792860Y720071D01*
G01X1792860Y679612D01*
G01X1794221Y674532D01*
G01X1797940Y670813D01*
G01X1803020Y669452D01*
G01X2148279Y669452D01*
G01X2189916Y627816D01*
G01X2193212Y625613D01*
G01X2197100Y624840D01*
G01X2205592Y624840D01*
G01X2228016Y602416D01*
G01X2231312Y600213D01*
G01X2235200Y599440D01*
G01X2479040Y599440D01*
G01X2479040Y125868D01*
G01X1889641Y125868D01*
G01X1889641Y393581D01*
G01X1888867Y397469D01*
G01X1886665Y400765D01*
G01X1569045Y718384D01*
G01X1565749Y720587D01*
G01X1561861Y721360D01*
G01X1511300Y721360D01*
G01X1507412Y720587D01*
G01X1504116Y718384D01*
G01X1490018Y704286D01*
G01X1481159Y701281D01*
G01X1473615Y695750D01*
G01X1424117Y646253D01*
G37*
G36*
G01X1144138Y656932D02*
G01X1134073Y664917D01*
G01X1091526Y707464D01*
G01X1088230Y709667D01*
G01X1084342Y710440D01*
G01X941594Y710440D01*
G01X622592Y1029442D01*
G01X760173Y1167023D01*
G01X1214000Y713196D01*
G01X1214000Y668140D01*
G01X1214774Y664252D01*
G01X1216976Y660955D01*
G01X1217892Y660040D01*
G01X1220677Y654977D01*
G01X1224361Y650525D01*
G01X1272540Y602346D01*
G01X1272540Y601108D01*
G01X1253092Y581660D01*
G01X1217331Y581660D01*
G01X1152123Y646868D01*
G01X1144138Y656932D01*
G37*
G36*
G01X702970Y1168400D02*
G01X701063Y1182907D01*
G01X695472Y1196428D01*
G01X686577Y1208045D01*
G01X674981Y1216968D01*
G01X661474Y1222592D01*
G01X646971Y1224534D01*
G01X632460Y1222662D01*
G01X632460Y1279474D01*
G01X646049Y1277390D01*
G01X659738Y1278672D01*
G01X672704Y1283243D01*
G01X684171Y1290828D01*
G01X693450Y1300973D01*
G01X699984Y1313069D01*
G01X703382Y1326391D01*
G01X703440Y1340139D01*
G01X700154Y1353489D01*
G01X693722Y1365640D01*
G01X727787Y1399705D01*
G01X729990Y1403001D01*
G01X730763Y1406889D01*
G01X730763Y1517794D01*
G01X968109Y1755140D01*
G01X1132840Y1755140D01*
G01X1132840Y1448524D01*
G01X955764Y1448524D01*
G01X951876Y1447751D01*
G01X948580Y1445548D01*
G01X945321Y1442289D01*
G01X943770Y1440293D01*
G01X931314Y1439789D01*
G01X919277Y1436548D01*
G01X908252Y1430730D01*
G01X898783Y1422622D01*
G01X891336Y1412625D01*
G01X886280Y1401230D01*
G01X883863Y1389001D01*
G01X884205Y1376539D01*
G01X857878Y1350212D01*
G01X846461Y1347824D01*
G01X835784Y1343128D01*
G01X826309Y1336327D01*
G01X818443Y1327715D01*
G01X812527Y1317663D01*
G01X808816Y1306606D01*
G01X807470Y1295020D01*
G01X808547Y1283406D01*
G01X808547Y1199147D01*
G01X809321Y1195259D01*
G01X811523Y1191963D01*
G01X859868Y1143617D01*
G01X858266Y1130513D01*
G01X859769Y1117397D01*
G01X864293Y1104995D01*
G01X871589Y1093993D01*
G01X881252Y1084998D01*
G01X892749Y1078509D01*
G01X905443Y1074885D01*
G01X918633Y1074326D01*
G01X918633Y850053D01*
G01X815315Y850053D01*
G01X632460Y1032908D01*
G01X632460Y1114138D01*
G01X646971Y1112266D01*
G01X661474Y1114208D01*
G01X674981Y1119832D01*
G01X686577Y1128755D01*
G01X695472Y1140372D01*
G01X701063Y1153893D01*
G01X702970Y1168400D01*
G37*
G36*
G01X1833754Y724280D02*
G01X1833118Y730502D01*
G01X1831235Y736466D01*
G01X1831235Y951535D01*
G01X2504440Y951535D01*
G01X2504440Y721360D01*
G01X1833754Y721360D01*
G01X1833754Y724280D01*
G37*
G36*
G01X-1350788Y756530D02*
G01X-1098579Y504321D01*
G01X-1305141Y297758D01*
G01X-1554979Y547596D01*
G01X-1554979Y552339D01*
G01X-1350788Y756530D01*
G37*
G36*
G01X999392Y-1259132D02*
G01X640334Y-900074D01*
G01X640334Y-869648D01*
G01X746808Y-763174D01*
G01X1121079Y-1137445D01*
G01X999392Y-1259132D01*
G37*
G36*
G01X1372006Y-914826D02*
G01X1495695Y-791136D01*
G01X1500198Y-791136D01*
G01X1508152Y-790089D01*
G01X1515565Y-787019D01*
G01X1521930Y-782135D01*
G01X1613016Y-691049D01*
G01X1622112Y-696157D01*
G01X1632393Y-697927D01*
G01X1648759Y-697927D01*
G01X1719519Y-768687D01*
G01X1719519Y-913611D01*
G01X1652690Y-980440D01*
G01X1437620Y-980440D01*
G01X1372006Y-914826D01*
G37*
G36*
G01X954093Y1169993D02*
G01X945294Y1177168D01*
G01X935232Y1182425D01*
G01X924317Y1185551D01*
G01X861060Y1248808D01*
G01X861060Y1261597D01*
G01X971823Y1372360D01*
G01X1222498Y1372360D01*
G01X1437354Y1157504D01*
G01X1237416Y957566D01*
G01X1235213Y954270D01*
G01X1234440Y950382D01*
G01X1234440Y901700D01*
G01X1235213Y897812D01*
G01X1237416Y894516D01*
G01X1364021Y767911D01*
G01X1364021Y696670D01*
G01X1301557Y634207D01*
G01X1260676Y675088D01*
G01X1262380Y680720D01*
G01X1262380Y768605D01*
G01X1261607Y772493D01*
G01X1259404Y775789D01*
G01X1102360Y932833D01*
G01X1102360Y1003300D01*
G01X1101587Y1007188D01*
G01X1099384Y1010484D01*
G01X969651Y1140217D01*
G01X966525Y1151132D01*
G01X961268Y1161194D01*
G01X954093Y1169993D01*
G37*
G36*
G01X1049066Y-538194D02*
G01X1099326Y-487934D01*
G01X1121266Y-487934D01*
G01X1192132Y-558800D01*
G01X1107892Y-643040D01*
G01X1049066Y-584214D01*
G01X1049066Y-538194D01*
G37*
G36*
G01X1238617Y-398749D02*
G01X1287580Y-349786D01*
G01X1294271Y-357651D01*
G01X1302289Y-364157D01*
G01X1344532Y-406400D01*
G01X1295400Y-455532D01*
G01X1238617Y-398749D01*
G37*
G36*
G01X-1082040Y-1126092D02*
G01X-1082040Y-1071008D01*
G01X-761162Y-750131D01*
G01X-530836Y-980457D01*
G01X-771968Y-1221589D01*
G01X-882479Y-1111079D01*
G01X-887033Y-1108449D01*
G01X-892293Y-1108449D01*
G01X-896847Y-1111079D01*
G01X-969408Y-1183640D01*
G01X-1024492Y-1183640D01*
G01X-1082040Y-1126092D01*
G37*
G36*
G01X591566Y1308586D02*
G01X591566Y1286107D01*
G01X368461Y1063002D01*
G01X243962Y1063002D01*
G01X125865Y1181100D01*
G01X285915Y1181100D01*
G01X287694Y1166451D01*
G01X292927Y1152652D01*
G01X301310Y1140508D01*
G01X312355Y1130722D01*
G01X325422Y1123864D01*
G01X339750Y1120332D01*
G01X354507Y1120332D01*
G01X368836Y1123864D01*
G01X381902Y1130722D01*
G01X392948Y1140508D01*
G01X401331Y1152652D01*
G01X406564Y1166451D01*
G01X408343Y1181100D01*
G01X406564Y1195749D01*
G01X401331Y1209548D01*
G01X392948Y1221692D01*
G01X381902Y1231478D01*
G01X368836Y1238336D01*
G01X354507Y1241868D01*
G01X339750Y1241868D01*
G01X325422Y1238336D01*
G01X312355Y1231478D01*
G01X301310Y1221692D01*
G01X292927Y1209548D01*
G01X287694Y1195749D01*
G01X285915Y1181100D01*
G01X285915Y1181100D01*
G01X125865Y1181100D01*
G01X47906Y1259058D01*
G01X47906Y1295626D01*
G01X161561Y1409281D01*
G01X258450Y1409281D01*
G01X262338Y1410054D01*
G01X265634Y1412257D01*
G01X531148Y1677771D01*
G01X671839Y1537080D01*
G01X671839Y1401589D01*
G01X658779Y1388530D01*
G01X644622Y1389550D01*
G01X630663Y1386986D01*
G01X617792Y1381003D01*
G01X606834Y1371983D01*
G01X598488Y1360503D01*
G01X593288Y1347297D01*
G01X591567Y1333208D01*
G01X593434Y1319138D01*
G01X591566Y1308586D01*
G37*
G36*
G01X-1947897Y-1021363D02*
G01X-1363977Y-1021363D01*
G01X-1361512Y-1033267D01*
G01X-1356543Y-1044360D01*
G01X-1349302Y-1054124D01*
G01X-1340128Y-1062100D01*
G01X-1329453Y-1067914D01*
G01X-1317777Y-1071294D01*
G01X-1305646Y-1072080D01*
G01X-1293631Y-1070237D01*
G01X-1026160Y-1337708D01*
G01X-1026160Y-1676400D01*
G01X-1025387Y-1680288D01*
G01X-1023184Y-1683584D01*
G01X-946984Y-1759784D01*
G01X-943688Y-1761987D01*
G01X-939800Y-1762760D01*
G01X939800Y-1762760D01*
G01X943688Y-1761987D01*
G01X946984Y-1759784D01*
G01X1032217Y-1674551D01*
G01X1034420Y-1671255D01*
G01X1035193Y-1667367D01*
G01X1035193Y-1307240D01*
G01X1278174Y-1064260D01*
G01X1689100Y-1064260D01*
G01X1694180Y-1062899D01*
G01X1697899Y-1059180D01*
G01X1699260Y-1054100D01*
G01X1699260Y-1037395D01*
G01X1961920Y-774735D01*
G01X2507015Y-774735D01*
G01X2507015Y-986024D01*
G01X2498945Y-1004404D01*
G01X2487748Y-1021065D01*
G01X2473778Y-1035480D01*
G01X2457475Y-1047193D01*
G01X2439357Y-1055834D01*
G01X2419994Y-1061131D01*
G01X2400000Y-1062915D01*
G01X2222701Y-1062916D01*
G01X2221464Y-1062937D01*
G01X2211463Y-1064669D01*
G01X2202303Y-1069042D01*
G01X2194667Y-1075729D01*
G01X2189124Y-1084233D01*
G01X2189124Y-1084233D01*
G01X2150921Y-1158174D01*
G01X2110220Y-1230771D01*
G01X2067071Y-1301940D01*
G01X2067071Y-1301940D01*
G01X2047026Y-1318499D01*
G01X2024905Y-1332161D01*
G01X2001123Y-1342670D01*
G01X1976127Y-1349827D01*
G01X1950388Y-1353499D01*
G01X1924388Y-1353615D01*
G01X1898616Y-1350175D01*
G01X1873558Y-1343242D01*
G01X1849682Y-1332948D01*
G01X1827439Y-1319485D01*
G01X1807247Y-1303106D01*
G01X1779862Y-1278536D01*
G01X1750062Y-1256960D01*
G01X1718171Y-1238613D01*
G01X1684540Y-1223696D01*
G01X1649535Y-1212371D01*
G01X1613539Y-1204764D01*
G01X1576945Y-1200956D01*
G01X1540154Y-1200990D01*
G01X1503567Y-1204864D01*
G01X1467585Y-1212538D01*
G01X1432600Y-1223926D01*
G01X1398996Y-1238905D01*
G01X1367140Y-1257310D01*
G01X1337379Y-1278941D01*
G01X1310039Y-1303561D01*
G01X1285419Y-1330901D01*
G01X1263788Y-1360661D01*
G01X1245383Y-1392518D01*
G01X1230404Y-1426122D01*
G01X1219016Y-1461107D01*
G01X1211342Y-1497089D01*
G01X1207468Y-1533675D01*
G01X1207434Y-1570467D01*
G01X1211242Y-1607061D01*
G01X1218849Y-1643057D01*
G01X1230174Y-1678062D01*
G01X1245091Y-1711693D01*
G01X1263438Y-1743584D01*
G01X1285014Y-1773384D01*
G01X1309584Y-1800769D01*
G01X1325383Y-1820142D01*
G01X1338497Y-1841425D01*
G01X1348698Y-1864248D01*
G01X1355809Y-1888214D01*
G01X1359706Y-1912907D01*
G01X1360321Y-1937898D01*
G01X1357644Y-1962753D01*
G01X-1352184Y-1962753D01*
G01X-1353992Y-1938757D01*
G01X-1352746Y-1914726D01*
G01X-1348468Y-1891045D01*
G01X-1341225Y-1868097D01*
G01X-1331135Y-1846251D01*
G01X-1318360Y-1825858D01*
G01X-1303106Y-1807247D01*
G01X-1278536Y-1779862D01*
G01X-1256960Y-1750062D01*
G01X-1238613Y-1718171D01*
G01X-1223696Y-1684540D01*
G01X-1212371Y-1649535D01*
G01X-1204764Y-1613539D01*
G01X-1200956Y-1576945D01*
G01X-1200989Y-1540153D01*
G01X-1204864Y-1503567D01*
G01X-1212538Y-1467585D01*
G01X-1223926Y-1432600D01*
G01X-1238905Y-1398996D01*
G01X-1257310Y-1367139D01*
G01X-1278941Y-1337379D01*
G01X-1303561Y-1310039D01*
G01X-1330901Y-1285419D01*
G01X-1360661Y-1263788D01*
G01X-1392518Y-1245383D01*
G01X-1426122Y-1230404D01*
G01X-1461106Y-1219016D01*
G01X-1497089Y-1211342D01*
G01X-1533675Y-1207467D01*
G01X-1570467Y-1207434D01*
G01X-1607060Y-1211241D01*
G01X-1643057Y-1218849D01*
G01X-1678062Y-1230173D01*
G01X-1711693Y-1245091D01*
G01X-1743584Y-1263438D01*
G01X-1773384Y-1285014D01*
G01X-1800769Y-1309584D01*
G01X-1800769Y-1309584D01*
G01X-1821457Y-1326310D01*
G01X-1844281Y-1339976D01*
G01X-1868794Y-1350315D01*
G01X-1894512Y-1357121D01*
G01X-1920929Y-1360263D01*
G01X-1947526Y-1359677D01*
G01X-1973779Y-1355375D01*
G01X-1999173Y-1347442D01*
G01X-2023206Y-1336034D01*
G01X-2045407Y-1321376D01*
G01X-2065338Y-1303755D01*
G01X-2113342Y-1224413D01*
G01X-2158299Y-1143305D01*
G01X-2200144Y-1060549D01*
G01X-2238818Y-976265D01*
G01X-2274265Y-890572D01*
G01X-2306433Y-803597D01*
G01X-2335276Y-715462D01*
G01X-2335276Y-715462D01*
G01X-2335276Y716551D01*
G01X-2306523Y804306D01*
G01X-2274475Y890911D01*
G01X-2239176Y976243D01*
G01X-2200676Y1060180D01*
G01X-2159032Y1142602D01*
G01X-2114302Y1223391D01*
G01X-2066550Y1302432D01*
G01X-2046496Y1318878D01*
G01X-2024386Y1332434D01*
G01X-2000633Y1342847D01*
G01X-1975681Y1349922D01*
G01X-1949998Y1353527D01*
G01X-1924063Y1353594D01*
G01X-1898361Y1350123D01*
G01X-1873373Y1343178D01*
G01X-1849566Y1332888D01*
G01X-1827386Y1319448D01*
G01X-1807246Y1303106D01*
G01X-1779862Y1278537D01*
G01X-1750062Y1256960D01*
G01X-1718172Y1238613D01*
G01X-1684541Y1223696D01*
G01X-1649536Y1212372D01*
G01X-1613540Y1204764D01*
G01X-1576947Y1200956D01*
G01X-1540156Y1200990D01*
G01X-1503569Y1204864D01*
G01X-1467587Y1212537D01*
G01X-1432603Y1223925D01*
G01X-1398999Y1238903D01*
G01X-1367142Y1257308D01*
G01X-1337382Y1278939D01*
G01X-1310042Y1303558D01*
G01X-1285422Y1330897D01*
G01X-1263791Y1360658D01*
G01X-1245385Y1392514D01*
G01X-1230406Y1426117D01*
G01X-1219017Y1461101D01*
G01X-1211343Y1497083D01*
G01X-1207468Y1533669D01*
G01X-1207433Y1570460D01*
G01X-1211240Y1607054D01*
G01X-1218847Y1643050D01*
G01X-1230171Y1678055D01*
G01X-1245087Y1711686D01*
G01X-1263433Y1743577D01*
G01X-1285009Y1773378D01*
G01X-1309578Y1800763D01*
G01X-1326368Y1821564D01*
G01X-1340069Y1844518D01*
G01X-1350408Y1869169D01*
G01X-1357182Y1895029D01*
G01X-1360255Y1921584D01*
G01X-1359567Y1948307D01*
G01X-1355131Y1974668D01*
G01X-1347035Y2000145D01*
G01X-1335439Y2024231D01*
G01X-1320575Y2046449D01*
G01X-1302736Y2066359D01*
G01X-1218369Y2117200D01*
G01X-1132021Y2164599D01*
G01X-1043833Y2208477D01*
G01X-953947Y2248765D01*
G01X-250123Y2248765D01*
G01X-250123Y2109312D01*
G01X-329721Y2029714D01*
G01X-393700Y2029714D01*
G01X-398907Y2028319D01*
G01X-402719Y2024507D01*
G01X-404114Y2019300D01*
G01X-404114Y1955800D01*
G01X-404103Y1955332D01*
G01X-1358675Y1000760D01*
G01X-1816100Y1000760D01*
G01X-1819988Y999987D01*
G01X-1823284Y997784D01*
G01X-2102684Y718384D01*
G01X-2104887Y715088D01*
G01X-2105660Y711200D01*
G01X-2105660Y-863600D01*
G01X-2104887Y-867488D01*
G01X-2102684Y-870784D01*
G01X-1955081Y-1018388D01*
G01X-1951785Y-1020590D01*
G01X-1947897Y-1021363D01*
G37*
G36*
G01X1209511Y-991816D02*
G01X1256263Y-991816D01*
G01X1369639Y-1105192D01*
G01X1329292Y-1145540D01*
G01X1210708Y-1145540D01*
G01X1139097Y-1073929D01*
G01X1139097Y-1062229D01*
G01X1209511Y-991816D01*
G37*
G36*
G01X135296Y-1189396D02*
G01X163657Y-1161034D01*
G01X165100Y-1161034D01*
G01X173055Y-1159987D01*
G01X180467Y-1156916D01*
G01X186832Y-1152032D01*
G01X246359Y-1092505D01*
G01X503699Y-1092505D01*
G01X510311Y-1091786D01*
G01X516614Y-1089660D01*
G01X613482Y-1089660D01*
G01X615116Y-1091798D01*
G01X683197Y-1159879D01*
G01X430987Y-1412089D01*
G01X340021Y-1321123D01*
G01X335599Y-1318530D01*
G01X330474Y-1318425D01*
G01X325951Y-1320836D01*
G01X314720Y-1331188D01*
G01X309738Y-1333955D01*
G01X305353Y-1337593D01*
G01X276857Y-1366088D01*
G01X225237Y-1413670D01*
G01X222384Y-1418245D01*
G01X222274Y-1423636D01*
G01X224939Y-1428324D01*
G01X292489Y-1495875D01*
G01X292489Y-1608933D01*
G01X279616Y-1613532D01*
G01X268236Y-1621107D01*
G01X259025Y-1631209D01*
G01X252529Y-1643237D01*
G01X249132Y-1656478D01*
G01X249038Y-1670148D01*
G01X252250Y-1683436D01*
G01X258579Y-1695553D01*
G01X237092Y-1717040D01*
G01X-478392Y-1717040D01*
G01X-507166Y-1688266D01*
G01X-510462Y-1686063D01*
G01X-514350Y-1685290D01*
G01X-522842Y-1685290D01*
G01X-824680Y-1383451D01*
G01X-542047Y-1102497D01*
G01X-346971Y-1102497D01*
G01X-242134Y-1207334D01*
G01X-237580Y-1209964D01*
G01X-232320Y-1209964D01*
G01X-227766Y-1207334D01*
G01X-44450Y-1024018D01*
G01X120927Y-1189396D01*
G01X125482Y-1192025D01*
G01X130741Y-1192025D01*
G01X135296Y-1189396D01*
G37*
G36*
G01X-2059940Y360378D02*
G01X-1949817Y470501D01*
G01X-1941155Y471163D01*
G01X-1933024Y474223D01*
G01X-1926075Y479436D01*
G01X-1803887Y601624D01*
G01X-1798674Y608573D01*
G01X-1795614Y616704D01*
G01X-1794952Y625366D01*
G01X-1762047Y658271D01*
G01X-1170966Y67190D01*
G01X-1166795Y62306D01*
G01X-1105529Y1039D01*
G01X-1422210Y-315641D01*
G01X-1424839Y-320196D01*
G01X-1424839Y-325455D01*
G01X-1422210Y-330010D01*
G01X-1407385Y-344834D01*
G01X-1406032Y-346277D01*
G01X-1252663Y-499646D01*
G01X-1437238Y-684220D01*
G01X-1689447Y-432011D01*
G01X-1596581Y-339144D01*
G01X-1593951Y-334589D01*
G01X-1593951Y-329330D01*
G01X-1596581Y-324776D01*
G01X-1614177Y-307180D01*
G01X-1614952Y-306376D01*
G01X-1667985Y-253342D01*
G01X-1668789Y-252567D01*
G01X-1737410Y-183946D01*
G01X-1741965Y-181316D01*
G01X-1747224Y-181316D01*
G01X-1751779Y-183946D01*
G01X-1778399Y-210566D01*
G01X-1827140Y-210566D01*
G01X-1839293Y-202979D01*
G01X-1852972Y-198715D01*
G01X-1867283Y-198053D01*
G01X-1881297Y-201036D01*
G01X-1894098Y-207469D01*
G01X-1904855Y-216933D01*
G01X-1912865Y-228811D01*
G01X-1917608Y-242331D01*
G01X-1918773Y-256610D01*
G01X-1916286Y-270720D01*
G01X-1910308Y-283740D01*
G01X-1901229Y-294823D01*
G01X-1889640Y-303247D01*
G01X-1876296Y-308463D01*
G01X-1910050Y-342217D01*
G01X-2059940Y-192327D01*
G01X-2059940Y360378D01*
G37*
G36*
G01X-301132Y1406032D02*
G01X-414304Y1292860D01*
G01X-539843Y1292860D01*
G01X-617458Y1370476D01*
G01X-620272Y1375854D01*
G01X-701283Y1456864D01*
G01X-701283Y1527558D01*
G01X-511801Y1717040D01*
G01X-421503Y1717040D01*
G01X-350295Y1645832D01*
G01X-346022Y1643282D01*
G01X-341050Y1643067D01*
G01X-336573Y1645239D01*
G01X-325781Y1644138D01*
G01X-315280Y1646855D01*
G01X-306376Y1653052D01*
G01X-253342Y1706085D01*
G01X-247152Y1714976D01*
G01X-244431Y1725462D01*
G01X-245517Y1736241D01*
G01X192482Y2174240D01*
G01X595257Y2174240D01*
G01X779750Y2000619D01*
G01X256601Y1477470D01*
G01X147250Y1477470D01*
G01X143362Y1476696D01*
G01X140066Y1474494D01*
G01X-75830Y1258598D01*
G01X-253166Y1435934D01*
G01X-257720Y1438564D01*
G01X-262980Y1438564D01*
G01X-267534Y1435934D01*
G01X-290514Y1412954D01*
G01X-296184Y1410046D01*
G01X-301132Y1406032D01*
G37*
G36*
G01X-209229Y2105104D02*
G01X-209229Y2248765D01*
G01X696193Y2248765D01*
G01X687753Y2237459D01*
G01X682399Y2224405D01*
G01X680470Y2210429D01*
G01X682086Y2196414D01*
G01X687145Y2183243D01*
G01X695329Y2171751D01*
G01X706120Y2162662D01*
G01X718837Y2156551D01*
G01X732675Y2153803D01*
G01X746762Y2154593D01*
G01X760207Y2158871D01*
G01X772160Y2166366D01*
G01X776024Y2166366D01*
G01X775659Y2156317D01*
G01X778558Y2146687D01*
G01X784409Y2138509D01*
G01X841436Y2081483D01*
G01X849215Y2075831D01*
G01X858360Y2072859D01*
G01X867976Y2072859D01*
G01X877121Y2075831D01*
G01X884900Y2081483D01*
G01X945995Y2142577D01*
G01X951647Y2150357D01*
G01X954618Y2159502D01*
G01X954618Y2169117D01*
G01X951647Y2178263D01*
G01X945995Y2186042D01*
G01X888968Y2243068D01*
G01X881100Y2248765D01*
G01X953946Y2248765D01*
G01X1043751Y2208516D01*
G01X1131862Y2164681D01*
G01X1218136Y2117334D01*
G01X1302433Y2066549D01*
G01X1318878Y2046495D01*
G01X1332434Y2024385D01*
G01X1342847Y2000632D01*
G01X1349922Y1975681D01*
G01X1353527Y1949997D01*
G01X1353594Y1924062D01*
G01X1350123Y1898361D01*
G01X1343177Y1873373D01*
G01X1332888Y1849566D01*
G01X1319447Y1827386D01*
G01X1303106Y1807247D01*
G01X1278536Y1779862D01*
G01X1256960Y1750062D01*
G01X1238613Y1718172D01*
G01X1223696Y1684541D01*
G01X1212372Y1649536D01*
G01X1204764Y1613540D01*
G01X1200956Y1576947D01*
G01X1200989Y1540156D01*
G01X1204864Y1503569D01*
G01X1212537Y1467587D01*
G01X1223925Y1432603D01*
G01X1238903Y1398999D01*
G01X1257308Y1367143D01*
G01X1278939Y1337382D01*
G01X1303558Y1310042D01*
G01X1330897Y1285422D01*
G01X1360657Y1263791D01*
G01X1392514Y1245385D01*
G01X1426117Y1230406D01*
G01X1461101Y1219017D01*
G01X1497083Y1211343D01*
G01X1533669Y1207468D01*
G01X1570460Y1207433D01*
G01X1607054Y1211240D01*
G01X1643050Y1218847D01*
G01X1678055Y1230171D01*
G01X1711687Y1245087D01*
G01X1743577Y1263433D01*
G01X1773378Y1285009D01*
G01X1800763Y1309578D01*
G01X1821564Y1326368D01*
G01X1844518Y1340069D01*
G01X1869169Y1350409D01*
G01X1895028Y1357183D01*
G01X1921583Y1360256D01*
G01X1948306Y1359567D01*
G01X1974668Y1355131D01*
G01X2000144Y1347035D01*
G01X2024230Y1335440D01*
G01X2046448Y1320576D01*
G01X2066358Y1302737D01*
G01X2109825Y1231095D01*
G01X2150810Y1158004D01*
G01X2189264Y1083550D01*
G01X2195072Y1075041D01*
G01X2202998Y1068458D01*
G01X2212429Y1064310D01*
G01X2222637Y1062916D01*
G01X2399986Y1062916D01*
G01X2419596Y1061203D01*
G01X2438610Y1056110D01*
G01X2456450Y1047793D01*
G01X2472575Y1036504D01*
G01X2486495Y1022586D01*
G01X2497786Y1006462D01*
G01X2506105Y988623D01*
G01X2511200Y969609D01*
G01X2512916Y950000D01*
G01X2512916Y629148D01*
G01X2506238Y635179D01*
G01X2498101Y639017D01*
G01X2489200Y640334D01*
G01X2247930Y640334D01*
G01X2231532Y656732D01*
G01X2225176Y661611D01*
G01X2217774Y664682D01*
G01X2209830Y665734D01*
G01X2174220Y701345D01*
G01X2167855Y706229D01*
G01X2160442Y709299D01*
G01X2152488Y710346D01*
G01X1833754Y710346D01*
G01X1833754Y724280D01*
G01X1832707Y732234D01*
G01X1829637Y739647D01*
G01X1824752Y746012D01*
G01X1634632Y936132D01*
G01X1628267Y941016D01*
G01X1620855Y944087D01*
G01X1612900Y945134D01*
G01X1557745Y945134D01*
G01X1549791Y944087D01*
G01X1542378Y941016D01*
G01X1536013Y936132D01*
G01X1414694Y814813D01*
G01X1409810Y808448D01*
G01X1406740Y801036D01*
G01X1405693Y793081D01*
G01X1405693Y737957D01*
G01X1362568Y694832D01*
G01X1357684Y688467D01*
G01X1354613Y681055D01*
G01X1353566Y673100D01*
G01X1353566Y660400D01*
G01X1354613Y652445D01*
G01X1357684Y645033D01*
G01X1362568Y638668D01*
G01X1400668Y600568D01*
G01X1407715Y595301D01*
G01X1415966Y592247D01*
G01X1424744Y591656D01*
G01X1433330Y593575D01*
G01X1448867Y578039D01*
G01X1456412Y572507D01*
G01X1447089Y563183D01*
G01X1442311Y557001D01*
G01X1439247Y549814D01*
G01X1432060Y546750D01*
G01X1425878Y541972D01*
G01X1401128Y517222D01*
G01X1395476Y509443D01*
G01X1392505Y500298D01*
G01X1392505Y490682D01*
G01X1395476Y481537D01*
G01X1401128Y473758D01*
G01X1442466Y432420D01*
G01X1442466Y398991D01*
G01X1417088Y373612D01*
G01X1410185Y364617D01*
G01X1405846Y354142D01*
G01X1404366Y342900D01*
G01X1404366Y279400D01*
G01X1405846Y268158D01*
G01X1410185Y257683D01*
G01X1417088Y248688D01*
G01X1475471Y190304D01*
G01X1465105Y190964D01*
G01X1455111Y188133D01*
G01X1446631Y182135D01*
G01X1390063Y125567D01*
G01X1384411Y117788D01*
G01X1381440Y108643D01*
G01X1381440Y99027D01*
G01X1384411Y89882D01*
G01X1390063Y82102D01*
G01X1428465Y43700D01*
G01X1428465Y-79002D01*
G01X1415336Y-92131D01*
G01X1409684Y-99910D01*
G01X1406713Y-109055D01*
G01X1406713Y-118671D01*
G01X1409684Y-127816D01*
G01X1415336Y-135595D01*
G01X1416909Y-137168D01*
G01X1408304Y-145772D01*
G01X1400584Y-141274D01*
G01X1391896Y-139187D01*
G01X1382974Y-139687D01*
G01X1374574Y-142732D01*
G01X1367404Y-148065D01*
G01X1303765Y-211704D01*
G01X1298428Y-218881D01*
G01X1295384Y-227290D01*
G01X1294889Y-236220D01*
G01X1296986Y-244914D01*
G01X1301498Y-252636D01*
G01X1295289Y-261352D01*
G01X1291400Y-271322D01*
G01X1290066Y-281940D01*
G01X1282939Y-293115D01*
G01X1278631Y-305649D01*
G01X1277382Y-318843D01*
G01X1279261Y-331963D01*
G01X1284164Y-344277D01*
G01X1291817Y-355098D01*
G01X1301794Y-363823D01*
G01X1313539Y-369965D01*
G01X1326396Y-373183D01*
G01X1339649Y-373296D01*
G01X1352560Y-370299D01*
G01X1364408Y-364359D01*
G01X1374533Y-355806D01*
G01X1382370Y-345118D01*
G01X1387483Y-332890D01*
G01X1389587Y-319804D01*
G01X1398567Y-315933D01*
G01X1394562Y-325466D01*
G01X1393945Y-335787D01*
G01X1396786Y-345730D01*
G01X1402763Y-354167D01*
G01X1420686Y-372089D01*
G01X1342322Y-450453D01*
G01X1334631Y-460875D01*
G01X1310644Y-484863D01*
G01X1307083Y-489135D01*
G01X1306068Y-481114D01*
G01X1302997Y-473636D01*
G01X1298082Y-467218D01*
G01X1237234Y-406370D01*
G01X1237234Y-336184D01*
G01X1236187Y-328230D01*
G01X1233116Y-320817D01*
G01X1228232Y-314452D01*
G01X1091010Y-177230D01*
G01X1091010Y-120966D01*
G01X1089962Y-113012D01*
G01X1086892Y-105599D01*
G01X1082008Y-99234D01*
G01X986441Y-3668D01*
G01X980076Y1216D01*
G01X972664Y4287D01*
G01X964709Y5334D01*
G01X952500Y5334D01*
G01X944545Y4287D01*
G01X937133Y1216D01*
G01X930768Y-3668D01*
G01X816468Y-117968D01*
G01X811584Y-124333D01*
G01X808513Y-131745D01*
G01X807466Y-139700D01*
G01X807466Y-152400D01*
G01X808513Y-160355D01*
G01X811584Y-167767D01*
G01X816468Y-174132D01*
G01X838094Y-195758D01*
G01X830288Y-198828D01*
G01X823603Y-203895D01*
G01X762509Y-264989D01*
G01X756857Y-272768D01*
G01X753886Y-281913D01*
G01X753886Y-291529D01*
G01X756857Y-300674D01*
G01X762509Y-308454D01*
G01X819535Y-365480D01*
G01X827315Y-371132D01*
G01X836460Y-374103D01*
G01X846075Y-374103D01*
G01X855221Y-371132D01*
G01X863000Y-365480D01*
G01X924094Y-304385D01*
G01X929552Y-296982D01*
G01X932574Y-288295D01*
G01X939525Y-290943D01*
G01X946909Y-291843D01*
G01X950895Y-291843D01*
G01X962312Y-303260D01*
G01X953826Y-301496D01*
G01X945185Y-302172D01*
G01X937077Y-305233D01*
G01X930145Y-310436D01*
G01X869051Y-371531D01*
G01X863399Y-379310D01*
G01X860427Y-388455D01*
G01X860427Y-398071D01*
G01X863399Y-407216D01*
G01X869051Y-414995D01*
G01X926077Y-472022D01*
G01X933815Y-477652D01*
G01X942909Y-480630D01*
G01X952479Y-480667D01*
G01X961595Y-477758D01*
G01X969376Y-472186D01*
G01X972402Y-475212D01*
G01X981397Y-482115D01*
G01X991873Y-486454D01*
G01X1003114Y-487934D01*
G01X1125009Y-487934D01*
G01X1162017Y-524942D01*
G01X1165097Y-527740D01*
G01X1193978Y-556621D01*
G01X1201757Y-562273D01*
G01X1210902Y-565244D01*
G01X1220518Y-565244D01*
G01X1229663Y-562273D01*
G01X1237442Y-556621D01*
G01X1255121Y-538942D01*
G01X1255385Y-538674D01*
G01X1264014Y-537992D01*
G01X1272111Y-534930D01*
G01X1279032Y-529732D01*
G01X1298082Y-510682D01*
G01X1301642Y-506411D01*
G01X1302658Y-514431D01*
G01X1305729Y-521909D01*
G01X1310644Y-528327D01*
G01X1328322Y-546006D01*
G01X1333318Y-550051D01*
G01X1339046Y-552968D01*
G01X1341963Y-558696D01*
G01X1346008Y-563692D01*
G01X1363686Y-581370D01*
G01X1371466Y-587022D01*
G01X1380611Y-589994D01*
G01X1390227Y-589994D01*
G01X1399372Y-587022D01*
G01X1407151Y-581370D01*
G01X1436031Y-552490D01*
G01X1439112Y-549691D01*
G01X1484446Y-504357D01*
G01X1497244Y-501169D01*
G01X1508945Y-495083D01*
G01X1518903Y-486435D01*
G01X1526568Y-475702D01*
G01X1532365Y-483769D01*
G01X1538600Y-490004D01*
G01X1459012Y-569592D01*
G01X1456214Y-572672D01*
G01X1427333Y-601552D01*
G01X1421652Y-609389D01*
G01X1418690Y-618605D01*
G01X1418741Y-628284D01*
G01X1421800Y-637468D01*
G01X1354515Y-637468D01*
G01X1353334Y-629804D01*
G01X1350272Y-622679D01*
G01X1345524Y-616548D01*
G01X1316988Y-588012D01*
G01X1309209Y-582360D01*
G01X1300064Y-579388D01*
G01X1290448Y-579388D01*
G01X1281303Y-582360D01*
G01X1273524Y-588012D01*
G01X1238110Y-623426D01*
G01X1226827Y-612144D01*
G01X1219048Y-606492D01*
G01X1209903Y-603520D01*
G01X1200287Y-603520D01*
G01X1191142Y-606492D01*
G01X1183363Y-612144D01*
G01X1154483Y-641024D01*
G01X1151402Y-643822D01*
G01X1127459Y-667766D01*
G01X1122891Y-667766D01*
G01X934883Y-479758D01*
G01X925888Y-472856D01*
G01X915412Y-468517D01*
G01X904171Y-467037D01*
G01X891727Y-467037D01*
G01X854368Y-429678D01*
G01X846589Y-424026D01*
G01X837443Y-421055D01*
G01X827828Y-421055D01*
G01X818683Y-424026D01*
G01X810903Y-429678D01*
G01X758757Y-481824D01*
G01X749671Y-478809D01*
G01X804852Y-423627D01*
G01X810504Y-415848D01*
G01X813476Y-406703D01*
G01X813476Y-397087D01*
G01X810504Y-387942D01*
G01X804852Y-380163D01*
G01X747826Y-323136D01*
G01X740047Y-317484D01*
G01X730902Y-314513D01*
G01X721286Y-314513D01*
G01X712141Y-317484D01*
G01X704362Y-323136D01*
G01X643267Y-384231D01*
G01X637904Y-391458D01*
G01X634864Y-399929D01*
G01X634408Y-408917D01*
G01X636575Y-417652D01*
G01X641180Y-425385D01*
G01X629688Y-436877D01*
G01X622785Y-445872D01*
G01X618446Y-456348D01*
G01X616966Y-467589D01*
G01X616966Y-496046D01*
G01X609921Y-493316D01*
G01X602423Y-492388D01*
G01X454778Y-492388D01*
G01X446824Y-493435D01*
G01X439411Y-496505D01*
G01X433046Y-501390D01*
G01X193543Y-740892D01*
G01X-38113Y-740892D01*
G01X-47610Y-742396D01*
G01X-56178Y-746762D01*
G01X-62977Y-753561D01*
G01X-67342Y-762129D01*
G01X-68847Y-771626D01*
G01X-68847Y-939787D01*
G01X-68820Y-941069D01*
G01X-112926Y-941069D01*
G01X-181146Y-872849D01*
G01X-192291Y-864531D01*
G01X-205341Y-859726D01*
G01X-219218Y-858831D01*
G01X-232777Y-861921D01*
G01X-244897Y-868739D01*
G01X-254577Y-878723D01*
G01X-261017Y-891048D01*
G01X-263686Y-904696D01*
G01X-275363Y-906721D01*
G01X-286197Y-911523D01*
G01X-295539Y-918816D01*
G01X-302828Y-928160D01*
G01X-307627Y-938996D01*
G01X-309648Y-950674D01*
G01X-323299Y-953339D01*
G01X-335627Y-959777D01*
G01X-345615Y-969456D01*
G01X-352437Y-981576D01*
G01X-355529Y-995137D01*
G01X-354636Y-1009016D01*
G01X-349831Y-1022068D01*
G01X-341512Y-1033215D01*
G01X-263661Y-1111066D01*
G01X-253648Y-1118751D01*
G01X-241988Y-1123584D01*
G01X-229475Y-1125238D01*
G01X-216960Y-1123598D01*
G01X-205294Y-1118778D01*
G01X-195273Y-1111104D01*
G01X-187577Y-1101100D01*
G01X-182730Y-1089445D01*
G01X-175220Y-1096956D01*
G01X-234950Y-1156686D01*
G01X-321030Y-1070605D01*
G01X-325513Y-1066900D01*
G01X-379317Y-1013097D01*
G01X-387096Y-1007445D01*
G01X-396241Y-1004474D01*
G01X-405857Y-1004474D01*
G01X-415002Y-1007445D01*
G01X-422781Y-1013097D01*
G01X-436050Y-1026366D01*
G01X-444370Y-1018047D01*
G01X-452149Y-1012395D01*
G01X-461294Y-1009424D01*
G01X-470910Y-1009424D01*
G01X-480055Y-1012395D01*
G01X-487834Y-1018047D01*
G01X-531390Y-1061603D01*
G01X-546237Y-1061603D01*
G01X-554162Y-1062643D01*
G01X-561551Y-1065691D01*
G01X-567905Y-1070541D01*
G01X-860738Y-1361633D01*
G01X-866421Y-1369412D01*
G01X-869417Y-1378568D01*
G01X-869432Y-1388201D01*
G01X-866463Y-1397366D01*
G01X-860802Y-1405162D01*
G01X-548782Y-1717182D01*
G01X-542759Y-1721866D01*
G01X-927070Y-1721866D01*
G01X-985266Y-1663670D01*
G01X-985266Y-1340979D01*
G01X-972351Y-1347907D01*
G01X-958082Y-1351256D01*
G01X-943433Y-1350797D01*
G01X-929402Y-1346562D01*
G01X-916946Y-1338839D01*
G01X-906913Y-1328154D01*
G01X-899988Y-1315237D01*
G01X-896643Y-1300968D01*
G01X-894952Y-1299277D01*
G01X-879926Y-1314302D01*
G01X-872147Y-1319954D01*
G01X-863002Y-1322925D01*
G01X-853386Y-1322925D01*
G01X-844241Y-1319954D01*
G01X-836462Y-1314302D01*
G01X-783428Y-1261268D01*
G01X-777776Y-1253489D01*
G01X-774805Y-1244344D01*
G01X-774805Y-1234728D01*
G01X-777776Y-1225583D01*
G01X-783428Y-1217804D01*
G01X-854139Y-1147093D01*
G01X-861918Y-1141441D01*
G01X-871063Y-1138470D01*
G01X-880679Y-1138470D01*
G01X-889824Y-1141441D01*
G01X-897603Y-1147093D01*
G01X-950637Y-1200127D01*
G01X-956451Y-1208228D01*
G01X-959365Y-1217764D01*
G01X-959073Y-1227731D01*
G01X-955605Y-1237080D01*
G01X-958068Y-1239543D01*
G01X-971782Y-1242682D01*
G01X-984285Y-1249132D01*
G01X-994792Y-1258489D01*
G01X-1002642Y-1270165D01*
G01X-1007342Y-1283426D01*
G01X-1008597Y-1297439D01*
G01X-1170471Y-1135564D01*
G01X-1161788Y-1134914D01*
G01X-1153635Y-1131855D01*
G01X-1146668Y-1126632D01*
G01X-816468Y-796432D01*
G01X-811584Y-790067D01*
G01X-808513Y-782655D01*
G01X-807466Y-774700D01*
G01X-807466Y-558467D01*
G01X-767848Y-598085D01*
G01X-763021Y-609470D01*
G01X-755466Y-619261D01*
G01X-677615Y-697112D01*
G01X-666590Y-705365D01*
G01X-653686Y-710178D01*
G01X-639950Y-711160D01*
G01X-626493Y-708233D01*
G01X-614406Y-701633D01*
G01X-604668Y-691895D01*
G01X-598068Y-679808D01*
G01X-595140Y-666351D01*
G01X-596123Y-652614D01*
G01X-600936Y-639711D01*
G01X-609189Y-628686D01*
G01X-687040Y-550835D01*
G01X-693719Y-545262D01*
G01X-684387Y-537567D01*
G01X-676749Y-528188D01*
G01X-671105Y-517490D01*
G01X-663526Y-527321D01*
G01X-585675Y-605172D01*
G01X-574530Y-613490D01*
G01X-561481Y-618295D01*
G01X-547603Y-619190D01*
G01X-534044Y-616100D01*
G01X-521924Y-609282D01*
G01X-512244Y-599298D01*
G01X-505804Y-586973D01*
G01X-503135Y-573325D01*
G01X-489610Y-570699D01*
G01X-477374Y-564368D01*
G01X-467418Y-554845D01*
G01X-460550Y-542901D01*
G01X-457327Y-529507D01*
G01X-422573Y-529507D01*
G01X-411331Y-528027D01*
G01X-400856Y-523688D01*
G01X-391860Y-516785D01*
G01X-365710Y-490635D01*
G01X-357939Y-495745D01*
G01X-348995Y-498295D01*
G01X-339698Y-498054D01*
G01X-330898Y-495043D01*
G01X-323402Y-489537D01*
G01X-259763Y-425898D01*
G01X-254111Y-418118D01*
G01X-251140Y-408973D01*
G01X-251140Y-399357D01*
G01X-254111Y-390212D01*
G01X-259763Y-382433D01*
G01X-286596Y-355600D01*
G01X-226314Y-355600D01*
G01X-224535Y-370249D01*
G01X-219302Y-384048D01*
G01X-210919Y-396192D01*
G01X-199874Y-405978D01*
G01X-186807Y-412836D01*
G01X-172479Y-416368D01*
G01X-157721Y-416368D01*
G01X-143393Y-412836D01*
G01X-130326Y-405978D01*
G01X-119281Y-396192D01*
G01X-110898Y-384048D01*
G01X-105665Y-370249D01*
G01X-103886Y-355600D01*
G01X-105665Y-340951D01*
G01X-110898Y-327152D01*
G01X-119281Y-315008D01*
G01X-130326Y-305222D01*
G01X-143393Y-298364D01*
G01X-157721Y-294832D01*
G01X-172479Y-294832D01*
G01X-186807Y-298364D01*
G01X-199874Y-305222D01*
G01X-210919Y-315008D01*
G01X-219302Y-327152D01*
G01X-224535Y-340951D01*
G01X-226314Y-355600D01*
G01X-226314Y-355600D01*
G01X-286596Y-355600D01*
G01X-312997Y-329199D01*
G01X-306780Y-325623D01*
G01X-301284Y-321016D01*
G01X-214175Y-233907D01*
G01X-199895Y-231604D01*
G01X-186679Y-225729D01*
G01X-175402Y-216671D01*
G01X-166814Y-205033D01*
G01X-161485Y-191586D01*
G01X-159769Y-177225D01*
G01X-161779Y-162901D01*
G01X-167383Y-149567D01*
G01X-176207Y-138107D01*
G01X-187667Y-129283D01*
G01X-201001Y-123679D01*
G01X-215325Y-121669D01*
G01X-229686Y-123385D01*
G01X-243133Y-128714D01*
G01X-254771Y-137302D01*
G01X-263829Y-148579D01*
G01X-269704Y-161795D01*
G01X-272007Y-176075D01*
G01X-347139Y-251206D01*
G01X-381000Y-251206D01*
G01X-391584Y-252599D01*
G01X-401447Y-256685D01*
G01X-409916Y-263184D01*
G01X-436039Y-289306D01*
G01X-685800Y-289306D01*
G01X-696384Y-290699D01*
G01X-706247Y-294785D01*
G01X-714716Y-301284D01*
G01X-807466Y-394033D01*
G01X-807466Y-368300D01*
G01X-808513Y-360345D01*
G01X-811584Y-352933D01*
G01X-816468Y-346568D01*
G01X-1004883Y-158152D01*
G01X-1002412Y-155681D01*
G01X-995913Y-147211D01*
G01X-991828Y-137348D01*
G01X-990434Y-126764D01*
G01X-990434Y-15328D01*
G01X-991828Y-4744D01*
G01X-995913Y5119D01*
G01X-1002412Y13588D01*
G01X-1085678Y96854D01*
G01X-1077700Y103295D01*
G01X-999849Y181146D01*
G01X-991531Y192291D01*
G01X-986726Y205341D01*
G01X-985831Y219218D01*
G01X-988921Y232777D01*
G01X-995739Y244897D01*
G01X-1005723Y254577D01*
G01X-1018048Y261017D01*
G01X-1031696Y263686D01*
G01X-1033502Y274101D01*
G01X-868494Y274101D01*
G01X-865153Y259486D01*
G01X-858063Y246277D01*
G01X-847730Y235416D01*
G01X-834890Y227676D01*
G01X-820460Y223611D01*
G01X-817999Y211307D01*
G01X-812866Y199857D01*
G01X-805318Y189833D01*
G01X-795732Y181737D01*
G01X-784587Y175972D01*
G01X-772439Y172826D01*
G01X-759897Y172458D01*
G01X-747586Y174885D01*
G01X-736122Y179986D01*
G01X-726077Y187506D01*
G01X-711400Y187506D01*
G01X-707780Y187667D01*
G01X-706414Y186301D01*
G01X-706414Y90627D01*
G01X-705020Y80043D01*
G01X-700935Y70180D01*
G01X-694436Y61710D01*
G01X-654610Y21884D01*
G01X-646140Y15385D01*
G01X-636277Y11299D01*
G01X-625693Y9906D01*
G01X-588439Y9906D01*
G01X-574294Y-4239D01*
G01X-574294Y-190500D01*
G01X-572901Y-201084D01*
G01X-568815Y-210947D01*
G01X-562316Y-219416D01*
G01X-536916Y-244816D01*
G01X-536916Y-244816D01*
G01X-531061Y-249671D01*
G01X-524408Y-253358D01*
G01X-513099Y-263025D01*
G01X-499648Y-269383D01*
G01X-484999Y-271983D01*
G01X-470181Y-270643D01*
G01X-456236Y-265458D01*
G01X-444143Y-256791D01*
G01X-434751Y-245252D01*
G01X-428721Y-231651D01*
G01X-426476Y-216943D01*
G01X-428173Y-202162D01*
G01X-433694Y-188346D01*
G01X-442650Y-176466D01*
G01X-434046Y-165083D01*
G01X-428589Y-151897D01*
G01X-426634Y-137763D01*
G01X-428306Y-123591D01*
G01X-433496Y-110299D01*
G01X-441871Y-98746D01*
G01X-441871Y25565D01*
G01X-443265Y36149D01*
G01X-447350Y46012D01*
G01X-453849Y54482D01*
G01X-517184Y117816D01*
G01X-525653Y124315D01*
G01X-535516Y128401D01*
G01X-546100Y129794D01*
G01X-594106Y129794D01*
G01X-594106Y228600D01*
G01X-595172Y236698D01*
G01X-405934Y236698D01*
G01X-405934Y156698D01*
G01X-404430Y147200D01*
G01X-400064Y138633D01*
G01X-393265Y131833D01*
G01X-384697Y127468D01*
G01X-375200Y125964D01*
G01X-285200Y125964D01*
G01X-274969Y127717D01*
G01X-265905Y132776D01*
G01X-259042Y140564D01*
G01X-214689Y140564D01*
G01X-193660Y119535D01*
G01X-204253Y116249D01*
G01X-212989Y109417D01*
G01X-218732Y99928D01*
G01X-220734Y89019D01*
G01X-220734Y68440D01*
G01X-255887Y68440D01*
G01X-260216Y77102D01*
G01X-267025Y83986D01*
G01X-275638Y88411D01*
G01X-285200Y89936D01*
G01X-375200Y89936D01*
G01X-384697Y88432D01*
G01X-393265Y84067D01*
G01X-400064Y77267D01*
G01X-404430Y68700D01*
G01X-405934Y59202D01*
G01X-405934Y-20798D01*
G01X-404430Y-30295D01*
G01X-400064Y-38863D01*
G01X-393265Y-45662D01*
G01X-384697Y-50027D01*
G01X-375200Y-51532D01*
G01X-285200Y-51532D01*
G01X-275300Y-49894D01*
G01X-266456Y-45154D01*
G01X-259610Y-37818D01*
G01X-250275Y-32936D01*
G01X-242017Y-26396D01*
G01X-235127Y-18428D01*
G01X-220734Y-18428D01*
G01X-220734Y-38981D01*
G01X-220220Y-44578D01*
G01X-218695Y-49987D01*
G01X-220220Y-55397D01*
G01X-220734Y-60993D01*
G01X-220734Y-88994D01*
G01X-219229Y-98491D01*
G01X-214864Y-107059D01*
G01X-208065Y-113858D01*
G01X-199497Y-118224D01*
G01X-190000Y-119728D01*
G01X-119753Y-119728D01*
G01X-119753Y-190000D01*
G01X-119753Y-190000D01*
G01X-118249Y-199497D01*
G01X-113884Y-208065D01*
G01X-107084Y-214864D01*
G01X-98517Y-219229D01*
G01X-89019Y-220734D01*
G01X-61018Y-220734D01*
G01X-55422Y-220220D01*
G01X-50013Y-218695D01*
G01X-44603Y-220220D01*
G01X-39007Y-220734D01*
G01X-11006Y-220734D01*
G01X-5416Y-220221D01*
G01X-13Y-218700D01*
G01X5391Y-220221D01*
G01X10980Y-220734D01*
G01X38981Y-220734D01*
G01X44578Y-220220D01*
G01X49987Y-218695D01*
G01X55397Y-220220D01*
G01X60993Y-220734D01*
G01X88994Y-220734D01*
G01X98205Y-219321D01*
G01X106569Y-215213D01*
G01X111506Y-221254D01*
G01X111506Y-275161D01*
G01X104893Y-281775D01*
G01X90208Y-282755D01*
G01X76183Y-287212D01*
G01X63626Y-294888D01*
G01X53264Y-305339D01*
G01X45696Y-317961D01*
G01X41360Y-332025D01*
G01X40505Y-346717D01*
G01X43182Y-361189D01*
G01X49235Y-374603D01*
G01X58315Y-386185D01*
G01X69897Y-395265D01*
G01X83311Y-401318D01*
G01X97783Y-403995D01*
G01X112475Y-403140D01*
G01X126539Y-398804D01*
G01X139161Y-391236D01*
G01X149612Y-380874D01*
G01X157288Y-368317D01*
G01X161745Y-354292D01*
G01X162725Y-339607D01*
G01X181316Y-321016D01*
G01X186638Y-314463D01*
G01X190500Y-306956D01*
G01X194362Y-314463D01*
G01X199684Y-321016D01*
G01X218275Y-339607D01*
G01X219255Y-354292D01*
G01X223712Y-368317D01*
G01X231388Y-380874D01*
G01X241839Y-391236D01*
G01X254461Y-398804D01*
G01X268525Y-403140D01*
G01X283217Y-403995D01*
G01X297689Y-401318D01*
G01X311103Y-395265D01*
G01X322685Y-386185D01*
G01X331765Y-374603D01*
G01X337818Y-361189D01*
G01X340495Y-346717D01*
G01X339640Y-332025D01*
G01X335304Y-317961D01*
G01X327736Y-305339D01*
G01X317374Y-294888D01*
G01X304817Y-287212D01*
G01X290792Y-282755D01*
G01X276107Y-281775D01*
G01X269494Y-275161D01*
G01X269494Y-226374D01*
G01X277627Y-215259D01*
G01X282808Y-202498D01*
G01X284726Y-188860D01*
G01X293229Y-191181D01*
G01X301990Y-192143D01*
G01X418163Y-308316D01*
G01X426633Y-314815D01*
G01X436496Y-318901D01*
G01X447080Y-320294D01*
G01X583846Y-320294D01*
G01X595572Y-328762D01*
G01X609072Y-333953D01*
G01X623450Y-335522D01*
G01X637752Y-333365D01*
G01X651029Y-327625D01*
G01X662397Y-318684D01*
G01X671104Y-307134D01*
G01X676571Y-293743D01*
G01X678434Y-279400D01*
G01X676571Y-265057D01*
G01X671104Y-251666D01*
G01X662397Y-240116D01*
G01X651029Y-231175D01*
G01X637752Y-225435D01*
G01X623450Y-223278D01*
G01X609072Y-224847D01*
G01X595572Y-230038D01*
G01X583846Y-238506D01*
G01X464019Y-238506D01*
G01X393407Y-167894D01*
G01X415952Y-167894D01*
G01X427678Y-176362D01*
G01X441178Y-181553D01*
G01X455556Y-183122D01*
G01X469858Y-180965D01*
G01X483135Y-175225D01*
G01X494503Y-166284D01*
G01X503210Y-154734D01*
G01X508677Y-141343D01*
G01X510540Y-127000D01*
G01X508677Y-112657D01*
G01X503210Y-99266D01*
G01X494503Y-87716D01*
G01X483135Y-78775D01*
G01X469858Y-73035D01*
G01X455556Y-70878D01*
G01X441178Y-72447D01*
G01X427678Y-77638D01*
G01X415952Y-86106D01*
G01X389989Y-86106D01*
G01X353706Y-49824D01*
G01X347439Y-44691D01*
G01X340282Y-40894D01*
G01X660046Y-40894D01*
G01X671772Y-49362D01*
G01X685272Y-54553D01*
G01X699650Y-56122D01*
G01X713952Y-53965D01*
G01X727229Y-48225D01*
G01X738597Y-39284D01*
G01X747304Y-27734D01*
G01X752771Y-14343D01*
G01X754634Y0D01*
G01X752771Y14343D01*
G01X747304Y27734D01*
G01X738597Y39284D01*
G01X727229Y48225D01*
G01X713952Y53965D01*
G01X699650Y56122D01*
G01X685272Y54553D01*
G01X671772Y49362D01*
G01X660046Y40894D01*
G01X327327Y40894D01*
G01X351649Y65216D01*
G01X364412Y61479D01*
G01X377695Y60849D01*
G01X390754Y63361D01*
G01X402856Y68875D01*
G01X413321Y77080D01*
G01X421562Y87517D01*
G01X427116Y99600D01*
G01X429673Y112651D01*
G01X429087Y125936D01*
G01X425393Y138711D01*
G01X418797Y150259D01*
G01X409670Y159931D01*
G01X398524Y167184D01*
G01X385984Y171612D01*
G01X385966Y185311D01*
G01X382631Y198597D01*
G01X376177Y210680D01*
G01X366988Y220840D01*
G01X355612Y228472D01*
G01X342726Y233121D01*
G01X329098Y234510D01*
G01X315539Y232557D01*
G01X302857Y227379D01*
G01X291807Y219282D01*
G01X283051Y219282D01*
G01X194016Y308316D01*
G01X185547Y314815D01*
G01X175684Y318901D01*
G01X165100Y320294D01*
G01X-24219Y320294D01*
G01X-34803Y318901D01*
G01X-44666Y314815D01*
G01X-53135Y308316D01*
G01X-103935Y257516D01*
G01X-110434Y249047D01*
G01X-114519Y239184D01*
G01X-115913Y228600D01*
G01X-115913Y204876D01*
G01X-118778Y197682D01*
G01X-119753Y190000D01*
G01X-119753Y168478D01*
G01X-165985Y214710D01*
G01X-174981Y221613D01*
G01X-185456Y225952D01*
G01X-196698Y227432D01*
G01X-254466Y227432D01*
G01X-254466Y236698D01*
G01X-255970Y246195D01*
G01X-260336Y254763D01*
G01X-267135Y261562D01*
G01X-275703Y265927D01*
G01X-285200Y267432D01*
G01X-375200Y267432D01*
G01X-384697Y265927D01*
G01X-393265Y261562D01*
G01X-400064Y254763D01*
G01X-404430Y246195D01*
G01X-405934Y236698D01*
G01X-595172Y236698D01*
G01X-595499Y239184D01*
G01X-599585Y249047D01*
G01X-606084Y257516D01*
G01X-650103Y301536D01*
G01X-636841Y299496D01*
G01X-623473Y300662D01*
G01X-610764Y304968D01*
G01X-599440Y312166D01*
G01X-583734Y312166D01*
G01X-583734Y296702D01*
G01X-582230Y287205D01*
G01X-577864Y278637D01*
G01X-571065Y271838D01*
G01X-562497Y267473D01*
G01X-553000Y265968D01*
G01X-463000Y265968D01*
G01X-453503Y267473D01*
G01X-444935Y271838D01*
G01X-438136Y278637D01*
G01X-433770Y287205D01*
G01X-432266Y296702D01*
G01X-432266Y376702D01*
G01X-433770Y386200D01*
G01X-438136Y394767D01*
G01X-444935Y401567D01*
G01X-453503Y405932D01*
G01X-463000Y407436D01*
G01X-553000Y407436D01*
G01X-560677Y406462D01*
G01X-567868Y403601D01*
G01X-574116Y399034D01*
G01X-599440Y399034D01*
G01X-611097Y406391D01*
G01X-624196Y410685D01*
G01X-637947Y411657D01*
G01X-651519Y409248D01*
G01X-664096Y403605D01*
G01X-674918Y395066D01*
G01X-683332Y384148D01*
G01X-688833Y371508D01*
G01X-691086Y357909D01*
G01X-689958Y344171D01*
G01X-685516Y331122D01*
G01X-678027Y319548D01*
G01X-685800Y320294D01*
G01X-774361Y320294D01*
G01X-786603Y328947D01*
G01X-800699Y334051D01*
G01X-815643Y335242D01*
G01X-830370Y332436D01*
G01X-843828Y325831D01*
G01X-855059Y315900D01*
G01X-863260Y303351D01*
G01X-867848Y289078D01*
G01X-868494Y274101D01*
G01X-1033502Y274101D01*
G01X-1033721Y275363D01*
G01X-1038523Y286197D01*
G01X-1045816Y295539D01*
G01X-1055160Y302828D01*
G01X-1065996Y307627D01*
G01X-1077674Y309648D01*
G01X-1080339Y323299D01*
G01X-1086777Y335627D01*
G01X-1096456Y345615D01*
G01X-1108576Y352437D01*
G01X-1122137Y355529D01*
G01X-1136016Y354636D01*
G01X-1149068Y349831D01*
G01X-1160215Y341512D01*
G01X-1238066Y263661D01*
G01X-1246385Y252515D01*
G01X-1251190Y239462D01*
G01X-1252083Y225583D01*
G01X-1248991Y212022D01*
G01X-1242169Y199902D01*
G01X-1232181Y190223D01*
G01X-1219852Y183785D01*
G01X-1206202Y181120D01*
G01X-1205534Y175127D01*
G01X-1213302Y167359D01*
G01X-1693524Y647581D01*
G01X-1652107Y647581D01*
G01X-1652107Y637966D01*
G01X-1649136Y628821D01*
G01X-1643484Y621041D01*
G01X-1590450Y568007D01*
G01X-1582671Y562355D01*
G01X-1573526Y559384D01*
G01X-1563910Y559384D01*
G01X-1554765Y562355D01*
G01X-1546985Y568007D01*
G01X-1476275Y638718D01*
G01X-1470623Y646497D01*
G01X-1467652Y655642D01*
G01X-1467652Y665258D01*
G01X-1470623Y674403D01*
G01X-1476275Y682182D01*
G01X-1505293Y711200D01*
G01X-1161034Y711200D01*
G01X-1159121Y696671D01*
G01X-1153513Y683133D01*
G01X-1144593Y671507D01*
G01X-1132967Y662587D01*
G01X-1119429Y656979D01*
G01X-1104900Y655066D01*
G01X-1090371Y656979D01*
G01X-1076833Y662587D01*
G01X-1065207Y671507D01*
G01X-1056287Y683133D01*
G01X-1050679Y696671D01*
G01X-1048766Y711200D01*
G01X-1050679Y725729D01*
G01X-1056287Y739267D01*
G01X-1065207Y750893D01*
G01X-1076833Y759813D01*
G01X-1090371Y765421D01*
G01X-1104900Y767334D01*
G01X-1119429Y765421D01*
G01X-1132967Y759813D01*
G01X-1144593Y750893D01*
G01X-1153513Y739267D01*
G01X-1159121Y725729D01*
G01X-1161034Y711200D01*
G01X-1161034Y711200D01*
G01X-1505293Y711200D01*
G01X-1516445Y722353D01*
G01X-1516445Y777240D01*
G01X-1516445Y777240D01*
G01X-1508980Y789130D01*
G01X-1504698Y802500D01*
G01X-1503868Y816515D01*
G01X-1506542Y830298D01*
G01X-1512552Y842986D01*
G01X-1521523Y853785D01*
G01X-1532892Y862021D01*
G01X-1545950Y867178D01*
G01X-1559879Y868934D01*
G01X-1573808Y867178D01*
G01X-1586866Y862021D01*
G01X-1598236Y853785D01*
G01X-1607206Y842986D01*
G01X-1613216Y830298D01*
G01X-1615890Y816515D01*
G01X-1615060Y802500D01*
G01X-1610779Y789130D01*
G01X-1603313Y777240D01*
G01X-1603313Y704676D01*
G01X-1643484Y664506D01*
G01X-1649136Y656726D01*
G01X-1652107Y647581D01*
G01X-1693524Y647581D01*
G01X-1740314Y694372D01*
G01X-1748094Y700023D01*
G01X-1757239Y702995D01*
G01X-1766855Y702995D01*
G01X-1776000Y700024D01*
G01X-1783779Y694372D01*
G01X-2064766Y413384D01*
G01X-2064766Y698470D01*
G01X-1803370Y959866D01*
G01X-1354467Y959866D01*
G01X-1346512Y960913D01*
G01X-1339100Y963984D01*
G01X-1332734Y968868D01*
G01X-1168532Y1133070D01*
G01X-1171291Y1119137D01*
G01X-1170464Y1104958D01*
G01X-1166105Y1091440D01*
G01X-1158492Y1079449D01*
G01X-1148114Y1069753D01*
G01X-1135634Y1062972D01*
G01X-1135634Y1028700D01*
G01X-1134587Y1020745D01*
G01X-1131516Y1013333D01*
G01X-1126632Y1006968D01*
G01X-1048493Y928829D01*
G01X-1060850Y922315D01*
G01X-1071216Y912953D01*
G01X-1078949Y901321D01*
G01X-1083571Y888140D01*
G01X-1084796Y874226D01*
G01X-1082547Y860440D01*
G01X-1076964Y847636D01*
G01X-1068393Y836607D01*
G01X-1057364Y828036D01*
G01X-1044560Y822453D01*
G01X-1030774Y820204D01*
G01X-1016860Y821429D01*
G01X-1003679Y826051D01*
G01X-992047Y833784D01*
G01X-982685Y844150D01*
G01X-976171Y856507D01*
G01X-847232Y727568D01*
G01X-840867Y722684D01*
G01X-833455Y719613D01*
G01X-825500Y718566D01*
G01X-783161Y718566D01*
G01X-824112Y677615D01*
G01X-832365Y666590D01*
G01X-837178Y653686D01*
G01X-838160Y639950D01*
G01X-835233Y626493D01*
G01X-828633Y614406D01*
G01X-818895Y604668D01*
G01X-806808Y598068D01*
G01X-793351Y595140D01*
G01X-779614Y596123D01*
G01X-766711Y600936D01*
G01X-755686Y609189D01*
G01X-677835Y687040D01*
G01X-670230Y696916D01*
G01X-665400Y708406D01*
G01X-622881Y708406D01*
G01X-626679Y696109D01*
G01X-627577Y683269D01*
G01X-635745Y675101D01*
G01X-645696Y670378D01*
G01X-654321Y663526D01*
G01X-732172Y585675D01*
G01X-740490Y574530D01*
G01X-745295Y561481D01*
G01X-746190Y547603D01*
G01X-743100Y534044D01*
G01X-736282Y521924D01*
G01X-726298Y512244D01*
G01X-713973Y505804D01*
G01X-700325Y503135D01*
G01X-699813Y498094D01*
G01X-948261Y498094D01*
G01X-959893Y509725D01*
G01X-962196Y524005D01*
G01X-968071Y537221D01*
G01X-977129Y548498D01*
G01X-988767Y557086D01*
G01X-1002214Y562415D01*
G01X-1016575Y564131D01*
G01X-1030899Y562121D01*
G01X-1044233Y556517D01*
G01X-1055693Y547693D01*
G01X-1064517Y536233D01*
G01X-1070121Y522899D01*
G01X-1072131Y508575D01*
G01X-1070415Y494214D01*
G01X-1065086Y480767D01*
G01X-1056498Y469129D01*
G01X-1045221Y460071D01*
G01X-1032005Y454196D01*
G01X-1017725Y451893D01*
G01X-994116Y428284D01*
G01X-985647Y421785D01*
G01X-975784Y417699D01*
G01X-965200Y416306D01*
G01X-546100Y416306D01*
G01X-535516Y417699D01*
G01X-525653Y421785D01*
G01X-517184Y428284D01*
G01X-516461Y429006D01*
G01X-25754Y429006D01*
G01X-16392Y421893D01*
G01X-5755Y416886D01*
G01X5693Y414205D01*
G01X17448Y413967D01*
G01X28994Y416183D01*
G01X39826Y420755D01*
G01X49468Y427483D01*
G01X57496Y436072D01*
G01X70715Y429493D01*
G01X85192Y426589D01*
G01X99926Y427560D01*
G01X113897Y432339D01*
G01X126138Y440596D01*
G01X135803Y451759D01*
G01X142222Y465056D01*
G01X144952Y479567D01*
G01X156881Y481516D01*
G01X168115Y485973D01*
G01X178136Y492731D01*
G01X186477Y501478D01*
G01X200406Y487549D01*
G01X200406Y330200D01*
G01X201799Y319616D01*
G01X205885Y309753D01*
G01X212384Y301284D01*
G01X265684Y247983D01*
G01X274153Y241485D01*
G01X284016Y237399D01*
G01X294600Y236006D01*
G01X534113Y236006D01*
G01X545303Y227831D01*
G01X558156Y222647D01*
G01X571886Y220770D01*
G01X585659Y222314D01*
G01X598633Y227185D01*
G01X610018Y235086D01*
G01X619121Y245535D01*
G01X625386Y257897D01*
G01X628432Y271416D01*
G01X628073Y285270D01*
G01X624331Y298614D01*
G01X617434Y310634D01*
G01X623959Y322923D01*
G01X627261Y336440D01*
G01X627137Y350353D01*
G01X623594Y363809D01*
G01X616851Y375980D01*
G01X607321Y386119D01*
G01X595591Y393602D01*
G01X582380Y397970D01*
G01X568500Y398954D01*
G01X554805Y396494D01*
G01X343254Y396494D01*
G01X332732Y404291D01*
G01X320690Y409438D01*
G01X307783Y411655D01*
G01X294714Y410821D01*
G01X282194Y406981D01*
G01X282194Y438959D01*
G01X295049Y431151D01*
G01X309517Y427037D01*
G01X324557Y426911D01*
G01X339091Y430784D01*
G01X352075Y438378D01*
G01X365342Y431816D01*
G01X379864Y428951D01*
G01X394630Y429981D01*
G01X408613Y434834D01*
G01X420841Y443174D01*
G01X430465Y454420D01*
G01X436814Y467791D01*
G01X439448Y482356D01*
G01X438183Y497104D01*
G01X433107Y511008D01*
G01X424574Y523102D01*
G01X413176Y532545D01*
G01X399706Y538681D01*
G01X385100Y541082D01*
G01X380377Y545805D01*
G01X389430Y553105D01*
G01X396480Y562354D01*
G01X401119Y573018D01*
G01X403079Y584481D01*
G01X416727Y587150D01*
G01X429052Y593591D01*
G01X439036Y603271D01*
G01X445854Y615391D01*
G01X448944Y628949D01*
G01X448049Y642827D01*
G01X443244Y655877D01*
G01X434926Y667021D01*
G01X360934Y741013D01*
G01X360934Y756709D01*
G01X376833Y772608D01*
G01X380589Y768386D01*
G01X454406Y694569D01*
G01X454406Y571854D01*
G01X445938Y560128D01*
G01X440747Y546628D01*
G01X439178Y532250D01*
G01X441335Y517948D01*
G01X447075Y504671D01*
G01X456016Y493303D01*
G01X467566Y484596D01*
G01X480957Y479129D01*
G01X495300Y477266D01*
G01X509643Y479129D01*
G01X523034Y484596D01*
G01X534584Y493303D01*
G01X543525Y504671D01*
G01X549265Y517948D01*
G01X551422Y532250D01*
G01X549853Y546628D01*
G01X544662Y560128D01*
G01X536194Y571854D01*
G01X536194Y703647D01*
G01X540035Y714948D01*
G01X540992Y726847D01*
G01X539007Y738617D01*
G01X534201Y749543D01*
G01X526866Y758961D01*
G01X478361Y807466D01*
G01X510602Y807466D01*
G01X520033Y808502D01*
G01X529014Y811562D01*
G01X537116Y816498D01*
G01X544850Y811882D01*
G01X553590Y809706D01*
G01X562586Y810157D01*
G01X571064Y813196D01*
G01X578298Y818563D01*
G01X641937Y882202D01*
G01X648161Y891166D01*
G01X650860Y901739D01*
G01X657200Y910047D01*
G01X661890Y919386D01*
G01X664768Y929433D01*
G01X766785Y827416D01*
G01X614614Y675245D01*
G01X608115Y666775D01*
G01X604030Y656913D01*
G01X602636Y646328D01*
G01X602636Y585048D01*
G01X562737Y545149D01*
G01X557085Y537370D01*
G01X554114Y528225D01*
G01X554114Y518609D01*
G01X557085Y509464D01*
G01X562737Y501685D01*
G01X623832Y440590D01*
G01X631059Y435227D01*
G01X639530Y432187D01*
G01X648518Y431731D01*
G01X657253Y433898D01*
G01X664985Y438503D01*
G01X676320Y427168D01*
G01X675007Y416188D01*
G01X677665Y405453D01*
G01X683950Y396355D01*
G01X747590Y332715D01*
G01X756688Y326430D01*
G01X767423Y323772D01*
G01X778403Y325085D01*
G01X789743Y313745D01*
G01X785138Y306012D01*
G01X782971Y297278D01*
G01X783427Y288289D01*
G01X786467Y279819D01*
G01X791831Y272592D01*
G01X852925Y211497D01*
G01X860704Y205845D01*
G01X869850Y202874D01*
G01X879465Y202874D01*
G01X888610Y205845D01*
G01X896390Y211497D01*
G01X953416Y268524D01*
G01X959068Y276303D01*
G01X962039Y285448D01*
G01X962039Y295064D01*
G01X959068Y304209D01*
G01X953416Y311988D01*
G01X892322Y373082D01*
G01X885095Y378446D01*
G01X876624Y381486D01*
G01X867636Y381942D01*
G01X858901Y379775D01*
G01X851168Y375170D01*
G01X842338Y384000D01*
G01X847622Y389283D01*
G01X853600Y397721D01*
G01X856441Y407663D01*
G01X855824Y417985D01*
G01X851818Y427517D01*
G01X860458Y423734D01*
G01X869838Y422749D01*
G01X879075Y424655D01*
G01X887299Y429272D01*
G01X896285Y420287D01*
G01X891680Y412554D01*
G01X889513Y403819D01*
G01X889969Y394831D01*
G01X893009Y386360D01*
G01X898372Y379133D01*
G01X959467Y318039D01*
G01X966694Y312675D01*
G01X975165Y309635D01*
G01X984153Y309179D01*
G01X992888Y311347D01*
G01X1000621Y315951D01*
G01X1003741Y312830D01*
G01X999137Y305098D01*
G01X996970Y296363D01*
G01X997426Y287374D01*
G01X1000466Y278904D01*
G01X1005829Y271677D01*
G01X1066924Y210582D01*
G01X1074703Y204930D01*
G01X1083848Y201959D01*
G01X1093464Y201959D01*
G01X1102609Y204930D01*
G01X1110388Y210582D01*
G01X1167415Y267609D01*
G01X1173559Y276399D01*
G01X1176308Y286766D01*
G01X1187539Y288251D01*
G01X1198004Y292590D01*
G01X1206991Y299488D01*
G01X1300507Y393003D01*
G01X1308625Y396064D01*
G01X1315564Y401271D01*
G01X1365061Y450769D01*
G01X1370713Y458548D01*
G01X1373685Y467693D01*
G01X1373685Y477309D01*
G01X1370713Y486454D01*
G01X1365061Y494233D01*
G01X1340312Y518983D01*
G01X1334123Y523764D01*
G01X1326929Y526829D01*
G01X1323864Y534023D01*
G01X1319083Y540212D01*
G01X1294333Y564961D01*
G01X1294153Y565141D01*
G01X1304432Y575168D01*
G01X1309316Y581533D01*
G01X1312387Y588945D01*
G01X1313434Y596900D01*
G01X1313434Y609600D01*
G01X1312387Y617555D01*
G01X1309316Y624967D01*
G01X1304432Y631332D01*
G01X1254894Y680870D01*
G01X1254894Y717404D01*
G01X1253847Y725359D01*
G01X1250777Y732771D01*
G01X1245893Y739136D01*
G01X1049686Y935343D01*
G01X1062646Y939326D01*
G01X1074274Y946299D01*
G01X1083890Y955857D01*
G01X1090934Y967442D01*
G01X1094995Y980378D01*
G01X1095836Y993911D01*
G01X1093408Y1007250D01*
G01X1087852Y1019618D01*
G01X1079493Y1030293D01*
G01X1068818Y1038652D01*
G01X1056450Y1044208D01*
G01X1043110Y1046636D01*
G01X1029578Y1045795D01*
G01X1016642Y1041735D01*
G01X1005057Y1034690D01*
G01X995499Y1025074D01*
G01X988525Y1013446D01*
G01X984543Y1000486D01*
G01X959527Y1025502D01*
G01X959527Y1089061D01*
G01X958757Y1095898D01*
G01X965519Y1107108D01*
G01X969501Y1119579D01*
G01X970486Y1132633D01*
G01X968420Y1145560D01*
G01X963416Y1157658D01*
G01X955747Y1168267D01*
G01X945828Y1176811D01*
G01X934200Y1182826D01*
G01X921495Y1185984D01*
G01X908405Y1186113D01*
G01X895640Y1183206D01*
G01X883896Y1177422D01*
G01X849441Y1211877D01*
G01X849441Y1283943D01*
G01X973128Y1407630D01*
G01X1143000Y1407630D01*
G01X1152497Y1409134D01*
G01X1161065Y1413500D01*
G01X1167864Y1420299D01*
G01X1172230Y1428867D01*
G01X1173734Y1438364D01*
G01X1173734Y1765300D01*
G01X1172230Y1774797D01*
G01X1167864Y1783365D01*
G01X1161065Y1790164D01*
G01X1152497Y1794530D01*
G01X1143000Y1796034D01*
G01X963901Y1796034D01*
G01X955946Y1794987D01*
G01X948534Y1791916D01*
G01X942168Y1787032D01*
G01X698871Y1543735D01*
G01X693987Y1537370D01*
G01X690916Y1529957D01*
G01X689869Y1522003D01*
G01X689869Y1419620D01*
G01X658779Y1388530D01*
G01X644622Y1389550D01*
G01X630663Y1386986D01*
G01X617792Y1381003D01*
G01X606834Y1371983D01*
G01X598488Y1360503D01*
G01X593288Y1347297D01*
G01X591567Y1333208D01*
G01X593434Y1319138D01*
G01X591566Y1308586D01*
G01X591566Y1178209D01*
G01X590702Y1168400D01*
G01X591566Y1158591D01*
G01X591566Y1111979D01*
G01X578608Y1118923D01*
G01X564292Y1122265D01*
G01X549599Y1121775D01*
G01X535537Y1117487D01*
G01X523071Y1109695D01*
G01X513055Y1098934D01*
G01X506177Y1085941D01*
G01X502908Y1071608D01*
G01X503473Y1056918D01*
G01X507832Y1042878D01*
G01X515687Y1030451D01*
G01X526499Y1020490D01*
G01X539527Y1013678D01*
G01X553876Y1010482D01*
G01X568564Y1011122D01*
G01X582581Y1015552D01*
G01X585523Y1009673D01*
G01X589648Y1004553D01*
G01X599233Y994968D01*
G01X588836Y991953D01*
G01X579212Y986998D01*
G01X569810Y990611D01*
G01X559745Y990990D01*
G01X550097Y988094D01*
G01X541904Y982235D01*
G01X478265Y918596D01*
G01X472968Y911494D01*
G01X469918Y903176D01*
G01X469367Y894334D01*
G01X393700Y894334D01*
G01X382458Y892854D01*
G01X371983Y888515D01*
G01X362988Y881612D01*
G01X286788Y805412D01*
G01X279885Y796417D01*
G01X275546Y785942D01*
G01X274066Y774700D01*
G01X274066Y713000D01*
G01X262735Y710963D01*
G01X252206Y706306D01*
G01X243075Y699294D01*
G01X235859Y690324D01*
G01X59066Y867116D01*
G01X50597Y873615D01*
G01X40734Y877701D01*
G01X30150Y879094D01*
G01X-12346Y879094D01*
G01X-24072Y887562D01*
G01X-37572Y892753D01*
G01X-51950Y894322D01*
G01X-66252Y892165D01*
G01X-79529Y886425D01*
G01X-90897Y877484D01*
G01X-99604Y865934D01*
G01X-105071Y852543D01*
G01X-106934Y838200D01*
G01X-105071Y823857D01*
G01X-99604Y810466D01*
G01X-90897Y798916D01*
G01X-79529Y789975D01*
G01X-66252Y784235D01*
G01X-51950Y782078D01*
G01X-37572Y783647D01*
G01X-24072Y788838D01*
G01X-12346Y797306D01*
G01X13211Y797306D01*
G01X35182Y775335D01*
G01X22771Y779123D01*
G01X9821Y779960D01*
G01X-2974Y777801D01*
G01X-14932Y772762D01*
G01X-25413Y765112D01*
G01X-33858Y755259D01*
G01X-39814Y743731D01*
G01X-42965Y731143D01*
G01X-43141Y718168D01*
G01X-40332Y705499D01*
G01X-34690Y693813D01*
G01X-26515Y683736D01*
G01X-16245Y675804D01*
G01X-4428Y670443D01*
G01X-5318Y661755D01*
G01X-4849Y653034D01*
G01X-404701Y653034D01*
G01X-407964Y656297D01*
G01X-393331Y661041D01*
G01X-380342Y669284D01*
G01X-369819Y680505D01*
G01X-362425Y693995D01*
G01X-358628Y708902D01*
G01X-358668Y724285D01*
G01X-362541Y739173D01*
G01X-370004Y752625D01*
G01X-380585Y763791D01*
G01X-393616Y771967D01*
G01X-408273Y776636D01*
G01X-423632Y777504D01*
G01X-261356Y939779D01*
G01X-260778Y925783D01*
G01X-256752Y912365D01*
G01X-249529Y900363D01*
G01X-239559Y890522D01*
G01X-227463Y883456D01*
G01X-213995Y879606D01*
G01X-199992Y879210D01*
G01X-186327Y882293D01*
G01X-173851Y888664D01*
G01X-163341Y897926D01*
G01X-155452Y909501D01*
G01X-150674Y922670D01*
G01X-149306Y936611D01*
G01X-151432Y950457D01*
G01X-156921Y963346D01*
G01X-165429Y974474D01*
G01X-156912Y984244D01*
G01X-150862Y995708D01*
G01X-147603Y1008253D01*
G01X-147308Y1021212D01*
G01X-149994Y1033893D01*
G01X-155516Y1045619D01*
G01X-118020Y1083115D01*
G01X-47454Y1012549D01*
G01X-36309Y1004231D01*
G01X-23259Y999426D01*
G01X-9382Y998531D01*
G01X4177Y1001621D01*
G01X16297Y1008439D01*
G01X25977Y1018423D01*
G01X32417Y1030748D01*
G01X35086Y1044396D01*
G01X46763Y1046421D01*
G01X57597Y1051223D01*
G01X66939Y1058516D01*
G01X74228Y1067860D01*
G01X79027Y1078696D01*
G01X81048Y1090374D01*
G01X94699Y1093039D01*
G01X107027Y1099477D01*
G01X117015Y1109156D01*
G01X123837Y1121276D01*
G01X126929Y1134837D01*
G01X126036Y1148716D01*
G01X121231Y1161768D01*
G01X112912Y1172915D01*
G01X104727Y1181100D01*
G01X285915Y1181100D01*
G01X287694Y1166451D01*
G01X292927Y1152652D01*
G01X301310Y1140508D01*
G01X312355Y1130722D01*
G01X325422Y1123864D01*
G01X339750Y1120332D01*
G01X354507Y1120332D01*
G01X368836Y1123864D01*
G01X381902Y1130722D01*
G01X392948Y1140508D01*
G01X401331Y1152652D01*
G01X406564Y1166451D01*
G01X408343Y1181100D01*
G01X406564Y1195749D01*
G01X401331Y1209548D01*
G01X392948Y1221692D01*
G01X381902Y1231478D01*
G01X368836Y1238336D01*
G01X354507Y1241868D01*
G01X339750Y1241868D01*
G01X325422Y1238336D01*
G01X312355Y1231478D01*
G01X301310Y1221692D01*
G01X292927Y1209548D01*
G01X287694Y1195749D01*
G01X285915Y1181100D01*
G01X285915Y1181100D01*
G01X104727Y1181100D01*
G01X35061Y1250766D01*
G01X24516Y1258754D01*
G01X12202Y1263587D01*
G01X-961Y1264904D01*
G01X-13989Y1262607D01*
G01X159980Y1436576D01*
G01X260810Y1436576D01*
G01X268764Y1437623D01*
G01X276177Y1440693D01*
G01X282542Y1445578D01*
G01X706725Y1869761D01*
G01X705911Y1857725D01*
G01X707687Y1845794D01*
G01X711971Y1834517D01*
G01X718566Y1824416D01*
G01X718566Y1815258D01*
G01X656449Y1753141D01*
G01X651806Y1757784D01*
G01X644026Y1763436D01*
G01X634881Y1766407D01*
G01X625266Y1766407D01*
G01X616121Y1763436D01*
G01X608341Y1757784D01*
G01X555307Y1704750D01*
G01X549655Y1696971D01*
G01X546684Y1687826D01*
G01X546684Y1678210D01*
G01X549655Y1669065D01*
G01X555307Y1661285D01*
G01X626018Y1590575D01*
G01X633797Y1584923D01*
G01X642942Y1581952D01*
G01X652558Y1581952D01*
G01X661703Y1584923D01*
G01X669482Y1590575D01*
G01X722516Y1643609D01*
G01X728168Y1651388D01*
G01X731140Y1660533D01*
G01X731140Y1670149D01*
G01X728168Y1679294D01*
G01X722516Y1687073D01*
G01X717873Y1691716D01*
G01X792712Y1766555D01*
G01X799615Y1775550D01*
G01X803954Y1786026D01*
G01X805434Y1797267D01*
G01X805434Y1824416D01*
G01X812719Y1835922D01*
G01X817019Y1848844D01*
G01X818081Y1862421D01*
G01X815842Y1875854D01*
G01X810433Y1888353D01*
G01X802175Y1899181D01*
G01X791551Y1907702D01*
G01X779188Y1913414D01*
G01X765814Y1915980D01*
G01X752215Y1915251D01*
G01X816072Y1979108D01*
G01X821808Y1987054D01*
G01X824752Y1996401D01*
G01X824603Y2006200D01*
G01X821377Y2015454D01*
G01X815403Y2023222D01*
G01X777907Y2058508D01*
G01X882328Y2058508D01*
G01X882328Y2048892D01*
G01X885299Y2039747D01*
G01X890951Y2031968D01*
G01X947978Y1974941D01*
G01X955715Y1969310D01*
G01X964810Y1966332D01*
G01X974379Y1966296D01*
G01X983496Y1969205D01*
G01X991276Y1974777D01*
G01X1000894Y1965158D01*
G01X1000894Y1965158D01*
G01X1000126Y1964390D01*
G01X994474Y1956611D01*
G01X991503Y1947466D01*
G01X991503Y1937850D01*
G01X994474Y1928705D01*
G01X1000126Y1920926D01*
G01X1063760Y1857292D01*
G01X1071540Y1851640D01*
G01X1080685Y1848668D01*
G01X1090300Y1848668D01*
G01X1099445Y1851640D01*
G01X1107225Y1857292D01*
G01X1177935Y1928002D01*
G01X1183587Y1935782D01*
G01X1186559Y1944927D01*
G01X1186559Y1954542D01*
G01X1183587Y1963687D01*
G01X1177935Y1971467D01*
G01X1114301Y2035101D01*
G01X1106522Y2040753D01*
G01X1097377Y2043724D01*
G01X1087761Y2043724D01*
G01X1078616Y2040753D01*
G01X1070837Y2035101D01*
G01X1062319Y2026583D01*
G01X1052701Y2036201D01*
G01X1058273Y2043982D01*
G01X1061181Y2053098D01*
G01X1061145Y2062668D01*
G01X1058167Y2071762D01*
G01X1052536Y2079500D01*
G01X995510Y2136526D01*
G01X987731Y2142178D01*
G01X978586Y2145150D01*
G01X968970Y2145150D01*
G01X959825Y2142178D01*
G01X952046Y2136526D01*
G01X890951Y2075432D01*
G01X885299Y2067653D01*
G01X882328Y2058508D01*
G01X777907Y2058508D01*
G01X620349Y2206782D01*
G01X614111Y2211322D01*
G01X606940Y2214166D01*
G01X599286Y2215134D01*
G01X188274Y2215134D01*
G01X180319Y2214087D01*
G01X172907Y2211016D01*
G01X166541Y2206132D01*
G01X-223266Y1816325D01*
G01X-223266Y1882140D01*
G01X-216049Y1893502D01*
G01X-211745Y1906256D01*
G01X-210600Y1919667D01*
G01X-212682Y1932965D01*
G01X-217869Y1945386D01*
G01X-190500Y1945386D01*
G01X-185293Y1946781D01*
G01X-181481Y1950593D01*
G01X-180086Y1955800D01*
G01X-180086Y2019300D01*
G01X-181481Y2024507D01*
G01X-185293Y2028319D01*
G01X-190500Y2029714D01*
G01X-271888Y2029714D01*
G01X-218230Y2083372D01*
G01X-213346Y2089737D01*
G01X-210276Y2097149D01*
G01X-209229Y2105104D01*
G37*
G36*
G01X-7280Y238506D02*
G01X148161Y238506D01*
G01X237195Y149472D01*
G01X245665Y142973D01*
G01X255528Y138888D01*
G01X266112Y137494D01*
G01X291807Y137494D01*
G01X301156Y130389D01*
G01X237061Y66294D01*
G01X204141Y66294D01*
G01X197277Y68867D01*
G01X190000Y69741D01*
G01X113222Y69741D01*
G01X113222Y82513D01*
G01X112304Y89969D01*
G01X117812Y99319D01*
G01X119728Y110000D01*
G01X119728Y190000D01*
G01X118224Y199497D01*
G01X113858Y208065D01*
G01X107059Y214864D01*
G01X98491Y219229D01*
G01X88994Y220734D01*
G01X60993Y220734D01*
G01X51496Y219229D01*
G01X42928Y214864D01*
G01X36129Y208065D01*
G01X31763Y199497D01*
G01X30259Y190000D01*
G01X30259Y113247D01*
G01X19728Y113247D01*
G01X19728Y190000D01*
G01X18224Y199497D01*
G01X13859Y208065D01*
G01X7059Y214864D01*
G01X-1508Y219229D01*
G01X-11006Y220734D01*
G01X-25052Y220734D01*
G01X-7280Y238506D01*
G37*
G36*
G01X-1415505Y-720321D02*
G01X-1249934Y-554749D01*
G01X-1249934Y-584170D01*
G01X-1393332Y-727568D01*
G01X-1398216Y-733933D01*
G01X-1401287Y-741345D01*
G01X-1402334Y-749300D01*
G01X-1402334Y-764081D01*
G01X-1403611Y-762725D01*
G01X-1437014Y-729322D01*
G01X-1429139Y-728236D01*
G01X-1421806Y-725168D01*
G01X-1415505Y-720321D01*
G37*
G36*
G01X-1391666Y-925098D02*
G01X-1336225Y-980539D01*
G01X-1338297Y-980469D01*
G01X-1391666Y-980469D01*
G01X-1391666Y-925098D01*
G37*
G36*
G01X-787244Y1514358D02*
G01X-781198Y1519055D01*
G01X-767929Y1532325D01*
G01X-759609Y1524005D01*
G01X-751601Y1518238D01*
G01X-742177Y1515306D01*
G01X-742177Y1452656D01*
G01X-741130Y1444701D01*
G01X-738059Y1437289D01*
G01X-733175Y1430924D01*
G01X-656543Y1354292D01*
G01X-650471Y1345655D01*
G01X-565783Y1260968D01*
G01X-559418Y1256084D01*
G01X-552006Y1253013D01*
G01X-544051Y1251966D01*
G01X-455198Y1251966D01*
G01X-469930Y1237234D01*
G01X-698470Y1237234D01*
G01X-770595Y1309359D01*
G01X-761436Y1319013D01*
G01X-754806Y1330551D01*
G01X-751079Y1343326D01*
G01X-750464Y1356618D01*
G01X-752994Y1369683D01*
G01X-758529Y1381784D01*
G01X-766757Y1392243D01*
G01X-777216Y1400471D01*
G01X-789317Y1406006D01*
G01X-802382Y1408536D01*
G01X-815674Y1407921D01*
G01X-828449Y1404194D01*
G01X-839987Y1397564D01*
G01X-849641Y1388405D01*
G01X-879968Y1418732D01*
G01X-881467Y1420135D01*
G01X-787244Y1514358D01*
G37*
G36*
G01X631332Y-977602D02*
G01X636216Y-971237D01*
G01X639287Y-963824D01*
G01X640334Y-955870D01*
G01X640334Y-838230D01*
G01X689733Y-788831D01*
G01X695573Y-780677D01*
G01X698476Y-771077D01*
G01X711600Y-772413D01*
G01X724706Y-770905D01*
G01X737184Y-766625D01*
G01X748456Y-759771D01*
G01X757997Y-750661D01*
G01X1145968Y-1138633D01*
G01X1003301Y-1281300D01*
G01X998417Y-1287665D01*
G01X995346Y-1295077D01*
G01X994299Y-1303032D01*
G01X994299Y-1360575D01*
G01X817743Y-1184018D01*
G01X809963Y-1178366D01*
G01X800818Y-1175395D01*
G01X791202Y-1175395D01*
G01X782057Y-1178366D01*
G01X774278Y-1184018D01*
G01X753714Y-1204583D01*
G01X744134Y-1200420D01*
G01X733713Y-1199706D01*
G01X723655Y-1202524D01*
G01X715122Y-1208547D01*
G01X392680Y-1530988D01*
G01X389362Y-1534915D01*
G01X379357Y-1524910D01*
G01X379357Y-1491939D01*
G01X417314Y-1453982D01*
G01X426411Y-1456849D01*
G01X435949Y-1456788D01*
G01X445010Y-1453806D01*
G01X452719Y-1448190D01*
G01X703716Y-1197193D01*
G01X704145Y-1197193D01*
G01X714296Y-1195468D01*
G01X723307Y-1190488D01*
G01X730168Y-1182811D01*
G01X734109Y-1173298D01*
G01X734686Y-1163018D01*
G01X731836Y-1153124D01*
G01X725877Y-1144727D01*
G01X651703Y-1070552D01*
G01X647416Y-1061786D01*
G01X640597Y-1054806D01*
G01X631934Y-1050315D01*
G01X622300Y-1048766D01*
G01X560168Y-1048766D01*
G01X631332Y-977602D01*
G37*
G36*
G01X2512916Y-422392D02*
G01X2512916Y-733841D01*
G01X1957711Y-733841D01*
G01X1949757Y-734888D01*
G01X1942344Y-737959D01*
G01X1935979Y-742843D01*
G01X1667368Y-1011454D01*
G01X1662984Y-1016983D01*
G01X1659977Y-1023366D01*
G01X1345646Y-1023366D01*
G01X1320392Y-998112D01*
G01X1317132Y-994268D01*
G01X1244688Y-921823D01*
G01X1244688Y-794884D01*
G01X1322272Y-717300D01*
G01X1322272Y-727906D01*
G01X1323319Y-735860D01*
G01X1326390Y-743273D01*
G01X1331274Y-749638D01*
G01X1351855Y-770219D01*
G01X1346013Y-774794D01*
G01X1282374Y-838434D01*
G01X1276722Y-846213D01*
G01X1273750Y-855358D01*
G01X1273750Y-864974D01*
G01X1276722Y-874119D01*
G01X1282374Y-881898D01*
G01X1300052Y-899577D01*
G01X1307832Y-905229D01*
G01X1316977Y-908200D01*
G01X1326592Y-908200D01*
G01X1335738Y-905229D01*
G01X1343517Y-899577D01*
G01X1407156Y-835937D01*
G01X1412808Y-828158D01*
G01X1415780Y-819013D01*
G01X1415780Y-809397D01*
G01X1412808Y-800252D01*
G01X1407156Y-792473D01*
G01X1405820Y-791136D01*
G01X1500198Y-791136D01*
G01X1508152Y-790089D01*
G01X1515565Y-787019D01*
G01X1521930Y-782135D01*
G01X1613016Y-691049D01*
G01X1622112Y-696157D01*
G01X1632393Y-697927D01*
G01X1731441Y-697927D01*
G01X1739396Y-696880D01*
G01X1746808Y-693810D01*
G01X1753173Y-688925D01*
G01X2017665Y-424434D01*
G01X2501900Y-424434D01*
G01X2507502Y-423919D01*
G01X2512916Y-422392D01*
G37*
G36*
G01X2489200Y84974D02*
G01X2498101Y86291D01*
G01X2506238Y90130D01*
G01X2512916Y96160D01*
G01X2512916Y-99008D01*
G01X2508528Y-94620D01*
G01X2502209Y-89762D01*
G01X2494853Y-86693D01*
G01X2486956Y-85618D01*
G01X2480249Y-79434D01*
G01X2472021Y-75490D01*
G01X2462999Y-74136D01*
G01X1893000Y-74136D01*
G01X1882975Y-75817D01*
G01X1874046Y-80676D01*
G01X1867191Y-88182D01*
G01X1859652Y-92870D01*
G01X1853768Y-99516D01*
G01X1850029Y-107568D01*
G01X1848747Y-116352D01*
G01X1848747Y-293287D01*
G01X1701461Y-440573D01*
G01X1696037Y-433233D01*
G01X1639469Y-376665D01*
G01X1631689Y-371013D01*
G01X1622544Y-368041D01*
G01X1612928Y-368041D01*
G01X1603783Y-371013D01*
G01X1596004Y-376665D01*
G01X1532809Y-439860D01*
G01X1528836Y-426257D01*
G01X1521583Y-414083D01*
G01X1511512Y-404113D01*
G01X1515312Y-400313D01*
G01X1522215Y-391316D01*
G01X1566435Y-347096D01*
G01X1572173Y-339146D01*
G01X1575116Y-329794D01*
G01X1574964Y-319991D01*
G01X1571732Y-310735D01*
G01X1581215Y-301251D01*
G01X1588948Y-305856D01*
G01X1597683Y-308023D01*
G01X1606671Y-307567D01*
G01X1615142Y-304527D01*
G01X1622369Y-299164D01*
G01X1683464Y-238069D01*
G01X1689116Y-230290D01*
G01X1692087Y-221145D01*
G01X1692087Y-211529D01*
G01X1689116Y-202384D01*
G01X1683464Y-194605D01*
G01X1646105Y-157246D01*
G01X1646105Y-62337D01*
G01X1680960Y-27482D01*
G01X1686612Y-19703D01*
G01X1689583Y-10557D01*
G01X1689583Y-942D01*
G01X1686612Y8203D01*
G01X1680960Y15983D01*
G01X1640077Y56865D01*
G01X1763999Y56865D01*
G01X1775241Y58345D01*
G01X1785716Y62684D01*
G01X1794712Y69587D01*
G01X1848747Y123622D01*
G01X1848747Y115708D01*
G01X1850251Y106211D01*
G01X1854616Y97643D01*
G01X1861416Y90844D01*
G01X1869983Y86479D01*
G01X1879481Y84974D01*
G01X1884535Y84974D01*
G01X1890460Y84398D01*
G01X2460459Y84398D01*
G01X2466384Y84974D01*
G01X2489200Y84974D01*
G37*
G54D10*
G01X1042361Y-1879577D02*
G01X429328Y-1879577D01*
G01X380832Y-1831081D01*
G01X380832Y-1635297D01*
G01X796010Y-1220119D01*
G01X1070646Y-1494754D01*
G03X1085014Y-1494754I7184J7184D01*
G01X1094740Y-1485028D01*
G01X1094740Y-1827198D01*
G01X1042361Y-1879577D01*
G01X-1820308Y-403860D02*
G01X-1452251Y-771917D01*
G03X-1432560Y-805434I55251J9917D01*
G01X-1432560Y-808368D01*
G03X-1432560Y-895236I35560J-43434D01*
G01X-1432560Y-1209040D01*
G01X-1514272Y-1209040D01*
G03X-1590513Y-1209040I-38120J-349831D01*
G01X-1811892Y-1209040D01*
G01X-1921010Y-1099921D01*
G03X-1928195Y-1096945I-7184J-7184D01*
G01X-2116692Y-1096945D01*
G01X-2136140Y-1077497D01*
G01X-2136140Y-403860D01*
G01X-1820308Y-403860D01*
G01X-1059155Y1115289D02*
G03X-1094740Y1167526I-56134J0D01*
G01X-1094740Y1189592D01*
G01X-901700Y1382632D01*
G01X-861701Y1342633D01*
G03X-816367Y1297299I55251J9917D01*
G01X-718384Y1199316D01*
G03X-711200Y1196340I7184J7184D01*
G01X-457200Y1196340D01*
G03X-450016Y1199316I0J10160D01*
G01X-275192Y1374140D01*
G01X-274386Y1374140D01*
G01X-117094Y1216848D01*
G01X-117094Y1201643D01*
G03X-105116Y1172727I40894J0D01*
G01X-95679Y1163289D01*
G01X-132178Y1126791D01*
G03X-185191Y1073777I-4875J-48138D01*
G01X-188731Y1070237D01*
G03X-242893Y1055693I-14469J-54237D01*
G03X-257437Y1001531I39693J-39693D01*
G01X-499508Y759460D01*
G01X-511127Y759460D01*
G01X-529884Y778216D01*
G03X-558800Y790194I-28916J-28916D01*
G01X-684001Y790194D01*
G03X-712917Y778216I0J-40894D01*
G01X-722678Y768455D01*
G03X-741734Y759460I10631J-47202D01*
G01X-821292Y759460D01*
G01X-1094740Y1032908D01*
G01X-1094740Y1063051D01*
G03X-1059155Y1115289I-20549J52238D01*
G01X-1361440Y-808368D02*
G01X-1361440Y-805434D01*
G03X-1346152Y-738220I-35560J43434D01*
G01X-1212016Y-604084D01*
G03X-1209040Y-596900I-7184J7184D01*
G01X-1209040Y-489645D01*
G03X-1212016Y-482460I-10160J0D01*
G01X-1369932Y-324545D01*
G01X-1192049Y-146662D01*
G01X-1074206Y-146662D01*
G01X-848360Y-372508D01*
G01X-848360Y-770492D01*
G01X-1168400Y-1090532D01*
G01X-1252849Y-1006083D01*
G03X-1298183Y-960749I-55251J-9917D01*
G01X-1316349Y-942583D01*
G03X-1361440Y-897293I-55251J-9917D01*
G01X-1361440Y-895236D01*
G03X-1361440Y-808368I-35560J43434D01*
G01X-27953Y-935579D02*
G01X-27953Y-892292D01*
G03X-27953Y-834908I-48247J28692D01*
G01X-27953Y-781786D01*
G01X206274Y-781786D01*
G03X213458Y-778810I0J10160D01*
G01X458987Y-533282D01*
G01X598215Y-533282D01*
G01X622345Y-557412D01*
G03X629688Y-567188I38055J20937D01*
G01X657841Y-595341D01*
G01X657841Y-681201D01*
G03X657841Y-741199I53359J-29999D01*
G01X657841Y-762891D01*
G01X602416Y-818316D01*
G03X599440Y-825500I7184J-7184D01*
G01X599440Y-951661D01*
G01X499490Y-1051611D01*
G01X233629Y-1051611D01*
G03X226444Y-1054587I0J-10160D01*
G01X160892Y-1120140D01*
G01X156608Y-1120140D01*
G01X-27953Y-935579D01*
G01X1196340Y-340393D02*
G01X1196340Y-386574D01*
G03X1196340Y-410968I28210J-12197D01*
G01X1196340Y-419100D01*
G03X1199316Y-426284I10160J0D01*
G01X1261982Y-488950D01*
G01X1257300Y-493632D01*
G01X1167226Y-403558D01*
G03X1160042Y-400582I-7184J-7184D01*
G01X1117467Y-400582D01*
G01X970809Y-253924D01*
G03X963625Y-250949I-7184J-7184D01*
G01X951117Y-250949D01*
G01X848360Y-148192D01*
G01X848360Y-143908D01*
G01X956708Y-35560D01*
G01X960501Y-35560D01*
G01X1050116Y-125175D01*
G01X1050116Y-189960D01*
G03X1053091Y-197144I10160J0D01*
G01X1196340Y-340393D01*
G01X1079500Y-746760D02*
G01X1079960Y-746760D01*
G03X1104900Y-754634I24940J35560D01*
G01X1145450Y-754634D01*
G03X1170792Y-746474I0J43434D01*
G03X1175584Y-743784I-2392J9874D01*
G01X1295256Y-624112D01*
G01X1313632Y-642489D01*
G01X1313632Y-668107D01*
G01X1206769Y-774969D01*
G03X1203794Y-782154I7184J-7184D01*
G01X1203794Y-934554D01*
G03X1206769Y-941738I10160J0D01*
G01X1281032Y-1016000D01*
G01X1181100Y-1115932D01*
G01X784860Y-719692D01*
G01X784860Y-715408D01*
G01X905908Y-594360D01*
G01X922892Y-594360D01*
G01X1072316Y-743784D01*
G03X1079500Y-746760I7184J7184D01*
G01X1472583Y-675386D02*
G01X1478687Y-669282D01*
G03X1488476Y-662695I-11943J28319D01*
G01X1517356Y-633815D01*
G03X1520437Y-631017I-27632J33511D01*
G01X1589106Y-562347D01*
G01X1633311Y-562347D01*
G03X1640495Y-559371I0J10160D01*
G01X1886665Y-313202D01*
G03X1889641Y-306017I-7184J7184D01*
G01X1889641Y-126512D01*
G01X2482587Y-126512D01*
G01X2504559Y-148484D01*
G01X2504559Y-376672D01*
G01X2497692Y-383540D01*
G01X2004934Y-383540D01*
G03X1997750Y-386516I0J-10160D01*
G01X1727233Y-657033D01*
G01X1653556Y-657033D01*
G01X1635190Y-638668D01*
G03X1591726Y-638668I-21732J-21732D01*
G01X1528086Y-702307D01*
G03X1519228Y-727004I21732J-21732D01*
G01X1495989Y-750242D01*
G01X1389711Y-750242D01*
G01X1363166Y-723697D01*
G01X1363166Y-678362D01*
G01X1465398Y-678362D01*
G03X1472583Y-675386I0J10160D01*
G01X1424117Y646253D02*
G03X1419214Y639854I21732J-21732D01*
G01X1394460Y664608D01*
G01X1394460Y668892D01*
G01X1443611Y718042D01*
G03X1446587Y725227I-7184J7184D01*
G01X1446587Y788873D01*
G01X1561954Y904240D01*
G01X1608692Y904240D01*
G01X1792860Y720071D01*
G01X1792860Y679612D01*
G03X1803020Y669452I10160J0D01*
G01X2148279Y669452D01*
G01X2189916Y627816D01*
G03X2197100Y624840I7184J7184D01*
G01X2205592Y624840D01*
G01X2228016Y602416D01*
G03X2235200Y599440I7184J7184D01*
G01X2479040Y599440D01*
G01X2479040Y125868D01*
G01X1889641Y125868D01*
G01X1889641Y393581D01*
G03X1886665Y400765I-10160J0D01*
G01X1569045Y718384D01*
G03X1561861Y721360I-7184J-7184D01*
G01X1511300Y721360D01*
G03X1504116Y718384I0J-10160D01*
G01X1490018Y704286D01*
G03X1473615Y695750I5329J-30268D01*
G01X1424117Y646253D01*
G01X1144138Y656932D02*
G03X1134073Y664917I-39693J-39693D01*
G01X1091526Y707464D01*
G03X1084342Y710440I-7184J-7184D01*
G01X941594Y710440D01*
G01X622592Y1029442D01*
G01X760173Y1167023D01*
G01X1214000Y713196D01*
G01X1214000Y668140D01*
G03X1216976Y660955I10160J0D01*
G01X1217892Y660040D01*
G03X1224361Y650525I28201J12218D01*
G01X1272540Y602346D01*
G01X1272540Y601108D01*
G01X1253092Y581660D01*
G01X1217331Y581660D01*
G01X1152123Y646868D01*
G03X1144138Y656932I-47678J-29628D01*
G01X702970Y1168400D02*
G03X632460Y1222662I-56134J0D01*
G01X632460Y1279474D01*
G03X693450Y1300973I15240J54026D01*
G03X693722Y1365640I-45750J32527D01*
G01X727787Y1399705D01*
G03X730763Y1406889I-7184J7184D01*
G01X730763Y1517794D01*
G01X968109Y1755140D01*
G01X1132840Y1755140D01*
G01X1132840Y1448524D01*
G01X955764Y1448524D01*
G03X948580Y1445548I0J-10160D01*
G01X945321Y1442289D01*
G01X943770Y1440293D01*
G03X898783Y1422622I-3970J-55993D01*
G03X884205Y1376539I41017J-38322D01*
G01X857878Y1350212D01*
G03X818443Y1327715I5722J-55842D01*
G03X808547Y1283406I45157J-33345D01*
G01X808547Y1199147D01*
G03X811523Y1191963I10160J0D01*
G01X859868Y1143617D01*
G03X871589Y1093993I54532J-13317D01*
G03X918633Y1074326I42811J36307D01*
G01X918633Y850053D01*
G01X815315Y850053D01*
G01X632460Y1032908D01*
G01X632460Y1114138D01*
G03X702970Y1168400I14376J54262D01*
G01X1833754Y724280D02*
G03X1831235Y736466I-30734J0D01*
G01X1831235Y951535D01*
G01X2504440Y951535D01*
G01X2504440Y721360D01*
G01X1833754Y721360D01*
G01X1833754Y724280D01*
G01X-1350788Y756530D02*
G01X-1098579Y504321D01*
G01X-1305141Y297758D01*
G01X-1554979Y547596D01*
G01X-1554979Y552339D01*
G01X-1350788Y756530D01*
G01X999392Y-1259132D02*
G01X640334Y-900074D01*
G01X640334Y-869648D01*
G01X746808Y-763174D01*
G01X1121079Y-1137445D01*
G01X999392Y-1259132D01*
G01X1372006Y-914826D02*
G01X1495695Y-791136D01*
G01X1500198Y-791136D01*
G03X1521930Y-782135I0J30734D01*
G01X1613016Y-691049D01*
G03X1632393Y-697927I19378J23856D01*
G01X1648759Y-697927D01*
G01X1719519Y-768687D01*
G01X1719519Y-913611D01*
G01X1652690Y-980440D01*
G01X1437620Y-980440D01*
G01X1372006Y-914826D01*
G01X954093Y1169993D02*
G03X924317Y1185551I-39693J-39693D01*
G01X861060Y1248808D01*
G01X861060Y1261597D01*
G01X971823Y1372360D01*
G01X1222498Y1372360D01*
G01X1437354Y1157504D01*
G01X1237416Y957566D01*
G03X1234440Y950382I7184J-7184D01*
G01X1234440Y901700D01*
G03X1237416Y894516I10160J0D01*
G01X1364021Y767911D01*
G01X1364021Y696670D01*
G01X1301557Y634207D01*
G01X1260676Y675088D01*
G03X1262380Y680720I-8456J5632D01*
G01X1262380Y768605D01*
G03X1259404Y775789I-10160J0D01*
G01X1102360Y932833D01*
G01X1102360Y1003300D01*
G03X1099384Y1010484I-10160J0D01*
G01X969651Y1140217D01*
G03X954093Y1169993I-55251J-9917D01*
G01X1049066Y-538194D02*
G01X1099326Y-487934D01*
G01X1121266Y-487934D01*
G01X1192132Y-558800D01*
G01X1107892Y-643040D01*
G01X1049066Y-584214D01*
G01X1049066Y-538194D01*
G01X1238617Y-398749D02*
G01X1287580Y-349786D01*
G03X1302289Y-364157I45920J32286D01*
G01X1344532Y-406400D01*
G01X1295400Y-455532D01*
G01X1238617Y-398749D01*
G01X-1082040Y-1126092D02*
G01X-1082040Y-1071008D01*
G01X-761162Y-750131D01*
G01X-530836Y-980457D01*
G01X-771968Y-1221589D01*
G01X-882479Y-1111079D01*
G03X-896847Y-1111079I-7184J-7184D01*
G01X-969408Y-1183640D01*
G01X-1024492Y-1183640D01*
G01X-1082040Y-1126092D01*
G01X591566Y1308586D02*
G01X591566Y1286107D01*
G01X368461Y1063002D01*
G01X243962Y1063002D01*
G01X47906Y1259058D01*
G01X47906Y1295626D01*
G01X161561Y1409281D01*
G01X258450Y1409281D01*
G03X265634Y1412257I0J10160D01*
G01X531148Y1677771D01*
G01X671839Y1537080D01*
G01X671839Y1401589D01*
G01X658779Y1388530D01*
G03X606834Y1371983I-11079J-55030D01*
G03X593434Y1319138I40866J-38483D01*
G03X591566Y1308586I28866J-10552D01*
G01X285915Y1181100D02*
G03X408343Y1181100I61214J0D01*
G03X285915Y1181100I-61214J0D01*
G01X-1947897Y-1021363D02*
G01X-1363977Y-1021363D01*
G03X-1340128Y-1062100I55877J5363D01*
G03X-1293631Y-1070237I32028J46100D01*
G01X-1026160Y-1337708D01*
G01X-1026160Y-1676400D01*
G03X-1023184Y-1683584I10160J0D01*
G01X-946984Y-1759784D01*
G03X-939800Y-1762760I7184J7184D01*
G01X939800Y-1762760D01*
G03X946984Y-1759784I0J10160D01*
G01X1032217Y-1674551D01*
G03X1035193Y-1667367I-7184J7184D01*
G01X1035193Y-1307240D01*
G01X1278174Y-1064260D01*
G01X1689100Y-1064260D01*
G03X1699260Y-1054100I0J10160D01*
G01X1699260Y-1037395D01*
G01X1961920Y-774735D01*
G01X2507015Y-774735D01*
G01X2507015Y-986024D01*
G02X2400000Y-1062915I-107015J36024D01*
G01X2222701Y-1062916D01*
G01X2221464Y-1062937D01*
G03X2189124Y-1084233I1284J-37153D01*
G02X2067071Y-1301940I-2189127J1084227D01*
G02X1807247Y-1303106I-130532J137596D01*
G03X1309584Y-1800769I-248376J-249287D01*
G02X1357644Y-1962753I-138762J-129292D01*
G01X-1352184Y-1962753D01*
G02X-1303106Y-1807247I187841J26214D01*
G03X-1800769Y-1309584I-249287J248376D01*
G02X-2065338Y-1303755I-129292J138762D01*
G02X-2335276Y-715462I2065336J1303754D01*
G01X-2335276Y716551D01*
G02X-2066550Y1302432I2335275J-716550D01*
G02X-1807246Y1303106I130012J-138088D01*
G03X-1309578Y1800763I248376J249287D01*
G02X-1302736Y2066359I138919J129308D01*
G02X-953947Y2248765I1302735J-2066358D01*
G01X-250123Y2248765D01*
G01X-250123Y2109312D01*
G01X-329721Y2029714D01*
G01X-393700Y2029714D01*
G03X-404114Y2019300I0J-10414D01*
G01X-404114Y1955800D01*
G01X-404103Y1955332D01*
G01X-1358675Y1000760D01*
G01X-1816100Y1000760D01*
G03X-1823284Y997784I0J-10160D01*
G01X-2102684Y718384D01*
G03X-2105660Y711200I7184J-7184D01*
G01X-2105660Y-863600D01*
G03X-2102684Y-870784I10160J0D01*
G01X-1955081Y-1018388D01*
G03X-1947897Y-1021363I7184J7184D01*
G01X1209511Y-991816D02*
G01X1256263Y-991816D01*
G01X1369639Y-1105192D01*
G01X1329292Y-1145540D01*
G01X1210708Y-1145540D01*
G01X1139097Y-1073929D01*
G01X1139097Y-1062229D01*
G01X1209511Y-991816D01*
G01X135296Y-1189396D02*
G01X163657Y-1161034D01*
G01X165100Y-1161034D01*
G03X186832Y-1152032I0J30734D01*
G01X246359Y-1092505D01*
G01X503699Y-1092505D01*
G03X516614Y-1089660I0J30734D01*
G01X613482Y-1089660D01*
G03X615116Y-1091798I8818J5046D01*
G01X683197Y-1159879D01*
G01X430987Y-1412089D01*
G01X340021Y-1321123D01*
G03X325951Y-1320836I-7184J-7184D01*
G01X314720Y-1331188D01*
G03X305353Y-1337593I12365J-28137D01*
G01X276857Y-1366088D01*
G01X225237Y-1413670D01*
G03X224939Y-1428324I6886J-7471D01*
G01X292489Y-1495875D01*
G01X292489Y-1608933D01*
G03X252529Y-1643237I12311J-54767D01*
G03X258579Y-1695553I52271J-20463D01*
G01X237092Y-1717040D01*
G01X-478392Y-1717040D01*
G01X-507166Y-1688266D01*
G03X-514350Y-1685290I-7184J-7184D01*
G01X-522842Y-1685290D01*
G01X-824680Y-1383451D01*
G01X-542047Y-1102497D01*
G01X-346971Y-1102497D01*
G01X-242134Y-1207334D01*
G03X-227766Y-1207334I7184J7184D01*
G01X-44450Y-1024018D01*
G01X120927Y-1189396D01*
G03X135296Y-1189396I7184J7184D01*
G01X-2059940Y360378D02*
G01X-1949817Y470501D01*
G03X-1926075Y479436I2010J30668D01*
G01X-1803887Y601624D01*
G03X-1794952Y625366I-21732J21732D01*
G01X-1762047Y658271D01*
G01X-1170966Y67190D01*
G03X-1166795Y62306I33087J24032D01*
G01X-1105529Y1039D01*
G01X-1422210Y-315641D01*
G03X-1422210Y-330010I7184J-7184D01*
G01X-1407385Y-344834D01*
G01X-1406032Y-346277D01*
G01X-1252663Y-499646D01*
G01X-1437238Y-684220D01*
G01X-1689447Y-432011D01*
G01X-1596581Y-339144D01*
G03X-1596581Y-324776I-7184J7184D01*
G01X-1614177Y-307180D01*
G01X-1614952Y-306376D01*
G01X-1667985Y-253342D01*
G01X-1668789Y-252567D01*
G01X-1737410Y-183946D01*
G03X-1751779Y-183946I-7184J-7184D01*
G01X-1778399Y-210566D01*
G01X-1827140Y-210566D01*
G03X-1912865Y-228811I-35560J-43434D01*
G03X-1876296Y-308463I50165J-25189D01*
G01X-1910050Y-342217D01*
G01X-2059940Y-192327D01*
G01X-2059940Y360378D01*
G01X-301132Y1406032D02*
G01X-414304Y1292860D01*
G01X-539843Y1292860D01*
G01X-617458Y1370476D01*
G03X-620272Y1375854I-9998J-1806D01*
G01X-701283Y1456864D01*
G01X-701283Y1527558D01*
G01X-511801Y1717040D01*
G01X-421503Y1717040D01*
G01X-350295Y1645832D01*
G03X-336573Y1645239I7184J7184D01*
G03X-306376Y1653052I8465J29545D01*
G01X-253342Y1706085D01*
G03X-245517Y1736241I-21732J21732D01*
G01X192482Y2174240D01*
G01X595257Y2174240D01*
G01X779750Y2000619D01*
G01X256601Y1477470D01*
G01X147250Y1477470D01*
G03X140066Y1474494I0J-10160D01*
G01X-75830Y1258598D01*
G01X-253166Y1435934D01*
G03X-267534Y1435934I-7184J-7184D01*
G01X-290514Y1412954D01*
G03X-301132Y1406032I11114J-28654D01*
G01X-209229Y2105104D02*
G01X-209229Y2248765D01*
G01X696193Y2248765D01*
G03X695329Y2171751I40407J-38965D01*
G03X772160Y2166366I41271J38049D01*
G01X776024Y2166366D01*
G03X784409Y2138509I30118J-6124D01*
G01X841436Y2081483D01*
G03X884900Y2081483I21732J21732D01*
G01X945995Y2142577D01*
G03X945995Y2186042I-21732J21732D01*
G01X888968Y2243068D01*
G03X881100Y2248765I-21732J-21732D01*
G01X953946Y2248765D01*
G02X1302433Y2066549I-953946J-2248765D01*
G02X1303106Y1807247I-138089J-130011D01*
G03X1800763Y1309578I249287J-248376D01*
G02X2066358Y1302737I129307J-138918D01*
G02X2189264Y1083550I-2066358J-1302737D01*
G03X2222637Y1062916I33236J16450D01*
G01X2399986Y1062916D01*
G02X2512916Y950000I14J-112916D01*
G01X2512916Y629148D01*
G03X2489200Y640334I-23716J-19548D01*
G01X2247930Y640334D01*
G01X2231532Y656732D01*
G03X2209830Y665734I-21732J-21732D01*
G01X2174220Y701345D01*
G03X2152488Y710346I-21732J-21732D01*
G01X1833754Y710346D01*
G01X1833754Y724280D01*
G03X1824752Y746012I-30734J0D01*
G01X1634632Y936132D01*
G03X1612900Y945134I-21732J-21732D01*
G01X1557745Y945134D01*
G03X1536013Y936132I0J-30734D01*
G01X1414694Y814813D01*
G03X1405693Y793081I21732J-21732D01*
G01X1405693Y737957D01*
G01X1362568Y694832D01*
G03X1353566Y673100I21732J-21732D01*
G01X1353566Y660400D01*
G03X1362568Y638668I30734J0D01*
G01X1400668Y600568D01*
G03X1433330Y593575I21732J21732D01*
G01X1448867Y578039D01*
G03X1456412Y572507I21732J21732D01*
G01X1447089Y563183D01*
G03X1439247Y549814I21732J-21732D01*
G03X1425878Y541972I8363J-29574D01*
G01X1401128Y517222D01*
G03X1401128Y473758I21732J-21732D01*
G01X1442466Y432420D01*
G01X1442466Y398991D01*
G01X1417088Y373612D01*
G03X1404366Y342900I30712J-30712D01*
G01X1404366Y279400D01*
G03X1417088Y248688I43434J0D01*
G01X1475471Y190304D01*
G03X1446631Y182135I-7107J-29901D01*
G01X1390063Y125567D01*
G03X1390063Y82102I21732J-21732D01*
G01X1428465Y43700D01*
G01X1428465Y-79002D01*
G01X1415336Y-92131D01*
G03X1415336Y-135595I21732J-21732D01*
G01X1416909Y-137168D01*
G01X1408304Y-145772D01*
G03X1367404Y-148065I-19168J-24024D01*
G01X1303765Y-211704D01*
G03X1301498Y-252636I21732J-21732D01*
G03X1290066Y-281940I32002J-29366D01*
G03X1313539Y-369965I43434J-35560D01*
G03X1389587Y-319804I19961J52465D01*
G03X1398567Y-315933I-7521J29799D01*
G03X1402763Y-354167I25928J-16502D01*
G01X1420686Y-372089D01*
G01X1342322Y-450453D01*
G03X1334631Y-460875I30712J-30712D01*
G01X1310644Y-484863D01*
G03X1307083Y-489135I21732J-21732D01*
G03X1298082Y-467218I-30733J185D01*
G01X1237234Y-406370D01*
G01X1237234Y-336184D01*
G03X1228232Y-314452I-30734J0D01*
G01X1091010Y-177230D01*
G01X1091010Y-120966D01*
G03X1082008Y-99234I-30734J0D01*
G01X986441Y-3668D01*
G03X964709Y5334I-21732J-21732D01*
G01X952500Y5334D01*
G03X930768Y-3668I0J-30734D01*
G01X816468Y-117968D01*
G03X807466Y-139700I21732J-21732D01*
G01X807466Y-152400D01*
G03X816468Y-174132I30734J0D01*
G01X838094Y-195758D01*
G03X823603Y-203895I7242J-29869D01*
G01X762509Y-264989D01*
G03X762509Y-308454I21732J-21732D01*
G01X819535Y-365480D01*
G03X863000Y-365480I21732J21732D01*
G01X924094Y-304385D01*
G03X932574Y-288295I-21732J21732D01*
G03X946909Y-291843I14335J27186D01*
G01X950895Y-291843D01*
G01X962312Y-303260D01*
G03X930145Y-310436I-10435J-28908D01*
G01X869051Y-371531D01*
G03X869051Y-414995I21732J-21732D01*
G01X926077Y-472022D01*
G03X969376Y-472186I21732J21732D01*
G01X972402Y-475212D01*
G03X1003114Y-487934I30712J30712D01*
G01X1125009Y-487934D01*
G01X1162017Y-524942D01*
G03X1165097Y-527740I30712J30712D01*
G01X1193978Y-556621D01*
G03X1237442Y-556621I21732J21732D01*
G01X1255121Y-538942D01*
G01X1255385Y-538674D01*
G03X1279032Y-529732I1915J30674D01*
G01X1298082Y-510682D01*
G03X1301642Y-506411I-21732J21732D01*
G03X1310644Y-528327I30733J-185D01*
G01X1328322Y-546006D01*
G03X1339046Y-552968I21732J21732D01*
G03X1346008Y-563692I28695J11009D01*
G01X1363686Y-581370D01*
G03X1407151Y-581370I21732J21732D01*
G01X1436031Y-552490D01*
G03X1439112Y-549691I-27632J33511D01*
G01X1484446Y-504357D01*
G03X1526568Y-475702I-7075J55686D01*
G03X1532365Y-483769I27529J13665D01*
G01X1538600Y-490004D01*
G01X1459012Y-569592D01*
G03X1456214Y-572672I30713J-30712D01*
G01X1427333Y-601552D01*
G03X1421800Y-637468I21732J-21732D01*
G01X1354515Y-637468D01*
G03X1345524Y-616548I-30723J-813D01*
G01X1316988Y-588012D01*
G03X1273524Y-588012I-21732J-21732D01*
G01X1238110Y-623426D01*
G01X1226827Y-612144D01*
G03X1183363Y-612144I-21732J-21732D01*
G01X1154483Y-641024D01*
G03X1151402Y-643822I27632J-33511D01*
G01X1127459Y-667766D01*
G01X1122891Y-667766D01*
G01X934883Y-479758D01*
G03X904171Y-467037I-30712J-30712D01*
G01X891727Y-467037D01*
G01X854368Y-429678D01*
G03X810903Y-429678I-21732J-21732D01*
G01X758757Y-481824D01*
G03X749671Y-478809I-22157J-51576D01*
G01X804852Y-423627D01*
G03X804852Y-380163I-21732J21732D01*
G01X747826Y-323136D01*
G03X704362Y-323136I-21732J-21732D01*
G01X643267Y-384231D01*
G03X641180Y-425385I21732J-21732D01*
G01X629688Y-436877D01*
G03X616966Y-467589I30712J-30712D01*
G01X616966Y-496046D01*
G03X602423Y-492388I-14543J-27076D01*
G01X454778Y-492388D01*
G03X433046Y-501390I0J-30734D01*
G01X193543Y-740892D01*
G01X-38113Y-740892D01*
G03X-68847Y-771626I0J-30734D01*
G01X-68847Y-939787D01*
G01X-68820Y-941069D01*
G01X-112926Y-941069D01*
G01X-181146Y-872849D01*
G03X-263686Y-904696I-34213J-34213D01*
G03X-309648Y-950674I2366J-48327D01*
G03X-341512Y-1033215I2349J-48327D01*
G01X-263661Y-1111066D01*
G03X-182730Y-1089445I34213J34213D01*
G01X-175220Y-1096956D01*
G01X-234950Y-1156686D01*
G01X-321030Y-1070605D01*
G03X-325513Y-1066900I-21732J-21732D01*
G01X-379317Y-1013097D01*
G03X-422781Y-1013097I-21732J-21732D01*
G01X-436050Y-1026366D01*
G01X-444370Y-1018047D01*
G03X-487834Y-1018047I-21732J-21732D01*
G01X-531390Y-1061603D01*
G01X-546237Y-1061603D01*
G03X-567905Y-1070541I0J-30734D01*
G01X-860738Y-1361633D01*
G03X-860802Y-1405162I21667J-21797D01*
G01X-548782Y-1717182D01*
G03X-542759Y-1721866I21732J21732D01*
G01X-927070Y-1721866D01*
G01X-985266Y-1663670D01*
G01X-985266Y-1340979D01*
G03X-896643Y-1300968I32766J45579D01*
G01X-894952Y-1299277D01*
G01X-879926Y-1314302D01*
G03X-836462Y-1314302I21732J21732D01*
G01X-783428Y-1261268D01*
G03X-783428Y-1217804I-21732J21732D01*
G01X-854139Y-1147093D01*
G03X-897603Y-1147093I-21732J-21732D01*
G01X-950637Y-1200127D01*
G03X-955605Y-1237080I21732J-21732D01*
G01X-958068Y-1239543D01*
G03X-1008597Y-1297439I5568J-55857D01*
G01X-1170471Y-1135564D01*
G03X-1146668Y-1126632I2071J30664D01*
G01X-816468Y-796432D01*
G03X-807466Y-774700I-21732J21732D01*
G01X-807466Y-558467D01*
G01X-767848Y-598085D01*
G03X-755466Y-619261I46595J13037D01*
G01X-677615Y-697112D01*
G03X-609189Y-628686I34213J34213D01*
G01X-687040Y-550835D01*
G03X-693719Y-545262I-34213J-34213D01*
G03X-671105Y-517490I-34084J50847D01*
G03X-663526Y-527321I41792J24382D01*
G01X-585675Y-605172D01*
G03X-503135Y-573325I34213J34213D01*
G03X-457327Y-529507I-2366J48327D01*
G01X-422573Y-529507D01*
G03X-391860Y-516785I0J43434D01*
G01X-365710Y-490635D01*
G03X-323402Y-489537I20576J22830D01*
G01X-259763Y-425898D01*
G03X-259763Y-382433I-21732J21732D01*
G01X-312997Y-329199D01*
G03X-301284Y-321016I-17203J37099D01*
G01X-214175Y-233907D01*
G03X-176207Y-138107I-1725J56107D01*
G03X-272007Y-176075I-39693J-39693D01*
G01X-347139Y-251206D01*
G01X-381000Y-251206D01*
G03X-409916Y-263184I0J-40894D01*
G01X-436039Y-289306D01*
G01X-685800Y-289306D01*
G03X-714716Y-301284I0J-40894D01*
G01X-807466Y-394033D01*
G01X-807466Y-368300D01*
G03X-816468Y-346568I-30734J0D01*
G01X-1004883Y-158152D01*
G01X-1002412Y-155681D01*
G03X-990434Y-126764I-28916J28916D01*
G01X-990434Y-15328D01*
G03X-1002412Y13588I-40894J0D01*
G01X-1085678Y96854D01*
G03X-1077700Y103295I-26236J40654D01*
G01X-999849Y181146D01*
G03X-1031696Y263686I-34213J34213D01*
G03X-1077674Y309648I-48327J-2366D01*
G03X-1160215Y341512I-48327J-2349D01*
G01X-1238066Y263661D01*
G03X-1206202Y181120I34213J-34213D01*
G03X-1205534Y175127I48327J2349D01*
G01X-1213302Y167359D01*
G01X-1740314Y694372D01*
G03X-1783779Y694372I-21732J-21732D01*
G01X-2064766Y413384D01*
G01X-2064766Y698470D01*
G01X-1803370Y959866D01*
G01X-1354467Y959866D01*
G03X-1332734Y968868I0J30734D01*
G01X-1168532Y1133070D01*
G03X-1166105Y1091440I53243J-17781D01*
G03X-1135634Y1062972I50816J23849D01*
G01X-1135634Y1028700D01*
G03X-1126632Y1006968I30734J0D01*
G01X-1048493Y928829D01*
G03X-1068393Y836607I19793J-52529D01*
G03X-976171Y856507I39693J39693D01*
G01X-847232Y727568D01*
G03X-825500Y718566I21732J21732D01*
G01X-783161Y718566D01*
G01X-824112Y677615D01*
G03X-755686Y609189I34213J-34213D01*
G01X-677835Y687040D01*
G03X-665400Y708406I-34213J34213D01*
G01X-622881Y708406D01*
G03X-627577Y683269I51381J-22606D01*
G01X-635745Y675101D01*
G03X-654321Y663526I15637J-45788D01*
G01X-732172Y585675D01*
G03X-700325Y503135I34213J-34213D01*
G03X-699813Y498094I48327J2366D01*
G01X-948261Y498094D01*
G01X-959893Y509725D01*
G03X-1055693Y547693I-56107J-1725D01*
G03X-1017725Y451893I39693J-39693D01*
G01X-994116Y428284D01*
G03X-965200Y416306I28916J28916D01*
G01X-546100Y416306D01*
G03X-517184Y428284I0J40894D01*
G01X-516461Y429006D01*
G01X-25754Y429006D01*
G03X17448Y413967I38454J40894D01*
G03X57496Y436072I-4748J55933D01*
G03X144952Y479567I31404J46528D01*
G03X186477Y501478I-3033J56052D01*
G01X200406Y487549D01*
G01X200406Y330200D01*
G03X212384Y301284I40894J0D01*
G01X265684Y247983D01*
G03X294600Y236006I28916J28916D01*
G01X534113Y236006D01*
G03X610018Y235086I38454J40894D01*
G03X617434Y310634I-37451J41814D01*
G03X616851Y375980I-45934J32266D01*
G03X554805Y396494I-45351J-33080D01*
G01X343254Y396494D01*
G03X282194Y406981I-38454J-40894D01*
G01X282194Y438959D01*
G03X352075Y438378I35306J43641D01*
G03X436814Y467791I31300J46597D01*
G03X385100Y541082I-53439J17184D01*
G01X380377Y545805D01*
G03X403079Y584481I-25625J41042D01*
G03X434926Y667021I-2366J48327D01*
G01X360934Y741013D01*
G01X360934Y756709D01*
G01X376833Y772608D01*
G03X380589Y768386I37968J29991D01*
G01X454406Y694569D01*
G01X454406Y571854D01*
G03X495300Y477266I40894J-38454D01*
G03X536194Y571854I0J56134D01*
G01X536194Y703647D01*
G03X526866Y758961I-43541J21101D01*
G01X478361Y807466D01*
G01X510602Y807466D01*
G03X537116Y816498I0J43434D01*
G03X578298Y818563I19449J23797D01*
G01X641937Y882202D01*
G03X650860Y901739I-21732J21732D01*
G03X664768Y929433I-41260J38061D01*
G01X766785Y827416D01*
G01X614614Y675245D01*
G03X602636Y646328I28916J-28916D01*
G01X602636Y585048D01*
G01X562737Y545149D01*
G03X562737Y501685I21732J-21732D01*
G01X623832Y440590D01*
G03X664985Y438503I21732J21732D01*
G01X676320Y427168D01*
G03X683950Y396355I29362J-9081D01*
G01X747590Y332715D01*
G03X778403Y325085I21732J21732D01*
G01X789743Y313745D01*
G03X791831Y272592I23820J-19421D01*
G01X852925Y211497D01*
G03X896390Y211497I21732J21732D01*
G01X953416Y268524D01*
G03X953416Y311988I-21732J21732D01*
G01X892322Y373082D01*
G03X851168Y375170I-21732J-21732D01*
G01X842338Y384000D01*
G01X847622Y389283D01*
G03X851818Y427517I-21732J21732D01*
G03X887299Y429272I16502J25928D01*
G01X896285Y420287D01*
G03X898372Y379133I23820J-19421D01*
G01X959467Y318039D01*
G03X1000621Y315951I21732J21732D01*
G01X1003741Y312830D01*
G03X1005829Y271677I23820J-19421D01*
G01X1066924Y210582D01*
G03X1110388Y210582I21732J21732D01*
G01X1167415Y267609D01*
G03X1176308Y286766I-21732J21732D01*
G03X1206991Y299488I-29J43434D01*
G01X1300507Y393003D01*
G03X1315564Y401271I-6675J30000D01*
G01X1365061Y450769D01*
G03X1365061Y494233I-21732J21732D01*
G01X1340312Y518983D01*
G03X1326929Y526829I-21732J-21732D01*
G03X1319083Y540212I-29578J-8349D01*
G01X1294333Y564961D01*
G01X1294153Y565141D01*
G01X1304432Y575168D01*
G03X1313434Y596900I-21732J21732D01*
G01X1313434Y609600D01*
G03X1304432Y631332I-30734J0D01*
G01X1254894Y680870D01*
G01X1254894Y717404D01*
G03X1245893Y739136I-30734J0D01*
G01X1049686Y935343D01*
G03X1079493Y1030293I-9886J55257D01*
G03X984543Y1000486I-39693J-39693D01*
G01X959527Y1025502D01*
G01X959527Y1089061D01*
G03X958757Y1095898I-30734J0D01*
G03X955747Y1168267I-44357J34402D01*
G03X883896Y1177422I-41347J-37967D01*
G01X849441Y1211877D01*
G01X849441Y1283943D01*
G01X973128Y1407630D01*
G01X1143000Y1407630D01*
G03X1173734Y1438364I0J30734D01*
G01X1173734Y1765300D01*
G03X1143000Y1796034I-30734J0D01*
G01X963901Y1796034D01*
G03X942168Y1787032I0J-30734D01*
G01X698871Y1543735D01*
G03X689869Y1522003I21732J-21732D01*
G01X689869Y1419620D01*
G01X658779Y1388530D01*
G03X606834Y1371983I-11079J-55030D01*
G03X593434Y1319138I40866J-38483D01*
G03X591566Y1308586I28866J-10552D01*
G01X591566Y1178209D01*
G03X590702Y1168400I55270J-9809D01*
G03X591566Y1158591I56134J0D01*
G01X591566Y1111979D01*
G03X502908Y1071608I-32766J-45579D01*
G03X582581Y1015552I55892J-5208D01*
G03X589648Y1004553I28799J10733D01*
G01X599233Y994968D01*
G03X579212Y986998I10367J-55168D01*
G03X541904Y982235I-15576J-26495D01*
G01X478265Y918596D01*
G03X469367Y894334I21732J-21732D01*
G01X393700Y894334D01*
G03X362988Y881612I0J-43434D01*
G01X286788Y805412D01*
G03X274066Y774700I30712J-30712D01*
G01X274066Y713000D01*
G03X235859Y690324I2835J-48301D01*
G01X59066Y867116D01*
G03X30150Y879094I-28916J-28916D01*
G01X-12346Y879094D01*
G03X-106934Y838200I-38454J-40894D01*
G03X-12346Y797306I56134J0D01*
G01X13211Y797306D01*
G01X35182Y775335D01*
G03X-39814Y743731I-22482J-51435D01*
G03X-4428Y670443I52514J-19831D01*
G03X-4849Y653034I55228J-10043D01*
G01X-404701Y653034D01*
G01X-407964Y656297D01*
G03X-358668Y724285I-11413J60141D01*
G03X-423632Y777504I-60709J-7848D01*
G01X-261356Y939779D01*
G03X-186327Y882293I55937J-4699D01*
G03X-165429Y974474I-19092J52787D01*
G03X-155516Y1045619I-37771J41526D01*
G01X-118020Y1083115D01*
G01X-47454Y1012549D01*
G03X35086Y1044396I34213J34213D01*
G03X81048Y1090374I-2366J48327D01*
G03X112912Y1172915I-2349J48327D01*
G01X35061Y1250766D01*
G03X-13989Y1262607I-34213J-34213D01*
G01X159980Y1436576D01*
G01X260810Y1436576D01*
G03X282542Y1445578I0J30734D01*
G01X706725Y1869761D01*
G03X718566Y1824416I55275J-9785D01*
G01X718566Y1815258D01*
G01X656449Y1753141D01*
G01X651806Y1757784D01*
G03X608341Y1757784I-21732J-21732D01*
G01X555307Y1704750D01*
G03X555307Y1661285I21732J-21732D01*
G01X626018Y1590575D01*
G03X669482Y1590575I21732J21732D01*
G01X722516Y1643609D01*
G03X722516Y1687073I-21732J21732D01*
G01X717873Y1691716D01*
G01X792712Y1766555D01*
G03X805434Y1797267I-30712J30712D01*
G01X805434Y1824416D01*
G03X810433Y1888353I-43434J35560D01*
G03X752215Y1915251I-48433J-28377D01*
G01X816072Y1979108D01*
G03X815403Y2023222I-21732J21732D01*
G01X620349Y2206782D01*
G03X599286Y2215134I-21063J-22382D01*
G01X188274Y2215134D01*
G03X166541Y2206132I0J-30734D01*
G01X-223266Y1816325D01*
G01X-223266Y1882140D01*
G03X-217869Y1945386I-43434J35560D01*
G01X-190500Y1945386D01*
G03X-180086Y1955800I0J10414D01*
G01X-180086Y2019300D01*
G03X-190500Y2029714I-10414J0D01*
G01X-271888Y2029714D01*
G01X-218230Y2083372D01*
G03X-209229Y2105104I-21732J21732D01*
G01X-1516445Y777240D02*
G03X-1559879Y868934I-43434J35560D01*
G03X-1603313Y777240I0J-56134D01*
G01X-1603313Y704676D01*
G01X-1643484Y664506D01*
G03X-1643484Y621041I21732J-21732D01*
G01X-1590450Y568007D01*
G03X-1546985Y568007I21732J21732D01*
G01X-1476275Y638718D01*
G03X-1476275Y682182I-21732J21732D01*
G01X-1516445Y722353D01*
G01X-1516445Y777240D01*
G01X-1161034Y711200D02*
G03X-1048766Y711200I56134J0D01*
G03X-1161034Y711200I-56134J0D01*
G01X-536916Y-244816D02*
G03X-524408Y-253358I28916J28916D01*
G03X-444143Y-256791I41808J37458D01*
G03X-442650Y-176466I-38457J40891D01*
G03X-441871Y-98746I-40115J39266D01*
G01X-441871Y25565D01*
G03X-453849Y54482I-40894J0D01*
G01X-517184Y117816D01*
G03X-546100Y129794I-28916J-28916D01*
G01X-594106Y129794D01*
G01X-594106Y228600D01*
G03X-606084Y257516I-40894J0D01*
G01X-650103Y301536D01*
G03X-599440Y312166I15103J54064D01*
G01X-583734Y312166D01*
G01X-583734Y296702D01*
G03X-553000Y265968I30734J0D01*
G01X-463000Y265968D01*
G03X-432266Y296702I0J30734D01*
G01X-432266Y376702D01*
G03X-463000Y407436I-30734J0D01*
G01X-553000Y407436D01*
G03X-574116Y399034I0J-30734D01*
G01X-599440Y399034D01*
G03X-674918Y395066I-35560J-43434D01*
G03X-678027Y319548I39918J-39466D01*
G03X-685800Y320294I-7773J-40148D01*
G01X-774361Y320294D01*
G03X-863260Y303351I-38231J-41103D01*
G03X-820460Y223611I50669J-24160D01*
G03X-784587Y175972I55929J4789D01*
G03X-726077Y187506I20056J52429D01*
G01X-711400Y187506D01*
G03X-707780Y187667I0J40894D01*
G01X-706414Y186301D01*
G01X-706414Y90627D01*
G03X-694436Y61710I40894J0D01*
G01X-654610Y21884D01*
G03X-625693Y9906I28916J28916D01*
G01X-588439Y9906D01*
G01X-574294Y-4239D01*
G01X-574294Y-190500D01*
G03X-562316Y-219416I40894J0D01*
G01X-536916Y-244816D01*
G01X-119753Y-190000D02*
G03X-89019Y-220734I30734J0D01*
G01X-61018Y-220734D01*
G03X-50013Y-218695I0J30734D01*
G03X-39007Y-220734I11006J28696D01*
G01X-11006Y-220734D01*
G03X-13Y-218700I0J30734D01*
G03X10980Y-220734I10993J28701D01*
G01X38981Y-220734D01*
G03X49987Y-218695I0J30734D01*
G03X60993Y-220734I11006J28696D01*
G01X88994Y-220734D01*
G03X106569Y-215213I0J30734D01*
G03X111506Y-221254I45831J32412D01*
G01X111506Y-275161D01*
G01X104893Y-281775D01*
G03X58315Y-386185I-3293J-61125D01*
G03X162725Y-339607I43285J43285D01*
G01X181316Y-321016D01*
G03X190500Y-306956I-28916J28916D01*
G03X199684Y-321016I38100J14856D01*
G01X218275Y-339607D01*
G03X322685Y-386185I61125J-3293D01*
G03X276107Y-281775I-43285J43285D01*
G01X269494Y-275161D01*
G01X269494Y-226374D01*
G03X284726Y-188860I-40894J38454D01*
G03X301990Y-192143I18989J52825D01*
G01X418163Y-308316D01*
G03X447080Y-320294I28916J28916D01*
G01X583846Y-320294D01*
G03X678434Y-279400I38454J40894D01*
G03X583846Y-238506I-56134J0D01*
G01X464019Y-238506D01*
G01X393407Y-167894D01*
G01X415952Y-167894D01*
G03X510540Y-127000I38454J40894D01*
G03X415952Y-86106I-56134J0D01*
G01X389989Y-86106D01*
G01X353706Y-49824D01*
G03X340282Y-40894I-28916J-28916D01*
G01X660046Y-40894D01*
G03X754634Y0I38454J40894D01*
G03X660046Y40894I-56134J0D01*
G01X327327Y40894D01*
G01X351649Y65216D01*
G03X427116Y99600I22046J51624D01*
G03X385984Y171612I-53421J17240D01*
G03X355612Y228472I-55724J6776D01*
G03X291807Y219282I-25351J-50084D01*
G01X283051Y219282D01*
G01X194016Y308316D01*
G03X165100Y320294I-28916J-28916D01*
G01X-24219Y320294D01*
G03X-53135Y308316I0J-40894D01*
G01X-103935Y257516D01*
G03X-115913Y228600I28916J-28916D01*
G01X-115913Y204876D01*
G03X-119753Y190000I26894J-14877D01*
G01X-119753Y168478D01*
G01X-165985Y214710D01*
G03X-196698Y227432I-30712J-30712D01*
G01X-254466Y227432D01*
G01X-254466Y236698D01*
G03X-285200Y267432I-30734J0D01*
G01X-375200Y267432D01*
G03X-405934Y236698I0J-30734D01*
G01X-405934Y156698D01*
G03X-375200Y125964I30734J0D01*
G01X-285200Y125964D01*
G03X-259042Y140564I0J30734D01*
G01X-214689Y140564D01*
G01X-193660Y119535D01*
G03X-220734Y89019I3660J-30515D01*
G01X-220734Y68440D01*
G01X-255887Y68440D01*
G03X-285200Y89936I-29313J-9238D01*
G01X-375200Y89936D01*
G03X-405934Y59202I0J-30734D01*
G01X-405934Y-20798D01*
G03X-375200Y-51532I30734J0D01*
G01X-285200Y-51532D01*
G03X-259610Y-37818I0J30734D01*
G03X-235127Y-18428I-21235J51963D01*
G01X-220734Y-18428D01*
G01X-220734Y-38981D01*
G03X-218695Y-49987I30734J0D01*
G03X-220734Y-60993I28696J-11006D01*
G01X-220734Y-88994D01*
G03X-190000Y-119728I30734J0D01*
G01X-119753Y-119728D01*
G01X-119753Y-190000D01*
G01X-226314Y-355600D02*
G03X-103886Y-355600I61214J0D01*
G03X-226314Y-355600I-61214J0D01*
G01X285915Y1181100D02*
G03X408343Y1181100I61214J0D01*
G03X285915Y1181100I-61214J0D01*
G01X1000894Y1965158D02*
G01X1000126Y1964390D01*
G03X1000126Y1920926I21732J-21732D01*
G01X1063760Y1857292D01*
G03X1107225Y1857292I21732J21732D01*
G01X1177935Y1928002D01*
G03X1177935Y1971467I-21732J21732D01*
G01X1114301Y2035101D01*
G03X1070837Y2035101I-21732J-21732D01*
G01X1062319Y2026583D01*
G01X1052701Y2036201D01*
G03X1052536Y2079500I-21897J21566D01*
G01X995510Y2136526D01*
G03X952046Y2136526I-21732J-21732D01*
G01X890951Y2075432D01*
G03X890951Y2031968I21732J-21732D01*
G01X947978Y1974941D01*
G03X991276Y1974777I21732J21732D01*
G01X1000894Y1965158D01*
G01X-7280Y238506D02*
G01X148161Y238506D01*
G01X237195Y149472D01*
G03X266112Y137494I28916J28916D01*
G01X291807Y137494D01*
G03X301156Y130389I38454J40894D01*
G01X237061Y66294D01*
G01X204141Y66294D01*
G03X190000Y69741I-14142J-27287D01*
G01X113222Y69741D01*
G01X113222Y82513D01*
G03X112304Y89969I-30734J0D01*
G03X119728Y110000I-23310J20031D01*
G01X119728Y190000D01*
G03X88994Y220734I-30734J0D01*
G01X60993Y220734D01*
G03X30259Y190000I0J-30734D01*
G01X30259Y113247D01*
G01X19728Y113247D01*
G01X19728Y190000D01*
G03X-11006Y220734I-30734J0D01*
G01X-25052Y220734D01*
G01X-7280Y238506D01*
G01X-1415505Y-720321D02*
G01X-1249934Y-554749D01*
G01X-1249934Y-584170D01*
G01X-1393332Y-727568D01*
G03X-1402334Y-749300I21732J-21732D01*
G01X-1402334Y-764081D01*
G01X-1403611Y-762725D01*
G01X-1437014Y-729322D01*
G03X-1415505Y-720321I-224J30733D01*
G01X-1391666Y-925098D02*
G01X-1336225Y-980539D01*
G01X-1338297Y-980469D01*
G01X-1391666Y-980469D01*
G01X-1391666Y-925098D01*
G01X-787244Y1514358D02*
G03X-781198Y1519055I-15686J26430D01*
G01X-767929Y1532325D01*
G01X-759609Y1524005D01*
G03X-742177Y1515306I21732J21732D01*
G01X-742177Y1452656D01*
G03X-733175Y1430924I30734J0D01*
G01X-656543Y1354292D01*
G03X-650471Y1345655I27804J13096D01*
G01X-565783Y1260968D01*
G03X-544051Y1251966I21732J21732D01*
G01X-455198Y1251966D01*
G01X-469930Y1237234D01*
G01X-698470Y1237234D01*
G01X-770595Y1309359D01*
G03X-766757Y1392243I-35855J43191D01*
G03X-849641Y1388405I-39693J-39693D01*
G01X-879968Y1418732D01*
G01X-881467Y1420135D01*
G01X-787244Y1514358D01*
G01X631332Y-977602D02*
G03X640334Y-955870I-21732J21732D01*
G01X640334Y-838230D01*
G01X689733Y-788831D01*
G03X698476Y-771077I-21732J21732D01*
G03X757997Y-750661I12724J59877D01*
G01X1145968Y-1138633D01*
G01X1003301Y-1281300D01*
G03X994299Y-1303032I21732J-21732D01*
G01X994299Y-1360575D01*
G01X817743Y-1184018D01*
G03X774278Y-1184018I-21732J-21732D01*
G01X753714Y-1204583D01*
G03X715122Y-1208547I-16860J-25697D01*
G01X392680Y-1530988D01*
G03X389362Y-1534915I21732J-21732D01*
G01X379357Y-1524910D01*
G01X379357Y-1491939D01*
G01X417314Y-1453982D01*
G03X452719Y-1448190I13674J27525D01*
G01X703716Y-1197193D01*
G01X704145Y-1197193D01*
G03X725877Y-1144727I0J30734D01*
G01X651703Y-1070552D01*
G03X622300Y-1048766I-29403J-8948D01*
G01X560168Y-1048766D01*
G01X631332Y-977602D01*
G01X2512916Y-422392D02*
G01X2512916Y-733841D01*
G01X1957711Y-733841D01*
G03X1935979Y-742843I0J-30734D01*
G01X1667368Y-1011454D01*
G03X1659977Y-1023366I21732J-21732D01*
G01X1345646Y-1023366D01*
G01X1320392Y-998112D01*
G03X1317132Y-994268I-24992J-17888D01*
G01X1244688Y-921823D01*
G01X1244688Y-794884D01*
G01X1322272Y-717300D01*
G01X1322272Y-727906D01*
G03X1331274Y-749638I30734J0D01*
G01X1351855Y-770219D01*
G03X1346013Y-774794I15891J-26307D01*
G01X1282374Y-838434D01*
G03X1282374Y-881898I21732J-21732D01*
G01X1300052Y-899577D01*
G03X1343517Y-899577I21732J21732D01*
G01X1407156Y-835937D01*
G03X1407156Y-792473I-21732J21732D01*
G01X1405820Y-791136D01*
G01X1500198Y-791136D01*
G03X1521930Y-782135I0J30734D01*
G01X1613016Y-691049D01*
G03X1632393Y-697927I19378J23856D01*
G01X1731441Y-697927D01*
G03X1753173Y-688925I0J30734D01*
G01X2017665Y-424434D01*
G01X2501900Y-424434D01*
G03X2512916Y-422392I0J30734D01*
G01X2489200Y84974D02*
G03X2512916Y96160I0J30734D01*
G01X2512916Y-99008D01*
G01X2508528Y-94620D01*
G03X2486956Y-85618I-21732J-21732D01*
G03X2462999Y-74136I-23957J-19252D01*
G01X1893000Y-74136D01*
G03X1867191Y-88182I0J-30734D01*
G03X1848747Y-116352I12289J-28170D01*
G01X1848747Y-293287D01*
G01X1701461Y-440573D01*
G03X1696037Y-433233I-27156J-14392D01*
G01X1639469Y-376665D01*
G03X1596004Y-376665I-21732J-21732D01*
G01X1532809Y-439860D01*
G03X1511512Y-404113I-55438J-8811D01*
G01X1515312Y-400313D01*
G03X1522215Y-391316I-30712J30712D01*
G01X1566435Y-347096D01*
G03X1571732Y-310735I-21732J21732D01*
G01X1581215Y-301251D01*
G03X1622369Y-299164I19421J23820D01*
G01X1683464Y-238069D01*
G03X1683464Y-194605I-21732J21732D01*
G01X1646105Y-157246D01*
G01X1646105Y-62337D01*
G01X1680960Y-27482D01*
G03X1680960Y15983I-21732J21732D01*
G01X1640077Y56865D01*
G01X1763999Y56865D01*
G03X1794712Y69587I0J43434D01*
G01X1848747Y123622D01*
G01X1848747Y115708D01*
G03X1879481Y84974I30734J0D01*
G01X1884535Y84974D01*
G03X1890460Y84398I5925J30157D01*
G01X2460459Y84398D01*
G03X2466384Y84974I0J30734D01*
G01X2489200Y84974D01*
G04 Copper End*

G04 Pad Start*
G54D11*
G01X-1558869Y1552394D03*
G01X-1552392Y-1558873D03*
G01X1552392Y1558871D03*
G01X1558869Y-1552391D03*
G54D12*
G01X1017038Y-840243D03*
G01X875617Y-981664D03*
G54D13*
G01X859982Y-736057D03*
G01X760983Y-835055D03*
G54D14*
G01X1484599Y-328899D03*
G01X1385601Y-229901D03*
G54D15*
G01X2358425Y828363D03*
G01X2358425Y509847D03*
G01X2111975Y828363D03*
G01X2111975Y509847D03*
G54D13*
G01X1179799Y-179101D03*
G01X1080801Y-278099D03*
G54D14*
G01X1713199Y-557499D03*
G01X1614201Y-458501D03*
G54D17*
G01X-330200Y196698D03*
G01X-330200Y336702D03*
G01X-330200Y19202D03*
G01X-330200Y-120802D03*
G01X1892300Y743102D03*
G01X1892300Y603098D03*
G54D13*
G01X765786Y414551D03*
G01X864785Y513550D03*
G01X1144301Y737901D03*
G01X1243299Y836899D03*
G54D18*
G01X750988Y1017688D03*
G01X976212Y1242912D03*
G01X928788Y839888D03*
G01X1154012Y1065112D03*
G54D13*
G01X1471899Y100299D03*
G01X1372901Y1301D03*
G54D12*
G01X1164105Y-987310D03*
G01X1022684Y-1128732D03*
G54D19*
G01X453854Y-754045D03*
G54D20*
G01X1189488Y109988D03*
G01X944112Y-135388D03*
G54D21*
G01X-336947Y1736656D03*
G01X-426749Y1646853D03*
G01X-516552Y1557051D03*
G01X-606354Y1467248D03*
G54D22*
G01X-734341Y1864643D03*
G54D21*
G01X638912Y1674179D03*
G01X549109Y1584377D03*
G01X459307Y1494574D03*
G01X369504Y1404772D03*
G54D22*
G01X241518Y1802166D03*
G54D23*
G01X-1698556Y-336947D03*
G01X-1608753Y-426749D03*
G01X-1518951Y-516552D03*
G01X-1429148Y-606354D03*
G54D24*
G01X-1826543Y-734341D03*
G54D23*
G01X-1559879Y651612D03*
G01X-1470077Y561809D03*
G01X-1380274Y472007D03*
G01X-1290472Y382204D03*
G54D24*
G01X-1687866Y254218D03*
G54D21*
G01X335923Y-1421198D03*
G01X425726Y-1331395D03*
G01X515528Y-1241593D03*
G01X605331Y-1151790D03*
G54D25*
G01X733317Y-1549184D03*
G54D21*
G01X-867033Y-1230698D03*
G01X-777230Y-1140895D03*
G01X-687427Y-1051093D03*
G01X-597625Y-961290D03*
G54D25*
G01X-469638Y-1358684D03*
G54D26*
G01X830602Y-510471D03*
G01X724060Y-403929D03*
G01X843302Y-284687D03*
G01X949843Y-391229D03*
G01X1706709Y-114325D03*
G01X1600167Y-7784D03*
G01X1602671Y-218371D03*
G01X1496129Y-111829D03*
G54D27*
G01X979165Y398832D03*
G01X872623Y292290D03*
G01X980080Y184833D03*
G01X1086622Y291375D03*
G01X750072Y627925D03*
G01X643530Y521383D03*
G54D26*
G01X1764297Y325594D03*
G01X1657755Y432136D03*
G01X1648529Y210613D03*
G01X1541987Y317154D03*
G54D28*
G01X1182115Y-674535D03*
G54D29*
G01X1243989Y-683389D03*
G54D28*
G01X1309401Y-801821D03*
G01X1344765Y-837185D03*
G54D30*
G01X1560435Y-671015D03*
G54D28*
G01X1525071Y-635650D03*
G01X1489724Y-600304D03*
G01X1408399Y-518979D03*
G01X1373035Y-483615D03*
G54D31*
G01X1228076Y-458883D03*
G01X1192729Y-494229D03*
G01X1157365Y-529594D03*
G54D32*
G01X1408399Y-709899D03*
G54D33*
G01X1122017Y-593226D03*
G54D34*
G01X1291725Y-423520D03*
G54D35*
G01X1507393Y-844246D03*
G54D36*
G01X1595780Y-727575D03*
G54D37*
G01X1426068Y-897287D03*
G54D38*
G01X-75019Y-150000D03*
G01X-25006Y-150000D03*
G01X24981Y-150000D03*
G01X74994Y-150000D03*
G54D39*
G01X150000Y-74993D03*
G01X150000Y-24981D03*
G01X150000Y25006D03*
G01X150000Y75019D03*
G54D38*
G01X74994Y150000D03*
G01X24981Y150000D03*
G01X-25006Y150000D03*
G01X-75019Y150000D03*
G54D39*
G01X-150000Y75019D03*
G01X-150000Y25006D03*
G01X-150000Y-24981D03*
G01X-150000Y-74993D03*
G54D40*
G01X-13Y13D03*
G54D41*
G01X1482973Y636894D03*
G01X1436994Y682873D03*
G54D42*
G01X1329177Y705845D03*
G01X1283216Y659884D03*
G01X1237255Y613923D03*
G54D41*
G01X1260227Y506106D03*
G01X1306206Y460127D03*
G54D42*
G01X1414023Y437155D03*
G01X1459984Y483116D03*
G01X1505945Y529077D03*
G54D19*
G01X-1127177Y-779946D03*
G01X-497210Y985797D03*
G54D43*
G01X2184400Y-546100D03*
G01X2184400Y-889000D03*
G54D44*
G01X-268373Y-1037927D03*
G01X-222395Y-991948D03*
G01X-176434Y-945987D03*
G01X-130473Y-900027D03*
G01X-682327Y-623973D03*
G01X-636348Y-577995D03*
G01X-590387Y-532034D03*
G01X-544427Y-486073D03*
G54D45*
G01X-1164927Y268373D03*
G01X-1118948Y222395D03*
G01X-1072987Y176434D03*
G01X-1027027Y130473D03*
G01X-750973Y682327D03*
G01X-704995Y636348D03*
G01X-659034Y590387D03*
G01X-613073Y544427D03*
G54D44*
G01X39773Y1177627D03*
G01X-6205Y1131648D03*
G01X-52166Y1085687D03*
G01X-98127Y1039727D03*
G01X453727Y763673D03*
G01X407748Y717695D03*
G01X361787Y671734D03*
G01X315827Y625773D03*
G54D17*
G01X-508000Y336702D03*
G01X-508000Y196698D03*
G54D14*
G01X560101Y900399D03*
G01X659099Y801401D03*
G01X-341599Y-407701D03*
G01X-242601Y-506699D03*
G54D46*
G01X2349500Y-523494D03*
G01X2349500Y-873506D03*
G54D18*
G01X1827112Y1014312D03*
G01X1601888Y789088D03*
G54D47*
G01X1089031Y1946196D03*
G01X1209240Y1825987D03*
G54D26*
G01X971744Y2055734D03*
G01X865202Y2162276D03*
G54D48*
G01X2175459Y240132D03*
G01X2177999Y-229870D03*
G54D49*
G01X-1939216Y614765D03*
G01X-2164441Y839990D03*
G54D50*
G01X-69342Y2146300D03*
G01X-387858Y2146300D03*
G54D18*
G01X-846798Y-1582335D03*
G01X-1072023Y-1807559D03*
G54D51*
G01X-22434Y1438066D03*
G01X-231566Y1228934D03*
G54D52*
G01X-1399280Y-76451D03*
G01X-1190148Y-285583D03*
G54D51*
G01X-53766Y-1171366D03*
G01X155366Y-962234D03*
G04 Pad End*

G04 Via Start*
G54D53*
G01X-1766697Y1551703D03*
G01X-1760220Y-1559558D03*
G01X-1706316Y1698860D03*
G01X-1705341Y1404952D03*
G01X-1699834Y-1412401D03*
G01X-1698864Y-1706315D03*
G01X-1559560Y1760222D03*
G01X-1558183Y1344566D03*
G01X-1553083Y-1351045D03*
G01X-1551701Y-1766695D03*
G01X-1412402Y1699836D03*
G01X-1411427Y1405922D03*
G01X-1405925Y-1411426D03*
G01X-1404950Y-1705339D03*
G01X-1351041Y1553085D03*
G01X-1344564Y-1558182D03*
G01X1344564Y1558180D03*
G01X1351041Y-1553081D03*
G01X1404950Y1705337D03*
G01X1405926Y1411429D03*
G01X1411427Y-1405924D03*
G01X1412403Y-1699838D03*
G01X1551701Y1766699D03*
G01X1553083Y1351043D03*
G01X1558178Y-1344563D03*
G01X1559560Y-1760218D03*
G01X1698859Y1706313D03*
G01X1699834Y1412404D03*
G01X1705341Y-1404949D03*
G01X1706316Y-1698862D03*
G01X1760220Y1559562D03*
G01X1766697Y-1551705D03*
G01X762000Y1859976D03*
G01X-1559879Y812800D03*
G01X-1862700Y-254000D03*
G01X-952500Y-1295400D03*
G01X304800Y-1663700D03*
G01X-444499Y1647699D03*
G01X-266700Y1917700D03*
G01X-1427747Y-604235D03*
G01X1104900Y1714500D03*
G01X1104900Y1635098D03*
G01X1104900Y1555696D03*
G01X1104900Y1477444D03*
G01X985520Y1714500D03*
G01X985520Y1635098D03*
G01X-1275746Y-107798D03*
G01X425726Y-1331395D03*
G01X1879600Y914400D03*
G01X1879600Y832005D03*
G01X2467686Y783828D03*
G01X2467686Y858849D03*
G01X2467686Y931002D03*
G01X2389543Y783828D03*
G01X2389543Y858849D03*
G01X2389543Y931002D03*
G01X2311400Y783828D03*
G01X1879600Y749610D03*
G01X1230477Y1311656D03*
G01X1230477Y1227328D03*
G01X1315375Y1227328D03*
G01X1230477Y1143000D03*
G01X1315375Y1143000D03*
G01X1315375Y1058672D03*
G01X1230477Y1058672D03*
G01X-1351235Y714375D03*
G01X-1297260Y660400D03*
G01X-1243285Y606425D03*
G01X-1141685Y504825D03*
G01X-1297947Y549943D03*
G01X985520Y1555696D03*
G01X-1476433Y508001D03*
G01X863600Y1294371D03*
G01X939800Y1294371D03*
G01X1016000Y1294371D03*
G01X1016000Y1384300D03*
G01X939800Y1384300D03*
G01X1088146Y-1147086D03*
G01X1035384Y-1199609D03*
G01X983628Y-1159786D03*
G01X1035384Y-1098945D03*
G01X673100Y-900019D03*
G01X722775Y-945211D03*
G01X1039800Y990600D03*
G01X1714500Y1016000D03*
G01X1714500Y1092200D03*
G01X1714500Y939800D03*
G01X1803400Y863600D03*
G01X1803400Y939800D03*
G01X1803400Y1016000D03*
G01X1803400Y1092200D03*
G01X1803400Y1168400D03*
G01X1714500Y1168400D03*
G01X1803400Y1244600D03*
G01X1892300Y1320800D03*
G01X1892300Y1168400D03*
G01X1892300Y1244600D03*
G01X1981200Y1320800D03*
G01X1981200Y1244600D03*
G01X2451100Y38100D03*
G01X2374900Y38100D03*
G01X2298700Y38100D03*
G01X2451100Y-38100D03*
G01X2374900Y-38100D03*
G01X2298700Y-38100D03*
G01X647700Y1333500D03*
G01X1266582Y-840272D03*
G01X1447800Y-952500D03*
G01X1518873Y-952500D03*
G01X-330200Y183998D03*
G01X1587500Y-952500D03*
G01X2400300Y457200D03*
G01X2315628Y457200D03*
G01X2146282Y457200D03*
G01X2061610Y457200D03*
G01X2230955Y457200D03*
G01X1130300Y-127000D03*
G01X914400Y1130300D03*
G01X-762000Y-1676400D03*
G01X-914400Y-1676400D03*
G01X-838200Y-1676400D03*
G01X-762000Y-1612900D03*
G01X-914400Y-1612900D03*
G01X-838200Y-1612900D03*
G01X-685800Y-1612900D03*
G01X-685800Y-1676400D03*
G01X646836Y1168400D03*
G01X1117600Y-508000D03*
G01X-1242597Y716882D03*
G01X-1296572Y770857D03*
G01X-1188622Y662907D03*
G01X-977900Y-1155700D03*
G01X-1041400Y-1092200D03*
G01X-841162Y-114305D03*
G01X-771618Y-114305D03*
G01X-910705Y-114305D03*
G01X-768649Y-25754D03*
G01X-838192Y-25754D03*
G01X-907736Y-25754D03*
G01X496164Y1181100D03*
G01X889000Y1778000D03*
G01X-1371600Y-952500D03*
G01X-1308100Y-1016000D03*
G01X-1397000Y-762000D03*
G01X-1397000Y-851802D03*
G01X-618678Y1292175D03*
G01X762000Y1447800D03*
G01X141919Y535619D03*
G01X-292100Y542366D03*
G01X-482765Y-137200D03*
G01X-482600Y-215900D03*
G01X-812591Y279191D03*
G01X-764531Y228400D03*
G01X622300Y-279400D03*
G01X303715Y-136035D03*
G01X495300Y533400D03*
G01X572567Y276900D03*
G01X454406Y-127000D03*
G01X373695Y116840D03*
G01X698500Y0D03*
G01X330261Y178388D03*
G54D54*
G01X101600Y-342900D03*
G01X279400Y-342900D03*
G54D53*
G01X152400Y-182800D03*
G01X228600Y-187920D03*
G01X-215900Y-177800D03*
G01X304800Y355600D03*
G01X571500Y342900D03*
G01X-806450Y1352550D03*
G01X-1115289Y1115289D03*
G01X-203200Y1016000D03*
G01X-205419Y935081D03*
G01X12700Y469900D03*
G01X-1016000Y508000D03*
G01X-1104900Y711200D03*
G01X50800Y660400D03*
G01X88900Y482600D03*
G01X317500Y482600D03*
G01X383375Y484975D03*
G01X12700Y723900D03*
G01X-50800Y838200D03*
G01X1333500Y-317500D03*
G01X1477371Y-448671D03*
G54D54*
G01X-727803Y-494414D03*
G54D53*
G01X977900Y617240D03*
G01X1041400Y617240D03*
G01X1104445Y617240D03*
G01X1032871Y537571D03*
G01X1104900Y537571D03*
G54D54*
G01X347129Y1181100D03*
G01X-419377Y716438D03*
G01X-453440Y-410241D03*
G01X-165100Y-355600D03*
G54D53*
G01X736600Y2209800D03*
G01X1282321Y1899067D03*
G01X-635000Y355600D03*
G01X-571500Y685800D03*
G01X-1028700Y876300D03*
G54D54*
G01X711200Y-711200D03*
G54D53*
G01X736600Y-533400D03*
G01X192126Y1282700D03*
G01X177800Y1079500D03*
G01X-348414Y809464D03*
G01X-25400Y660400D03*
G01X-596900Y266700D03*
G01X-784397Y556946D03*
G01X609600Y-1028700D03*
G01X1625600Y-878733D03*
G01X1739900Y-266700D03*
G01X1320800Y88900D03*
G01X1092200Y-50800D03*
G01X972223Y292486D03*
G01X177800Y139700D03*
G01X152400Y203200D03*
G01X-40645Y-419100D03*
G01X-114300Y-660400D03*
G01X419100Y-444500D03*
G01X-101600Y-457200D03*
G01X-546100Y-711200D03*
G01X-330200Y-120802D03*
G01X-2005870Y614642D03*
G01X-76200Y-863600D03*
G01X-280844Y14144D03*
G01X419100Y558800D03*
G01X621296Y839204D03*
G01X609600Y939800D03*
G01X558800Y1066400D03*
G01X793189Y720941D03*
G01X1174386Y698500D03*
G01X1130300Y749300D03*
G01X889000Y1968500D03*
G01X939800Y1917700D03*
G01X1003300Y1866900D03*
G01X1244600Y1993900D03*
G01X1181100Y2044700D03*
G01X1130300Y2095500D03*
G01X1066800Y2133600D03*
G01X939800Y1854200D03*
G01X876300Y1905000D03*
G01X-774700Y-977900D03*
G01X-825500Y-927100D03*
G01X-774700Y-876300D03*
G01X-723900Y-927100D03*
G01X-673100Y-876300D03*
G01X-723900Y-825500D03*
G01X-673100Y-774700D03*
G01X-622300Y-825500D03*
G01X1333500Y279400D03*
G01X-118600Y2220001D03*
G01X-33093Y2220001D03*
G01X-118600Y2146300D03*
G01X-33093Y2146300D03*
G01X-118600Y2066300D03*
G01X-33093Y2066300D03*
G01X-1952623Y669715D03*
G01X-1899801Y724524D03*
G01X-1841579Y671646D03*
G01X-1902986Y614771D03*
G01X-1968500Y558800D03*
G04 Via End*

G04 Track Start*
G54D55*
G01X1080801Y-278099D02*
G01X944112Y-141410D01*
G01X944112Y-135388D01*
G01X944112Y-183877D02*
G01X843302Y-284687D01*
G01X944112Y-141410D02*
G01X944112Y-183877D01*
G01X1192729Y-494229D02*
G01X1143000Y-444500D01*
G01X1003114Y-444500D02*
G01X949843Y-391229D01*
G01X1143000Y-444500D02*
G01X1003114Y-444500D01*
G01X1182115Y-674535D02*
G01X1145450Y-711200D01*
G01X1104900Y-711200D01*
G01X904171Y-510471D01*
G01X830602Y-510471D01*
G01X724060Y-403929D02*
G01X660400Y-467589D01*
G01X1489724Y-600304D02*
G01X1614201Y-475828D01*
G01X1614201Y-458501D01*
G01X-150000Y137300D02*
G01X-196698Y183998D01*
G01X-330200Y183998D01*
G01X1306206Y460127D02*
G01X1176279Y330200D01*
G01X1125447Y330200D02*
G01X1086622Y291375D01*
G01X1176279Y330200D02*
G01X1125447Y330200D01*
G01X864785Y513212D02*
G01X864785Y513550D01*
G01X1086622Y291375D02*
G01X979165Y398831D01*
G01X864785Y513212D01*
G01X1602671Y-218371D02*
G01X1492143Y-328899D01*
G01X1484599Y-328899D01*
G01X1600167Y-7784D02*
G01X1602671Y-10287D01*
G01X1602671Y-218371D01*
G01X-150000Y75019D02*
G01X-150000Y137300D01*
G01X762000Y1859976D02*
G01X762000Y1797267D01*
G01X638912Y1674179D01*
G01X-1559879Y651612D02*
G01X-1559879Y812800D01*
G01X-1698556Y-320744D02*
G01X-1698556Y-336946D01*
G01X-952500Y-1295400D02*
G01X-887798Y-1230698D01*
G01X-867033Y-1230698D01*
G01X335923Y-1421198D02*
G01X335923Y-1632577D01*
G01X304800Y-1663700D01*
G01X-336946Y1736656D02*
G01X-266700Y1806902D01*
G01X-266700Y1917700D01*
G01X792413Y670266D02*
G01X750072Y627925D01*
G01X828334Y670266D02*
G01X792413Y670266D01*
G01X1260227Y506106D02*
G01X1147821Y393700D01*
G01X1104900Y393700D01*
G01X828334Y670266D01*
G01X1482973Y636894D02*
G01X1657755Y462112D01*
G01X1657755Y432136D01*
G01X1505945Y529077D02*
G01X1541840Y493182D01*
G01X1541840Y317302D01*
G01X1459984Y483116D02*
G01X1485900Y457200D01*
G01X1485900Y381000D01*
G01X1447800Y342900D01*
G01X1648529Y200729D02*
G01X1648529Y210613D01*
G01X1447800Y342900D02*
G01X1447800Y279400D01*
G01X1569539Y157661D01*
G01X1605461Y157661D01*
G01X1648529Y200729D01*
G01X1764297Y325594D02*
G01X1764297Y354597D01*
G01X1484599Y-328899D02*
G01X1484599Y-369601D01*
G01X1373035Y-481165D01*
G01X1373035Y-483615D01*
G01X1179799Y-179101D02*
G01X1179799Y-176499D01*
G01X1130300Y-127000D01*
G01X1414023Y437155D02*
G01X1384300Y466878D01*
G01X1384300Y558800D02*
G01X1283216Y659884D01*
G01X1384300Y466878D02*
G01X1384300Y558800D01*
G01X1179799Y-179101D02*
G01X1257300Y-256602D01*
G01X1257300Y-367880D01*
G01X1291728Y-402308D01*
G54D10*
G01X-52167Y1085687D02*
G01X-195413Y1228934D01*
G01X-231566Y1228934D01*
G01X361787Y671733D02*
G01X315827Y625773D01*
G01X-1072987Y176433D02*
G01X-1137879Y111542D01*
G01X-1137879Y91222D01*
G01X-1031328Y-15328D01*
G01X-1031328Y-126764D01*
G01X-1190147Y-285583D01*
G01X-1118948Y222395D02*
G01X-1118948Y203880D01*
G01X-1399280Y-76451D01*
G01X-613073Y544427D02*
G01X-659033Y590387D01*
G01X-222395Y-991948D02*
G01X-53766Y-1160577D01*
G01X-53766Y-1171366D01*
G01X139120Y-945987D02*
G01X155366Y-962234D01*
G01X-42163Y-981963D02*
G01X-6187Y-945987D01*
G01X139120Y-945987D01*
G01X-176433Y-945987D02*
G01X-140458Y-981963D01*
G01X-42163Y-981963D01*
G01X802362Y805160D02*
G01X894060Y805160D01*
G01X928788Y839888D01*
G01X643530Y521383D02*
G01X643530Y646328D01*
G01X802362Y805160D01*
G54D55*
G01X872623Y292290D02*
G01X643530Y521383D01*
G54D10*
G01X-76200Y1384300D02*
G01X-22434Y1438066D01*
G01X-6205Y1131648D02*
G01X-76200Y1201643D01*
G01X-76200Y1384300D01*
G01X-812382Y279400D02*
G01X-812591Y279191D01*
G01X-546100Y88900D02*
G01X-620631Y88900D01*
G01X-635000Y103269D01*
G01X-635000Y228600D01*
G01X-685800Y279400D01*
G01X-812382Y279400D01*
G01X-711400Y228400D02*
G01X-711200Y228600D01*
G01X-764531Y228400D02*
G01X-711400Y228400D01*
G01X-711200Y228600D02*
G01X-690880Y228600D01*
G01X-665520Y203240D01*
G01X-665520Y90627D01*
G01X-625693Y50800D01*
G01X-571500Y50800D01*
G01X-533400Y12700D01*
G01X-533400Y-190500D01*
G01X-508000Y-215900D01*
G01X-482600Y-215900D01*
G01X-482765Y-137200D02*
G01X-482765Y25565D01*
G01X-546100Y88900D01*
G01X453727Y763673D02*
G01X495300Y722101D01*
G01X495300Y533400D01*
G01X454406Y-127000D02*
G01X373050Y-127000D01*
G01X324790Y-78740D01*
G01X284810Y-78740D01*
G01X254000Y25400D02*
G01X150393Y25400D01*
G01X150000Y25006D01*
G01X150000Y-74993D02*
G01X229807Y-74993D01*
G01X-75019Y150000D02*
G01X-75019Y228600D01*
G01X284810Y-78740D02*
G01X236550Y-127000D01*
G01X76146Y-127000D01*
G01X74994Y-128152D01*
G01X74994Y-150000D01*
G01X101600Y-342900D02*
G01X152400Y-292100D01*
G01X152400Y-182800D01*
G01X279400Y-342900D02*
G01X228600Y-292100D01*
G01X228600Y-187920D01*
G01X229807Y-74993D02*
G01X304800Y0D01*
G01X698500Y0D01*
G01X-381000Y-292100D02*
G01X-330200Y-292100D01*
G01X-215900Y-177800D01*
G01X12700Y469900D02*
G01X-533400Y469900D01*
G01X-546100Y457200D01*
G01X-965200Y457200D01*
G01X-1016000Y508000D01*
G54D55*
G01X1309401Y-801821D02*
G01X1270949Y-840272D01*
G01X1266582Y-840272D01*
G54D10*
G01X622300Y-279400D02*
G01X447080Y-279400D01*
G01X303715Y-136035D01*
G01X373695Y116840D02*
G01X345440Y116840D01*
G01X254000Y25400D01*
G01X241300Y330200D02*
G01X294600Y276900D01*
G01X572567Y276900D01*
G01X304800Y355600D02*
G01X558800Y355600D01*
G01X571500Y342900D01*
G01X-684001Y749300D02*
G01X-558800Y749300D01*
G01X-684001Y749300D02*
G01X-750973Y682327D01*
G01X-558800Y749300D02*
G01X-421640Y612140D01*
G01X141919Y535619D02*
G01X135172Y542366D01*
G01X-292100Y542366D01*
G01X-421640Y612140D02*
G01X133648Y612140D01*
G01X241300Y504488D01*
G01X241300Y330200D01*
G01X317500Y482600D02*
G01X76200Y723900D01*
G01X12700Y723900D01*
G01X383375Y484975D02*
G01X30150Y838200D01*
G01X-50800Y838200D01*
G54D55*
G01X1333500Y-282002D02*
G01X1333500Y-317500D01*
G01X1385601Y-229901D02*
G01X1333500Y-282002D01*
G01X1477371Y-448671D02*
G01X1477371Y-450007D01*
G01X1408399Y-518979D01*
G01X-1862700Y-254000D02*
G01X-1765300Y-254000D01*
G01X-1698556Y-320744D01*
G01X1764297Y354597D02*
G01X1892300Y482600D01*
G01X1496129Y-111829D02*
G01X1471899Y-87599D01*
G01X1471899Y100299D01*
G01X1763999Y100299D01*
G01X1854200Y190500D02*
G01X1854200Y368300D01*
G01X1892300Y406400D01*
G01X1892300Y482600D01*
G01X1763999Y100299D02*
G01X1854200Y190500D01*
G01X1892300Y603098D02*
G01X1892300Y482600D01*
G01X1385601Y-229901D02*
G01X1496129Y-119373D01*
G01X1496129Y-111829D01*
G54D10*
G01X-682327Y-623973D02*
G01X-684127Y-623973D01*
G01X-800100Y-508000D01*
G01X-800100Y-444500D01*
G54D55*
G01X-544427Y-486073D02*
G01X-590387Y-532033D01*
G01X-344201Y-407701D02*
G01X-341599Y-407701D01*
G01X-544427Y-486073D02*
G01X-422573Y-486073D01*
G54D10*
G01X-800100Y-444500D02*
G01X-685800Y-330200D01*
G01X-419100Y-330200D01*
G01X-381000Y-292100D01*
G54D55*
G01X-346741Y-410241D02*
G01X-453440Y-410241D01*
G01X-422573Y-486073D02*
G01X-346741Y-410241D01*
G01X-344201Y-407701D01*
G01X736600Y2209800D02*
G01X817678Y2209800D01*
G01X865202Y2162276D01*
G01X971744Y2055734D02*
G01X1081281Y1946196D01*
G01X1089031Y1946196D01*
G01X1209241Y1825987D02*
G01X1282321Y1899067D01*
G01X560101Y900399D02*
G01X510602Y850900D01*
G01X393700Y850900D02*
G01X317500Y774700D01*
G01X510602Y850900D02*
G01X393700Y850900D01*
G01X317500Y774700D02*
G01X317500Y711200D01*
G01X356967Y671733D01*
G01X361787Y671733D01*
G01X-508000Y336702D02*
G01X-526898Y355600D01*
G01X-635000Y355600D01*
G01X-659033Y590387D02*
G01X-571500Y677921D01*
G01X-571500Y685800D01*
G01X660400Y-467589D02*
G01X660400Y-536475D01*
G01X859982Y-736057D01*
G01X-98127Y1039727D02*
G01X-23601Y965200D01*
G01X63500Y965200D01*
G01X177800Y1079500D01*
G01X-330200Y336702D02*
G01X-470205Y196698D01*
G01X-508000Y196698D01*
G01X-578002Y266700D01*
G01X-596900Y266700D01*
G01X-704995Y636348D02*
G01X-784397Y556946D01*
G01X1706709Y-114325D02*
G01X1739900Y-147516D01*
G01X1739900Y-266700D01*
G01X1372901Y1301D02*
G01X1320800Y53402D01*
G01X1320800Y88900D01*
G01X150000Y75019D02*
G01X177800Y102819D01*
G01X177800Y139700D01*
G54D10*
G01X-75019Y228600D02*
G01X-24219Y279400D01*
G54D55*
G01X24981Y150000D02*
G01X24981Y215900D01*
G01X42941Y233861D01*
G54D10*
G01X-24219Y279400D02*
G01X165100Y279400D01*
G01X266112Y178388D01*
G01X330261Y178388D01*
G54D55*
G01X42941Y233861D02*
G01X121739Y233861D01*
G01X152400Y203200D01*
G01X-242601Y-506699D02*
G01X-193102Y-457200D01*
G01X-101600Y-457200D01*
G01X-636348Y-577995D02*
G01X-546100Y-668243D01*
G01X-546100Y-711200D01*
G01X-130473Y-900027D02*
G01X-112627Y-900027D01*
G01X-76200Y-863600D01*
G01X-1027027Y130473D02*
G01X-907736Y11182D01*
G01X-907736Y-25754D01*
G01X-280844Y14144D02*
G01X-285902Y19202D01*
G01X-330200Y19202D01*
G01X407748Y717695D02*
G01X446264Y679179D01*
G01X446264Y613940D01*
G01X419100Y586776D01*
G01X419100Y558800D01*
G01X659099Y801401D02*
G01X621296Y839204D01*
G01X560101Y900399D02*
G01X570199Y900399D01*
G01X609600Y939800D01*
G01X-150000Y25006D02*
G01X-330200Y25006D01*
G04 Track End*

M02*

