G04 Layer: BottomLayer*
G04 EasyEDA Pro v3.2.69, 2026-03-27 19:08:31*
G04 Gerber Generator version 0.3*
G04 Scale: 100 percent, Rotated: No, Reflected: No*
G04 Dimensions in millimeters*
G04 Leading zeros omitted, absolute positions, 4 integers and 5 decimals*
G04 Generated by one-click*
%FSLAX45Y45*%
%MOMM*%
%AMRect*21,1,$1,$2,0,0,$3*%
%ADD10C,0.2032*%
%ADD11C,5.5*%
%ADD12R,0.9X0.8*%
%ADD13R,0.8X0.9*%
%ADD14R,1.41X1.35001*%
%ADD15R,1.0X1.1*%
%ADD16R,1.1X1.0*%
%ADD17R,0.8675X0.8*%
%ADD18R,0.86401X0.8*%
%ADD19R,0.80648X0.86401*%
%ADD20R,0.86401X0.80648*%
%ADD21R,3.65001X2.65001*%
%ADD22R,0.665X0.28001*%
%ADD23R,0.28001X0.665*%
%ADD24R,2.49999X1.7*%
%ADD25R,0.35001X0.62499*%
%ADD26R,1.15001X1.4*%
%ADD27R,1.7X0.6*%
%ADD28R,2.79999X1.0*%
%ADD29C,1.6*%
%ADD30Rect,0.8X0.9X45.0*%
%ADD31Rect,1.13254X1.37701X45.0*%
%ADD32Rect,0.80648X0.86401X45.0*%
%ADD33O,1.5X0.27*%
%ADD34O,0.27X1.5*%
%ADD35O,2.045X0.58801*%
%ADD36Rect,0.6X1.7X45.0*%
%ADD37Rect,1.0X2.79999X45.0*%
%ADD38C,0.508*%
%ADD39C,0.6096*%
%ADD40C,0.254*%
%ADD41C,0.381*%
G75*


G04 Copper Start*
G36*
G01X962665Y1456903D02*
G01X962665Y1755140D01*
G01X1120140Y1755140D01*
G01X1120140Y1456903D01*
G01X962665Y1456903D01*
G37*
G36*
G01X797560Y1257300D02*
G01X797560Y1404366D01*
G01X801693Y1408107D01*
G01X805434Y1412240D01*
G01X1178212Y1412240D01*
G01X1409729Y1180723D01*
G01X1413025Y1178521D01*
G01X1416913Y1177747D01*
G01X1607282Y1177747D01*
G01X1607282Y924560D01*
G01X1518857Y924560D01*
G01X1518857Y955103D01*
G01X1518084Y958991D01*
G01X1515881Y962287D01*
G01X1454984Y1023184D01*
G01X1451688Y1025387D01*
G01X1447800Y1026160D01*
G01X1198008Y1026160D01*
G01X1165860Y1058308D01*
G01X1165860Y1257300D01*
G01X1164499Y1262380D01*
G01X1160780Y1266099D01*
G01X1155700Y1267460D01*
G01X863600Y1267460D01*
G01X858520Y1266099D01*
G01X854801Y1262380D01*
G01X853440Y1257300D01*
G01X853440Y1142184D01*
G01X854213Y1138296D01*
G01X856416Y1135000D01*
G01X858335Y1133081D01*
G01X858976Y1121402D01*
G01X862023Y1110110D01*
G01X867344Y1099694D01*
G01X874707Y1090607D01*
G01X883794Y1083244D01*
G01X894210Y1077923D01*
G01X905502Y1074876D01*
G01X917181Y1074235D01*
G01X918633Y1072783D01*
G01X918633Y938024D01*
G01X895472Y914863D01*
G01X758064Y914863D01*
G01X758064Y1213596D01*
G01X794584Y1250116D01*
G01X796787Y1253412D01*
G01X797560Y1257300D01*
G37*
G36*
G01X2131060Y-971786D02*
G01X2131060Y-784860D01*
G01X2495906Y-784860D01*
G01X2495906Y-971786D01*
G01X2131060Y-971786D01*
G37*
G36*
G01X956783Y556186D02*
G01X917194Y595774D01*
G01X917194Y694584D01*
G01X1098897Y694584D01*
G01X1194562Y598919D01*
G01X1194562Y578537D01*
G01X1097716Y481691D01*
G01X1096908Y480781D01*
G01X1042114Y480781D01*
G01X1034637Y482983D01*
G01X1026877Y483725D01*
G01X991143Y483725D01*
G01X980694Y494174D01*
G01X980694Y506791D01*
G01X979247Y517573D01*
G01X975009Y527591D01*
G01X968279Y536138D01*
G01X959759Y544407D01*
G01X959759Y549001D01*
G01X958985Y552890D01*
G01X956783Y556186D01*
G37*
G36*
G01X1119776Y749030D02*
G01X1119776Y805653D01*
G01X1124784Y810660D01*
G01X1126987Y813957D01*
G01X1127760Y817845D01*
G01X1127760Y897807D01*
G01X1134871Y904637D01*
G01X1139452Y913367D01*
G01X1141034Y923100D01*
G01X1141034Y948866D01*
G01X1152820Y960652D01*
G01X1459684Y960652D01*
G01X1460581Y959754D01*
G01X1460581Y689100D01*
G01X1213980Y689100D01*
G01X1210092Y688327D01*
G01X1206796Y686125D01*
G01X1191231Y670560D01*
G01X1180753Y670560D01*
G01X1124837Y726476D01*
G01X1120353Y730182D01*
G01X1115250Y732976D01*
G01X1118623Y740690D01*
G01X1119776Y749030D01*
G37*
G36*
G01X956089Y914863D02*
G01X952988Y914863D01*
G01X957846Y923791D01*
G01X959527Y933816D01*
G01X959527Y1062592D01*
G01X964400Y1066309D01*
G01X966249Y1072153D01*
G01X966249Y1108788D01*
G01X970052Y1122962D01*
G01X970052Y1137638D01*
G01X966249Y1151812D01*
G01X966249Y1224155D01*
G01X1080260Y1224155D01*
G01X1080260Y1072153D01*
G01X1081621Y1067073D01*
G01X1085340Y1063354D01*
G01X1090420Y1061993D01*
G01X1121536Y1061993D01*
G01X1121536Y987200D01*
G01X1095868Y961532D01*
G01X1090984Y955167D01*
G01X1087913Y947755D01*
G01X1086866Y939800D01*
G01X1086866Y914221D01*
G01X1082073Y910496D01*
G01X1080260Y904703D01*
G01X1080260Y823969D01*
G01X1073528Y817237D01*
G01X1068644Y810872D01*
G01X1065573Y803459D01*
G01X1064526Y795505D01*
G01X1064526Y759460D01*
G01X994808Y759460D01*
G01X966249Y788020D01*
G01X966249Y904703D01*
G01X964887Y909783D01*
G01X961169Y913502D01*
G01X956089Y914863D01*
G37*
G36*
G01X-1807246Y1303106D02*
G01X-1786675Y1284178D01*
G01X-1764667Y1266942D01*
G01X-1799316Y1266942D01*
G01X-1808733Y1265908D01*
G01X-1831509Y1288684D01*
G01X-1839288Y1294336D01*
G01X-1848433Y1297308D01*
G01X-1858049Y1297308D01*
G01X-1867194Y1294336D01*
G01X-1874974Y1288684D01*
G01X-1955056Y1208602D01*
G01X-1960708Y1200823D01*
G01X-1963679Y1191678D01*
G01X-1963679Y1182062D01*
G01X-1960708Y1172917D01*
G01X-1955056Y1165138D01*
G01X-1857687Y1067768D01*
G01X-1849907Y1062116D01*
G01X-1840762Y1059145D01*
G01X-1831146Y1059145D01*
G01X-1822001Y1062116D01*
G01X-1814222Y1067768D01*
G01X-1734140Y1147851D01*
G01X-1728929Y1154795D01*
G01X-1725869Y1162920D01*
G01X-1725203Y1171576D01*
G01X-1726984Y1180074D01*
G01X-1707667Y1180074D01*
G01X-1671297Y1167526D01*
G01X-1633893Y1158523D01*
G01X-1595798Y1153146D01*
G01X-1557363Y1151444D01*
G01X-1518941Y1153435D01*
G01X-1480888Y1159098D01*
G01X-1443552Y1168383D01*
G01X-1465023Y1146912D01*
G01X-1470675Y1139133D01*
G01X-1473646Y1129988D01*
G01X-1473646Y1120372D01*
G01X-1470675Y1111227D01*
G01X-1465023Y1103448D01*
G01X-1380369Y1018794D01*
G01X-1868021Y1018794D01*
G01X-1866579Y1027057D01*
G01X-1867424Y1035403D01*
G01X-1870494Y1043209D01*
G01X-1875561Y1049894D01*
G01X-1972930Y1147263D01*
G01X-1980709Y1152915D01*
G01X-1989855Y1155887D01*
G01X-1999470Y1155887D01*
G01X-2008615Y1152915D01*
G01X-2016395Y1147263D01*
G01X-2096477Y1067181D01*
G01X-2102129Y1059402D01*
G01X-2105100Y1050257D01*
G01X-2105100Y1040641D01*
G01X-2102129Y1031496D01*
G01X-2096477Y1023716D01*
G01X-2082995Y1010234D01*
G01X-2086127Y1007102D01*
G01X-2094573Y1008806D01*
G01X-2103161Y1008098D01*
G01X-2111214Y1005035D01*
G01X-2118101Y999857D01*
G01X-2175127Y942830D01*
G01X-2180779Y935051D01*
G01X-2183750Y925906D01*
G01X-2183750Y916290D01*
G01X-2180779Y907145D01*
G01X-2175127Y899366D01*
G01X-2114033Y838271D01*
G01X-2106245Y832615D01*
G01X-2097089Y829645D01*
G01X-2087464Y829652D01*
G01X-2078313Y832637D01*
G01X-2070940Y825264D01*
G01X-2073001Y823202D01*
G01X-2078653Y815423D01*
G01X-2081625Y806278D01*
G01X-2081625Y796662D01*
G01X-2078653Y787517D01*
G01X-2073001Y779738D01*
G01X-2009362Y716098D01*
G01X-2001583Y710446D01*
G01X-1992438Y707475D01*
G01X-1982822Y707475D01*
G01X-1973677Y710446D01*
G01X-1965898Y716098D01*
G01X-1909329Y772667D01*
G01X-1903677Y780446D01*
G01X-1900706Y789591D01*
G01X-1900706Y799207D01*
G01X-1903677Y808352D01*
G01X-1909329Y816131D01*
G01X-1972969Y879770D01*
G01X-1979022Y884472D01*
G01X-1986051Y887530D01*
G01X-1993619Y888753D01*
G01X-2007908Y903042D01*
G01X-2004923Y912193D01*
G01X-2004915Y921818D01*
G01X-2007885Y930974D01*
G01X-2013542Y938762D01*
G01X-2013721Y938942D01*
G01X-2012590Y939829D01*
G01X-1999108Y926347D01*
G01X-1991328Y920695D01*
G01X-1982183Y917724D01*
G01X-1972568Y917724D01*
G01X-1963422Y920695D01*
G01X-1955643Y926347D01*
G01X-1942128Y939862D01*
G01X-1934756Y937726D01*
G01X-1927114Y937006D01*
G01X-1388539Y937006D01*
G01X-1383167Y931634D01*
G01X-1443605Y931634D01*
G01X-1453103Y930130D01*
G01X-1461670Y925764D01*
G01X-1468470Y918965D01*
G01X-1472835Y910397D01*
G01X-1474339Y900900D01*
G01X-1474339Y892070D01*
G01X-1483381Y887818D01*
G01X-1491212Y881612D01*
G01X-1511310Y861515D01*
G01X-1518941Y851206D01*
G01X-1529211Y859816D01*
G01X-1541230Y865745D01*
G01X-1554312Y868657D01*
G01X-1567267Y881612D01*
G01X-1576262Y888515D01*
G01X-1586738Y892854D01*
G01X-1597979Y894334D01*
G01X-1649861Y894334D01*
G01X-1649861Y900900D01*
G01X-1651365Y910397D01*
G01X-1655730Y918965D01*
G01X-1662530Y925764D01*
G01X-1671097Y930130D01*
G01X-1680595Y931634D01*
G01X-1790595Y931634D01*
G01X-1800092Y930130D01*
G01X-1808660Y925764D01*
G01X-1815459Y918965D01*
G01X-1819824Y910397D01*
G01X-1821329Y900900D01*
G01X-1821329Y800900D01*
G01X-1819824Y791403D01*
G01X-1815459Y782835D01*
G01X-1808660Y776036D01*
G01X-1800092Y771670D01*
G01X-1790595Y770166D01*
G01X-1779029Y770166D01*
G01X-1779029Y681495D01*
G01X-1777549Y670253D01*
G01X-1773210Y659778D01*
G01X-1766307Y650782D01*
G01X-1750850Y635325D01*
G01X-1741855Y628423D01*
G01X-1731379Y624084D01*
G01X-1720138Y622604D01*
G01X-1702327Y622604D01*
G01X-1700956Y613756D01*
G01X-1697093Y605679D01*
G01X-1691065Y599058D01*
G01X-1683385Y594455D01*
G01X-1674705Y592261D01*
G01X-1674705Y581777D01*
G01X-1683428Y579565D01*
G01X-1691137Y574921D01*
G01X-1697171Y568243D01*
G01X-1701011Y560103D01*
G01X-1702328Y551200D01*
G01X-1702328Y464800D01*
G01X-1700824Y455302D01*
G01X-1696459Y446735D01*
G01X-1689659Y439935D01*
G01X-1681092Y435570D01*
G01X-1671594Y434066D01*
G01X-1590947Y434066D01*
G01X-1581449Y435570D01*
G01X-1572882Y439935D01*
G01X-1566082Y446735D01*
G01X-1561717Y455302D01*
G01X-1560213Y464800D01*
G01X-1560213Y551200D01*
G01X-1561530Y560103D01*
G01X-1565371Y568243D01*
G01X-1571404Y574921D01*
G01X-1579113Y579565D01*
G01X-1587837Y581777D01*
G01X-1587837Y592261D01*
G01X-1579113Y594473D01*
G01X-1571404Y599117D01*
G01X-1565371Y605795D01*
G01X-1561530Y613934D01*
G01X-1560213Y622837D01*
G01X-1560213Y709238D01*
G01X-1561717Y718735D01*
G01X-1566082Y727303D01*
G01X-1572882Y734102D01*
G01X-1581449Y738468D01*
G01X-1590947Y739972D01*
G01X-1671594Y739972D01*
G01X-1679030Y739059D01*
G01X-1686024Y736374D01*
G01X-1692161Y732076D01*
G01X-1692161Y770166D01*
G01X-1680595Y770166D01*
G01X-1671097Y771670D01*
G01X-1662530Y776036D01*
G01X-1655730Y782835D01*
G01X-1651365Y791403D01*
G01X-1649861Y800900D01*
G01X-1649861Y807466D01*
G01X-1615970Y807466D01*
G01X-1615736Y807232D01*
G01X-1612803Y794090D01*
G01X-1606825Y782025D01*
G01X-1598145Y771730D01*
G01X-1587263Y763799D01*
G01X-1574806Y758687D01*
G01X-1561490Y756689D01*
G01X-1548081Y757920D01*
G01X-1535350Y762309D01*
G01X-1524032Y769603D01*
G01X-1524032Y739814D01*
G01X-1532755Y737602D01*
G01X-1540465Y732958D01*
G01X-1546498Y726280D01*
G01X-1550338Y718141D01*
G01X-1551656Y709238D01*
G01X-1551656Y622837D01*
G01X-1550151Y613340D01*
G01X-1545786Y604772D01*
G01X-1538987Y597973D01*
G01X-1530419Y593607D01*
G01X-1520922Y592103D01*
G01X-1440274Y592103D01*
G01X-1433863Y592779D01*
G01X-1427734Y594778D01*
G01X-1427734Y114300D01*
G01X-1426254Y103058D01*
G01X-1421915Y92583D01*
G01X-1415012Y83588D01*
G01X-1334961Y3536D01*
G01X-1398798Y3536D01*
G01X-1410039Y2056D01*
G01X-1420515Y-2283D01*
G01X-1429510Y-9185D01*
G01X-1542012Y-121688D01*
G01X-1548915Y-130683D01*
G01X-1553254Y-141158D01*
G01X-1554734Y-152400D01*
G01X-1554734Y-248351D01*
G01X-1570711Y-248351D01*
G01X-1580208Y-249855D01*
G01X-1588776Y-254221D01*
G01X-1595575Y-261020D01*
G01X-1599940Y-269588D01*
G01X-1601445Y-279085D01*
G01X-1601445Y-379085D01*
G01X-1599940Y-388582D01*
G01X-1595575Y-397150D01*
G01X-1588776Y-403949D01*
G01X-1580208Y-408315D01*
G01X-1570711Y-409819D01*
G01X-1559145Y-409819D01*
G01X-1559145Y-448803D01*
G01X-1565357Y-444327D01*
G01X-1572482Y-441524D01*
G01X-1580079Y-440571D01*
G01X-1660727Y-440571D01*
G01X-1670224Y-442075D01*
G01X-1678792Y-446440D01*
G01X-1685591Y-453240D01*
G01X-1689957Y-461807D01*
G01X-1691461Y-471305D01*
G01X-1691461Y-557705D01*
G01X-1689957Y-567203D01*
G01X-1685591Y-575770D01*
G01X-1678792Y-582570D01*
G01X-1670224Y-586935D01*
G01X-1660727Y-588439D01*
G01X-1580079Y-588439D01*
G01X-1569830Y-586680D01*
G01X-1560753Y-581603D01*
G01X-1553890Y-573789D01*
G01X-1550025Y-564134D01*
G01X-1549400Y-564134D01*
G01X-1538158Y-562654D01*
G01X-1527683Y-558315D01*
G01X-1518688Y-551412D01*
G01X-1484998Y-517723D01*
G01X-1478096Y-508728D01*
G01X-1473757Y-498252D01*
G01X-1472277Y-487011D01*
G01X-1472277Y-409819D01*
G01X-1460711Y-409819D01*
G01X-1451213Y-408315D01*
G01X-1442646Y-403949D01*
G01X-1435846Y-397150D01*
G01X-1431481Y-388582D01*
G01X-1429977Y-379085D01*
G01X-1429977Y-279085D01*
G01X-1431481Y-269588D01*
G01X-1435846Y-261020D01*
G01X-1442646Y-254221D01*
G01X-1451213Y-249855D01*
G01X-1460711Y-248351D01*
G01X-1467866Y-248351D01*
G01X-1467866Y-170391D01*
G01X-1380807Y-83332D01*
G01X-1345734Y-83332D01*
G01X-1345734Y-147798D01*
G01X-1343995Y-157990D01*
G01X-1338973Y-167029D01*
G01X-1331238Y-173891D01*
G01X-1321665Y-177800D01*
G01X-1331238Y-181709D01*
G01X-1338973Y-188571D01*
G01X-1343995Y-197610D01*
G01X-1345734Y-207802D01*
G01X-1345734Y-287802D01*
G01X-1344230Y-297300D01*
G01X-1339864Y-305867D01*
G01X-1333065Y-312667D01*
G01X-1324497Y-317032D01*
G01X-1315000Y-318536D01*
G01X-1225000Y-318536D01*
G01X-1215921Y-317165D01*
G01X-1207652Y-313172D01*
G01X-1200932Y-306915D01*
G01X-1196360Y-298953D01*
G01X-1194344Y-289995D01*
G01X-1178921Y-289995D01*
G01X-1167679Y-288515D01*
G01X-1157204Y-284175D01*
G01X-1148208Y-277273D01*
G01X-1130248Y-259312D01*
G01X-1125896Y-254231D01*
G01X-1122375Y-248542D01*
G01X-1122375Y-953059D01*
G01X-1120895Y-964300D01*
G01X-1116556Y-974776D01*
G01X-1109654Y-983771D01*
G01X-795470Y-1297955D01*
G01X-786474Y-1304858D01*
G01X-775999Y-1309197D01*
G01X-764757Y-1310677D01*
G01X-759606Y-1310677D01*
G01X-760602Y-1318438D01*
G01X-760602Y-1399085D01*
G01X-759098Y-1408583D01*
G01X-754732Y-1417150D01*
G01X-747933Y-1423950D01*
G01X-739365Y-1428315D01*
G01X-729868Y-1429819D01*
G01X-643467Y-1429819D01*
G01X-634564Y-1428502D01*
G01X-626425Y-1424662D01*
G01X-619747Y-1418628D01*
G01X-615103Y-1410919D01*
G01X-612891Y-1402196D01*
G01X-520562Y-1402196D01*
G01X-509320Y-1400716D01*
G01X-498845Y-1396377D01*
G01X-489849Y-1389474D01*
G01X-471650Y-1371275D01*
G01X-465056Y-1362805D01*
G01X-460740Y-1352977D01*
G01X-452363Y-1352977D01*
G01X-442865Y-1351472D01*
G01X-434298Y-1347107D01*
G01X-427498Y-1340308D01*
G01X-423133Y-1331740D01*
G01X-421629Y-1322243D01*
G01X-421629Y-1212243D01*
G01X-423310Y-1202218D01*
G01X-428169Y-1193289D01*
G01X-435675Y-1186434D01*
G01X42330Y-1186434D01*
G01X40324Y-1192573D01*
G01X39646Y-1198996D01*
G01X39646Y-1302186D01*
G01X8756Y-1302186D01*
G01X6544Y-1293462D01*
G01X1900Y-1285753D01*
G01X-4778Y-1279720D01*
G01X-12917Y-1275880D01*
G01X-21820Y-1274562D01*
G01X-108221Y-1274562D01*
G01X-117718Y-1276066D01*
G01X-126286Y-1280432D01*
G01X-133085Y-1287231D01*
G01X-137450Y-1295799D01*
G01X-138955Y-1305296D01*
G01X-138955Y-1385943D01*
G01X-137450Y-1395441D01*
G01X-133085Y-1404008D01*
G01X-126286Y-1410808D01*
G01X-117718Y-1415173D01*
G01X-108221Y-1416677D01*
G01X-21820Y-1416677D01*
G01X-12917Y-1415360D01*
G01X-4778Y-1411520D01*
G01X1900Y-1405486D01*
G01X6544Y-1397777D01*
G01X8756Y-1389054D01*
G01X88900Y-1389054D01*
G01X100142Y-1387574D01*
G01X110617Y-1383235D01*
G01X119612Y-1376332D01*
G01X151092Y-1344853D01*
G01X155475Y-1339729D01*
G01X170379Y-1339729D01*
G01X179877Y-1338225D01*
G01X188444Y-1333860D01*
G01X195244Y-1327060D01*
G01X199609Y-1318493D01*
G01X201113Y-1308995D01*
G01X201113Y-1198996D01*
G01X199613Y-1189509D01*
G01X195256Y-1180948D01*
G01X188471Y-1174150D01*
G01X179918Y-1169779D01*
G01X170434Y-1168262D01*
G01X168930Y-1157069D01*
G01X164592Y-1146643D01*
G01X157712Y-1137688D01*
G01X155659Y-1135634D01*
G01X197909Y-1135634D01*
G01X261366Y-1199091D01*
G01X261366Y-1276007D01*
G01X251925Y-1277568D01*
G01X243421Y-1281958D01*
G01X236681Y-1288751D01*
G01X232356Y-1297287D01*
G01X230866Y-1306740D01*
G01X230866Y-1387387D01*
G01X232370Y-1396885D01*
G01X236735Y-1405452D01*
G01X243535Y-1412252D01*
G01X252102Y-1416617D01*
G01X261600Y-1418121D01*
G01X348000Y-1418121D01*
G01X356903Y-1416804D01*
G01X365043Y-1412964D01*
G01X371721Y-1406930D01*
G01X376365Y-1399221D01*
G01X378577Y-1390498D01*
G01X410057Y-1390498D01*
G01X418086Y-1389749D01*
G01X425839Y-1387529D01*
G01X440222Y-1385625D01*
G01X453636Y-1380099D01*
G01X465186Y-1371319D01*
G01X474100Y-1359872D01*
G01X479783Y-1346523D01*
G01X481854Y-1332163D01*
G01X480177Y-1317752D01*
G01X474861Y-1304253D01*
G01X466264Y-1292566D01*
G01X454959Y-1283474D01*
G01X441700Y-1277582D01*
G01X427375Y-1275285D01*
G01X412940Y-1276737D01*
G01X399358Y-1281839D01*
G01X387538Y-1290252D01*
G01X378269Y-1301413D01*
G01X374650Y-1291430D01*
G01X367849Y-1283275D01*
G01X358679Y-1277921D01*
G01X348234Y-1276007D01*
G01X348234Y-1181100D01*
G01X346754Y-1169858D01*
G01X342415Y-1159383D01*
G01X335512Y-1150388D01*
G01X246612Y-1061488D01*
G01X237617Y-1054585D01*
G01X227142Y-1050246D01*
G01X215900Y-1048766D01*
G01X-794809Y-1048766D01*
G01X-896366Y-947209D01*
G01X-896366Y-724936D01*
G01X-869400Y-724936D01*
G01X-859903Y-723432D01*
G01X-851335Y-719067D01*
G01X-844536Y-712267D01*
G01X-840170Y-703700D01*
G01X-838666Y-694202D01*
G01X-838666Y-614202D01*
G01X-840405Y-604010D01*
G01X-845427Y-594971D01*
G01X-853162Y-588109D01*
G01X-862735Y-584200D01*
G01X-853162Y-580291D01*
G01X-845427Y-573429D01*
G01X-840405Y-564390D01*
G01X-838666Y-554198D01*
G01X-838666Y-474198D01*
G01X-840170Y-464700D01*
G01X-844536Y-456133D01*
G01X-851335Y-449333D01*
G01X-859903Y-444968D01*
G01X-869400Y-443464D01*
G01X-869772Y-443464D01*
G01X-869772Y-423553D01*
G01X-799634Y-493691D01*
G01X-799634Y-554198D01*
G01X-798130Y-563695D01*
G01X-793764Y-572263D01*
G01X-786965Y-579062D01*
G01X-778397Y-583427D01*
G01X-768900Y-584932D01*
G01X-678900Y-584932D01*
G01X-669403Y-583427D01*
G01X-660835Y-579062D01*
G01X-654036Y-572263D01*
G01X-649670Y-563695D01*
G01X-648166Y-554198D01*
G01X-648166Y-474198D01*
G01X-649670Y-464700D01*
G01X-654036Y-456133D01*
G01X-660835Y-449333D01*
G01X-669403Y-444968D01*
G01X-678900Y-443464D01*
G01X-693874Y-443464D01*
G01X-707193Y-436774D01*
G01X-721734Y-433502D01*
G01X-736634Y-433841D01*
G01X-820166Y-350309D01*
G01X-820166Y-330938D01*
G01X-799206Y-330938D01*
G01X-793609Y-330424D01*
G01X-788200Y-328900D01*
G01X-782791Y-330424D01*
G01X-777194Y-330938D01*
G01X-749193Y-330938D01*
G01X-743604Y-330425D01*
G01X-738200Y-328905D01*
G01X-732797Y-330425D01*
G01X-727207Y-330938D01*
G01X-699206Y-330938D01*
G01X-689709Y-329434D01*
G01X-681141Y-325068D01*
G01X-674342Y-318269D01*
G01X-669976Y-309701D01*
G01X-668472Y-300204D01*
G01X-668472Y-233704D01*
G01X-669976Y-224207D01*
G01X-674342Y-215639D01*
G01X-681141Y-208840D01*
G01X-689709Y-204474D01*
G01X-699206Y-202970D01*
G01X-727207Y-202970D01*
G01X-732797Y-203483D01*
G01X-738200Y-205003D01*
G01X-743604Y-203483D01*
G01X-749193Y-202970D01*
G01X-777194Y-202970D01*
G01X-782791Y-203484D01*
G01X-788200Y-205008D01*
G01X-793609Y-203484D01*
G01X-799206Y-202970D01*
G01X-827207Y-202970D01*
G01X-832797Y-203483D01*
G01X-838200Y-205003D01*
G01X-843603Y-203483D01*
G01X-849193Y-202970D01*
G01X-877194Y-202970D01*
G01X-882791Y-203484D01*
G01X-888200Y-205008D01*
G01X-893609Y-203484D01*
G01X-899206Y-202970D01*
G01X-927207Y-202970D01*
G01X-932796Y-203483D01*
G01X-938200Y-205003D01*
G01X-943603Y-203483D01*
G01X-949193Y-202970D01*
G01X-977194Y-202970D01*
G01X-982790Y-203484D01*
G01X-988200Y-205008D01*
G01X-993609Y-203484D01*
G01X-999206Y-202970D01*
G01X-1014957Y-202970D01*
G01X-1014957Y-187193D01*
G01X-1015470Y-181603D01*
G01X-1016991Y-176200D01*
G01X-1015470Y-170796D01*
G01X-1014957Y-165207D01*
G01X-1014957Y-137206D01*
G01X-1015471Y-131609D01*
G01X-1016995Y-126200D01*
G01X-1015471Y-120791D01*
G01X-1014957Y-115194D01*
G01X-1014957Y-87193D01*
G01X-1015470Y-81603D01*
G01X-1016991Y-76200D01*
G01X-1015470Y-70797D01*
G01X-1014957Y-65207D01*
G01X-1014957Y-37206D01*
G01X-1015471Y-31609D01*
G01X-1016995Y-26200D01*
G01X-1015471Y-20791D01*
G01X-1014957Y-15194D01*
G01X-1014957Y12807D01*
G01X-1015470Y18396D01*
G01X-1016991Y23800D01*
G01X-1015470Y29203D01*
G01X-1014957Y34793D01*
G01X-1014957Y50570D01*
G01X-999206Y50570D01*
G01X-993609Y51084D01*
G01X-988200Y52608D01*
G01X-982790Y51084D01*
G01X-977194Y50570D01*
G01X-949193Y50570D01*
G01X-943603Y51083D01*
G01X-938200Y52603D01*
G01X-932796Y51083D01*
G01X-927207Y50570D01*
G01X-899206Y50570D01*
G01X-889708Y52074D01*
G01X-881141Y56440D01*
G01X-874341Y63239D01*
G01X-869976Y71807D01*
G01X-868472Y81304D01*
G01X-868472Y147804D01*
G01X-869772Y156650D01*
G01X-869772Y351885D01*
G01X-691011Y351885D01*
G01X-688337Y338102D01*
G01X-682327Y325414D01*
G01X-673357Y314615D01*
G01X-661987Y306379D01*
G01X-648929Y301222D01*
G01X-635000Y299466D01*
G01X-635000Y299466D01*
G01X-621071Y301222D01*
G01X-608013Y306379D01*
G01X-596643Y314615D01*
G01X-587673Y325414D01*
G01X-581663Y338102D01*
G01X-578989Y351885D01*
G01X-579819Y365900D01*
G01X-584101Y379270D01*
G01X-591566Y391160D01*
G01X-591566Y604309D01*
G01X-565932Y629943D01*
G01X-552246Y633071D01*
G01X-539764Y639498D01*
G01X-529267Y648821D01*
G01X-521412Y660458D01*
G01X-516690Y673679D01*
G01X-515397Y687659D01*
G01X-517613Y701522D01*
G01X-523199Y714402D01*
G01X-531807Y725493D01*
G01X-542898Y734101D01*
G01X-555778Y739687D01*
G01X-569641Y741903D01*
G01X-583621Y740610D01*
G01X-596842Y735888D01*
G01X-608479Y728033D01*
G01X-617802Y717536D01*
G01X-624229Y705054D01*
G01X-627357Y691368D01*
G01X-665712Y653012D01*
G01X-672615Y644017D01*
G01X-676954Y633542D01*
G01X-678434Y622300D01*
G01X-678434Y391160D01*
G01X-685899Y379270D01*
G01X-690181Y365900D01*
G01X-691011Y351885D01*
G01X-869772Y351885D01*
G01X-869772Y624099D01*
G01X-742436Y751435D01*
G01X-495111Y751435D01*
G01X-495111Y671435D01*
G01X-493607Y661938D01*
G01X-489241Y653370D01*
G01X-482442Y646571D01*
G01X-473874Y642206D01*
G01X-464377Y640701D01*
G01X-374377Y640701D01*
G01X-365991Y641867D01*
G01X-358242Y645277D01*
G01X-351717Y650672D01*
G01X-215468Y650672D01*
G01X-215468Y650672D01*
G01X-207093Y649872D01*
G01X-84093Y649872D01*
G01X-71631Y651663D01*
G01X-60178Y656894D01*
G01X-50663Y665139D01*
G01X-43856Y675730D01*
G01X-40309Y687811D01*
G01X-40309Y700401D01*
G01X-43856Y712481D01*
G01X-50663Y723073D01*
G01X-60178Y731318D01*
G01X-71631Y736548D01*
G01X-84093Y738340D01*
G01X-207093Y738340D01*
G01X-215468Y737540D01*
G01X-343643Y737540D01*
G01X-343643Y751435D01*
G01X-345147Y760932D01*
G01X-349513Y769500D01*
G01X-356312Y776299D01*
G01X-364880Y780665D01*
G01X-374377Y782169D01*
G01X-464377Y782169D01*
G01X-473874Y780665D01*
G01X-482442Y776299D01*
G01X-489241Y769500D01*
G01X-493607Y760932D01*
G01X-495111Y751435D01*
G01X-742436Y751435D01*
G01X-76805Y1417066D01*
G01X-38100Y1417066D01*
G01X-26858Y1418546D01*
G01X-16383Y1422885D01*
G01X-7388Y1429788D01*
G01X136702Y1573877D01*
G01X222971Y1573877D01*
G01X222971Y1562311D01*
G01X224476Y1552813D01*
G01X228841Y1544246D01*
G01X235640Y1537446D01*
G01X244208Y1533081D01*
G01X253705Y1531577D01*
G01X353705Y1531577D01*
G01X363202Y1533081D01*
G01X371770Y1537446D01*
G01X378569Y1544246D01*
G01X382935Y1552813D01*
G01X384439Y1562311D01*
G01X384439Y1573877D01*
G01X448911Y1573877D01*
G01X453564Y1574127D01*
G01X451866Y1562100D01*
G01X451866Y1560540D01*
G01X443142Y1558328D01*
G01X435433Y1553684D01*
G01X429400Y1547006D01*
G01X425560Y1538867D01*
G01X424242Y1529964D01*
G01X424242Y1443563D01*
G01X425746Y1434066D01*
G01X430112Y1425498D01*
G01X436911Y1418699D01*
G01X445479Y1414334D01*
G01X454976Y1412829D01*
G01X535624Y1412829D01*
G01X545121Y1414334D01*
G01X553689Y1418699D01*
G01X560488Y1425498D01*
G01X564854Y1434066D01*
G01X566358Y1443563D01*
G01X566358Y1529964D01*
G01X564522Y1540426D01*
G01X559234Y1549639D01*
G01X551126Y1556502D01*
G01X551391Y1556766D01*
G01X590608Y1556766D01*
G01X582267Y1549910D01*
G01X576812Y1540593D01*
G01X574915Y1529964D01*
G01X574915Y1443563D01*
G01X576419Y1434066D01*
G01X580785Y1425498D01*
G01X587584Y1418699D01*
G01X596152Y1414334D01*
G01X605649Y1412829D01*
G01X686297Y1412829D01*
G01X695568Y1414261D01*
G01X703976Y1418424D01*
G01X710737Y1424928D01*
G01X717193Y1413987D01*
G01X725943Y1404777D01*
G01X736541Y1397771D01*
G01X748442Y1393328D01*
G01X761038Y1391674D01*
G01X773684Y1392895D01*
G01X785730Y1396929D01*
G01X796562Y1403568D01*
G01X805623Y1412472D01*
G01X812450Y1423186D01*
G01X819381Y1420556D01*
G01X826740Y1419662D01*
G01X861741Y1419662D01*
G01X869483Y1420653D01*
G01X876727Y1423563D01*
G01X883970Y1420653D01*
G01X891713Y1419662D01*
G01X926714Y1419662D01*
G01X935705Y1421007D01*
G01X943741Y1417285D01*
G01X952505Y1416009D01*
G01X1130300Y1416009D01*
G01X1139797Y1417513D01*
G01X1148365Y1421878D01*
G01X1155164Y1428678D01*
G01X1159530Y1437245D01*
G01X1161034Y1446743D01*
G01X1161034Y1765300D01*
G01X1159530Y1774797D01*
G01X1155164Y1783365D01*
G01X1148365Y1790164D01*
G01X1139797Y1794530D01*
G01X1130300Y1796034D01*
G01X952505Y1796034D01*
G01X943008Y1794530D01*
G01X934440Y1790164D01*
G01X927641Y1783365D01*
G01X923275Y1774797D01*
G01X921771Y1765300D01*
G01X921771Y1543629D01*
G01X891713Y1543629D01*
G01X883970Y1542638D01*
G01X876727Y1539728D01*
G01X869483Y1542638D01*
G01X861741Y1543629D01*
G01X843681Y1543629D01*
G01X756398Y1630912D01*
G01X747403Y1637815D01*
G01X736927Y1642154D01*
G01X725686Y1643634D01*
G01X549689Y1643634D01*
G01X556839Y1650468D01*
G01X561448Y1659218D01*
G01X563039Y1668979D01*
G01X563039Y1749627D01*
G01X561535Y1759124D01*
G01X557170Y1767692D01*
G01X550370Y1774491D01*
G01X541803Y1778857D01*
G01X532305Y1780361D01*
G01X445905Y1780361D01*
G01X436407Y1778857D01*
G01X427840Y1774491D01*
G01X421040Y1767692D01*
G01X416675Y1759124D01*
G01X415171Y1749627D01*
G01X415171Y1668979D01*
G01X416294Y1660745D01*
G01X384439Y1660745D01*
G01X384439Y1672311D01*
G01X382935Y1681808D01*
G01X378569Y1690376D01*
G01X371770Y1697175D01*
G01X363202Y1701540D01*
G01X353705Y1703045D01*
G01X253705Y1703045D01*
G01X244208Y1701540D01*
G01X235640Y1697175D01*
G01X228841Y1690376D01*
G01X224476Y1681808D01*
G01X222971Y1672311D01*
G01X222971Y1660745D01*
G01X118711Y1660745D01*
G01X107469Y1659265D01*
G01X96994Y1654926D01*
G01X87998Y1648023D01*
G01X-56091Y1503934D01*
G01X-94796Y1503934D01*
G01X-106037Y1502454D01*
G01X-116513Y1498115D01*
G01X-125508Y1491212D01*
G01X-223266Y1393455D01*
G01X-223266Y1480671D01*
G01X-216700Y1480671D01*
G01X-207203Y1482176D01*
G01X-198635Y1486541D01*
G01X-191836Y1493340D01*
G01X-187470Y1501908D01*
G01X-185966Y1511405D01*
G01X-185966Y1522971D01*
G01X-114300Y1522971D01*
G01X-103058Y1524451D01*
G01X-92583Y1528790D01*
G01X-83588Y1535693D01*
G01X-54194Y1565086D01*
G01X-47336Y1574005D01*
G01X-42999Y1584386D01*
G01X-41707Y1584386D01*
G01X-32209Y1585890D01*
G01X-23642Y1590256D01*
G01X-16842Y1597055D01*
G01X-12477Y1605623D01*
G01X-10973Y1615120D01*
G01X-10973Y1695768D01*
G01X-12477Y1705265D01*
G01X-16842Y1713833D01*
G01X-23642Y1720632D01*
G01X-32209Y1724998D01*
G01X-41707Y1726502D01*
G01X-128107Y1726502D01*
G01X-137605Y1724998D01*
G01X-146172Y1720632D01*
G01X-152972Y1713833D01*
G01X-157337Y1705265D01*
G01X-158841Y1695768D01*
G01X-158841Y1615120D01*
G01X-158384Y1609839D01*
G01X-185966Y1609839D01*
G01X-185966Y1621405D01*
G01X-187470Y1630903D01*
G01X-191836Y1639470D01*
G01X-198635Y1646270D01*
G01X-207203Y1650635D01*
G01X-216700Y1652139D01*
G01X-316700Y1652139D01*
G01X-326197Y1650635D01*
G01X-334765Y1646270D01*
G01X-341564Y1639470D01*
G01X-345930Y1630903D01*
G01X-347434Y1621405D01*
G01X-347434Y1511405D01*
G01X-345930Y1501908D01*
G01X-341564Y1493340D01*
G01X-334765Y1486541D01*
G01X-326197Y1482176D01*
G01X-316700Y1480671D01*
G01X-310134Y1480671D01*
G01X-310134Y1389591D01*
G01X-401066Y1298659D01*
G01X-401066Y1580807D01*
G01X-391625Y1582368D01*
G01X-383121Y1586758D01*
G01X-376381Y1593551D01*
G01X-372056Y1602087D01*
G01X-370566Y1611540D01*
G01X-370566Y1692187D01*
G01X-372070Y1701685D01*
G01X-376435Y1710252D01*
G01X-383235Y1717052D01*
G01X-391802Y1721417D01*
G01X-401300Y1722921D01*
G01X-487700Y1722921D01*
G01X-497198Y1721417D01*
G01X-505765Y1717052D01*
G01X-512565Y1710252D01*
G01X-516930Y1701685D01*
G01X-518434Y1692187D01*
G01X-518434Y1611540D01*
G01X-516944Y1602087D01*
G01X-512619Y1593551D01*
G01X-505879Y1586758D01*
G01X-497375Y1582368D01*
G01X-487934Y1580807D01*
G01X-487934Y1291843D01*
G01X-663033Y1116744D01*
G01X-781608Y1235319D01*
G01X-789068Y1240805D01*
G01X-797823Y1243821D01*
G01X-807079Y1244092D01*
G01X-815995Y1241594D01*
G01X-835406Y1261005D01*
G01X-835406Y1265761D01*
G01X-804725Y1296443D01*
G01X-790445Y1298746D01*
G01X-777229Y1304621D01*
G01X-765952Y1313679D01*
G01X-757364Y1325317D01*
G01X-752035Y1338764D01*
G01X-750319Y1353125D01*
G01X-752329Y1367449D01*
G01X-757933Y1380783D01*
G01X-766757Y1392243D01*
G01X-778217Y1401067D01*
G01X-791551Y1406671D01*
G01X-805875Y1408681D01*
G01X-820236Y1406965D01*
G01X-833683Y1401636D01*
G01X-845321Y1393048D01*
G01X-854379Y1381771D01*
G01X-860254Y1368555D01*
G01X-862557Y1354275D01*
G01X-905216Y1311616D01*
G01X-911715Y1303147D01*
G01X-915801Y1293284D01*
G01X-917194Y1282700D01*
G01X-917194Y1244066D01*
G01X-915801Y1233482D01*
G01X-911715Y1223619D01*
G01X-905216Y1215149D01*
G01X-873808Y1183741D01*
G01X-876280Y1174838D01*
G01X-875994Y1165602D01*
G01X-872976Y1156869D01*
G01X-867499Y1149428D01*
G01X-748924Y1030853D01*
G01X-751417Y1028360D01*
G01X-869992Y1146935D01*
G01X-877451Y1152422D01*
G01X-886206Y1155437D01*
G01X-895462Y1155708D01*
G01X-904379Y1153210D01*
G01X-910385Y1159216D01*
G01X-918855Y1165715D01*
G01X-928718Y1169801D01*
G01X-939302Y1171194D01*
G01X-1100278Y1171194D01*
G01X-1106459Y1170724D01*
G01X-1119828Y1171239D01*
G01X-1132938Y1168576D01*
G01X-1145046Y1162886D01*
G01X-1155464Y1154493D01*
G01X-1163600Y1143873D01*
G01X-1168992Y1131630D01*
G01X-1171333Y1118458D01*
G01X-1328188Y1275312D01*
G01X-1335012Y1280875D01*
G01X-1308021Y1305595D01*
G01X-1283744Y1332984D01*
G01X-1262443Y1362747D01*
G01X-1244349Y1394562D01*
G01X-1229657Y1428083D01*
G01X-1218526Y1462950D01*
G01X-1211077Y1498784D01*
G01X-1207390Y1535197D01*
G01X-1207505Y1571797D01*
G01X-1211420Y1608187D01*
G01X-1219095Y1643973D01*
G01X-1220138Y1647172D01*
G01X-946846Y1647172D01*
G01X-943875Y1638027D01*
G01X-938223Y1630248D01*
G01X-740233Y1432258D01*
G01X-732454Y1426606D01*
G01X-723309Y1423635D01*
G01X-713693Y1423635D01*
G01X-704548Y1426606D01*
G01X-696769Y1432258D01*
G01X-626058Y1502969D01*
G01X-620406Y1510748D01*
G01X-617435Y1519893D01*
G01X-617435Y1529509D01*
G01X-620406Y1538654D01*
G01X-626058Y1546433D01*
G01X-824048Y1744423D01*
G01X-824048Y1744423D01*
G01X-831827Y1750075D01*
G01X-840972Y1753046D01*
G01X-850588Y1753046D01*
G01X-859733Y1750075D01*
G01X-867512Y1744423D01*
G01X-938223Y1673712D01*
G01X-943875Y1665933D01*
G01X-946846Y1656788D01*
G01X-946846Y1647172D01*
G01X-1220138Y1647172D01*
G01X-1230445Y1678769D01*
G01X-1245347Y1712198D01*
G01X-1263641Y1743898D01*
G01X-1285129Y1773526D01*
G01X-1309578Y1800763D01*
G01X-1326368Y1821564D01*
G01X-1339079Y1842860D01*
G01X-518434Y1842860D01*
G01X-518434Y1762213D01*
G01X-516930Y1752715D01*
G01X-512565Y1744148D01*
G01X-505765Y1737348D01*
G01X-497198Y1732983D01*
G01X-487700Y1731479D01*
G01X-401300Y1731479D01*
G01X-391802Y1732983D01*
G01X-383235Y1737348D01*
G01X-376435Y1744148D01*
G01X-372070Y1752715D01*
G01X-370566Y1762213D01*
G01X-370566Y1842860D01*
G01X-372060Y1852328D01*
G01X-376399Y1860876D01*
G01X-367314Y1869961D01*
G01X-347434Y1869961D01*
G01X-347434Y1858395D01*
G01X-345930Y1848897D01*
G01X-341564Y1840330D01*
G01X-334765Y1833530D01*
G01X-326197Y1829165D01*
G01X-316700Y1827661D01*
G01X-216700Y1827661D01*
G01X-207203Y1829165D01*
G01X-198635Y1833530D01*
G01X-191836Y1840330D01*
G01X-187470Y1848897D01*
G01X-185966Y1858395D01*
G01X-185966Y1869961D01*
G01X-153386Y1869961D01*
G01X-150701Y1867276D01*
G01X-155128Y1861084D01*
G01X-157899Y1853994D01*
G01X-158841Y1846441D01*
G01X-158841Y1765793D01*
G01X-157337Y1756296D01*
G01X-152972Y1747728D01*
G01X-146172Y1740929D01*
G01X-137605Y1736563D01*
G01X-128107Y1735059D01*
G01X-41707Y1735059D01*
G01X-32209Y1736563D01*
G01X-23642Y1740929D01*
G01X-16842Y1747728D01*
G01X-12477Y1756296D01*
G01X-10973Y1765793D01*
G01X-10973Y1846441D01*
G01X-12477Y1855938D01*
G01X-16842Y1864506D01*
G01X-23642Y1871305D01*
G01X-32209Y1875670D01*
G01X-41707Y1877175D01*
G01X-43883Y1877175D01*
G01X-48108Y1885980D01*
G01X-54194Y1893619D01*
G01X-104682Y1944107D01*
G01X-113678Y1951010D01*
G01X-124153Y1955349D01*
G01X-135395Y1956829D01*
G01X-185966Y1956829D01*
G01X-185966Y1968395D01*
G01X-187470Y1977892D01*
G01X-191836Y1986460D01*
G01X-198635Y1993259D01*
G01X-207203Y1997624D01*
G01X-216700Y1999129D01*
G01X-316700Y1999129D01*
G01X-326197Y1997624D01*
G01X-334765Y1993259D01*
G01X-341564Y1986460D01*
G01X-345930Y1977892D01*
G01X-347434Y1968395D01*
G01X-347434Y1956829D01*
G01X-385305Y1956829D01*
G01X-396547Y1955349D01*
G01X-407022Y1951010D01*
G01X-416018Y1944107D01*
G01X-475212Y1884912D01*
G01X-475212Y1884912D01*
G01X-479745Y1879583D01*
G01X-483364Y1873594D01*
G01X-487700Y1873594D01*
G01X-497198Y1872090D01*
G01X-505765Y1867724D01*
G01X-512565Y1860925D01*
G01X-516930Y1852357D01*
G01X-518434Y1842860D01*
G01X-1339079Y1842860D01*
G01X-1340069Y1844518D01*
G01X-1350408Y1869169D01*
G01X-1357182Y1895029D01*
G01X-1360255Y1921584D01*
G01X-1359567Y1948307D01*
G01X-1355131Y1974668D01*
G01X-1347035Y2000145D01*
G01X-1337813Y2019300D01*
G01X222971Y2019300D01*
G01X222971Y1909300D01*
G01X224476Y1899803D01*
G01X228841Y1891235D01*
G01X235640Y1884436D01*
G01X244208Y1880070D01*
G01X253705Y1878566D01*
G01X353705Y1878566D01*
G01X363202Y1880070D01*
G01X371770Y1884436D01*
G01X378569Y1891235D01*
G01X382935Y1899803D01*
G01X384439Y1909300D01*
G01X384439Y1925066D01*
G01X426509Y1925066D01*
G01X427024Y1924551D01*
G01X420647Y1917810D01*
G01X416572Y1909473D01*
G01X415171Y1900300D01*
G01X415171Y1819652D01*
G01X416675Y1810155D01*
G01X421040Y1801587D01*
G01X427840Y1794788D01*
G01X436407Y1790422D01*
G01X445905Y1788918D01*
G01X532305Y1788918D01*
G01X541208Y1790236D01*
G01X549347Y1794076D01*
G01X556026Y1800109D01*
G01X560670Y1807818D01*
G01X562881Y1816542D01*
G01X573923Y1816542D01*
G01X576135Y1807818D01*
G01X580779Y1800109D01*
G01X587457Y1794076D01*
G01X595597Y1790236D01*
G01X604500Y1788918D01*
G01X690900Y1788918D01*
G01X699803Y1790236D01*
G01X707943Y1794076D01*
G01X714621Y1800109D01*
G01X719265Y1807818D01*
G01X721477Y1816542D01*
G01X726440Y1816542D01*
G01X738330Y1809077D01*
G01X751700Y1804795D01*
G01X765715Y1803965D01*
G01X779498Y1806639D01*
G01X792186Y1812649D01*
G01X802985Y1821619D01*
G01X811221Y1832989D01*
G01X816378Y1846047D01*
G01X818134Y1859976D01*
G01X816378Y1873905D01*
G01X811221Y1886963D01*
G01X802985Y1898333D01*
G01X792186Y1907303D01*
G01X779498Y1913313D01*
G01X765715Y1915987D01*
G01X751700Y1915157D01*
G01X738330Y1910875D01*
G01X726440Y1903410D01*
G01X721477Y1903410D01*
G01X719265Y1912134D01*
G01X714621Y1919843D01*
G01X707943Y1925876D01*
G01X699803Y1929716D01*
G01X690900Y1931034D01*
G01X604500Y1931034D01*
G01X595597Y1929716D01*
G01X587457Y1925876D01*
G01X580779Y1919843D01*
G01X576135Y1912134D01*
G01X573923Y1903410D01*
G01X562881Y1903410D01*
G01X560670Y1912134D01*
G01X556026Y1919843D01*
G01X549347Y1925876D01*
G01X541208Y1929716D01*
G01X532305Y1931034D01*
G01X531948Y1931034D01*
G01X529570Y1939677D01*
G01X525468Y1947648D01*
G01X519817Y1954608D01*
G01X475212Y1999212D01*
G01X475212Y1999212D01*
G01X466217Y2006115D01*
G01X455742Y2010454D01*
G01X444500Y2011934D01*
G01X384439Y2011934D01*
G01X384439Y2019300D01*
G01X382935Y2028797D01*
G01X378569Y2037365D01*
G01X371770Y2044164D01*
G01X363202Y2048530D01*
G01X353705Y2050034D01*
G01X253705Y2050034D01*
G01X244208Y2048530D01*
G01X235640Y2044164D01*
G01X228841Y2037365D01*
G01X224476Y2028797D01*
G01X222971Y2019300D01*
G01X-1337813Y2019300D01*
G01X-1335439Y2024231D01*
G01X-1320575Y2046449D01*
G01X-1302736Y2066359D01*
G01X-1218369Y2117200D01*
G01X-1132021Y2164599D01*
G01X-1043833Y2208477D01*
G01X-953947Y2248765D01*
G01X696193Y2248765D01*
G01X687540Y2237078D01*
G01X682179Y2223561D01*
G01X680470Y2209120D01*
G01X682528Y2194725D01*
G01X688215Y2181341D01*
G01X697148Y2169868D01*
G01X708729Y2161074D01*
G01X722181Y2155550D01*
G01X736600Y2153666D01*
G01X751019Y2155550D01*
G01X764471Y2161074D01*
G01X776052Y2169868D01*
G01X784985Y2181341D01*
G01X790672Y2194725D01*
G01X792730Y2209120D01*
G01X791021Y2223561D01*
G01X785660Y2237078D01*
G01X777007Y2248765D01*
G01X953946Y2248765D01*
G01X1043751Y2208516D01*
G01X1131862Y2164681D01*
G01X1218136Y2117334D01*
G01X1302433Y2066549D01*
G01X1318878Y2046495D01*
G01X1332434Y2024385D01*
G01X1342847Y2000632D01*
G01X1349922Y1975681D01*
G01X1353527Y1949997D01*
G01X1353594Y1924062D01*
G01X1350123Y1898361D01*
G01X1343177Y1873373D01*
G01X1332888Y1849566D01*
G01X1319447Y1827386D01*
G01X1303106Y1807247D01*
G01X1278536Y1779862D01*
G01X1256960Y1750062D01*
G01X1238613Y1718172D01*
G01X1223696Y1684541D01*
G01X1212372Y1649536D01*
G01X1204764Y1613540D01*
G01X1200956Y1576947D01*
G01X1200989Y1540156D01*
G01X1204864Y1503569D01*
G01X1212537Y1467587D01*
G01X1223925Y1432603D01*
G01X1238903Y1398999D01*
G01X1257308Y1367143D01*
G01X1278939Y1337382D01*
G01X1303558Y1310042D01*
G01X1330897Y1285422D01*
G01X1360657Y1263791D01*
G01X1392514Y1245385D01*
G01X1426117Y1230406D01*
G01X1461101Y1219017D01*
G01X1497083Y1211343D01*
G01X1533669Y1207468D01*
G01X1570460Y1207433D01*
G01X1607054Y1211240D01*
G01X1643050Y1218847D01*
G01X1678055Y1230171D01*
G01X1711687Y1245087D01*
G01X1743577Y1263433D01*
G01X1773378Y1285009D01*
G01X1800763Y1309578D01*
G01X1821564Y1326368D01*
G01X1844518Y1340069D01*
G01X1869169Y1350409D01*
G01X1895028Y1357183D01*
G01X1921583Y1360256D01*
G01X1948306Y1359567D01*
G01X1974668Y1355131D01*
G01X2000144Y1347035D01*
G01X2024230Y1335440D01*
G01X2046448Y1320576D01*
G01X2066358Y1302737D01*
G01X2109825Y1231095D01*
G01X2150810Y1158004D01*
G01X2189264Y1083550D01*
G01X2195072Y1075041D01*
G01X2202998Y1068458D01*
G01X2212429Y1064310D01*
G01X2222637Y1062916D01*
G01X2399986Y1062916D01*
G01X2419596Y1061203D01*
G01X2438610Y1056110D01*
G01X2456450Y1047793D01*
G01X2472575Y1036504D01*
G01X2486495Y1022586D01*
G01X2497786Y1006462D01*
G01X2506105Y988623D01*
G01X2511200Y969609D01*
G01X2512916Y950000D01*
G01X2512916Y-744739D01*
G01X2506066Y-743966D01*
G01X2120900Y-743966D01*
G01X2111403Y-745470D01*
G01X2102835Y-749836D01*
G01X2096036Y-756635D01*
G01X2091670Y-765203D01*
G01X2090166Y-774700D01*
G01X2090166Y-825115D01*
G01X2086029Y-816005D01*
G01X2079185Y-808707D01*
G01X2070359Y-803994D01*
G01X2060487Y-802366D01*
G01X1979840Y-802366D01*
G01X1970343Y-803870D01*
G01X1961775Y-808235D01*
G01X1954976Y-815035D01*
G01X1950610Y-823602D01*
G01X1949106Y-833100D01*
G01X1949106Y-835406D01*
G01X1928968Y-835406D01*
G01X1927433Y-825939D01*
G01X1923054Y-817406D01*
G01X1916259Y-810639D01*
G01X1907708Y-806295D01*
G01X1898235Y-804799D01*
G01X1890719Y-804799D01*
G01X1886827Y-800295D01*
G01X1756116Y-669584D01*
G01X1747647Y-663085D01*
G01X1737784Y-658999D01*
G01X1727200Y-657606D01*
G01X809089Y-657606D01*
G01X772806Y-621324D01*
G01X764337Y-614825D01*
G01X754474Y-610739D01*
G01X743890Y-609346D01*
G01X679879Y-609346D01*
G01X663194Y-592661D01*
G01X663194Y-317854D01*
G01X671444Y-306527D01*
G01X676632Y-293510D01*
G01X678434Y-279613D01*
G01X676737Y-265704D01*
G01X671649Y-252647D01*
G01X663485Y-241258D01*
G01X652755Y-232246D01*
G01X640127Y-226172D01*
G01X626388Y-223415D01*
G01X612394Y-224147D01*
G01X612394Y-220139D01*
G01X663916Y-168616D01*
G01X670415Y-160147D01*
G01X674501Y-150284D01*
G01X675894Y-139700D01*
G01X675894Y-51381D01*
G01X689700Y-55440D01*
G01X704085Y-55855D01*
G01X718102Y-52600D01*
G01X730832Y-45888D01*
G01X741436Y-36160D01*
G01X749219Y-24055D01*
G01X753668Y-10369D01*
G01X754491Y3998D01*
G01X751635Y18102D01*
G01X745287Y31016D01*
G01X745287Y99860D01*
G01X763859Y99860D01*
G01X763859Y-142628D01*
G01X763544Y-147696D01*
G01X763544Y-315671D01*
G01X764937Y-326255D01*
G01X769022Y-336118D01*
G01X775521Y-344587D01*
G01X799064Y-368130D01*
G01X799064Y-426000D01*
G01X800568Y-435497D01*
G01X804933Y-444065D01*
G01X811733Y-450864D01*
G01X820300Y-455230D01*
G01X829798Y-456734D01*
G01X884107Y-456734D01*
G01X899538Y-472166D01*
G01X824140Y-472166D01*
G01X814687Y-473656D01*
G01X806151Y-477981D01*
G01X799358Y-484721D01*
G01X794968Y-493225D01*
G01X793407Y-502666D01*
G01X783573Y-502666D01*
G01X773848Y-491404D01*
G01X761505Y-483093D01*
G01X747413Y-478317D01*
G01X732561Y-477411D01*
G01X717993Y-480440D01*
G01X704732Y-487189D01*
G01X693710Y-497185D01*
G01X685702Y-509726D01*
G01X681270Y-523931D01*
G01X680726Y-538800D01*
G01X684108Y-553290D01*
G01X691178Y-566383D01*
G01X701440Y-577158D01*
G01X714172Y-584859D01*
G01X728480Y-588944D01*
G01X743358Y-589126D01*
G01X749300Y-589534D01*
G01X793407Y-589534D01*
G01X794968Y-598975D01*
G01X799358Y-607479D01*
G01X806151Y-614219D01*
G01X814687Y-618544D01*
G01X824140Y-620034D01*
G01X904787Y-620034D01*
G01X914285Y-618530D01*
G01X922852Y-614165D01*
G01X929652Y-607365D01*
G01X934017Y-598798D01*
G01X935521Y-589300D01*
G01X935521Y-508149D01*
G01X944079Y-516706D01*
G01X944079Y-589300D01*
G01X945583Y-598798D01*
G01X949948Y-607365D01*
G01X956748Y-614165D01*
G01X965315Y-618530D01*
G01X974813Y-620034D01*
G01X1055460Y-620034D01*
G01X1064957Y-618530D01*
G01X1073525Y-614165D01*
G01X1080324Y-607365D01*
G01X1084690Y-598798D01*
G01X1086194Y-589300D01*
G01X1086194Y-502900D01*
G01X1084690Y-493402D01*
G01X1080324Y-484835D01*
G01X1073525Y-478035D01*
G01X1064957Y-473670D01*
G01X1055460Y-472166D01*
G01X1022388Y-472166D01*
G01X940532Y-390309D01*
G01X940532Y-336000D01*
G01X939027Y-326503D01*
G01X934662Y-317935D01*
G01X932368Y-315641D01*
G01X1277397Y-315641D01*
G01X1278690Y-329621D01*
G01X1283412Y-342842D01*
G01X1291267Y-354479D01*
G01X1301764Y-363802D01*
G01X1314246Y-370229D01*
G01X1327932Y-373357D01*
G01X1426100Y-471525D01*
G01X1433189Y-483297D01*
G01X1442926Y-492994D01*
G01X1454727Y-500035D01*
G01X1467886Y-503998D01*
G01X1481613Y-504644D01*
G01X1495085Y-501937D01*
G01X1507496Y-496036D01*
G01X1518102Y-487298D01*
G01X1526266Y-476244D01*
G01X1531501Y-463537D01*
G01X1533491Y-449940D01*
G01X1532117Y-436267D01*
G01X1527463Y-423337D01*
G01X1519807Y-411925D01*
G01X1509607Y-402716D01*
G01X1497475Y-396261D01*
G01X1484139Y-392946D01*
G01X1470397Y-392972D01*
G01X1389357Y-311932D01*
G01X1389329Y-311810D01*
G01X2145949Y-311810D01*
G01X2145949Y-411810D01*
G01X2147454Y-421308D01*
G01X2151819Y-429875D01*
G01X2158618Y-436675D01*
G01X2167186Y-441040D01*
G01X2176683Y-442544D01*
G01X2456683Y-442544D01*
G01X2466180Y-441040D01*
G01X2474748Y-436675D01*
G01X2481547Y-429875D01*
G01X2485913Y-421308D01*
G01X2487417Y-411810D01*
G01X2487417Y-311810D01*
G01X2485913Y-302313D01*
G01X2481547Y-293745D01*
G01X2474748Y-286946D01*
G01X2466180Y-282581D01*
G01X2456683Y-281076D01*
G01X2176683Y-281076D01*
G01X2176683Y-281076D01*
G01X2167186Y-282581D01*
G01X2158618Y-286946D01*
G01X2151819Y-293745D01*
G01X2147454Y-302313D01*
G01X2145949Y-311810D01*
G01X1389329Y-311810D01*
G01X1386229Y-298246D01*
G01X1379802Y-285764D01*
G01X1370479Y-275267D01*
G01X1358842Y-267412D01*
G01X1345621Y-262690D01*
G01X1331641Y-261397D01*
G01X1317778Y-263613D01*
G01X1304898Y-269199D01*
G01X1293807Y-277807D01*
G01X1293807Y-277807D01*
G01X1285199Y-288898D01*
G01X1279613Y-301778D01*
G01X1277397Y-315641D01*
G01X932368Y-315641D01*
G01X927863Y-311136D01*
G01X919295Y-306770D01*
G01X909798Y-305266D01*
G01X851866Y-305266D01*
G01X845332Y-298732D01*
G01X845332Y-278934D01*
G01X909798Y-278934D01*
G01X919295Y-277430D01*
G01X927863Y-273064D01*
G01X934662Y-266265D01*
G01X939027Y-257697D01*
G01X940532Y-248200D01*
G01X940532Y-158200D01*
G01X939022Y-148688D01*
G01X934643Y-140110D01*
G01X927825Y-133308D01*
G01X934133Y-127000D01*
G01X1660906Y-127000D01*
G01X1662299Y-137584D01*
G01X1666385Y-147447D01*
G01X1672884Y-155916D01*
G01X1735520Y-218553D01*
G01X1743989Y-225052D01*
G01X1753852Y-229137D01*
G01X1764436Y-230530D01*
G01X1767571Y-230530D01*
G01X1769214Y-239890D01*
G01X1773638Y-248301D01*
G01X1780420Y-254958D01*
G01X1788911Y-259225D01*
G01X1798300Y-260694D01*
G01X1884700Y-260694D01*
G01X1893603Y-259376D01*
G01X1901743Y-255536D01*
G01X1908421Y-249503D01*
G01X1913065Y-241794D01*
G01X1915277Y-233070D01*
G01X1925746Y-233070D01*
G01X1933413Y-236395D01*
G01X1941692Y-237531D01*
G01X2111691Y-237531D01*
G01X2121189Y-236026D01*
G01X2129756Y-231661D01*
G01X2136556Y-224862D01*
G01X2140921Y-216294D01*
G01X2142425Y-206797D01*
G01X2142425Y-146797D01*
G01X2140921Y-137299D01*
G01X2136556Y-128732D01*
G01X2129756Y-121932D01*
G01X2121189Y-117567D01*
G01X2111691Y-116063D01*
G01X1941692Y-116063D01*
G01X1932365Y-117512D01*
G01X1923918Y-121724D01*
G01X1917147Y-128300D01*
G01X1912691Y-136620D01*
G01X1907968Y-129233D01*
G01X1901351Y-123480D01*
G01X1893379Y-119829D01*
G01X1884700Y-118579D01*
G01X1798300Y-118579D01*
G01X1789429Y-119887D01*
G01X1781314Y-123699D01*
G01X1774644Y-129692D01*
G01X1769987Y-137355D01*
G01X1742694Y-110061D01*
G01X1742694Y-78414D01*
G01X1753464Y-79858D01*
G01X1767571Y-79858D01*
G01X1769214Y-89218D01*
G01X1773638Y-97628D01*
G01X1780420Y-104285D01*
G01X1788911Y-108552D01*
G01X1798300Y-110021D01*
G01X1884700Y-110021D01*
G01X1893379Y-108771D01*
G01X1901351Y-105120D01*
G01X1907968Y-99367D01*
G01X1912691Y-91980D01*
G01X1917147Y-100300D01*
G01X1923918Y-106876D01*
G01X1932365Y-111088D01*
G01X1941692Y-112537D01*
G01X2111691Y-112537D01*
G01X2121189Y-111033D01*
G01X2129756Y-106668D01*
G01X2136556Y-99868D01*
G01X2140921Y-91301D01*
G01X2142425Y-81803D01*
G01X2142425Y-21803D01*
G01X2140921Y-12306D01*
G01X2136556Y-3738D01*
G01X2129756Y3061D01*
G01X2121189Y7426D01*
G01X2111691Y8931D01*
G01X1941692Y8931D01*
G01X1933413Y7795D01*
G01X1925746Y4470D01*
G01X1915277Y4470D01*
G01X1913065Y13194D01*
G01X1908421Y20903D01*
G01X1901743Y26936D01*
G01X1893603Y30776D01*
G01X1884700Y32094D01*
G01X1798300Y32094D01*
G01X1789129Y30694D01*
G01X1780794Y26621D01*
G01X1780794Y183185D01*
G01X2145949Y183185D01*
G01X2145949Y83185D01*
G01X2147454Y73688D01*
G01X2151819Y65120D01*
G01X2158618Y58321D01*
G01X2167186Y53955D01*
G01X2176683Y52451D01*
G01X2456683Y52451D01*
G01X2466180Y53955D01*
G01X2474748Y58321D01*
G01X2481547Y65120D01*
G01X2485913Y73688D01*
G01X2487417Y83185D01*
G01X2487417Y183185D01*
G01X2485913Y192682D01*
G01X2481547Y201250D01*
G01X2474748Y208049D01*
G01X2466180Y212415D01*
G01X2456683Y213919D01*
G01X2176683Y213919D01*
G01X2176683Y213919D01*
G01X2167186Y212415D01*
G01X2158618Y208049D01*
G01X2151819Y201250D01*
G01X2147454Y192682D01*
G01X2145949Y183185D01*
G01X1780794Y183185D01*
G01X1780794Y249761D01*
G01X1782239Y251206D01*
G01X1791058Y251206D01*
G01X1800343Y243061D01*
G01X1811095Y236985D01*
G01X1822862Y233234D01*
G01X1835147Y231966D01*
G01X1980847Y231966D01*
G01X1995238Y233713D01*
G01X2008793Y238854D01*
G01X2020723Y247089D01*
G01X2030337Y257940D01*
G01X2037074Y270776D01*
G01X2040543Y284852D01*
G01X2040543Y299348D01*
G01X2037074Y313424D01*
G01X2030337Y326260D01*
G01X2020723Y337111D01*
G01X2008793Y345346D01*
G01X1995238Y350487D01*
G01X1980847Y352235D01*
G01X1835147Y352235D01*
G01X1822862Y350966D01*
G01X1811095Y347215D01*
G01X1800343Y341139D01*
G01X1791058Y332994D01*
G01X1765300Y332994D01*
G01X1753849Y331358D01*
G01X1743313Y326581D01*
G01X1792970Y376237D01*
G01X1805360Y366861D01*
G01X1819740Y360973D01*
G01X1835147Y358966D01*
G01X1980847Y358966D01*
G01X1994212Y360470D01*
G01X2006909Y364907D01*
G01X2018302Y372055D01*
G01X2027822Y381556D01*
G01X2034991Y392936D01*
G01X2039452Y405624D01*
G01X2053014Y401728D01*
G01X2067120Y401337D01*
G01X2080877Y404476D01*
G01X2093416Y410947D01*
G01X2103946Y420340D01*
G01X2114111Y411200D01*
G01X2126183Y404788D01*
G01X2139448Y401484D01*
G01X2153117Y401484D01*
G01X2166382Y404788D01*
G01X2178454Y411200D01*
G01X2188619Y420340D01*
G01X2198783Y411200D01*
G01X2210856Y404788D01*
G01X2224120Y401484D01*
G01X2237790Y401484D01*
G01X2251054Y404788D01*
G01X2263127Y411200D01*
G01X2273291Y420340D01*
G01X2283456Y411200D01*
G01X2295528Y404788D01*
G01X2308793Y401484D01*
G01X2322462Y401484D01*
G01X2335727Y404788D01*
G01X2347799Y411200D01*
G01X2357964Y420340D01*
G01X2368055Y411251D01*
G01X2380033Y404852D01*
G01X2393198Y401517D01*
G01X2406778Y401441D01*
G01X2419979Y404628D01*
G01X2432028Y410893D01*
G01X2442220Y419868D01*
G01X2449959Y431028D01*
G01X2454791Y443719D01*
G01X2456434Y457200D01*
G01X2454791Y470681D01*
G01X2449959Y483372D01*
G01X2442220Y494532D01*
G01X2432028Y503507D01*
G01X2419979Y509772D01*
G01X2406778Y512959D01*
G01X2393198Y512883D01*
G01X2380033Y509548D01*
G01X2368055Y503149D01*
G01X2357964Y494060D01*
G01X2347799Y503200D01*
G01X2335727Y509612D01*
G01X2322462Y512916D01*
G01X2308793Y512916D01*
G01X2295528Y509612D01*
G01X2283456Y503200D01*
G01X2273291Y494060D01*
G01X2263127Y503200D01*
G01X2251054Y509612D01*
G01X2237790Y512916D01*
G01X2224120Y512916D01*
G01X2210856Y509612D01*
G01X2198783Y503200D01*
G01X2188619Y494060D01*
G01X2178454Y503200D01*
G01X2166382Y509612D01*
G01X2153117Y512916D01*
G01X2139448Y512916D01*
G01X2126183Y509612D01*
G01X2114111Y503200D01*
G01X2103946Y494060D01*
G01X2092687Y503947D01*
G01X2079214Y510502D01*
G01X2064486Y513260D01*
G01X2049554Y512024D01*
G01X2035480Y506882D01*
G01X2023268Y498199D01*
G01X2013788Y486596D01*
G01X2007716Y472898D01*
G01X1994650Y477629D01*
G01X1980847Y479235D01*
G01X1835147Y479235D01*
G01X1822862Y477966D01*
G01X1811095Y474215D01*
G01X1800343Y468139D01*
G01X1791058Y459994D01*
G01X1778000Y459994D01*
G01X1767416Y458601D01*
G01X1757553Y454515D01*
G01X1749084Y448016D01*
G01X1672884Y371816D01*
G01X1666385Y363347D01*
G01X1662299Y353484D01*
G01X1660906Y342900D01*
G01X1660906Y-127000D01*
G01X1660906Y-127000D01*
G01X934133Y-127000D01*
G01X943316Y-117816D01*
G01X949815Y-109347D01*
G01X953901Y-99484D01*
G01X955294Y-88900D01*
G01X955294Y-58329D01*
G01X980803Y-58329D01*
G01X990301Y-56824D01*
G01X998868Y-52459D01*
G01X1005668Y-45660D01*
G01X1010033Y-37092D01*
G01X1011537Y-27595D01*
G01X1011537Y112405D01*
G01X1010033Y121902D01*
G01X1005668Y130470D01*
G01X998868Y137269D01*
G01X990301Y141635D01*
G01X980803Y143139D01*
G01X879094Y143139D01*
G01X879094Y366111D01*
G01X898382Y346823D01*
G01X906852Y340324D01*
G01X916715Y336239D01*
G01X927299Y334845D01*
G01X995161Y334845D01*
G01X995063Y332395D01*
G01X995063Y192395D01*
G01X996567Y182898D01*
G01X1000932Y174330D01*
G01X1007732Y167531D01*
G01X1016299Y163165D01*
G01X1025797Y161661D01*
G01X1125264Y161661D01*
G01X1125264Y53042D01*
G01X1126657Y42458D01*
G01X1130743Y32595D01*
G01X1137242Y24126D01*
G01X1190284Y-28916D01*
G01X1198014Y-34978D01*
G01X1206966Y-39021D01*
G01X1206966Y-46198D01*
G01X1208470Y-55695D01*
G01X1212836Y-64263D01*
G01X1219635Y-71062D01*
G01X1228203Y-75427D01*
G01X1237700Y-76932D01*
G01X1327700Y-76932D01*
G01X1337197Y-75427D01*
G01X1345765Y-71062D01*
G01X1352564Y-64263D01*
G01X1356930Y-55695D01*
G01X1358434Y-46198D01*
G01X1358434Y33802D01*
G01X1356930Y43300D01*
G01X1352564Y51867D01*
G01X1345765Y58667D01*
G01X1337197Y63032D01*
G01X1327700Y64536D01*
G01X1237700Y64536D01*
G01X1227773Y62889D01*
G01X1218910Y58123D01*
G01X1207052Y69981D01*
G01X1207052Y144815D01*
G01X1215684Y136184D01*
G01X1224153Y129685D01*
G01X1234016Y125599D01*
G01X1244600Y124206D01*
G01X1277064Y124206D01*
G01X1286348Y116061D01*
G01X1297101Y109985D01*
G01X1308868Y106234D01*
G01X1321153Y104966D01*
G01X1466853Y104966D01*
G01X1481244Y106713D01*
G01X1494798Y111854D01*
G01X1506729Y120089D01*
G01X1516342Y130940D01*
G01X1523079Y143776D01*
G01X1526549Y157852D01*
G01X1526549Y172348D01*
G01X1523079Y186424D01*
G01X1516342Y199260D01*
G01X1506729Y210111D01*
G01X1494798Y218346D01*
G01X1481244Y223487D01*
G01X1466853Y225235D01*
G01X1321153Y225235D01*
G01X1308868Y223966D01*
G01X1297101Y220215D01*
G01X1286348Y214139D01*
G01X1277064Y205994D01*
G01X1261539Y205994D01*
G01X1237572Y229961D01*
G01X1237572Y312379D01*
G01X1236178Y322963D01*
G01X1232093Y332826D01*
G01X1225594Y341296D01*
G01X1155261Y411628D01*
G01X1248839Y505206D01*
G01X1277064Y505206D01*
G01X1286348Y497061D01*
G01X1297101Y490985D01*
G01X1308868Y487234D01*
G01X1321153Y485966D01*
G01X1466853Y485966D01*
G01X1480916Y487633D01*
G01X1494199Y492543D01*
G01X1505966Y500424D01*
G01X1505966Y464776D01*
G01X1494199Y472657D01*
G01X1480916Y477567D01*
G01X1466853Y479235D01*
G01X1321153Y479235D01*
G01X1306762Y477487D01*
G01X1293207Y472346D01*
G01X1281277Y464111D01*
G01X1271663Y453260D01*
G01X1264926Y440424D01*
G01X1261457Y426348D01*
G01X1261457Y411852D01*
G01X1264926Y397776D01*
G01X1271663Y384940D01*
G01X1281277Y374089D01*
G01X1293207Y365854D01*
G01X1306762Y360713D01*
G01X1321153Y358966D01*
G01X1466853Y358966D01*
G01X1481996Y360903D01*
G01X1496163Y366593D01*
G01X1508442Y375666D01*
G01X1524000Y375666D01*
G01X1535242Y377146D01*
G01X1545717Y381485D01*
G01X1554712Y388388D01*
G01X1580112Y413788D01*
G01X1587015Y422783D01*
G01X1591354Y433258D01*
G01X1592834Y444500D01*
G01X1592834Y553348D01*
G01X1775451Y553348D01*
G01X1775451Y538852D01*
G01X1778921Y524776D01*
G01X1785658Y511940D01*
G01X1795271Y501089D01*
G01X1807202Y492854D01*
G01X1820756Y487713D01*
G01X1835147Y485966D01*
G01X1835147Y485966D01*
G01X1980847Y485966D01*
G01X1995238Y487713D01*
G01X2008793Y492854D01*
G01X2020723Y501089D01*
G01X2030337Y511940D01*
G01X2037074Y524776D01*
G01X2040543Y538852D01*
G01X2040543Y553348D01*
G01X2037074Y567424D01*
G01X2030337Y580260D01*
G01X2020723Y591111D01*
G01X2008793Y599346D01*
G01X1995238Y604487D01*
G01X1980847Y606235D01*
G01X1835147Y606235D01*
G01X1820756Y604487D01*
G01X1807202Y599346D01*
G01X1795271Y591111D01*
G01X1785658Y580260D01*
G01X1778921Y567424D01*
G01X1775451Y553348D01*
G01X1592834Y553348D01*
G01X1592834Y563558D01*
G01X1591354Y574800D01*
G01X1587015Y585275D01*
G01X1580112Y594271D01*
G01X1526431Y647952D01*
G01X1517436Y654855D01*
G01X1506960Y659194D01*
G01X1495719Y660674D01*
G01X1495458Y660674D01*
G01X1499932Y669324D01*
G01X1501475Y678940D01*
G01X1501475Y970812D01*
G01X1499971Y980309D01*
G01X1495606Y988877D01*
G01X1488806Y995676D01*
G01X1480239Y1000041D01*
G01X1470741Y1001546D01*
G01X1162430Y1001546D01*
G01X1162430Y1072153D01*
G01X1160926Y1081650D01*
G01X1156560Y1090218D01*
G01X1149761Y1097017D01*
G01X1141193Y1101383D01*
G01X1131696Y1102887D01*
G01X1121154Y1102887D01*
G01X1121154Y1234315D01*
G01X1119650Y1243812D01*
G01X1115284Y1252380D01*
G01X1108485Y1259179D01*
G01X1099917Y1263545D01*
G01X1090420Y1265049D01*
G01X956089Y1265049D01*
G01X946484Y1263509D01*
G01X937841Y1259045D01*
G01X932374Y1260605D01*
G01X926714Y1261130D01*
G01X891713Y1261130D01*
G01X882215Y1259626D01*
G01X873648Y1255261D01*
G01X866848Y1248461D01*
G01X862483Y1239894D01*
G01X860979Y1230396D01*
G01X860979Y1167897D01*
G01X861718Y1161195D01*
G01X863902Y1154815D01*
G01X859509Y1142047D01*
G01X858292Y1128598D01*
G01X860321Y1115249D01*
G01X865480Y1102770D01*
G01X873470Y1091884D01*
G01X883828Y1083222D01*
G01X895955Y1077283D01*
G01X909149Y1074412D01*
G01X909066Y1072153D01*
G01X909066Y904703D01*
G01X911042Y893862D01*
G01X916714Y884415D01*
G01X925355Y877576D01*
G01X925355Y783811D01*
G01X926402Y775857D01*
G01X929472Y768444D01*
G01X934356Y762079D01*
G01X960958Y735478D01*
G01X917194Y735478D01*
G01X917194Y749242D01*
G01X915801Y759826D01*
G01X911715Y769689D01*
G01X905216Y778158D01*
G01X829950Y853425D01*
G01X821480Y859923D01*
G01X811618Y864009D01*
G01X801033Y865402D01*
G01X719365Y865402D01*
G01X708781Y864009D01*
G01X698918Y859923D01*
G01X690449Y853425D01*
G01X668861Y831838D01*
G01X625844Y831838D01*
G01X616020Y830640D01*
G01X606771Y827118D01*
G01X598640Y821477D01*
G01X598640Y884746D01*
G01X612340Y883733D01*
G01X625875Y886077D01*
G01X638436Y891639D01*
G01X649270Y900085D01*
G01X657728Y910909D01*
G01X663304Y923464D01*
G01X665664Y936997D01*
G01X664666Y950698D01*
G01X660370Y963746D01*
G01X653034Y975360D01*
G01X653034Y1015600D01*
G01X651554Y1026841D01*
G01X647215Y1037317D01*
G01X640312Y1046312D01*
G01X614657Y1071968D01*
G01X611374Y1086071D01*
G01X604593Y1098866D01*
G01X594764Y1109500D01*
G01X600524Y1107755D01*
G01X606513Y1107166D01*
G01X687160Y1107166D01*
G01X696657Y1108670D01*
G01X705225Y1113035D01*
G01X712024Y1119835D01*
G01X716390Y1128402D01*
G01X717894Y1137900D01*
G01X717894Y1224300D01*
G01X716390Y1233798D01*
G01X712024Y1242365D01*
G01X705225Y1249165D01*
G01X696657Y1253530D01*
G01X687160Y1255034D01*
G01X636054Y1255034D01*
G01X631523Y1259566D01*
G01X687160Y1259566D01*
G01X696657Y1261070D01*
G01X705225Y1265435D01*
G01X712024Y1272235D01*
G01X716390Y1280802D01*
G01X717894Y1290300D01*
G01X717894Y1376700D01*
G01X716390Y1386198D01*
G01X712024Y1394765D01*
G01X705225Y1401565D01*
G01X696657Y1405930D01*
G01X687160Y1407434D01*
G01X606513Y1407434D01*
G01X597015Y1405930D01*
G01X588448Y1401565D01*
G01X581648Y1394765D01*
G01X577283Y1386198D01*
G01X575779Y1376700D01*
G01X575779Y1315310D01*
G01X567221Y1323867D01*
G01X567221Y1376700D01*
G01X565717Y1386198D01*
G01X561352Y1394765D01*
G01X554552Y1401565D01*
G01X545985Y1405930D01*
G01X536487Y1407434D01*
G01X455840Y1407434D01*
G01X446343Y1405930D01*
G01X437775Y1401565D01*
G01X430976Y1394765D01*
G01X426610Y1386198D01*
G01X425106Y1376700D01*
G01X425106Y1290300D01*
G01X426610Y1280802D01*
G01X430976Y1272235D01*
G01X437775Y1265435D01*
G01X446343Y1261070D01*
G01X455840Y1259566D01*
G01X508673Y1259566D01*
G01X575779Y1192460D01*
G01X575779Y1137900D01*
G01X576828Y1129938D01*
G01X579904Y1122520D01*
G01X584796Y1116151D01*
G01X572085Y1120939D01*
G01X558596Y1122534D01*
G01X545119Y1120841D01*
G01X532443Y1115961D01*
G01X521310Y1108180D01*
G01X512372Y1097952D01*
G01X506153Y1085876D01*
G01X503016Y1072661D01*
G01X503146Y1059078D01*
G01X506534Y1045925D01*
G01X512982Y1033970D01*
G01X522113Y1023914D01*
G01X481719Y1023914D01*
G01X393460Y1112173D01*
G01X398557Y1118609D01*
G01X401768Y1126164D01*
G01X402864Y1134301D01*
G01X402864Y1155788D01*
G01X406958Y1168151D01*
G01X408343Y1181100D01*
G01X406958Y1194049D01*
G01X402864Y1206412D01*
G01X402864Y1224300D01*
G01X401360Y1233798D01*
G01X396995Y1242365D01*
G01X390195Y1249165D01*
G01X381628Y1253530D01*
G01X372130Y1255034D01*
G01X292130Y1255034D01*
G01X282633Y1253530D01*
G01X274065Y1249165D01*
G01X267266Y1242365D01*
G01X262901Y1233798D01*
G01X261396Y1224300D01*
G01X261396Y1134301D01*
G01X262901Y1124803D01*
G01X267266Y1116236D01*
G01X274065Y1109436D01*
G01X282633Y1105071D01*
G01X292130Y1103567D01*
G01X293068Y1103567D01*
G01X297117Y1094542D01*
G01X303214Y1086753D01*
G01X320373Y1069594D01*
G01X-59261Y1069594D01*
G01X-85242Y1095575D01*
G01X-85242Y1107171D01*
G01X-75882Y1108814D01*
G01X-67472Y1113238D01*
G01X-60815Y1120020D01*
G01X-56548Y1128511D01*
G01X-55079Y1137900D01*
G01X-55079Y1224300D01*
G01X-56583Y1233798D01*
G01X-60948Y1242365D01*
G01X-67748Y1249165D01*
G01X-76315Y1253530D01*
G01X-85813Y1255034D01*
G01X-166460Y1255034D01*
G01X-175957Y1253530D01*
G01X-184525Y1249165D01*
G01X-191324Y1242365D01*
G01X-195690Y1233798D01*
G01X-197194Y1224300D01*
G01X-197194Y1137900D01*
G01X-195725Y1128511D01*
G01X-191458Y1120020D01*
G01X-184801Y1113238D01*
G01X-176390Y1108814D01*
G01X-167030Y1107171D01*
G01X-167030Y1078636D01*
G01X-165637Y1068052D01*
G01X-161552Y1058189D01*
G01X-155053Y1049720D01*
G01X-132147Y1026815D01*
G01X-148118Y1026815D01*
G01X-152901Y1040920D01*
G01X-161225Y1053271D01*
G01X-172504Y1062998D01*
G01X-185944Y1069416D01*
G01X-200599Y1072074D01*
G01X-215437Y1070784D01*
G01X-229414Y1065637D01*
G01X-241545Y1056996D01*
G01X-250977Y1045469D01*
G01X-257045Y1031867D01*
G01X-259322Y1017148D01*
G01X-257649Y1002349D01*
G01X-252142Y988510D01*
G01X-243190Y976607D01*
G01X-252692Y965351D01*
G01X-258939Y952010D01*
G01X-261501Y937504D01*
G01X-260200Y922830D01*
G01X-255127Y909001D01*
G01X-246631Y896967D01*
G01X-235296Y887558D01*
G01X-221904Y881422D01*
G01X-207377Y878981D01*
G01X-192715Y880403D01*
G01X-178928Y885591D01*
G01X-166965Y894187D01*
G01X-131719Y894187D01*
G01X-121135Y895580D01*
G01X-111272Y899665D01*
G01X-102803Y906164D01*
G01X-94460Y914507D01*
G01X-38932Y914507D01*
G01X-39840Y905593D01*
G01X-39840Y893254D01*
G01X-53940Y894246D01*
G01X-67840Y891685D01*
G01X-80661Y885733D01*
G01X-91588Y876767D01*
G01X-99929Y865355D01*
G01X-105154Y852222D01*
G01X-106934Y838200D01*
G01X-105154Y824178D01*
G01X-99929Y811045D01*
G01X-91588Y799633D01*
G01X-80661Y790667D01*
G01X-67840Y784715D01*
G01X-53940Y782154D01*
G01X-39840Y783146D01*
G01X-39840Y782593D01*
G01X-37873Y769548D01*
G01X-32145Y757663D01*
G01X-38847Y746125D01*
G01X-42636Y733332D01*
G01X-43299Y720005D01*
G01X-40798Y706899D01*
G01X-35274Y694754D01*
G01X-27040Y684255D01*
G01X-16561Y675996D01*
G01X-4428Y670443D01*
G01X-5325Y659376D01*
G01X-4025Y648349D01*
G01X-581Y637794D01*
G01X-77164Y637794D01*
G01X-84093Y638340D01*
G01X-207093Y638340D01*
G01X-219381Y636599D01*
G01X-230701Y631513D01*
G01X-240164Y623482D01*
G01X-247023Y613139D01*
G01X-250738Y601297D01*
G01X-251018Y588890D01*
G01X-247840Y576893D01*
G01X-258063Y587004D01*
G01X-270519Y594186D01*
G01X-284391Y597968D01*
G01X-298768Y598103D01*
G01X-312709Y594580D01*
G01X-325297Y587632D01*
G01X-335707Y577714D01*
G01X-343256Y565477D01*
G01X-562316Y346416D01*
G01X-568815Y337947D01*
G01X-572901Y328084D01*
G01X-574294Y317500D01*
G01X-574294Y245539D01*
G01X-588439Y231394D01*
G01X-685800Y231394D01*
G01X-697679Y229631D01*
G01X-708533Y224493D01*
G01X-709307Y238467D01*
G01X-713513Y251815D01*
G01X-720891Y263708D01*
G01X-730982Y273406D01*
G01X-743157Y280306D01*
G01X-756662Y283980D01*
G01X-759365Y297023D01*
G01X-765065Y309062D01*
G01X-773441Y319419D01*
G01X-784021Y327511D01*
G01X-796211Y332882D01*
G01X-809322Y335230D01*
G01X-822618Y334422D01*
G01X-835349Y330505D01*
G01X-846798Y323698D01*
G01X-856322Y314386D01*
G01X-863383Y303091D01*
G01X-867584Y290451D01*
G01X-868689Y277177D01*
G01X-866635Y264016D01*
G01X-861538Y251710D01*
G01X-853685Y240951D01*
G01X-853685Y208411D01*
G01X-853485Y204375D01*
G01X-853485Y163742D01*
G01X-856806Y156079D01*
G01X-857941Y147804D01*
G01X-857941Y81304D01*
G01X-856437Y71807D01*
G01X-852071Y63239D01*
G01X-845272Y56440D01*
G01X-836704Y52074D01*
G01X-827207Y50570D01*
G01X-799206Y50570D01*
G01X-793609Y51084D01*
G01X-788200Y52608D01*
G01X-782791Y51084D01*
G01X-777194Y50570D01*
G01X-749193Y50570D01*
G01X-743604Y51083D01*
G01X-738200Y52603D01*
G01X-732797Y51083D01*
G01X-727207Y50570D01*
G01X-699206Y50570D01*
G01X-693610Y51084D01*
G01X-688200Y52608D01*
G01X-682791Y51084D01*
G01X-677194Y50570D01*
G01X-661443Y50570D01*
G01X-661443Y34793D01*
G01X-660930Y29203D01*
G01X-659409Y23800D01*
G01X-660930Y18396D01*
G01X-661443Y12807D01*
G01X-661443Y-15194D01*
G01X-660929Y-20791D01*
G01X-659405Y-26200D01*
G01X-660929Y-31609D01*
G01X-661443Y-37206D01*
G01X-661443Y-65207D01*
G01X-660930Y-70797D01*
G01X-659409Y-76200D01*
G01X-660930Y-81603D01*
G01X-661443Y-87193D01*
G01X-661443Y-115194D01*
G01X-660929Y-120791D01*
G01X-659405Y-126200D01*
G01X-660929Y-131609D01*
G01X-661443Y-137206D01*
G01X-661443Y-165207D01*
G01X-660930Y-170796D01*
G01X-659409Y-176200D01*
G01X-660930Y-181603D01*
G01X-661443Y-187193D01*
G01X-661443Y-215194D01*
G01X-659786Y-225149D01*
G01X-654994Y-234031D01*
G01X-647583Y-240881D01*
G01X-638353Y-244962D01*
G01X-638353Y-380441D01*
G01X-636959Y-391025D01*
G01X-632874Y-400888D01*
G01X-626375Y-409358D01*
G01X-510794Y-524939D01*
G01X-510794Y-622300D01*
G01X-509401Y-632884D01*
G01X-505315Y-642747D01*
G01X-498816Y-651216D01*
G01X-460716Y-689316D01*
G01X-450499Y-696768D01*
G01X-438494Y-700742D01*
G01X-438494Y-703600D01*
G01X-436990Y-713098D01*
G01X-432624Y-721665D01*
G01X-425825Y-728465D01*
G01X-417257Y-732830D01*
G01X-407760Y-734334D01*
G01X-327113Y-734334D01*
G01X-317615Y-732830D01*
G01X-309048Y-728465D01*
G01X-302248Y-721665D01*
G01X-297883Y-713098D01*
G01X-296379Y-703600D01*
G01X-296379Y-617200D01*
G01X-297883Y-607702D01*
G01X-302248Y-599135D01*
G01X-309048Y-592335D01*
G01X-317615Y-587970D01*
G01X-327113Y-586466D01*
G01X-407760Y-586466D01*
G01X-415495Y-587455D01*
G01X-422733Y-590359D01*
G01X-429006Y-594992D01*
G01X-429006Y-573408D01*
G01X-422733Y-578041D01*
G01X-415495Y-580945D01*
G01X-407760Y-581934D01*
G01X-327113Y-581934D01*
G01X-317615Y-580430D01*
G01X-309048Y-576065D01*
G01X-302248Y-569265D01*
G01X-297883Y-560698D01*
G01X-296379Y-551200D01*
G01X-296379Y-464800D01*
G01X-297848Y-455411D01*
G01X-302115Y-446920D01*
G01X-308772Y-440138D01*
G01X-317182Y-435714D01*
G01X-326542Y-434071D01*
G01X-326542Y-429529D01*
G01X-317182Y-427886D01*
G01X-308772Y-423462D01*
G01X-302115Y-416680D01*
G01X-297848Y-408189D01*
G01X-296379Y-398800D01*
G01X-296379Y-312400D01*
G01X-296757Y-307594D01*
G01X-287443Y-307594D01*
G01X-287821Y-312400D01*
G01X-287821Y-398800D01*
G01X-286317Y-408298D01*
G01X-281952Y-416865D01*
G01X-275152Y-423665D01*
G01X-266585Y-428030D01*
G01X-257087Y-429534D01*
G01X-176440Y-429534D01*
G01X-166234Y-427790D01*
G01X-157187Y-422757D01*
G01X-150324Y-415004D01*
G01X-137561Y-410270D01*
G01X-126160Y-402831D01*
G01X-116684Y-393057D01*
G01X-109603Y-381431D01*
G01X-105266Y-368527D01*
G01X-103889Y-354984D01*
G01X-105539Y-341471D01*
G01X-110134Y-328657D01*
G01X-117448Y-317175D01*
G01X-127119Y-307594D01*
G01X28626Y-307594D01*
G01X28626Y-395609D01*
G01X30130Y-405106D01*
G01X34495Y-413674D01*
G01X41295Y-420473D01*
G01X49862Y-424838D01*
G01X59360Y-426343D01*
G01X139360Y-426343D01*
G01X148857Y-424838D01*
G01X157425Y-420473D01*
G01X164224Y-413674D01*
G01X168589Y-405106D01*
G01X170094Y-395609D01*
G01X170094Y-307594D01*
G01X204219Y-307594D01*
G01X204219Y-395609D01*
G01X205723Y-405106D01*
G01X210088Y-413674D01*
G01X216888Y-420473D01*
G01X225455Y-424838D01*
G01X234953Y-426343D01*
G01X314952Y-426343D01*
G01X324450Y-424838D01*
G01X333017Y-420473D01*
G01X339817Y-413674D01*
G01X344182Y-405106D01*
G01X345686Y-395609D01*
G01X345686Y-305609D01*
G01X344386Y-296762D01*
G01X340594Y-288665D01*
G01X334632Y-282001D01*
G01X433310Y-183323D01*
G01X436207Y-180102D01*
G01X448386Y-182810D01*
G01X460863Y-182761D01*
G01X473020Y-179958D01*
G01X484258Y-174538D01*
G01X494022Y-166770D01*
G01X492506Y-177800D01*
G01X492506Y-828569D01*
G01X493899Y-839153D01*
G01X497985Y-849016D01*
G01X504484Y-857486D01*
G01X624194Y-977196D01*
G01X630452Y-982322D01*
G01X637597Y-986117D01*
G01X666863Y-1015383D01*
G01X661400Y-1020846D01*
G01X655748Y-1028625D01*
G01X652777Y-1037771D01*
G01X652777Y-1047386D01*
G01X655748Y-1056531D01*
G01X661400Y-1064311D01*
G01X781608Y-1184519D01*
G01X789387Y-1190171D01*
G01X798533Y-1193142D01*
G01X808148Y-1193142D01*
G01X817293Y-1190171D01*
G01X825073Y-1184519D01*
G01X867499Y-1142092D01*
G01X873151Y-1134313D01*
G01X876122Y-1125168D01*
G01X876122Y-1115552D01*
G01X873151Y-1106407D01*
G01X867499Y-1098628D01*
G01X747291Y-978420D01*
G01X740367Y-973221D01*
G01X686509Y-919363D01*
G01X680251Y-914236D01*
G01X673105Y-910442D01*
G01X574294Y-811630D01*
G01X574294Y-772325D01*
G01X743509Y-941540D01*
G01X741010Y-950456D01*
G01X741282Y-959712D01*
G01X744297Y-968467D01*
G01X749784Y-975927D01*
G01X869992Y-1096135D01*
G01X877771Y-1101787D01*
G01X886916Y-1104758D01*
G01X896532Y-1104758D01*
G01X905677Y-1101787D01*
G01X913456Y-1096135D01*
G01X955883Y-1053709D01*
G01X961535Y-1045929D01*
G01X964506Y-1036784D01*
G01X964506Y-1027168D01*
G01X961535Y-1018023D01*
G01X955883Y-1010244D01*
G01X835675Y-890036D01*
G01X828233Y-884559D01*
G01X819500Y-881541D01*
G01X810265Y-881255D01*
G01X801362Y-883727D01*
G01X683342Y-765708D01*
G01X697196Y-770791D01*
G01X711864Y-772410D01*
G01X726494Y-770473D01*
G01X740234Y-765090D01*
G01X830877Y-855733D01*
G01X829228Y-864142D01*
G01X829965Y-872679D01*
G01X833030Y-880681D01*
G01X838186Y-887525D01*
G01X958393Y-1007733D01*
G01X966173Y-1013385D01*
G01X975318Y-1016357D01*
G01X984934Y-1016357D01*
G01X994079Y-1013385D01*
G01X1001858Y-1007733D01*
G01X1044284Y-965307D01*
G01X1049936Y-957528D01*
G01X1052908Y-948383D01*
G01X1052908Y-942293D01*
G01X1144235Y-942293D01*
G01X1144235Y-951909D01*
G01X1147206Y-961054D01*
G01X1152858Y-968833D01*
G01X1350848Y-1166823D01*
G01X1350848Y-1166823D01*
G01X1358627Y-1172475D01*
G01X1367772Y-1175446D01*
G01X1377388Y-1175446D01*
G01X1386533Y-1172475D01*
G01X1394312Y-1166823D01*
G01X1465023Y-1096112D01*
G01X1470675Y-1088333D01*
G01X1473646Y-1079188D01*
G01X1473646Y-1069572D01*
G01X1470675Y-1060427D01*
G01X1465023Y-1052648D01*
G01X1267033Y-854658D01*
G01X1259254Y-849006D01*
G01X1250109Y-846035D01*
G01X1240493Y-846035D01*
G01X1231348Y-849006D01*
G01X1223569Y-854658D01*
G01X1152858Y-925369D01*
G01X1147206Y-933148D01*
G01X1144235Y-942293D01*
G01X1052908Y-942293D01*
G01X1052908Y-938767D01*
G01X1049936Y-929622D01*
G01X1044284Y-921842D01*
G01X924076Y-801635D01*
G01X917238Y-796483D01*
G01X909244Y-793417D01*
G01X900714Y-792676D01*
G01X892311Y-794317D01*
G01X837388Y-739394D01*
G01X1710261Y-739394D01*
G01X1790994Y-820126D01*
G01X1787906Y-827556D01*
G01X1786853Y-835533D01*
G01X1786853Y-921934D01*
G01X1788357Y-931431D01*
G01X1792723Y-939999D01*
G01X1799522Y-946798D01*
G01X1808090Y-951163D01*
G01X1817587Y-952668D01*
G01X1898235Y-952668D01*
G01X1907732Y-951163D01*
G01X1916300Y-946798D01*
G01X1923099Y-939999D01*
G01X1927464Y-931431D01*
G01X1928969Y-921934D01*
G01X1928969Y-917194D01*
G01X1949106Y-917194D01*
G01X1949106Y-919500D01*
G01X1950610Y-928998D01*
G01X1954976Y-937565D01*
G01X1961775Y-944365D01*
G01X1970343Y-948730D01*
G01X1979840Y-950234D01*
G01X2060487Y-950234D01*
G01X2070359Y-948606D01*
G01X2079185Y-943893D01*
G01X2086029Y-936595D01*
G01X2090166Y-927485D01*
G01X2090166Y-981946D01*
G01X2091670Y-991444D01*
G01X2096036Y-1000011D01*
G01X2102835Y-1006811D01*
G01X2111403Y-1011176D01*
G01X2120900Y-1012680D01*
G01X2493921Y-1012680D01*
G01X2482449Y-1027150D01*
G01X2468772Y-1039556D01*
G01X2453256Y-1049568D01*
G01X2436315Y-1056916D01*
G01X2418404Y-1061405D01*
G01X2400000Y-1062915D01*
G01X2222701Y-1062916D01*
G01X2221464Y-1062937D01*
G01X2211463Y-1064669D01*
G01X2202303Y-1069042D01*
G01X2194667Y-1075729D01*
G01X2189124Y-1084233D01*
G01X2189124Y-1084233D01*
G01X2150921Y-1158174D01*
G01X2110220Y-1230771D01*
G01X2067071Y-1301940D01*
G01X2067071Y-1301940D01*
G01X2047026Y-1318499D01*
G01X2024905Y-1332161D01*
G01X2001123Y-1342670D01*
G01X1976127Y-1349827D01*
G01X1950388Y-1353499D01*
G01X1924388Y-1353615D01*
G01X1898616Y-1350175D01*
G01X1873558Y-1343242D01*
G01X1849682Y-1332948D01*
G01X1827439Y-1319485D01*
G01X1807247Y-1303106D01*
G01X1779862Y-1278536D01*
G01X1750062Y-1256960D01*
G01X1718171Y-1238613D01*
G01X1684540Y-1223696D01*
G01X1649535Y-1212371D01*
G01X1613539Y-1204764D01*
G01X1576945Y-1200956D01*
G01X1540154Y-1200990D01*
G01X1503567Y-1204864D01*
G01X1467585Y-1212538D01*
G01X1432600Y-1223926D01*
G01X1398996Y-1238905D01*
G01X1367140Y-1257310D01*
G01X1337379Y-1278941D01*
G01X1310039Y-1303561D01*
G01X1285419Y-1330901D01*
G01X1263788Y-1360661D01*
G01X1245383Y-1392518D01*
G01X1230404Y-1426122D01*
G01X1219016Y-1461107D01*
G01X1211342Y-1497089D01*
G01X1207468Y-1533675D01*
G01X1207434Y-1570467D01*
G01X1211242Y-1607061D01*
G01X1218849Y-1643057D01*
G01X1230174Y-1678062D01*
G01X1245091Y-1711693D01*
G01X1263438Y-1743584D01*
G01X1285014Y-1773384D01*
G01X1309584Y-1800769D01*
G01X1325383Y-1820142D01*
G01X1338497Y-1841425D01*
G01X1348698Y-1864248D01*
G01X1355809Y-1888214D01*
G01X1359706Y-1912907D01*
G01X1360321Y-1937898D01*
G01X1357644Y-1962753D01*
G01X-1352184Y-1962753D01*
G01X-1353992Y-1938757D01*
G01X-1352746Y-1914726D01*
G01X-1348468Y-1891045D01*
G01X-1341225Y-1868097D01*
G01X-1331135Y-1846251D01*
G01X-1318360Y-1825858D01*
G01X-1303106Y-1807247D01*
G01X-1278536Y-1779862D01*
G01X-1256960Y-1750062D01*
G01X-1238613Y-1718171D01*
G01X-1223696Y-1684540D01*
G01X-1212371Y-1649535D01*
G01X-1204764Y-1613539D01*
G01X-1200956Y-1576945D01*
G01X-1200989Y-1540153D01*
G01X-1204864Y-1503567D01*
G01X-1212538Y-1467585D01*
G01X-1223926Y-1432600D01*
G01X-1238905Y-1398996D01*
G01X-1257310Y-1367139D01*
G01X-1278941Y-1337379D01*
G01X-1303561Y-1310039D01*
G01X-1323942Y-1291685D01*
G01X-1008511Y-1291685D01*
G01X-1007681Y-1305700D01*
G01X-1003399Y-1319070D01*
G01X-995934Y-1330960D01*
G01X-995934Y-1473200D01*
G01X-995934Y-1473200D01*
G01X-994454Y-1484442D01*
G01X-990115Y-1494917D01*
G01X-983212Y-1503912D01*
G01X-946978Y-1540147D01*
G01X-938781Y-1546577D01*
G01X-929289Y-1550870D01*
G01X-919048Y-1552779D01*
G01X-916855Y-1561526D01*
G01X-912217Y-1569260D01*
G01X-905535Y-1575314D01*
G01X-897383Y-1579169D01*
G01X-888463Y-1580492D01*
G01X-802062Y-1580492D01*
G01X-793159Y-1579174D01*
G01X-785020Y-1575334D01*
G01X-778342Y-1569301D01*
G01X-773698Y-1561592D01*
G01X-771486Y-1552868D01*
G01X-760444Y-1552868D01*
G01X-758232Y-1561592D01*
G01X-753588Y-1569301D01*
G01X-746910Y-1575334D01*
G01X-738771Y-1579174D01*
G01X-729868Y-1580492D01*
G01X-643467Y-1580492D01*
G01X-634564Y-1579174D01*
G01X-626425Y-1575334D01*
G01X-619747Y-1569301D01*
G01X-615103Y-1561592D01*
G01X-612891Y-1552868D01*
G01X-582430Y-1552868D01*
G01X-583096Y-1559232D01*
G01X-583096Y-1669232D01*
G01X-581592Y-1678729D01*
G01X-577227Y-1687297D01*
G01X-570427Y-1694096D01*
G01X-561860Y-1698462D01*
G01X-552362Y-1699966D01*
G01X-452363Y-1699966D01*
G01X-442865Y-1698462D01*
G01X-434298Y-1694096D01*
G01X-427498Y-1687297D01*
G01X-423133Y-1678729D01*
G01X-421629Y-1669232D01*
G01X-421629Y-1559232D01*
G01X-423133Y-1549735D01*
G01X-427498Y-1541167D01*
G01X-434298Y-1534368D01*
G01X-442865Y-1530003D01*
G01X-452363Y-1528498D01*
G01X-458943Y-1528498D01*
G01X-460611Y-1517664D01*
G01X-464939Y-1507592D01*
G01X-471650Y-1498925D01*
G01X-491853Y-1478722D01*
G01X-500849Y-1471819D01*
G01X-511324Y-1467480D01*
G01X-522566Y-1466000D01*
G01X-612891Y-1466000D01*
G01X-615103Y-1457277D01*
G01X-615891Y-1455969D01*
G01X-138955Y-1455969D01*
G01X-138955Y-1536616D01*
G01X-137450Y-1546114D01*
G01X-133085Y-1554681D01*
G01X-126286Y-1561481D01*
G01X-117718Y-1565846D01*
G01X-108221Y-1567350D01*
G01X-107923Y-1567350D01*
G01X-105575Y-1576130D01*
G01X-101451Y-1584229D01*
G01X-95733Y-1591292D01*
G01X-55328Y-1631697D01*
G01X-46332Y-1638600D01*
G01X-35857Y-1642939D01*
G01X-24615Y-1644419D01*
G01X39646Y-1644419D01*
G01X39646Y-1655985D01*
G01X41150Y-1665482D01*
G01X45515Y-1674050D01*
G01X52315Y-1680849D01*
G01X60882Y-1685215D01*
G01X70380Y-1686719D01*
G01X170379Y-1686719D01*
G01X179877Y-1685215D01*
G01X188444Y-1680849D01*
G01X195244Y-1674050D01*
G01X199609Y-1665482D01*
G01X201113Y-1655985D01*
G01X201113Y-1545985D01*
G01X200858Y-1542034D01*
G01X231124Y-1542034D01*
G01X234454Y-1552471D01*
G01X241233Y-1561077D01*
G01X250601Y-1566759D01*
G01X261366Y-1568793D01*
G01X261366Y-1628140D01*
G01X253901Y-1640030D01*
G01X249619Y-1653400D01*
G01X248789Y-1667415D01*
G01X251463Y-1681198D01*
G01X257473Y-1693886D01*
G01X266443Y-1704685D01*
G01X277813Y-1712921D01*
G01X290871Y-1718078D01*
G01X304800Y-1719834D01*
G01X318729Y-1718078D01*
G01X331787Y-1712921D01*
G01X343157Y-1704685D01*
G01X352127Y-1693886D01*
G01X358137Y-1681198D01*
G01X360811Y-1667415D01*
G01X359981Y-1653400D01*
G01X355699Y-1640030D01*
G01X348234Y-1628140D01*
G01X348234Y-1568793D01*
G01X357675Y-1567232D01*
G01X366179Y-1562842D01*
G01X372919Y-1556049D01*
G01X377244Y-1547513D01*
G01X378734Y-1538060D01*
G01X378734Y-1469093D01*
G01X617435Y-1469093D01*
G01X617435Y-1478709D01*
G01X620406Y-1487854D01*
G01X626058Y-1495633D01*
G01X824048Y-1693623D01*
G01X824048Y-1693623D01*
G01X831827Y-1699275D01*
G01X840972Y-1702246D01*
G01X850588Y-1702246D01*
G01X859733Y-1699275D01*
G01X867512Y-1693623D01*
G01X938223Y-1622912D01*
G01X943875Y-1615133D01*
G01X946846Y-1605988D01*
G01X946846Y-1596372D01*
G01X943875Y-1587227D01*
G01X938223Y-1579448D01*
G01X740233Y-1381458D01*
G01X732454Y-1375806D01*
G01X723309Y-1372835D01*
G01X713693Y-1372835D01*
G01X704548Y-1375806D01*
G01X696769Y-1381458D01*
G01X626058Y-1452169D01*
G01X620406Y-1459948D01*
G01X617435Y-1469093D01*
G01X378734Y-1469093D01*
G01X378734Y-1457413D01*
G01X377230Y-1447915D01*
G01X372865Y-1439348D01*
G01X366065Y-1432548D01*
G01X357498Y-1428183D01*
G01X348000Y-1426679D01*
G01X261600Y-1426679D01*
G01X252531Y-1428047D01*
G01X244270Y-1432030D01*
G01X237552Y-1438274D01*
G01X232976Y-1446222D01*
G01X230948Y-1455166D01*
G01X152400Y-1455166D01*
G01X141158Y-1456646D01*
G01X130683Y-1460985D01*
G01X121688Y-1467888D01*
G01X89667Y-1499908D01*
G01X89667Y-1499908D01*
G01X83896Y-1507053D01*
G01X79756Y-1515251D01*
G01X70380Y-1515251D01*
G01X60882Y-1516755D01*
G01X52315Y-1521121D01*
G01X45515Y-1527920D01*
G01X41150Y-1536488D01*
G01X39646Y-1545985D01*
G01X39646Y-1557551D01*
G01X682Y-1557551D01*
G01X5158Y-1551339D01*
G01X7960Y-1544213D01*
G01X8914Y-1536616D01*
G01X8914Y-1455969D01*
G01X7410Y-1446471D01*
G01X3044Y-1437904D01*
G01X-3755Y-1431104D01*
G01X-12323Y-1426739D01*
G01X-21820Y-1425235D01*
G01X-108221Y-1425235D01*
G01X-117718Y-1426739D01*
G01X-126286Y-1431104D01*
G01X-133085Y-1437904D01*
G01X-137450Y-1446471D01*
G01X-138955Y-1455969D01*
G01X-615891Y-1455969D01*
G01X-619747Y-1449568D01*
G01X-626425Y-1443534D01*
G01X-634564Y-1439694D01*
G01X-643467Y-1438377D01*
G01X-729868Y-1438377D01*
G01X-738771Y-1439694D01*
G01X-746910Y-1443534D01*
G01X-753588Y-1449568D01*
G01X-758232Y-1457277D01*
G01X-760444Y-1466000D01*
G01X-771486Y-1466000D01*
G01X-773698Y-1457277D01*
G01X-778342Y-1449568D01*
G01X-785020Y-1443534D01*
G01X-793159Y-1439694D01*
G01X-802062Y-1438377D01*
G01X-888463Y-1438377D01*
G01X-895915Y-1439294D01*
G01X-902922Y-1441990D01*
G01X-909066Y-1446305D01*
G01X-909066Y-1330960D01*
G01X-901601Y-1319070D01*
G01X-897319Y-1305700D01*
G01X-896489Y-1291685D01*
G01X-899163Y-1277902D01*
G01X-905173Y-1265214D01*
G01X-914143Y-1254415D01*
G01X-925513Y-1246179D01*
G01X-938571Y-1241022D01*
G01X-952500Y-1239266D01*
G01X-966429Y-1241022D01*
G01X-979487Y-1246179D01*
G01X-990857Y-1254415D01*
G01X-999827Y-1265214D01*
G01X-1005837Y-1277902D01*
G01X-1008511Y-1291685D01*
G01X-1323942Y-1291685D01*
G01X-1330901Y-1285419D01*
G01X-1360661Y-1263788D01*
G01X-1392518Y-1245383D01*
G01X-1426122Y-1230404D01*
G01X-1461106Y-1219016D01*
G01X-1497089Y-1211342D01*
G01X-1533675Y-1207467D01*
G01X-1570467Y-1207434D01*
G01X-1607060Y-1211241D01*
G01X-1643057Y-1218849D01*
G01X-1678062Y-1230173D01*
G01X-1711693Y-1245091D01*
G01X-1743584Y-1263438D01*
G01X-1773384Y-1285014D01*
G01X-1800769Y-1309584D01*
G01X-1800769Y-1309584D01*
G01X-1821457Y-1326310D01*
G01X-1844281Y-1339976D01*
G01X-1868794Y-1350315D01*
G01X-1894512Y-1357121D01*
G01X-1920929Y-1360263D01*
G01X-1947526Y-1359677D01*
G01X-1973779Y-1355375D01*
G01X-1999173Y-1347442D01*
G01X-2023206Y-1336034D01*
G01X-2045407Y-1321376D01*
G01X-2065338Y-1303755D01*
G01X-2113342Y-1224413D01*
G01X-2158299Y-1143305D01*
G01X-2200144Y-1060549D01*
G01X-2238818Y-976265D01*
G01X-2274265Y-890572D01*
G01X-2306433Y-803597D01*
G01X-2335276Y-715462D01*
G01X-2335276Y-715462D01*
G01X-2335276Y-279085D01*
G01X-1948434Y-279085D01*
G01X-1948434Y-379085D01*
G01X-1946930Y-388582D01*
G01X-1942564Y-397150D01*
G01X-1935765Y-403949D01*
G01X-1927197Y-408315D01*
G01X-1917700Y-409819D01*
G01X-1906134Y-409819D01*
G01X-1906134Y-486800D01*
G01X-1904654Y-498041D01*
G01X-1900315Y-508517D01*
G01X-1893413Y-517512D01*
G01X-1865708Y-545217D01*
G01X-1858748Y-550868D01*
G01X-1850777Y-554970D01*
G01X-1842134Y-557348D01*
G01X-1842134Y-557705D01*
G01X-1840816Y-566608D01*
G01X-1836976Y-574747D01*
G01X-1830943Y-581426D01*
G01X-1823234Y-586070D01*
G01X-1814510Y-588281D01*
G01X-1814510Y-599323D01*
G01X-1823234Y-601535D01*
G01X-1830943Y-606179D01*
G01X-1836976Y-612857D01*
G01X-1840816Y-620997D01*
G01X-1842134Y-629900D01*
G01X-1842134Y-716300D01*
G01X-1840630Y-725798D01*
G01X-1836264Y-734365D01*
G01X-1829465Y-741165D01*
G01X-1820897Y-745530D01*
G01X-1811400Y-747034D01*
G01X-1730752Y-747034D01*
G01X-1721255Y-745530D01*
G01X-1712687Y-741165D01*
G01X-1705888Y-734365D01*
G01X-1701522Y-725798D01*
G01X-1700018Y-716300D01*
G01X-1700018Y-629900D01*
G01X-1691461Y-629900D01*
G01X-1691461Y-716300D01*
G01X-1689957Y-725798D01*
G01X-1685591Y-734365D01*
G01X-1678792Y-741165D01*
G01X-1670224Y-745530D01*
G01X-1660727Y-747034D01*
G01X-1580079Y-747034D01*
G01X-1570627Y-745544D01*
G01X-1562090Y-741219D01*
G01X-1555298Y-734479D01*
G01X-1550908Y-725975D01*
G01X-1549346Y-716534D01*
G01X-1447800Y-716534D01*
G01X-1436558Y-715054D01*
G01X-1426083Y-710715D01*
G01X-1417088Y-703812D01*
G01X-1396048Y-682773D01*
G01X-1389145Y-673777D01*
G01X-1384806Y-663302D01*
G01X-1383326Y-652060D01*
G01X-1383326Y-638554D01*
G01X-1375849Y-625626D01*
G01X-1372045Y-611183D01*
G01X-1372184Y-596249D01*
G01X-1376257Y-581880D01*
G01X-1383974Y-569094D01*
G01X-1394790Y-558795D01*
G01X-1407938Y-551712D01*
G01X-1422489Y-548348D01*
G01X-1437412Y-548939D01*
G01X-1451651Y-553445D01*
G01X-1464198Y-561546D01*
G01X-1474165Y-572668D01*
G01X-1480846Y-586025D01*
G01X-1483768Y-600672D01*
G01X-1482725Y-615570D01*
G01X-1477790Y-629666D01*
G01X-1549346Y-629666D01*
G01X-1550908Y-620225D01*
G01X-1555298Y-611721D01*
G01X-1562090Y-604981D01*
G01X-1570627Y-600656D01*
G01X-1580079Y-599166D01*
G01X-1580079Y-599166D01*
G01X-1660727Y-599166D01*
G01X-1670224Y-600670D01*
G01X-1678792Y-605035D01*
G01X-1685591Y-611835D01*
G01X-1689957Y-620402D01*
G01X-1691461Y-629900D01*
G01X-1700018Y-629900D01*
G01X-1701336Y-620997D01*
G01X-1705176Y-612857D01*
G01X-1711209Y-606179D01*
G01X-1718918Y-601535D01*
G01X-1727642Y-599323D01*
G01X-1727642Y-588281D01*
G01X-1718918Y-586070D01*
G01X-1711209Y-581426D01*
G01X-1705176Y-574747D01*
G01X-1701336Y-566608D01*
G01X-1700018Y-557705D01*
G01X-1700018Y-471305D01*
G01X-1701522Y-461807D01*
G01X-1705888Y-453240D01*
G01X-1712687Y-446440D01*
G01X-1721255Y-442075D01*
G01X-1730752Y-440571D01*
G01X-1811400Y-440571D01*
G01X-1819266Y-441594D01*
G01X-1819266Y-409819D01*
G01X-1807700Y-409819D01*
G01X-1798203Y-408315D01*
G01X-1789635Y-403949D01*
G01X-1782836Y-397150D01*
G01X-1778470Y-388582D01*
G01X-1776966Y-379085D01*
G01X-1776966Y-279085D01*
G01X-1778418Y-269750D01*
G01X-1782637Y-261296D01*
G01X-1789225Y-254524D01*
G01X-1797558Y-250073D01*
G01X-1806850Y-248363D01*
G01X-1809886Y-234983D01*
G01X-1816077Y-222738D01*
G01X-1825053Y-212362D01*
G01X-1836279Y-204473D01*
G01X-1849083Y-199543D01*
G01X-1862700Y-197866D01*
G01X-1876318Y-199543D01*
G01X-1889122Y-204473D01*
G01X-1900347Y-212362D01*
G01X-1909323Y-222738D01*
G01X-1915515Y-234983D01*
G01X-1918550Y-248363D01*
G01X-1927842Y-250073D01*
G01X-1936175Y-254524D01*
G01X-1942763Y-261296D01*
G01X-1946982Y-269750D01*
G01X-1948434Y-279085D01*
G01X-1948434Y-279085D01*
G01X-2335276Y-279085D01*
G01X-2335276Y716551D01*
G01X-2306523Y804306D01*
G01X-2274475Y890911D01*
G01X-2239176Y976243D01*
G01X-2200676Y1060180D01*
G01X-2159032Y1142602D01*
G01X-2114302Y1223391D01*
G01X-2066550Y1302432D01*
G01X-2046496Y1318878D01*
G01X-2024386Y1332434D01*
G01X-2000633Y1342847D01*
G01X-1975681Y1349922D01*
G01X-1949998Y1353527D01*
G01X-1924063Y1353594D01*
G01X-1898361Y1350123D01*
G01X-1873373Y1343178D01*
G01X-1849566Y1332888D01*
G01X-1827386Y1319448D01*
G01X-1807246Y1303106D01*
G37*
G36*
G01X-1340866Y635000D02*
G01X-1342346Y646242D01*
G01X-1346685Y656717D01*
G01X-1353588Y665712D01*
G01X-1384625Y696750D01*
G01X-1391964Y702646D01*
G01X-1400401Y706823D01*
G01X-1409540Y709083D01*
G01X-1410839Y718013D01*
G01X-1414669Y726184D01*
G01X-1420703Y732894D01*
G01X-1428422Y737569D01*
G01X-1437164Y739807D01*
G01X-1437164Y770166D01*
G01X-1333605Y770166D01*
G01X-1324108Y771670D01*
G01X-1315540Y776036D01*
G01X-1308741Y782835D01*
G01X-1304376Y791403D01*
G01X-1302871Y800900D01*
G01X-1302871Y851339D01*
G01X-1161007Y709475D01*
G01X-1158898Y695864D01*
G01X-1153539Y683177D01*
G01X-1145251Y672176D01*
G01X-1134534Y663525D01*
G01X-1122032Y657744D01*
G01X-1294515Y485262D01*
G01X-1301417Y476266D01*
G01X-1305756Y465791D01*
G01X-1307236Y454549D01*
G01X-1307236Y452039D01*
G01X-1308802Y452039D01*
G01X-1318300Y450534D01*
G01X-1326867Y446169D01*
G01X-1333667Y439370D01*
G01X-1338032Y430802D01*
G01X-1339536Y421305D01*
G01X-1339536Y341305D01*
G01X-1337797Y331112D01*
G01X-1332776Y322073D01*
G01X-1325041Y315211D01*
G01X-1315468Y311302D01*
G01X-1325041Y307394D01*
G01X-1332776Y300532D01*
G01X-1337797Y291493D01*
G01X-1339536Y281300D01*
G01X-1339536Y201300D01*
G01X-1338032Y191803D01*
G01X-1333667Y183235D01*
G01X-1326867Y176436D01*
G01X-1318300Y172070D01*
G01X-1308802Y170566D01*
G01X-1307236Y170566D01*
G01X-1307236Y108102D01*
G01X-1305870Y97295D01*
G01X-1340866Y132291D01*
G01X-1340866Y635000D01*
G37*
G36*
G01X-1006627Y650299D02*
G01X-1006627Y563346D01*
G01X-1020520Y563952D01*
G01X-1034135Y561124D01*
G01X-1046638Y555036D01*
G01X-1057260Y546061D01*
G01X-1065350Y534751D01*
G01X-1070412Y521799D01*
G01X-1072134Y508000D01*
G01X-1070412Y494201D01*
G01X-1065350Y481249D01*
G01X-1057260Y469939D01*
G01X-1046638Y460964D01*
G01X-1034135Y454876D01*
G01X-1020520Y452048D01*
G01X-1006627Y452654D01*
G01X-1006627Y331452D01*
G01X-1087192Y412017D01*
G01X-1096188Y418920D01*
G01X-1106663Y423259D01*
G01X-1117905Y424739D01*
G01X-1188261Y424739D01*
G01X-1191386Y435193D01*
G01X-1197966Y443897D01*
G01X-1207173Y449754D01*
G01X-1006627Y650299D01*
G37*
G36*
G01X-426658Y-135475D02*
G01X-428625Y-122370D01*
G01X-423262Y-117856D01*
G01X-325402Y-19997D01*
G01X-315815Y-29765D01*
G01X-304150Y-36923D01*
G01X-291098Y-41045D01*
G01X-277437Y-41886D01*
G01X-263979Y-39396D01*
G01X-251523Y-33723D01*
G01X-240811Y-25205D01*
G01X-232478Y-14347D01*
G01X-227021Y-1795D01*
G01X-224763Y11704D01*
G01X-225840Y25349D01*
G01X-230186Y38327D01*
G01X-237545Y49868D01*
G01X-247477Y59284D01*
G01X-242687Y69831D01*
G01X-241046Y81298D01*
G01X-241046Y115743D01*
G01X-231459Y107176D01*
G01X-219813Y101729D01*
G01X-207093Y99860D01*
G01X-91694Y99860D01*
G01X-91694Y4239D01*
G01X-217625Y-121693D01*
G01X-232274Y-124107D01*
G01X-245778Y-130278D01*
G01X-257191Y-139773D01*
G01X-265716Y-151928D01*
G01X-270757Y-165893D01*
G01X-271960Y-180691D01*
G01X-269241Y-195286D01*
G01X-366846Y-195286D01*
G01X-426658Y-135475D01*
G37*
G36*
G01X199801Y314706D02*
G01X266346Y314706D01*
G01X277127Y306761D01*
G01X289483Y301596D01*
G01X302711Y299505D01*
G01X316058Y300606D01*
G01X328764Y304838D01*
G01X340106Y311959D01*
G01X340106Y233801D01*
G01X340106Y233547D01*
G01X325686Y234245D01*
G01X311566Y231239D01*
G01X298680Y224729D01*
G01X287883Y215145D01*
G01X279889Y203123D01*
G01X275229Y189458D01*
G01X274227Y175045D01*
G01X276936Y160854D01*
G01X283178Y147824D01*
G01X292539Y136818D01*
G01X304399Y128567D01*
G01X317972Y123616D01*
G01X318002Y109817D01*
G01X321399Y96442D01*
G01X309418Y99555D01*
G01X297043Y99226D01*
G01X285244Y95481D01*
G01X274945Y88614D01*
G01X266952Y79161D01*
G01X261892Y67864D01*
G01X260160Y55607D01*
G01X260160Y-67393D01*
G01X261003Y-75987D01*
G01X263500Y-84255D01*
G01X263500Y-96872D01*
G01X255010Y-108126D01*
G01X249593Y-121141D01*
G01X247589Y-135095D01*
G01X245288Y-134324D01*
G01X245288Y-84255D01*
G01X247785Y-75987D01*
G01X248628Y-67393D01*
G01X248628Y55607D01*
G01X247009Y67466D01*
G01X242270Y78456D01*
G01X234758Y87774D01*
G01X225022Y94736D01*
G01X213777Y98834D01*
G01X201845Y99768D01*
G01X190099Y97468D01*
G01X179400Y92103D01*
G01X167485Y97863D01*
G01X154399Y99841D01*
G01X141314Y97859D01*
G01X129400Y92094D01*
G01X118701Y97463D01*
G01X106954Y99767D01*
G01X95020Y98836D01*
G01X83772Y94740D01*
G01X74034Y87778D01*
G01X66520Y78459D01*
G01X61780Y67467D01*
G01X60160Y55607D01*
G01X60160Y-67393D01*
G01X61780Y-79253D01*
G01X66520Y-90245D01*
G01X74034Y-99563D01*
G01X83772Y-106526D01*
G01X95020Y-110622D01*
G01X106954Y-111552D01*
G01X118701Y-109249D01*
G01X129400Y-103880D01*
G01X140009Y-109218D01*
G01X151655Y-111541D01*
G01X163500Y-110682D01*
G01X163500Y-127775D01*
G01X150190Y-126710D01*
G01X137006Y-128818D01*
G01X124692Y-133981D01*
G01X113946Y-141906D01*
G01X85439Y-141906D01*
G01X45288Y-101755D01*
G01X45288Y-84255D01*
G01X47785Y-75987D01*
G01X48628Y-67393D01*
G01X48628Y55607D01*
G01X47009Y67466D01*
G01X42269Y78458D01*
G01X34756Y87775D01*
G01X25020Y94738D01*
G01X13773Y98835D01*
G01X1840Y99767D01*
G01X-9906Y97466D01*
G01X-9906Y104999D01*
G01X199801Y314706D01*
G37*
G36*
G01X53594Y284165D02*
G01X53594Y431446D01*
G01X57496Y436072D01*
G01X70715Y429493D01*
G01X85192Y426589D01*
G01X99926Y427560D01*
G01X113897Y432339D01*
G01X126138Y440596D01*
G01X135803Y451759D01*
G01X142222Y465056D01*
G01X144952Y479567D01*
G01X158600Y482021D01*
G01X171230Y487746D01*
G01X182072Y496392D01*
G01X190463Y507432D01*
G01X195892Y520192D01*
G01X198027Y533894D01*
G01X267332Y603199D01*
G01X599604Y603199D01*
G01X598745Y591355D01*
G01X601068Y579708D01*
G01X606406Y569100D01*
G01X600641Y557186D01*
G01X598659Y544101D01*
G01X600637Y531015D01*
G01X606397Y519100D01*
G01X600637Y507185D01*
G01X598659Y494099D01*
G01X600641Y481013D01*
G01X606406Y469100D01*
G01X600641Y457187D01*
G01X598659Y444101D01*
G01X600637Y431015D01*
G01X606397Y419100D01*
G01X601887Y410695D01*
G01X599285Y401519D01*
G01X598709Y391999D01*
G01X587739Y396634D01*
G01X576039Y398850D01*
G01X564134Y398549D01*
G01X564134Y505460D01*
G01X562741Y516044D01*
G01X558655Y525907D01*
G01X552156Y534376D01*
G01X551407Y535125D01*
G01X549280Y548799D01*
G01X543873Y561538D01*
G01X535513Y572566D01*
G01X524709Y581213D01*
G01X512118Y586955D01*
G01X498505Y589442D01*
G01X484697Y588524D01*
G01X471534Y584255D01*
G01X459814Y576895D01*
G01X450252Y566892D01*
G01X443427Y554853D01*
G01X439755Y541511D01*
G01X439459Y527676D01*
G01X442556Y514188D01*
G01X448859Y501868D01*
G01X457984Y491465D01*
G01X469377Y483610D01*
G01X482346Y478781D01*
G01X482346Y280322D01*
G01X472694Y280322D01*
G01X472694Y436550D01*
G01X471301Y447134D01*
G01X467215Y456997D01*
G01X460716Y465467D01*
G01X439482Y486700D01*
G01X437391Y500250D01*
G01X432077Y512888D01*
G01X423858Y523861D01*
G01X413224Y532515D01*
G01X400810Y538333D01*
G01X387356Y540968D01*
G01X373664Y540263D01*
G01X360551Y536260D01*
G01X348800Y529197D01*
G01X335533Y535759D01*
G01X321011Y538624D01*
G01X306245Y537594D01*
G01X292262Y532741D01*
G01X280034Y524401D01*
G01X270410Y513154D01*
G01X264061Y499784D01*
G01X261427Y485218D01*
G01X262692Y470471D01*
G01X267768Y456567D01*
G01X276301Y444473D01*
G01X287699Y435030D01*
G01X301169Y428894D01*
G01X315775Y426493D01*
G01X340106Y402161D01*
G01X340106Y399241D01*
G01X328764Y406362D01*
G01X316058Y410594D01*
G01X302711Y411695D01*
G01X289483Y409604D01*
G01X277127Y404439D01*
G01X266346Y396494D01*
G01X182862Y396494D01*
G01X172278Y395101D01*
G01X162415Y391015D01*
G01X153945Y384516D01*
G01X53594Y284165D01*
G37*
G36*
G01X498640Y782593D02*
G01X498640Y905593D01*
G01X497341Y916234D01*
G01X493520Y926250D01*
G01X487402Y935053D01*
G01X479345Y942126D01*
G01X513512Y942126D01*
G01X513512Y922455D01*
G01X511015Y914187D01*
G01X510172Y905593D01*
G01X510172Y782593D01*
G01X511086Y773645D01*
G01X513792Y765067D01*
G01X518177Y757214D01*
G01X490635Y757214D01*
G01X495020Y765067D01*
G01X497726Y773645D01*
G01X498640Y782593D01*
G37*
G54D10*
G01X962665Y1456903D02*
G01X962665Y1755140D01*
G01X1120140Y1755140D01*
G01X1120140Y1456903D01*
G01X962665Y1456903D01*
G01X797560Y1257300D02*
G01X797560Y1404366D01*
G03X801693Y1408107I-35560J43434D01*
G03X805434Y1412240I-39693J39693D01*
G01X1178212Y1412240D01*
G01X1409729Y1180723D01*
G03X1416913Y1177747I7184J7184D01*
G01X1607282Y1177747D01*
G01X1607282Y924560D01*
G01X1518857Y924560D01*
G01X1518857Y955103D01*
G03X1515881Y962287I-10160J0D01*
G01X1454984Y1023184D01*
G03X1447800Y1026160I-7184J-7184D01*
G01X1198008Y1026160D01*
G01X1165860Y1058308D01*
G01X1165860Y1257300D01*
G03X1155700Y1267460I-10160J0D01*
G01X863600Y1267460D01*
G03X853440Y1257300I0J-10160D01*
G01X853440Y1142184D01*
G03X856416Y1135000I10160J0D01*
G01X858335Y1133081D01*
G03X874707Y1090607I56065J-2781D01*
G03X917181Y1074235I39693J39693D01*
G01X918633Y1072783D01*
G01X918633Y938024D01*
G01X895472Y914863D01*
G01X758064Y914863D01*
G01X758064Y1213596D01*
G01X794584Y1250116D01*
G03X797560Y1257300I-7184J7184D01*
G01X2131060Y-971786D02*
G01X2131060Y-784860D01*
G01X2495906Y-784860D01*
G01X2495906Y-971786D01*
G01X2131060Y-971786D01*
G01X956783Y556186D02*
G01X917194Y595774D01*
G01X917194Y694584D01*
G01X1098897Y694584D01*
G01X1194562Y598919D01*
G01X1194562Y578537D01*
G01X1097716Y481691D01*
G01X1096908Y480781D01*
G01X1042114Y480781D01*
G03X1026877Y483725I-15238J-37949D01*
G01X991143Y483725D01*
G01X980694Y494174D01*
G01X980694Y506791D01*
G03X968279Y536138I-40894J0D01*
G01X959759Y544407D01*
G01X959759Y549001D01*
G03X956783Y556186I-10160J0D01*
G01X1119776Y749030D02*
G01X1119776Y805653D01*
G01X1124784Y810660D01*
G03X1127760Y817845I-7184J7184D01*
G01X1127760Y897807D01*
G03X1141034Y923100I-17460J25293D01*
G01X1141034Y948866D01*
G01X1152820Y960652D01*
G01X1459684Y960652D01*
G01X1460581Y959754D01*
G01X1460581Y689100D01*
G01X1213980Y689100D01*
G03X1206796Y686125I0J-10160D01*
G01X1191231Y670560D01*
G01X1180753Y670560D01*
G01X1124837Y726476D01*
G03X1115250Y732976I-21732J-21732D01*
G03X1119776Y749030I-26208J16054D01*
G01X956089Y914863D02*
G01X952988Y914863D01*
G03X959527Y933816I-24195J18952D01*
G01X959527Y1062592D01*
G03X966249Y1072153I-3438J9560D01*
G01X966249Y1108788D01*
G03X966249Y1151812I-51849J21512D01*
G01X966249Y1224155D01*
G01X1080260Y1224155D01*
G01X1080260Y1072153D01*
G03X1090420Y1061993I10160J0D01*
G01X1121536Y1061993D01*
G01X1121536Y987200D01*
G01X1095868Y961532D01*
G03X1086866Y939800I21732J-21732D01*
G01X1086866Y914221D01*
G03X1080260Y904703I3554J-9518D01*
G01X1080260Y823969D01*
G01X1073528Y817237D01*
G03X1064526Y795505I21732J-21732D01*
G01X1064526Y759460D01*
G01X994808Y759460D01*
G01X966249Y788020D01*
G01X966249Y904703D01*
G03X956089Y914863I-10160J0D01*
G01X-1807246Y1303106D02*
G03X-1764667Y1266942I248376J249287D01*
G01X-1799316Y1266942D01*
G03X-1808733Y1265908I0J-43434D01*
G01X-1831509Y1288684D01*
G03X-1874974Y1288684I-21732J-21732D01*
G01X-1955056Y1208602D01*
G03X-1955056Y1165138I21732J-21732D01*
G01X-1857687Y1067768D01*
G03X-1814222Y1067768I21732J21732D01*
G01X-1734140Y1147851D01*
G03X-1726984Y1180074I-21732J21732D01*
G01X-1707667Y1180074D01*
G03X-1443552Y1168383I148796J372319D01*
G01X-1465023Y1146912D01*
G03X-1465023Y1103448I21732J-21732D01*
G01X-1380369Y1018794D01*
G01X-1868021Y1018794D01*
G03X-1875561Y1049894I-29272J9368D01*
G01X-1972930Y1147263D01*
G03X-2016395Y1147263I-21732J-21732D01*
G01X-2096477Y1067181D01*
G03X-2096477Y1023716I21732J-21732D01*
G01X-2082995Y1010234D01*
G01X-2086127Y1007102D01*
G03X-2118101Y999857I-10241J-28978D01*
G01X-2175127Y942830D01*
G03X-2175127Y899366I21732J-21732D01*
G01X-2114033Y838271D01*
G03X-2078313Y832637I21732J21732D01*
G01X-2070940Y825264D01*
G01X-2073001Y823202D01*
G03X-2073001Y779738I21732J-21732D01*
G01X-2009362Y716098D01*
G03X-1965898Y716098I21732J21732D01*
G01X-1909329Y772667D01*
G03X-1909329Y816131I-21732J21732D01*
G01X-1972969Y879770D01*
G03X-1993619Y888753I-21732J-21732D01*
G01X-2007908Y903042D01*
G03X-2013542Y938762I-27366J13988D01*
G01X-2013721Y938942D01*
G01X-2012590Y939829D01*
G01X-1999108Y926347D01*
G03X-1955643Y926347I21732J21732D01*
G01X-1942128Y939862D01*
G03X-1927114Y937006I15014J38038D01*
G01X-1388539Y937006D01*
G01X-1383167Y931634D01*
G01X-1443605Y931634D01*
G03X-1474339Y900900I0J-30734D01*
G01X-1474339Y892070D01*
G03X-1491212Y881612I13839J-41170D01*
G01X-1511310Y861515D01*
G03X-1518941Y851206I30712J-30712D01*
G03X-1554312Y868657I-40939J-38406D01*
G01X-1567267Y881612D01*
G03X-1597979Y894334I-30712J-30712D01*
G01X-1649861Y894334D01*
G01X-1649861Y900900D01*
G03X-1680595Y931634I-30734J0D01*
G01X-1790595Y931634D01*
G03X-1821329Y900900I0J-30734D01*
G01X-1821329Y800900D01*
G03X-1790595Y770166I30734J0D01*
G01X-1779029Y770166D01*
G01X-1779029Y681495D01*
G03X-1766307Y650782I43434J0D01*
G01X-1750850Y635325D01*
G03X-1720138Y622604I30712J30712D01*
G01X-1702327Y622604D01*
G03X-1674705Y592261I30733J234D01*
G01X-1674705Y581777D01*
G03X-1702328Y551200I3110J-30576D01*
G01X-1702328Y464800D01*
G03X-1671594Y434066I30734J0D01*
G01X-1590947Y434066D01*
G03X-1560213Y464800I0J30734D01*
G01X-1560213Y551200D01*
G03X-1587837Y581777I-30734J0D01*
G01X-1587837Y592261D01*
G03X-1560213Y622837I-3110J30576D01*
G01X-1560213Y709238D01*
G03X-1590947Y739972I-30734J0D01*
G01X-1671594Y739972D01*
G03X-1692161Y732076I0J-30734D01*
G01X-1692161Y770166D01*
G01X-1680595Y770166D01*
G03X-1649861Y800900I0J30734D01*
G01X-1649861Y807466D01*
G01X-1615970Y807466D01*
G01X-1615736Y807232D01*
G03X-1524032Y769603I55857J5568D01*
G01X-1524032Y739814D01*
G03X-1551656Y709238I3110J-30576D01*
G01X-1551656Y622837D01*
G03X-1520922Y592103I30734J0D01*
G01X-1440274Y592103D01*
G03X-1427734Y594778I0J30734D01*
G01X-1427734Y114300D01*
G03X-1415012Y83588I43434J0D01*
G01X-1334961Y3536D01*
G01X-1398798Y3536D01*
G03X-1429510Y-9185I0J-43434D01*
G01X-1542012Y-121688D01*
G03X-1554734Y-152400I30712J-30712D01*
G01X-1554734Y-248351D01*
G01X-1570711Y-248351D01*
G03X-1601445Y-279085I0J-30734D01*
G01X-1601445Y-379085D01*
G03X-1570711Y-409819I30734J0D01*
G01X-1559145Y-409819D01*
G01X-1559145Y-448803D01*
G03X-1580079Y-440571I-20935J-22502D01*
G01X-1660727Y-440571D01*
G03X-1691461Y-471305I0J-30734D01*
G01X-1691461Y-557705D01*
G03X-1660727Y-588439I30734J0D01*
G01X-1580079Y-588439D01*
G03X-1550025Y-564134I0J30734D01*
G01X-1549400Y-564134D01*
G03X-1518688Y-551412I0J43434D01*
G01X-1484998Y-517723D01*
G03X-1472277Y-487011I-30712J30712D01*
G01X-1472277Y-409819D01*
G01X-1460711Y-409819D01*
G03X-1429977Y-379085I0J30734D01*
G01X-1429977Y-279085D01*
G03X-1460711Y-248351I-30734J0D01*
G01X-1467866Y-248351D01*
G01X-1467866Y-170391D01*
G01X-1380807Y-83332D01*
G01X-1345734Y-83332D01*
G01X-1345734Y-147798D01*
G03X-1321665Y-177800I30734J0D01*
G03X-1345734Y-207802I6666J-30002D01*
G01X-1345734Y-287802D01*
G03X-1315000Y-318536I30734J0D01*
G01X-1225000Y-318536D01*
G03X-1194344Y-289995I0J30734D01*
G01X-1178921Y-289995D01*
G03X-1148208Y-277273I0J43434D01*
G01X-1130248Y-259312D01*
G03X-1122375Y-248542I-30713J30712D01*
G01X-1122375Y-953059D01*
G03X-1109654Y-983771I43434J0D01*
G01X-795470Y-1297955D01*
G03X-764757Y-1310677I30712J30712D01*
G01X-759606Y-1310677D01*
G03X-760602Y-1318438I29738J-7761D01*
G01X-760602Y-1399085D01*
G03X-729868Y-1429819I30734J0D01*
G01X-643467Y-1429819D01*
G03X-612891Y-1402196I0J30734D01*
G01X-520562Y-1402196D01*
G03X-489849Y-1389474I0J43434D01*
G01X-471650Y-1371275D01*
G03X-460740Y-1352977I-30712J30712D01*
G01X-452363Y-1352977D01*
G03X-421629Y-1322243I0J30734D01*
G01X-421629Y-1212243D01*
G03X-435675Y-1186434I-30734J0D01*
G01X42330Y-1186434D01*
G03X39646Y-1198996I28050J-12562D01*
G01X39646Y-1302186D01*
G01X8756Y-1302186D01*
G03X-21820Y-1274562I-30576J-3110D01*
G01X-108221Y-1274562D01*
G03X-138955Y-1305296I0J-30734D01*
G01X-138955Y-1385943D01*
G03X-108221Y-1416677I30734J0D01*
G01X-21820Y-1416677D01*
G03X8756Y-1389054I0J30734D01*
G01X88900Y-1389054D01*
G03X119612Y-1376332I0J43434D01*
G01X151092Y-1344853D01*
G03X155475Y-1339729I-30712J30712D01*
G01X170379Y-1339729D01*
G03X201113Y-1308995I0J30734D01*
G01X201113Y-1198996D01*
G03X170434Y-1168262I-30734J0D01*
G03X157712Y-1137688I-43434J-138D01*
G01X155659Y-1135634D01*
G01X197909Y-1135634D01*
G01X261366Y-1199091D01*
G01X261366Y-1276007D01*
G03X230866Y-1306740I234J-30733D01*
G01X230866Y-1387387D01*
G03X261600Y-1418121I30734J0D01*
G01X348000Y-1418121D01*
G03X378577Y-1390498I0J30734D01*
G01X410057Y-1390498D01*
G03X425839Y-1387529I0J43434D01*
G03X474861Y-1304253I-113J56134D01*
G03X378269Y-1301413I-49136J-27142D01*
G03X348234Y-1276007I-30269J-5327D01*
G01X348234Y-1181100D01*
G03X335512Y-1150388I-43434J0D01*
G01X246612Y-1061488D01*
G03X215900Y-1048766I-30712J-30712D01*
G01X-794809Y-1048766D01*
G01X-896366Y-947209D01*
G01X-896366Y-724936D01*
G01X-869400Y-724936D01*
G03X-838666Y-694202I0J30734D01*
G01X-838666Y-614202D01*
G03X-862735Y-584200I-30734J0D01*
G03X-838666Y-554198I-6666J30002D01*
G01X-838666Y-474198D01*
G03X-869400Y-443464I-30734J0D01*
G01X-869772Y-443464D01*
G01X-869772Y-423553D01*
G01X-799634Y-493691D01*
G01X-799634Y-554198D01*
G03X-768900Y-584932I30734J0D01*
G01X-678900Y-584932D01*
G03X-648166Y-554198I0J30734D01*
G01X-648166Y-474198D01*
G03X-678900Y-443464I-30734J0D01*
G01X-693874Y-443464D01*
G03X-736634Y-433841I-33929J-50951D01*
G01X-820166Y-350309D01*
G01X-820166Y-330938D01*
G01X-799206Y-330938D01*
G03X-788200Y-328900I0J30734D01*
G03X-777194Y-330938I11006J28696D01*
G01X-749193Y-330938D01*
G03X-738200Y-328905I0J30734D01*
G03X-727207Y-330938I10993J28701D01*
G01X-699206Y-330938D01*
G03X-668472Y-300204I0J30734D01*
G01X-668472Y-233704D01*
G03X-699206Y-202970I-30734J0D01*
G01X-727207Y-202970D01*
G03X-738200Y-205003I0J-30734D01*
G03X-749193Y-202970I-10993J-28701D01*
G01X-777194Y-202970D01*
G03X-788200Y-205008I0J-30734D01*
G03X-799206Y-202970I-11006J-28696D01*
G01X-827207Y-202970D01*
G03X-838200Y-205003I0J-30734D01*
G03X-849193Y-202970I-10993J-28701D01*
G01X-877194Y-202970D01*
G03X-888200Y-205008I0J-30734D01*
G03X-899206Y-202970I-11006J-28696D01*
G01X-927207Y-202970D01*
G03X-938200Y-205003I0J-30734D01*
G03X-949193Y-202970I-10993J-28701D01*
G01X-977194Y-202970D01*
G03X-988200Y-205008I0J-30734D01*
G03X-999206Y-202970I-11006J-28696D01*
G01X-1014957Y-202970D01*
G01X-1014957Y-187193D01*
G03X-1016991Y-176200I-30734J0D01*
G03X-1014957Y-165207I-28701J10993D01*
G01X-1014957Y-137206D01*
G03X-1016995Y-126200I-30734J0D01*
G03X-1014957Y-115194I-28696J11006D01*
G01X-1014957Y-87193D01*
G03X-1016991Y-76200I-30734J0D01*
G03X-1014957Y-65207I-28701J10993D01*
G01X-1014957Y-37206D01*
G03X-1016995Y-26200I-30734J0D01*
G03X-1014957Y-15194I-28696J11006D01*
G01X-1014957Y12807D01*
G03X-1016991Y23800I-30734J0D01*
G03X-1014957Y34793I-28701J10993D01*
G01X-1014957Y50570D01*
G01X-999206Y50570D01*
G03X-988200Y52608I0J30734D01*
G03X-977194Y50570I11006J28696D01*
G01X-949193Y50570D01*
G03X-938200Y52603I0J30734D01*
G03X-927207Y50570I10993J28701D01*
G01X-899206Y50570D01*
G03X-868472Y81304I0J30734D01*
G01X-868472Y147804D01*
G03X-869772Y156650I-30734J0D01*
G01X-869772Y624099D01*
G01X-76805Y1417066D01*
G01X-38100Y1417066D01*
G03X-7388Y1429788I0J43434D01*
G01X136702Y1573877D01*
G01X222971Y1573877D01*
G01X222971Y1562311D01*
G03X253705Y1531577I30734J0D01*
G01X353705Y1531577D01*
G03X384439Y1562311I0J30734D01*
G01X384439Y1573877D01*
G01X448911Y1573877D01*
G03X453564Y1574127I0J43434D01*
G03X451866Y1562100I41736J-12027D01*
G01X451866Y1560540D01*
G03X424242Y1529964I3110J-30576D01*
G01X424242Y1443563D01*
G03X454976Y1412829I30734J0D01*
G01X535624Y1412829D01*
G03X566358Y1443563I0J30734D01*
G01X566358Y1529964D01*
G03X551126Y1556502I-30734J0D01*
G01X551391Y1556766D01*
G01X590608Y1556766D01*
G03X574915Y1529964I15041J-26802D01*
G01X574915Y1443563D01*
G03X605649Y1412829I30734J0D01*
G01X686297Y1412829D01*
G03X710737Y1424928I0J30734D01*
G03X761038Y1391674I51263J22872D01*
G03X812450Y1423186I962J56126D01*
G03X826740Y1419662I14290J27210D01*
G01X861741Y1419662D01*
G03X876727Y1423563I0J30734D01*
G03X891713Y1419662I14986J26833D01*
G01X926714Y1419662D01*
G03X935705Y1421007I0J30734D01*
G03X952505Y1416009I16800J25736D01*
G01X1130300Y1416009D01*
G03X1161034Y1446743I0J30734D01*
G01X1161034Y1765300D01*
G03X1130300Y1796034I-30734J0D01*
G01X952505Y1796034D01*
G03X921771Y1765300I0J-30734D01*
G01X921771Y1543629D01*
G01X891713Y1543629D01*
G03X876727Y1539728I0J-30734D01*
G03X861741Y1543629I-14986J-26833D01*
G01X843681Y1543629D01*
G01X756398Y1630912D01*
G03X725686Y1643634I-30712J-30712D01*
G01X549689Y1643634D01*
G03X563039Y1668979I-17384J25345D01*
G01X563039Y1749627D01*
G03X532305Y1780361I-30734J0D01*
G01X445905Y1780361D01*
G03X415171Y1749627I0J-30734D01*
G01X415171Y1668979D01*
G03X416294Y1660745I30734J0D01*
G01X384439Y1660745D01*
G01X384439Y1672311D01*
G03X353705Y1703045I-30734J0D01*
G01X253705Y1703045D01*
G03X222971Y1672311I0J-30734D01*
G01X222971Y1660745D01*
G01X118711Y1660745D01*
G03X87998Y1648023I0J-43434D01*
G01X-56091Y1503934D01*
G01X-94796Y1503934D01*
G03X-125508Y1491212I0J-43434D01*
G01X-223266Y1393455D01*
G01X-223266Y1480671D01*
G01X-216700Y1480671D01*
G03X-185966Y1511405I0J30734D01*
G01X-185966Y1522971D01*
G01X-114300Y1522971D01*
G03X-83588Y1535693I0J43434D01*
G01X-54194Y1565086D01*
G03X-42999Y1584386I-30712J30712D01*
G01X-41707Y1584386D01*
G03X-10973Y1615120I0J30734D01*
G01X-10973Y1695768D01*
G03X-41707Y1726502I-30734J0D01*
G01X-128107Y1726502D01*
G03X-158841Y1695768I0J-30734D01*
G01X-158841Y1615120D01*
G03X-158384Y1609839I30734J0D01*
G01X-185966Y1609839D01*
G01X-185966Y1621405D01*
G03X-216700Y1652139I-30734J0D01*
G01X-316700Y1652139D01*
G03X-347434Y1621405I0J-30734D01*
G01X-347434Y1511405D01*
G03X-316700Y1480671I30734J0D01*
G01X-310134Y1480671D01*
G01X-310134Y1389591D01*
G01X-401066Y1298659D01*
G01X-401066Y1580807D01*
G03X-370566Y1611540I-234J30733D01*
G01X-370566Y1692187D01*
G03X-401300Y1722921I-30734J0D01*
G01X-487700Y1722921D01*
G03X-518434Y1692187I0J-30734D01*
G01X-518434Y1611540D01*
G03X-487934Y1580807I30734J0D01*
G01X-487934Y1291843D01*
G01X-663033Y1116744D01*
G01X-781608Y1235319D01*
G03X-815995Y1241594I-21732J-21732D01*
G01X-835406Y1261005D01*
G01X-835406Y1265761D01*
G01X-804725Y1296443D01*
G03X-766757Y1392243I-1725J56107D01*
G03X-862557Y1354275I-39693J-39693D01*
G01X-905216Y1311616D01*
G03X-917194Y1282700I28916J-28916D01*
G01X-917194Y1244066D01*
G03X-905216Y1215149I40894J0D01*
G01X-873808Y1183741D01*
G03X-867499Y1149428I28041J-12581D01*
G01X-748924Y1030853D01*
G01X-751417Y1028360D01*
G01X-869992Y1146935D01*
G03X-904379Y1153210I-21732J-21732D01*
G01X-910385Y1159216D01*
G03X-939302Y1171194I-28916J-28916D01*
G01X-1100278Y1171194D01*
G03X-1106459Y1170724I0J-40894D01*
G03X-1171333Y1118458I-8830J-55435D01*
G01X-1328188Y1275312D01*
G03X-1335012Y1280875I-30712J-30712D01*
G03X-1309578Y1800763I-223858J271518D01*
G02X-1302736Y2066359I138919J129308D01*
G02X-953947Y2248765I1302735J-2066358D01*
G01X696193Y2248765D01*
G03X736600Y2153666I40407J-38965D01*
G03X777007Y2248765I0J56134D01*
G01X953946Y2248765D01*
G02X1302433Y2066549I-953946J-2248765D01*
G02X1303106Y1807247I-138089J-130011D01*
G03X1800763Y1309578I249287J-248376D01*
G02X2066358Y1302737I129307J-138918D01*
G02X2189264Y1083550I-2066358J-1302737D01*
G03X2222637Y1062916I33236J16450D01*
G01X2399986Y1062916D01*
G02X2512916Y950000I14J-112916D01*
G01X2512916Y-744739D01*
G03X2506066Y-743966I-6850J-29961D01*
G01X2120900Y-743966D01*
G03X2090166Y-774700I0J-30734D01*
G01X2090166Y-825115D01*
G03X2060487Y-802366I-29679J-7985D01*
G01X1979840Y-802366D01*
G03X1949106Y-833100I0J-30734D01*
G01X1949106Y-835406D01*
G01X1928968Y-835406D01*
G03X1898235Y-804799I-30734J-127D01*
G01X1890719Y-804799D01*
G03X1886827Y-800295I-32808J-24412D01*
G01X1756116Y-669584D01*
G03X1727200Y-657606I-28916J-28916D01*
G01X809089Y-657606D01*
G01X772806Y-621324D01*
G03X743890Y-609346I-28916J-28916D01*
G01X679879Y-609346D01*
G01X663194Y-592661D01*
G01X663194Y-317854D01*
G03X612394Y-224147I-40894J38454D01*
G01X612394Y-220139D01*
G01X663916Y-168616D01*
G03X675894Y-139700I-28916J28916D01*
G01X675894Y-51381D01*
G03X741436Y-36160I22606J51381D01*
G03X745287Y31016I-42936J36160D01*
G01X745287Y99860D01*
G01X763859Y99860D01*
G01X763859Y-142628D01*
G03X763544Y-147696I40579J-5068D01*
G01X763544Y-315671D01*
G03X775521Y-344587I40894J0D01*
G01X799064Y-368130D01*
G01X799064Y-426000D01*
G03X829798Y-456734I30734J0D01*
G01X884107Y-456734D01*
G01X899538Y-472166D01*
G01X824140Y-472166D01*
G03X793407Y-502666I0J-30734D01*
G01X783573Y-502666D01*
G03X685702Y-509726I-46973J-30734D01*
G03X743358Y-589126I50898J-23674D01*
G03X749300Y-589534I5942J43026D01*
G01X793407Y-589534D01*
G03X824140Y-620034I30733J234D01*
G01X904787Y-620034D01*
G03X935521Y-589300I0J30734D01*
G01X935521Y-508149D01*
G01X944079Y-516706D01*
G01X944079Y-589300D01*
G03X974813Y-620034I30734J0D01*
G01X1055460Y-620034D01*
G03X1086194Y-589300I0J30734D01*
G01X1086194Y-502900D01*
G03X1055460Y-472166I-30734J0D01*
G01X1022388Y-472166D01*
G01X940532Y-390309D01*
G01X940532Y-336000D01*
G03X909798Y-305266I-30734J0D01*
G01X851866Y-305266D01*
G01X845332Y-298732D01*
G01X845332Y-278934D01*
G01X909798Y-278934D01*
G03X940532Y-248200I0J30734D01*
G01X940532Y-158200D01*
G03X927825Y-133308I-30734J0D01*
G01X943316Y-117816D01*
G03X955294Y-88900I-28916J28916D01*
G01X955294Y-58329D01*
G01X980803Y-58329D01*
G03X1011537Y-27595I0J30734D01*
G01X1011537Y112405D01*
G03X980803Y143139I-30734J0D01*
G01X879094Y143139D01*
G01X879094Y366111D01*
G01X898382Y346823D01*
G03X927299Y334845I28916J28916D01*
G01X995161Y334845D01*
G01X995063Y332395D01*
G01X995063Y192395D01*
G03X1025797Y161661I30734J0D01*
G01X1125264Y161661D01*
G01X1125264Y53042D01*
G03X1137242Y24126I40894J0D01*
G01X1190284Y-28916D01*
G03X1206966Y-39021I28916J28916D01*
G01X1206966Y-46198D01*
G03X1237700Y-76932I30734J0D01*
G01X1327700Y-76932D01*
G03X1358434Y-46198I0J30734D01*
G01X1358434Y33802D01*
G03X1327700Y64536I-30734J0D01*
G01X1237700Y64536D01*
G03X1218910Y58123I0J-30734D01*
G01X1207052Y69981D01*
G01X1207052Y144815D01*
G01X1215684Y136184D01*
G03X1244600Y124206I28916J28916D01*
G01X1277064Y124206D01*
G03X1321153Y104966I44089J40894D01*
G01X1466853Y104966D01*
G03X1466853Y225235I0J60135D01*
G01X1321153Y225235D01*
G03X1277064Y205994I0J-60134D01*
G01X1261539Y205994D01*
G01X1237572Y229961D01*
G01X1237572Y312379D01*
G03X1225594Y341296I-40894J0D01*
G01X1155261Y411628D01*
G01X1248839Y505206D01*
G01X1277064Y505206D01*
G03X1321153Y485966I44089J40894D01*
G01X1466853Y485966D01*
G03X1505966Y500424I0J60135D01*
G01X1505966Y464776D01*
G03X1466853Y479235I-39113J-45676D01*
G01X1321153Y479235D01*
G03X1321153Y358966I0J-60134D01*
G01X1466853Y358966D01*
G03X1508442Y375666I0J60135D01*
G01X1524000Y375666D01*
G03X1554712Y388388I0J43434D01*
G01X1580112Y413788D01*
G03X1592834Y444500I-30712J30712D01*
G01X1592834Y563558D01*
G03X1580112Y594271I-43434J0D01*
G01X1526431Y647952D01*
G03X1495719Y660674I-30712J-30712D01*
G01X1495458Y660674D01*
G03X1501475Y678940I-24716J18267D01*
G01X1501475Y970812D01*
G03X1470741Y1001546I-30734J0D01*
G01X1162430Y1001546D01*
G01X1162430Y1072153D01*
G03X1131696Y1102887I-30734J0D01*
G01X1121154Y1102887D01*
G01X1121154Y1234315D01*
G03X1090420Y1265049I-30734J0D01*
G01X956089Y1265049D01*
G03X937841Y1259045I0J-30734D01*
G03X926714Y1261130I-11127J-28649D01*
G01X891713Y1261130D01*
G03X860979Y1230396I0J-30734D01*
G01X860979Y1167897D01*
G03X863902Y1154815I30734J0D01*
G03X865480Y1102770I50498J-24515D01*
G03X909149Y1074412I48920J27530D01*
G01X909066Y1072153D01*
G01X909066Y904703D01*
G03X925355Y877576I30734J0D01*
G01X925355Y783811D01*
G03X934356Y762079I30734J0D01*
G01X960958Y735478D01*
G01X917194Y735478D01*
G01X917194Y749242D01*
G03X905216Y778158I-40894J0D01*
G01X829950Y853425D01*
G03X801033Y865402I-28916J-28916D01*
G01X719365Y865402D01*
G03X690449Y853425I0J-40894D01*
G01X668861Y831838D01*
G01X625844Y831838D01*
G03X598640Y821477I0J-40894D01*
G01X598640Y884746D01*
G03X657728Y910909I10960J55054D01*
G03X653034Y975360I-48128J28891D01*
G01X653034Y1015600D01*
G03X640312Y1046312I-43434J0D01*
G01X614657Y1071968D01*
G03X594764Y1109500I-55857J-5568D01*
G03X606513Y1107166I11748J28400D01*
G01X687160Y1107166D01*
G03X717894Y1137900I0J30734D01*
G01X717894Y1224300D01*
G03X687160Y1255034I-30734J0D01*
G01X636054Y1255034D01*
G01X631523Y1259566D01*
G01X687160Y1259566D01*
G03X717894Y1290300I0J30734D01*
G01X717894Y1376700D01*
G03X687160Y1407434I-30734J0D01*
G01X606513Y1407434D01*
G03X575779Y1376700I0J-30734D01*
G01X575779Y1315310D01*
G01X567221Y1323867D01*
G01X567221Y1376700D01*
G03X536487Y1407434I-30734J0D01*
G01X455840Y1407434D01*
G03X425106Y1376700I0J-30734D01*
G01X425106Y1290300D01*
G03X455840Y1259566I30734J0D01*
G01X508673Y1259566D01*
G01X575779Y1192460D01*
G01X575779Y1137900D01*
G03X584796Y1116151I30734J0D01*
G03X512372Y1097952I-25996J-49751D01*
G03X522113Y1023914I46428J-31552D01*
G01X481719Y1023914D01*
G01X393460Y1112173D01*
G03X402864Y1134301I-21330J22128D01*
G01X402864Y1155788D01*
G03X408343Y1181100I-55735J25312D01*
G03X402864Y1206412I-61214J0D01*
G01X402864Y1224300D01*
G03X372130Y1255034I-30734J0D01*
G01X292130Y1255034D01*
G03X261396Y1224300I0J-30734D01*
G01X261396Y1134301D01*
G03X292130Y1103567I30734J0D01*
G01X293068Y1103567D01*
G03X303214Y1086753I39062J12103D01*
G01X320373Y1069594D01*
G01X-59261Y1069594D01*
G01X-85242Y1095575D01*
G01X-85242Y1107171D01*
G03X-55079Y1137900I-570J30729D01*
G01X-55079Y1224300D01*
G03X-85813Y1255034I-30734J0D01*
G01X-166460Y1255034D01*
G03X-197194Y1224300I0J-30734D01*
G01X-197194Y1137900D01*
G03X-167030Y1107171I30734J0D01*
G01X-167030Y1078636D01*
G03X-155053Y1049720I40894J0D01*
G01X-132147Y1026815D01*
G01X-148118Y1026815D01*
G03X-229414Y1065637I-55082J-10815D01*
G03X-243190Y976607I26214J-49637D01*
G03X-246631Y896967I37771J-41526D01*
G03X-166965Y894187I41211J38114D01*
G01X-131719Y894187D01*
G03X-102803Y906164I0J40894D01*
G01X-94460Y914507D01*
G01X-38932Y914507D01*
G03X-39840Y905593I43327J-8914D01*
G01X-39840Y893254D01*
G03X-106934Y838200I-10960J-55054D01*
G03X-39840Y783146I56134J0D01*
G01X-39840Y782593D01*
G03X-32145Y757663I44234J0D01*
G03X-40798Y706899I44845J-33763D01*
G03X-4428Y670443I53498J17001D01*
G03X-581Y637794I55228J-10043D01*
G01X-77164Y637794D01*
G03X-84093Y638340I-6929J-43688D01*
G01X-207093Y638340D01*
G03X-247840Y576893I0J-44234D01*
G03X-343256Y565477I-44260J-34527D01*
G01X-562316Y346416D01*
G03X-574294Y317500I28916J-28916D01*
G01X-574294Y245539D01*
G01X-588439Y231394D01*
G01X-685800Y231394D01*
G03X-708533Y224493I0J-40894D01*
G03X-756662Y283980I-55998J3907D01*
G03X-835349Y330505I-55929J-4789D01*
G03X-853685Y240951I22758J-51314D01*
G01X-853685Y208411D01*
G03X-853485Y204375I40894J0D01*
G01X-853485Y163742D01*
G03X-857941Y147804I26278J-15938D01*
G01X-857941Y81304D01*
G03X-827207Y50570I30734J0D01*
G01X-799206Y50570D01*
G03X-788200Y52608I0J30734D01*
G03X-777194Y50570I11006J28696D01*
G01X-749193Y50570D01*
G03X-738200Y52603I0J30734D01*
G03X-727207Y50570I10993J28701D01*
G01X-699206Y50570D01*
G03X-688200Y52608I0J30734D01*
G03X-677194Y50570I11006J28696D01*
G01X-661443Y50570D01*
G01X-661443Y34793D01*
G03X-659409Y23800I30734J0D01*
G03X-661443Y12807I28701J-10993D01*
G01X-661443Y-15194D01*
G03X-659405Y-26200I30734J0D01*
G03X-661443Y-37206I28696J-11006D01*
G01X-661443Y-65207D01*
G03X-659409Y-76200I30734J0D01*
G03X-661443Y-87193I28701J-10993D01*
G01X-661443Y-115194D01*
G03X-659405Y-126200I30734J0D01*
G03X-661443Y-137206I28696J-11006D01*
G01X-661443Y-165207D01*
G03X-659409Y-176200I30734J0D01*
G03X-661443Y-187193I28701J-10993D01*
G01X-661443Y-215194D01*
G03X-638353Y-244962I30734J0D01*
G01X-638353Y-380441D01*
G03X-626375Y-409358I40894J0D01*
G01X-510794Y-524939D01*
G01X-510794Y-622300D01*
G03X-498816Y-651216I40894J0D01*
G01X-460716Y-689316D01*
G03X-438494Y-700742I28916J28916D01*
G01X-438494Y-703600D01*
G03X-407760Y-734334I30734J0D01*
G01X-327113Y-734334D01*
G03X-296379Y-703600I0J30734D01*
G01X-296379Y-617200D01*
G03X-327113Y-586466I-30734J0D01*
G01X-407760Y-586466D01*
G03X-429006Y-594992I0J-30734D01*
G01X-429006Y-573408D01*
G03X-407760Y-581934I21246J22208D01*
G01X-327113Y-581934D01*
G03X-296379Y-551200I0J30734D01*
G01X-296379Y-464800D01*
G03X-326542Y-434071I-30734J0D01*
G01X-326542Y-429529D01*
G03X-296379Y-398800I-570J30729D01*
G01X-296379Y-312400D01*
G03X-296757Y-307594I-30734J0D01*
G01X-287443Y-307594D01*
G03X-287821Y-312400I30356J-4806D01*
G01X-287821Y-398800D01*
G03X-257087Y-429534I30734J0D01*
G01X-176440Y-429534D01*
G03X-150324Y-415004I0J30734D01*
G03X-105266Y-368527I-14776J59404D01*
G03X-127119Y-307594I-59834J12927D01*
G01X28626Y-307594D01*
G01X28626Y-395609D01*
G03X59360Y-426343I30734J0D01*
G01X139360Y-426343D01*
G03X170094Y-395609I0J30734D01*
G01X170094Y-307594D01*
G01X204219Y-307594D01*
G01X204219Y-395609D01*
G03X234953Y-426343I30734J0D01*
G01X314952Y-426343D01*
G03X345686Y-395609I0J30734D01*
G01X345686Y-305609D01*
G03X334632Y-282001I-30734J0D01*
G01X433310Y-183323D01*
G03X436207Y-180102I-28916J28916D01*
G03X494022Y-166770I18199J53102D01*
G03X492506Y-177800I39378J-11030D01*
G01X492506Y-828569D01*
G03X504484Y-857486I40894J0D01*
G01X624194Y-977196D01*
G03X637597Y-986117I28916J28916D01*
G01X666863Y-1015383D01*
G01X661400Y-1020846D01*
G03X661400Y-1064311I21732J-21732D01*
G01X781608Y-1184519D01*
G03X825073Y-1184519I21732J21732D01*
G01X867499Y-1142092D01*
G03X867499Y-1098628I-21732J21732D01*
G01X747291Y-978420D01*
G03X740367Y-973221I-21732J-21732D01*
G01X686509Y-919363D01*
G03X673105Y-910442I-28916J-28916D01*
G01X574294Y-811630D01*
G01X574294Y-772325D01*
G01X743509Y-941540D01*
G03X749784Y-975927I28008J-12655D01*
G01X869992Y-1096135D01*
G03X913456Y-1096135I21732J21732D01*
G01X955883Y-1053709D01*
G03X955883Y-1010244I-21732J21732D01*
G01X835675Y-890036D01*
G03X801362Y-883727I-21732J-21732D01*
G01X683342Y-765708D01*
G03X740234Y-765090I27858J54508D01*
G01X830877Y-855733D01*
G03X838186Y-887525I29041J-10060D01*
G01X958393Y-1007733D01*
G03X1001858Y-1007733I21732J21732D01*
G01X1044284Y-965307D01*
G03X1044284Y-921842I-21732J21732D01*
G01X924076Y-801635D01*
G03X892311Y-794317I-21732J-21732D01*
G01X837388Y-739394D01*
G01X1710261Y-739394D01*
G01X1790994Y-820126D01*
G03X1786853Y-835533I26594J-15407D01*
G01X1786853Y-921934D01*
G03X1817587Y-952668I30734J0D01*
G01X1898235Y-952668D01*
G03X1928969Y-921934I0J30734D01*
G01X1928969Y-917194D01*
G01X1949106Y-917194D01*
G01X1949106Y-919500D01*
G03X1979840Y-950234I30734J0D01*
G01X2060487Y-950234D01*
G03X2090166Y-927485I0J30734D01*
G01X2090166Y-981946D01*
G03X2120900Y-1012680I30734J0D01*
G01X2493921Y-1012680D01*
G02X2400000Y-1062915I-93921J62681D01*
G01X2222701Y-1062916D01*
G01X2221464Y-1062937D01*
G03X2189124Y-1084233I1284J-37153D01*
G02X2067071Y-1301940I-2189127J1084227D01*
G02X1807247Y-1303106I-130532J137596D01*
G03X1309584Y-1800769I-248376J-249287D01*
G02X1357644Y-1962753I-138762J-129292D01*
G01X-1352184Y-1962753D01*
G02X-1303106Y-1807247I187841J26214D01*
G03X-1800769Y-1309584I-249287J248376D01*
G02X-2065338Y-1303755I-129292J138762D01*
G02X-2335276Y-715462I2065336J1303754D01*
G01X-2335276Y716551D01*
G02X-2066550Y1302432I2335275J-716550D01*
G02X-1807246Y1303106I130012J-138088D01*
G01X-1948434Y-279085D02*
G01X-1948434Y-379085D01*
G03X-1917700Y-409819I30734J0D01*
G01X-1906134Y-409819D01*
G01X-1906134Y-486800D01*
G03X-1893413Y-517512I43434J0D01*
G01X-1865708Y-545217D01*
G03X-1842134Y-557348I30712J30712D01*
G01X-1842134Y-557705D01*
G03X-1814510Y-588281I30734J0D01*
G01X-1814510Y-599323D01*
G03X-1842134Y-629900I3110J-30576D01*
G01X-1842134Y-716300D01*
G03X-1811400Y-747034I30734J0D01*
G01X-1730752Y-747034D01*
G03X-1700018Y-716300I0J30734D01*
G01X-1700018Y-629900D01*
G03X-1727642Y-599323I-30734J0D01*
G01X-1727642Y-588281D01*
G03X-1700018Y-557705I-3110J30576D01*
G01X-1700018Y-471305D01*
G03X-1730752Y-440571I-30734J0D01*
G01X-1811400Y-440571D01*
G03X-1819266Y-441594I0J-30734D01*
G01X-1819266Y-409819D01*
G01X-1807700Y-409819D01*
G03X-1776966Y-379085I0J30734D01*
G01X-1776966Y-279085D01*
G03X-1806850Y-248363I-30734J0D01*
G03X-1862700Y-197866I-55850J-5637D01*
G03X-1918550Y-248363I0J-56134D01*
G03X-1948434Y-279085I850J-30722D01*
G01X-1580079Y-599166D02*
G01X-1660727Y-599166D01*
G03X-1691461Y-629900I0J-30734D01*
G01X-1691461Y-716300D01*
G03X-1660727Y-747034I30734J0D01*
G01X-1580079Y-747034D01*
G03X-1549346Y-716534I0J30734D01*
G01X-1447800Y-716534D01*
G03X-1417088Y-703812I0J43434D01*
G01X-1396048Y-682773D01*
G03X-1383326Y-652060I-30712J30712D01*
G01X-1383326Y-638554D01*
G03X-1422489Y-548348I-44421J34319D01*
G03X-1477790Y-629666I-5258J-55887D01*
G01X-1549346Y-629666D01*
G03X-1580079Y-599166I-30733J-234D01*
G01X-995934Y-1473200D02*
G03X-983212Y-1503912I43434J0D01*
G01X-946978Y-1540147D01*
G03X-919048Y-1552779I30712J30712D01*
G03X-888463Y-1580492I30585J3021D01*
G01X-802062Y-1580492D01*
G03X-771486Y-1552868I0J30734D01*
G01X-760444Y-1552868D01*
G03X-729868Y-1580492I30576J3110D01*
G01X-643467Y-1580492D01*
G03X-612891Y-1552868I0J30734D01*
G01X-582430Y-1552868D01*
G03X-583096Y-1559232I30068J-6364D01*
G01X-583096Y-1669232D01*
G03X-552362Y-1699966I30734J0D01*
G01X-452363Y-1699966D01*
G03X-421629Y-1669232I0J30734D01*
G01X-421629Y-1559232D01*
G03X-452363Y-1528498I-30734J0D01*
G01X-458943Y-1528498D01*
G03X-471650Y-1498925I-43419J-1139D01*
G01X-491853Y-1478722D01*
G03X-522566Y-1466000I-30712J-30712D01*
G01X-612891Y-1466000D01*
G03X-643467Y-1438377I-30576J-3110D01*
G01X-729868Y-1438377D01*
G03X-760444Y-1466000I0J-30734D01*
G01X-771486Y-1466000D01*
G03X-802062Y-1438377I-30576J-3110D01*
G01X-888463Y-1438377D01*
G03X-909066Y-1446305I0J-30734D01*
G01X-909066Y-1330960D01*
G03X-952500Y-1239266I-43434J35560D01*
G03X-995934Y-1330960I0J-56134D01*
G01X-995934Y-1473200D01*
G01X-824048Y1744423D02*
G03X-867512Y1744423I-21732J-21732D01*
G01X-938223Y1673712D01*
G03X-938223Y1630248I21732J-21732D01*
G01X-740233Y1432258D01*
G03X-696769Y1432258I21732J21732D01*
G01X-626058Y1502969D01*
G03X-626058Y1546433I-21732J21732D01*
G01X-824048Y1744423D01*
G01X-635000Y299466D02*
G03X-591566Y391160I0J56134D01*
G01X-591566Y604309D01*
G01X-565932Y629943D01*
G03X-531807Y725493I-5568J55857D01*
G03X-627357Y691368I-39693J-39693D01*
G01X-665712Y653012D01*
G03X-678434Y622300I30712J-30712D01*
G01X-678434Y391160D01*
G03X-635000Y299466I43434J-35560D01*
G01X-475212Y1884912D02*
G03X-483364Y1873594I30712J-30712D01*
G01X-487700Y1873594D01*
G03X-518434Y1842860I0J-30734D01*
G01X-518434Y1762213D01*
G03X-487700Y1731479I30734J0D01*
G01X-401300Y1731479D01*
G03X-370566Y1762213I0J30734D01*
G01X-370566Y1842860D01*
G03X-376399Y1860876I-30734J0D01*
G01X-367314Y1869961D01*
G01X-347434Y1869961D01*
G01X-347434Y1858395D01*
G03X-316700Y1827661I30734J0D01*
G01X-216700Y1827661D01*
G03X-185966Y1858395I0J30734D01*
G01X-185966Y1869961D01*
G01X-153386Y1869961D01*
G01X-150701Y1867276D01*
G03X-158841Y1846441I22594J-20835D01*
G01X-158841Y1765793D01*
G03X-128107Y1735059I30734J0D01*
G01X-41707Y1735059D01*
G03X-10973Y1765793I0J30734D01*
G01X-10973Y1846441D01*
G03X-41707Y1877175I-30734J0D01*
G01X-43883Y1877175D01*
G03X-54194Y1893619I-41024J-14268D01*
G01X-104682Y1944107D01*
G03X-135395Y1956829I-30712J-30712D01*
G01X-185966Y1956829D01*
G01X-185966Y1968395D01*
G03X-216700Y1999129I-30734J0D01*
G01X-316700Y1999129D01*
G03X-347434Y1968395I0J-30734D01*
G01X-347434Y1956829D01*
G01X-385305Y1956829D01*
G03X-416018Y1944107I0J-43434D01*
G01X-475212Y1884912D01*
G01X-215468Y650672D02*
G03X-207093Y649872I8375J43434D01*
G01X-84093Y649872D01*
G03X-84093Y738340I0J44234D01*
G01X-207093Y738340D01*
G03X-215468Y737540I0J-44234D01*
G01X-343643Y737540D01*
G01X-343643Y751435D01*
G03X-374377Y782169I-30734J0D01*
G01X-464377Y782169D01*
G03X-495111Y751435I0J-30734D01*
G01X-495111Y671435D01*
G03X-464377Y640701I30734J0D01*
G01X-374377Y640701D01*
G03X-351717Y650672I0J30734D01*
G01X-215468Y650672D01*
G01X89667Y-1499908D02*
G03X79756Y-1515251I30712J-30712D01*
G01X70380Y-1515251D01*
G03X39646Y-1545985I0J-30734D01*
G01X39646Y-1557551D01*
G01X682Y-1557551D01*
G03X8914Y-1536616I-22502J20935D01*
G01X8914Y-1455969D01*
G03X-21820Y-1425235I-30734J0D01*
G01X-108221Y-1425235D01*
G03X-138955Y-1455969I0J-30734D01*
G01X-138955Y-1536616D01*
G03X-108221Y-1567350I30734J0D01*
G01X-107923Y-1567350D01*
G03X-95733Y-1591292I42903J6770D01*
G01X-55328Y-1631697D01*
G03X-24615Y-1644419I30712J30712D01*
G01X39646Y-1644419D01*
G01X39646Y-1655985D01*
G03X70380Y-1686719I30734J0D01*
G01X170379Y-1686719D01*
G03X201113Y-1655985I0J30734D01*
G01X201113Y-1545985D01*
G03X200858Y-1542034I-30734J0D01*
G01X231124Y-1542034D01*
G03X261366Y-1568793I30476J3974D01*
G01X261366Y-1628140D01*
G03X304800Y-1719834I43434J-35560D01*
G03X348234Y-1628140I0J56134D01*
G01X348234Y-1568793D01*
G03X378734Y-1538060I-234J30733D01*
G01X378734Y-1457413D01*
G03X348000Y-1426679I-30734J0D01*
G01X261600Y-1426679D01*
G03X230948Y-1455166I0J-30734D01*
G01X152400Y-1455166D01*
G03X121688Y-1467888I0J-43434D01*
G01X89667Y-1499908D01*
G01X475212Y1999212D02*
G03X444500Y2011934I-30712J-30712D01*
G01X384439Y2011934D01*
G01X384439Y2019300D01*
G03X353705Y2050034I-30734J0D01*
G01X253705Y2050034D01*
G03X222971Y2019300I0J-30734D01*
G01X222971Y1909300D01*
G03X253705Y1878566I30734J0D01*
G01X353705Y1878566D01*
G03X384439Y1909300I0J30734D01*
G01X384439Y1925066D01*
G01X426509Y1925066D01*
G01X427024Y1924551D01*
G03X415171Y1900300I18880J-24251D01*
G01X415171Y1819652D01*
G03X445905Y1788918I30734J0D01*
G01X532305Y1788918D01*
G03X562881Y1816542I0J30734D01*
G01X573923Y1816542D01*
G03X604500Y1788918I30576J3110D01*
G01X690900Y1788918D01*
G03X721477Y1816542I0J30734D01*
G01X726440Y1816542D01*
G03X818134Y1859976I35560J43434D01*
G03X726440Y1903410I-56134J0D01*
G01X721477Y1903410D01*
G03X690900Y1931034I-30576J-3110D01*
G01X604500Y1931034D01*
G03X573923Y1903410I0J-30734D01*
G01X562881Y1903410D01*
G03X532305Y1931034I-30576J-3110D01*
G01X531948Y1931034D01*
G03X519817Y1954608I-42843J-7139D01*
G01X475212Y1999212D01*
G01X824048Y-1693623D02*
G03X867512Y-1693623I21732J21732D01*
G01X938223Y-1622912D01*
G03X938223Y-1579448I-21732J21732D01*
G01X740233Y-1381458D01*
G03X696769Y-1381458I-21732J-21732D01*
G01X626058Y-1452169D01*
G03X626058Y-1495633I21732J-21732D01*
G01X824048Y-1693623D01*
G01X1350848Y-1166823D02*
G03X1394312Y-1166823I21732J21732D01*
G01X1465023Y-1096112D01*
G03X1465023Y-1052648I-21732J21732D01*
G01X1267033Y-854658D01*
G03X1223569Y-854658I-21732J-21732D01*
G01X1152858Y-925369D01*
G03X1152858Y-968833I21732J-21732D01*
G01X1350848Y-1166823D01*
G01X1293807Y-277807D02*
G03X1327932Y-373357I39693J-39693D01*
G01X1426100Y-471525D01*
G03X1526266Y-476244I51271J22854D01*
G03X1470397Y-392972I-48895J27573D01*
G01X1389357Y-311932D01*
G03X1293807Y-277807I-55857J-5568D01*
G01X1660906Y-127000D02*
G03X1672884Y-155916I40894J0D01*
G01X1735520Y-218553D01*
G03X1764436Y-230530I28916J28916D01*
G01X1767571Y-230530D01*
G03X1798300Y-260694I30729J570D01*
G01X1884700Y-260694D01*
G03X1915277Y-233070I0J30734D01*
G01X1925746Y-233070D01*
G03X1941692Y-237531I15946J26274D01*
G01X2111691Y-237531D01*
G03X2142425Y-206797I0J30734D01*
G01X2142425Y-146797D01*
G03X2111691Y-116063I-30734J0D01*
G01X1941692Y-116063D01*
G03X1912691Y-136620I0J-30734D01*
G03X1884700Y-118579I-27991J-12692D01*
G01X1798300Y-118579D01*
G03X1769987Y-137355I0J-30734D01*
G01X1742694Y-110061D01*
G01X1742694Y-78414D01*
G03X1753464Y-79858I10770J39450D01*
G01X1767571Y-79858D01*
G03X1798300Y-110021I30729J570D01*
G01X1884700Y-110021D01*
G03X1912691Y-91980I0J30734D01*
G03X1941692Y-112537I29000J10176D01*
G01X2111691Y-112537D01*
G03X2142425Y-81803I0J30734D01*
G01X2142425Y-21803D01*
G03X2111691Y8931I-30734J0D01*
G01X1941692Y8931D01*
G03X1925746Y4470I0J-30734D01*
G01X1915277Y4470D01*
G03X1884700Y32094I-30576J-3110D01*
G01X1798300Y32094D01*
G03X1780794Y26621I0J-30734D01*
G01X1780794Y249761D01*
G01X1782239Y251206D01*
G01X1791058Y251206D01*
G03X1835147Y231966I44089J40894D01*
G01X1980847Y231966D01*
G03X1980847Y352235I0J60135D01*
G01X1835147Y352235D01*
G03X1791058Y332994I0J-60134D01*
G01X1765300Y332994D01*
G03X1743313Y326581I0J-40894D01*
G01X1792970Y376237D01*
G03X1835147Y358966I42177J42863D01*
G01X1980847Y358966D01*
G03X2039452Y405624I0J60135D01*
G03X2103946Y420340I22158J51576D01*
G03X2188619Y420340I42336J36860D01*
G03X2273291Y420340I42336J36860D01*
G03X2357964Y420340I42336J36860D01*
G03X2456434Y457200I42336J36860D01*
G03X2357964Y494060I-56134J0D01*
G03X2273291Y494060I-42336J-36860D01*
G03X2188619Y494060I-42336J-36860D01*
G03X2103946Y494060I-42336J-36860D01*
G03X2007716Y472898I-42336J-36860D01*
G03X1980847Y479235I-26869J-53798D01*
G01X1835147Y479235D01*
G03X1791058Y459994I0J-60134D01*
G01X1778000Y459994D01*
G03X1749084Y448016I0J-40894D01*
G01X1672884Y371816D01*
G03X1660906Y342900I28916J-28916D01*
G01X1660906Y-127000D01*
G01X1835147Y485966D02*
G01X1980847Y485966D01*
G03X1980847Y606235I0J60135D01*
G01X1835147Y606235D01*
G03X1835147Y485966I0J-60134D01*
G01X2176683Y-281076D02*
G03X2145949Y-311810I0J-30734D01*
G01X2145949Y-411810D01*
G03X2176683Y-442544I30734J0D01*
G01X2456683Y-442544D01*
G03X2487417Y-411810I0J30734D01*
G01X2487417Y-311810D01*
G03X2456683Y-281076I-30734J0D01*
G01X2176683Y-281076D01*
G01X2176683Y213919D02*
G03X2145949Y183185I0J-30734D01*
G01X2145949Y83185D01*
G03X2176683Y52451I30734J0D01*
G01X2456683Y52451D01*
G03X2487417Y83185I0J30734D01*
G01X2487417Y183185D01*
G03X2456683Y213919I-30734J0D01*
G01X2176683Y213919D01*
G01X-1340866Y635000D02*
G03X-1353588Y665712I-43434J0D01*
G01X-1384625Y696750D01*
G03X-1409540Y709083I-30712J-30712D01*
G03X-1437164Y739807I-30811J77D01*
G01X-1437164Y770166D01*
G01X-1333605Y770166D01*
G03X-1302871Y800900I0J30734D01*
G01X-1302871Y851339D01*
G01X-1161007Y709475D01*
G03X-1122032Y657744I56107J1725D01*
G01X-1294515Y485262D01*
G03X-1307236Y454549I30712J-30712D01*
G01X-1307236Y452039D01*
G01X-1308802Y452039D01*
G03X-1339536Y421305I0J-30734D01*
G01X-1339536Y341305D01*
G03X-1315468Y311302I30734J0D01*
G03X-1339536Y281300I6666J-30002D01*
G01X-1339536Y201300D01*
G03X-1308802Y170566I30734J0D01*
G01X-1307236Y170566D01*
G01X-1307236Y108102D01*
G03X-1305870Y97295I43434J0D01*
G01X-1340866Y132291D01*
G01X-1340866Y635000D01*
G01X-1006627Y650299D02*
G01X-1006627Y563346D01*
G03X-1072134Y508000I-9373J-55346D01*
G03X-1006627Y452654I56134J0D01*
G01X-1006627Y331452D01*
G01X-1087192Y412017D01*
G03X-1117905Y424739I-30712J-30712D01*
G01X-1188261Y424739D01*
G03X-1207173Y449754I-30542J-3434D01*
G01X-1006627Y650299D01*
G01X-426658Y-135475D02*
G03X-428625Y-122370I-56107J-1725D01*
G03X-423262Y-117856I-23553J33430D01*
G01X-325402Y-19997D01*
G03X-240811Y-25205I44558J34141D01*
G03X-247477Y59284I-40034J39349D01*
G03X-241046Y81298I-34463J22014D01*
G01X-241046Y115743D01*
G03X-207093Y99860I33953J28352D01*
G01X-91694Y99860D01*
G01X-91694Y4239D01*
G01X-217625Y-121693D01*
G03X-269241Y-195286I1725J-56107D01*
G01X-366846Y-195286D01*
G01X-426658Y-135475D01*
G01X199801Y314706D02*
G01X266346Y314706D01*
G03X340106Y311959I38454J40894D01*
G01X340106Y233801D01*
G01X340106Y233547D01*
G03X275229Y189458I-9899J-55212D01*
G03X317972Y123616I55032J-11070D01*
G03X321399Y96442I55724J-6776D01*
G03X260160Y55607I-17005J-40835D01*
G01X260160Y-67393D01*
G03X263500Y-84255I44234J0D01*
G01X263500Y-96872D01*
G03X247589Y-135095I40215J-39163D01*
G01X245288Y-134324D01*
G01X245288Y-84255D01*
G03X248628Y-67393I-40894J16862D01*
G01X248628Y55607D01*
G03X179400Y92103I-44234J0D01*
G03X129400Y92094I-24994J-36496D01*
G03X60160Y55607I-25006J-36488D01*
G01X60160Y-67393D01*
G03X129400Y-103880I44234J0D01*
G03X163500Y-110682I25006J36488D01*
G01X163500Y-127775D01*
G03X113946Y-141906I-11100J-55026D01*
G01X85439Y-141906D01*
G01X45288Y-101755D01*
G01X45288Y-84255D01*
G03X48628Y-67393I-40894J16862D01*
G01X48628Y55607D01*
G03X-9906Y97466I-44234J0D01*
G01X-9906Y104999D01*
G01X199801Y314706D01*
G01X53594Y284165D02*
G01X53594Y431446D01*
G03X57496Y436072I-40894J38454D01*
G03X113897Y432339I31404J46528D01*
G03X144952Y479567I-24997J50261D01*
G03X182072Y496392I-3033J56052D01*
G03X198027Y533894I-40153J39227D01*
G01X267332Y603199D01*
G01X599604Y603199D01*
G03X606406Y569100I43289J-9093D01*
G03X606397Y519100I36488J-25006D01*
G03X606406Y469100I36496J-24994D01*
G03X606397Y419100I36488J-25006D01*
G03X598709Y391999I36496J-24994D01*
G03X564134Y398549I-27209J-49099D01*
G01X564134Y505460D01*
G03X552156Y534376I-40894J0D01*
G01X551407Y535125D01*
G03X459814Y576895I-56107J-1725D01*
G03X482346Y478781I35486J-43495D01*
G01X482346Y280322D01*
G01X472694Y280322D01*
G01X472694Y436550D01*
G03X460716Y465467I-40894J0D01*
G01X439482Y486700D01*
G03X348800Y529197I-56107J-1726D01*
G03X264061Y499784I-31300J-46597D01*
G03X315775Y426493I53439J-17184D01*
G01X340106Y402161D01*
G01X340106Y399241D01*
G03X266346Y396494I-35306J-43641D01*
G01X182862Y396494D01*
G03X153945Y384516I0J-40894D01*
G01X53594Y284165D01*
G01X498640Y782593D02*
G01X498640Y905593D01*
G03X479345Y942126I-44234J0D01*
G01X513512Y942126D01*
G01X513512Y922455D01*
G03X510172Y905593I40894J-16862D01*
G01X510172Y782593D01*
G03X518177Y757214I44234J0D01*
G01X490635Y757214D01*
G03X498640Y782593I-36229J25379D01*
G04 Copper End*

G04 Pad Start*
G54D11*
G01X-1558869Y1552394D03*
G01X-1552392Y-1558873D03*
G01X1552392Y1558871D03*
G01X1558869Y-1552391D03*
G54D12*
G01X-723900Y-514198D03*
G01X-723900Y-654202D03*
G01X-914400Y-514198D03*
G01X-914400Y-654202D03*
G01X-1270000Y-247802D03*
G01X-1270000Y-107798D03*
G01X-1263802Y241300D03*
G01X-1263802Y381305D03*
G54D13*
G01X869798Y-203200D03*
G01X1009802Y-203200D03*
G54D12*
G01X1282700Y-6198D03*
G01X1282700Y-146202D03*
G54D14*
G01X1039800Y990600D03*
G01X839800Y990600D03*
G54D13*
G01X882508Y1638292D03*
G01X1022513Y1638292D03*
G54D15*
G01X120379Y-1600985D03*
G01X120379Y-1253995D03*
G01X-502362Y-1614232D03*
G01X-502362Y-1267243D03*
G54D16*
G01X-1862700Y-329085D03*
G01X-1515711Y-329085D03*
G01X-1735595Y850900D03*
G01X-1388605Y850900D03*
G54D15*
G01X-266700Y1913395D03*
G01X-266700Y1566405D03*
G01X303705Y1964300D03*
G01X303705Y1617311D03*
G54D18*
G01X1045842Y649051D03*
G01X1045842Y789030D03*
G54D19*
G01X-216764Y-660400D03*
G01X-367436Y-660400D03*
G54D20*
G01X-65020Y-1496292D03*
G01X-65020Y-1345620D03*
G01X-686667Y-1509434D03*
G01X-686667Y-1358762D03*
G54D19*
G01X-1771076Y-514505D03*
G01X-1620403Y-514505D03*
G01X-1631271Y666038D03*
G01X-1480598Y666038D03*
G54D20*
G01X-84907Y1806117D03*
G01X-84907Y1655444D03*
G01X489105Y1859976D03*
G01X489105Y1709303D03*
G01X1841500Y-38964D03*
G01X1841500Y-189636D03*
G54D19*
G01X646836Y1181100D03*
G01X496164Y1181100D03*
G01X646836Y1333500D03*
G01X496164Y1333500D03*
G01X495300Y1486764D03*
G01X645973Y1486764D03*
G01X-216764Y-355600D03*
G01X-367436Y-355600D03*
G01X-367436Y-508000D03*
G01X-216764Y-508000D03*
G54D21*
G01X-838200Y-76200D03*
G54D22*
G01X-597459Y-201193D03*
G01X-597459Y-151206D03*
G01X-597459Y-101194D03*
G01X-597459Y-51206D03*
G01X-597459Y-1194D03*
G01X-597459Y48793D03*
G54D23*
G01X-663194Y114554D03*
G01X-713207Y114554D03*
G01X-763194Y114554D03*
G01X-813206Y114554D03*
G01X-863194Y114554D03*
G01X-913206Y114554D03*
G01X-963193Y114554D03*
G01X-1013206Y114554D03*
G54D22*
G01X-1078941Y48793D03*
G01X-1078941Y-1194D03*
G01X-1078941Y-51206D03*
G01X-1078941Y-101194D03*
G01X-1078941Y-151206D03*
G01X-1078941Y-201193D03*
G54D23*
G01X-1013206Y-266954D03*
G01X-963193Y-266954D03*
G01X-913206Y-266954D03*
G01X-863194Y-266954D03*
G01X-813206Y-266954D03*
G01X-763194Y-266954D03*
G01X-713207Y-266954D03*
G01X-663194Y-266954D03*
G54D24*
G01X941725Y1340396D03*
G54D25*
G01X1039211Y1481646D03*
G01X974237Y1481646D03*
G01X909213Y1481646D03*
G01X844240Y1481646D03*
G01X844240Y1199147D03*
G01X909213Y1199147D03*
G01X974237Y1199147D03*
G01X1039211Y1199147D03*
G54D26*
G01X923303Y262395D03*
G01X923303Y42405D03*
G01X1083297Y42405D03*
G01X1083297Y262395D03*
G54D20*
G01X304800Y-1497736D03*
G01X304800Y-1347064D03*
G01X-845262Y-1509434D03*
G01X-845262Y-1358762D03*
G54D19*
G01X-1631271Y508000D03*
G01X-1480598Y508000D03*
G01X-1771076Y-673100D03*
G01X-1620403Y-673100D03*
G54D20*
G01X-444500Y1802536D03*
G01X-444500Y1651864D03*
G01X647700Y1859976D03*
G01X647700Y1709303D03*
G54D27*
G01X2026691Y-51803D03*
G01X2026691Y-176797D03*
G54D28*
G01X2316683Y133185D03*
G01X2316683Y-361810D03*
G54D19*
G01X2170836Y-876300D03*
G01X2020164Y-876300D03*
G01X1857911Y-878733D03*
G01X1707238Y-878733D03*
G54D29*
G01X2349500Y-523494D03*
G01X2349500Y-873506D03*
G54D13*
G01X1009802Y-381000D03*
G01X869798Y-381000D03*
G01X-40645Y-350609D03*
G01X99360Y-350609D03*
G01X414957Y-350609D03*
G01X274952Y-350609D03*
G01X192126Y1179300D03*
G01X332130Y1179300D03*
G54D12*
G01X-419377Y851440D03*
G01X-419377Y711435D03*
G54D30*
G01X-2090164Y698936D03*
G01X-1991165Y797934D03*
G54D19*
G01X864464Y-546100D03*
G01X1015136Y-546100D03*
G01X-126136Y1181100D03*
G01X24536Y1181100D03*
G54D31*
G01X-1844598Y1178226D03*
G01X-1986019Y1036805D03*
G54D32*
G01X-2200876Y812522D03*
G01X-2094334Y919064D03*
G54D33*
G01X704393Y694106D03*
G01X704393Y644093D03*
G01X704393Y594106D03*
G01X704393Y544093D03*
G01X704393Y494106D03*
G01X704393Y444094D03*
G01X704393Y394106D03*
G01X704393Y344094D03*
G01X704393Y294107D03*
G01X704393Y244094D03*
G01X704393Y194107D03*
G01X704393Y144094D03*
G54D34*
G01X554406Y-5893D03*
G01X504393Y-5893D03*
G01X454406Y-5893D03*
G01X404393Y-5893D03*
G01X354406Y-5893D03*
G01X304394Y-5893D03*
G01X254406Y-5893D03*
G01X204394Y-5893D03*
G01X154407Y-5893D03*
G01X104394Y-5893D03*
G01X54407Y-5893D03*
G01X4394Y-5893D03*
G54D33*
G01X-145593Y144094D03*
G01X-145593Y194107D03*
G01X-145593Y244094D03*
G01X-145593Y294107D03*
G01X-145593Y344094D03*
G01X-145593Y394106D03*
G01X-145593Y444094D03*
G01X-145593Y494106D03*
G01X-145593Y544093D03*
G01X-145593Y594106D03*
G01X-145593Y644093D03*
G01X-145593Y694106D03*
G54D34*
G01X4394Y844093D03*
G01X54407Y844093D03*
G01X104394Y844093D03*
G01X154407Y844093D03*
G01X204394Y844093D03*
G01X254406Y844093D03*
G01X304394Y844093D03*
G01X354406Y844093D03*
G01X404393Y844093D03*
G01X454406Y844093D03*
G01X504393Y844093D03*
G01X554406Y844093D03*
G54D35*
G01X1907997Y546100D03*
G01X1907997Y419100D03*
G01X1907997Y292100D03*
G01X1907997Y165100D03*
G01X1394003Y546100D03*
G01X1394003Y419100D03*
G01X1394003Y292100D03*
G01X1394003Y165100D03*
G54D36*
G01X-941235Y955484D03*
G01X-852833Y1043886D03*
G01X-764450Y1132269D03*
G01X-676066Y1220653D03*
G54D37*
G01X-782141Y1588340D03*
G01X-1308940Y1061541D03*
G54D36*
G01X941235Y-904684D03*
G01X852833Y-993086D03*
G01X764450Y-1081469D03*
G01X676066Y-1169853D03*
G54D37*
G01X782141Y-1537540D03*
G01X1308940Y-1010741D03*
G04 Pad End*

G04 Via Start*
G54D38*
G01X-1766697Y1551703D03*
G01X-1760220Y-1559558D03*
G01X-1706316Y1698860D03*
G01X-1705341Y1404952D03*
G01X-1699834Y-1412401D03*
G01X-1698864Y-1706315D03*
G01X-1559560Y1760222D03*
G01X-1558183Y1344566D03*
G01X-1553083Y-1351045D03*
G01X-1551701Y-1766695D03*
G01X-1412402Y1699836D03*
G01X-1411427Y1405922D03*
G01X-1405925Y-1411426D03*
G01X-1404950Y-1705339D03*
G01X-1351041Y1553085D03*
G01X-1344564Y-1558182D03*
G01X1344564Y1558180D03*
G01X1351041Y-1553081D03*
G01X1404950Y1705337D03*
G01X1405926Y1411429D03*
G01X1411427Y-1405924D03*
G01X1412403Y-1699838D03*
G01X1551701Y1766699D03*
G01X1553083Y1351043D03*
G01X1558178Y-1344563D03*
G01X1559560Y-1760218D03*
G01X1698859Y1706313D03*
G01X1699834Y1412404D03*
G01X1705341Y-1404949D03*
G01X1706316Y-1698862D03*
G01X1760220Y1559562D03*
G01X1766697Y-1551705D03*
G01X762000Y1859976D03*
G01X-1559879Y812800D03*
G01X-1862700Y-254000D03*
G01X-952500Y-1295400D03*
G01X304800Y-1663700D03*
G01X-444499Y1647699D03*
G01X-266700Y1917700D03*
G01X-1427747Y-604235D03*
G01X1104900Y1714500D03*
G01X1104900Y1635098D03*
G01X1104900Y1555696D03*
G01X1104900Y1477444D03*
G01X985520Y1714500D03*
G01X985520Y1635098D03*
G01X-1275746Y-107798D03*
G01X425726Y-1331395D03*
G01X1879600Y914400D03*
G01X1879600Y832005D03*
G01X2467686Y783828D03*
G01X2467686Y858849D03*
G01X2467686Y931002D03*
G01X2389543Y783828D03*
G01X2389543Y858849D03*
G01X2389543Y931002D03*
G01X2311400Y783828D03*
G01X1879600Y749610D03*
G01X1230477Y1311656D03*
G01X1230477Y1227328D03*
G01X1315375Y1227328D03*
G01X1230477Y1143000D03*
G01X1315375Y1143000D03*
G01X1315375Y1058672D03*
G01X1230477Y1058672D03*
G01X-1351235Y714375D03*
G01X-1297260Y660400D03*
G01X-1243285Y606425D03*
G01X-1141685Y504825D03*
G01X-1297947Y549943D03*
G01X985520Y1555696D03*
G01X-1476433Y508001D03*
G01X863600Y1294371D03*
G01X939800Y1294371D03*
G01X1016000Y1294371D03*
G01X1016000Y1384300D03*
G01X939800Y1384300D03*
G01X1088146Y-1147086D03*
G01X1035384Y-1199609D03*
G01X983628Y-1159786D03*
G01X1035384Y-1098945D03*
G01X673100Y-900019D03*
G01X722775Y-945211D03*
G01X1039800Y990600D03*
G01X1714500Y1016000D03*
G01X1714500Y1092200D03*
G01X1714500Y939800D03*
G01X1803400Y863600D03*
G01X1803400Y939800D03*
G01X1803400Y1016000D03*
G01X1803400Y1092200D03*
G01X1803400Y1168400D03*
G01X1714500Y1168400D03*
G01X1803400Y1244600D03*
G01X1892300Y1320800D03*
G01X1892300Y1168400D03*
G01X1892300Y1244600D03*
G01X1981200Y1320800D03*
G01X1981200Y1244600D03*
G01X2451100Y38100D03*
G01X2374900Y38100D03*
G01X2298700Y38100D03*
G01X2451100Y-38100D03*
G01X2374900Y-38100D03*
G01X2298700Y-38100D03*
G01X647700Y1333500D03*
G01X1266582Y-840272D03*
G01X1447800Y-952500D03*
G01X1518873Y-952500D03*
G01X-330200Y183998D03*
G01X1587500Y-952500D03*
G01X2400300Y457200D03*
G01X2315628Y457200D03*
G01X2146282Y457200D03*
G01X2061610Y457200D03*
G01X2230955Y457200D03*
G01X1130300Y-127000D03*
G01X914400Y1130300D03*
G01X-762000Y-1676400D03*
G01X-914400Y-1676400D03*
G01X-838200Y-1676400D03*
G01X-762000Y-1612900D03*
G01X-914400Y-1612900D03*
G01X-838200Y-1612900D03*
G01X-685800Y-1612900D03*
G01X-685800Y-1676400D03*
G01X646836Y1168400D03*
G01X1117600Y-508000D03*
G01X-1242597Y716882D03*
G01X-1296572Y770857D03*
G01X-1188622Y662907D03*
G01X-977900Y-1155700D03*
G01X-1041400Y-1092200D03*
G01X-841162Y-114305D03*
G01X-771618Y-114305D03*
G01X-910705Y-114305D03*
G01X-768649Y-25754D03*
G01X-838192Y-25754D03*
G01X-907736Y-25754D03*
G01X496164Y1181100D03*
G01X889000Y1778000D03*
G01X-1371600Y-952500D03*
G01X-1308100Y-1016000D03*
G01X-1397000Y-762000D03*
G01X-1397000Y-851802D03*
G01X-618678Y1292175D03*
G01X762000Y1447800D03*
G01X141919Y535619D03*
G01X-292100Y542366D03*
G01X-482765Y-137200D03*
G01X-482600Y-215900D03*
G01X-812591Y279191D03*
G01X-764531Y228400D03*
G01X622300Y-279400D03*
G01X303715Y-136035D03*
G01X495300Y533400D03*
G01X572567Y276900D03*
G01X454406Y-127000D03*
G01X373695Y116840D03*
G01X698500Y0D03*
G01X330261Y178388D03*
G54D39*
G01X101600Y-342900D03*
G01X279400Y-342900D03*
G54D38*
G01X152400Y-182800D03*
G01X228600Y-187920D03*
G01X-215900Y-177800D03*
G01X304800Y355600D03*
G01X571500Y342900D03*
G01X-806450Y1352550D03*
G01X-1115289Y1115289D03*
G01X-203200Y1016000D03*
G01X-205419Y935081D03*
G01X12700Y469900D03*
G01X-1016000Y508000D03*
G01X-1104900Y711200D03*
G01X50800Y660400D03*
G01X88900Y482600D03*
G01X317500Y482600D03*
G01X383375Y484975D03*
G01X12700Y723900D03*
G01X-50800Y838200D03*
G01X1333500Y-317500D03*
G01X1477371Y-448671D03*
G54D39*
G01X-727803Y-494414D03*
G54D38*
G01X977900Y617240D03*
G01X1041400Y617240D03*
G01X1104445Y617240D03*
G01X1032871Y537571D03*
G01X1104900Y537571D03*
G54D39*
G01X347129Y1181100D03*
G01X-419377Y716438D03*
G01X-453440Y-410241D03*
G01X-165100Y-355600D03*
G54D38*
G01X736600Y2209800D03*
G01X1282321Y1899067D03*
G01X-635000Y355600D03*
G01X-571500Y685800D03*
G01X-1028700Y876300D03*
G54D39*
G01X711200Y-711200D03*
G54D38*
G01X736600Y-533400D03*
G01X192126Y1282700D03*
G01X177800Y1079500D03*
G01X-348414Y809464D03*
G01X-25400Y660400D03*
G01X-596900Y266700D03*
G01X-784397Y556946D03*
G01X609600Y-1028700D03*
G01X1625600Y-878733D03*
G01X1739900Y-266700D03*
G01X1320800Y88900D03*
G01X1092200Y-50800D03*
G01X972223Y292486D03*
G01X177800Y139700D03*
G01X152400Y203200D03*
G01X-40645Y-419100D03*
G01X-114300Y-660400D03*
G01X419100Y-444500D03*
G01X-101600Y-457200D03*
G01X-546100Y-711200D03*
G01X-330200Y-120802D03*
G01X-2005870Y614642D03*
G01X-76200Y-863600D03*
G01X-280844Y14144D03*
G01X419100Y558800D03*
G01X621296Y839204D03*
G01X609600Y939800D03*
G01X558800Y1066400D03*
G01X793189Y720941D03*
G01X1174386Y698500D03*
G01X1130300Y749300D03*
G01X889000Y1968500D03*
G01X939800Y1917700D03*
G01X1003300Y1866900D03*
G01X1244600Y1993900D03*
G01X1181100Y2044700D03*
G01X1130300Y2095500D03*
G01X1066800Y2133600D03*
G01X939800Y1854200D03*
G01X876300Y1905000D03*
G01X-774700Y-977900D03*
G01X-825500Y-927100D03*
G01X-774700Y-876300D03*
G01X-723900Y-927100D03*
G01X-673100Y-876300D03*
G01X-723900Y-825500D03*
G01X-673100Y-774700D03*
G01X-622300Y-825500D03*
G01X1333500Y279400D03*
G01X-118600Y2220001D03*
G01X-33093Y2220001D03*
G01X-118600Y2146300D03*
G01X-33093Y2146300D03*
G01X-118600Y2066300D03*
G01X-33093Y2066300D03*
G01X-1952623Y669715D03*
G01X-1899801Y724524D03*
G01X-1841579Y671646D03*
G01X-1902986Y614771D03*
G01X-1968500Y558800D03*
G04 Via End*

G04 Track Start*
G54D40*
G01X-266700Y1913395D02*
G01X-385305Y1913395D01*
G01X-444500Y1854200D01*
G01X-444500Y1802536D01*
G01X-266700Y1913395D02*
G01X-135395Y1913395D01*
G01X-84907Y1862907D02*
G01X-84907Y1806117D01*
G01X-135395Y1913395D02*
G01X-84907Y1862907D01*
G01X303705Y1617311D02*
G01X448911Y1617311D01*
G01X489105Y1657505D01*
G01X489105Y1709303D01*
G01X647700Y1859976D02*
G01X489105Y1859976D01*
G01X489105Y1923895D01*
G01X444500Y1968500D01*
G01X307905Y1968500D01*
G01X303705Y1964300D01*
G01X647700Y1859976D02*
G01X762000Y1859976D01*
G01X-1735595Y850900D02*
G01X-1735595Y681495D01*
G01X-1720138Y666038D02*
G01X-1631271Y666038D01*
G01X-1735595Y681495D02*
G01X-1720138Y666038D01*
G01X-1631271Y666038D02*
G01X-1631271Y508000D01*
G01X-1388605Y850900D02*
G01X-1460500Y850900D01*
G01X-1480598Y830802D01*
G01X-1480598Y666038D01*
G01X-1559879Y812800D02*
G01X-1597979Y850900D01*
G01X-1735595Y850900D01*
G01X-1771076Y-673100D02*
G01X-1771076Y-514505D01*
G01X-1862700Y-329085D02*
G01X-1862700Y-486800D01*
G01X-1834995Y-514505D02*
G01X-1771076Y-514505D01*
G01X-1862700Y-486800D02*
G01X-1834995Y-514505D01*
G01X-845262Y-1509434D02*
G01X-686667Y-1509434D01*
G01X-522566Y-1509434D01*
G01X-502362Y-1529638D02*
G01X-502362Y-1614232D01*
G01X-522566Y-1509434D02*
G01X-502362Y-1529638D01*
G01X-845262Y-1509434D02*
G01X-916266Y-1509434D01*
G01X-952500Y-1473200D01*
G01X-952500Y-1295400D01*
G01X120379Y-1600985D02*
G01X-24615Y-1600985D01*
G01X-65020Y-1560580D02*
G01X-65020Y-1496292D01*
G01X-24615Y-1600985D02*
G01X-65020Y-1560580D01*
G01X304800Y-1663700D02*
G01X304800Y-1497736D01*
G01X303936Y-1498600D01*
G01X152400Y-1498600D01*
G01X120379Y-1530621D01*
G01X120379Y-1600985D01*
G01X-65020Y-1345620D02*
G01X88900Y-1345620D01*
G01X120379Y-1314140D01*
G01X120379Y-1253995D01*
G01X-686667Y-1358762D02*
G01X-520562Y-1358762D01*
G01X-502362Y-1340562D01*
G01X-502362Y-1267243D01*
G01X-1515711Y-329085D02*
G01X-1515711Y-487011D01*
G01X-1549400Y-520700D01*
G01X-1614208Y-520700D01*
G01X-1620403Y-514505D01*
G01X-266700Y1566405D02*
G01X-114300Y1566405D01*
G01X-84907Y1595798D01*
G01X-84907Y1655444D01*
G01X-1427747Y-604235D02*
G01X-1426760Y-605222D01*
G01X425726Y-1331395D02*
G01X410057Y-1347064D01*
G01X304800Y-1347064D01*
G01X-1268806Y-1194D02*
G01X-1384300Y114300D01*
G01X-1384300Y635000D01*
G01X-1415338Y666038D01*
G01X-1426760Y-605222D02*
G01X-1426760Y-652060D01*
G01X-1447800Y-673100D01*
G01X-1620403Y-673100D01*
G01X-1078941Y-151206D02*
G01X-1080135Y-152400D01*
G01X-1143000Y-152400D01*
G01X-1160961Y-170361D01*
G01X-1160961Y-228600D01*
G01X-1178921Y-246561D01*
G01X-1268758Y-246561D01*
G01X-1270000Y-247802D01*
G01X-1078941Y-101194D02*
G01X-1263396Y-101194D01*
G01X-1270000Y-107798D01*
G01X-1078941Y-51206D02*
G01X-1202135Y-51206D01*
G01X-1213444Y-39898D01*
G01X-1511300Y-324674D02*
G01X-1515711Y-329085D01*
G01X-1511300Y-152400D02*
G01X-1511300Y-324674D01*
G01X-1398798Y-39898D02*
G01X-1511300Y-152400D01*
G01X-1213444Y-39898D02*
G01X-1398798Y-39898D01*
G01X-1078941Y-1194D02*
G01X-1268806Y-1194D01*
G01X-1415338Y666038D02*
G01X-1480598Y666038D01*
G01X-1078941Y48793D02*
G01X-1204493Y48793D01*
G01X-1263802Y108102D02*
G01X-1263802Y241300D01*
G01X-1204493Y48793D02*
G01X-1263802Y108102D01*
G01X-1013206Y114554D02*
G01X-1013206Y276606D01*
G01X-1117905Y381305D02*
G01X-1263802Y381305D01*
G01X-1013206Y276606D02*
G01X-1117905Y381305D01*
G01X-38100Y1460500D02*
G01X118711Y1617311D01*
G01X303705Y1617311D01*
G01X-913206Y-266954D02*
G01X-913206Y-513004D01*
G01X-914400Y-514198D01*
G01X-963193Y-266954D02*
G01X-963193Y-404393D01*
G01X-1003300Y-444500D01*
G01X-1003300Y-609600D01*
G01X-958698Y-654202D01*
G01X-914400Y-654202D01*
G01X762000Y1447800D02*
G01X723036Y1486764D01*
G01X-812800Y-1092200D02*
G01X215900Y-1092200D01*
G01X304800Y-1181100D01*
G01X304800Y-1347064D01*
G01X-1013206Y-955294D02*
G01X-825500Y-1143000D01*
G01X-1013206Y-266954D02*
G01X-1013206Y-404060D01*
G01X-1038900Y-429754D01*
G01X-1038900Y-624346D01*
G01X-1013206Y-650040D01*
G01X-1013206Y-955294D01*
G01X-825500Y-1143000D02*
G01X101600Y-1143000D01*
G01X127000Y-1168400D01*
G01X127000Y-1247375D01*
G01X120379Y-1253995D01*
G01X723036Y1486764D02*
G01X645973Y1486764D01*
G01X-1078941Y-201193D02*
G01X-1078941Y-953059D01*
G01X-764757Y-1267243D01*
G01X-502362Y-1267243D01*
G01X844240Y1481646D02*
G01X725686Y1600200D01*
G01X533400Y1600200D02*
G01X495300Y1562100D01*
G01X495300Y1486764D01*
G01X725686Y1600200D02*
G01X533400Y1600200D01*
G01X974237Y1199147D02*
G01X977900Y1195484D01*
G01X977900Y1117600D01*
G01X2026691Y-176797D02*
G01X2013852Y-189636D01*
G01X1841500Y-189636D01*
G01X2026691Y-51803D02*
G01X2013852Y-38964D01*
G01X1841500Y-38964D01*
G01X909213Y1199147D02*
G01X909213Y1135487D01*
G01X914400Y1130300D01*
G01X496164Y1333500D02*
G01X646836Y1182827D01*
G01X646836Y1168400D01*
G01X-845262Y-1358762D02*
G01X-845262Y-1288338D01*
G01X-977900Y-1155700D01*
G01X-914400Y-654202D02*
G01X-939800Y-679602D01*
G01X-939800Y-965200D01*
G01X-812800Y-1092200D01*
G01X-863194Y-51206D02*
G01X-838200Y-76200D01*
G01X647700Y1709303D02*
G01X667903Y1689100D01*
G01X749300Y1689100D01*
G01X800108Y1638292D01*
G01X882508Y1638292D01*
G01X-663194Y-266954D02*
G01X-663194Y-180594D01*
G01X-863194Y114554D02*
G01X-863194Y-51206D01*
G01X-663194Y-180594D02*
G01X-767588Y-76200D01*
G01X-838200Y-76200D01*
G01X-913206Y114554D02*
G01X-913206Y642090D01*
G01X-94796Y1460500D01*
G01X-38100Y1460500D01*
G54D10*
G01X-683142Y1227711D02*
G01X-618678Y1292175D01*
G01X846595Y42405D02*
G01X838200Y50800D01*
G01X923303Y42405D02*
G01X846595Y42405D01*
G01X838200Y50800D02*
G01X838200Y431800D01*
G01X823831Y446169D01*
G01X706468Y446169D01*
G01X704393Y444094D01*
G01X1282700Y-6198D02*
G01X1276502Y0D01*
G01X1219200Y0D01*
G01X869798Y-203200D02*
G01X869798Y-133502D01*
G01X914400Y-88900D01*
G01X914400Y33503D01*
G01X923303Y42405D01*
G01X-597459Y-1194D02*
G01X-469900Y-1194D01*
G01X-431800Y36906D01*
G01X-431800Y228600D02*
G01X-266700Y393700D01*
G01X-145999Y393700D01*
G01X-145593Y394106D01*
G01X-431800Y36906D02*
G01X-431800Y228600D01*
G01X-597459Y48793D02*
G01X-497307Y48793D01*
G01X-469900Y76200D01*
G01X-469900Y279400D01*
G01X-305206Y444094D01*
G01X-145593Y444094D01*
G01X-500420Y159980D02*
G01X-546100Y114300D01*
G01X-145593Y494106D02*
G01X-298356Y494106D01*
G01X-500420Y292042D01*
G01X-500420Y159980D01*
G01X-662940Y114300D02*
G01X-663194Y114554D01*
G01X-662940Y114300D02*
G01X-546100Y114300D01*
G01X-713207Y163093D02*
G01X-713207Y114554D01*
G01X-713207Y163093D02*
G01X-685800Y190500D01*
G01X-571500Y190500D01*
G01X-533400Y228600D01*
G01X-533400Y317500D01*
G01X-308534Y542366D01*
G01X-292100Y542366D01*
G01X-764531Y228400D02*
G01X-764531Y115891D01*
G01X-763194Y114554D01*
G01X-813206Y114554D02*
G01X-812591Y115169D01*
G01X-812591Y208211D01*
G01X-812791Y208411D01*
G01X-812791Y248390D01*
G01X-812591Y248590D01*
G01X-812591Y279191D01*
G01X-597459Y-51206D02*
G01X-457606Y-51206D01*
G01X-381000Y25400D01*
G01X-381000Y215900D01*
G01X-252806Y344094D02*
G01X-145593Y344094D01*
G01X-381000Y215900D02*
G01X-252806Y344094D01*
G01X-145593Y294107D02*
G01X-251993Y294107D01*
G01X-502755Y-88940D02*
G01X-515009Y-101194D01*
G01X-597459Y-101194D01*
G01X-251993Y294107D02*
G01X-281940Y264160D01*
G01X-281940Y81298D01*
G01X-452178Y-88940D01*
G01X-502755Y-88940D01*
G01X2020164Y-876300D02*
G01X1860344Y-876300D01*
G01X1857911Y-878733D01*
G01X404393Y-5893D02*
G01X404393Y-154407D01*
G01X354406Y-5893D02*
G01X354406Y-153594D01*
G01X622300Y-609600D02*
G01X662940Y-650240D01*
G01X743890Y-650240D01*
G01X792150Y-698500D01*
G01X1727200Y-698500D01*
G01X1857911Y-829211D01*
G01X1857911Y-878733D01*
G01X454406Y-5893D02*
G01X454406Y-127000D01*
G01X303715Y-136035D02*
G01X304394Y-135356D01*
G01X304394Y-5893D01*
G01X274952Y-350609D02*
G01X279400Y-346161D01*
G01X279400Y-342900D01*
G01X99360Y-350609D02*
G01X101600Y-348368D01*
G01X101600Y-342900D01*
G01X404393Y-154407D02*
G01X292100Y-266700D01*
G01X-431800Y-266700D01*
G01X-482600Y-215900D01*
G01X354406Y-153594D02*
G01X271820Y-236180D01*
G01X-383785Y-236180D01*
G01X-482765Y-137200D01*
G01X204394Y-5893D02*
G01X204394Y-163714D01*
G01X228600Y-187920D01*
G01X154407Y-5893D02*
G01X204394Y-5893D01*
G01X4394Y-5893D02*
G01X4394Y-118694D01*
G01X68500Y-182800D02*
G01X152400Y-182800D01*
G01X4394Y-118694D02*
G01X68500Y-182800D01*
G01X698500Y0D02*
G01X704393Y5893D01*
G01X704393Y144094D01*
G01X-215900Y-177800D02*
G01X-50800Y-12700D01*
G01X571500Y342900D02*
G01X703199Y342900D01*
G01X704393Y344094D01*
G54D40*
G01X-863600Y-368300D02*
G01X-863600Y-267360D01*
G01X-863194Y-266954D01*
G54D10*
G01X-547294Y-151206D02*
G01X-533400Y-165100D01*
G01X-597459Y-151206D02*
G01X-547294Y-151206D01*
G01X-533400Y-165100D02*
G01X-533400Y-304800D01*
G01X-482600Y-355600D01*
G01X-367436Y-355600D01*
G01X-367436Y-508000D01*
G01X-469900Y-622300D02*
G01X-431800Y-660400D01*
G01X-367436Y-660400D01*
G01X304394Y844093D02*
G01X304394Y927506D01*
G54D40*
G01X-963193Y114554D02*
G01X-963193Y675107D01*
G01X-266700Y1371600D01*
G01X-266700Y1566405D01*
G54D10*
G01X-771544Y1139310D02*
G01X-876300Y1244066D01*
G01X-859928Y1050926D02*
G01X-939302Y1130300D01*
G01X-131719Y935081D02*
G01X-205419Y935081D01*
G01X-876300Y1244066D02*
G01X-876300Y1282700D01*
G01X-806450Y1352550D01*
G01X1219200Y0D02*
G01X1166158Y53042D01*
G01X1166158Y242075D01*
G01X1145838Y262395D01*
G01X1083297Y262395D01*
G01X1361059Y165100D02*
G01X1244600Y165100D01*
G01X1841500Y-38964D02*
G01X1753464Y-38964D01*
G01X1739900Y-25400D01*
G01X1739900Y266700D01*
G01X1765300Y292100D01*
G01X1915541Y292100D01*
G01X1915541Y419100D02*
G01X1778000Y419100D01*
G01X1764436Y-189636D02*
G01X1841500Y-189636D01*
G01X1778000Y419100D02*
G01X1701800Y342900D01*
G01X1701800Y-127000D01*
G01X1764436Y-189636D01*
G01X304394Y927506D02*
G01X276499Y955401D01*
G01X-111399Y955401D01*
G01X-131719Y935081D01*
G01X354406Y844093D02*
G01X354406Y940994D01*
G01X332130Y1179300D02*
G01X332130Y1115670D01*
G01X-145593Y144094D02*
G01X-71806Y144094D01*
G01X12700Y228600D02*
G01X12700Y469900D01*
G01X-71806Y144094D02*
G01X12700Y228600D01*
G01X-1927114Y977900D02*
G01X-1986019Y1036805D01*
G01X-1104900Y711200D02*
G01X-1371600Y977900D01*
G01X-1927114Y977900D01*
G54D41*
G01X-1986019Y1036805D02*
G01X-2094334Y928490D01*
G01X-2094334Y919064D01*
G01X-1991165Y815895D01*
G01X-1991165Y797934D01*
G54D10*
G01X203200Y685800D02*
G01X114300Y596900D01*
G01X-142799Y596900D01*
G01X-145593Y594106D01*
G01X203200Y685800D02*
G01X563862Y685800D01*
G01X50800Y660400D02*
G01X106720Y716320D01*
G01X551220Y716320D01*
G01X-145593Y544093D02*
G01X27407Y544093D01*
G01X88900Y482600D01*
G01X771544Y-1088510D02*
G01X771544Y-1062231D01*
G01X657593Y-948279D01*
G01X653110Y-948279D01*
G01X859928Y-1000126D02*
G01X571500Y-711698D01*
G01X622300Y-279400D02*
G01X622300Y-609600D01*
G01X571500Y-203200D02*
G01X635000Y-139700D01*
G01X571500Y-203200D02*
G01X571500Y-711698D01*
G01X596900Y-114300D02*
G01X533400Y-177800D01*
G01X533400Y-828569D01*
G01X653110Y-948279D01*
G01X504393Y92507D02*
G01X504393Y-5893D01*
G01X373695Y116840D02*
G01X480060Y116840D01*
G01X504393Y92507D01*
G01X330261Y178388D02*
G01X461673Y178388D01*
G01X554406Y85656D01*
G01X554406Y-5893D01*
G01X495300Y533400D02*
G01X523240Y505460D01*
G01X596900Y-114300D02*
G01X596900Y86323D01*
G01X474315Y208908D01*
G01X572567Y276900D02*
G01X605373Y244094D01*
G01X704393Y244094D01*
G01X523240Y505460D02*
G01X523240Y257977D01*
G01X587110Y194107D01*
G01X704393Y194107D01*
G01X635000Y-139700D02*
G01X635000Y91385D01*
G01X486957Y239428D01*
G01X435368Y239428D02*
G01X431800Y242996D01*
G01X486957Y239428D02*
G01X435368Y239428D01*
G01X405893Y208908D02*
G01X381000Y233801D01*
G01X474315Y208908D02*
G01X405893Y208908D01*
G01X54407Y844093D02*
G01X54407Y765607D01*
G01X12700Y723900D01*
G01X4394Y844093D02*
G01X-1499Y838200D01*
G01X-50800Y838200D01*
G01X704393Y644093D02*
G01X250393Y644093D01*
G01X141919Y535619D01*
G01X381000Y233801D02*
G01X381000Y419100D01*
G01X317500Y482600D01*
G01X431800Y242996D02*
G01X431800Y436550D01*
G01X383375Y484975D01*
G54D40*
G01X1333500Y-317500D02*
G01X1464671Y-448671D01*
G01X1477371Y-448671D01*
G01X-1862700Y-329085D02*
G01X-1862700Y-254000D01*
G01X882508Y1638292D02*
G01X889000Y1644785D01*
G01X889000Y1778000D01*
G54D10*
G01X1083297Y339103D02*
G01X1083297Y262395D01*
G01X704393Y494106D02*
G01X852094Y494106D01*
G01X876300Y469900D01*
G01X1046661Y375739D02*
G01X1083297Y339103D01*
G01X1244600Y165100D02*
G01X1196678Y213022D01*
G01X906820Y439380D02*
G01X906820Y493517D01*
G01X939941Y406259D02*
G01X906820Y439380D01*
G01X1196678Y213022D02*
G01X1196678Y312379D01*
G01X1102798Y406259D01*
G01X939941Y406259D01*
G01X1361059Y546100D02*
G01X1231900Y546100D01*
G01X1125687Y439887D01*
G01X1026877Y442831D02*
G01X1029822Y439887D01*
G01X1125687Y439887D02*
G01X1029822Y439887D01*
G01X939800Y506791D02*
G01X939800Y469900D01*
G01X966869Y442831D01*
G01X1026877Y442831D01*
G54D40*
G01X-145593Y694106D02*
G01X-397045Y694106D01*
G01X-419377Y716438D01*
G54D10*
G01X-597459Y-201193D02*
G01X-597459Y-380441D01*
G01X-469900Y-508000D01*
G01X-469900Y-622300D01*
G54D40*
G01X-216764Y-355600D02*
G01X-165100Y-355600D01*
G01X-727803Y-494414D02*
G01X-737486Y-494414D01*
G01X-863600Y-368300D01*
G01X-571500Y685800D02*
G01X-635000Y622300D01*
G01X-635000Y355600D01*
G01X-1028700Y882154D02*
G01X-948311Y962542D01*
G01X-1028700Y876300D02*
G01X-1028700Y882154D01*
G54D10*
G01X-939302Y1130300D02*
G01X-1100278Y1130300D01*
G01X-1115289Y1115289D01*
G54D40*
G01X-948311Y962542D02*
G01X-948312Y973713D01*
G01X-1015999Y1041400D01*
G01X-1155700Y1041400D01*
G01X-1799316Y1223508D02*
G01X-1844598Y1178226D01*
G01X-1699060Y1223508D02*
G01X-1799316Y1223508D01*
G01X948311Y-911742D02*
G01X747769Y-711200D01*
G01X711200Y-711200D01*
G01X869798Y-381000D02*
G01X1015136Y-526339D01*
G01X1015136Y-546100D01*
G01X864464Y-546100D02*
G01X749300Y-546100D01*
G01X736600Y-533400D01*
G54D10*
G01X869767Y-381000D02*
G01X804438Y-315671D01*
G01X804438Y-147696D01*
G01X804753Y-147380D01*
G01X804753Y368300D01*
G01X778946Y394106D01*
G01X704393Y394106D01*
G54D40*
G01X192126Y1179300D02*
G01X192126Y1282700D01*
G01X192126Y1179300D02*
G01X26336Y1179300D01*
G01X24536Y1181100D01*
G54D10*
G01X-126136Y1181100D02*
G01X-126136Y1078636D01*
G01X-76200Y1028700D01*
G54D40*
G01X192126Y1179300D02*
G01X192126Y1093826D01*
G01X177800Y1079500D01*
G54D10*
G01X404393Y954507D02*
G01X404393Y844093D01*
G01X330200Y1028700D02*
G01X-76200Y1028700D01*
G01X330200Y1028700D02*
G01X404393Y954507D01*
G01X354406Y940994D02*
G01X309479Y985921D01*
G01X-173121Y985921D01*
G01X-203200Y1016000D01*
G54D40*
G01X-419377Y851440D02*
G01X-390390Y851440D01*
G01X-348414Y809464D01*
G01X-145593Y644093D02*
G01X-41707Y644093D01*
G01X-25400Y660400D01*
G01X-2200876Y812522D02*
G01X-2090164Y701810D01*
G01X-2090164Y698936D01*
G01X683142Y-1176911D02*
G01X609600Y-1103369D01*
G01X609600Y-1028700D01*
G01X1707238Y-878733D02*
G01X1625600Y-878733D01*
G01X1083297Y42405D02*
G01X1092200Y33503D01*
G01X1092200Y-50800D01*
G54D10*
G01X1046661Y375739D02*
G01X927299Y375739D01*
G01X876300Y426738D01*
G01X876300Y469900D01*
G01X-50800Y-12700D02*
G01X-50800Y121938D01*
G01X182862Y355600D01*
G01X304800Y355600D01*
G54D40*
G01X-40645Y-350609D02*
G01X-40645Y-419100D01*
G01X-216764Y-660400D02*
G01X-114300Y-660400D01*
G01X-216764Y-508000D02*
G01X-216764Y-660400D01*
G01X414957Y-350609D02*
G01X419100Y-354751D01*
G01X419100Y-444500D01*
G01X-723900Y-654202D02*
G01X-603098Y-654202D01*
G01X-546100Y-711200D01*
G01X-2090164Y698936D02*
G01X-2005870Y614642D01*
G01X254406Y-5893D02*
G01X254406Y126594D01*
G01X241300Y139700D01*
G01X177800Y139700D01*
G01X76200Y139700D02*
G01X177800Y139700D01*
G01X54407Y-5893D02*
G01X54407Y117907D01*
G01X76200Y139700D01*
G01X1117600Y-419100D02*
G01X1117600Y-508000D01*
G01X1009802Y-381000D02*
G01X1079500Y-381000D01*
G01X1117600Y-419100D01*
G01X558800Y1066400D02*
G01X609600Y1015600D01*
G01X609600Y939800D01*
G54D10*
G01X322562Y1079500D02*
G01X177800Y1079500D01*
G01X504393Y844093D02*
G01X504393Y930707D01*
G01X482600Y952500D01*
G01X449562Y952500D01*
G01X322562Y1079500D01*
G01X332130Y1115670D02*
G01X464780Y983020D01*
G01X534086Y983020D01*
G01X554406Y962700D01*
G01X554406Y844093D01*
G01X551220Y716320D02*
G01X625844Y790944D01*
G01X638485Y760424D02*
G01X563862Y685800D01*
G01X876300Y568412D02*
G01X939800Y506791D01*
G01X906820Y493517D02*
G01X845780Y554557D01*
G01X845780Y736600D01*
G01X876300Y749242D02*
G01X876300Y568412D01*
G01X625844Y790944D02*
G01X685800Y790944D01*
G01X719365Y824508D01*
G01X801033Y824508D01*
G01X876300Y749242D01*
G01X638485Y760424D02*
G01X698442Y760424D01*
G01X731009Y792991D01*
G01X789389Y792991D01*
G01X845780Y736600D01*
G54D40*
G01X704393Y694106D02*
G01X766354Y694106D01*
G01X793189Y720941D01*
G01X1282700Y-146202D02*
G01X1263498Y-127000D01*
G01X1130300Y-127000D01*
G01X1009802Y-203200D02*
G01X1054100Y-203200D01*
G01X1130300Y-127000D01*
G01X1495719Y617240D02*
G01X1104445Y617240D01*
G01X1394003Y419100D02*
G01X1524000Y419100D01*
G01X1549400Y444500D01*
G01X1549400Y563558D01*
G01X1495719Y617240D01*
G01X-1418681Y1223508D02*
G02X-1699060Y1223508I-140189J328885D01*
G01X-1376986Y1244600D02*
G02X-1418681Y1223508I-181885J307793D01*
G01X-1358900Y1244600D02*
G01X-1376986Y1244600D01*
G01X-1358900Y1244600D02*
G01X-1155700Y1041400D01*
G01X-1263802Y381305D02*
G01X-1263802Y454549D01*
G01X-444500Y1273852D01*
G01X-444500Y1651864D01*
G04 Track End*

M02*

